<svg width="743" height="800" viewBox="0 0 743 800" fill="none" xmlns="http://www.w3.org/2000/svg">
<path d="M519.793 799.999H232.167C144.409 715.548 75.3414 610.601 38.9596 490.98C20.9604 431.797 10.1678 369.487 13.9882 307.433C17.8085 245.38 36.9331 183.46 73.8224 135.129C110.712 86.7996 166.26 53.2931 224.843 51.0163C283.426 48.7413 343.589 80.2596 372.498 134.359C397.363 74.2255 469.526 39.144 531.115 45.7207C592.703 52.2974 647.754 95.4781 679.833 151.637C711.909 207.796 722.805 275.465 719.779 341.05C716.754 406.635 700.566 470.732 681.655 533.256C651.569 632.718 596.502 734.507 519.793 799.999Z" fill="#FBEED1"/>
<path d="M93.904 640.741C85.8258 627.591 75.3763 612.971 60.5849 612.691C46.238 612.418 34.6544 627.164 32.9673 642.279C31.2803 657.394 37.1255 672.303 44.1467 685.577C59.5348 714.675 81.2774 739.965 107.178 758.894C116 765.341 125.995 771.256 136.694 770.717C146.37 770.229 158.154 761.144 158.315 749.925C158.476 738.77 145.317 724.435 139.799 715.454C124.502 690.549 109.203 665.646 93.904 640.741Z" fill="#FBEED1"/>
<path d="M660.5 607.769C654.084 619.841 647.497 632.539 647.151 646.392C646.802 660.246 654.977 675.403 667.918 677.298C681.21 679.246 692.454 667.297 700.322 655.766C718.085 629.734 731.27 600.198 738.998 569.124C741.919 557.383 744.033 544.758 740.342 533.266C737.429 524.193 728.075 513.77 718.301 513.9C707.919 514.036 703.819 526.262 699.493 534.407C686.499 558.862 673.498 583.315 660.5 607.769Z" fill="#FBEED1"/>
<path d="M24.2819 599.864C37.6925 599.864 48.5639 588.331 48.5639 574.105C48.5639 559.878 37.6925 548.346 24.2819 548.346C10.8714 548.346 0 559.878 0 574.105C0 588.331 10.8714 599.864 24.2819 599.864Z" fill="#FBEED1"/>
<path d="M420.608 59.794C426.793 56.4514 433.328 53.5761 438.713 49.0557C444.098 44.5353 448.293 37.9044 447.808 30.8884C447.108 20.7959 436.749 13.5244 426.655 12.8594C416.561 12.1944 406.85 16.4855 397.826 21.0566C388.677 25.6908 379.575 30.8324 372.514 38.2701C360.776 50.6377 354.954 76.2339 374.276 85.4059C383.068 89.5798 389.827 82.7424 395.929 77.2455C403.439 70.485 411.718 64.5996 420.608 59.794Z" fill="#FBEED1"/>
<path d="M466.288 24.0704C468.351 28.2635 472.443 31.1756 476.825 32.8014C481.207 34.4272 485.913 34.919 490.561 35.3967C498.647 36.2297 507.918 36.669 513.678 30.9358C518.937 25.6997 518.989 16.6012 514.88 10.4218C510.771 4.24236 503.356 0.829765 495.967 0.117495C483.944 -1.03929 457.547 6.30216 466.288 24.0704Z" fill="#FBEED1"/>
<path d="M102.677 85.7804C107.752 81.8393 113.069 78.1047 117.269 73.2431C121.471 68.3832 124.512 62.132 124.017 55.7251C123.277 46.1261 114.537 38.5431 105.12 36.5375C95.7048 34.532 85.8923 37.0503 76.9828 40.6957C49.2218 52.0552 26.3767 74.9213 15.0468 102.696C11.5713 111.216 9.11943 120.384 9.92971 129.549C10.3777 134.607 11.9458 139.67 14.5866 143.991C20.22 153.212 31.6426 157.644 41.9416 154.377C48.0948 152.424 50.0198 147.925 52.8969 142.968C61.0784 128.872 70.9049 115.783 82.2575 104.082C88.6259 97.5145 95.4511 91.3911 102.677 85.7804Z" fill="#FBEED1"/>
<path d="M563.621 309.388C564.875 303.077 565.323 298.977 565.178 295.695C532.799 328.607 491.232 342.945 445.081 341.645C448.089 338.82 450.464 336.118 453.473 333.292C433.083 346.742 408.785 352.367 384.391 351.105C400.7 337.98 406.592 315.287 405.177 294.402C403.762 273.515 396.179 253.631 389.928 233.651C383.677 213.672 378.663 192.509 382.54 171.937C385.637 155.497 394.354 140.419 405.845 128.261C417.336 116.104 431.52 106.732 446.493 99.2716C457.776 93.6504 469.82 89.004 482.406 88.3005C494.991 87.5987 508.261 91.2843 517.047 100.325C535.798 99.0423 555.327 107.105 568.076 120.914C580.825 134.724 588.368 152.652 592.757 170.926C604.052 217.953 590.209 268.988 563.621 309.388Z" fill="#654059"/>
<path d="M573.482 219.025C569.128 229.312 557.278 235.838 546.258 234.021C539.566 232.917 533.639 229.182 527.991 225.425C504.31 209.669 480.894 190.842 459.958 171.586L466.841 139.233C459.083 137.679 427.031 138.645 415.932 151.573C394.87 176.105 404.368 215.775 407.9 235.906C412.25 260.704 420.313 286.689 437.005 305.538C453.697 324.388 480.091 335.776 504.628 330.134C506.581 329.684 508.55 330.288 510.353 331.476C518.209 328.543 525.8 324.955 533.102 320.706C540.572 305.796 550.758 292.215 559.23 277.765C569.692 259.923 577.686 239.276 573.482 219.025Z" fill="#472948"/>
<path d="M422.066 125.281C446.842 105.07 478.332 88.6719 517.047 100.329C508.261 91.29 494.991 87.6026 482.406 88.3044C469.82 89.0061 457.776 93.6543 446.493 99.2754C431.52 106.734 417.338 116.107 405.845 128.263C394.354 140.421 385.637 155.499 382.54 171.939C381.367 178.159 381.019 184.435 381.26 190.714C387.329 165.275 401.785 141.826 422.066 125.281Z" fill="#8E5A61"/>
<path d="M544.895 186.175C539.094 184.519 532.661 182.274 526.247 179.105C519.833 175.953 513.452 171.891 507.724 167.052C502.003 162.206 496.939 156.587 492.766 150.785C488.579 144.986 485.297 139.015 482.702 133.568C483.456 139.545 485.509 146.396 489.114 153.062C492.693 159.732 497.814 166.186 504.018 171.434C510.221 176.683 517.437 180.66 524.607 183.084C531.779 185.533 538.875 186.422 544.895 186.175Z" fill="#472948"/>
<path d="M573.57 180.145C567.459 178.418 560.618 176.255 553.619 173.364C546.619 170.487 539.47 166.896 532.685 162.699C525.912 158.483 519.52 153.674 513.832 148.68C508.134 143.694 503.157 138.524 498.895 133.816C501.461 139.611 505.398 145.939 510.629 151.877C515.843 157.825 522.33 163.366 529.504 167.827C536.686 172.274 544.531 175.625 552.175 177.653C559.821 179.703 567.24 180.42 573.57 180.145Z" fill="#472948"/>
<path d="M562.884 162.016C558.656 154.603 551.169 145.987 542.139 139.272C533.152 132.496 522.78 127.734 514.476 125.764C521.747 130.247 531.012 135.977 539.703 142.524C548.432 149.022 556.535 156.299 562.884 162.016Z" fill="#472948"/>
<path d="M582.92 195.222C585.271 188.055 586.307 179.034 584.975 169.55C583.687 160.084 580.033 150.209 574.144 141.74C568.255 133.272 560.269 126.406 551.843 121.905C543.416 117.355 534.598 115.185 527.062 114.895C534.138 117.542 541.794 121.287 549.001 126.485C556.211 131.653 562.949 138.244 568.244 145.844C573.526 153.455 577.359 162.065 579.693 170.623C582.057 179.188 582.901 187.669 582.92 195.222Z" fill="#472948"/>
<path d="M569.476 281.824C575.631 273.863 581.671 261.863 585.057 249.046C588.524 236.25 589.283 222.837 587.925 212.867C586.083 222.771 583.781 235.413 580.43 247.809C577.145 260.222 572.826 272.323 569.476 281.824Z" fill="#472948"/>
<path d="M404.568 336.905C408.15 332.711 411.591 327.182 414.135 320.758C416.695 314.347 418.351 307.071 418.803 299.708C419.238 292.344 418.468 284.922 416.696 278.251C414.942 271.569 412.189 265.666 409.137 261.072C410.598 266.405 411.998 272.488 412.83 279.012C413.675 285.531 413.964 292.477 413.558 299.393C413.131 306.306 412.011 313.168 410.388 319.538C408.778 325.915 406.659 331.786 404.568 336.905Z" fill="#472948"/>
<path d="M419.076 331.912C422.005 327.912 424.782 322.795 426.841 316.96C428.911 311.134 430.255 304.612 430.642 298.023C431.018 291.432 430.437 284.798 429.054 278.772C427.686 272.74 425.518 267.336 423.069 263.023C424.044 267.896 425.005 273.431 425.558 279.339C426.121 285.242 426.281 291.507 425.927 297.751C425.556 303.994 424.674 310.198 423.431 315.997C422.201 321.797 420.607 327.185 419.076 331.912Z" fill="#472948"/>
<path d="M426.7 336.834C431.126 335.49 436.04 333.01 440.568 329.34C445.1 325.691 449.227 320.865 452.22 315.375C455.212 309.885 457.034 303.802 457.643 298.014C458.273 292.22 457.694 286.747 456.427 282.299C456.236 286.926 455.681 292.127 454.388 297.456C453.109 302.781 451.098 308.222 448.354 313.266C445.603 318.306 442.118 322.944 438.337 326.906C434.556 330.882 430.486 334.167 426.7 336.834Z" fill="#472948"/>
<path d="M437.619 119.771C443.602 117.479 451.469 115.386 459.53 115.085C467.587 114.709 475.6 116.133 481.755 117.916C479.097 116.131 475.688 114.509 471.825 113.447C467.968 112.374 463.674 111.865 459.4 112.04C455.126 112.223 450.89 113.093 447.138 114.484C443.378 115.867 440.118 117.769 437.619 119.771Z" fill="#472948"/>
<path d="M415.714 139.809C423.388 135.297 433.578 130.399 444.458 127.618C455.314 124.743 466.598 124.051 475.499 124.249C471.295 122.797 466.168 121.782 460.618 121.598C455.074 121.4 449.126 122.034 443.391 123.519C437.657 125.017 432.157 127.364 427.411 130.239C422.658 133.106 418.675 136.491 415.714 139.809Z" fill="#472948"/>
<path d="M486.088 112.63C484.533 110.187 481.57 107.522 478.029 105.959C474.508 104.355 470.546 103.914 467.688 104.377C470.551 104.841 474.132 105.706 477.466 107.218C480.81 108.702 483.838 110.802 486.088 112.63Z" fill="#472948"/>
<path d="M654.1 510.656V358.89L580.871 326.062C575.845 336.104 571.568 346.52 568.129 357.21C563.705 370.96 560.525 385.391 552.765 397.573C545.007 409.755 531.135 419.466 516.868 417.208C507.484 415.724 499.399 409.225 494.359 401.173C489.319 393.121 487.016 383.637 485.903 374.203C483.994 358.001 485.441 341.423 490.052 325.775L436.536 348.139C419.798 355.132 405.649 367.155 396.045 382.543L359.969 440.339L404.162 483.822L410.668 554.71C414.002 591.03 411.409 627.666 402.93 663.139C384.663 739.576 372.892 799.997 372.892 799.997H654.1C651.835 759.943 644.135 723.36 635.789 694.04C621.239 642.921 623.805 588.461 643.089 538.935L654.1 510.656Z" fill="#6CA8BF"/>
<path opacity="0.4" d="M551.467 541.543C547.669 606.555 552.272 671.662 540.076 736.58C575.138 737.576 609.89 730.709 641.687 716.651C639.804 708.725 637.818 701.164 635.789 694.042C621.239 642.923 623.805 588.463 643.089 538.937L654.1 510.658V358.892L600.617 334.916C583.54 360.78 572.32 390.576 565.329 420.905C556.225 460.398 553.829 501.083 551.467 541.543Z" fill="#472948"/>
<path opacity="0.4" d="M459.495 734.215C459.495 734.215 455.144 572.787 466.588 477.224C433.904 460.357 401.218 443.49 368.534 426.623L359.969 440.343L404.162 483.827L410.668 554.714C414.002 591.035 411.409 627.67 402.93 663.144C399.764 676.388 396.799 689.136 394.052 701.186C406.599 714.744 428.356 731.886 459.495 734.215Z" fill="#472948"/>
<g opacity="0.4">
<path d="M586.567 783.523C572.684 783.511 557.009 782.965 540.592 780.912C524.18 778.893 507.052 775.392 490.369 770.354C473.7 765.265 457.517 758.651 442.754 751.203C427.968 743.781 414.636 735.519 403.091 727.809C411.62 738.725 423.389 750.018 437.729 759.726C452.034 769.463 468.852 777.587 486.535 782.975C504.228 788.329 522.724 790.929 540.027 790.789C557.345 790.697 573.407 787.853 586.567 783.523Z" fill="#472948"/>
</g>
<g opacity="0.4">
<path d="M637.938 732.748C627.671 736.579 615.991 740.789 603.396 744.505C590.809 748.238 577.322 751.475 563.673 753.834C550.019 756.164 536.224 757.609 523.112 758.29C510.001 758.99 497.584 758.917 486.627 758.729C496.958 762.331 509.45 765.059 523.007 766.1C536.556 767.166 551.143 766.542 565.436 764.1C579.723 761.634 593.683 757.357 606.1 751.834C618.535 746.328 629.402 739.589 637.938 732.748Z" fill="#472948"/>
</g>
<g opacity="0.4">
<path d="M613.527 601.664C594.11 607.577 569.573 616.252 544.836 624.339C520.125 632.503 495.223 640.076 476.085 646.835C496.363 646.413 522.673 641.829 547.847 633.506C573.053 625.272 596.952 613.354 613.527 601.664Z" fill="#472948"/>
</g>
<g opacity="0.4">
<path d="M515.661 624.692C503.106 619.25 487.145 612.225 471.964 603.687C456.733 595.234 442.384 585.327 431.168 577.488C435.291 582.943 440.704 588.757 447.122 594.261C453.529 599.773 460.933 604.969 468.792 609.365C476.655 613.753 484.963 617.333 493.017 619.899C501.065 622.479 508.855 624.04 515.661 624.692Z" fill="#472948"/>
</g>
<g opacity="0.4">
<path d="M571.926 575.266C562.679 574.566 553.344 570.371 543.892 564.87C534.435 559.457 524.376 552.394 511.975 548.812C505.845 547.023 499.023 546.484 492.829 547.338C486.601 548.103 480.849 549.755 475.493 551.458C464.804 554.911 455.214 558.316 445.933 558.379C450.328 559.769 455.454 560.247 460.758 559.981C466.073 559.736 471.566 558.813 477.065 557.828C482.569 556.832 488.104 555.828 493.566 555.506C499.046 555.121 504.285 555.714 509.595 557.23C520.218 560.231 530.392 566.34 540.998 570.757C546.297 572.945 551.68 574.725 556.988 575.567C559.636 575.988 562.247 576.195 564.762 576.155C567.28 576.09 569.688 575.775 571.926 575.266Z" fill="#472948"/>
</g>
<g opacity="0.4">
<path d="M557.958 406.965C553.901 411.9 548.501 416.678 541.945 420.171C535.424 423.678 527.794 425.89 520.123 425.986C512.453 426.061 504.776 424.019 498.178 420.659C491.547 417.313 486.04 412.658 481.874 407.814C484.296 413.711 489.06 419.968 495.843 424.574C502.567 429.204 511.279 432.16 520.192 432.062C529.105 431.961 537.748 428.811 544.367 424.031C551.047 419.275 555.669 412.915 557.958 406.965Z" fill="#472948"/>
</g>
<path d="M485.325 327.754C458.646 462.53 452.638 712.787 452.638 712.787C394.038 701.246 386.892 673.994 386.892 673.994C407.018 612.16 394.356 474.174 394.356 474.174L359.969 440.338L396.045 382.543C405.649 367.155 419.8 355.133 436.536 348.138L485.325 327.754Z" fill="#F4D071"/>
<path opacity="0.3" d="M398.189 578.66C397.8 603.975 396.197 629.949 392.316 651.595C415.383 646.237 437.287 635.925 456.182 621.645C457.076 603.497 458.168 583.503 459.493 562.453C439.059 567.856 418.624 573.258 398.189 578.66Z" fill="#CC6164"/>
<path d="M485.903 374.205C487.016 383.64 489.319 393.123 494.359 401.175C499.399 409.227 507.484 415.727 516.868 417.211C531.134 419.468 545.007 409.757 552.765 397.575C560.525 385.393 563.705 370.962 568.129 357.212C571.568 346.523 575.845 336.107 580.871 326.065L553.731 313.899L548.481 257.834L501.324 305.596V321.068L490.054 325.778C485.441 341.425 483.993 358.003 485.903 374.205Z" fill="#EBA58E"/>
<path d="M501.324 321.068C520.188 331.861 542.408 308.72 547.777 272.018L548.481 257.834L501.324 305.596V321.068Z" fill="#472948"/>
<path d="M548.924 350.021C544.314 349.393 539.612 350.992 536.341 354.298L529.425 361.288C529.085 361.631 529.089 362.186 529.432 362.525C529.603 362.693 529.825 362.777 530.048 362.777C530.274 362.777 530.499 362.691 530.669 362.518L537.585 355.529C540.471 352.611 544.624 351.197 548.688 351.755L569.049 354.527C569.238 353.964 569.434 353.402 569.629 352.84L548.924 350.021Z" fill="#E78882"/>
<path d="M507.003 355.531L513.919 362.521C514.091 362.694 514.317 362.78 514.541 362.78C514.763 362.78 514.985 362.696 515.157 362.528C515.5 362.188 515.503 361.634 515.164 361.291L508.247 354.301C504.978 350.995 500.271 349.399 495.668 350.024L485.434 351.417C485.39 352.01 485.36 352.605 485.325 353.199L495.903 351.758C499.973 351.2 504.121 352.616 507.003 355.531Z" fill="#E78882"/>
<path d="M518.959 414.747C510.071 412.282 502.836 405.457 498.295 397.428C493.755 389.399 491.648 380.222 490.404 371.083C488.355 356.041 487.725 340.781 490.052 325.779C485.439 341.426 483.992 358.005 485.903 374.207C487.016 383.641 489.319 393.125 494.359 401.177C499.399 409.229 507.484 415.728 516.868 417.212C521.856 418.002 526.787 417.303 531.434 415.573C527.258 416.047 523.079 415.889 518.959 414.747Z" fill="#E78882"/>
<path d="M584.639 327.754C549.647 398.654 563.647 590.284 552.272 712.787C633.649 708.412 666.025 687.412 666.025 687.412C640.649 559.658 654.1 358.891 654.1 358.891L584.639 327.754Z" fill="#F4D071"/>
<path opacity="0.3" d="M557.259 608.596C556.827 627.836 556.283 646.715 555.455 664.792C579.308 662.595 603.16 660.397 627.013 658.201C635.773 657.394 644.651 656.561 652.91 653.53C655.33 652.643 657.686 651.512 659.926 650.196C658.617 640.434 657.481 630.435 656.489 620.297C623.136 619.639 589.85 615.72 557.259 608.596Z" fill="#CC6164"/>
<path opacity="0.3" d="M613.564 406.131L619.649 574.244L558.105 565.545L586.156 563.978C597.021 563.373 605.442 554.25 605.181 543.371L603.938 491.551C603.524 474.246 604.796 456.944 607.74 439.888L613.564 406.131Z" fill="#CC6164"/>
<path d="M466.84 139.238C457.624 142.455 448.352 145.696 439.859 150.505C431.366 155.314 423.606 161.83 418.78 170.314C415.003 176.952 413.167 184.502 411.757 192.006C409.041 206.468 407.746 221.197 407.898 235.909C418.393 259.822 433.697 284.45 454.395 300.78C464.556 308.797 476.377 315.489 489.282 316.464C507.521 317.843 525.169 307.274 536.238 292.714C547.307 278.154 552.716 260.084 556.207 242.131C565.6 239.329 574.826 233.613 579.66 225.089C584.495 216.562 585.892 206.151 583.477 196.652C582.374 192.315 580.171 187.825 576.079 186.012C570.432 183.509 563.929 187.177 559.634 191.615C549.615 201.967 545.224 217.465 548.322 231.534C543.012 223.746 539.353 213.825 539.538 204.401C507.239 196.29 479.162 170.179 466.84 139.238Z" fill="#EBA58E"/>
<path d="M531.543 259.361C538.457 252.447 538.457 241.237 531.543 234.322C524.629 227.408 513.419 227.408 506.504 234.322C499.59 241.237 499.59 252.447 506.504 259.361C513.419 266.275 524.629 266.275 531.543 259.361Z" fill="#E68799"/>
<path d="M446.222 272.891C451.448 279.165 453.464 286.103 450.723 288.385C447.983 290.667 441.525 287.431 436.3 281.157C431.074 274.883 429.058 267.946 431.798 265.664C434.537 263.38 440.995 266.618 446.222 272.891Z" fill="#E68799"/>
<path d="M488.701 195.56C497.29 194.204 505.549 197.116 511.384 202.695L469.319 209.335C473.152 202.23 480.112 196.917 488.701 195.56Z" fill="#654059"/>
<path d="M484.874 227.803C485.266 231.77 488.801 234.668 492.768 234.276C496.736 233.884 499.634 230.349 499.242 226.382C498.85 222.415 495.315 219.517 491.347 219.909C487.378 220.301 484.482 223.836 484.874 227.803Z" fill="#472948"/>
<path d="M423.099 217.883C416.792 220.187 412.749 226.092 411.585 233.346L442.472 222.06C436.541 217.398 429.406 215.578 423.099 217.883Z" fill="#654059"/>
<path d="M441.093 244.543C442.738 248.175 441.802 252.147 439 253.416C436.198 254.685 432.595 252.77 430.948 249.137C429.303 245.506 430.239 241.533 433.041 240.265C435.843 238.996 439.448 240.912 441.093 244.543Z" fill="#472948"/>
<path d="M458.441 275.556C465.473 271.289 473.206 268.185 481.237 266.408C479.426 270.523 475.963 274.229 471.801 275.928C467.641 277.628 462.615 277.227 458.441 275.556Z" fill="#E78882"/>
<path d="M462.428 292.711C477.039 285.658 492.245 279.836 507.829 275.322C507.904 285.831 501.011 297.124 491.242 301.002C481.475 304.881 469.584 300.409 462.428 292.711Z" fill="white"/>
<path d="M574.702 194.061C562.439 199.305 554.393 213.035 555.807 226.298C556.099 229.032 557.205 232.215 559.879 232.852C561.533 233.246 563.29 232.455 564.482 231.244C565.674 230.033 566.407 228.454 567.093 226.898C568.435 223.857 569.714 220.646 569.525 217.326C569.336 214.006 567.259 210.564 564.008 209.863C564.286 203.563 569.321 197.349 574.702 194.061Z" fill="#E78882"/>
<path d="M433.268 167.942C441.478 161.7 466.25 152.249 466.25 152.249C480.919 180.698 501.646 192.088 518.623 196.391C495.465 184.352 476.405 163.252 466.841 139.234C457.625 142.451 448.354 145.692 439.861 150.503C431.368 155.314 423.608 161.827 418.781 170.312C415.005 176.95 413.169 184.499 411.758 192.004C409.042 206.466 407.747 221.194 407.9 235.907C411.758 192.004 419.075 178.733 433.268 167.942Z" fill="#E78882"/>
<path d="M571.547 242.223C571.547 246.635 567.97 250.214 563.556 250.214C559.142 250.214 555.565 246.637 555.565 242.223C555.565 237.81 559.142 234.232 563.556 234.232C567.97 234.232 571.547 237.81 571.547 242.223Z" fill="white"/>
<path d="M564.853 234.363C566.262 235.664 567.217 237.494 567.373 239.414C567.639 242.66 565.842 245.905 563.125 247.706C562.081 248.399 560.917 248.883 559.702 249.183C560.849 249.82 562.149 250.213 563.554 250.213C567.968 250.213 571.545 246.636 571.545 242.223C571.547 238.254 568.645 234.986 564.853 234.363Z" fill="#E4E4E0"/>
<path d="M86.4595 512.022C68.049 506.922 56.0157 485.414 61.3008 467.056C63.1034 460.795 66.5737 455.079 68.0315 448.73C73.1486 426.464 52.6521 405.367 54.0714 382.566C55.0392 367.004 66.0732 353.924 78.0488 343.939C90.0244 333.953 103.654 325.607 113.241 313.311C130.251 291.49 131.453 261.574 130.706 233.917C129.959 206.257 128.324 177.042 141.259 152.583C155.814 125.058 188.998 108.736 219.684 114.003C251.316 97.8084 294.264 101.405 323.024 122.276C351.784 143.147 367.367 180.78 361.781 215.874C357.943 239.979 345.027 262.652 345.869 287.046C347.068 321.783 375.608 350.202 380.634 384.594C385.671 419.056 365.272 453.548 336.884 473.728C308.499 493.907 273.377 502.091 238.873 506.84C190.822 513.452 133.203 524.972 86.4595 512.022Z" fill="#6A3649"/>
<path d="M348.391 189.233C353.058 229.484 320.388 264.037 355.389 322.595C350.262 311.18 346.298 299.521 345.867 287.045C345.026 262.651 357.941 239.977 361.779 215.872C367.367 180.778 351.784 143.145 323.022 122.274C307.517 111.021 287.887 104.802 268.13 103.984C323.024 122.274 343.725 148.98 348.391 189.233Z" fill="#8E5A61"/>
<path d="M84.018 353.674C93.9828 347.467 104.396 341.821 113.268 334.135C133.464 316.64 144.024 288.653 140.419 262.178C136.775 162.76 149.601 125.983 219.684 114.002C188.996 108.732 155.812 125.057 141.259 152.582C128.324 177.042 129.959 206.257 130.706 233.915C131.453 261.573 130.253 291.488 113.24 313.309C103.654 325.607 90.0242 333.953 78.0504 343.937C66.1588 353.853 55.207 366.823 54.1062 382.242C55.1072 380.244 56.2553 378.32 57.5258 376.509C64.267 366.9 74.0533 359.882 84.018 353.674Z" fill="#8E5A61"/>
<path d="M84.0356 464.388C87.2295 461.954 89.8475 458.422 91.5486 454.338C93.2444 450.244 94.1072 445.668 94.2419 440.959C94.4974 431.459 91.7096 421.916 89.8283 412.466C88.8833 407.732 88.2375 402.981 88.3285 398.245C88.4195 393.538 89.256 388.883 91.3001 384.894C93.3091 380.908 96.5887 377.546 100.488 374.59C104.383 371.615 108.834 369.012 113.321 366.099C131.66 354.356 145.657 336.663 153.703 318.181C157.763 308.928 160.402 299.453 161.727 290.322C163.063 281.186 163.075 272.408 162.144 264.445C161.554 280.462 157.492 298.631 148.598 315.75C139.797 332.837 126.289 348.834 109.21 359.779C104.915 362.578 100.306 365.299 95.9377 368.727C91.5941 372.117 87.4377 376.441 84.9422 381.807C82.4308 387.136 81.7063 392.895 81.8498 398.28C81.9986 403.69 83.0241 408.882 84.3191 413.738C86.9215 423.437 90.2798 432.252 90.9431 441.03C91.2686 445.395 90.9676 449.726 89.8755 453.759C88.7765 457.782 86.8112 461.476 84.0356 464.388Z" fill="#472948"/>
<path d="M132.664 435.348C129.185 432.481 126.27 428.519 124.761 423.787C123.935 421.456 123.45 418.95 123.217 416.382C122.944 413.819 123.02 411.171 123.303 408.525C124.297 397.79 130.512 387.794 137.762 378.795C145.009 369.749 153.422 361.172 159.233 351.405C162.146 346.568 164.473 341.528 165.8 336.475C167.201 331.447 167.436 326.416 166.848 321.955C166.727 326.465 165.875 331.236 164.034 335.908C162.263 340.6 159.657 345.21 156.561 349.681C150.415 358.682 141.945 366.816 134.451 376.147C130.729 380.818 127.236 385.8 124.632 391.22C121.945 396.563 120.354 402.554 120.13 408.281C120.006 411.157 120.137 414.004 120.655 416.732C121.133 419.461 121.903 422.088 123.037 424.476C125.158 429.328 128.793 433.08 132.664 435.348Z" fill="#472948"/>
<path d="M335.887 405.102C339.956 402.123 343.864 398.025 346.749 392.911C349.711 387.843 351.772 381.891 352.824 375.575C353.883 369.268 353.909 362.523 352.896 355.913C351.949 349.277 350.062 342.736 347.724 336.432C342.985 323.814 336.37 312.236 330.569 301.308C324.704 290.399 319.744 279.942 316.719 270.27C318.19 280.301 322.165 291.538 327.369 302.882C332.522 314.269 338.708 325.925 343.272 338.098C347.843 350.222 350.617 363.043 349.292 375.097C348.682 381.098 347.213 386.851 344.901 391.957C342.66 397.111 339.447 401.511 335.887 405.102Z" fill="#472948"/>
<path d="M301.582 406.128C306.903 400.101 312.139 392.205 316.082 382.97C320.051 373.758 322.719 363.261 323.609 352.594C324.471 341.926 323.551 331.134 321.141 321.396C318.759 311.642 314.883 302.996 310.616 296.182C313.766 303.59 316.657 312.371 318.367 321.986C320.101 331.587 320.67 341.982 319.841 352.285C318.978 362.584 316.72 372.746 313.441 381.936C310.184 391.143 305.9 399.335 301.582 406.128Z" fill="#472948"/>
<path d="M287.631 393.856C291.462 390.272 295.436 385.575 298.842 379.999C302.259 374.436 305.105 368.011 306.993 361.309C308.866 354.601 309.776 347.634 309.748 341.104C309.737 334.57 308.785 328.492 307.375 323.438C307.977 328.654 308.294 334.676 307.898 341.05C307.518 347.42 306.433 354.128 304.619 360.642C302.785 367.15 300.222 373.443 297.235 379.082C294.258 384.733 290.858 389.714 287.631 393.856Z" fill="#472948"/>
<path d="M175.39 222.426C179.908 223.173 185.122 222.356 189.908 219.958C194.71 217.587 199.117 213.823 202.612 209.125C206.096 204.4 208.604 198.898 210.554 193.223C212.508 187.539 213.928 181.674 215.426 175.929C216.92 170.196 218.562 164.552 220.837 159.319C223.098 154.106 226.057 149.272 229.853 145.516C233.668 141.796 238.395 139.162 243.239 137.946C248.085 136.705 253.099 137.046 257.297 138.914C253.459 136.407 248.201 135.301 242.88 136.099C237.559 136.864 232.179 139.278 227.678 143.136C223.194 147.037 219.753 152.16 217.167 157.651C214.572 163.155 212.785 169.018 211.264 174.844C209.75 180.664 208.436 186.454 206.723 191.968C205.02 197.47 202.888 202.738 199.964 207.284C197.026 211.808 193.242 215.637 188.989 218.317C184.749 221.014 179.978 222.449 175.39 222.426Z" fill="#472948"/>
<path d="M171.543 197.714C178.708 184.356 186.853 166.173 198.424 150.38C204.22 142.552 210.697 135.027 218.679 130.808C226.526 126.565 235.947 126.182 242.607 129.964C239.624 127.609 235.537 126.086 231.111 125.816C226.694 125.529 221.92 126.368 217.505 128.407C213.072 130.398 209.006 133.406 205.386 136.861C201.765 140.338 198.536 144.22 195.552 148.268C189.586 156.383 184.817 165.25 180.937 173.782C177.052 182.324 174.018 190.542 171.543 197.714Z" fill="#472948"/>
<path d="M329.674 252.832C327.128 248.275 325.455 242.922 324.711 237.18C323.953 231.434 324.056 225.32 324.75 219.067C325.43 212.795 326.631 206.349 327.679 199.681C328.717 193.023 329.604 186.106 329.391 179.04C329.195 172.017 327.896 164.861 324.893 158.396C321.925 151.949 316.916 146.41 310.98 143.143C305.06 139.851 298.52 138.432 292.437 138.668C286.336 138.857 280.732 140.785 276.378 143.633C281.137 141.501 286.679 140.397 292.407 140.812C298.119 141.181 303.983 143.011 309.083 146.289C314.197 149.576 318.211 154.469 320.709 160.286C323.195 166.1 324.314 172.622 324.496 179.187C324.874 192.354 321.633 205.759 321.088 218.787C320.782 225.3 321.2 231.7 322.606 237.57C323.99 243.438 326.445 248.734 329.674 252.832Z" fill="#472948"/>
<path d="M307.557 133.811C305.688 132.299 303.177 130.913 300.273 130.047C297.375 129.168 294.106 128.808 290.877 129.067C287.65 129.333 284.481 130.216 281.763 131.55C279.037 132.875 276.784 134.647 275.183 136.441C279.325 133.982 285.053 131.804 291.063 131.35C297.069 130.827 303.074 132.054 307.557 133.811Z" fill="#472948"/>
<path d="M294.435 121.254C291.119 120.073 286.143 120.071 281.76 121.9C277.346 123.656 273.79 127.135 272.243 130.297C274.717 127.791 278.293 125.096 282.391 123.451C286.472 121.765 290.914 121.193 294.435 121.254Z" fill="#472948"/>
<path d="M283.963 116.373C281.058 115.444 276.691 115.762 273.083 117.78C269.434 119.722 266.805 123.223 266.016 126.17C267.707 123.632 270.423 120.858 273.778 119.052C277.113 117.208 280.914 116.422 283.963 116.373Z" fill="#472948"/>
<path d="M238.841 155.582C240.833 152.546 243.894 148.802 248.082 147.18C252.203 145.556 257.121 146.536 259.758 149.128C258.885 147.511 257.079 145.986 254.797 145.293C252.53 144.579 249.849 144.616 247.446 145.551C245.065 146.478 243.066 148.149 241.65 149.983C240.22 151.823 239.328 153.814 238.841 155.582Z" fill="#472948"/>
<path d="M215.363 144.78C217.883 141.309 221.84 137.475 226.698 135.244C231.53 132.955 237.011 132.388 241.288 132.687C239.291 131.894 236.778 131.39 234.069 131.462C231.363 131.523 228.472 132.16 225.833 133.39C223.194 134.621 220.847 136.427 219.062 138.46C217.267 140.492 216.038 142.741 215.363 144.78Z" fill="#472948"/>
<path d="M197.911 132.666C200.823 129.855 204.959 126.798 209.666 124.88C214.353 122.914 219.44 122.158 223.488 122.094C219.633 120.869 213.949 120.979 208.931 123.1C203.881 125.14 199.779 129.076 197.911 132.666Z" fill="#472948"/>
<path d="M331.475 368.904C347.21 368.904 360.89 379.7 364.548 395.003L386.894 488.49L374.99 497.64L345.775 442.781C338.276 428.7 333.934 413.154 333.048 397.227L331.475 368.904Z" fill="#6C6FC3"/>
<path opacity="0.4" d="M333.048 397.227C333.934 413.156 338.276 428.699 345.775 442.78L374.99 497.639L386.894 488.49L349.457 430.253C346.445 425.57 344.42 420.32 343.505 414.829C342.355 407.926 338.684 401.698 333.204 397.347L333.048 397.227Z" fill="#472948"/>
<path d="M376.563 500.597L345.773 442.781C338.274 428.7 333.932 413.154 333.047 397.227L331.473 368.904L294.456 369.177C296.801 401.564 292.712 434.806 283.38 466.132C279.451 479.318 262.726 483.529 253.034 473.76C221.871 442.352 184.613 417.013 143.964 399.539L111.258 413.531L139.766 660.35C143.438 692.142 138.112 724.325 124.397 753.241L102.217 799.999H386.892L367.09 717.489C361.681 694.951 360.911 671.549 364.828 648.704L383.18 541.648C385.587 527.611 383.259 513.17 376.563 500.597Z" fill="#6C6FC3"/>
<path d="M226.164 548.623C225.338 550.401 220.799 550.446 214.318 547.914C211.081 546.668 207.447 544.696 203.688 542.076C199.971 539.412 196.153 536.073 192.64 532.111C189.159 528.119 186.337 523.907 184.172 519.878C182.056 515.815 180.565 511.959 179.742 508.589C178.061 501.839 178.685 497.341 180.554 496.75C182.534 496.111 185.369 499.282 189.119 504.168C191.014 506.653 193.185 509.497 195.558 512.609C198.006 515.699 200.696 519.035 203.65 522.43C206.639 525.795 209.604 528.889 212.355 531.714C215.137 534.467 217.68 536.981 219.903 539.179C224.267 543.525 227.05 546.741 226.164 548.623Z" fill="#7980D1"/>
<path d="M307.939 501.736C308.661 503.789 305.07 507.368 297.872 510.317C296.079 511.041 294.073 511.753 291.87 512.294C289.675 512.928 287.283 513.325 284.749 513.724C279.677 514.385 274.002 514.546 268.109 513.927C262.222 513.257 256.716 511.874 251.907 510.133C249.518 509.195 247.27 508.29 245.264 507.198C243.229 506.193 241.426 505.065 239.83 503.969C233.441 499.536 230.707 495.264 231.855 493.416C233.066 491.439 237.748 492.069 244.436 493.394C246.116 493.721 247.912 494.125 249.855 494.473C251.764 494.907 253.834 495.222 255.962 495.658C260.26 496.397 264.936 497.142 269.882 497.709C274.833 498.224 279.56 498.507 283.916 498.714C286.088 498.747 288.177 498.887 290.135 498.876C292.108 498.957 293.947 498.95 295.659 498.994C302.477 499.146 307.183 499.543 307.939 501.736Z" fill="#7980D1"/>
<path d="M232.909 570.035C233.318 567.746 237.849 566.71 244.09 564.866C250.343 563.07 258.451 560.197 266.027 555.095C273.594 549.982 279.296 543.54 283.301 538.416C287.349 533.319 290.006 529.506 292.283 529.984C293.369 530.22 294.197 531.548 294.561 533.864C294.932 536.174 294.75 539.459 293.728 543.365C292.715 547.267 290.767 551.753 287.699 556.214C284.644 560.671 280.407 565.057 275.155 568.628C269.877 572.16 264.224 574.447 258.946 575.609C253.661 576.784 248.773 576.91 244.774 576.388C240.768 575.872 237.657 574.81 235.653 573.602C233.642 572.396 232.722 571.133 232.909 570.035Z" fill="#7980D1"/>
<path d="M211.784 469.6C210.421 470.465 207.659 468.629 203.898 465.617C200.134 462.586 195.244 458.452 189.56 454.282C183.858 450.134 178.433 446.736 174.399 444.072C170.387 441.405 167.797 439.335 168.206 437.772C168.588 436.29 172.04 435.616 177.341 436.563C179.987 437.023 183.046 437.954 186.307 439.342C189.546 440.766 192.971 442.669 196.287 445.071C199.584 447.499 202.44 450.183 204.782 452.835C207.096 455.519 208.914 458.148 210.158 460.53C212.671 465.292 213.081 468.786 211.784 469.6Z" fill="#7980D1"/>
<path d="M301.975 461.171C300.998 459.964 302.433 457.19 304.561 453.27C305.648 451.318 306.847 449.008 308.105 446.467C309.314 443.891 310.557 441.067 311.677 438.02C312.755 434.959 313.597 431.989 314.307 429.234C314.956 426.473 315.504 423.93 315.91 421.732C316.768 417.355 317.429 414.303 318.952 413.995C320.354 413.696 322.441 416.405 323.586 421.538C324.172 424.091 324.403 427.215 324.207 430.68C323.953 434.131 323.232 437.915 321.894 441.697C320.515 445.464 318.659 448.838 316.656 451.661C314.599 454.456 312.431 456.717 310.352 458.312C306.199 461.537 302.865 462.295 301.975 461.171Z" fill="#7980D1"/>
<path d="M358.197 479.888C357.654 481.606 353.986 482.02 348.634 482.186C345.89 482.256 342.787 482.334 339.405 482.42C335.978 482.56 332.256 482.737 328.351 483.056C324.452 483.413 320.753 483.88 317.354 484.333C314.008 484.832 310.938 485.289 308.222 485.693C302.923 486.451 299.237 486.676 298.408 485.077C297.617 483.57 299.971 480.423 305.091 477.268C307.638 475.681 310.886 474.19 314.645 472.938C318.411 471.736 322.693 470.805 327.252 470.392C331.815 470.014 336.193 470.194 340.11 470.728C344.026 471.313 347.485 472.223 350.265 473.346C355.855 475.574 358.716 478.266 358.197 479.888Z" fill="#7980D1"/>
<path d="M348.948 397.666C348.092 398.473 345.876 397.544 342.775 395.977C339.667 394.395 335.586 392.25 330.905 390.288C326.213 388.347 321.817 386.963 318.504 385.871C315.207 384.774 312.986 383.855 312.956 382.679C312.923 381.573 315.207 380.395 319.129 380.045C323.024 379.683 328.537 380.332 334.09 382.637C339.637 384.954 343.981 388.409 346.47 391.429C348.984 394.462 349.758 396.912 348.948 397.666Z" fill="#7980D1"/>
<path d="M274.322 722.981C272.964 724.574 268.809 723.352 262.973 720.909C260.059 719.67 256.669 718.184 252.971 716.52C249.247 714.898 245.199 713.119 240.912 711.336C236.61 709.586 232.483 708.004 228.695 706.538C224.895 705.118 221.441 703.792 218.499 702.623C212.633 700.255 208.821 698.2 208.975 696.113C209.117 694.117 213.354 692.462 220.296 692.285C223.761 692.182 227.865 692.532 232.352 693.363C236.825 694.238 241.673 695.622 246.554 697.612C251.423 699.632 255.841 702.057 259.637 704.583C263.412 707.148 266.576 709.787 268.965 712.297C273.776 717.307 275.624 721.464 274.322 722.981Z" fill="#7980D1"/>
<path d="M321.306 676.169C322.539 677.676 320.586 681.904 314.972 686.354C309.456 690.78 300.007 695.056 288.858 695.472C277.708 695.903 267.962 692.359 262.128 688.363C256.191 684.35 253.923 680.283 255.038 678.687C256.207 676.969 260.327 677.77 266.188 678.838C272.05 679.94 279.822 681.158 288.3 680.838C296.777 680.514 304.435 678.71 310.196 677.165C315.961 675.658 320.011 674.545 321.306 676.169Z" fill="#7980D1"/>
<path d="M321.75 724.998C320.787 723.73 322.352 720.921 324.722 716.974C325.927 715.009 327.277 712.687 328.71 710.13C330.096 707.538 331.542 704.696 332.887 701.625C334.193 698.538 335.267 695.534 336.197 692.747C337.068 689.948 337.829 687.372 338.43 685.146C339.67 680.713 340.637 677.647 342.219 677.474C343.685 677.301 345.556 680.257 346.303 685.582C346.692 688.233 346.686 691.434 346.233 694.952C345.726 698.454 344.733 702.262 343.13 706.037C341.489 709.796 339.404 713.131 337.21 715.907C334.965 718.653 332.642 720.856 330.449 722.396C326.066 725.513 322.632 726.183 321.75 724.998Z" fill="#7980D1"/>
<path d="M210.722 784.804C210.694 787.095 205.689 789.449 197.185 789.055C192.966 788.861 187.955 787.886 182.682 785.844C177.415 783.812 171.92 780.648 166.901 776.35C161.909 772.017 157.972 767.046 155.189 762.134C152.394 757.218 150.693 752.406 149.881 748.261C148.241 739.908 149.836 734.613 152.097 734.247C154.515 733.82 157.217 737.957 161.209 743.68C165.168 749.434 170.702 756.803 178.187 763.263C185.677 769.717 193.78 774.108 200.053 777.177C206.299 780.284 210.79 782.349 210.722 784.804Z" fill="#7980D1"/>
<path d="M239.522 789.534C237.627 789.706 235.749 786.316 233.343 781.265C232.16 778.726 230.748 775.783 229.185 772.573C227.564 769.384 225.762 765.942 223.711 762.412C221.621 758.905 219.49 755.657 217.489 752.691C215.443 749.766 213.555 747.101 211.912 744.833C208.667 740.278 206.618 736.989 207.687 735.416C208.681 733.934 212.799 734.536 218.27 737.822C221.007 739.446 223.98 741.804 226.952 744.78C229.874 747.792 232.765 751.446 235.249 755.625C237.695 759.827 239.486 764.127 240.697 768.145C241.855 772.188 242.471 775.933 242.56 779.115C242.774 785.494 241.3 789.386 239.522 789.534Z" fill="#7980D1"/>
<path d="M339.84 761.064C340.458 761.914 340.203 763.396 338.881 765.267C337.574 767.141 335.106 769.285 331.564 771.105C328.033 772.938 323.423 774.273 318.246 774.71C313.073 775.143 307.359 774.632 301.653 773.05C296.042 771.457 291.094 769.121 286.975 766.63C282.843 764.135 279.485 761.512 276.874 759.103C271.669 754.266 269.275 750.332 270.412 748.535C271.569 746.706 276.177 747.441 282.575 749.709C288.989 751.941 297.108 755.61 305.851 758.087C314.479 760.51 322.499 760.966 328.397 760.584C334.307 760.292 338.502 759.275 339.84 761.064Z" fill="#7980D1"/>
<path d="M355.369 785.411C353.4 784.827 354.007 777.33 352.927 768.504C351.996 759.661 349.719 752.491 351.508 751.48C352.364 751.026 354.147 752.355 355.965 755.232C357.782 758.086 359.504 762.538 360.095 767.688C360.676 772.841 359.997 777.566 358.869 780.754C357.743 783.966 356.305 785.66 355.369 785.411Z" fill="#7980D1"/>
<path opacity="0.4" d="M190.6 712.696L296.665 660.86C318.46 650.209 341.982 643.608 366.093 641.324L368.018 630.097L319.079 608.223L206.306 609.086C194.147 609.179 183.473 601.015 180.381 589.255L151.49 479.39L118.344 474.857L139.768 660.35C142.127 680.782 140.751 701.373 135.839 721.158C154.459 723.923 173.559 721.023 190.6 712.696Z" fill="#472948"/>
<path opacity="0.4" d="M355.136 764.164C341.3 769.661 324.72 771.656 307.443 770.175C290.141 768.751 271.958 764.034 253.642 759.084C235.394 754.105 217.342 748.42 200.414 742.584C183.466 736.786 167.683 730.768 153.726 725.652C165.367 734.87 179.863 744.215 196.312 752.356C212.734 760.536 231.059 767.571 249.917 772.715C259.352 775.271 268.853 777.471 278.498 778.975C288.119 780.483 297.846 781.209 307.281 780.772C316.719 780.334 325.829 778.658 334.009 775.809C342.198 772.977 349.418 768.907 355.136 764.164Z" fill="#472948"/>
<path opacity="0.4" d="M347.448 723.102C342.414 726.316 337.084 729.792 331.417 733.115C325.759 736.446 319.778 739.634 313.633 742.49C307.478 745.322 301.175 747.814 294.972 749.968C288.772 752.135 282.671 753.944 276.961 755.698C282.39 758.115 289.259 759.471 296.614 759.216C303.962 758.985 311.754 757.149 318.889 753.855C326.02 750.551 332.464 745.805 337.399 740.355C342.357 734.916 345.773 728.803 347.448 723.102Z" fill="#472948"/>
<path opacity="0.4" d="M328.381 699.547C320.469 702.168 311.486 705.115 301.838 707.772C292.195 710.443 281.894 712.824 271.49 714.645C261.081 716.445 250.581 717.679 240.604 718.423C230.625 719.179 221.175 719.438 212.841 719.643C220.807 722.054 230.35 723.804 240.658 724.364C250.961 724.942 262.009 724.328 272.848 722.45C283.685 720.556 294.292 717.404 303.795 713.383C313.304 709.375 321.696 704.507 328.381 699.547Z" fill="#472948"/>
<path opacity="0.4" d="M362.756 569.604C358.772 574.605 352.784 577.61 346.265 578.909C342.992 579.567 339.571 579.859 336.092 579.848C332.632 579.815 329.055 579.435 325.326 578.954C317.89 578.011 309.916 576.448 301.077 576.607C296.682 576.67 292.048 577.339 287.79 578.466C283.489 579.57 279.427 581.059 275.53 582.605C271.769 584.145 268.008 585.685 264.261 587.218C260.63 588.658 257.004 589.887 253.325 591.017C245.959 593.175 238.486 594.715 231.112 595.606C216.348 597.358 202.064 596.675 189.564 594.697C200.81 600.499 215.52 604.443 231.586 604.625C239.606 604.706 247.928 603.812 256.195 601.936C260.308 600.952 264.452 599.753 268.458 598.303C272.444 596.855 276.263 595.273 279.983 593.791C283.702 592.316 287.33 590.935 290.913 589.901C294.518 588.838 297.962 588.177 301.633 587.883C308.957 587.258 316.819 587.97 324.757 587.969C328.717 587.962 332.747 587.797 336.703 587.162C340.63 586.506 344.41 585.438 347.898 583.919C351.387 582.419 354.56 580.365 357.141 577.914C359.723 575.464 361.657 572.572 362.756 569.604Z" fill="#472948"/>
<path d="M283.41 466.036C292.72 434.738 296.798 401.533 294.456 369.179L252.138 369.491L256.806 312.907L197.887 298.469L190.012 379.846L143.966 399.545C184.614 417.017 221.873 442.358 253.036 473.766C262.794 483.599 279.46 479.317 283.41 466.036Z" fill="#F2C9AD"/>
<path d="M196.394 313.9C203.139 370.654 234.869 375.996 252.399 366.325L256.806 312.903L197.887 298.465L196.394 313.9Z" fill="#EBA58E"/>
<path d="M236.6 352.68C242.363 353.213 248.215 352.449 253.696 350.594L256.804 312.903L197.885 298.465L196.391 313.9C199.597 323.363 203.501 332.638 210.291 339.848C217.132 347.107 226.67 351.761 236.6 352.68Z" fill="#472948"/>
<path d="M271.495 478.215C276.908 476.468 281.558 472.256 283.41 466.034C292.72 434.736 296.798 401.531 294.456 369.178C292.228 416.473 284.551 463.442 271.495 478.215Z" fill="#EBA58E"/>
<path d="M229.237 410.697L233.702 415.579C233.875 415.768 234.111 415.865 234.347 415.865C234.559 415.865 234.771 415.789 234.937 415.635C235.294 415.308 235.319 414.755 234.993 414.398L230.529 409.515C227.26 405.942 222.605 403.971 217.774 404.115L157.793 405.863C158.917 406.406 160.035 406.962 161.153 407.517L217.825 405.865C222.153 405.739 226.313 407.501 229.237 410.697Z" fill="#EBA58E"/>
<path d="M269.471 394.178C264.634 396.161 260.971 400.366 259.67 405.429L258.582 409.666C258.463 410.135 258.745 410.611 259.212 410.732C259.285 410.751 259.357 410.76 259.431 410.76C259.821 410.76 260.176 410.497 260.278 410.104L261.366 405.867C262.53 401.338 265.808 397.573 270.134 395.8L295.084 385.578C295.081 384.95 295.072 384.324 295.063 383.695L269.471 394.178Z" fill="#EBA58E"/>
<path d="M177.471 619.163L319.08 608.225L325.205 599.912L411.052 602.215L420.673 593.889L426.709 606.526L400.019 626.163L331.475 637.976L174.541 696.345C143.991 707.708 110.327 690.11 102.219 658.539L177.471 619.163Z" fill="#F2C9AD"/>
<path d="M177.471 619.162L102.219 658.538C104.844 668.76 110.159 677.505 117.171 684.29C136.775 670.706 163.01 648.463 177.471 619.162Z" fill="#EBA58E"/>
<path d="M111.26 413.531L107.056 415.33C83.6228 425.355 68.7841 448.775 69.7274 474.246L77.1336 673.998C140.204 664.14 177.469 619.164 177.469 619.164L151.488 479.393C147.211 456.386 135.489 435.426 118.127 419.739L111.26 413.531Z" fill="#6C6FC3"/>
<path d="M118.066 465.589C116.87 465.567 115.727 463.05 115.53 458.82C115.32 454.618 116.238 448.733 118.888 442.842C121.552 436.957 125.356 432.373 128.645 429.75C131.947 427.101 134.589 426.29 135.398 427.172C136.259 428.102 135.235 430.485 133.485 433.812C131.719 437.146 129.304 441.512 127.033 446.517C124.784 451.531 123.107 456.232 121.777 459.762C120.44 463.274 119.331 465.619 118.066 465.589Z" fill="#7980D1"/>
<path d="M130.011 502.874C129.882 504.106 127.18 505.061 122.791 504.878C118.429 504.708 112.43 503.205 106.603 499.895C100.782 496.572 96.4279 492.179 94.0583 488.515C91.6607 484.834 91.1042 482.022 92.0965 481.282C93.1448 480.491 95.4933 481.798 98.7414 483.938C101.995 486.098 106.249 489.022 111.184 491.849C116.132 494.652 120.818 496.819 124.336 498.514C127.834 500.214 130.157 501.568 130.011 502.874Z" fill="#7980D1"/>
<path d="M131.373 579.87C131.138 581.671 126.987 583.03 120.328 582.124C118.676 581.888 116.868 581.545 115.001 580.946C113.09 580.442 111.161 579.623 109.121 578.748C105.119 576.865 100.943 574.254 97.0788 570.883C93.2514 567.469 90.1416 563.652 87.7738 559.916C86.6503 557.999 85.5985 556.188 84.86 554.354C84.0339 552.576 83.4687 550.826 83.0277 549.216C81.2986 542.722 82.1316 538.434 83.8887 537.975C85.7962 537.454 88.2831 540.538 91.7972 544.939C92.6844 546.041 93.6014 547.249 94.676 548.476C95.6595 549.753 96.8548 551.005 98.0063 552.37C100.437 555.012 103.155 557.802 106.207 560.534C109.298 563.22 112.406 565.57 115.33 567.653C116.828 568.624 118.218 569.655 119.609 570.472C120.96 571.384 122.271 572.145 123.477 572.887C128.282 575.829 131.651 577.912 131.373 579.87Z" fill="#7980D1"/>
<path d="M147.727 516.321C149.061 516.428 150.209 519.412 149.845 524.317C149.68 526.76 149.038 529.62 147.916 532.665C146.745 535.682 145.063 538.867 142.823 541.877C140.552 544.863 137.956 547.362 135.38 549.322C132.766 551.243 130.195 552.65 127.894 553.487C123.281 555.193 120.095 554.917 119.625 553.665C119.1 552.313 121.165 550.256 124.157 547.369C125.671 545.939 127.383 544.22 129.21 542.309C131 540.355 132.888 538.184 134.724 535.78C136.527 533.351 138.089 530.936 139.472 528.673C140.802 526.389 141.98 524.268 142.935 522.418C144.876 518.745 146.281 516.192 147.727 516.321Z" fill="#7980D1"/>
<path d="M137.5 615.655C136.397 614.885 136.922 612.187 137.97 608.349C139.033 604.499 140.515 599.431 141.677 593.732C142.813 588.029 143.406 582.782 143.917 578.82C144.439 574.876 144.999 572.184 146.311 571.901C147.548 571.628 149.354 573.941 150.594 578.264C151.84 582.555 152.314 588.871 150.966 595.602C149.605 602.329 146.722 607.969 143.912 611.445C141.096 614.952 138.536 616.387 137.5 615.655Z" fill="#7980D1"/>
<path d="M134.493 635.739C134.654 637.027 132.148 638.628 127.699 639.566C123.277 640.511 116.907 640.618 110.166 639.029C103.428 637.427 97.7823 634.475 94.2525 631.649C90.6946 628.815 89.1739 626.262 89.8949 625.182C90.6491 624.043 93.4247 624.51 97.3798 625.574C101.345 626.652 106.557 628.234 112.392 629.627C118.233 630.999 123.601 631.922 127.628 632.735C131.639 633.555 134.329 634.382 134.493 635.739Z" fill="#7980D1"/>
<path opacity="0.4" d="M76.5035 657.021C83.5597 657.114 91.7605 656.225 100.266 654.081C108.771 651.953 117.563 648.575 125.799 644.139C134.028 639.69 141.679 634.197 148.126 628.256C154.589 622.325 159.832 615.958 163.63 610.008C158.152 614.476 151.889 619.465 144.96 624.335C138.04 629.215 130.466 633.975 122.609 638.226C114.742 642.459 106.604 646.176 98.7274 649.281C90.8539 652.399 83.2447 654.895 76.5035 657.021Z" fill="#472948"/>
<path opacity="0.4" d="M110.143 618.489C117.843 620.498 128.053 620.276 137.747 617.789C147.451 615.34 156.525 610.657 162.33 605.213C154.363 605.507 144.95 607.336 135.683 609.677C126.426 612.049 117.282 614.94 110.143 618.489Z" fill="#472948"/>
<path opacity="0.4" d="M142.342 469.86C140.932 465.149 138.207 460.109 134.32 455.499C130.449 450.882 125.433 446.714 119.833 443.557C114.229 440.408 108.062 438.284 102.107 437.372C96.1496 436.443 90.427 436.731 85.6686 437.969C94.5308 442.311 104.874 446.983 114.754 452.582C124.668 458.124 134.031 464.54 142.342 469.86Z" fill="#472948"/>
<path d="M298.69 314.873C302.557 314.873 305.692 311.738 305.692 307.871C305.692 304.004 302.557 300.869 298.69 300.869C294.823 300.869 291.688 304.004 291.688 307.871C291.688 311.738 294.823 314.873 298.69 314.873Z" fill="white"/>
<path d="M299.827 300.984C301.061 302.124 301.899 303.727 302.036 305.41C302.269 308.256 300.693 311.1 298.315 312.676C297.4 313.284 296.38 313.709 295.316 313.97C296.32 314.528 297.459 314.873 298.691 314.873C302.559 314.873 305.693 311.738 305.693 307.871C305.692 304.393 303.151 301.53 299.827 300.984Z" fill="#E4E4E0"/>
<path d="M257.781 158.557C254.228 159.19 251.304 161.453 248.938 164.259C255.231 164.378 264.013 164.945 268.132 167.062C269.023 161.905 262.934 157.638 257.781 158.557Z" fill="#472948"/>
<path d="M312.888 207.145C313.924 198.972 314.316 190.558 312.498 182.558C302.587 175.432 284.549 168.258 268.132 167.061C264.013 164.944 255.231 164.377 248.938 164.258C247.872 165.523 246.906 166.886 246.068 168.281C240.413 177.688 238.087 188.659 235.707 199.374C233.327 210.088 230.692 221.04 224.551 230.137C218.408 239.233 207.491 245.266 196.566 244.212C196.847 254.903 191.751 265.489 183.388 272.159C183.341 266.468 183.286 260.713 181.913 255.189C180.539 249.664 177.7 244.309 173.071 240.996C168.442 237.683 161.845 236.82 157.009 239.821C152.828 242.417 150.625 247.294 149.5 252.084C147.682 259.83 148.217 268.436 152.568 275.097C156.918 281.758 167.996 283.419 175.576 280.995C181.239 301.343 193.402 320.422 211.424 331.436C229.446 342.451 253.591 344.242 271.636 333.263C284.369 325.518 292.965 312.548 300.009 299.414C306.586 287.151 312.17 274.36 316.719 261.212C311.92 253.337 309.05 243.791 309.428 234.577C309.806 225.363 311.728 216.292 312.888 207.145Z" fill="#F2C9AD"/>
<path d="M311.766 179.708C309.111 170.876 303.004 162.694 294.364 159.467C285.725 156.24 272.582 158.986 268.132 167.062C284.551 168.259 302.587 175.433 312.498 182.559C312.281 181.603 312.05 180.651 311.766 179.708Z" fill="#472948"/>
<path d="M157.267 246.08C159.594 244.808 162.625 245.446 164.71 247.086C166.794 248.726 168.073 251.187 168.959 253.686C170.688 258.558 171.148 263.873 170.282 268.969C169.872 271.377 168.866 274.074 166.551 274.847C164.746 275.451 162.695 274.592 161.433 273.167C160.172 271.744 159.566 269.86 159.169 267.999C158.612 265.385 158.427 262.562 159.522 260.126C160.618 257.688 163.308 255.814 165.917 256.388C165.649 252.088 161.414 247.252 157.267 246.08Z" fill="#EBA58E"/>
<path d="M231.899 281.144C238.814 274.23 238.814 263.02 231.899 256.106C224.985 249.191 213.775 249.191 206.861 256.106C199.946 263.02 199.946 274.23 206.861 281.144C213.775 288.059 224.985 288.059 231.899 281.144Z" fill="#EBA7AC"/>
<path d="M304.027 291.35C301.133 298.985 296.082 304.149 292.748 302.886C289.413 301.622 289.057 294.407 291.952 286.771C294.847 279.136 299.897 273.972 303.231 275.235C306.565 276.499 306.922 283.714 304.027 291.35Z" fill="#EBA7AC"/>
<path d="M166.738 294.523C170.605 294.523 173.74 291.389 173.74 287.521C173.74 283.654 170.605 280.52 166.738 280.52C162.871 280.52 159.736 283.654 159.736 287.521C159.736 291.389 162.871 294.523 166.738 294.523Z" fill="white"/>
<path d="M167.875 280.637C169.109 281.776 169.947 283.379 170.084 285.063C170.317 287.908 168.742 290.752 166.363 292.329C165.448 292.936 164.428 293.361 163.364 293.622C164.368 294.18 165.508 294.525 166.74 294.525C170.607 294.525 173.742 291.391 173.742 287.523C173.74 284.046 171.197 281.183 167.875 280.637Z" fill="#E4E4E0"/>
<path d="M297.26 177.839C301.584 184.6 303.004 192.858 302.986 200.884C302.97 208.91 301.623 216.864 300.855 224.853C300.086 232.841 299.916 241.044 302.192 248.739C304.332 255.977 308.682 262.524 314.444 267.394C315.212 265.34 316.001 263.291 316.719 261.217C311.92 253.342 309.05 243.795 309.428 234.581C309.806 225.367 311.729 216.295 312.89 207.146C313.926 198.973 314.318 190.559 312.499 182.559C307.569 179.015 300.629 175.459 292.878 172.633C294.554 174.178 296.042 175.935 297.26 177.839Z" fill="#EBA58E"/>
<path d="M215.62 242.884C223.634 240.976 230.865 235.959 235.453 229.118C242.07 219.258 242.902 206.791 245.521 195.209C247.944 184.495 252.075 174.179 257.674 164.73C254.676 164.44 251.587 164.307 248.938 164.258C247.872 165.523 246.906 166.886 246.068 168.281C240.413 177.688 238.087 188.659 235.707 199.374C233.327 210.088 230.692 221.04 224.551 230.137C220.043 236.813 212.96 241.825 205.193 243.61C208.681 243.906 212.213 243.694 215.62 242.884Z" fill="#EBA58E"/>
<path d="M244.277 211.993C235.597 211.489 227.664 215.201 222.409 221.328L264.923 223.792C260.409 217.098 252.959 212.495 244.277 211.993Z" fill="#6A3649"/>
<path d="M244.045 250.924C248.032 250.924 251.264 247.692 251.264 243.705C251.264 239.718 248.032 236.486 244.045 236.486C240.058 236.486 236.826 239.718 236.826 243.705C236.826 247.692 240.058 250.924 244.045 250.924Z" fill="#472948"/>
<path d="M311.761 227.746C318.264 229.419 322.869 234.897 324.741 242L292.892 233.81C298.338 228.588 305.258 226.073 311.761 227.746Z" fill="#6A3649"/>
<path d="M296.48 256.048C295.2 259.824 296.523 263.685 299.437 264.672C302.349 265.659 305.748 263.398 307.027 259.621C308.306 255.845 306.983 251.984 304.07 250.997C301.157 250.01 297.761 252.271 296.48 256.048Z" fill="#472948"/>
<path d="M282.271 288.622C274.854 285.068 266.851 282.742 258.685 281.766C260.892 285.68 264.704 289.028 269.012 290.309C273.321 291.59 278.282 290.696 282.271 288.622Z" fill="#EBA58E"/>
<path d="M279.992 306.085C264.756 300.506 249.053 296.21 233.1 293.252C234.061 303.717 242.032 314.277 252.135 317.173C262.238 320.071 273.631 314.449 279.992 306.085Z" fill="white"/>
<path d="M498.895 441.531L501.711 442.006C510.717 443.523 517.162 451.577 516.628 460.694C515.298 483.459 507.407 504.902 499.187 517.585C494.021 525.556 483.623 528.199 475.32 523.584C470.548 520.931 466.95 518.189 466.95 518.189L498.895 441.531Z" fill="#F2C9AD"/>
<path d="M413.144 412.643L411.349 412.555C402.847 412.144 394.487 414.937 387.977 420.42C346.94 454.98 318.516 504.235 307.935 556.915C305.268 570.193 308.294 584.13 316.761 594.7C324.471 604.327 334.18 612.393 345.047 618.295C360.9 626.907 380.257 625.358 394.867 614.773C440.503 581.717 477.474 535.859 498.799 483.838C503.216 473.062 501.758 460.829 495.075 451.289C494.971 451.142 494.87 450.995 494.768 450.848C468.684 438.551 441.947 414.036 413.144 412.643Z" fill="white"/>
<path d="M474.912 467.659C471.292 474.298 464.505 478.898 457.177 480.765C449.848 482.632 442.036 481.948 434.784 479.802C427.532 477.657 420.068 473.759 413.58 469.873C404.881 469.897 395.791 469.782 386.74 469.678C371.609 469.507 357.199 476.341 347.918 488.292C336.856 502.535 327.821 518.356 321.216 535.137C326.295 518.639 333.488 502.634 342.609 487.872C352.582 471.731 370.107 461.798 389.064 461.031C394.498 460.813 399.914 460.599 405.264 460.415C400.21 454.35 398.558 445.841 399.921 438.064C401.284 430.287 406.206 423.208 413.022 419.223C425.425 423.916 437.222 430.811 447.438 439.268C457.652 447.726 465.684 458.133 474.912 467.659Z" fill="#D1F4F5"/>
<path d="M495.073 451.291C494.97 451.144 494.868 450.997 494.767 450.85C487.184 447.274 479.545 442.663 471.815 437.891C475.381 454.336 473.451 472.311 467.431 488.199C458.061 512.934 440.195 533.459 421.385 552.053C409.237 564.064 396.307 575.679 380.947 583.157C365.587 590.635 347.353 593.612 331.27 587.849C320.964 584.156 311.967 576.346 307 566.726C307.081 576.813 310.366 586.716 316.759 594.698C324.471 604.325 334.179 612.391 345.045 618.293C360.898 626.905 380.256 625.356 394.865 614.773C440.501 581.717 477.473 535.858 498.797 483.838C503.214 473.061 501.756 460.83 495.073 451.291Z" fill="#D1F4F5"/>
<path d="M416.167 402.329C419.978 393.517 427.899 386.587 437.139 383.979C436.623 378.729 439.54 373.554 444.225 371.127C445.473 375.667 450.119 379.098 454.549 380.694C458.978 382.289 463.744 382.655 468.339 383.677C484.608 387.294 498.606 399.796 504.031 415.555C509.455 431.313 506.117 449.785 495.523 462.647C489.774 469.627 481.144 475.199 472.179 474.019C465.336 459.874 465.198 442.139 472.063 428.005C455.58 421.828 441.492 409.212 432.584 394.028C426.94 395.577 420.575 398.482 416.167 402.329Z" fill="#6A3649"/>
<path d="M478.484 425.697C460.2 420.403 444.841 406.002 438.251 388.158C418.176 393.345 403.348 411.577 403.348 433.273C403.348 459.005 424.208 479.868 449.943 479.868C458.235 479.868 466.015 477.692 472.762 473.895C473.521 469.178 475.534 464.32 478.896 461.142C475.919 449.839 475.117 436.888 478.484 425.697Z" fill="#EBA58E"/>
<path d="M479.821 466.689C482.296 465.597 485.275 464.948 487.63 466.278C489.581 467.38 490.666 469.718 490.542 471.956C490.418 474.195 489.205 476.288 487.518 477.763C485.831 479.24 483.707 480.145 481.529 480.675C479.002 481.289 476.236 481.403 473.894 480.274C471.509 479.125 468.92 475.632 470.973 473.188C473.311 470.402 476.51 468.148 479.821 466.689Z" fill="#EBA58E"/>
<path d="M486.428 469.619C483.794 469.213 481.036 469.648 478.656 470.847C477.382 471.488 476.153 472.421 475.658 473.758C475.163 475.095 475.688 476.873 477.032 477.347C477.907 477.655 478.878 477.366 479.715 476.962C480.558 476.554 481.382 475.987 481.774 475.137C482.166 474.286 481.965 473.112 481.141 472.669C482.581 471.546 484.608 469.773 486.428 469.619Z" fill="#E78882"/>
<path d="M464.96 428.576C462.851 425.473 459.498 423.732 456.019 423.543L466.346 438.742C467.452 435.44 467.069 431.681 464.96 428.576Z" fill="#6A3649"/>
<path d="M456.131 443.295C453.616 445.225 450.015 444.751 448.084 442.238C446.154 439.725 446.628 436.121 449.141 434.191C451.656 432.261 455.258 432.735 457.188 435.248C459.118 437.761 458.646 441.364 456.131 443.295Z" fill="#472948"/>
<path d="M430.354 401.131C432.876 402.191 434.269 404.709 434.39 407.739L422.036 402.541C424.756 400.707 427.833 400.07 430.354 401.131Z" fill="#6A3649"/>
<path d="M418.206 412.761C416.599 415.488 416.951 418.552 418.993 419.609C421.034 420.665 423.991 419.312 425.598 416.585C427.204 413.859 426.853 410.794 424.81 409.737C422.77 408.682 419.812 410.037 418.206 412.761Z" fill="#472948"/>
<path d="M434.614 440.324C431.566 437.809 428.515 435.296 425.465 432.781C424.968 434.892 426.03 437.44 427.815 438.668C429.604 439.897 432.451 440.45 434.614 440.324Z" fill="#E78882"/>
<path d="M437.581 451.254C430.356 446.536 423.132 441.816 415.908 437.098C415.362 442.511 417.922 449.787 422.506 452.717C427.089 455.646 432.897 454.022 437.581 451.254Z" fill="white"/>
<path d="M516.396 564.912L466.95 556.744L451.94 550.409C442.782 546.543 432.428 546.66 423.36 550.733L387.006 567.056C382.351 569.145 380.662 574.899 383.45 579.173C385.485 582.293 389.349 583.677 392.904 582.559L425.344 572.348L404.03 598.325C400.086 603.133 395.294 607.179 389.893 610.262L385.361 612.851C380.63 615.553 375.277 616.972 369.829 616.972C362.097 616.972 355.829 623.241 355.829 630.973H388.541C398.287 630.973 407.905 628.778 416.687 624.55L466.95 600.347L510.708 611.722L516.396 564.912Z" fill="#EBA58E"/>
<path d="M506.048 650.087L517.024 559.739L619.649 574.247L612.883 387.319C612.235 368.982 628.29 354.5 646.465 357.027C665.139 359.626 679.275 375.224 680.027 394.064L688.27 597.323C689.35 624.36 668.001 647.004 640.949 647.518L506.048 650.087Z" fill="#F4D071"/>
<path opacity="0.3" d="M619.649 574.246C639.774 574.1 655.796 592.257 659.926 599.914C657.712 564.475 636.712 562.287 619.649 570.381V574.246Z" fill="#CC6164"/>
<path d="M516.396 564.91L510.383 584.437C507.943 592.361 499.779 597.036 491.71 595.132L477.652 591.812C470.844 590.204 463.674 591.583 457.948 595.601L416.685 624.554L466.948 600.35L510.706 611.726L516.396 564.91Z" fill="#E78882"/>
<path d="M435.018 569.604L425.344 572.351L404.03 598.329C400.086 603.136 395.294 607.182 389.893 610.266L387.151 611.832C397.714 608.355 413.145 600.499 435.018 569.604Z" fill="#E78882"/>
<g opacity="0.3">
<path d="M522.496 642.782C526.359 633.416 529.686 620.558 531.376 607.457C533.1 594.36 533.179 581.079 531.847 571.035C529.966 580.996 528.296 593.919 526.598 606.834C524.929 619.753 523.231 632.672 522.496 642.782Z" fill="#CC6164"/>
<path d="M536.626 634.648C540.006 626.822 542.422 615.693 542.456 604.46C542.561 593.226 540.282 582.068 536.999 574.201C537.646 582.71 538.493 593.56 538.397 604.435C538.36 615.308 537.379 626.146 536.626 634.648Z" fill="#CC6164"/>
<path d="M669.24 546.238C665.3 541.095 660.857 535.244 656.468 528.827C652.07 522.416 647.726 515.444 643.78 508.248C639.848 501.045 636.318 493.626 633.29 486.465C630.252 479.307 627.722 472.41 625.513 466.32C625.702 472.787 626.777 480.252 628.927 487.982C631.066 495.714 634.277 503.696 638.378 511.202C642.488 518.703 647.48 525.712 652.836 531.681C658.188 537.663 663.895 542.593 669.24 546.238Z" fill="#CC6164"/>
</g>
</svg>
