<svg width="711" height="431" viewBox="0 0 711 431" fill="none" xmlns="http://www.w3.org/2000/svg">
<path d="M623.925 127.698C623.925 127.698 512.22 20.7275 364.543 16.9405C216.866 13.1535 172.373 85.0995 85.2823 133.378C-1.80868 181.657 -30.2087 287.682 37.9503 359.627C106.109 431.572 337.724 382.619 406.513 391.949C475.302 401.28 612.566 449.559 656.112 352.054C699.657 254.549 667.471 172.191 623.925 127.698Z" fill="#8B3A3A"/>
<path opacity="0.7" d="M623.925 127.698C623.925 127.698 512.22 20.7275 364.543 16.9405C216.866 13.1535 172.373 85.0995 85.2823 133.378C-1.80868 181.657 -30.2087 287.682 37.9503 359.627C106.109 431.572 337.724 382.619 406.513 391.949C475.302 401.28 612.566 449.559 656.112 352.054C699.657 254.549 667.471 172.191 623.925 127.698Z" fill="white"/>
<g opacity="0.3">
<path d="M178.02 301.527H172.376V376.761H178.02V301.527Z" stroke="black" stroke-miterlimit="10" stroke-linecap="round" stroke-linejoin="round"/>
<path d="M178.02 384.293H172.376V429.431H178.02V384.293Z" stroke="black" stroke-miterlimit="10" stroke-linecap="round" stroke-linejoin="round"/>
<path d="M178.018 293.996H20.9463V301.52H178.018V293.996Z" stroke="black" stroke-miterlimit="10" stroke-linecap="round" stroke-linejoin="round"/>
<path d="M178.019 376.762H20.9453V384.295H178.019V376.762Z" stroke="black" stroke-miterlimit="10" stroke-linecap="round" stroke-linejoin="round"/>
<path d="M26.5893 301.527H20.9453V376.761H26.5893V301.527Z" stroke="black" stroke-miterlimit="10" stroke-linecap="round" stroke-linejoin="round"/>
<path d="M26.5893 384.293H20.9453V429.431H26.5893V384.293Z" stroke="black" stroke-miterlimit="10" stroke-linecap="round" stroke-linejoin="round"/>
<path d="M65.1452 301.527H59.5012V376.761H65.1452V301.527Z" stroke="black" stroke-miterlimit="10" stroke-linecap="round" stroke-linejoin="round"/>
<path d="M65.1452 384.293H59.5012V429.431H65.1452V384.293Z" stroke="black" stroke-miterlimit="10" stroke-linecap="round" stroke-linejoin="round"/>
<path d="M133.062 301.527H127.418V376.761H133.062V301.527Z" stroke="black" stroke-miterlimit="10" stroke-linecap="round" stroke-linejoin="round"/>
<path d="M133.062 384.293H127.418V429.431H133.062V384.293Z" stroke="black" stroke-miterlimit="10" stroke-linecap="round" stroke-linejoin="round"/>
<path d="M47.7103 273.297H37.6323V293.89H47.7103V273.297Z" stroke="black" stroke-miterlimit="10" stroke-linecap="round" stroke-linejoin="round"/>
<path d="M45.4334 265.086H40.0364V273.181H45.4334V265.086Z" stroke="black" stroke-miterlimit="10" stroke-linecap="round" stroke-linejoin="round"/>
<path d="M98.2172 275.458C98.2172 275.458 88.1732 275.697 79.5362 274.803C70.1362 273.83 60.6912 269.729 55.6172 279.514C50.5432 289.299 55.2552 293.285 57.4292 293.648C59.6032 294.01 59.6032 294.01 59.6032 294.01H125.923C128.25 293.203 149.509 296.692 151.069 288.85C153.095 278.666 148.587 273.835 140.068 274.262C130.488 274.742 107.131 277.136 98.2172 275.458Z" stroke="black" stroke-miterlimit="10" stroke-linecap="round" stroke-linejoin="round"/>
<path d="M64.9753 289.809C64.9753 289.809 54.4523 287.657 62.8233 285.504C66.6433 284.522 91.0433 287.656 108.262 289.091C108.262 289.091 121.894 289.569 125.481 289.808C129.068 290.047 137.2 290.047 132.177 291.243C127.155 292.439 109.457 291.004 109.457 291.004" stroke="black" stroke-miterlimit="10" stroke-linecap="round" stroke-linejoin="round"/>
<path d="M91.0622 354.578H70.1353V376.786H91.0622V354.578Z" stroke="black" stroke-miterlimit="10" stroke-linecap="round" stroke-linejoin="round"/>
<path d="M91.0622 354.578H70.1353V360.782H91.0622V354.578Z" stroke="black" stroke-miterlimit="10" stroke-linecap="round" stroke-linejoin="round"/>
<path d="M117.114 344.105H96.1873V376.788H117.114V344.105Z" stroke="black" stroke-miterlimit="10" stroke-linecap="round" stroke-linejoin="round"/>
<path d="M117.114 344.105H96.1873V350.309H117.114V344.105Z" stroke="black" stroke-miterlimit="10" stroke-linecap="round" stroke-linejoin="round"/>
</g>
<g opacity="0.3">
<path d="M61.0482 222.109L50.4512 232.706H168.942V223.071" fill="white"/>
<path d="M61.0482 222.109L50.4512 232.706H168.942V223.071" stroke="black" stroke-miterlimit="10" stroke-linecap="round" stroke-linejoin="round"/>
<path d="M61.0482 209.844L50.4512 220.44H168.942V210.806" fill="white"/>
<path d="M61.0482 209.844L50.4512 220.44H168.942V210.806" stroke="black" stroke-miterlimit="10" stroke-linecap="round" stroke-linejoin="round"/>
<path d="M61.0482 197.578L50.4512 208.175H168.942V198.54" fill="white"/>
<path d="M61.0482 197.578L50.4512 208.175H168.942V198.54" stroke="black" stroke-miterlimit="10" stroke-linecap="round" stroke-linejoin="round"/>
<path d="M61.0482 185.316L50.4512 195.913H168.942V186.278" fill="white"/>
<path d="M61.0482 185.316L50.4512 195.913H168.942V186.278" stroke="black" stroke-miterlimit="10" stroke-linecap="round" stroke-linejoin="round"/>
<path d="M61.0482 173.051L50.4512 183.648H168.942V174.013" fill="white"/>
<path d="M61.0482 173.051L50.4512 183.648H168.942V174.013" stroke="black" stroke-miterlimit="10" stroke-linecap="round" stroke-linejoin="round"/>
<path d="M61.0482 160.785L50.4512 171.382H168.942V161.747" fill="white"/>
<path d="M61.0482 160.785L50.4512 171.382H168.942V161.747" stroke="black" stroke-miterlimit="10" stroke-linecap="round" stroke-linejoin="round"/>
<path d="M61.0482 148.523L50.4512 159.12H168.942V149.485" fill="white"/>
<path d="M61.0482 148.523L50.4512 159.12H168.942V149.485" stroke="black" stroke-miterlimit="10" stroke-linecap="round" stroke-linejoin="round"/>
<path d="M61.0482 136.258L50.4512 146.855H168.942V137.22" fill="white"/>
<path d="M61.0482 136.258L50.4512 146.855H168.942V137.22" stroke="black" stroke-miterlimit="10" stroke-linecap="round" stroke-linejoin="round"/>
<path d="M61.0482 123.992L50.4512 134.589H168.942V124.954" fill="white"/>
<path d="M61.0482 123.992L50.4512 134.589H168.942V124.954" stroke="black" stroke-miterlimit="10" stroke-linecap="round" stroke-linejoin="round"/>
<path d="M61.0482 111.73L50.4512 122.327H168.942V112.692" fill="white"/>
<path d="M61.0482 111.73L50.4512 122.327H168.942V112.692" stroke="black" stroke-miterlimit="10" stroke-linecap="round" stroke-linejoin="round"/>
<path d="M61.0482 99.4648L50.4512 110.061H168.942V100.426" fill="white"/>
<path d="M61.0482 99.4648L50.4512 110.061H168.942V100.426" stroke="black" stroke-miterlimit="10" stroke-linecap="round" stroke-linejoin="round"/>
<path d="M61.0482 87.1992L50.4512 97.7962H168.942V88.1612" fill="white"/>
<path d="M61.0482 87.1992L50.4512 97.7962H168.942V88.1612" stroke="black" stroke-miterlimit="10" stroke-linecap="round" stroke-linejoin="round"/>
<path d="M61.0482 74.9375L50.4512 85.5335H168.942V75.8985" fill="white"/>
<path d="M61.0482 74.9375L50.4512 85.5335H168.942V75.8985" stroke="black" stroke-miterlimit="10" stroke-linecap="round" stroke-linejoin="round"/>
<path d="M61.0482 62.6719L50.4512 73.2689H168.942V63.6339" fill="white"/>
<path d="M61.0482 62.6719L50.4512 73.2689H168.942V63.6339" stroke="black" stroke-miterlimit="10" stroke-linecap="round" stroke-linejoin="round"/>
<path d="M61.0482 50.4062L50.4512 61.0023H168.942V51.3672" fill="white"/>
<path d="M61.0482 50.4062L50.4512 61.0023H168.942V51.3672" stroke="black" stroke-miterlimit="10" stroke-linecap="round" stroke-linejoin="round"/>
<path d="M61.0482 38.1406L50.4512 48.7376H168.942V39.1026" fill="white"/>
<path d="M61.0482 38.1406L50.4512 48.7376H168.942V39.1026" stroke="black" stroke-miterlimit="10" stroke-linecap="round" stroke-linejoin="round"/>
<path d="M61.0482 25.8789L50.4512 36.4749H168.942V26.8399" fill="white"/>
<path d="M61.0482 25.8789L50.4512 36.4749H168.942V26.8399" stroke="black" stroke-miterlimit="10" stroke-linecap="round" stroke-linejoin="round"/>
<path d="M61.0482 13.6133L50.4512 24.2103H168.942V14.5753" fill="white"/>
<path d="M61.0482 13.6133L50.4512 24.2103H168.942V14.5753" stroke="black" stroke-miterlimit="10" stroke-linecap="round" stroke-linejoin="round"/>
<path d="M61.0482 1.34766L50.4512 11.9447H168.942V2.30966" fill="white"/>
<path d="M61.0482 1.34766L50.4512 11.9447H168.942V2.30966" stroke="black" stroke-miterlimit="10" stroke-linecap="round" stroke-linejoin="round"/>
<path d="M180.24 222.109L169.643 232.706H288.134V223.071" fill="white"/>
<path d="M180.24 222.109L169.643 232.706H288.134V223.071" stroke="black" stroke-miterlimit="10" stroke-linecap="round" stroke-linejoin="round"/>
<path d="M180.24 209.844L169.643 220.44H288.134V210.806" fill="white"/>
<path d="M180.24 209.844L169.643 220.44H288.134V210.806" stroke="black" stroke-miterlimit="10" stroke-linecap="round" stroke-linejoin="round"/>
<path d="M180.24 197.578L169.643 208.175H288.134V198.54" fill="white"/>
<path d="M180.24 197.578L169.643 208.175H288.134V198.54" stroke="black" stroke-miterlimit="10" stroke-linecap="round" stroke-linejoin="round"/>
<path d="M180.24 185.316L169.643 195.913H288.134V186.278" fill="white"/>
<path d="M180.24 185.316L169.643 195.913H288.134V186.278" stroke="black" stroke-miterlimit="10" stroke-linecap="round" stroke-linejoin="round"/>
<path d="M180.24 173.051L169.643 183.648H288.134V174.013" fill="white"/>
<path d="M180.24 173.051L169.643 183.648H288.134V174.013" stroke="black" stroke-miterlimit="10" stroke-linecap="round" stroke-linejoin="round"/>
<path d="M180.24 160.785L169.643 171.382H288.134V161.747" fill="white"/>
<path d="M180.24 160.785L169.643 171.382H288.134V161.747" stroke="black" stroke-miterlimit="10" stroke-linecap="round" stroke-linejoin="round"/>
<path d="M180.24 148.523L169.643 159.12H288.134V149.485" fill="white"/>
<path d="M180.24 148.523L169.643 159.12H288.134V149.485" stroke="black" stroke-miterlimit="10" stroke-linecap="round" stroke-linejoin="round"/>
<path d="M180.24 136.258L169.643 146.855H288.134V137.22" fill="white"/>
<path d="M180.24 136.258L169.643 146.855H288.134V137.22" stroke="black" stroke-miterlimit="10" stroke-linecap="round" stroke-linejoin="round"/>
<path d="M180.24 123.992L169.643 134.589H288.134V124.954" fill="white"/>
<path d="M180.24 123.992L169.643 134.589H288.134V124.954" stroke="black" stroke-miterlimit="10" stroke-linecap="round" stroke-linejoin="round"/>
<path d="M180.24 111.73L169.643 122.327H288.134V112.692" fill="white"/>
<path d="M180.24 111.73L169.643 122.327H288.134V112.692" stroke="black" stroke-miterlimit="10" stroke-linecap="round" stroke-linejoin="round"/>
<path d="M180.24 99.4648L169.643 110.061H288.134V100.426" fill="white"/>
<path d="M180.24 99.4648L169.643 110.061H288.134V100.426" stroke="black" stroke-miterlimit="10" stroke-linecap="round" stroke-linejoin="round"/>
<path d="M180.24 87.1992L169.643 97.7962H288.134V88.1612" fill="white"/>
<path d="M180.24 87.1992L169.643 97.7962H288.134V88.1612" stroke="black" stroke-miterlimit="10" stroke-linecap="round" stroke-linejoin="round"/>
<path d="M180.24 74.9375L169.643 85.5335H288.134V75.8985" fill="white"/>
<path d="M180.24 74.9375L169.643 85.5335H288.134V75.8985" stroke="black" stroke-miterlimit="10" stroke-linecap="round" stroke-linejoin="round"/>
<path d="M180.24 62.6719L169.643 73.2689H288.134V63.6339" fill="white"/>
<path d="M180.24 62.6719L169.643 73.2689H288.134V63.6339" stroke="black" stroke-miterlimit="10" stroke-linecap="round" stroke-linejoin="round"/>
<path d="M180.24 50.4062L169.643 61.0023H288.134V51.3672" fill="white"/>
<path d="M180.24 50.4062L169.643 61.0023H288.134V51.3672" stroke="black" stroke-miterlimit="10" stroke-linecap="round" stroke-linejoin="round"/>
<path d="M180.24 38.1406L169.643 48.7376H288.134V39.1026" fill="white"/>
<path d="M180.24 38.1406L169.643 48.7376H288.134V39.1026" stroke="black" stroke-miterlimit="10" stroke-linecap="round" stroke-linejoin="round"/>
<path d="M180.24 25.8789L169.643 36.4749H288.134V26.8399" fill="white"/>
<path d="M180.24 25.8789L169.643 36.4749H288.134V26.8399" stroke="black" stroke-miterlimit="10" stroke-linecap="round" stroke-linejoin="round"/>
<path d="M180.24 13.6133L169.643 24.2103H288.134V14.5753" fill="white"/>
<path d="M180.24 13.6133L169.643 24.2103H288.134V14.5753" stroke="black" stroke-miterlimit="10" stroke-linecap="round" stroke-linejoin="round"/>
<path d="M180.24 1.34766L169.643 11.9447H288.134V2.30966" fill="white"/>
<path d="M180.24 1.34766L169.643 11.9447H288.134V2.30966" stroke="black" stroke-miterlimit="10" stroke-linecap="round" stroke-linejoin="round"/>
<path d="M66.5571 1H283.889" stroke="black" stroke-miterlimit="10" stroke-linecap="round" stroke-linejoin="round"/>
</g>
<path d="M395.75 251.141H268.062V429.342H395.75V251.141Z" fill="#D4D4D4" stroke="#263238" stroke-miterlimit="10"/>
<path d="M324.89 274.992H277.884V341.642H324.89V274.992Z" stroke="#263238" stroke-miterlimit="10"/>
<path d="M383.121 274.992H336.115V341.642H383.121V274.992Z" stroke="#263238" stroke-miterlimit="10"/>
<path d="M384.622 352.461H276.062V429.341H384.622V352.461Z" fill="#263238" stroke="#263238" stroke-miterlimit="10"/>
<path d="M440.65 198.707H389.694V429.342H440.65V198.707Z" fill="#263238" stroke="#263238" stroke-miterlimit="10"/>
<path d="M412.253 133.512H396.986V184.657H412.253V133.512Z" fill="#666666" stroke="#263238" stroke-miterlimit="10"/>
<path d="M447.728 142.908H312.315C310.474 142.908 308.981 141.415 308.981 139.574V31.8848C308.981 30.0438 310.474 28.5508 312.315 28.5508H447.728C449.569 28.5508 451.062 30.0438 451.062 31.8848V139.575C451.061 141.416 449.569 142.908 447.728 142.908Z" fill="white" stroke="#263238" stroke-miterlimit="10"/>
<path d="M444.791 38.1914H315.252V133.266H444.791V38.1914Z" fill="#263238" stroke="#263238" stroke-miterlimit="10"/>
<path d="M355.628 55.606L354.916 56.841C365.429 59.165 384.695 61.514 406.335 55.019L405.654 53.875C395.437 56.795 385.76 57.809 377.288 57.809C368.55 57.81 361.092 56.742 355.628 55.606Z" fill="#4F4F4F"/>
<path d="M410.768 62.4658L409.281 59.9688C397.729 63.7497 386.756 65.0157 377.287 65.0157C366.394 65.0157 357.489 63.3567 351.959 61.9737L350.107 65.1888C359.889 67.8078 383.972 72.2578 410.768 62.4658Z" fill="#4F4F4F"/>
<path d="M425.507 87.2137L411.815 64.2227C398.959 68.9767 386.696 70.5027 376.257 70.5027C364.049 70.5027 354.336 68.4187 349.075 66.9757L335.16 91.1307C346.639 94.5657 383.983 103.31 425.507 87.2137Z" fill="#4F4F4F"/>
<path d="M408.23 58.2048L407.394 56.8008C396.534 60.1188 386.239 61.2418 377.287 61.2418C367.572 61.2418 359.44 59.9218 353.871 58.6558L352.997 60.1728C363.231 62.6658 384.425 65.8788 408.23 58.2048Z" fill="#4F4F4F"/>
<path d="M404.595 52.0972L402.819 49.1172C402.819 49.1172 375.801 59.0172 358.889 49.9422L356.677 53.7812C367.192 55.8972 384.816 57.6372 404.595 52.0972Z" fill="#4F4F4F"/>
<path d="M377.154 116.04C370.631 116.04 364.583 115.537 359.215 114.8C344.62 112.794 332.85 108.802 326.439 106.273L326.097 106.866C326.097 106.866 349.815 125.428 385.495 121.922C421.175 118.416 435.612 104.185 435.612 104.185L433.843 101.215C414.202 112.648 394.085 116.04 377.154 116.04Z" fill="#4F4F4F"/>
<path d="M428.825 92.7842L426.541 88.9492C407.783 96.2702 389.846 98.5992 374.678 98.5992C355.304 98.5992 340.445 94.8292 334.137 92.9102L331.666 97.2002C345.305 102.67 385.989 115.286 428.825 92.7842Z" fill="#4F4F4F"/>
<path d="M359.553 112.825C378.519 115.423 406.13 115.026 432.822 99.4972L429.841 94.4922C410.418 104.712 391.576 107.769 376.061 107.769C370.086 107.769 364.604 107.32 359.772 106.658C346.616 104.856 336.286 101.264 330.65 98.9622L327.448 104.52C333.806 107.01 345.306 110.874 359.553 112.825Z" fill="#4F4F4F"/>
<path d="M394.814 73.113C394.814 73.113 383.023 76.916 377.318 75.966C371.613 75.015 359.061 70.451 352.595 74.254C346.129 78.057 344.227 83.002 345.939 90.038C347.651 97.074 347.651 99.547 367.999 104.681C388.348 109.816 395.384 111.147 400.519 109.245C405.654 107.343 411.359 105.251 413.641 98.025C415.923 90.798 410.408 79.768 406.795 77.486C403.182 75.205 400.709 71.402 394.814 73.113Z" fill="#263238" stroke="#263238" stroke-miterlimit="10"/>
<path d="M360.012 100.686C360.012 100.686 355.638 94.0304 357.349 88.7054C359.061 83.3804 365.527 80.3374 368.95 80.7184C372.373 81.0984 374.845 86.2334 374.845 86.8044C374.845 87.3754 377.317 86.6144 377.698 87.5654C378.078 88.5164 378.078 88.5164 378.078 88.5164C378.078 88.5164 381.881 91.3694 381.121 93.0804C380.36 94.7924 377.698 96.5034 379.219 96.8834C380.74 97.2634 384.164 92.1294 389.108 91.9394C394.052 91.7494 398.427 92.3194 398.427 92.3194C398.427 92.3194 396.145 86.0434 397.286 84.5224C398.427 83.0014 401.089 83.9514 401.28 81.6694C401.47 79.3874 399.759 77.6754 400.71 76.7244C401.661 75.7734 401.661 75.7734 401.661 75.7734C401.661 75.7734 409.078 81.6684 408.507 83.7604C407.937 85.8524 406.605 85.4724 404.894 86.6134C403.182 87.7544 400.9 87.7544 401.091 89.2754C401.281 90.7964 403.373 93.4594 404.324 94.0294C405.275 94.6004 408.127 96.8824 408.127 100.115C408.127 103.348 399.95 106.961 396.527 108.102C393.104 109.243 388.35 109.814 388.35 109.814C388.35 109.814 365.907 106.392 360.012 100.686Z" fill="#4F4F4F"/>
<path d="M420.352 46.3242H436.104" stroke="#8B3A3A" stroke-miterlimit="10"/>
<path d="M420.352 50.2617H436.104" stroke="#8B3A3A" stroke-miterlimit="10"/>
<path d="M420.352 54.1992H436.104" stroke="#8B3A3A" stroke-miterlimit="10"/>
<path d="M321.469 46.3242H337.22" stroke="#8B3A3A" stroke-miterlimit="10"/>
<path d="M321.469 50.2617H337.22" stroke="#8B3A3A" stroke-miterlimit="10"/>
<path d="M321.469 54.1992H337.22" stroke="#8B3A3A" stroke-miterlimit="10"/>
<path d="M420.352 119.832H436.104" stroke="#8B3A3A" stroke-miterlimit="10"/>
<path d="M420.352 123.77H436.104" stroke="#8B3A3A" stroke-miterlimit="10"/>
<path d="M420.352 127.707H436.104" stroke="#8B3A3A" stroke-miterlimit="10"/>
<path d="M293.81 178.02L254.917 238.901H417.943L450.993 187.166C454.605 181.512 450.544 174.098 443.834 174.098H300.968C298.07 174.099 295.371 175.577 293.81 178.02Z" fill="#D4D4D4" stroke="#263238" stroke-miterlimit="10"/>
<path d="M325.701 167.21L291.62 220.56C289.185 224.372 291.923 229.369 296.446 229.369H388.704C390.658 229.369 392.477 228.372 393.53 226.725L427.612 173.375C430.047 169.563 427.309 164.566 422.786 164.566H330.529C328.573 164.567 326.753 165.564 325.701 167.21Z" fill="white" stroke="#263238" stroke-miterlimit="10"/>
<path d="M332.049 172.782L304.346 216.147C302.367 219.245 304.592 223.307 308.268 223.307H383.258C384.847 223.307 386.325 222.497 387.18 221.158L414.883 177.793C416.862 174.695 414.637 170.633 410.961 170.633H335.971C334.383 170.633 332.904 171.443 332.049 172.782Z" fill="white" stroke="#263238" stroke-miterlimit="10"/>
<path d="M335.971 170.633C334.382 170.633 332.904 171.443 332.048 172.782L304.345 216.147C302.366 219.245 304.591 223.307 308.268 223.307H360.684L394.334 170.633H335.971Z" fill="#263238" stroke="#263238" stroke-miterlimit="10"/>
<path d="M331.351 181.641L327.64 187.45H342.253L345.964 181.641H331.351Z" fill="white" stroke="#263238" stroke-miterlimit="10"/>
<path d="M348.843 181.641L345.132 187.45H359.745L363.456 181.641H348.843Z" fill="white" stroke="#263238" stroke-miterlimit="10"/>
<path d="M366.334 181.641L362.623 187.45H377.236L380.947 181.641H366.334Z" fill="white" stroke="#263238" stroke-miterlimit="10"/>
<path d="M325.521 190.559L321.81 196.368H336.423L340.134 190.559H325.521Z" fill="white" stroke="#263238" stroke-miterlimit="10"/>
<path d="M343.012 190.559L339.301 196.368H353.914L357.625 190.559H343.012Z" fill="white" stroke="#263238" stroke-miterlimit="10"/>
<path d="M360.504 190.559L356.793 196.368H371.406L375.117 190.559H360.504Z" fill="white" stroke="#263238" stroke-miterlimit="10"/>
<path d="M319.69 199.477L315.98 205.286H330.592L334.303 199.477H319.69Z" fill="white" stroke="#263238" stroke-miterlimit="10"/>
<path d="M337.182 199.477L333.471 205.286H348.084L351.795 199.477H337.182Z" fill="white" stroke="#263238" stroke-miterlimit="10"/>
<path d="M354.673 199.477L350.962 205.286H365.575L369.286 199.477H354.673Z" fill="white" stroke="#263238" stroke-miterlimit="10"/>
<path d="M313.86 208.395L310.149 214.203H324.762L328.473 208.395H313.86Z" fill="white" stroke="#263238" stroke-miterlimit="10"/>
<path d="M331.351 208.395L327.64 214.203H342.253L345.964 208.395H331.351Z" fill="white" stroke="#263238" stroke-miterlimit="10"/>
<path d="M348.843 208.395L345.132 214.203H359.745L363.456 208.395H348.843Z" fill="white" stroke="#263238" stroke-miterlimit="10"/>
<path d="M228.886 256.681C228.886 256.681 236.049 262.833 244.94 264.103C253.831 265.373 366.232 264.103 366.232 264.103C366.232 264.103 377.028 264.103 389.093 259.658C401.159 255.213 422.75 239.337 422.75 239.337L423.779 228.711L228.886 256.681Z" fill="#263238" stroke="#263238" stroke-miterlimit="10"/>
<path d="M260.753 228.711L227.252 251.346C224.867 252.957 226.008 256.682 228.886 256.682H361.405C375.076 256.682 388.435 252.592 399.763 244.938L423.779 228.711H260.753Z" fill="#ADADAD" stroke="#263238" stroke-miterlimit="10"/>
<path d="M275.422 237.431C278.228 237.431 280.502 236.578 280.502 235.526C280.502 234.474 278.228 233.621 275.422 233.621C272.617 233.621 270.342 234.474 270.342 235.526C270.342 236.578 272.617 237.431 275.422 237.431Z" fill="white" stroke="#263238" stroke-miterlimit="10"/>
<path d="M294.473 237.431C297.279 237.431 299.553 236.578 299.553 235.526C299.553 234.474 297.279 233.621 294.473 233.621C291.668 233.621 289.393 234.474 289.393 235.526C289.393 236.578 291.668 237.431 294.473 237.431Z" fill="white" stroke="#263238" stroke-miterlimit="10"/>
<path d="M265.497 241.885C265.497 242.937 263.222 243.79 260.417 243.79C257.611 243.79 255.337 242.937 255.337 241.885C255.337 240.833 257.611 239.98 260.417 239.98C263.223 239.98 265.497 240.833 265.497 241.885Z" fill="white" stroke="#263238" stroke-miterlimit="10"/>
<path d="M284.549 241.885C284.549 242.937 282.274 243.79 279.469 243.79C276.663 243.79 274.389 242.937 274.389 241.885C274.389 240.833 276.664 239.98 279.469 239.98C282.274 239.98 284.549 240.833 284.549 241.885Z" fill="white" stroke="#263238" stroke-miterlimit="10"/>
<path d="M245.412 250.15C248.218 250.15 250.492 249.297 250.492 248.245C250.492 247.193 248.218 246.34 245.412 246.34C242.607 246.34 240.332 247.193 240.332 248.245C240.332 249.297 242.607 250.15 245.412 250.15Z" fill="white" stroke="#263238" stroke-miterlimit="10"/>
<path d="M264.463 250.15C267.269 250.15 269.543 249.297 269.543 248.245C269.543 247.193 267.269 246.34 264.463 246.34C261.658 246.34 259.383 247.193 259.383 248.245C259.383 249.297 261.658 250.15 264.463 250.15Z" fill="white" stroke="#263238" stroke-miterlimit="10"/>
<path d="M313.524 237.431C316.33 237.431 318.604 236.578 318.604 235.526C318.604 234.474 316.33 233.621 313.524 233.621C310.719 233.621 308.444 234.474 308.444 235.526C308.444 236.578 310.719 237.431 313.524 237.431Z" fill="white" stroke="#263238" stroke-miterlimit="10"/>
<path d="M301.581 241.885C301.581 242.937 299.307 243.79 296.501 243.79C293.695 243.79 291.421 242.937 291.421 241.885C291.421 240.833 293.696 239.98 296.501 239.98C299.306 239.98 301.581 240.833 301.581 241.885Z" fill="white" stroke="#263238" stroke-miterlimit="10"/>
<path d="M281.659 250.15C284.465 250.15 286.739 249.297 286.739 248.245C286.739 247.193 284.465 246.34 281.659 246.34C278.854 246.34 276.579 247.193 276.579 248.245C276.579 249.297 278.854 250.15 281.659 250.15Z" fill="white" stroke="#263238" stroke-miterlimit="10"/>
<path d="M332.575 237.431C335.381 237.431 337.655 236.578 337.655 235.526C337.655 234.474 335.381 233.621 332.575 233.621C329.77 233.621 327.495 234.474 327.495 235.526C327.495 236.578 329.77 237.431 332.575 237.431Z" fill="white" stroke="#263238" stroke-miterlimit="10"/>
<path d="M351.626 237.431C354.432 237.431 356.706 236.578 356.706 235.526C356.706 234.474 354.432 233.621 351.626 233.621C348.821 233.621 346.546 234.474 346.546 235.526C346.546 236.578 348.821 237.431 351.626 237.431Z" fill="white" stroke="#263238" stroke-miterlimit="10"/>
<path d="M370.678 237.431C373.484 237.431 375.758 236.578 375.758 235.526C375.758 234.474 373.484 233.621 370.678 233.621C367.873 233.621 365.598 234.474 365.598 235.526C365.598 236.578 367.873 237.431 370.678 237.431Z" fill="white" stroke="#263238" stroke-miterlimit="10"/>
<path d="M394.809 235.526C394.809 236.578 392.534 237.431 389.729 237.431C386.923 237.431 384.649 236.578 384.649 235.526C384.649 234.474 386.924 233.621 389.729 233.621C392.534 233.621 394.809 234.474 394.809 235.526Z" fill="white" stroke="#263238" stroke-miterlimit="10"/>
<path d="M347.851 243.073C347.851 244.125 345.576 244.978 342.771 244.978C339.965 244.978 337.691 244.125 337.691 243.073C337.691 242.021 339.966 241.168 342.771 241.168C345.576 241.168 347.851 242.021 347.851 243.073Z" fill="white" stroke="#263238" stroke-miterlimit="10"/>
<path d="M366.902 243.073C366.902 244.125 364.627 244.978 361.822 244.978C359.017 244.978 356.742 244.125 356.742 243.073C356.742 242.021 359.017 241.168 361.822 241.168C364.627 241.168 366.902 242.021 366.902 243.073Z" fill="white" stroke="#263238" stroke-miterlimit="10"/>
<path d="M385.953 243.073C385.953 244.125 383.678 244.978 380.873 244.978C378.067 244.978 375.793 244.125 375.793 243.073C375.793 242.021 378.068 241.168 380.873 241.168C383.679 241.168 385.953 242.021 385.953 243.073Z" fill="white" stroke="#263238" stroke-miterlimit="10"/>
<path d="M338.995 250.62C338.995 251.672 336.72 252.525 333.915 252.525C331.109 252.525 328.835 251.672 328.835 250.62C328.835 249.568 331.11 248.715 333.915 248.715C336.721 248.715 338.995 249.568 338.995 250.62Z" fill="white" stroke="#263238" stroke-miterlimit="10"/>
<path d="M358.046 250.62C358.046 251.672 355.771 252.525 352.966 252.525C350.16 252.525 347.886 251.672 347.886 250.62C347.886 249.568 350.161 248.715 352.966 248.715C355.772 248.715 358.046 249.568 358.046 250.62Z" fill="white" stroke="#263238" stroke-miterlimit="10"/>
<path d="M377.097 250.62C377.097 251.672 374.823 252.525 372.017 252.525C369.211 252.525 366.937 251.672 366.937 250.62C366.937 249.568 369.212 248.715 372.017 248.715C374.823 248.715 377.097 249.568 377.097 250.62Z" fill="white" stroke="#263238" stroke-miterlimit="10"/>
<path d="M325.719 246.262C325.719 249.559 319.321 252.231 311.429 252.231C303.537 252.231 297.139 249.558 297.139 246.262C297.139 242.965 303.537 240.293 311.429 240.293C319.321 240.293 325.719 242.965 325.719 246.262Z" fill="white" stroke="#263238" stroke-miterlimit="10"/>
<path d="M176.907 331.183C176.907 331.183 201.762 334.29 219.783 333.047C237.803 331.804 247.745 324.969 247.745 324.969L250.231 399.535C250.231 399.535 234.696 406.37 201.763 408.856C201.763 408.856 175.044 413.206 161.373 406.992L166.966 329.319L176.907 331.183Z" fill="#263238" stroke="#263238" stroke-miterlimit="10"/>
<path d="M157.644 121.153C157.644 121.153 173.8 104.997 183.121 101.269C192.442 97.5413 222.889 116.182 224.754 117.425C226.618 118.668 234.559 180.314 239.288 206.037C244.017 231.76 249.61 331.181 249.61 331.181C249.61 331.181 234.075 338.638 215.434 340.502C196.792 342.366 177.53 340.502 175.665 340.502C173.801 340.502 174.422 218.711 165.723 186.399C157.023 154.086 157.644 121.153 157.644 121.153Z" fill="#8B3A3A" stroke="#263238" stroke-miterlimit="10"/>
<path d="M180.176 61.0781C180.176 61.0781 165.693 66.0231 157.568 75.9141C149.443 85.8051 151.563 99.5821 154.742 102.408C157.921 105.234 167.459 102.408 171.345 99.5821C175.231 96.7561 178.41 89.6911 178.41 81.9191C178.41 74.1481 176.644 70.6151 181.236 67.7891C181.236 67.7891 183.355 62.1381 180.176 61.0781Z" fill="#263238" stroke="#263238" stroke-miterlimit="10"/>
<path d="M250.708 129.031C250.708 129.031 260.458 131.371 265.138 153.211C269.818 175.051 280.909 224.844 281.299 263.453C281.689 302.063 296.41 343.39 297.19 344.56C297.97 345.73 300.7 357.43 300.7 357.43C300.7 357.43 287.05 366.01 283.54 366.79C280.03 367.57 270.28 367.96 270.28 367.96C270.28 367.96 258.19 297.37 258.58 270.46C258.97 243.55 252.268 174.271 252.268 162.961C252.268 151.651 250.708 129.031 250.708 129.031Z" fill="white" stroke="#263238" stroke-miterlimit="10"/>
<path d="M216.85 112.12C216.85 112.12 221.792 173.968 224.132 193.858C226.472 213.748 245.32 379.269 245.32 379.269C245.32 379.269 263.26 381.999 279.25 370.299L283.54 362.109C283.54 362.109 271.45 308.679 269.11 291.129C267.455 278.717 266.618 230.553 266.27 203.417C266.129 192.42 264.5 181.513 261.651 170.89C260.638 167.114 259.815 163.233 259.678 160.23C259.288 151.65 260.848 143.07 256.948 135.27C253.048 127.47 233.62 114.849 230.11 112.119C226.6 109.389 222.07 106.394 218.68 105.942C215.29 105.49 217.24 107.83 216.85 112.12Z" fill="white" stroke="#263238" stroke-miterlimit="10"/>
<path d="M231.573 289.177C231.573 289.177 235.813 292.357 225.92 302.603C216.027 312.849 195.182 322.918 190.236 348.003C185.29 373.088 185.29 382.804 185.29 382.804L187.587 381.921C187.587 381.921 188.294 363.902 193.063 349.063C197.833 334.224 197.303 332.811 206.312 323.271C215.321 313.731 227.687 307.019 231.044 301.366C234.401 295.713 235.107 291.12 234.93 288.824L231.573 289.177Z" fill="white" stroke="#263238" stroke-miterlimit="10"/>
<path d="M234.338 124.359C234.684 125.254 235.016 126.069 235.317 126.747C237.277 131.157 239.667 143.524 239.667 143.524L230.907 141.446L246.147 164.879C246.147 164.879 241.247 182.518 239.287 206.037C237.327 229.556 237.817 261.405 237.817 261.405" stroke="#263238" stroke-miterlimit="10"/>
<path d="M230.11 112.121C230.11 112.121 230.743 114.113 231.618 116.717" stroke="#263238" stroke-miterlimit="10"/>
<path d="M260.668 216.737L241.459 218.778V187.718L260.668 185.676V216.737Z" fill="#8B3A3A" stroke="#263238" stroke-miterlimit="10"/>
<path d="M258.415 213.331L243.712 214.894V191.118L258.415 189.555V213.331Z" fill="white"/>
<path d="M252.752 188.75L248.832 188.931L248.525 181.841L252.445 181.66L252.752 188.75Z" fill="#263238" stroke="#263238" stroke-miterlimit="10"/>
<path d="M258.244 36.7034C258.244 36.7034 262.483 45.5344 260.01 56.8384C257.537 68.1424 253.651 73.4414 254.005 76.9734C254.358 80.5064 257.538 83.3324 256.125 85.8044C254.712 88.2774 249.413 90.0434 249.413 90.0434C249.413 90.0434 244.467 100.994 239.169 107.352C233.87 113.711 218.68 105.939 218.68 105.939C218.68 105.939 213.381 138.085 210.202 144.796C207.023 151.508 207.023 151.508 207.023 151.508C207.023 151.508 183.708 117.596 179.823 111.591C175.937 105.586 174.878 100.64 174.878 100.64C174.878 100.64 181.943 90.3964 183.356 87.5704C184.769 84.7444 186.182 75.9134 186.182 75.9134C186.182 75.9134 177.704 55.7784 174.878 44.4744C172.052 33.1704 175.584 19.7464 199.606 11.6224C223.626 3.49838 250.473 17.2754 258.244 36.7034Z" fill="white" stroke="#263238" stroke-miterlimit="10"/>
<path d="M218.68 105.942L211.116 102.355L214.971 124.713L218.68 105.942Z" fill="#263238" stroke="#263238" stroke-miterlimit="10"/>
<path d="M251.897 72.3747C251.157 74.4467 249.961 75.9137 249.226 75.6507C248.491 75.3887 248.495 73.4957 249.234 71.4237C249.973 69.3517 251.17 67.8847 251.905 68.1477C252.64 68.4107 252.637 70.3027 251.897 72.3747Z" fill="#263238"/>
<path d="M244.269 94.6455C244.269 94.6455 240.928 94.1315 239.9 90.0195" stroke="#263238" stroke-miterlimit="10"/>
<path d="M248.638 65.6035C248.638 65.6035 253.521 62.7765 255.063 65.0895" stroke="#263238" stroke-miterlimit="10"/>
<path d="M256.831 29.9931C256.831 29.9931 256.478 50.8351 242.701 56.8401C228.924 62.8451 229.631 60.7261 229.631 60.7261C229.631 60.7261 225.392 66.0251 222.213 66.0251C219.034 66.0251 213.029 63.1991 209.849 64.6121C206.67 66.0251 203.137 67.0851 200.665 72.0301C198.192 76.9751 192.893 79.4481 189.361 79.4481C185.829 79.4481 184.062 72.7361 179.117 63.5521C174.172 54.3671 168.166 44.1231 171.699 32.4661C175.231 20.8091 187.948 9.85808 205.611 8.44508C223.273 7.03208 237.05 10.2111 244.115 15.5101C251.179 20.8081 260.011 19.3951 256.831 29.9931Z" fill="#263238" stroke="#263238" stroke-miterlimit="10"/>
<path d="M211.064 60.7969L245.732 68.0359" stroke="#263238" stroke-miterlimit="10"/>
<path d="M257.688 72.3768C255.897 78.6488 251.821 82.9828 248.584 82.0588C245.347 81.1348 244.175 75.3008 245.966 69.0288C247.757 62.7568 251.833 58.4228 255.07 59.3468C258.307 60.2718 259.48 66.1058 257.688 72.3768Z" stroke="#263238" stroke-miterlimit="10"/>
<path d="M217.267 66.3781C217.267 66.3781 208.436 51.8951 203.137 57.5471C197.838 63.1991 200.311 72.0301 202.784 76.9761C205.257 81.9221 211.615 80.1551 214.441 78.0361" fill="white"/>
<path d="M217.267 66.3781C217.267 66.3781 208.436 51.8951 203.137 57.5471C197.838 63.1991 200.311 72.0301 202.784 76.9761C205.257 81.9221 211.615 80.1551 214.441 78.0361" stroke="#263238" stroke-miterlimit="10"/>
<path d="M175.434 96.3086C175.434 96.3086 197.491 188.217 198.52 199.48C203.626 255.375 177.85 387.069 177.85 387.069C177.85 387.069 170.634 414.359 150.808 411.342C122.224 406.992 108.64 393.176 106.69 390.836C104.74 388.496 104.74 388.496 104.74 388.496C104.74 388.496 121.445 277.235 122.225 269.045C123.005 260.855 121.835 213.464 122.225 205.664C122.615 197.864 112.116 157.322 117.966 144.062C123.816 130.802 162.488 102.337 175.434 96.3086Z" fill="white" stroke="#263238" stroke-miterlimit="10"/>
<path d="M188.15 243.422C188.912 248.34 189.55 252.521 189.55 252.521" stroke="#263238" stroke-miterlimit="10"/>
<path d="M163.916 122.41C163.967 132.454 163.42 149.95 163.42 149.95L180.013 146.633L164.478 160.925C164.478 160.925 176.679 196.75 180.579 206.5C184.479 216.25 185.259 226.39 185.649 227.95C185.78 228.475 186.265 231.429 186.85 235.118" stroke="#263238" stroke-miterlimit="10"/>
<path d="M164.98 105.879C164.98 105.879 164.1 108.299 163.827 112.643" stroke="#263238" stroke-miterlimit="10"/>
<path d="M599.822 429.449C599.698 407.344 602.306 331.538 601.497 320.629C600.542 307.738 595.768 299.144 591.471 294.847C587.174 290.55 557.094 287.685 557.094 287.685C557.094 287.685 356.007 252.616 347.214 257.259C338.421 261.902 230.04 373.626 228.13 376.013C226.544 377.996 177.082 417.252 161.417 429.449" fill="#ADADAD"/>
<path d="M599.822 429.449C599.698 407.344 602.306 331.538 601.497 320.629C600.542 307.738 595.768 299.144 591.471 294.847C587.174 290.55 557.094 287.685 557.094 287.685C557.094 287.685 356.007 252.616 347.214 257.259C338.421 261.902 230.04 373.626 228.13 376.013C226.544 377.996 177.082 417.252 161.417 429.449" stroke="#263238" stroke-miterlimit="10"/>
<path d="M563.641 288.198C563.641 288.198 540.667 316.095 533.556 322.659C526.445 329.223 524.804 331.411 520.975 334.693C517.146 337.975 518.24 339.069 513.317 341.257C508.394 343.445 495.266 343.445 495.266 343.445C495.266 343.445 472.292 391.582 469.01 397.599C465.728 403.616 460.805 415.103 455.335 416.744C449.865 418.385 426.234 412.132 423.554 410.883C420.874 409.633 408.839 397.599 407.198 397.052C405.557 396.505 398.993 403.616 394.07 404.71C389.147 405.804 368.908 405.804 368.908 405.804L400.594 372.73C400.594 372.73 466.275 340.71 470.651 333.052C475.027 325.394 504.565 297.496 519.335 291.479C534.102 285.463 563.641 288.198 563.641 288.198Z" fill="#263238" stroke="#263238" stroke-miterlimit="10"/>
<path d="M428.567 171.486C428.567 171.486 391.786 165.99 390.941 171.486C390.095 176.982 369.432 196.299 352.099 222.934C334.765 249.569 327.578 262.252 332.229 264.366C336.879 266.48 453.987 304.529 453.987 304.529C453.987 304.529 487.809 332.432 502.606 337.082C517.403 341.732 522.476 323.131 523.744 321.44C525.012 319.749 567.289 286.35 582.086 271.553C596.883 256.756 604.07 246.187 603.647 241.536C603.224 236.886 594.346 233.081 578.281 220.82C562.216 208.56 546.573 198.413 506.41 184.885C466.246 171.356 428.567 171.486 428.567 171.486Z" fill="#8B3A3A" stroke="#263238" stroke-miterlimit="10"/>
<path d="M320.181 275.593C320.181 275.593 296.231 275.925 277.268 287.619C251.902 303.261 247.674 334.124 246.828 341.734C245.983 349.344 259.934 362.873 273.463 371.328C286.992 379.783 363.936 404.727 373.237 403.458C382.538 402.19 388.879 397.539 393.53 390.352C398.18 383.165 405.209 373.864 405.79 357.376C406.371 340.888 390.148 306.644 378.733 293.961C367.318 281.277 327.159 274.137 320.181 275.593Z" fill="white" stroke="#263238" stroke-miterlimit="10"/>
<path d="M317.524 294.161C317.524 295.456 315.774 296.507 313.615 296.507C311.456 296.507 309.706 295.457 309.706 294.161C309.706 292.866 311.456 291.816 313.615 291.816C315.774 291.816 317.524 292.866 317.524 294.161Z" stroke="#263238" stroke-miterlimit="10"/>
<path d="M440.411 179.586C440.411 179.586 430.18 177.402 426.762 179.888C423.344 182.374 425.83 188.589 425.83 188.589L440.411 179.586Z" fill="#263238" stroke="#263238" stroke-miterlimit="10"/>
<path d="M440.411 179.587C440.411 179.587 425.56 186.27 422.218 191.097C418.876 195.924 421.475 198.151 416.649 201.493C411.822 204.835 407.738 202.978 406.624 207.434C405.51 211.889 408.852 214.488 408.852 214.488C408.852 214.488 404.025 227.112 403.654 233.423C403.283 239.734 409.223 241.962 411.451 245.304C413.679 248.645 415.906 248.274 409.966 255.7C404.026 263.126 399.57 265.725 399.57 265.725C399.57 265.725 420.733 272.779 430.015 275.007C439.297 277.235 444.124 277.235 444.124 277.235C444.124 277.235 448.208 257.186 454.52 250.874C460.832 244.562 473.084 244.934 480.881 229.34C488.678 213.746 482.366 194.811 468.629 186.643C454.892 178.473 448.58 175.131 440.411 179.587Z" fill="white" stroke="#263238" stroke-miterlimit="10"/>
<path d="M410.164 219.111C410.164 219.111 416.892 221.141 424.624 217.945" stroke="#263238" stroke-miterlimit="10"/>
<path d="M432.306 200.317C431.283 201.802 429.937 202.65 429.301 202.211C428.665 201.772 428.978 200.213 430.002 198.729C431.025 197.244 432.371 196.396 433.007 196.835C433.643 197.273 433.329 198.833 432.306 200.317Z" fill="#263238"/>
<path d="M428.588 193.226C428.588 193.226 433.019 188.795 437.917 193.926" stroke="#263238" stroke-miterlimit="10"/>
<path d="M440.124 174.294C440.124 174.294 437.638 183.616 444.474 193.249C451.31 202.882 453.485 206.61 453.796 203.503C454.107 200.396 453.796 195.735 453.796 195.735C453.796 195.735 456.903 210.029 458.457 213.758C460.011 217.487 466.536 226.809 467.158 227.741C467.779 228.673 465.604 235.199 459.7 240.792C453.796 246.385 448.203 255.086 444.474 264.097C440.745 273.108 446.96 276.526 450.378 278.08C453.796 279.634 476.169 283.052 481.141 292.684C486.113 302.317 492.327 308.221 489.842 313.814C487.356 319.407 491.706 320.961 500.096 314.746C508.486 308.531 521.536 302.317 515.943 287.401C510.35 272.486 494.813 275.904 488.909 271.864C483.005 267.824 488.909 269.378 494.502 264.406C500.095 259.434 494.502 245.762 491.705 241.101C488.909 236.44 505.377 228.672 504.756 212.203C504.134 195.734 490.773 186.723 467.779 177.401C444.785 168.08 441.367 167.769 440.124 174.294Z" fill="#263238" stroke="#263238" stroke-miterlimit="10"/>
<path d="M460.936 222.844C460.936 222.844 468.865 219.113 471.198 224.01C473.53 228.908 471.198 233.805 464.202 237.537C457.205 241.269 453.007 237.537 453.707 235.205" fill="white"/>
<path d="M460.936 222.844C460.936 222.844 468.865 219.113 471.198 224.01C473.53 228.908 471.198 233.805 464.202 237.537C457.205 241.269 453.007 237.537 453.707 235.205" stroke="#263238" stroke-miterlimit="10"/>
<path d="M491.706 290.199C485.598 283.785 477.078 278.289 464.397 279.872C468.01 279.389 451.837 279.071 430.017 275.006C417.712 272.714 402.527 265.961 390.408 259.747C378.29 253.532 363.685 250.736 347.216 257.261C330.747 263.786 327.951 271.555 327.018 272.798C326.086 274.041 320.182 275.595 320.182 275.595C320.182 275.595 352.809 277.149 371.764 294.55C386.838 308.389 393.065 324.777 396.548 336.692L397.008 339.481C397.008 339.481 400.594 369.147 400.594 372.733C400.594 376.319 399.29 379.905 398.638 381.209C397.986 382.513 397.334 384.143 397.334 384.143C397.334 384.143 399.41 383.824 403.528 384.469C407.646 385.114 411.026 381.535 415.264 375.993C415.476 375.716 415.679 375.445 415.881 375.174C423.133 370.576 431.326 365.039 432.668 364.464C434.843 363.532 460.945 400.82 462.809 398.955C464.674 397.091 488.911 352.034 494.814 335.255C500.717 318.475 497.92 296.724 491.706 290.199Z" fill="#8B3A3A" stroke="#263238" stroke-miterlimit="10"/>
<path d="M466.942 376.727C467.773 378.438 468.398 380.26 468.727 382.184" stroke="#263238" stroke-miterlimit="10"/>
<path d="M449.818 360.344C449.818 360.344 459.132 365.092 464.775 373.086" stroke="#263238" stroke-miterlimit="10"/>
<path d="M461.868 358.012C463.161 358.59 464.477 359.254 465.792 360.018" stroke="#263238" stroke-miterlimit="10"/>
<path d="M445.58 354.148C445.58 354.148 449.881 354.148 455.677 355.777" stroke="#263238" stroke-miterlimit="10"/>
<path d="M442.32 302.316C442.32 302.316 451.253 305.07 453.796 314.125" stroke="#263238" stroke-miterlimit="10"/>
<path d="M442.835 341.199C440.109 346.556 437.948 350.479 437.948 350.479" stroke="#263238" stroke-miterlimit="10"/>
<path d="M454.107 296.102C454.107 296.102 454.418 305.424 453.796 314.124C453.471 318.671 449.158 328.394 445.114 336.642" stroke="#263238" stroke-miterlimit="10"/>
<path d="M416.198 297.966C416.198 297.966 406.876 285.537 403.147 283.051C399.418 280.565 378.599 267.514 375.803 266.582C373.006 265.65 361.82 266.271 354.052 267.825C346.284 269.379 336.962 272.175 339.448 274.661C341.934 277.147 365.239 283.983 365.239 283.983C365.239 283.983 375.493 292.062 382.951 296.101C390.409 300.14 393.516 300.762 393.516 300.762L406.256 352.033L429.561 334.011L416.198 297.966Z" fill="white" stroke="#263238" stroke-miterlimit="10"/>
<path d="M342.243 275.283C342.243 275.283 344.418 274.04 348.147 274.972C351.876 275.904 362.751 277.769 364.616 277.769" stroke="#263238" stroke-miterlimit="10"/>
<path d="M341.559 272.069C341.559 272.069 351.71 270.875 353.502 271.273C355.293 271.671 368.231 273.065 368.231 273.065" stroke="#263238" stroke-miterlimit="10"/>
<path d="M354.051 267.824C354.051 267.824 368.629 268.683 369.823 269.28" stroke="#263238" stroke-miterlimit="10"/>
<path d="M427.052 323.391C427.052 323.391 411.78 325.936 410.189 330.391C408.598 334.845 406.371 340.89 406.371 340.89C406.371 340.89 396.19 344.708 396.826 346.617C397.462 348.526 401.28 376.206 407.643 385.114C414.006 394.023 423.551 410.885 423.551 410.885C423.551 410.885 443.277 427.748 453.458 421.066C463.639 414.385 466.503 395.613 462.048 385.432C457.594 375.251 445.185 355.525 440.731 348.525C436.279 341.526 427.052 323.391 427.052 323.391Z" fill="#8B3A3A" stroke="#263238" stroke-miterlimit="10"/>
<path d="M425.467 428.899C425.467 428.899 397.332 384.141 338.028 369.325C306.775 361.517 309.202 363.56 276.533 364.521C266.881 364.805 246.828 341.734 246.828 341.734C246.828 341.734 237.137 344.343 235.215 350.108C233.293 355.873 230.411 360.677 230.411 360.677C230.411 360.677 211.194 363.56 175.642 383.738C140.09 403.916 123.755 429.859 123.755 429.859" fill="#DBDBDB"/>
<path d="M425.467 428.899C425.467 428.899 397.332 384.141 338.028 369.325C306.775 361.517 309.202 363.56 276.533 364.521C266.881 364.805 246.828 341.734 246.828 341.734C246.828 341.734 237.137 344.343 235.215 350.108C233.293 355.873 230.411 360.677 230.411 360.677C230.411 360.677 211.194 363.56 175.642 383.738C140.09 403.916 123.755 429.859 123.755 429.859" stroke="#263238" stroke-miterlimit="10"/>
<path d="M375.4 423.98C376.182 425.878 376.862 427.837 377.424 429.859" stroke="#263238" stroke-miterlimit="10"/>
<path d="M323.616 378.934C323.616 378.934 357.051 391.29 372.083 417.267" stroke="#263238" stroke-miterlimit="10"/>
<path d="M272.663 379.246C257.926 388.214 231.62 406.191 218.881 426.976" stroke="#263238" stroke-miterlimit="10"/>
<path d="M283.259 373.168C283.259 373.168 280.904 374.395 277.046 376.638" stroke="#263238" stroke-miterlimit="10"/>
<path d="M252.242 250.665C252.242 250.665 247.472 251.372 244.999 258.791C242.526 266.21 252.948 278.576 254.892 283.169C256.835 287.762 261.428 295.888 261.605 299.245C261.782 302.601 272.403 306.318 282.45 298.892C290.576 292.886 288.809 284.053 287.396 281.933C285.983 279.813 283.485 278.961 281.92 277.693C274.5 271.687 271.497 266.564 268.318 260.911C265.138 255.258 261.075 248.015 252.242 250.665Z" fill="white" stroke="#263238" stroke-miterlimit="10"/>
<path d="M243.232 249.076C243.232 249.076 245.528 252.079 245.882 254.022C246.235 255.965 248.532 256.318 250.828 255.082C253.124 253.846 251.888 251.726 252.241 250.666C252.594 249.606 244.645 243.777 240.935 238.653C237.225 233.53 228.746 225.227 225.919 224.167C223.092 223.107 222.209 224.344 223.092 228.937C223.975 233.53 231.383 253.015 231.383 253.015L234.222 254.022C234.222 254.022 225.213 232.293 225.036 229.82C224.859 227.347 228.039 229.467 229.452 231.233C230.867 233 243.232 249.076 243.232 249.076Z" fill="white" stroke="#263238" stroke-miterlimit="10"/>
<path d="M200.673 319.055C200.673 319.055 208.597 318.132 212.325 302.598C216.053 287.063 221.646 264.694 218.539 264.072C215.432 263.451 198.033 265.936 198.033 265.936C198.033 265.936 192.128 307.55 200.673 319.055Z" fill="#263238" stroke="#263238" stroke-miterlimit="10"/>
<path d="M214.121 257.911C214.121 257.911 230.353 253.016 231.384 253.016C232.415 253.016 250.708 261.003 250.708 261.003C250.708 261.003 261.014 268.475 262.045 268.99C263.076 269.505 264.364 270.794 263.333 272.339C262.302 273.884 257.922 272.854 257.922 272.854L248.904 269.505L245.039 269.247C245.039 269.247 262.56 275.431 264.363 276.461C266.167 277.492 269.258 279.553 268.228 281.872C267.197 284.191 267.197 284.191 267.197 284.191C267.197 284.191 267.455 287.798 265.909 288.829C264.363 289.86 261.014 289.087 261.014 289.087C261.014 289.087 257.407 290.375 255.346 290.891C253.285 291.406 231.9 290.376 228.292 290.118C224.685 289.86 207.164 281.358 207.164 281.358L201.496 280.327C201.496 280.327 200.981 271.824 202.527 266.671C204.073 261.518 207.938 257.653 207.938 257.653L214.121 257.911Z" fill="white" stroke="#263238" stroke-miterlimit="10"/>
<path d="M232.456 273.277L246.236 278.223L267.198 284.191" stroke="#263238" stroke-miterlimit="10"/>
<path d="M230.69 281.758L250.829 286.528L259.308 288.824" stroke="#263238" stroke-miterlimit="10"/>
<path d="M245.04 269.246C245.04 269.246 238.993 266.21 238.286 266.21C237.579 266.21 231.043 263.207 231.043 263.207" stroke="#263238" stroke-miterlimit="10"/>
<path d="M224.86 288.821C224.86 288.821 222.387 287.408 222.034 285.111C221.681 282.815 221.857 280.341 221.857 280.341C221.857 280.341 220.444 278.398 220.267 276.278C220.09 274.158 221.15 271.508 221.15 271.508" stroke="#263238" stroke-miterlimit="10"/>
<path d="M126.405 134.738C126.405 134.738 120.082 137.7 117.307 143.16C113.582 150.487 111.409 158.938 112.09 173.935C112.347 179.6 121.951 241.467 121.385 243.732C120.819 245.997 120.535 257.891 125.916 266.952C131.296 276.013 147.72 300.366 168.675 308.862C189.63 317.357 200.674 319.056 200.674 319.056C200.674 319.056 201.24 300.367 204.072 278.562C206.904 256.758 214.122 257.912 214.122 257.912C214.122 257.912 201.807 256.475 199.541 256.192C197.276 255.909 188.214 251.378 186.232 250.245C184.25 249.112 181.418 248.829 181.418 248.829C181.418 248.829 181.418 247.979 178.87 244.298C176.321 240.617 174.622 238.351 174.622 238.351C174.622 238.351 176.321 234.103 176.321 231.272C176.321 228.44 174.339 219.095 174.339 219.095C174.339 219.095 162.769 198.725 160.49 187.227C158.211 175.729 154.827 158.91 151.429 154.379C148.031 149.848 144.633 147.866 144.633 147.866" fill="white"/>
<path d="M126.405 134.738C126.405 134.738 120.082 137.7 117.307 143.16C113.582 150.487 111.409 158.938 112.09 173.935C112.347 179.6 121.951 241.467 121.385 243.732C120.819 245.997 120.535 257.891 125.916 266.952C131.296 276.013 147.72 300.366 168.675 308.862C189.63 317.357 200.674 319.056 200.674 319.056C200.674 319.056 201.24 300.367 204.072 278.562C206.904 256.758 214.122 257.912 214.122 257.912C214.122 257.912 201.807 256.475 199.541 256.192C197.276 255.909 188.214 251.378 186.232 250.245C184.25 249.112 181.418 248.829 181.418 248.829C181.418 248.829 181.418 247.979 178.87 244.298C176.321 240.617 174.622 238.351 174.622 238.351C174.622 238.351 176.321 234.103 176.321 231.272C176.321 228.44 174.339 219.095 174.339 219.095C174.339 219.095 162.769 198.725 160.49 187.227C158.211 175.729 154.827 158.91 151.429 154.379C148.031 149.848 144.633 147.866 144.633 147.866" stroke="#263238" stroke-miterlimit="10"/>
<path d="M147.352 250.056C151.062 246.564 155.302 242.916 158.197 241.468C164.427 238.353 169.807 238.636 169.807 238.636" stroke="#263238" stroke-miterlimit="10"/>
<path d="M139.508 257.891C139.508 257.891 141.022 256.274 143.258 254.035" stroke="#263238" stroke-miterlimit="10"/>
<path d="M178.02 249.113C178.02 249.113 167.259 243.733 157.632 248.264" stroke="#263238" stroke-miterlimit="10"/>
<path d="M644.814 221.57H641.088V429.294H644.814V221.57Z" fill="#263238"/>
<path d="M656.317 201.656H652.591V429.295H656.317V201.656Z" fill="#263238"/>
<path d="M667.82 201.656H664.094V429.295H667.82V201.656Z" fill="#263238"/>
<path d="M640.913 221.309C640.913 221.309 638.517 216.037 629.89 215.558C621.263 215.079 614.553 220.351 614.553 220.351C614.553 220.351 622.222 219.872 625.576 221.309C628.931 222.747 633.245 225.623 633.245 225.623C633.245 225.623 630.369 228.019 628.452 232.812C626.535 237.605 623.659 246.711 623.659 246.711C623.659 246.711 632.765 240.001 635.162 235.688C637.558 231.374 640.913 228.978 640.913 228.978C640.913 228.978 642.351 234.25 641.392 238.084C640.434 241.918 639.954 247.67 639.954 247.67C639.954 247.67 649.54 244.315 647.623 232.333C645.706 220.35 640.913 221.309 640.913 221.309Z" fill="#8B3A3A"/>
<path d="M657.209 254.856C657.209 254.856 654.813 249.584 646.186 249.105C637.559 248.626 630.849 253.898 630.849 253.898C630.849 253.898 638.517 253.419 641.872 254.856C645.227 256.294 649.541 259.17 649.541 259.17C649.541 259.17 646.665 261.567 644.748 266.359C642.831 271.152 639.955 280.258 639.955 280.258C639.955 280.258 649.061 273.548 651.458 269.235C653.854 264.921 657.209 262.525 657.209 262.525C657.209 262.525 658.647 267.797 657.688 271.631C656.73 275.465 656.25 281.217 656.25 281.217C656.25 281.217 665.836 277.862 663.919 265.88C662.001 253.898 657.209 254.856 657.209 254.856Z" fill="#8B3A3A"/>
<path d="M637.558 270.192C637.558 270.192 635.162 264.92 626.535 264.441C617.908 263.962 611.198 269.234 611.198 269.234C611.198 269.234 618.867 268.755 622.222 270.193C625.577 271.631 629.891 274.507 629.891 274.507C629.891 274.507 627.015 276.904 625.098 281.696C623.181 286.489 620.305 295.595 620.305 295.595C620.305 295.595 629.411 288.885 631.808 284.572C634.204 280.258 637.559 277.862 637.559 277.862C637.559 277.862 638.997 283.134 638.038 286.968C637.079 290.802 636.6 296.554 636.6 296.554C636.6 296.554 646.186 293.199 644.268 281.217C642.351 269.234 637.558 270.192 637.558 270.192Z" fill="#8B3A3A"/>
<path d="M668.677 329.575C668.677 329.575 663.919 328.71 659.485 334.402C655.051 340.094 655.475 347.206 655.475 347.206C655.475 347.206 658.795 341.716 661.378 340.098C663.961 338.48 667.987 336.889 667.987 336.889C667.987 336.889 668.263 340.002 670.639 343.599C673.015 347.195 677.895 353.502 677.895 353.502C677.895 353.502 677.625 344.061 675.805 340.364C673.986 336.667 673.938 333.225 673.938 333.225C673.938 333.225 678.24 334.747 680.415 337.23C682.59 339.712 686.308 342.778 686.308 342.778C686.308 342.778 688.567 334.604 679.434 330.218C670.3 325.83 668.677 329.575 668.677 329.575Z" fill="#8B3A3A"/>
<path d="M670.214 323.129C670.214 323.129 668.694 327.719 673.71 332.905C678.726 338.091 685.829 338.664 685.829 338.664C685.829 338.664 680.857 334.609 679.615 331.826C678.374 329.042 677.36 324.834 677.36 324.834C677.36 324.834 680.482 324.996 684.374 323.145C688.267 321.294 695.193 317.343 695.193 317.343C695.193 317.343 685.806 316.292 681.891 317.578C677.976 318.863 674.561 318.43 674.561 318.43C674.561 318.43 676.669 314.383 679.431 312.576C682.193 310.769 685.748 307.516 685.748 307.516C685.748 307.516 677.97 304.137 672.351 312.569C666.733 320.998 670.214 323.129 670.214 323.129Z" fill="#8B3A3A"/>
<path d="M622.286 337.509C622.286 337.509 620.766 342.1 625.782 347.285C630.798 352.471 637.901 353.044 637.901 353.044C637.901 353.044 632.929 348.989 631.687 346.206C630.446 343.422 629.432 339.214 629.432 339.214C629.432 339.214 632.554 339.376 636.446 337.525C640.339 335.674 647.265 331.723 647.265 331.723C647.265 331.723 637.878 330.672 633.963 331.958C630.048 333.243 626.633 332.81 626.633 332.81C626.633 332.81 628.741 328.763 631.503 326.956C634.265 325.149 637.82 321.895 637.82 321.895C637.82 321.895 630.042 318.516 624.423 326.948C618.805 335.379 622.286 337.509 622.286 337.509Z" fill="#8B3A3A"/>
<path d="M664.615 355.493C664.615 355.493 663.094 360.083 668.111 365.269C673.127 370.455 680.23 371.028 680.23 371.028C680.23 371.028 675.258 366.973 674.016 364.19C672.775 361.406 671.761 357.198 671.761 357.198C671.761 357.198 674.883 357.36 678.776 355.509C682.669 353.658 689.595 349.707 689.595 349.707C689.595 349.707 680.208 348.656 676.293 349.942C672.378 351.227 668.963 350.794 668.963 350.794C668.963 350.794 671.071 346.747 673.833 344.94C676.595 343.133 680.15 339.88 680.15 339.88C680.15 339.88 672.372 336.501 666.753 344.933C661.134 353.363 664.615 355.493 664.615 355.493Z" fill="#8B3A3A"/>
<path d="M665.356 274.985C665.356 274.985 662.96 269.713 654.333 269.234C645.706 268.755 638.996 274.027 638.996 274.027C638.996 274.027 646.665 273.548 650.019 274.986C653.374 276.424 657.688 279.3 657.688 279.3C657.688 279.3 654.812 281.696 652.895 286.489C650.978 291.282 648.102 300.388 648.102 300.388C648.102 300.388 657.208 293.678 659.605 289.365C662.001 285.051 665.356 282.655 665.356 282.655C665.356 282.655 666.794 287.927 665.835 291.761C664.877 295.595 664.397 301.347 664.397 301.347C664.397 301.347 673.983 297.992 672.065 286.01C670.149 274.027 665.356 274.985 665.356 274.985Z" fill="#8B3A3A"/>
<path d="M647.896 220.786C647.896 220.786 644.176 225.224 647.47 233.212C650.764 241.2 658.417 244.975 658.417 244.975C658.417 244.975 654.673 238.265 654.521 234.619C654.369 230.972 655.099 225.84 655.099 225.84C655.099 225.84 658.502 227.399 663.653 227.058C668.804 226.717 678.259 225.378 678.259 225.378C678.259 225.378 668.274 220.063 663.349 219.764C658.423 219.466 654.813 217.475 654.813 217.475C654.813 217.475 658.947 213.901 662.819 213.11C666.691 212.319 672.086 210.267 672.086 210.267C672.086 210.267 664.92 203.07 654.941 209.975C644.961 216.878 647.896 220.786 647.896 220.786Z" fill="#8B3A3A"/>
<path d="M660.837 254.814C660.837 254.814 657.117 259.252 660.411 267.24C663.705 275.228 671.358 279.003 671.358 279.003C671.358 279.003 667.614 272.293 667.462 268.647C667.31 265 668.041 259.868 668.041 259.868C668.041 259.868 671.444 261.427 676.595 261.086C681.746 260.745 691.201 259.406 691.201 259.406C691.201 259.406 681.216 254.091 676.291 253.792C671.365 253.494 667.755 251.503 667.755 251.503C667.755 251.503 671.889 247.929 675.761 247.138C679.633 246.347 685.028 244.295 685.028 244.295C685.028 244.295 677.862 237.098 667.883 244.003C657.902 250.905 660.837 254.814 660.837 254.814Z" fill="#8B3A3A"/>
<path d="M668.771 271.591C668.771 271.591 665.051 276.029 668.345 284.017C671.639 292.005 679.292 295.78 679.292 295.78C679.292 295.78 675.548 289.07 675.396 285.424C675.244 281.777 675.974 276.645 675.974 276.645C675.974 276.645 679.378 278.204 684.528 277.863C689.679 277.522 699.134 276.183 699.134 276.183C699.134 276.183 689.149 270.868 684.224 270.569C679.299 270.271 675.688 268.28 675.688 268.28C675.688 268.28 679.822 264.706 683.694 263.915C687.566 263.124 692.961 261.072 692.961 261.072C692.961 261.072 685.795 253.875 675.816 260.78C665.837 267.682 668.771 271.591 668.771 271.591Z" fill="#8B3A3A"/>
<path d="M649.962 214.116C649.962 214.116 655.153 211.549 655.351 202.911C655.549 194.273 650.061 187.738 650.061 187.738C650.061 187.738 650.79 195.387 649.462 198.787C648.134 202.187 645.4 206.592 645.4 206.592C645.4 206.592 642.911 203.796 638.059 202.036C633.206 200.276 624.011 197.698 624.011 197.698C624.011 197.698 631.014 206.581 635.403 208.836C639.792 211.091 642.297 214.366 642.297 214.366C642.297 214.366 637.075 215.975 633.211 215.141C629.348 214.308 623.584 214.016 623.584 214.016C623.584 214.016 627.249 223.487 639.163 221.181C651.076 218.876 649.962 214.116 649.962 214.116Z" fill="#8B3A3A"/>
<path d="M616.746 342.133C616.746 342.133 611.396 339.916 604.764 345.455C598.133 350.994 596.829 359.427 596.829 359.427C596.829 359.427 602.105 353.842 605.539 352.602C608.972 351.362 614.087 350.519 614.087 350.519C614.087 350.519 613.622 354.233 615.492 359.044C617.363 363.855 621.478 372.472 621.478 372.472C621.478 372.472 623.552 361.352 622.358 356.564C621.165 351.776 621.98 347.735 621.98 347.735C621.98 347.735 626.63 350.606 628.547 354.062C630.464 357.518 634.04 362.048 634.04 362.048C634.04 362.048 638.754 353.053 629.174 345.606C619.594 338.161 616.746 342.133 616.746 342.133Z" fill="#8B3A3A"/>
<path d="M668.48 311.269C668.48 311.269 673.671 308.702 673.869 300.064C674.067 291.426 668.579 284.891 668.579 284.891C668.579 284.891 669.308 292.54 667.98 295.94C666.652 299.34 663.918 303.745 663.918 303.745C663.918 303.745 661.429 300.949 656.577 299.189C651.724 297.429 642.529 294.851 642.529 294.851C642.529 294.851 649.532 303.734 653.921 305.989C658.31 308.244 660.815 311.519 660.815 311.519C660.815 311.519 655.593 313.128 651.729 312.295C647.866 311.462 642.102 311.17 642.102 311.17C642.102 311.17 645.767 320.641 657.681 318.335C669.594 316.028 668.48 311.269 668.48 311.269Z" fill="#8B3A3A"/>
<path d="M621.258 338.483C621.258 338.483 626.449 335.916 626.648 327.278C626.846 318.64 621.358 312.105 621.358 312.105C621.358 312.105 622.087 319.754 620.759 323.154C619.431 326.554 616.697 330.959 616.697 330.959C616.697 330.959 614.208 328.163 609.356 326.403C604.503 324.643 595.308 322.065 595.308 322.065C595.308 322.065 602.311 330.948 606.7 333.203C611.089 335.458 613.594 338.733 613.594 338.733C613.594 338.733 608.371 340.342 604.508 339.508C600.645 338.675 594.881 338.383 594.881 338.383C594.881 338.383 598.546 347.854 610.459 345.548C622.373 343.242 621.258 338.483 621.258 338.483Z" fill="#8B3A3A"/>
<path d="M646.25 376.809C646.25 376.809 644.73 381.399 649.746 386.585C654.762 391.771 661.865 392.344 661.865 392.344C661.865 392.344 656.893 388.29 655.651 385.506C654.41 382.722 653.396 378.514 653.396 378.514C653.396 378.514 656.518 378.676 660.41 376.825C664.303 374.974 671.229 371.023 671.229 371.023C671.229 371.023 661.842 369.972 657.927 371.258C654.012 372.543 650.597 372.11 650.597 372.11C650.597 372.11 652.705 368.063 655.467 366.256C658.229 364.449 661.784 361.196 661.784 361.196C661.784 361.196 654.006 357.817 648.387 366.249C642.769 374.679 646.25 376.809 646.25 376.809Z" fill="#8B3A3A"/>
<path d="M640.71 381.433C640.71 381.433 635.36 379.216 628.728 384.755C622.097 390.294 620.793 398.727 620.793 398.727C620.793 398.727 626.069 393.142 629.503 391.902C632.936 390.662 638.051 389.819 638.051 389.819C638.051 389.819 637.585 393.533 639.457 398.344C641.328 403.155 645.443 411.772 645.443 411.772C645.443 411.772 647.517 400.652 646.323 395.864C645.13 391.076 645.945 387.035 645.945 387.035C645.945 387.035 650.595 389.906 652.512 393.362C654.429 396.818 658.005 401.348 658.005 401.348C658.005 401.348 662.719 392.353 653.139 384.906C643.558 377.461 640.71 381.433 640.71 381.433Z" fill="#8B3A3A"/>
<path d="M645.222 377.784C645.222 377.784 650.413 375.217 650.612 366.579C650.81 357.941 645.322 351.406 645.322 351.406C645.322 351.406 646.051 359.055 644.723 362.455C643.395 365.855 640.661 370.26 640.661 370.26C640.661 370.26 638.172 367.464 633.32 365.704C628.467 363.944 619.272 361.366 619.272 361.366C619.272 361.366 626.275 370.249 630.664 372.504C635.053 374.759 637.558 378.034 637.558 378.034C637.558 378.034 632.336 379.643 628.472 378.809C624.609 377.976 618.845 377.684 618.845 377.684C618.845 377.684 622.51 387.155 634.423 384.849C646.337 382.544 645.222 377.784 645.222 377.784Z" fill="#8B3A3A"/>
<path d="M663.025 333.676C663.025 333.676 661.505 338.267 666.521 343.452C671.537 348.638 678.64 349.211 678.64 349.211C678.64 349.211 673.668 345.156 672.426 342.373C671.185 339.589 670.171 335.381 670.171 335.381C670.171 335.381 673.293 335.543 677.185 333.692C681.078 331.841 688.004 327.89 688.004 327.89C688.004 327.89 678.617 326.839 674.702 328.125C670.787 329.41 667.372 328.977 667.372 328.977C667.372 328.977 669.48 324.93 672.242 323.123C675.004 321.316 678.559 318.063 678.559 318.063C678.559 318.063 670.781 314.684 665.162 323.116C659.543 331.546 663.025 333.676 663.025 333.676Z" fill="#8B3A3A"/>
<path d="M657.485 338.301C657.485 338.301 652.135 336.085 645.503 341.624C638.872 347.163 637.568 355.596 637.568 355.596C637.568 355.596 642.844 350.011 646.278 348.771C649.711 347.531 654.826 346.688 654.826 346.688C654.826 346.688 654.36 350.402 656.232 355.213C658.103 360.024 662.218 368.641 662.218 368.641C662.218 368.641 664.292 357.521 663.098 352.733C661.905 347.945 662.72 343.904 662.72 343.904C662.72 343.904 667.37 346.775 669.287 350.231C671.204 353.687 674.78 358.217 674.78 358.217C674.78 358.217 679.494 349.222 669.914 341.775C660.333 334.328 657.485 338.301 657.485 338.301Z" fill="#8B3A3A"/>
<path d="M661.997 334.648C661.997 334.648 667.188 332.081 667.386 323.443C667.584 314.805 662.096 308.27 662.096 308.27C662.096 308.27 662.825 315.919 661.497 319.319C660.169 322.719 657.435 327.124 657.435 327.124C657.435 327.124 654.946 324.328 650.094 322.568C645.241 320.808 636.046 318.23 636.046 318.23C636.046 318.23 643.049 327.113 647.438 329.368C651.827 331.623 654.332 334.898 654.332 334.898C654.332 334.898 649.109 336.507 645.246 335.673C641.383 334.84 635.619 334.548 635.619 334.548C635.619 334.548 639.284 344.019 651.198 341.713C663.111 339.407 661.997 334.648 661.997 334.648Z" fill="#8B3A3A"/>
<path d="M690.816 351.339C690.816 351.339 696.007 348.772 696.205 340.134C696.403 331.496 690.915 324.961 690.915 324.961C690.915 324.961 691.644 332.61 690.316 336.01C688.988 339.41 686.255 343.815 686.255 343.815C686.255 343.815 683.766 341.019 678.913 339.259C674.06 337.499 664.865 334.921 664.865 334.921C664.865 334.921 671.868 343.804 676.257 346.059C680.646 348.314 683.151 351.589 683.151 351.589C683.151 351.589 677.928 353.198 674.065 352.364C670.202 351.531 664.438 351.239 664.438 351.239C664.438 351.239 668.103 360.71 680.016 358.404C691.93 356.099 690.816 351.339 690.816 351.339Z" fill="#8B3A3A"/>
<path d="M637.623 319.775C637.623 319.775 636.102 324.366 641.119 329.551C646.135 334.737 653.238 335.31 653.238 335.31C653.238 335.31 648.266 331.255 647.024 328.472C645.782 325.689 644.769 321.48 644.769 321.48C644.769 321.48 647.891 321.642 651.783 319.791C655.676 317.94 662.602 313.989 662.602 313.989C662.602 313.989 653.215 312.938 649.301 314.224C645.386 315.509 641.971 315.076 641.971 315.076C641.971 315.076 644.079 311.029 646.841 309.222C649.603 307.415 653.158 304.161 653.158 304.161C653.158 304.161 645.38 300.782 639.761 309.214C634.141 317.645 637.623 319.775 637.623 319.775Z" fill="#8B3A3A"/>
<path d="M632.083 324.399C632.083 324.399 626.733 322.182 620.102 327.721C613.471 333.26 612.167 341.693 612.167 341.693C612.167 341.693 617.443 336.108 620.877 334.868C624.31 333.628 629.425 332.785 629.425 332.785C629.425 332.785 628.959 336.499 630.83 341.31C632.701 346.121 636.816 354.738 636.816 354.738C636.816 354.738 638.89 343.618 637.696 338.83C636.502 334.042 637.318 330.001 637.318 330.001C637.318 330.001 641.968 332.872 643.885 336.328C645.802 339.784 649.378 344.314 649.378 344.314C649.378 344.314 654.092 335.319 644.512 327.872C634.931 320.426 632.083 324.399 632.083 324.399Z" fill="#8B3A3A"/>
<path d="M636.595 320.749C636.595 320.749 641.786 318.182 641.984 309.544C642.182 300.906 636.694 294.371 636.694 294.371C636.694 294.371 637.423 302.02 636.095 305.42C634.767 308.82 632.033 313.225 632.033 313.225C632.033 313.225 629.544 310.429 624.692 308.669C619.839 306.909 610.644 304.331 610.644 304.331C610.644 304.331 617.647 313.214 622.036 315.469C626.425 317.724 628.929 320.999 628.929 320.999C628.929 320.999 623.707 322.608 619.843 321.774C615.979 320.941 610.216 320.649 610.216 320.649C610.216 320.649 613.881 330.12 625.794 327.814C637.709 325.508 636.595 320.749 636.595 320.749Z" fill="#8B3A3A"/>
<path d="M667.484 364.966C667.484 364.966 662.726 364.101 658.292 369.793C653.858 375.485 654.282 382.597 654.282 382.597C654.282 382.597 657.602 377.107 660.185 375.489C662.768 373.871 666.794 372.28 666.794 372.28C666.794 372.28 667.07 375.394 669.446 378.99C671.822 382.586 676.702 388.893 676.702 388.893C676.702 388.893 676.432 379.452 674.612 375.755C672.792 372.058 672.745 368.616 672.745 368.616C672.745 368.616 677.047 370.138 679.222 372.621C681.397 375.103 685.115 378.169 685.115 378.169C685.115 378.169 687.374 369.995 678.241 365.609C669.107 361.221 667.484 364.966 667.484 364.966Z" fill="#8B3A3A"/>
<path d="M685.115 378.167C685.115 378.167 683.594 382.758 688.611 387.943C693.628 393.129 700.73 393.701 700.73 393.701C700.73 393.701 695.758 389.647 694.516 386.863C693.275 384.079 692.261 379.871 692.261 379.871C692.261 379.871 695.383 380.033 699.275 378.182C703.168 376.331 710.094 372.38 710.094 372.38C710.094 372.38 700.707 371.33 696.793 372.615C692.878 373.9 689.463 373.467 689.463 373.467C689.463 373.467 691.571 369.42 694.333 367.613C697.095 365.806 700.65 362.552 700.65 362.552C700.65 362.552 692.872 359.173 687.253 367.605C681.634 376.037 685.115 378.167 685.115 378.167Z" fill="#8B3A3A"/>
<path d="M679.576 382.793C679.576 382.793 674.225 380.577 667.593 386.116C660.962 391.655 659.658 400.088 659.658 400.088C659.658 400.088 664.934 394.503 668.368 393.263C671.801 392.023 676.916 391.18 676.916 391.18C676.916 391.18 676.45 394.894 678.321 399.705C680.192 404.516 684.307 413.134 684.307 413.134C684.307 413.134 686.382 402.014 685.188 397.226C683.993 392.438 684.809 388.397 684.809 388.397C684.809 388.397 689.459 391.268 691.376 394.724C693.293 398.18 696.869 402.71 696.869 402.71C696.869 402.71 701.583 393.715 692.003 386.268C682.423 378.821 679.576 382.793 679.576 382.793Z" fill="#8B3A3A"/>
<path d="M684.087 379.14C684.087 379.14 689.279 376.573 689.477 367.935C689.675 359.297 684.188 352.762 684.188 352.762C684.188 352.762 684.917 360.411 683.589 363.811C682.261 367.211 679.526 371.616 679.526 371.616C679.526 371.616 677.037 368.82 672.185 367.06C667.332 365.3 658.137 362.722 658.137 362.722C658.137 362.722 665.14 371.605 669.529 373.86C673.918 376.115 676.423 379.39 676.423 379.39C676.423 379.39 671.2 380.999 667.337 380.166C663.473 379.333 657.71 379.041 657.71 379.041C657.71 379.041 661.375 388.512 673.289 386.206C685.201 383.899 684.087 379.14 684.087 379.14Z" fill="#8B3A3A"/>
<path d="M585.561 350.446C585.561 350.446 580.803 349.581 576.369 355.273C571.935 360.964 572.359 368.077 572.359 368.077C572.359 368.077 575.679 362.587 578.263 360.969C580.846 359.351 584.872 357.76 584.872 357.76C584.872 357.76 585.148 360.874 587.524 364.47C589.9 368.066 594.78 374.373 594.78 374.373C594.78 374.373 594.509 364.932 592.69 361.235C590.871 357.538 590.823 354.096 590.823 354.096C590.823 354.096 595.125 355.618 597.299 358.101C599.474 360.583 603.192 363.649 603.192 363.649C603.192 363.649 605.452 355.475 596.318 351.089C587.184 346.701 585.561 350.446 585.561 350.446Z" fill="#8B3A3A"/>
<path d="M603.192 363.646C603.192 363.646 601.671 368.237 606.688 373.422C611.704 378.608 618.807 379.181 618.807 379.181C618.807 379.181 613.834 375.127 612.593 372.343C611.352 369.559 610.338 365.351 610.338 365.351C610.338 365.351 613.46 365.513 617.352 363.662C621.245 361.811 628.171 357.86 628.171 357.86C628.171 357.86 618.784 356.81 614.869 358.095C610.954 359.38 607.539 358.947 607.539 358.947C607.539 358.947 609.647 354.9 612.409 353.093C615.171 351.286 618.726 348.032 618.726 348.032C618.726 348.032 610.948 344.653 605.329 353.085C599.711 361.516 603.192 363.646 603.192 363.646Z" fill="#8B3A3A"/>
<path d="M597.652 368.273C597.652 368.273 592.302 366.056 585.671 371.596C579.04 377.135 577.736 385.568 577.736 385.568C577.736 385.568 583.012 379.983 586.446 378.743C589.879 377.504 594.994 376.66 594.994 376.66C594.994 376.66 594.528 380.374 596.4 385.185C598.271 389.996 602.386 398.614 602.386 398.614C602.386 398.614 604.46 387.494 603.266 382.706C602.072 377.918 602.888 373.877 602.888 373.877C602.888 373.877 607.538 376.748 609.455 380.204C611.372 383.66 614.948 388.19 614.948 388.19C614.948 388.19 619.662 379.195 610.082 371.748C600.5 364.3 597.652 368.273 597.652 368.273Z" fill="#8B3A3A"/>
<path d="M602.165 364.62C602.165 364.62 607.356 362.053 607.555 353.415C607.753 344.777 602.265 338.242 602.265 338.242C602.265 338.242 602.994 345.891 601.666 349.291C600.338 352.691 597.604 357.096 597.604 357.096C597.604 357.096 595.115 354.3 590.263 352.54C585.41 350.78 576.215 348.202 576.215 348.202C576.215 348.202 583.218 357.085 587.607 359.34C591.996 361.595 594.501 364.87 594.501 364.87C594.501 364.87 589.279 366.479 585.415 365.646C581.551 364.813 575.788 364.521 575.788 364.521C575.788 364.521 579.453 373.992 591.367 371.686C603.279 369.379 602.165 364.62 602.165 364.62Z" fill="#8B3A3A"/>
<path d="M615.292 352.508C615.292 352.508 610.534 351.643 606.1 357.335C601.666 363.026 602.09 370.139 602.09 370.139C602.09 370.139 605.41 364.649 607.994 363.031C610.577 361.413 614.603 359.822 614.603 359.822C614.603 359.822 614.879 362.935 617.255 366.532C619.631 370.128 624.511 376.435 624.511 376.435C624.511 376.435 624.241 366.994 622.421 363.297C620.602 359.6 620.554 356.158 620.554 356.158C620.554 356.158 624.856 357.68 627.031 360.163C629.206 362.645 632.924 365.711 632.924 365.711C632.924 365.711 635.183 357.537 626.05 353.151C616.915 348.764 615.292 352.508 615.292 352.508Z" fill="#8B3A3A"/>
<path d="M632.924 365.709C632.924 365.709 631.403 370.3 636.42 375.485C641.436 380.671 648.539 381.243 648.539 381.243C648.539 381.243 643.567 377.189 642.325 374.405C641.084 371.621 640.07 367.413 640.07 367.413C640.07 367.413 643.192 367.575 647.084 365.724C650.977 363.873 657.903 359.922 657.903 359.922C657.903 359.922 648.516 358.872 644.602 360.157C640.687 361.442 637.272 361.009 637.272 361.009C637.272 361.009 639.38 356.962 642.142 355.155C644.904 353.348 648.459 350.095 648.459 350.095C648.459 350.095 640.681 346.716 635.062 355.148C629.442 363.579 632.924 365.709 632.924 365.709Z" fill="#8B3A3A"/>
<path d="M627.384 370.336C627.384 370.336 622.034 368.12 615.402 373.659C608.771 379.198 607.467 387.631 607.467 387.631C607.467 387.631 612.743 382.046 616.177 380.806C619.61 379.566 624.725 378.723 624.725 378.723C624.725 378.723 624.26 382.437 626.131 387.248C628.002 392.059 632.117 400.677 632.117 400.677C632.117 400.677 634.191 389.557 632.997 384.769C631.804 379.981 632.619 375.94 632.619 375.94C632.619 375.94 637.269 378.811 639.186 382.267C641.103 385.723 644.679 390.253 644.679 390.253C644.679 390.253 649.393 381.258 639.813 373.811C630.231 366.364 627.384 370.336 627.384 370.336Z" fill="#8B3A3A"/>
<path d="M631.896 366.683C631.896 366.683 637.087 364.116 637.285 355.478C637.483 346.84 631.996 340.305 631.996 340.305C631.996 340.305 632.725 347.954 631.397 351.354C630.069 354.754 627.335 359.159 627.335 359.159C627.335 359.159 624.846 356.363 619.994 354.603C615.141 352.843 605.946 350.265 605.946 350.265C605.946 350.265 612.949 359.148 617.338 361.403C621.727 363.658 624.232 366.933 624.232 366.933C624.232 366.933 619.01 368.542 615.146 367.709C611.283 366.876 605.519 366.584 605.519 366.584C605.519 366.584 609.184 376.055 621.097 373.749C633.01 371.442 631.896 366.683 631.896 366.683Z" fill="#8B3A3A"/>
<path d="M650.576 388.446C650.576 388.446 645.818 387.581 641.384 393.273C636.95 398.964 637.374 406.077 637.374 406.077C637.374 406.077 640.694 400.587 643.278 398.969C645.861 397.351 649.887 395.76 649.887 395.76C649.887 395.76 650.163 398.874 652.539 402.47C654.915 406.066 659.795 412.373 659.795 412.373C659.795 412.373 659.524 402.931 657.705 399.234C655.886 395.537 655.838 392.095 655.838 392.095C655.838 392.095 660.14 393.617 662.314 396.1C664.489 398.582 668.207 401.648 668.207 401.648C668.207 401.648 670.466 393.474 661.333 389.088C652.199 384.701 650.576 388.446 650.576 388.446Z" fill="#8B3A3A"/>
<path d="M668.207 401.649C668.207 401.649 666.686 406.239 671.703 411.425C676.72 416.611 683.822 417.184 683.822 417.184C683.822 417.184 678.85 413.13 677.608 410.346C676.367 407.562 675.353 403.354 675.353 403.354C675.353 403.354 678.475 403.516 682.367 401.665C686.26 399.814 693.186 395.863 693.186 395.863C693.186 395.863 683.799 394.812 679.884 396.098C675.969 397.383 672.554 396.95 672.554 396.95C672.554 396.95 674.662 392.903 677.424 391.096C680.186 389.289 683.741 386.036 683.741 386.036C683.741 386.036 675.963 382.657 670.344 391.089C664.725 399.519 668.207 401.649 668.207 401.649Z" fill="#8B3A3A"/>
<path d="M661.916 399.52C661.916 399.52 656.566 397.303 649.935 402.842C643.304 408.381 641.999 416.814 641.999 416.814C641.999 416.814 647.276 411.229 650.709 409.989C654.142 408.749 659.257 407.906 659.257 407.906C659.257 407.906 658.792 411.62 660.663 416.431C662.534 421.242 666.649 429.859 666.649 429.859C666.649 429.859 668.723 418.739 667.529 413.951C666.335 409.163 667.151 405.122 667.151 405.122C667.151 405.122 671.801 407.993 673.718 411.449C675.635 414.905 679.211 419.435 679.211 419.435C679.211 419.435 683.925 410.44 674.345 402.993C664.764 395.547 661.916 399.52 661.916 399.52Z" fill="#8B3A3A"/>
<path d="M667.179 402.62C667.179 402.62 672.37 400.053 672.568 391.415C672.766 382.777 667.279 376.242 667.279 376.242C667.279 376.242 668.008 383.891 666.68 387.291C665.352 390.691 662.618 395.096 662.618 395.096C662.618 395.096 660.129 392.3 655.277 390.54C650.424 388.78 641.229 386.202 641.229 386.202C641.229 386.202 648.232 395.085 652.621 397.34C657.01 399.595 659.515 402.87 659.515 402.87C659.515 402.87 654.293 404.479 650.429 403.645C646.565 402.812 640.802 402.52 640.802 402.52C640.802 402.52 644.51 412.202 656.38 409.685C671.297 406.523 667.816 402.439 667.179 402.62Z" fill="#8B3A3A"/>
<path d="M633.009 399.45C633.009 399.45 631.94 402.679 635.468 406.326C638.997 409.973 643.992 410.376 643.992 410.376C643.992 410.376 640.494 407.524 639.621 405.566C638.748 403.608 638.035 400.648 638.035 400.648C638.035 400.648 640.231 400.762 642.969 399.46C645.707 398.158 650.579 395.379 650.579 395.379C650.579 395.379 643.976 394.64 641.223 395.544C638.469 396.448 636.067 396.143 636.067 396.143C636.067 396.143 637.55 393.296 639.492 392.026C641.435 390.755 643.935 388.467 643.935 388.467C643.935 388.467 638.464 386.09 634.512 392.021C630.56 397.951 633.009 399.45 633.009 399.45Z" fill="#8B3A3A"/>
<path d="M629.112 402.701C629.112 402.701 625.349 401.142 620.684 405.038C616.02 408.934 615.102 414.866 615.102 414.866C615.102 414.866 618.813 410.937 621.228 410.065C623.643 409.193 627.241 408.6 627.241 408.6C627.241 408.6 626.914 411.213 628.23 414.597C629.546 417.981 632.441 424.042 632.441 424.042C632.441 424.042 633.9 416.22 633.06 412.853C632.221 409.485 632.794 406.642 632.794 406.642C632.794 406.642 636.065 408.661 637.413 411.093C638.761 413.524 641.277 416.71 641.277 416.71C641.277 416.71 644.593 410.383 637.854 405.145C631.115 399.907 629.112 402.701 629.112 402.701Z" fill="#8B3A3A"/>
<path d="M632.286 400.132C632.286 400.132 635.938 398.326 636.077 392.25C636.216 386.174 632.356 381.578 632.356 381.578C632.356 381.578 632.869 386.958 631.934 389.35C631 391.742 629.077 394.84 629.077 394.84C629.077 394.84 627.326 392.873 623.913 391.635C620.499 390.397 614.032 388.584 614.032 388.584C614.032 388.584 618.958 394.832 622.045 396.418C625.132 398.004 626.894 400.308 626.894 400.308C626.894 400.308 623.22 401.44 620.503 400.853C617.786 400.267 613.731 400.062 613.731 400.062C613.731 400.062 616.309 406.724 624.689 405.102C633.07 403.48 632.286 400.132 632.286 400.132Z" fill="#8B3A3A"/>
<path d="M664.641 197.137C664.641 197.137 663.572 200.366 667.1 204.013C670.628 207.66 675.624 208.063 675.624 208.063C675.624 208.063 672.127 205.211 671.253 203.253C670.38 201.295 669.667 198.335 669.667 198.335C669.667 198.335 671.863 198.449 674.601 197.147C677.339 195.845 682.211 193.066 682.211 193.066C682.211 193.066 675.609 192.327 672.855 193.231C670.101 194.135 667.699 193.83 667.699 193.83C667.699 193.83 669.182 190.983 671.124 189.713C673.067 188.442 675.567 186.154 675.567 186.154C675.567 186.154 670.096 183.777 666.144 189.708C662.193 195.639 664.641 197.137 664.641 197.137Z" fill="#8B3A3A"/>
<path d="M660.744 200.389C660.744 200.389 656.981 198.83 652.316 202.726C647.652 206.622 646.734 212.554 646.734 212.554C646.734 212.554 650.445 208.625 652.86 207.753C655.275 206.881 658.873 206.288 658.873 206.288C658.873 206.288 658.546 208.901 659.862 212.285C661.178 215.669 664.073 221.73 664.073 221.73C664.073 221.73 665.532 213.908 664.692 210.541C663.853 207.173 664.426 204.331 664.426 204.331C664.426 204.331 667.697 206.35 669.045 208.782C670.393 211.213 672.909 214.399 672.909 214.399C672.909 214.399 676.225 208.072 669.486 202.834C662.748 197.595 660.744 200.389 660.744 200.389Z" fill="#8B3A3A"/>
<path d="M663.919 197.823C663.919 197.823 667.57 196.018 667.71 189.942C667.849 183.866 663.989 179.27 663.989 179.27C663.989 179.27 664.501 184.65 663.567 187.042C662.633 189.434 660.71 192.532 660.71 192.532C660.71 192.532 658.96 190.565 655.546 189.327C652.133 188.089 645.665 186.276 645.665 186.276C645.665 186.276 650.591 192.524 653.678 194.11C656.765 195.696 658.527 198 658.527 198C658.527 198 654.854 199.132 652.136 198.546C649.418 197.96 645.364 197.755 645.364 197.755C645.364 197.755 647.942 204.417 656.322 202.795C664.702 201.17 663.919 197.823 663.919 197.823Z" fill="#8B3A3A"/>
<path d="M691.175 282.969C691.175 282.969 690.106 286.198 693.634 289.845C697.163 293.492 702.158 293.895 702.158 293.895C702.158 293.895 698.661 291.043 697.787 289.085C696.914 287.127 696.201 284.167 696.201 284.167C696.201 284.167 698.397 284.281 701.135 282.979C703.873 281.677 708.745 278.898 708.745 278.898C708.745 278.898 702.143 278.159 699.389 279.063C696.635 279.967 694.233 279.662 694.233 279.662C694.233 279.662 695.716 276.816 697.658 275.545C699.6 274.274 702.101 271.986 702.101 271.986C702.101 271.986 696.63 269.609 692.678 275.54C688.726 281.47 691.175 282.969 691.175 282.969Z" fill="#8B3A3A"/>
<path d="M687.278 286.221C687.278 286.221 683.515 284.662 678.85 288.558C674.186 292.454 673.268 298.386 673.268 298.386C673.268 298.386 676.979 294.457 679.394 293.585C681.809 292.713 685.407 292.12 685.407 292.12C685.407 292.12 685.08 294.733 686.395 298.117C687.711 301.501 690.606 307.562 690.606 307.562C690.606 307.562 692.065 299.74 691.225 296.373C690.386 293.005 690.959 290.162 690.959 290.162C690.959 290.162 694.229 292.181 695.578 294.613C696.926 297.044 699.442 300.23 699.442 300.23C699.442 300.23 702.758 293.903 696.019 288.665C689.282 283.427 687.278 286.221 687.278 286.221Z" fill="#8B3A3A"/>
<path d="M690.452 283.652C690.452 283.652 694.103 281.846 694.243 275.77C694.382 269.694 690.522 265.098 690.522 265.098C690.522 265.098 691.035 270.478 690.101 272.87C689.167 275.262 687.244 278.36 687.244 278.36C687.244 278.36 685.494 276.393 682.08 275.155C678.667 273.917 672.199 272.104 672.199 272.104C672.199 272.104 677.125 278.352 680.212 279.938C683.299 281.524 685.061 283.828 685.061 283.828C685.061 283.828 681.387 284.96 678.67 284.374C675.953 283.788 671.898 283.583 671.898 283.583C671.898 283.583 674.476 290.245 682.856 288.623C691.236 287 690.452 283.652 690.452 283.652Z" fill="#8B3A3A"/>
<g opacity="0.3">
<path d="M639.11 90.5685C646.96 61.8766 630.064 32.2537 601.372 24.404C572.68 16.5543 543.057 33.4503 535.207 62.1423C527.357 90.8343 544.253 120.457 572.945 128.307C601.637 136.157 631.26 119.261 639.11 90.5685Z" stroke="#572127" stroke-width="2" stroke-miterlimit="10" stroke-linecap="round" stroke-linejoin="round"/>
<path d="M605.012 118.178C628.093 108.298 638.795 81.5768 628.915 58.4951C619.035 35.4133 592.315 24.7112 569.233 34.5912C546.151 44.4711 535.449 71.1919 545.329 94.2737C555.209 117.355 581.93 128.058 605.012 118.178Z" stroke="#572127" stroke-width="2" stroke-miterlimit="10" stroke-linecap="round" stroke-linejoin="round"/>
<path d="M566.42 76.3785H587.135L601.931 48.5625" stroke="#572127" stroke-miterlimit="10" stroke-linecap="round" stroke-linejoin="round"/>
</g>
<path d="M6.76318 429.859H698.699" stroke="#263238" stroke-miterlimit="10"/>
</svg>
