<svg width="463" height="451" viewBox="0 0 463 451" fill="none" xmlns="http://www.w3.org/2000/svg">
<path d="M165.239 422.388C268.882 441.498 372.019 355.299 419.464 272.655C450.992 217.736 463.552 153.279 445.154 100.83C431.673 62.3967 397.764 25.1577 347.342 23.5247C291.152 21.7047 245.914 76.7067 188.195 75.5927C130.561 74.4797 62.3316 98.1457 29.2846 141.035C-3.75143 183.91 -10.4984 262.123 17.6026 322.802C33.6246 357.398 61.9876 387.028 98.8606 405.01C119.125 414.892 141.02 417.698 163.972 422.15C164.394 422.231 164.816 422.31 165.239 422.388Z" fill="#8B3A3A"/>
<path opacity="0.8" d="M165.239 422.388C268.882 441.498 372.019 355.299 419.464 272.655C450.992 217.736 463.552 153.279 445.154 100.83C431.673 62.3967 397.764 25.1577 347.342 23.5247C291.152 21.7047 245.914 76.7067 188.195 75.5927C130.561 74.4797 62.3316 98.1457 29.2846 141.035C-3.75143 183.91 -10.4984 262.123 17.6026 322.802C33.6246 357.398 61.9876 387.028 98.8606 405.01C119.125 414.892 141.02 417.698 163.972 422.15C164.394 422.231 164.816 422.31 165.239 422.388Z" fill="white"/>
<path d="M19.7905 381.58L253.633 289.207L461.738 395.231" stroke="#263238" stroke-miterlimit="10" stroke-linecap="round"/>
<path d="M253.633 289.206V2.66406" stroke="#263238" stroke-miterlimit="10" stroke-linecap="round"/>
<path d="M134.586 141.363L19.4697 190.111V49.748L134.586 1V141.363Z" stroke="#263238" stroke-miterlimit="10"/>
<path d="M38.8177 81.0735C38.8177 81.0735 42.0237 80.0125 43.1337 80.1365C44.2437 80.2605 43.7507 81.9535 45.7237 81.2665C47.6967 80.5795 49.5467 79.2025 50.7797 79.8675C52.0127 80.5325 52.5067 82.2545 53.2457 82.2375C53.9857 82.2215 56.0817 80.7395 57.9317 78.0265C59.7817 75.3135 61.5077 72.3555 61.5077 72.3555L61.2607 78.6955C61.2607 78.6955 60.2737 77.7775 58.0547 79.9045C55.8347 82.0325 53.9857 84.4485 53.6157 85.7925C53.2457 87.1365 52.1357 90.2795 49.2997 92.9645C46.4637 95.6505 42.2707 96.0895 40.1747 96.6805C38.0787 97.2715 37.0917 98.4315 35.1187 96.1495C33.1457 93.8675 31.9127 89.1935 33.6387 85.4935C35.3647 81.7935 38.8177 81.0735 38.8177 81.0735Z" fill="#D9D9D9"/>
<path d="M113.095 49.6222C113.095 49.6222 109.889 51.2772 108.779 52.3402C107.669 53.4042 108.162 54.6802 106.189 55.6642C104.216 56.6482 102.366 56.8372 101.133 58.5472C99.8998 60.2572 99.4068 62.3962 98.6668 63.0062C97.9268 63.6162 95.8308 63.9102 93.9808 62.7632C92.1308 61.6162 90.4048 60.1202 90.4048 60.1202L90.6518 66.2512C90.6518 66.2512 91.6378 64.4972 93.8578 64.7452C96.0778 64.9932 97.9268 65.8422 98.2968 66.8742C98.6668 67.9052 99.7768 70.1072 102.613 70.3912C105.449 70.6752 109.642 67.5632 111.738 66.3782C113.834 65.1932 114.821 65.5182 116.794 61.5652C118.767 57.6122 120 51.8932 118.274 49.6552C116.548 47.4182 113.095 49.6222 113.095 49.6222Z" fill="#D9D9D9"/>
<path d="M122.869 41.6221C122.869 41.6221 122.499 33.4651 119.169 31.3121C115.839 29.1591 111.647 31.3801 109.427 33.5081C107.207 35.6361 105.358 40.8731 102.275 42.0301C99.1918 43.1871 97.3418 41.4461 94.3828 44.6301C91.4228 47.8131 90.4368 54.3181 88.7098 55.3461C87.0258 56.3491 80.8858 55.8511 76.4648 57.9831C72.0438 59.5951 65.9038 65.2931 64.2198 65.7171C62.4938 66.1511 61.5068 60.4821 58.5468 59.8051C55.5868 59.1281 53.7378 62.4361 50.6548 63.8901C47.5718 65.3441 45.7218 61.6741 43.5028 61.4261C41.2828 61.1781 37.0898 62.5081 33.7608 67.4811C30.4318 72.4541 30.0618 80.9241 30.0618 80.9241C30.0618 80.9241 29.3218 86.7301 29.5688 89.2981C29.8158 91.8661 31.9118 95.2831 31.9118 97.6591C31.9118 100.034 32.4048 99.3801 32.7748 98.0361C33.1448 96.6921 32.5278 94.4291 32.5278 93.6871C32.5278 92.9451 32.8978 93.9761 33.5148 95.1991C34.1318 96.4221 36.2278 97.7621 37.4608 97.0911C38.6938 96.4201 35.1178 94.5201 35.1178 92.8871C35.1178 91.2541 38.8178 94.1411 40.1738 93.8641C41.5298 93.5861 36.7208 89.9821 36.7208 89.9821C36.7208 89.9821 42.1468 89.7631 42.6398 88.9601C43.1328 88.1571 37.9538 87.0851 37.9538 87.0851C37.9538 87.0851 42.1468 85.7551 43.5028 84.8841C44.8588 84.0131 37.8298 84.4651 37.8298 84.4651C37.8298 84.4651 38.5698 84.1521 40.1728 83.4731C41.7758 82.7941 43.3788 81.5211 41.7758 81.7551C40.1728 81.9891 36.9668 82.6041 36.9668 82.6041C36.9668 82.6041 40.7898 80.9851 40.9128 80.3391C41.0358 79.6931 36.9668 81.4161 34.8698 80.6711C32.7738 79.9261 32.8968 74.8261 35.1168 69.5811C37.3368 64.3361 41.1588 64.4981 42.7628 64.7101C44.3658 64.9221 45.9688 67.9541 49.2988 67.5841C52.6288 67.2131 55.0948 63.6451 56.6978 63.5601C58.3008 63.4751 61.1368 66.7281 61.2608 68.6051C61.3838 70.4831 61.0138 73.9051 60.5208 76.9351C60.0278 79.9651 60.6438 81.9301 61.2608 84.6391C61.8778 87.3481 67.4268 96.2801 68.6598 99.3211C69.8928 102.362 69.2768 108.71 69.1528 112.919C69.0298 117.128 72.6058 117.544 72.6058 117.544C69.6458 119.985 69.0298 123.364 69.0298 125.887C69.0298 128.411 71.0028 133.068 71.9898 138.737C72.9758 144.406 74.0858 149.726 74.0858 151.953C74.0858 154.18 75.1958 152.968 75.1958 152.968L75.3328 152.846C76.6728 151.651 78.1588 151.022 79.4988 151.082L79.6358 151.088C79.6358 151.088 80.7458 151.36 80.7458 149.133C80.7458 146.906 81.1528 142.385 82.1388 135.88C83.1258 129.375 85.0618 121.622 85.0618 119.098C85.0618 116.574 83.2848 114.209 80.3258 114.275C80.3258 114.275 83.9018 110.831 83.7788 106.726C83.6558 102.621 83.0388 96.7961 84.2718 92.7101C85.5048 88.6251 91.0538 74.9921 91.6708 71.7621C92.2878 68.5321 92.9038 66.0441 92.4108 63.4321C91.9178 60.8201 91.5478 57.7111 91.6708 55.7291C91.7938 53.7471 94.6308 48.0921 96.2338 46.8191C97.8368 45.5461 100.303 47.0261 103.633 44.5761C106.963 42.1271 108.566 37.7361 110.169 36.1671C111.772 34.5971 115.595 31.1971 117.815 34.5621C120.035 37.9271 120.158 42.9231 118.062 45.4441C115.966 47.9651 111.896 49.6881 112.02 50.2301C112.143 50.7721 115.966 49.1531 115.966 49.1531C115.966 49.1531 112.76 51.2531 111.157 52.3771C109.554 53.5011 111.157 53.4161 112.76 52.7371C114.363 52.0581 115.103 51.7451 115.103 51.7451C115.103 51.7451 108.074 57.2451 109.43 56.9681C110.786 56.6901 114.979 54.4701 114.979 54.4701C114.979 54.4701 109.8 59.9291 110.293 60.3141C110.786 60.6991 116.212 56.3231 116.212 56.3231C116.212 56.3231 111.403 64.0011 112.759 63.1301C114.115 62.2591 117.815 56.2381 117.815 57.8711C117.815 59.5041 114.239 64.4331 115.472 64.0591C116.705 63.6851 118.801 60.5711 119.418 58.8251C120.035 57.0791 120.404 55.7351 120.404 56.4771C120.404 57.2191 119.787 60.0041 120.157 61.0351C120.527 62.0661 121.02 62.3031 121.02 59.9271C121.02 57.5521 123.116 52.3591 123.363 49.5821C123.609 46.8021 122.869 41.6221 122.869 41.6221Z" fill="#572127"/>
<path d="M121.318 55.0478C121.935 54.1928 122.798 49.8188 122.675 47.4958C122.593 45.9548 121.97 43.7998 121.559 42.5198C121.346 35.2678 119.927 31.9438 116.922 31.5368C113.322 31.0488 111.354 32.9538 108.539 36.1478C107.646 37.1618 106.898 38.1928 106.175 39.1898C104.722 41.1938 103.462 42.9308 101.604 43.6208C100.523 44.0248 99.5897 44.1978 98.7657 44.3498C97.3207 44.6178 96.0737 44.8488 94.6537 46.1538C92.4187 48.2088 91.2727 52.6038 91.2247 52.7898C91.1767 52.9778 90.1497 55.2048 89.5487 56.6378C88.7767 57.9668 87.9547 59.2418 87.2807 59.9598C85.4307 61.9308 78.5257 66.4888 76.7987 67.2198C76.7987 67.2198 69.2767 70.7018 65.5767 68.5578C64.2587 67.7938 63.2268 66.9868 62.4388 66.2628C62.0778 65.7568 61.7817 65.3458 61.7567 65.2688C61.7087 65.1228 60.5628 61.6988 58.3278 61.5368C56.9078 61.4348 55.6607 62.2598 54.2157 63.2158C53.3917 63.7608 52.4597 64.3778 51.3777 64.8898C49.5197 65.7738 48.2597 65.1038 46.8067 64.3298C46.0837 63.9448 45.3357 63.5468 44.4427 63.2898C41.6287 62.4788 39.6597 62.2418 36.0597 65.7788C33.0547 68.7308 31.6357 73.2568 31.4227 80.6888C31.0117 82.3168 30.3887 84.9998 30.3067 86.6108C30.1837 89.0388 31.0467 92.6808 31.6637 93.0138C32.2807 93.3468 31.9107 90.6828 32.5267 91.4608C33.1437 92.2388 33.5137 94.4578 34.0067 93.6548C34.4997 92.8518 33.3897 90.3528 34.2537 90.7298C35.1167 91.1068 36.3497 92.3658 36.1037 91.1338C35.8567 89.9018 34.3777 89.1928 35.6107 88.9668C36.8437 88.7418 38.3237 88.7088 37.5837 88.1308C36.8437 87.5538 35.7337 86.6868 36.3507 86.2778C36.9677 85.8678 38.5707 86.2288 37.8307 85.5028C37.0907 84.7768 36.1047 84.1558 36.1047 84.1558C36.1047 84.1558 38.4477 83.4608 37.5847 83.3808C36.7217 83.3008 36.7217 82.1128 35.7347 82.2338C34.9497 82.3298 33.0777 81.4788 32.2177 80.2828C32.4257 73.3298 33.7067 69.1408 36.3947 66.5008C39.7087 63.2448 41.4597 63.5358 44.0427 64.2788C44.8897 64.5228 45.6147 64.9088 46.3167 65.2828C47.8277 66.0878 49.2548 66.8498 51.4128 65.8258C52.5548 65.2848 53.5188 64.6468 54.3708 64.0838C55.7448 63.1748 56.8307 62.4568 58.0287 62.5438C59.9327 62.6818 64.4067 72.3948 64.7147 73.3758C65.5777 76.1278 66.9348 82.2338 69.5238 86.6308C72.1138 91.0268 75.1968 93.8788 75.6898 97.6778C76.1828 101.477 75.6897 111.039 75.5667 112.725C75.4437 114.41 75.9367 116.725 75.1967 118.375C74.4567 120.024 72.1137 119.977 71.4967 124.098C70.8797 128.219 72.4837 131.697 73.2237 135.541C73.9127 139.12 75.4567 150.956 75.6657 152.569C76.8577 151.605 78.1417 151.082 79.3247 151.083C79.5087 147.967 80.1417 138.652 81.3627 133.727C82.8427 127.756 83.9527 121.347 82.9657 119.241C81.9787 117.135 79.8827 117.429 79.0197 116.161C78.1567 114.893 77.6637 105.304 77.6637 102.335C77.6637 99.3658 78.0337 94.1608 79.1437 91.9098C80.2537 89.6588 82.2268 84.0718 84.9398 75.6488C87.6528 67.2258 90.2247 58.0368 90.2437 57.9628C90.2547 57.9218 93.0527 48.6568 94.9567 46.9058C96.1547 45.8038 97.2397 45.6028 98.6147 45.3478C99.4657 45.1898 100.431 45.0108 101.573 44.5848C103.731 43.7818 105.158 41.8108 106.669 39.7268C107.371 38.7588 108.097 37.7568 108.943 36.7958C111.526 33.8638 113.277 32.0908 116.591 32.5398C119.279 32.9038 120.56 36.0078 120.768 42.7848C119.909 44.7078 118.036 47.1458 117.251 47.7138C116.264 48.4288 116.264 49.6158 115.401 50.4268C114.538 51.2378 116.881 49.9488 116.881 49.9488C116.881 49.9488 115.895 51.4058 115.155 52.7588C114.415 54.1118 116.018 52.3928 116.635 52.2808C117.252 52.1678 116.142 53.9738 115.402 55.1778C114.662 56.3818 116.142 55.1618 117.375 54.3418C118.608 53.5228 117.128 55.4858 116.882 56.9258C116.635 58.3668 117.868 56.0628 118.732 54.9548C119.595 53.8468 118.485 57.2858 118.979 57.6708C119.472 58.0558 119.842 55.5238 120.459 54.2238C121.071 52.9258 120.701 55.9028 121.318 55.0478Z" fill="#8B3A3A"/>
<path d="M102.45 28.0586L97.5047 30.1516L81.1887 57.8956" stroke="#263238" stroke-miterlimit="10"/>
<path d="M104.428 102.52L99.2358 104.719L78.7168 103.884" stroke="#263238" stroke-miterlimit="10"/>
<path d="M53.7478 139.754L58.9388 137.555L75.5028 141.851" stroke="#263238" stroke-miterlimit="10"/>
<path d="M33.9697 108.544L42.3757 104.984" stroke="#263238" stroke-miterlimit="10"/>
<path d="M33.9697 111.52L42.3757 107.961" stroke="#263238" stroke-miterlimit="10"/>
<path d="M105.911 101.591L114.316 98.0312" stroke="#263238" stroke-miterlimit="10"/>
<path d="M105.911 104.865L114.316 101.305" stroke="#263238" stroke-miterlimit="10"/>
<path d="M41.8806 144.481L50.2866 140.922" stroke="#263238" stroke-miterlimit="10"/>
<path d="M41.8806 147.754L50.2866 144.195" stroke="#263238" stroke-miterlimit="10"/>
<path d="M104.428 27.2192L112.833 23.6602" stroke="#263238" stroke-miterlimit="10"/>
<path d="M104.428 30.4926L112.833 26.9336" stroke="#263238" stroke-miterlimit="10"/>
<path d="M44.1057 107.528L48.8027 105.539L63.3887 84.1836" stroke="#263238" stroke-miterlimit="10"/>
<path d="M118.025 75.9264L114.069 77.6014L106.9 66.6484" stroke="#263238" stroke-miterlimit="10"/>
<path d="M142.549 425.723L136.925 434.325C136.317 435.255 136.572 436.501 137.496 437.117L139.065 438.163C139.922 438.735 141.068 438.576 141.732 437.788C148.264 430.032 180.367 392.062 186.044 388.159C192.371 383.81 252.078 375.111 252.078 375.111C251.851 373.294 250.333 371.918 248.503 371.877C236.865 371.616 197.162 370.703 195.139 370.366C192.767 369.971 189.999 369.971 190.394 367.203C190.681 365.196 194.502 356.952 196.581 352.571C197.245 351.172 196.398 349.531 194.874 349.253C194.059 349.105 193.23 349.391 192.685 350.016C189.054 354.176 175.132 369.996 171.018 372.739C166.901 375.484 116.096 390.397 102.722 394.296C101.26 394.722 100.784 396.546 101.841 397.642C102.321 398.14 103.022 398.358 103.7 398.22C111.395 396.657 157.378 387.303 159.552 386.579C161.924 385.788 169.042 386.184 160.738 399.232C152.435 412.28 142.549 425.723 142.549 425.723Z" fill="#263238"/>
<path d="M175.458 389.981C170.304 389.981 166.125 385.803 166.125 380.648V303.868C166.125 298.713 170.304 294.535 175.458 294.535C180.612 294.535 184.791 298.713 184.791 303.868V380.648C184.791 385.803 180.613 389.981 175.458 389.981Z" fill="#263238"/>
<path d="M81.2266 253.508L89.6896 281.269" stroke="#263238" stroke-width="4" stroke-miterlimit="10" stroke-linecap="round"/>
<path d="M57.1205 261.702C56.6635 263.074 74.4765 269.898 74.4765 269.898L103.776 254.14C103.776 254.14 99.5455 245.793 84.1185 243.382C68.6915 240.971 59.0495 255.917 57.1205 261.702Z" fill="#8C8C8C" stroke="#263238" stroke-miterlimit="10" stroke-linecap="round" stroke-linejoin="round"/>
<path d="M74.4766 269.899C74.4766 269.899 76.8866 255.918 86.0466 250.133C95.2066 244.348 103.777 254.141 103.777 254.141L74.4766 269.899Z" fill="#5E5E5E" stroke="#263238" stroke-miterlimit="10" stroke-linecap="round" stroke-linejoin="round"/>
<path d="M151.912 317.29C151.912 317.29 136.238 388.27 132.918 396.539C127.202 410.78 111.086 415.086 97.3976 410.389C77.6846 403.625 73.8846 383.896 73.9596 365.201C74.0286 348.229 77.8396 332.229 81.8576 315.872C83.7906 308.005 85.4976 300.075 87.2686 292.171C87.5646 290.85 88.4426 281.909 89.6906 281.267L157.314 246.454C157.314 246.454 194.485 143.726 206.929 120.148C219.373 96.5695 240.604 90.3545 258.671 93.2945C274.2 95.8205 287.489 110.324 282.249 143.072C277.009 175.82 228.251 281.052 226.941 286.291C225.63 291.53 151.912 317.29 151.912 317.29Z" fill="#8C8C8C" stroke="#263238" stroke-miterlimit="10" stroke-linecap="round" stroke-linejoin="round"/>
<path d="M151.909 319.258C151.575 319.258 151.236 319.173 150.927 318.993L88.7064 282.97C87.7674 282.427 87.4464 281.225 87.9904 280.286C88.5344 279.347 89.7354 279.026 90.6754 279.57L152.896 315.593C153.835 316.136 154.156 317.338 153.612 318.277C153.246 318.907 152.587 319.258 151.909 319.258Z" fill="#8C8C8C" stroke="#263238" stroke-miterlimit="10" stroke-linecap="round" stroke-linejoin="round"/>
<path d="M224.609 289.292C224.275 289.292 223.936 289.207 223.627 289.027L156.328 248.973C155.389 248.43 155.068 247.228 155.612 246.289C156.156 245.35 157.357 245.029 158.297 245.573L225.596 285.626C226.535 286.169 226.856 287.371 226.312 288.31C225.947 288.941 225.287 289.292 224.609 289.292Z" fill="#8C8C8C" stroke="#263238" stroke-miterlimit="10" stroke-linecap="round" stroke-linejoin="round"/>
<path d="M226.311 288.312L151.911 317.293L138.596 376.446" stroke="#263238" stroke-width="4" stroke-miterlimit="10" stroke-linecap="round"/>
<path d="M209.109 115.793L282.575 140.944" stroke="#263238" stroke-miterlimit="10" stroke-linecap="round" stroke-linejoin="round"/>
<path d="M214.146 123.941L264.937 142.542L270.98 128.681L223.951 111.717C223.951 111.717 216.174 108.782 214.146 123.941Z" fill="#8C8C8C" stroke="#263238" stroke-miterlimit="10" stroke-linecap="round" stroke-linejoin="round"/>
<path d="M264.937 142.541C264.937 142.541 260.771 129.328 270.98 128.68L264.937 142.541Z" fill="#5E5E5E" stroke="#263238" stroke-miterlimit="10" stroke-linecap="round" stroke-linejoin="round"/>
<path d="M170.219 72.3958C170.219 72.3958 166.685 64.2398 155.537 60.4328C144.39 56.6268 127.262 66.6858 120.193 75.6578C113.124 84.6298 109.59 98.7678 111.493 108.284C113.396 117.8 123.184 126.228 124.543 129.491C125.902 132.753 126.174 133.841 122.64 135.744C119.105 137.647 118.834 136.56 119.105 137.647C119.377 138.734 123.727 141.181 127.261 141.453C130.796 141.725 134.058 140.365 134.058 140.365L133.514 144.171C133.514 144.171 136.777 145.53 143.03 143.899C149.283 142.268 152.002 139.549 152.002 139.549C152.002 139.549 156.896 141.724 159.615 141.724C162.334 141.724 166.684 140.636 166.684 140.636L166.956 137.917C166.956 137.917 169.675 138.189 172.665 137.917C175.656 137.645 181.365 133.839 181.365 133.839L178.646 129.761C178.646 129.761 180.821 130.849 184.084 129.489C187.347 128.13 189.793 124.595 189.793 124.595C189.793 124.595 184.355 125.411 184.355 121.061C184.355 116.711 190.88 106.379 187.074 90.0668C183.269 73.7548 177.016 67.7738 170.219 72.3958Z" fill="#263238" stroke="#263238" stroke-miterlimit="10"/>
<path d="M121.223 206.777L119.931 224.222C119.931 224.222 122.946 232.837 128.546 231.76C134.146 230.683 135.869 225.514 136.946 220.991C138.023 216.468 138.669 209.792 138.669 209.792L121.223 206.777Z" fill="white" stroke="#263238" stroke-miterlimit="10" stroke-linecap="round" stroke-linejoin="round"/>
<path d="M89.6896 268.492C89.6896 268.492 81.5026 272.094 77.5726 278.316C73.6426 284.538 76.2626 295.672 77.2456 304.842C78.2276 314.011 84.7776 366.736 84.7776 373.613C84.7776 380.49 82.4856 386.057 81.1756 387.04C79.8656 388.022 69.0586 394.572 62.5096 397.192C55.9596 399.812 52.0306 398.174 51.0476 400.794C50.0656 403.414 52.0296 405.051 53.9946 405.706C55.9596 406.361 67.4216 408.981 72.0056 407.671C76.5896 406.361 79.2106 404.724 87.3966 403.086C95.5836 401.449 99.1856 403.413 99.5136 395.226C99.8416 387.039 98.8586 378.197 99.1866 369.028C99.5136 359.858 103.444 336.28 103.772 321.871C104.099 307.462 104.099 294.69 104.099 294.69L125.385 282.246C125.385 282.246 122.11 273.732 113.596 269.474C105.082 265.217 89.6896 268.492 89.6896 268.492Z" fill="white" stroke="#263238" stroke-miterlimit="10" stroke-linecap="round"/>
<path d="M58.0615 399.612C58.0615 399.612 54.2135 399.116 53.9655 401.722C53.7175 404.328 54.4615 405.321 56.5715 405.818" stroke="#263238" stroke-miterlimit="10" stroke-linecap="round"/>
<path d="M116.468 276.553C116.468 276.553 102.21 285.327 101.113 289.714C100.016 294.101 96.4517 329.197 96.4517 337.697C96.4517 346.197 92.0647 388.696 90.9677 392.26C89.8707 395.824 86.5807 397.195 80.5487 399.115C74.5167 401.034 67.3877 402.679 65.4687 402.679C63.5497 402.679 58.3397 401.308 57.7917 403.502C57.7137 403.815 57.6797 404.129 57.6797 404.436C57.6797 406.277 58.9087 407.898 60.6007 408.623L60.8077 408.712C60.8077 408.712 69.3077 413.373 71.2267 413.922C73.1457 414.47 75.6137 414.745 76.7107 414.745C77.8077 414.745 81.6457 414.471 87.1297 414.471C92.6137 414.471 100.291 414.471 103.307 412.552C106.323 410.633 105.775 406.52 105.775 402.681C105.775 398.842 107.42 382.391 111.533 371.972C115.646 361.553 124.694 345.376 126.339 333.037C127.984 320.699 127.71 304.796 127.71 304.796L137.581 300.135C137.581 300.135 137.307 291.909 131.001 283.684C124.694 275.456 116.468 276.553 116.468 276.553Z" fill="white" stroke="#263238" stroke-miterlimit="10" stroke-linecap="round"/>
<path d="M60.8076 408.712C60.8076 408.712 61.0816 405.97 65.1946 405.422" stroke="#263238" stroke-miterlimit="10" stroke-linecap="round"/>
<path d="M63.8237 410.082C63.8237 410.082 64.0977 407.614 67.6627 407.34" stroke="#263238" stroke-miterlimit="10" stroke-linecap="round"/>
<path d="M67.3887 412C67.3887 412 68.2107 409.258 70.9527 409.258" stroke="#263238" stroke-miterlimit="10" stroke-linecap="round"/>
<path d="M71.2266 413.918C71.2266 413.918 70.1296 411.45 74.7906 411.724" stroke="#263238" stroke-miterlimit="10" stroke-linecap="round"/>
<path d="M145.033 135.864C145.033 135.864 147.653 142.741 146.998 145.033C146.343 147.325 136.191 149.29 131.606 151.255C127.021 153.22 120.799 182.038 117.852 188.588C114.905 195.138 112.285 204.307 112.285 204.307C112.285 204.307 118.507 209.219 123.419 210.529C128.331 211.839 130.296 212.166 130.296 212.166C130.296 212.166 136.518 223.3 137.828 227.23C139.138 231.16 140.448 235.744 139.138 237.054C137.828 238.364 128.986 245.896 127.021 247.206C125.056 248.516 97.2205 262.925 91.9815 266.2C86.7415 269.475 86.7415 269.475 86.7415 269.475C86.7415 269.475 103.442 270.785 115.232 277.334C127.021 283.884 135.536 302.55 135.536 302.55C135.536 302.55 182.365 293.708 194.81 283.556C207.254 273.404 207.254 267.509 207.254 255.72C207.254 243.931 204.962 211.183 204.962 203.323C204.962 195.463 198.085 154.529 194.155 150.599C190.225 146.669 167.629 146.342 166.974 144.377C166.319 142.412 165.009 135.863 165.009 135.863L145.033 135.864Z" fill="#8B3A3A" stroke="#263238" stroke-miterlimit="10"/>
<path d="M149.5 217.035C153.609 220.701 160.404 226.177 167.335 229.209" stroke="#263238" stroke-miterlimit="10" stroke-linecap="round"/>
<path d="M145.556 213.309C145.556 213.309 146.052 213.821 146.942 214.674" stroke="#263238" stroke-miterlimit="10" stroke-linecap="round"/>
<path d="M154.198 226.098C154.198 226.098 163.878 232.666 169.754 234.74" stroke="#263238" stroke-miterlimit="10" stroke-linecap="round"/>
<path d="M202.173 262.238C202.504 263.212 202.769 264.297 202.941 265.507" stroke="#263238" stroke-miterlimit="10" stroke-linecap="round"/>
<path d="M194.299 254.102C194.299 254.102 198.409 255.08 201.033 259.688" stroke="#263238" stroke-miterlimit="10" stroke-linecap="round"/>
<path d="M163.187 242.695C164.204 242.994 165.145 243.234 165.953 243.386" stroke="#263238" stroke-miterlimit="10" stroke-linecap="round"/>
<path d="M148.667 237.16C148.667 237.16 154.193 239.598 159.451 241.465" stroke="#263238" stroke-miterlimit="10" stroke-linecap="round"/>
<path d="M155.186 162.716C168.564 161.563 174.302 151.967 176.528 146.39C171.467 145.748 167.253 145.209 166.976 144.377C166.321 142.412 165.011 135.863 165.011 135.863H145.035C145.035 135.863 147.655 142.74 147 145.032C146.736 145.954 144.927 146.823 142.57 147.66C141.41 152.124 139.71 164.05 155.186 162.716Z" fill="white" stroke="#263238" stroke-miterlimit="10"/>
<path d="M155.852 145.07C159.892 144.234 163.212 141.68 165.569 138.551C165.248 137.045 165.011 135.863 165.011 135.863H145.035C145.035 135.863 147.411 142.108 147.064 144.676C150.12 145.43 153.227 145.613 155.852 145.07Z" fill="#263238" stroke="#263238" stroke-miterlimit="10"/>
<path d="M164.237 86.2617C164.237 86.2617 155.809 93.0587 145.477 98.7687C135.146 104.478 130.252 107.741 130.252 107.741C130.252 107.741 135.952 126.503 137.321 131.123C139.496 138.464 151.731 143.358 159.615 141.726C167.5 140.095 172.665 131.938 173.209 125.685C173.753 119.432 172.121 102.031 172.121 102.031C172.121 102.031 164.237 97.6807 164.237 86.2617Z" fill="white" stroke="#263238" stroke-miterlimit="10"/>
<path d="M142.467 116.144L147.93 115.234" stroke="#263238" stroke-width="0.5" stroke-miterlimit="10"/>
<path d="M165.779 111.594L160.861 113.598" stroke="#263238" stroke-width="0.5" stroke-miterlimit="10"/>
<path d="M155.614 104.059C155.614 104.059 155.843 111.604 156.3 112.976C156.757 114.348 159.958 115.262 158.358 118.463C156.758 121.664 152.642 122.578 151.042 119.378" stroke="#263238" stroke-miterlimit="10"/>
<path d="M146.646 110.852C147.081 112.523 146.785 114.047 145.986 114.254C145.187 114.462 144.186 113.276 143.752 111.605C143.317 109.934 143.613 108.411 144.412 108.203C145.211 107.995 146.211 109.181 146.646 110.852Z" fill="#263238"/>
<path d="M162.712 108.151C162.902 109.867 162.39 111.332 161.569 111.423C160.748 111.514 159.929 110.196 159.739 108.48C159.549 106.764 160.061 105.299 160.882 105.208C161.703 105.116 162.522 106.434 162.712 108.151Z" fill="#263238"/>
<path d="M138.953 106.381C138.953 106.381 140.312 101.215 145.75 102.303" stroke="#263238" stroke-width="2" stroke-miterlimit="10" stroke-linecap="round"/>
<path d="M156.353 102.032C156.353 102.032 161.791 98.7696 165.053 102.576" stroke="#263238" stroke-width="2" stroke-miterlimit="10" stroke-linecap="round"/>
<path d="M149.283 126.771C149.283 126.771 156.352 129.762 161.79 124.324" stroke="#263238" stroke-miterlimit="10"/>
<path d="M131.34 111.545C131.34 111.545 128.078 107.739 126.718 112.089C125.359 116.439 127.534 118.07 129.165 119.43C130.796 120.789 134.603 121.877 134.603 121.877L131.34 111.545Z" stroke="#263238" stroke-miterlimit="10"/>
<path d="M172.394 106.381C172.394 106.381 175.385 100.672 176.744 106.381C178.103 112.091 173.436 117.619 173.164 118.435L172.394 106.381Z" stroke="#263238" stroke-miterlimit="10"/>
<path d="M184.004 219.371L183.349 232.47C183.349 232.47 160.098 255.394 154.203 258.996C148.308 262.598 142.086 265.546 142.086 265.546C142.086 265.546 135.338 268.08 132.918 269.048C129.687 270.34 122.58 272.063 120.426 273.355C118.272 274.647 113.534 279.601 111.165 282.616C108.796 285.631 105.781 288 106.642 289.077C107.504 290.154 109.442 288.215 109.442 288.215C109.442 288.215 107.073 291.23 108.15 292.307C109.227 293.384 111.165 291.876 111.165 291.876C111.165 291.876 109.873 294.676 111.38 295.107C112.888 295.538 115.257 293.384 115.257 293.384C115.257 293.384 114.826 295.753 118.272 293.815C121.718 291.877 128.179 286.277 128.179 286.277C128.179 286.277 133.779 285.415 137.01 282.831C140.241 280.246 142.394 275.724 142.394 275.724L145.686 273.728L145.688 273.732C145.688 273.732 162.717 268.165 176.471 261.943C190.225 255.721 201.687 246.879 202.014 245.896C202.341 244.914 202.669 220.025 202.669 220.025C202.669 220.025 188.262 219.698 184.004 219.371Z" fill="white" stroke="#263238" stroke-miterlimit="10" stroke-linecap="round" stroke-linejoin="round"/>
<path d="M109.443 288.217C109.443 288.217 115.474 281.971 116.981 280.463C118.488 278.955 119.996 278.094 119.996 278.094" stroke="#263238" stroke-miterlimit="10" stroke-linecap="round" stroke-linejoin="round"/>
<path d="M111.166 291.88C111.166 291.88 116.981 285.634 118.489 284.126C119.997 282.618 123.227 280.465 123.227 280.465" stroke="#263238" stroke-miterlimit="10" stroke-linecap="round" stroke-linejoin="round"/>
<path d="M115.258 293.387C116.766 292.095 122.796 285.203 124.734 284.557C126.672 283.911 127.319 283.48 127.319 283.48" stroke="#263238" stroke-miterlimit="10" stroke-linecap="round" stroke-linejoin="round"/>
<path d="M184.332 172.541L178.11 220.68C178.11 220.68 184.005 223.627 193.174 223.627C202.343 223.627 211.513 218.06 211.513 218.06C211.513 218.06 201.689 160.424 199.724 155.184C197.759 149.944 190.555 149.289 188.917 149.617" fill="#8B3A3A"/>
<path d="M184.332 172.541L178.11 220.68C178.11 220.68 184.005 223.627 193.174 223.627C202.343 223.627 211.513 218.06 211.513 218.06C211.513 218.06 201.689 160.424 199.724 155.184C197.759 149.944 190.555 149.289 188.917 149.617" stroke="#263238" stroke-miterlimit="10"/>
<path d="M129.643 163.371C129.643 163.371 128.661 177.125 127.023 184.657C125.386 192.189 125.713 205.288 130.298 212.165" stroke="#263238" stroke-miterlimit="10"/>
<path d="M89.9936 271.605C89.9936 271.605 84.1786 277.851 83.3166 279.574C82.4556 281.297 80.5166 286.897 80.5166 287.758C80.5166 288.619 80.7316 289.266 82.2396 288.189C83.7476 287.112 84.8246 283.235 85.6856 281.728C86.5476 280.22 89.3466 275.697 89.3466 275.697" stroke="#263238" stroke-miterlimit="10" stroke-linecap="round" stroke-linejoin="round"/>
<path d="M121.008 221.852C121.008 221.852 114.331 233.913 111.531 240.805C109.312 246.268 105.742 255.377 104.356 258.924C102.685 260.355 94.0266 267.786 91.5006 270.312C88.7006 273.112 85.9006 277.85 85.0396 281.727C84.1776 285.604 83.1016 289.696 83.9626 290.988C84.8246 292.28 86.1166 291.419 86.1166 291.419L87.8396 291.204C87.8396 291.204 89.3476 293.573 91.2856 290.773C93.2236 287.973 96.4546 282.804 97.5316 281.727C98.6086 280.65 102.916 277.204 102.916 277.204C102.916 277.204 99.9006 283.45 98.6076 285.173C97.3156 286.896 99.2536 288.188 100.546 286.681C101.838 285.173 106.361 280.435 108.3 276.774C110.239 273.113 110.454 267.513 110.669 266.651C110.797 266.138 111.382 264.483 111.836 263.226C111.836 263.226 119.499 253.083 125.099 247.698C130.699 242.314 132.422 230.899 133.929 227.237" fill="white"/>
<path d="M121.008 221.852C121.008 221.852 114.331 233.913 111.531 240.805C109.312 246.268 105.742 255.377 104.356 258.924C102.685 260.355 94.0266 267.786 91.5006 270.312C88.7006 273.112 85.9006 277.85 85.0396 281.727C84.1776 285.604 83.1016 289.696 83.9626 290.988C84.8246 292.28 86.1166 291.419 86.1166 291.419L87.8396 291.204C87.8396 291.204 89.3476 293.573 91.2856 290.773C93.2236 287.973 96.4546 282.804 97.5316 281.727C98.6086 280.65 102.916 277.204 102.916 277.204C102.916 277.204 99.9006 283.45 98.6076 285.173C97.3156 286.896 99.2536 288.188 100.546 286.681C101.838 285.173 106.361 280.435 108.3 276.774C110.239 273.113 110.454 267.513 110.669 266.651C110.797 266.138 111.382 264.483 111.836 263.226C111.836 263.226 119.499 253.083 125.099 247.698C130.699 242.314 132.422 230.899 133.929 227.237" stroke="#263238" stroke-miterlimit="10" stroke-linecap="round" stroke-linejoin="round"/>
<path d="M87.8396 291.204C87.8396 291.204 91.9316 282.589 93.6546 280.435C95.3776 278.281 97.3156 275.051 97.3156 275.051" stroke="#263238" stroke-miterlimit="10" stroke-linecap="round" stroke-linejoin="round"/>
<path d="M86.1167 291.42C86.1167 291.42 86.3317 284.959 87.8397 281.513C89.3477 278.067 93.4397 273.113 93.4397 273.113" stroke="#263238" stroke-miterlimit="10" stroke-linecap="round" stroke-linejoin="round"/>
<path d="M149.686 290.625L154.989 316.659" stroke="#263238" stroke-width="4" stroke-miterlimit="10" stroke-linecap="round"/>
<path d="M124.134 293.999C123.677 295.371 141.49 302.195 141.49 302.195L170.791 286.437C170.791 286.437 166.56 278.09 151.133 275.679C135.705 273.268 126.063 288.213 124.134 293.999Z" fill="#8C8C8C" stroke="#263238" stroke-miterlimit="10" stroke-linecap="round" stroke-linejoin="round"/>
<path d="M141.49 302.196C141.49 302.196 143.901 288.215 153.061 282.43C162.221 276.645 170.791 286.438 170.791 286.438L141.49 302.196Z" fill="#5E5E5E" stroke="#263238" stroke-miterlimit="10" stroke-linecap="round" stroke-linejoin="round"/>
<path d="M374.313 271.198C371.251 269.497 368.366 268.272 366.702 269.187L345.14 281.04C336.768 285.642 330.539 293.35 327.797 302.501L302.796 385.926L347.333 407.54L414.36 291.173L374.313 271.198Z" fill="white" stroke="#263238" stroke-miterlimit="10" stroke-linecap="round"/>
<path d="M389.23 384.51L347.334 407.541L372.335 324.116C375.078 314.965 381.306 307.257 389.678 302.655L411.239 290.802C413.903 289.338 417.001 291.841 416.128 294.753L389.23 384.51Z" fill="#8C8C8C" stroke="#263238" stroke-miterlimit="10" stroke-linecap="round" stroke-linejoin="round"/>
<path d="M321.356 339.641L357.379 357.325L347.554 386.798L312.187 369.114L321.356 339.641Z" fill="#8C8C8C" stroke="#263238" stroke-miterlimit="10" stroke-linecap="round" stroke-linejoin="round"/>
<path d="M360.565 322.751L359.085 327.487L354.367 325.128L355.748 320.522L350.238 317.973L348.862 322.376L344.143 320.017L345.424 315.747L339.964 313.221L338.639 317.461L333.92 315.102L335.152 310.995L330.526 308.855L327.906 316.06L363.928 333.089L366.556 325.521L360.565 322.751Z" fill="#8C8C8C" stroke="#263238" stroke-miterlimit="10" stroke-linecap="round" stroke-linejoin="round"/>
<path d="M306.947 259.734L294.763 266.557C292.555 267.793 291.961 270.702 293.508 272.705C293.891 273.201 294.382 273.604 294.944 273.883L354.759 303.616C354.759 303.616 360.654 306.891 367.858 304.926C373.295 303.443 390.298 294.126 398.311 289.644C400.97 288.157 402.691 285.428 402.894 282.388L403.225 277.417L394.711 275.452L361.963 297.721C361.963 297.721 358.033 300.341 352.794 297.721C347.554 295.101 301.707 270.868 301.707 270.868C301.707 270.868 299.538 269.093 302.678 267.017C304.863 265.572 311.531 261.698 311.531 261.698L306.947 259.734Z" fill="white" stroke="#263238" stroke-miterlimit="10" stroke-linecap="round"/>
<path d="M402.571 213.887L391.437 234.191L409.775 242.05L424.185 221.747L402.571 213.887Z" fill="white" stroke="#263238" stroke-miterlimit="10" stroke-linecap="round"/>
<path d="M397.816 222.558L418.012 230.445L424.185 221.747L402.571 213.887L397.816 222.558Z" fill="#263238" stroke="#263238" stroke-miterlimit="10" stroke-linecap="round"/>
<path d="M375.335 221.787L430.133 245.363C432.647 246.445 434.006 249.189 433.342 251.845L431.779 258.096C430.667 262.546 427.654 266.283 423.542 268.314L374.728 292.427C370.625 294.454 365.813 294.452 361.711 292.424L304.859 264.304C302.332 263.054 302.21 259.495 304.645 258.075L365.861 222.365C368.749 220.68 372.264 220.466 375.335 221.787Z" fill="white" stroke="#263238" stroke-miterlimit="10" stroke-linecap="round"/>
<path d="M442.642 235.412L368.522 206.466C366.344 205.616 364.911 203.517 364.911 201.179V134.771C364.911 130.775 368.93 128.03 372.652 129.484L446.772 158.43C448.95 159.28 450.383 161.379 450.383 163.717V230.125C450.383 234.121 446.364 236.866 442.642 235.412Z" fill="white" stroke="#263238" stroke-miterlimit="10" stroke-linecap="round"/>
<path d="M444.165 160.029L423.015 151.77L415.292 154.042L400.157 148.823L394.538 140.649L374.983 133.013C371.509 131.656 367.758 134.218 367.758 137.948V199.931C367.758 202.113 369.096 204.072 371.129 204.866L440.31 231.883C443.784 233.24 447.535 230.678 447.535 226.948V164.964C447.535 162.782 446.197 160.823 444.165 160.029Z" fill="#263238" stroke="#263238" stroke-miterlimit="10" stroke-linecap="round"/>
<path d="M380.133 232.348L406.941 243.518L382.367 257.666L354.07 246.496L380.133 232.348Z" fill="#8C8C8C" stroke="#263238" stroke-miterlimit="10" stroke-linecap="round" stroke-linejoin="round"/>
<path d="M380.133 288.941C379.442 284.793 321.132 257.231 312.391 253.531L304.645 258.075C302.21 259.496 302.332 263.054 304.859 264.304L361.711 292.424C365.813 294.453 370.625 294.454 374.728 292.427L380.248 289.7C380.211 289.441 380.174 289.185 380.133 288.941Z" fill="#8C8C8C" stroke="#263238" stroke-miterlimit="10" stroke-linecap="round" stroke-linejoin="round"/>
<path d="M338.279 248.173C339.75 248.173 340.943 247.378 340.943 246.397C340.943 245.416 339.75 244.621 338.279 244.621C336.807 244.621 335.615 245.416 335.615 246.397C335.615 247.378 336.807 248.173 338.279 248.173Z" fill="white" stroke="#263238" stroke-miterlimit="10" stroke-linecap="round"/>
<path d="M348.047 252.615C349.518 252.615 350.711 251.819 350.711 250.839C350.711 249.858 349.518 249.062 348.047 249.062C346.576 249.062 345.383 249.858 345.383 250.839C345.383 251.819 346.576 252.615 348.047 252.615Z" fill="white" stroke="#263238" stroke-miterlimit="10" stroke-linecap="round"/>
<path d="M357.815 257.052C359.286 257.052 360.479 256.257 360.479 255.276C360.479 254.295 359.286 253.5 357.815 253.5C356.343 253.5 355.151 254.295 355.151 255.276C355.151 256.257 356.343 257.052 357.815 257.052Z" fill="white" stroke="#263238" stroke-miterlimit="10" stroke-linecap="round"/>
<path d="M367.583 261.493C369.054 261.493 370.247 260.698 370.247 259.717C370.247 258.737 369.054 257.941 367.583 257.941C366.111 257.941 364.919 258.737 364.919 259.717C364.919 260.698 366.111 261.493 367.583 261.493Z" fill="white" stroke="#263238" stroke-miterlimit="10" stroke-linecap="round"/>
<path d="M380.015 264.159C380.015 265.14 378.822 265.935 377.351 265.935C375.88 265.935 374.687 265.14 374.687 264.159C374.687 263.178 375.88 262.383 377.351 262.383C378.822 262.383 380.015 263.178 380.015 264.159Z" fill="white" stroke="#263238" stroke-miterlimit="10" stroke-linecap="round"/>
<path d="M387.119 270.372C388.59 270.372 389.783 269.577 389.783 268.596C389.783 267.615 388.59 266.82 387.119 266.82C385.648 266.82 384.455 267.615 384.455 268.596C384.455 269.577 385.648 270.372 387.119 270.372Z" fill="white" stroke="#263238" stroke-miterlimit="10" stroke-linecap="round"/>
<path d="M331.619 253.501C333.09 253.501 334.283 252.706 334.283 251.725C334.283 250.744 333.09 249.949 331.619 249.949C330.147 249.949 328.955 250.744 328.955 251.725C328.955 252.706 330.147 253.501 331.619 253.501Z" fill="white" stroke="#263238" stroke-miterlimit="10" stroke-linecap="round"/>
<path d="M341.387 257.943C342.858 257.943 344.051 257.147 344.051 256.167C344.051 255.186 342.858 254.391 341.387 254.391C339.915 254.391 338.723 255.186 338.723 256.167C338.723 257.147 339.915 257.943 341.387 257.943Z" fill="white" stroke="#263238" stroke-miterlimit="10" stroke-linecap="round"/>
<path d="M351.154 262.38C352.626 262.38 353.818 261.585 353.818 260.604C353.818 259.623 352.626 258.828 351.154 258.828C349.683 258.828 348.49 259.623 348.49 260.604C348.49 261.585 349.683 262.38 351.154 262.38Z" fill="white" stroke="#263238" stroke-miterlimit="10" stroke-linecap="round"/>
<path d="M360.923 266.822C362.394 266.822 363.587 266.026 363.587 265.046C363.587 264.065 362.394 263.27 360.923 263.27C359.451 263.27 358.259 264.065 358.259 265.046C358.259 266.026 359.451 266.822 360.923 266.822Z" fill="white" stroke="#263238" stroke-miterlimit="10" stroke-linecap="round"/>
<path d="M370.691 271.263C372.162 271.263 373.355 270.468 373.355 269.487C373.355 268.506 372.162 267.711 370.691 267.711C369.219 267.711 368.027 268.506 368.027 269.487C368.027 270.468 369.219 271.263 370.691 271.263Z" fill="white" stroke="#263238" stroke-miterlimit="10" stroke-linecap="round"/>
<path d="M380.459 275.7C381.93 275.7 383.123 274.905 383.123 273.924C383.123 272.944 381.93 272.148 380.459 272.148C378.987 272.148 377.795 272.944 377.795 273.924C377.795 274.905 378.987 275.7 380.459 275.7Z" fill="white" stroke="#263238" stroke-miterlimit="10" stroke-linecap="round"/>
<path d="M257.36 387.927C257.36 387.927 252.34 393.951 248.993 396.963C245.646 399.975 239.288 403.322 236.276 404.66C233.264 405.999 240.627 409.68 244.977 409.68C249.328 409.68 255.352 408.341 262.379 408.341C269.407 408.341 275.766 408.341 276.77 402.986C277.774 397.631 271.75 381.902 271.75 381.902L256.355 384.914L257.36 387.927Z" fill="#8B3A3A" stroke="#263238" stroke-miterlimit="10"/>
<path d="M247.32 406.333C241.185 406.99 237.502 405.928 235.68 405.115C234.679 406.684 241.052 409.68 244.977 409.68C249.328 409.68 255.352 408.341 262.379 408.341C269.406 408.341 275.766 408.341 276.77 402.986C276.899 402.296 276.91 401.432 276.834 400.453C275.454 401.604 273.816 402.789 272.084 403.655C267.4 405.998 256.69 405.329 247.32 406.333Z" fill="white" stroke="#263238" stroke-miterlimit="10" stroke-linecap="round"/>
<path d="M235.272 314.635L249.328 387.592C249.328 387.592 254.013 390.939 261.041 389.6C268.069 388.261 275.766 383.911 275.766 383.911L261.71 321.663C261.71 321.663 242.969 305.934 235.272 314.635Z" fill="#263238" stroke="#263238" stroke-miterlimit="10" stroke-linecap="round"/>
<path d="M214.523 400.311C214.523 400.311 211.846 407.674 210.507 409.347C209.168 411.02 195.112 423.068 192.1 424.742C189.088 426.415 192.769 428.423 195.447 429.093C198.124 429.762 208.833 428.089 216.196 425.077C223.559 422.065 234.937 421.061 236.945 417.714C238.953 414.367 232.594 397.969 232.594 397.969C232.594 397.969 216.196 402.319 214.523 400.311Z" fill="#8B3A3A" stroke="#263238" stroke-miterlimit="10"/>
<path d="M200.802 426.414C196.08 427.942 193.264 427.854 191.58 427.23C192.443 428.052 194.074 428.748 195.447 429.091C198.124 429.76 208.833 428.087 216.196 425.075C223.559 422.063 234.937 421.059 236.945 417.712C237.49 416.804 237.416 414.932 237.023 412.691C235.729 413.408 234.33 414.1 232.929 414.7C228.244 416.708 212.18 422.733 200.802 426.414Z" fill="white" stroke="#263238" stroke-miterlimit="10" stroke-linecap="round"/>
<path d="M244.308 289.872C244.308 289.872 219.543 283.513 215.192 285.521C210.841 287.529 204.148 297.234 204.148 306.27C204.148 315.306 208.499 399.306 208.499 399.306C208.499 399.306 215.192 402.653 222.555 403.322C229.918 403.991 234.937 398.971 234.937 398.971L231.925 312.628L245.646 295.895C245.646 295.895 248.324 292.884 244.308 289.872Z" fill="#263238" stroke="#263238" stroke-miterlimit="10" stroke-linecap="round"/>
<path d="M229.583 313.298C229.583 313.298 219.543 311.625 213.854 305.266" stroke="white" stroke-miterlimit="10" stroke-linecap="round"/>
<path d="M284.541 413.567C281.828 413.567 279.629 411.368 279.629 408.655V373.779C279.629 371.066 281.828 368.867 284.541 368.867C287.254 368.867 289.453 371.066 289.453 373.779V408.655C289.453 411.368 287.254 413.567 284.541 413.567Z" fill="#263238"/>
<path d="M284.541 383.111C279.386 383.111 275.208 378.933 275.208 373.778V334.481C275.208 329.326 279.386 325.148 284.541 325.148C289.696 325.148 293.874 329.326 293.874 334.481V373.778C293.874 378.933 289.696 383.111 284.541 383.111Z" fill="#263238"/>
<path d="M276.19 408.164L231.884 428.685C230.378 429.383 230.373 431.572 231.908 432.204C231.932 432.214 231.956 432.224 231.981 432.234C234.437 433.216 242.27 430.091 242.27 430.091L273.735 419.462C273.735 419.462 279.63 417.006 284.542 421.918L306.156 448.444C306.156 448.444 309.595 451.391 310.577 447.953C311.56 444.514 294.858 417.006 294.858 417.006C294.858 417.006 295.349 412.094 301.244 410.129C305.64 408.664 324.331 399.813 324.331 399.813C324.331 399.813 326.296 397.848 323.348 397.357C320.401 396.866 286.998 405.217 286.998 405.217L280.612 391.954C280.612 391.954 278.156 391.463 278.647 394.901C279.137 398.339 279.629 405.707 276.19 408.164Z" fill="#263238" stroke="#263238" stroke-miterlimit="10" stroke-linecap="round"/>
<path d="M242.784 433.184C242.784 435.745 240.708 437.821 238.147 437.821C235.586 437.821 233.51 435.745 233.51 433.184C233.51 430.623 235.586 428.547 238.147 428.547C240.708 428.547 242.784 430.623 242.784 433.184Z" fill="#263238" stroke="#263238" stroke-miterlimit="10" stroke-linecap="round"/>
<path d="M325.223 403.043C325.223 405.604 323.147 407.68 320.586 407.68C318.025 407.68 315.949 405.604 315.949 403.043C315.949 400.482 318.025 398.406 320.586 398.406C323.147 398.406 325.223 400.482 325.223 403.043Z" fill="#263238" stroke="#263238" stroke-miterlimit="10" stroke-linecap="round"/>
<path d="M307.962 445.547C307.962 448.108 305.886 450.184 303.325 450.184C300.764 450.184 298.688 448.108 298.688 445.547C298.688 442.986 300.764 440.91 303.325 440.91C305.886 440.91 307.962 442.986 307.962 445.547Z" fill="#263238" stroke="#263238" stroke-miterlimit="10" stroke-linecap="round"/>
<path d="M235.272 314.636C235.272 314.636 220.463 319.654 225.594 324.166C227.475 325.82 273.646 351.362 278.646 351.674C294.365 352.656 339.557 326.622 342.013 320.727C344.469 314.832 329.732 308.938 319.417 303.043C309.101 297.148 287.979 291.745 283.067 294.201C278.155 296.658 235.272 314.636 235.272 314.636Z" fill="#8B3A3A" stroke="#263238" stroke-miterlimit="10"/>
<path d="M277.398 110.566C277.398 110.566 273.069 118.069 273.069 122.109C273.069 126.149 273.358 126.726 271.626 129.035C269.895 131.344 264.123 131.632 264.123 134.23C264.123 136.827 265.566 139.713 267.297 140.579C269.028 141.445 269.028 141.445 269.028 141.445C269.028 141.445 268.739 150.968 268.739 155.585C268.739 160.202 268.739 163.954 271.336 164.819C273.933 165.685 285.188 165.685 285.188 165.685L289.517 181.557C289.517 181.557 300.194 176.651 306.255 173.477C312.315 170.303 316.932 168.571 316.932 168.571C316.932 168.571 311.738 156.162 313.181 153.854C314.624 151.545 325.59 149.237 329.63 137.982C333.67 126.727 331.361 109.413 323.281 103.352C315.201 97.2923 299.04 95.2723 299.04 95.2723C299.04 95.2723 292.691 88.0583 286.343 86.0383C279.994 84.0183 264.988 88.9243 264.411 99.8903C263.835 110.854 277.398 110.566 277.398 110.566Z" fill="white" stroke="#263238" stroke-miterlimit="10" stroke-linecap="round"/>
<path d="M289.23 149.234L286.399 149.652C286.399 149.652 286.399 153.853 283.598 157.704" stroke="#263238" stroke-miterlimit="10" stroke-linecap="round"/>
<path d="M323.281 103.352C315.201 97.2923 299.04 95.2723 299.04 95.2723C299.04 95.2723 292.691 88.0573 286.343 86.0383C279.994 84.0183 264.988 88.9243 264.411 99.8903C263.834 110.856 277.397 110.567 277.397 110.567C277.397 110.567 275.666 116.339 276.531 120.09C277.397 123.842 282.303 132.21 283.746 133.942C285.189 135.673 284.9 135.962 288.652 134.231C292.403 132.499 295.001 137.694 293.558 142.888C292.115 148.082 289.229 149.237 289.229 149.237C289.229 149.237 292.403 153.277 297.598 155.297C302.793 157.317 313.181 153.854 313.181 153.854C314.624 151.545 325.59 149.237 329.63 137.982C333.67 126.727 331.361 109.412 323.281 103.352Z" fill="#263238" stroke="#263238" stroke-miterlimit="10" stroke-linecap="round"/>
<path d="M267.397 131.402C267.098 130.081 267.061 128.474 267.353 126.786C268.046 122.781 270.326 119.832 272.447 120.199C272.741 120.25 273.016 120.362 273.271 120.527" stroke="#263238" stroke-miterlimit="10" stroke-linecap="round"/>
<path d="M267.841 125.301L288.652 134.229" stroke="#263238" stroke-miterlimit="10" stroke-linecap="round"/>
<path d="M319.242 101.332C319.242 101.332 314.625 102.486 316.645 107.104C318.665 111.721 322.994 109.124 324.437 115.473C325.88 121.822 327.034 133.365 320.686 145.774C314.337 158.183 310.297 156.74 312.029 159.914C313.76 163.088 322.418 165.108 327.901 163.377C333.384 161.646 336.847 156.451 336.847 156.451C336.847 156.451 334.538 163.377 335.693 163.666C336.847 163.955 344.927 167.129 353.296 152.7C361.665 138.271 357.336 131.922 357.336 131.922C357.336 131.922 359.645 137.982 359.933 134.519C360.222 131.056 363.973 117.781 346.947 106.815C329.919 95.8487 319.242 101.332 319.242 101.332Z" fill="#263238" stroke="#263238" stroke-miterlimit="10" stroke-linecap="round"/>
<path d="M269.6 208.913C269.6 208.913 263.09 200.775 261.191 198.063C259.292 195.35 256.58 195.079 252.782 193.452C248.984 191.824 246.272 189.112 244.644 189.926C243.016 190.74 242.745 192.639 244.101 193.724C245.457 194.809 247.899 195.894 248.984 196.708C250.069 197.522 251.154 198.607 251.154 198.607L243.016 203.49L239.218 203.219C239.218 203.219 236.234 194.539 235.149 195.895C234.064 197.251 234.606 201.591 235.963 205.66C237.319 209.729 238.404 212.441 240.846 212.441C243.287 212.441 257.393 210 257.393 210L265.259 222.478L274.753 214.34L269.6 208.913Z" fill="white" stroke="#263238" stroke-miterlimit="10" stroke-linecap="round"/>
<path d="M243.287 206.743L240.033 206.472C240.033 206.472 235.149 196.978 233.793 198.606C232.437 200.234 235.149 206.201 235.149 206.201C235.149 206.201 238.134 211.355 240.304 211.355C242.474 211.355 247.085 208.642 247.085 208.642" fill="white"/>
<path d="M243.287 206.743L240.033 206.472C240.033 206.472 235.149 196.978 233.793 198.606C232.437 200.234 235.149 206.201 235.149 206.201C235.149 206.201 238.134 211.355 240.304 211.355C242.474 211.355 247.085 208.642 247.085 208.642" stroke="#263238" stroke-miterlimit="10" stroke-linecap="round"/>
<path d="M243.288 209.457H238.405C238.405 209.457 233.522 199.963 232.166 201.59C230.81 203.218 233.522 209.185 233.522 209.185C233.522 209.185 236.506 214.339 238.676 214.339C240.846 214.339 245.457 211.626 245.457 211.626" fill="white"/>
<path d="M243.288 209.457H238.405C238.405 209.457 233.522 199.963 232.166 201.59C230.81 203.218 233.522 209.185 233.522 209.185C233.522 209.185 236.506 214.339 238.676 214.339C240.846 214.339 245.457 211.626 245.457 211.626" stroke="#263238" stroke-miterlimit="10" stroke-linecap="round"/>
<path d="M259.292 210.814C259.292 210.814 238.948 217.053 237.591 216.239C236.235 215.425 229.182 208.915 229.996 206.745C230.81 204.575 233.251 206.202 234.065 207.559C234.879 208.915 238.676 212.17 238.676 212.17C238.676 212.17 251.154 205.66 253.595 205.66C256.036 205.66 258.206 208.373 258.206 208.373" fill="white"/>
<path d="M259.292 210.814C259.292 210.814 238.948 217.053 237.591 216.239C236.235 215.425 229.182 208.915 229.996 206.745C230.81 204.575 233.251 206.202 234.065 207.559C234.879 208.915 238.676 212.17 238.676 212.17C238.676 212.17 251.154 205.66 253.595 205.66C256.036 205.66 258.206 208.373 258.206 208.373" stroke="#263238" stroke-miterlimit="10" stroke-linecap="round"/>
<path d="M284.133 192.148C284.133 192.148 276.436 198.841 270.077 206.873C263.718 214.905 262.045 219.59 262.045 222.937C262.045 226.284 261.71 278.156 261.71 278.156C261.71 278.156 260.371 284.515 261.041 285.853C261.71 287.192 261.71 287.192 261.71 287.192C261.71 287.192 248.323 288.531 241.296 287.192C234.268 285.853 230.252 288.196 229.248 296.897C228.244 305.598 228.579 315.304 228.579 315.304C228.579 315.304 252.675 328.356 261.376 332.037C270.077 335.718 284.133 342.077 294.508 338.061C304.883 334.045 320.946 328.691 326.97 320.993C332.994 313.296 333.663 307.941 333.663 299.909C333.663 291.877 332.659 286.857 333.663 281.503C334.667 276.148 341.36 243.686 343.703 227.622C346.046 211.558 348.388 199.51 342.364 190.14C336.34 180.77 330.985 176.084 327.304 175.08C323.623 174.076 299.527 184.451 293.503 186.793C287.479 189.136 284.133 192.148 284.133 192.148Z" fill="white" stroke="#263238" stroke-miterlimit="10" stroke-linecap="round"/>
<path d="M262.541 299.324C262.541 299.324 262.541 306.097 271.249 313.837" stroke="#263238" stroke-miterlimit="10" stroke-linecap="round"/>
<path d="M261.709 306.605C261.709 306.605 263.507 316.095 271.248 322.223" stroke="#263238" stroke-miterlimit="10" stroke-linecap="round"/>
<path d="M326.405 215.254C323.24 223.386 317.051 235.251 305.965 243.363" stroke="#263238" stroke-miterlimit="10" stroke-linecap="round"/>
<path d="M329.257 206.184C329.257 206.184 328.949 207.668 328.2 210.103" stroke="#263238" stroke-miterlimit="10" stroke-linecap="round"/>
<path d="M324.777 227.684C324.777 227.684 320.298 236.195 309.1 243.809" stroke="#263238" stroke-miterlimit="10" stroke-linecap="round"/>
<path d="M320.61 166.715C320.61 166.715 293.168 176.755 285.47 183.113C277.773 189.472 275.095 199.512 275.095 199.512C275.095 199.512 289.151 189.137 303.207 185.121C317.263 181.105 329.311 174.746 329.311 174.746L320.61 166.715Z" fill="white" stroke="#263238" stroke-miterlimit="10" stroke-linecap="round"/>
<path d="M235.607 280.835C235.607 280.835 228.579 276.819 226.906 275.815C225.233 274.811 222.221 274.142 221.551 275.48C220.882 276.819 220.882 277.823 220.882 277.823C220.882 277.823 215.527 278.158 214.858 279.831C214.189 281.504 213.854 282.508 213.854 282.508C213.854 282.508 210.842 283.177 210.842 285.52C210.842 287.863 209.169 290.875 210.507 291.544C211.846 292.213 213.184 291.879 213.854 290.54C214.523 289.201 215.193 288.197 215.193 288.197L218.205 289.536C218.205 289.536 221.217 292.548 223.894 293.217C226.571 293.886 230.587 293.886 230.587 293.886L237.615 282.842L235.607 280.835Z" fill="white" stroke="#263238" stroke-miterlimit="10" stroke-linecap="round"/>
<path d="M270.412 208.883C270.412 208.883 263.384 212.23 260.372 217.584C257.36 222.939 244.643 282.174 244.643 282.174L235.607 280.835C235.607 280.835 231.926 278.158 228.244 284.851C224.563 291.544 227.24 296.23 227.24 296.23C227.24 296.23 248.324 304.597 251.336 305.601C254.348 306.605 258.699 310.286 261.711 306.605C264.723 302.924 282.795 239.338 282.795 239.338" fill="white"/>
<path d="M270.412 208.883C270.412 208.883 263.384 212.23 260.372 217.584C257.36 222.939 244.643 282.174 244.643 282.174L235.607 280.835C235.607 280.835 231.926 278.158 228.244 284.851C224.563 291.544 227.24 296.23 227.24 296.23C227.24 296.23 248.324 304.597 251.336 305.601C254.348 306.605 258.699 310.286 261.711 306.605C264.723 302.924 282.795 239.338 282.795 239.338" stroke="#263238" stroke-miterlimit="10" stroke-linecap="round"/>
<path d="M291.818 262.808L289.728 298.747C289.481 302.993 293.865 305.958 297.714 304.149L356.081 276.712C357.875 275.869 359.09 274.141 359.279 272.168L362.84 234.774C363.246 230.507 358.911 227.38 354.99 229.111L297.616 254.451C294.269 255.928 292.03 259.155 291.818 262.808Z" fill="#8B3A3A" stroke="#263238" stroke-miterlimit="10"/>
<path d="M362.848 234.477C362.18 234.508 361.499 234.652 360.829 234.948L303.455 260.288C300.108 261.766 297.869 264.993 297.657 268.646L295.567 304.585C295.565 304.617 295.569 304.648 295.568 304.68C296.28 304.649 297.006 304.48 297.714 304.147L356.081 276.71C357.875 275.867 359.09 274.139 359.279 272.166L362.84 234.772C362.849 234.672 362.844 234.576 362.848 234.477Z" fill="#8B3A3A" stroke="#263238" stroke-miterlimit="10"/>
<path d="M330.469 268.517C330.435 268.516 330.402 268.516 330.368 268.516C327.159 268.516 324.53 271.09 324.476 274.312L323.408 337.81C323.383 339.304 322.383 340.052 321.956 340.305C321.527 340.557 320.389 341.07 319.069 340.369L315.685 338.571C311.626 340.712 307.418 342.775 303.288 344.612C303.804 345.345 304.49 345.973 305.336 346.422L313.538 350.78C315.723 351.94 318.093 352.518 320.46 352.518C323.043 352.518 325.621 351.829 327.944 350.459C332.399 347.832 335.109 343.177 335.195 338.007L336.263 274.509C336.318 271.256 333.724 268.572 330.469 268.517Z" fill="#263238"/>
</svg>
