<svg width="500" height="500" viewBox="0 0 500 500" fill="none" xmlns="http://www.w3.org/2000/svg">
<mask id="mask0_94_1068" style="mask-type:luminance" maskUnits="userSpaceOnUse" x="0" y="0" width="500" height="500">
<path d="M500 0H0V500H500V0Z" fill="white"/>
</mask>
<g mask="url(#mask0_94_1068)">
<path d="M-34.652 688.89C-32.673 686.411 -32.02 683.148 -31.432 680.023C-20.119 619.898 -10.437 561.333 -1.89 500.746C41.935 501.171 85.76 501.595 129.585 502.02C139.4 502.115 150.633 501.576 156.822 493.907C159.498 490.591 160.786 486.391 162.129 482.338C164.08 476.45 166.268 470.642 168.687 464.933C170.016 461.796 171.457 458.624 173.792 456.152C176.257 453.542 179.542 451.899 182.79 450.392C189.317 447.365 195.993 444.676 202.665 441.988C209.214 439.35 215.763 436.711 222.313 434.073C219.766 430.297 214.931 428.984 210.501 428.009C178.247 420.908 146.986 417.243 114.241 421.494C59.801 428.562 21.333 413.511 -31.014 430.138C-42.766 433.871 -54.268 439.115 -63.47 447.367C-82.32 464.271 -88.86 491.263 -89.565 516.668C-90.27 542.074 -86.168 567.521 -88.212 592.854C-89.614 610.233 -89.789 626.483 -91.5 643.834C-92.32 652.146 -93.357 660.647 -91.396 668.764C-67.744 680.707 -61.061 687.211 -34.652 688.89Z" fill="#865D9B"/>
<g opacity="0.5">
<path d="M-12.4879 487.916C-5.00991 477.799 7.45008 472.492 19.8261 470.547C32.2021 468.603 44.8171 469.571 57.3431 469.536C108.112 469.393 156.926 452.831 206.386 440.486C211.695 438.347 217.004 436.209 222.312 434.07C221.143 432.337 219.49 431.127 217.619 430.227C164.717 448.083 82.4881 461.329 30.5701 464.835C16.4651 465.787 1.40909 467.299 -9.54391 476.298C-19.1179 484.164 -23.8679 496.445 -27.2639 508.408C-32.4709 526.752 -35.4299 545.658 -38.1699 564.536C-44.0459 605.014 -48.9639 645.631 -52.9409 686.343C-51.8519 686.606 -50.7299 686.853 -49.5659 687.081C-43.2369 629.538 -34.2319 572.293 -22.5799 515.6C-20.5839 505.892 -18.3649 495.868 -12.4879 487.916Z" fill="#8B3A3A"/>
</g>
<g opacity="0.5">
<path d="M210.501 428.006C193.573 424.279 175.977 420.583 158.342 418.523C140.573 431.314 124.202 446.048 109.668 462.422C104.997 467.685 100.385 473.221 94.292 476.742C87.037 480.934 78.409 481.857 70.065 482.63C53.456 484.169 36.612 485.465 20.179 482.609C3.74497 479.753 -12.111 471.004 -22.364 457.847C-21.216 481.718 -27.075 505.289 -32.151 528.642C-41.965 573.79 -48.989 619.543 -53.17 665.556C-53.78 672.274 -54.341 679.042 -55.384 685.703C-49.713 687.286 -43.225 688.343 -34.652 688.888C-32.673 686.409 -32.02 683.146 -31.432 680.021C-20.119 619.896 -10.437 561.331 -1.89003 500.744C41.935 501.169 85.76 501.593 129.585 502.018C139.4 502.113 150.633 501.574 156.822 493.905C159.498 490.589 160.786 486.389 162.129 482.336C164.08 476.448 166.268 470.64 168.687 464.931C170.016 461.794 171.457 458.622 173.792 456.15C176.257 453.54 179.542 451.897 182.79 450.39C189.317 447.363 195.993 444.674 202.665 441.986C209.214 439.348 215.763 436.709 222.313 434.071C219.765 430.293 214.93 428.981 210.501 428.006Z" fill="#865D9B"/>
</g>
<g opacity="0.5">
<path d="M210.501 428.007C178.247 420.906 141.562 415.905 108.817 420.156C70.0341 425.191 43.091 418.701 10.7271 421.709C19.0641 430.034 27.975 437.783 37.4711 444.753C44.3701 449.817 51.581 454.488 58.022 460.122C64.738 465.996 70.5261 472.838 76.2871 479.652C80.1091 484.173 83.9711 488.753 86.5821 494.066C87.7791 496.501 88.6861 499.032 89.3781 501.629C102.78 501.759 116.182 501.889 129.584 502.019C139.399 502.114 150.632 501.575 156.821 493.906C159.497 490.59 160.785 486.39 162.128 482.337C164.079 476.449 166.267 470.641 168.686 464.932C170.015 461.795 171.456 458.623 173.791 456.151C176.256 453.541 179.541 451.898 182.789 450.391C189.316 447.364 195.992 444.675 202.664 441.987C209.213 439.349 215.762 436.71 222.312 434.072C219.765 430.294 214.93 428.982 210.501 428.007Z" fill="#865D9B"/>
</g>
<path d="M163.427 717.14C164.222 677.326 167.106 637.554 172.064 598.042C174.434 579.155 177.821 559.127 190.596 545.016C200.26 534.341 214.001 528.54 226.533 521.449C238.649 514.594 249.946 506.293 260.106 496.777C265.712 491.527 271.314 485.112 271.374 477.432C271.4 474.116 270.361 470.882 269.079 467.824C263.336 454.137 252.281 442.761 238.764 436.629C225.247 430.497 209.409 430.486 195.22 434.842C181.196 439.147 167.171 443.452 153.147 447.757C146.521 449.791 139.779 451.88 134.07 455.81C120.337 465.262 115.477 482.986 112.021 499.295C101.658 548.203 95.0702 597.91 92.3342 647.83C91.4072 664.739 95.2942 680.751 96.6232 697.633C97.0692 703.298 97.5842 709.19 100.492 714.073C120.244 719.344 143.122 719.507 163.427 717.14Z" fill="#865D9B"/>
<path opacity="0.5" d="M184.657 533.182C196.744 518.892 213.361 509.371 229.204 499.405C243.281 490.55 256.999 481.125 270.322 471.17C269.963 470.036 269.539 468.92 269.08 467.826C268.687 466.889 268.264 465.965 267.822 465.051C256.58 472.479 245.373 479.904 236.406 487.16C221.812 498.971 204.357 505.643 190.443 518.248C182.955 525.032 175.572 532.161 170.447 540.869C165.766 548.82 163.141 557.799 160.995 566.773C149.139 616.367 150.719 668.178 142.959 718.554C144.926 718.513 146.886 718.443 148.837 718.347C151.546 687.385 154.256 656.423 156.965 625.46C159.81 592.925 163.564 558.117 184.657 533.182Z" fill="#8B3A3A"/>
<g opacity="0.5">
<path d="M269.08 467.825C263.337 454.138 252.282 442.762 238.765 436.63C225.83 430.762 210.773 430.511 197.066 434.316C207.671 437.252 217.692 442.296 226.343 449.099C230.25 452.172 233.98 455.733 235.957 460.294C240.387 470.515 223.397 468.261 217.34 477.611C207.805 492.328 208.025 519.829 195.33 531.926C193.155 533.999 190.846 536.083 187.996 537.03C184.973 538.035 181.675 537.647 178.544 537.062C168.324 535.151 158.485 531.222 149.76 525.567C156.893 532.53 163.603 540.243 167.364 549.474C175.206 568.721 169 590.413 164.604 610.727C156.91 646.276 154.976 683.211 146.661 718.442C152.361 718.221 157.988 717.776 163.428 717.142C164.223 677.328 167.107 637.556 172.065 598.043C174.435 579.157 177.822 559.128 190.597 545.017C200.261 534.342 214.002 528.54 226.534 521.45C238.65 514.595 249.947 506.294 260.107 496.778C265.713 491.528 271.315 485.113 271.375 477.433C271.401 474.117 270.362 470.883 269.08 467.825Z" fill="#865D9B"/>
</g>
<path d="M272.479 481.604C263.999 462.7 247.264 448.364 228.554 439.463C209.845 430.562 189.17 426.627 168.597 424.171C144.562 421.301 119.024 420.215 96.042 427.817C95.111 425.426 95.408 422.755 95.719 420.208C96.148 416.697 96.585 413.148 97.816 409.832C99.035 406.546 101.043 403.425 101.119 399.921C101.177 397.268 100.102 394.688 100.157 392.035C100.196 390.147 100.825 388.275 101.935 386.747C103.117 385.119 104.812 383.891 105.85 382.167C106.689 380.773 107.04 379.149 107.38 377.558C108.077 374.285 108.775 371.012 109.472 367.74C109.906 365.706 110.341 363.624 110.067 361.562C109.571 357.833 106.854 354.768 105.861 351.139C104.866 347.504 105.817 343.683 108.251 340.805C104.99 336.482 104.952 330.642 104.424 325.252C102.975 310.472 96.897 296.561 93.928 282.01C92.758 276.274 92.074 270.451 91.391 264.637C90.443 256.563 89.495 248.488 88.547 240.413C88.367 238.878 88.189 237.297 88.601 235.807C89.297 233.285 91.514 231.521 93.648 230.009C113.19 216.163 136.804 207.914 153.73 190.97C163.345 190.257 171.482 193.53 180.736 196.233C186.983 198.057 193.367 199.364 199.716 200.791C220.403 205.438 240.8 211.375 260.751 218.554C265.287 220.186 269.821 221.892 274.017 224.265C282.813 229.24 284.984 227.527 294.453 233.734C289.092 242.94 283.186 264.94 280.355 275.21C278.468 282.054 277.774 289.162 277.087 296.228C275.482 312.741 273.876 329.308 274.379 345.891C274.613 353.603 275.303 361.293 275.852 368.989C277.724 395.23 277.961 421.557 278.198 447.864C278.293 458.559 278.444 472.726 272.479 481.604Z" fill="#8B3A3A"/>
<path opacity="0.5" d="M122.328 268.302C119.961 253.401 111.73 239.108 98.8431 231.262C97.6161 230.515 96.4061 229.739 95.2081 228.945C94.6891 229.302 94.1611 229.647 93.6471 230.011C91.5131 231.523 89.2961 233.287 88.6001 235.809C88.1891 237.299 88.3661 238.88 88.5461 240.415C89.4941 248.49 90.4421 256.564 91.3901 264.639C92.0731 270.453 92.7571 276.276 93.9271 282.012C96.8011 296.1 102.577 309.59 104.257 323.847C109.787 316.989 114.856 309.761 119.433 302.233C122.786 291.228 124.126 279.621 122.328 268.302Z" fill="#572127"/>
<g opacity="0.5">
<path d="M280.354 275.211C283.185 264.941 289.091 242.941 294.452 233.735C284.983 227.528 282.812 229.24 274.016 224.266C269.82 221.893 265.286 220.187 260.75 218.555C240.8 211.376 220.402 205.44 199.715 200.792C198.819 200.591 197.921 200.393 197.024 200.195C197.049 200.75 197.077 201.306 197.118 201.863C198.052 214.346 203.204 226.17 209.67 236.889C217.513 249.89 227.395 261.659 238.844 271.633C242.101 274.47 245.719 277.565 246.346 281.838C246.727 284.434 245.914 287.034 245.32 289.59C241.597 305.619 246.409 322.258 251.155 338.014C253.063 344.348 254.461 352.448 249.247 356.519C247.556 357.839 245.431 358.449 243.356 358.994C232.659 361.803 221.714 363.667 210.69 364.559C203.522 365.139 196.27 365.316 189.286 367.028C182.302 368.74 175.454 372.196 171.263 378.04C170.552 379.032 169.905 380.139 169.835 381.358C169.704 383.641 171.592 385.523 173.522 386.75C178.86 390.143 185.354 391 191.508 392.459C216.229 398.321 237.992 415.609 249.293 438.363C238.967 432.898 170.108 389.473 119.848 403.333C119.813 403.232 119.792 403.129 119.759 403.027C112.318 405.668 104.878 408.309 97.4371 410.949C96.4911 413.939 96.1001 417.088 95.7191 420.209C95.4081 422.756 95.1111 425.427 96.0421 427.818C119.023 420.216 144.561 421.303 168.597 424.172C189.169 426.628 209.844 430.564 228.554 439.464C247.263 448.365 263.999 462.701 272.479 481.605C278.443 472.727 278.292 458.56 278.196 447.865C277.96 421.558 277.722 395.231 275.85 368.99C275.301 361.294 274.611 353.604 274.377 345.892C273.874 329.309 275.48 312.742 277.085 296.229C277.773 289.162 278.467 282.055 280.354 275.211Z" fill="#572127"/>
</g>
<path opacity="0.5" d="M223.159 344.904C189.173 350.911 152.667 340.547 126.907 317.578C156.477 333.727 189.885 339.616 223.159 344.904Z" fill="#572127"/>
<path d="M186.936 253.013C192.528 255.547 199.148 256.313 204.817 253.954C210.212 251.709 214.213 246.875 216.588 241.536C218.963 236.198 219.89 230.341 220.605 224.542C221.349 218.513 221.888 212.458 222.225 206.392C214.765 204.356 207.261 202.486 199.716 200.791C193.366 199.365 186.983 198.058 180.736 196.233C171.482 193.53 163.345 190.257 153.73 190.97C151.329 193.373 148.782 195.587 146.143 197.681C151.402 214.148 160.432 229.41 172.394 241.894C176.641 246.328 181.343 250.479 186.936 253.013Z" fill="#572127"/>
<path d="M167.679 227.449C170.306 230.784 173.429 233.696 176.656 236.454C183.965 242.701 192.387 248.433 201.965 249.276C203.109 249.377 204.296 249.4 205.368 248.988C206.988 248.364 208.08 246.861 209.012 245.396C215.265 235.575 218.621 223.935 218.556 212.292C218.539 209.245 218.283 206.149 217.181 203.308C215.992 200.242 213.877 197.625 211.592 195.259C209.839 193.443 207.947 191.729 205.763 190.464C201.24 187.846 195.816 187.344 190.59 187.291C184.03 187.223 177.409 187.778 171.131 189.683C165.619 191.356 159.813 194.516 157.608 200.164C155.048 206.718 158.475 211.177 161.281 216.925C163.084 220.62 165.13 224.214 167.679 227.449Z" fill="#D39972"/>
<path d="M15.882 392.385C15.23 398.2 15.11 404.388 17.861 409.552C19.48 412.59 21.995 415.062 24.716 417.17C29.86 421.155 36.51 424.072 42.805 422.422C48.64 420.892 52.802 415.859 56.314 410.954C72.099 388.903 83.111 363.866 94.009 339.032C97.682 330.663 101.432 321.498 99.157 312.646C98.049 308.334 95.582 304.506 92.987 300.888C89.869 296.543 86.275 292.196 81.304 290.224C67.669 284.815 53.986 297.91 48.201 308.921C39.283 325.894 30.09 342.947 23.544 361.01C19.867 371.153 17.086 381.648 15.882 392.385Z" fill="#E2AC83"/>
<path d="M99.157 312.647C98.049 308.334 95.582 304.507 92.987 300.889C89.869 296.544 86.275 292.197 81.304 290.225C67.669 284.815 53.986 297.911 48.201 308.922C45.77 313.549 43.319 318.184 40.906 322.842C54.904 329.753 69.874 334.694 85.24 337.45C77.622 352.142 71.343 367.199 66.004 382.864C59.002 378.256 49.721 376.783 41.528 378.553C33.335 380.323 25.932 385.498 21.457 392.585C19.268 396.052 17.772 399.914 16.581 403.838C16.452 404.264 16.332 404.694 16.21 405.122C16.581 406.656 17.112 408.143 17.863 409.553C19.482 412.591 21.997 415.063 24.718 417.171C29.863 421.156 36.512 424.073 42.807 422.423C48.642 420.893 52.804 415.86 56.316 410.955C72.101 388.904 83.113 363.867 94.011 339.033C97.682 330.664 101.432 321.499 99.157 312.647Z" fill="#D39972"/>
<path d="M100.97 427.272C104.388 430.763 107.91 434.264 110.252 438.552C112.544 442.748 113.607 447.606 113.277 452.376C112.873 458.212 109.291 464.678 103.456 465.093C101.264 465.249 99.1161 464.515 97.0591 463.741C80.7171 457.589 65.7601 448.323 50.9221 439.116C42.2091 433.71 33.4961 428.303 24.7831 422.897C21.0431 420.576 17.0871 418.012 15.3531 413.967C13.7821 410.302 14.3421 406.103 15.1621 402.2C18.5601 386.022 32.0041 380.38 46.9681 382.835C60.8691 385.116 75.2481 399.304 84.6481 409.798C89.9661 415.735 95.3931 421.576 100.97 427.272Z" fill="#E2AC83"/>
<path d="M110.252 438.551C107.916 434.274 104.406 430.78 100.996 427.298C100.028 430.492 98.562 433.471 96.353 436.065C94.233 438.554 91.561 440.508 89.283 442.854C87.006 445.199 85.061 448.142 84.978 451.41C71.915 443.415 58.618 435.803 45.11 428.587C38.218 424.906 31.223 421.296 25.112 416.426C21.036 413.177 17.35 409.291 14.678 404.844C14.203 407.947 14.132 411.117 15.353 413.965C17.088 418.01 21.043 420.574 24.783 422.895C33.496 428.301 42.209 433.708 50.922 439.114C65.76 448.321 80.716 457.587 97.059 463.739C99.115 464.513 101.264 465.247 103.456 465.091C109.291 464.675 112.873 458.209 113.277 452.374C113.607 447.605 112.544 442.747 110.252 438.551Z" fill="#D39972"/>
<path d="M376.98 357.885C385.983 363.983 395.036 370.109 404.904 374.675C409.926 376.999 415.321 378.938 420.848 378.669C426.375 378.401 432.067 375.486 434.254 370.403C437.536 362.773 432.08 354.395 426.758 348.018C415.699 334.765 403.9 322.101 391.025 310.605C386.063 306.175 380.947 301.923 375.831 297.671C370.789 293.48 365.746 289.29 360.704 285.099C356.491 281.598 352.243 278.073 347.425 275.467C343.238 273.203 338.66 271.665 333.955 270.943C324.569 269.503 314.304 271.613 307.396 278.129C301.122 284.047 298.772 293.241 301.42 301.421C304.044 309.529 313.991 314.114 320.587 318.873C339.125 332.248 358.055 345.068 376.98 357.885Z" fill="#E2AC83"/>
<path d="M410.394 293.404C412.685 290.336 415.207 287.218 418.71 285.671C421.285 284.534 424.167 284.351 426.981 284.242C435.577 283.908 445.26 284.563 451.002 290.968C453.665 293.939 455.117 297.839 455.738 301.78C457.643 313.866 452.24 325.809 446.553 336.642C441.712 345.864 436.036 363.94 430.585 372.815C429.032 375.343 427.121 378.092 424.199 378.61C422.504 378.91 420.783 378.38 419.149 377.838C409.798 374.739 400.243 370.784 393.882 363.262C377.988 344.468 398.969 308.701 410.394 293.404Z" fill="#D39972"/>
<path d="M308.597 320.426C294.304 316.155 282.537 306.025 272.194 295.277C271.077 294.116 269.93 292.875 269.516 291.318C269.234 290.256 269.318 289.136 269.42 288.042C271.249 268.429 280.349 248.524 291.464 232.262C313.697 243.562 334.36 257.944 352.676 274.87C347.247 284.899 343.091 296.009 335.643 304.644C328.195 313.28 319.659 317.652 308.597 320.426Z" fill="#8B3A3A"/>
<path d="M73.989 246.891C70.578 251.626 68.168 256.994 65.782 262.319C58.068 279.533 50.355 296.747 42.641 313.961C42.398 314.503 42.15 315.104 42.318 315.673C42.537 316.415 43.35 316.782 44.074 317.053C60.546 323.224 77.542 328 94.817 331.313C96.413 331.619 98.121 331.902 99.615 331.264C101.284 330.551 102.29 328.863 103.128 327.254C117.02 300.591 123.662 253.49 101.171 231.132C94.534 224.532 77.97 241.364 73.989 246.891Z" fill="#8B3A3A"/>
<path d="M42.641 313.96C42.398 314.502 42.15 315.103 42.318 315.672C42.537 316.414 43.35 316.781 44.074 317.052C60.547 323.223 77.542 327.999 94.818 331.311C96.413 331.617 98.122 331.9 99.616 331.262C101.285 330.549 102.291 328.861 103.129 327.252C103.927 325.721 104.697 324.116 105.443 322.459C84.578 322.732 63.658 318.063 44.897 308.926C44.145 310.604 43.393 312.282 42.641 313.96Z" fill="#572127"/>
<path d="M103.632 256.445C112.586 277.472 112.747 302.084 104.07 323.226C111.055 318.201 115.863 310.536 119.603 302.786C123.343 295.037 125.738 286.719 128.017 278.421" stroke="#572127" stroke-miterlimit="10" stroke-linecap="round" stroke-linejoin="round"/>
<path d="M98.7311 469.827C94.1861 467.08 91.7991 461.193 93.1481 456.056C94.2471 451.869 97.4281 448.559 99.1591 444.591C100.698 441.064 101.052 437.107 102.61 433.588C104.905 428.405 109.559 424.689 114.241 421.493C119.871 417.65 125.799 414.242 131.953 411.31C133.561 410.544 135.227 409.799 137.003 409.672C140.122 409.449 143.079 411.176 145.344 413.332C147.608 415.489 149.392 418.104 151.619 420.3C152.856 421.519 154.334 422.834 154.334 424.571C154.334 425.599 153.795 426.54 153.262 427.418C146.634 438.336 138.289 448.205 128.659 456.593C121.549 462.785 109.001 476.034 98.7311 469.827Z" fill="#E2AC83"/>
<path d="M159.759 429.088C161.422 428.101 163.147 427.147 165.04 426.751C166.933 426.355 169.045 426.59 170.559 427.794C172.598 429.416 173.07 432.448 172.312 434.941C171.554 437.434 169.799 439.49 167.981 441.357C161.884 447.618 154.447 452.692 146.123 455.355C142.991 456.357 139.086 456.829 136.841 454.427C132.399 449.677 139.01 445.066 142.002 442.364C147.514 437.386 153.364 432.885 159.759 429.088Z" fill="#D39972"/>
<path d="M108.505 459.212C107.184 457.777 105.504 456.156 103.598 456.569C102.134 456.886 101.219 458.287 100.306 459.475C98.6501 461.631 96.5101 463.406 94.1001 464.664C95.1291 466.775 96.7161 468.61 98.7301 469.827C104.369 473.235 110.694 470.774 116.429 466.84C113.644 464.453 110.99 461.911 108.505 459.212Z" fill="#D39972"/>
<path d="M138.955 415.824C140.636 414.452 142.835 413.545 144.973 413.922C146.903 414.263 148.499 415.572 149.991 416.842C151.535 418.157 153.07 419.481 154.598 420.816C156.435 422.421 158.303 424.093 159.412 426.266C160.698 428.786 160.834 431.715 160.944 434.542C161.041 437.032 161.138 439.522 161.235 442.013C161.337 444.641 161.435 447.311 160.792 449.861C160.149 452.411 158.65 454.87 156.3 456.051C155.29 456.559 154.121 456.813 153.016 456.573C151.862 456.322 150.874 455.556 150.115 454.652C148.441 452.66 147.757 450.05 146.808 447.627C144.369 441.397 140.067 436.158 136.87 430.332C135.514 427.86 134.35 426.115 134.805 423.204C135.25 420.355 136.714 417.653 138.955 415.824Z" fill="#E2AC83"/>
<path d="M147.545 431.378C148.036 430.365 153.009 427.427 153.744 426.574" stroke="#C98F67" stroke-miterlimit="10" stroke-linecap="round" stroke-linejoin="round"/>
<path d="M150.728 434.389C151.948 433.337 154.989 430.222 156.012 428.977" stroke="#C98F67" stroke-miterlimit="10" stroke-linecap="round" stroke-linejoin="round"/>
<path d="M154.559 453.669C152.74 452.105 152.113 449.606 151.445 447.302C149.145 439.376 145.217 431.925 139.977 425.549C138.66 423.946 137.054 422.328 135.154 421.688C135.009 422.187 134.885 422.692 134.805 423.204C134.351 426.115 135.514 427.86 136.87 430.332C140.067 436.158 144.368 441.396 146.808 447.626C147.757 450.049 148.442 452.659 150.115 454.652C150.875 455.556 151.862 456.323 153.016 456.574C154.12 456.814 155.29 456.56 156.3 456.052C156.795 455.803 157.243 455.486 157.662 455.135C156.525 454.888 155.469 454.452 154.559 453.669Z" fill="#D39972"/>
<path d="M124.859 430.575C126.247 427.281 129.071 424.622 132.443 423.434C133.485 423.067 134.688 422.849 135.657 423.379C136.332 423.748 136.777 424.42 137.196 425.065C139.385 428.442 141.574 431.819 143.763 435.196C146.857 439.97 150.04 444.988 150.585 450.651C150.807 452.955 150.549 455.379 149.37 457.372C148.191 459.364 145.964 460.831 143.656 460.66C141.852 460.526 140.261 459.464 138.836 458.35C134.335 454.828 130.549 450.403 127.739 445.427C125.01 440.596 122.468 436.247 124.859 430.575Z" fill="#E2AC83"/>
<path d="M136.984 443.456C138.079 442.729 138.971 441.699 139.535 440.512" stroke="#C98F67" stroke-miterlimit="10" stroke-linecap="round" stroke-linejoin="round"/>
<path d="M137.235 446.989C139.324 445.626 141.06 443.726 142.229 441.523" stroke="#C98F67" stroke-miterlimit="10" stroke-linecap="round" stroke-linejoin="round"/>
<path d="M124.148 432.84C123.177 437.449 125.384 441.26 127.737 445.427C130.547 450.403 134.333 454.828 138.834 458.35C140.258 459.465 141.85 460.527 143.653 460.66C144.415 460.717 145.165 460.581 145.874 460.32C143.684 457.709 141.98 454.531 140.314 451.532C136.265 444.245 131.289 436.985 124.148 432.84Z" fill="#D39972"/>
<path d="M117.11 436.746C119.329 435.413 122.289 435.133 124.485 436.502C125.605 437.2 126.448 438.253 127.269 439.286C129.851 442.535 132.433 445.783 135.015 449.032C136.682 451.129 138.361 453.246 139.549 455.647C140.884 458.346 141.558 461.493 140.758 464.396C139.958 467.298 137.446 469.828 134.444 470.043C131.17 470.278 128.334 467.925 125.974 465.644C121.122 460.955 116.061 455.919 112.23 450.336C109.281 446.038 113.099 439.157 117.11 436.746Z" fill="#E2AC83"/>
<path d="M125.472 454.86C127.241 453.375 128.577 451.381 129.277 449.18" stroke="#C98F67" stroke-miterlimit="10" stroke-linecap="round" stroke-linejoin="round"/>
<path d="M128.165 461.632C125.166 457.053 122.651 452.141 119.234 447.865C117.368 445.53 115.067 443.322 112.355 442.211C111.03 444.932 110.635 448.011 112.232 450.338C116.062 455.921 121.124 460.957 125.976 465.646C128.336 467.927 131.172 470.28 134.446 470.045C134.679 470.028 134.903 469.973 135.129 469.93C132.414 467.576 130.144 464.654 128.165 461.632Z" fill="#D39972"/>
<path d="M127.309 457.364C129.029 455.863 130.614 454.207 132.037 452.422" stroke="#C98F67" stroke-miterlimit="10" stroke-linecap="round" stroke-linejoin="round"/>
<path d="M114.813 469.19C116.449 470.794 118.043 472.481 119.992 473.685C121.941 474.889 124.341 475.572 126.548 474.957C128.755 474.342 130.591 472.161 130.294 469.89C130.147 468.765 129.531 467.763 128.92 466.807C125.3 461.15 121.309 455.731 116.981 450.596C115.345 448.655 113.548 446.676 111.147 445.853C107.671 444.661 103.518 446.438 101.728 449.647C99.9001 452.924 100.302 457.985 103.564 460.13C107.617 462.794 111.332 465.777 114.813 469.19Z" fill="#E2AC83"/>
<path d="M115.847 464.182C117.138 462.893 118.229 461.404 119.07 459.785" stroke="#C98F67" stroke-miterlimit="10" stroke-linecap="round" stroke-linejoin="round"/>
<path d="M117.614 465.947C119.22 464.558 120.488 462.78 121.277 460.809" stroke="#C98F67" stroke-miterlimit="10" stroke-linecap="round" stroke-linejoin="round"/>
<path d="M124.606 472.553C122.098 471.385 119.864 469.707 117.73 467.946C114.461 465.248 111.376 462.327 108.506 459.208C107.185 457.773 105.505 456.152 103.599 456.565C102.781 456.742 102.137 457.262 101.566 457.89C102.041 458.781 102.699 459.559 103.564 460.128C107.617 462.793 111.332 465.776 114.814 469.19C116.45 470.794 118.044 472.48 119.993 473.685C121.942 474.889 124.342 475.572 126.549 474.957C127.251 474.761 127.904 474.395 128.474 473.93C127.149 473.572 125.852 473.133 124.606 472.553Z" fill="#D39972"/>
<path d="M102.92 453.716C102.619 452.307 103.064 450.807 103.897 449.631C104.73 448.455 105.918 447.572 107.18 446.875" stroke="#C98F67" stroke-miterlimit="10" stroke-linecap="round" stroke-linejoin="round"/>
<path d="M112.876 441.673C113.651 438.287 116.688 435.542 120.135 435.113" stroke="#C98F67" stroke-miterlimit="10" stroke-linecap="round" stroke-linejoin="round"/>
<path d="M126.38 431.548C126.664 428.147 129.424 425.107 132.781 424.496" stroke="#C98F67" stroke-miterlimit="10" stroke-linecap="round" stroke-linejoin="round"/>
<path d="M136.701 420.29C136.607 420.106 136.636 419.885 136.677 419.683C137.214 417.038 139.706 414.924 142.403 414.824" stroke="#C98F67" stroke-miterlimit="10" stroke-linecap="round" stroke-linejoin="round"/>
<path d="M331.098 462.105C324.156 467.427 314.742 467.757 305.999 468.026C287.099 468.609 268.223 469.947 249.43 472.038C241.556 472.914 233.301 474.076 226.964 478.829C222.122 482.461 218.871 487.912 217.002 493.67C215.133 499.427 214.547 505.518 214.237 511.563C213.392 528.031 214.518 544.6 217.582 560.802C226.579 608.377 225.981 659.234 233.057 707.133C243.588 707.668 254.533 710.588 265.064 711.123C271.594 711.454 278.212 711.779 284.607 710.419C281.055 659.042 279.42 608.076 281.08 556.603C281.14 554.73 281.251 552.722 282.395 551.238C283.378 549.963 284.949 549.312 286.458 548.752C295.687 545.325 305.352 543.249 314.988 541.236C350.866 533.739 386.893 526.949 423.039 520.872C433.807 519.062 444.696 517.284 454.787 513.114C464.879 508.945 474.257 502.09 479.298 492.404C484.339 482.718 484.23 469.965 477.253 461.566C471.08 454.134 461.045 451.303 451.549 449.526C410.38 441.82 364.337 436.622 331.098 462.105Z" fill="#865D9B"/>
<path opacity="0.5" d="M260.388 542.834C264.113 528.66 274.412 516.961 286.339 508.445C298.266 499.929 311.883 494.159 325.185 488.008C353.143 475.082 400.53 491.878 426.419 475.189C421.218 474.912 426.797 466.39 421.673 466.545C395.776 479.037 335.431 472.722 310.807 483.529C291.89 491.832 271.86 501.067 260.854 518.549C249.388 536.762 250.258 559.841 251.513 581.326C254.029 624.41 256.546 667.495 259.062 710.579C260.859 710.792 262.649 710.967 264.427 711.073C262.542 664.137 260.657 617.201 258.772 570.266C258.402 561.079 258.05 551.729 260.388 542.834Z" fill="#8B3A3A"/>
<g opacity="0.5">
<path d="M477.252 461.566C471.079 454.134 461.044 451.303 451.548 449.526C410.38 441.82 364.337 436.622 331.098 462.105C325.126 466.684 317.325 467.566 309.695 467.895C308.404 468.393 307.106 468.877 305.797 469.333C295.38 472.961 284.046 475.384 275.816 482.728C265.524 491.912 262.493 506.582 260.57 520.241C258.389 535.724 256.886 551.377 257.772 566.987C258.29 576.105 259.62 585.155 260.809 594.21C265.907 633.01 268.442 672.146 268.41 711.279C273.844 711.512 279.302 711.546 284.607 710.418C281.055 659.041 279.42 608.075 281.08 556.602C281.14 554.729 281.251 552.721 282.395 551.237C283.378 549.962 284.949 549.311 286.458 548.751C295.687 545.324 305.352 543.248 314.988 541.235C350.866 533.738 386.893 526.948 423.039 520.871C433.807 519.061 444.696 517.283 454.787 513.113C464.879 508.944 474.257 502.089 479.298 492.403C484.337 482.719 484.228 469.965 477.252 461.566Z" fill="#865D9B"/>
</g>
<path d="M461.262 527.643C453.988 528.396 446.792 529.756 439.662 531.365C431.15 533.285 422.726 535.567 414.248 537.626C406.392 539.534 398.409 540.828 390.729 543.192C374.061 548.322 356.309 549.725 339.076 551.774C329.864 552.869 320.579 554.08 311.34 553.245C302.101 552.41 292.765 549.331 286.072 542.908C277.77 534.941 272.695 519.778 274.908 508.309C277.154 496.667 287.361 487.041 297.483 481.817C308.115 476.33 320.088 474.13 331.861 471.996C369.056 465.256 406.25 458.516 443.445 451.776C452.291 450.173 461.15 453.135 470.035 454.497C481.496 456.255 493.871 458.753 501.494 467.491C507.026 473.831 509.08 482.445 510.284 490.772C511.005 495.757 511.477 500.919 510.104 505.765C507.505 514.941 498.709 521.19 489.576 523.94C480.445 526.69 470.748 526.661 461.262 527.643Z" fill="#865D9B"/>
<path opacity="0.5" d="M510.285 490.773C509.081 482.446 507.027 473.832 501.495 467.492C493.872 458.755 481.497 456.256 470.036 454.498C461.15 453.135 452.291 450.174 443.446 451.776C431.576 453.927 419.705 456.078 407.835 458.229C422.607 459.357 437.2 462.595 450.994 468.023C456.019 470 461.016 472.308 465.066 475.879C469.117 479.45 472.156 484.467 472.298 489.866C472.46 496.027 468.828 501.804 464.04 505.686C459.253 509.567 453.399 511.855 447.612 513.974C426.727 521.62 405.346 527.839 383.831 533.474C376.822 535.31 369.081 537.021 362.587 533.809C356.889 530.991 353.565 525.068 349.546 520.142C338.954 507.159 321.875 500.253 305.121 500.46C294.663 500.589 289.212 521.621 283.409 539.955C284.255 541.017 285.14 542.015 286.073 542.91C292.766 549.333 302.102 552.412 311.341 553.247C320.58 554.082 329.866 552.871 339.077 551.776C356.31 549.727 374.062 548.324 390.73 543.194C398.41 540.83 406.392 539.536 414.249 537.628C422.727 535.569 431.151 533.287 439.663 531.367C446.792 529.759 453.988 528.399 461.263 527.645C470.75 526.662 480.446 526.692 489.578 523.942C498.711 521.192 507.506 514.943 510.106 505.767C511.477 500.92 511.005 495.757 510.285 490.773Z" fill="#865D9B"/>
<path d="M281.731 710.448C298.611 713.742 316.204 713.335 332.914 709.265C333.813 709.046 334.75 708.795 335.431 708.168C336.435 707.243 336.63 705.754 336.747 704.394C340.534 660.482 327.873 615.52 337.773 572.571C340.678 559.967 345.53 547.373 344.096 534.519C342.478 520.011 332.175 506.813 318.492 501.724C306.833 497.388 289.421 498.674 279.997 507.749C271.32 516.104 274.242 536.128 273.767 547.284C272.288 581.977 272.831 616.756 275.389 651.387C276.848 671.137 278.962 690.839 281.731 710.448Z" fill="#865D9B"/>
<g opacity="0.5">
<path d="M328.742 575.685C330.622 565.463 333.105 554.862 339.833 546.94C348.096 537.212 361.152 533.313 373.448 529.885C389.423 525.432 405.399 520.979 421.374 516.526C433.33 513.193 445.397 509.817 456.341 503.96C473.402 494.829 487.022 479.579 494.55 461.777C492.994 460.847 491.356 460.037 489.657 459.328C484.134 471.895 474.325 482.801 462.959 490.742C446.29 502.387 426.496 508.587 406.887 513.965C387.277 519.343 367.287 524.15 349.229 533.496C342.198 537.136 335.339 541.603 330.755 548.059C325.587 555.338 323.794 564.425 322.396 573.241C315.158 618.887 315.156 665.671 322.361 711.322C323.713 711.12 325.063 710.902 326.408 710.653C319.783 665.943 320.565 620.14 328.742 575.685Z" fill="#8B3A3A"/>
</g>
<path d="M382.372 229.14C382.186 228.507 381.894 227.802 381.269 227.591C380.903 227.468 380.504 227.546 380.127 227.627C376.955 228.303 373.795 229.033 370.648 229.818C366.437 230.868 362.212 232.028 358.361 234.031C354.511 236.033 351.019 238.956 349.026 242.811C344.741 251.095 334.946 254.576 327.161 259.713C319.75 264.604 312.325 269.502 304.489 273.68C301.639 275.2 298.729 276.627 296.048 278.43C293.23 280.325 290.699 282.612 288.256 284.971C283.013 290.034 278.129 295.469 273.651 301.22C272.256 303.012 270.864 304.913 270.401 307.137C270.033 308.904 270.284 310.734 270.55 312.519C271.681 320.089 273.083 327.619 274.752 335.089C276.155 341.368 278.531 347.446 280.66 353.517C283.395 361.316 286.198 369.247 291.115 375.89C295.36 381.624 300.998 386.149 305.978 391.257C313.401 398.87 319.405 407.862 323.592 417.636C329.5 431.428 329.863 447.128 326.58 461.858C326.289 463.164 325.904 464.309 325.754 465.639C336.02 468.041 346.937 465.125 357.287 463.12C371.008 460.463 384.851 458.438 398.758 457.053C418.952 455.042 439.48 454.397 459.413 458.204C471.557 460.523 484.175 463.851 496.48 462.655C493.129 451.068 487.662 440.223 482.226 429.455C477.403 419.902 472.58 410.349 467.757 400.796C463.274 391.916 458.776 383.011 453.247 374.742C435.539 348.258 425.751 318.793 414.653 288.93C410.288 277.184 406.198 265.294 400.551 254.108C396.026 245.134 385.207 238.782 382.372 229.14Z" fill="#8B3A3A"/>
<path opacity="0.5" d="M396.223 340.969C390.168 348.006 381.168 351.889 372.113 353.935C363.057 355.981 353.722 356.413 344.548 357.839C342.045 358.228 339.504 358.708 337.279 359.918C334.098 361.648 331.883 364.68 329.483 367.392C321.959 375.893 311.662 381.9 300.558 384.266C311.563 384.946 322.388 384.171 333.106 381.583C340.565 379.782 347.815 377.211 354.998 374.513C360.37 372.495 365.732 370.394 370.751 367.611C381.431 361.687 390.39 351.698 396.223 340.969Z" fill="#8B3A3A"/>
<path d="M288.092 294.977C288.318 301.213 289.068 307.717 292.521 312.915C295.974 318.112 302.874 321.5 308.639 319.112C312.88 317.356 315.459 313.1 318.999 310.178C326.336 304.12 337.88 303.712 343.348 295.925C344.96 293.63 345.843 290.92 346.894 288.32C348.151 285.211 349.675 282.208 350.745 279.03C355.008 266.37 351.826 251.794 357.623 239.759C358.957 236.989 360.724 234.482 362.716 232.141C361.228 232.684 359.77 233.301 358.363 234.033C354.512 236.035 351.021 238.958 349.028 242.813C344.743 251.097 334.948 254.578 327.163 259.715C319.752 264.606 312.327 269.504 304.491 273.682C301.641 275.202 298.731 276.629 296.05 278.432C293.232 280.327 290.701 282.614 288.258 284.973C288.204 285.025 288.153 285.08 288.099 285.132C287.981 288.411 287.973 291.696 288.092 294.977Z" fill="#8B3A3A"/>
<g opacity="0.5">
<path d="M453.251 374.742C442.54 358.722 434.733 341.609 427.774 323.979C413.474 319.783 400.852 312.375 392.172 300.553C383.198 288.331 375.263 275.347 368.481 261.785C369.2 301.846 390.563 332.594 397.76 368.938C378.19 374.051 357.328 372.065 337.212 369.949C327.961 368.976 318.709 368.003 309.458 367.029C307.777 366.852 306.015 366.646 304.634 365.672C302.868 364.427 302.112 362.216 301.5 360.143C293.604 333.382 292.4 304.709 297.779 277.34C297.195 277.691 296.614 278.048 296.049 278.428C293.231 280.323 290.7 282.61 288.257 284.969C283.014 290.032 278.13 295.467 273.652 301.218C272.257 303.01 270.864 304.911 270.402 307.135C270.034 308.902 270.285 310.732 270.551 312.517C271.682 320.087 273.084 327.617 274.753 335.087C276.156 341.366 278.532 347.444 280.661 353.515C283.396 361.314 286.199 369.245 291.117 375.888C295.362 381.622 301 386.147 305.98 391.255C312.405 397.845 317.761 405.47 321.802 413.738C341.66 415.647 361.271 420.04 380.98 423.358C404.685 427.349 429.18 429.756 452.614 424.401C460.531 422.592 468.267 419.848 475.559 416.24C472.96 411.092 470.361 405.944 467.762 400.795C463.278 391.917 458.78 383.011 453.251 374.742Z" fill="#8B3A3A"/>
</g>
<g opacity="0.5">
<path d="M420.116 449.695C392.68 450.714 365.537 455.425 338.383 459.481C334.538 460.055 330.671 460.609 326.794 460.827C326.722 461.17 326.658 461.514 326.582 461.856C326.291 463.162 325.906 464.307 325.756 465.637C336.022 468.039 346.939 465.123 357.289 463.118C371.01 460.461 384.853 458.436 398.761 457.051C418.955 455.04 439.483 454.395 459.416 458.202C471.56 460.521 484.178 463.849 496.483 462.653C496.216 461.73 495.914 460.819 495.622 459.905C471.675 451.122 445.657 448.746 420.116 449.695Z" fill="#8B3A3A"/>
</g>
<path d="M356.823 235.08C353.441 237.792 349.76 240.13 345.867 242.039C340.118 244.858 333.398 246.736 327.343 244.652C324.168 243.559 321.434 241.454 319.03 239.109C309.551 229.859 304.689 216.798 302.301 203.77C292.063 209.951 284.474 220.347 281.146 231.834C280.206 235.077 279.608 238.503 280.188 241.829C280.574 244.045 281.468 246.135 282.12 248.288C282.78 250.468 283.193 252.723 283.35 254.995C284.237 267.902 291.09 279.947 292.433 292.815C292.828 296.598 292.459 300.426 292.793 304.215C293.127 308.004 294.3 311.94 297.146 314.463C300.918 317.807 307.309 317.596 310.853 314.012C312.97 311.87 314.034 308.865 316.137 306.709C321.066 301.656 329.802 302.842 335.435 298.586C337.308 297.17 338.717 295.231 339.951 293.234C347.665 280.745 349.313 265.578 351.02 250.999C351.754 244.744 351.536 238.502 356.823 235.08Z" fill="#E2AC83"/>
<path d="M343.709 243.028C341.566 249.725 340.825 256.947 339.64 263.936C338.023 273.476 335.063 283.523 327.535 289.601C326.897 290.116 326.219 290.604 325.445 290.874C323.485 291.557 321.297 290.712 319.634 289.47C316.161 286.875 314.225 282.736 312.723 278.668C311.471 275.275 310.424 271.806 309.59 268.287C309.116 266.286 308.708 264.241 308.825 262.188C308.961 259.789 309.804 257.496 310.52 255.202C312.69 248.25 313.732 241.025 314.348 233.753C307.885 225.146 304.26 214.448 302.303 203.77C292.065 209.951 284.476 220.347 281.148 231.834C280.208 235.077 279.61 238.503 280.19 241.829C280.576 244.045 281.47 246.135 282.122 248.288C282.782 250.468 283.195 252.723 283.352 254.995C284.239 267.902 291.092 279.947 292.435 292.815C292.83 296.598 292.461 300.426 292.795 304.215C293.129 308.004 294.302 311.94 297.148 314.463C300.92 317.807 307.311 317.596 310.855 314.012C312.972 311.87 314.037 308.865 316.139 306.709C321.068 301.656 329.804 302.842 335.437 298.586C337.31 297.17 338.719 295.231 339.953 293.234C347.667 280.745 349.315 265.578 351.022 250.999C351.698 245.228 351.575 239.473 355.703 235.929C352.63 238.275 349.339 240.337 345.867 242.039C345.162 242.385 344.441 242.716 343.709 243.028Z" fill="#D39972"/>
<path d="M355.703 235.927C356.075 235.643 356.458 235.371 356.823 235.078C356.414 235.343 356.049 235.63 355.703 235.927Z" fill="#D39972"/>
<path d="M300.24 309.999C302.129 309.565 304.296 310.417 305.955 309.414C307.336 308.579 307.764 306.81 308.06 305.224C308.514 302.793 308.948 300.358 309.382 297.923C309.845 295.324 310.307 292.645 309.745 290.067C309.224 287.677 307.862 285.566 306.483 283.546C306.228 283.172 305.962 282.775 305.937 282.323C305.893 281.539 306.558 280.928 306.978 280.265C308.397 278.025 306.941 274.989 304.896 273.301C302.851 271.613 300.26 270.638 298.372 268.777C305.061 256.262 309.292 242.445 310.798 228.336C306.505 220.852 303.866 212.307 302.302 203.77C292.064 209.951 284.475 220.347 281.147 231.834C280.207 235.077 279.609 238.503 280.189 241.829C280.575 244.045 281.469 246.135 282.121 248.288C282.781 250.468 283.194 252.723 283.351 254.995C284.238 267.902 291.091 279.947 292.434 292.815C292.829 296.598 292.46 300.426 292.794 304.215C293.095 307.622 294.085 311.14 296.349 313.65C297.162 311.937 298.435 310.414 300.24 309.999Z" fill="#BF835A"/>
<path d="M355.703 235.927C356.075 235.643 356.458 235.371 356.823 235.078C356.414 235.343 356.049 235.63 355.703 235.927Z" fill="#D39972"/>
<path d="M322.454 286.727C321.277 284.523 321.662 281.749 322.821 279.537C323.98 277.325 325.816 275.555 327.62 273.827C336.846 264.992 340.125 261.851 349.35 253.016" stroke="#C98F67" stroke-miterlimit="10" stroke-linecap="round" stroke-linejoin="round"/>
<path d="M236.717 144.236C234.382 139.019 232.718 133.406 232.744 127.691C232.77 121.976 234.618 116.135 238.555 111.992C240.269 110.188 242.33 108.744 244.491 107.509C246.812 106.183 249.302 105.075 251.947 104.687C258.216 103.768 264.876 107.465 267.412 113.272C269.376 111.078 271.91 109.909 274.849 109.731C277.788 109.553 280.783 110.577 282.997 112.518C285.438 114.657 286.858 117.775 287.495 120.957C288.132 124.14 288.05 127.418 287.908 130.66C289.513 130.208 291.226 131.142 292.365 132.359C293.504 133.577 294.077 135.231 294.314 136.882C295.025 141.829 292.908 146.886 289.557 150.593C286.206 154.3 281.734 156.814 277.143 158.787C271.95 161.019 266.273 162.661 260.684 161.813C256.216 161.135 252.15 158.923 248.189 156.748C243.279 154.051 239.005 149.35 236.717 144.236Z" fill="#41241C"/>
<g opacity="0.5">
<path d="M266.311 130.492C264.25 130.468 262.152 130.545 260.167 129.989C258.182 129.433 256.278 128.105 255.65 126.141C254.571 128.592 252.828 130.972 250.274 131.78C246.999 132.815 243.475 130.942 241.037 128.523C237.915 125.426 235.874 121.303 235.153 116.969C233.548 120.271 232.761 124.003 232.744 127.69C232.718 133.405 234.382 139.019 236.717 144.235C239.005 149.349 243.279 154.05 248.189 156.747C252.15 158.922 256.216 161.134 260.684 161.812C266.273 162.66 271.95 161.018 277.143 158.786C281.734 156.813 286.206 154.299 289.557 150.592C292.692 147.124 294.746 142.474 294.416 137.839C285.803 133.21 276.093 130.605 266.311 130.492Z" fill="#41241C"/>
</g>
<path opacity="0.5" d="M250.725 108.93C245.7 110.953 241.959 115.859 241.339 121.24C240.719 126.621 243.245 132.25 247.678 135.363C245.208 131.047 244.409 126.333 245.119 121.411C245.829 116.489 247.136 112.372 250.725 108.93Z" fill="#41241C"/>
<path opacity="0.5" d="M275.787 114.312C276.895 116.069 277.118 118.276 276.775 120.324C276.433 122.372 275.57 124.294 274.632 126.146C272.868 129.627 270.483 133.219 266.75 134.355C271.028 133.933 275.246 131.792 277.217 127.971C279.187 124.15 277.924 118.043 275.787 114.312Z" fill="#41241C"/>
<path opacity="0.5" d="M262.601 112.094C259.037 114.283 256.438 117.986 255.591 122.082C254.744 126.178 255.661 130.608 258.065 134.031C257.146 126.758 258.72 118.313 262.601 112.094Z" fill="#41241C"/>
<path opacity="0.15" d="M262.712 132.852C265.767 127.518 268.808 121.691 268.212 115.574C269.214 116.57 269.422 118.03 269.466 119.443C269.653 125.426 267.363 129.083 262.712 132.852Z" fill="#8B3A3A"/>
<path opacity="0.15" d="M250.627 113.387C248.5 116.738 247.553 120.822 247.989 124.767C248.426 128.712 250.242 132.491 253.05 135.295C250.344 128.661 249.333 120.436 250.627 113.387Z" fill="#8B3A3A"/>
<path d="M305.237 227.924C309.641 220.96 314.115 213.832 316.031 205.817C317.947 197.803 316.874 188.598 311.24 182.586C314.845 171.312 311.681 158.5 303.931 149.555C296.181 140.609 284.292 135.665 272.457 135.523C265.988 135.445 259.506 136.722 253.551 139.247C246.473 134.744 236.521 135.341 228.989 139.036C221.457 142.731 215.715 149.41 211.717 156.785C210.124 159.724 208.768 162.817 208.034 166.079C206.948 170.908 207.258 175.932 207.699 180.862C208.33 187.912 209.252 195.072 212.218 201.498C215.702 209.045 221.838 215.131 228.76 219.733C235.682 224.335 243.408 227.572 251.142 230.618C259.474 233.9 267.892 236.998 276.519 239.403C279.525 240.241 282.606 240.999 285.723 240.87C293.372 240.553 301.145 234.396 305.237 227.924Z" fill="#41241C"/>
<g opacity="0.5">
<path d="M311.24 182.586C311.266 182.506 311.283 182.424 311.308 182.344C307.594 190.222 300.418 196.467 293.244 201.733C278.496 212.559 262.369 221.496 245.383 228.29C247.294 229.089 249.218 229.859 251.142 230.617C259.474 233.899 267.892 236.997 276.519 239.402C279.525 240.24 282.606 240.998 285.723 240.869C293.373 240.553 301.146 234.396 305.238 227.924C309.642 220.96 314.116 213.832 316.032 205.817C317.946 197.804 316.874 188.599 311.24 182.586Z" fill="#41241C"/>
</g>
<path d="M219.734 216.938C224.665 225.212 229.596 233.486 234.528 241.76C238.238 247.985 241.988 254.263 246.939 259.555C251.453 264.379 256.872 268.276 262.522 271.699C265.903 273.747 269.452 275.664 273.333 276.414C277.214 277.164 281.516 276.603 284.581 274.107C290.015 269.683 294.107 262.615 297.429 256.445C301.734 248.449 305.684 239.89 305.827 230.81C305.917 225.072 304.476 219.433 303.045 213.875C301.936 209.566 300.826 205.257 299.717 200.948C298.22 195.135 296.707 189.277 294.094 183.873C291.48 178.469 287.658 173.484 282.463 170.476C277.543 167.628 271.75 166.73 266.084 166.26C258.172 165.604 250.122 165.688 242.401 167.538C234.68 169.387 227.271 173.095 221.854 178.899C219.834 181.063 218.085 183.538 217.117 186.336C216.35 188.552 216.091 190.909 215.917 193.248C215.383 200.392 216.067 210.785 219.734 216.938Z" fill="#E2AC83"/>
<path d="M229.085 205.151C231.651 203.252 233.056 200.133 233.175 196.943C241.745 197.991 250.614 194.987 256.597 188.761C262.63 191.415 270.11 191.424 276.315 189.201C279.398 192.624 283.184 195.218 287.665 196.287C288.874 196.575 290.13 196.765 291.359 196.58C292.725 196.374 293.982 195.717 295.14 194.965C296 194.406 296.811 193.791 297.585 193.137C296.632 189.969 295.532 186.853 294.093 183.877C291.479 178.473 287.657 173.488 282.462 170.48C277.542 167.632 271.749 166.734 266.083 166.264C258.171 165.608 250.121 165.692 242.4 167.542C234.679 169.391 227.27 173.099 221.852 178.903C219.832 181.067 218.083 183.542 217.115 186.34C216.348 188.556 216.089 190.913 215.915 193.252C215.383 200.396 216.067 210.788 219.734 216.942C221.326 219.613 222.917 222.284 224.509 224.954C228.287 219.162 229.982 212.014 229.085 205.151Z" fill="#D39972"/>
<path d="M264.989 220.171C267.603 219.416 270.145 218.411 272.568 217.172" stroke="#41241C" stroke-width="1.5" stroke-miterlimit="10" stroke-linecap="round" stroke-linejoin="round"/>
<path d="M270.043 218.348C268.676 218.937 267.279 219.454 265.858 219.898C265.943 220.123 266.025 220.349 266.128 220.577C267.283 223.146 269.138 224.815 270.273 224.305C271.407 223.795 271.391 221.299 270.236 218.73C270.175 218.597 270.106 218.476 270.043 218.348Z" fill="#41241C"/>
<path d="M235.688 236.342C237.543 234.874 239.162 233.108 240.465 231.133" stroke="#41241C" stroke-width="1.5" stroke-miterlimit="10" stroke-linecap="round" stroke-linejoin="round"/>
<path d="M241.052 232.373C240.793 232.033 240.521 231.727 240.246 231.438C239.392 232.686 238.412 233.843 237.325 234.893C237.376 234.963 237.417 235.033 237.47 235.102C239.177 237.342 241.363 238.547 242.352 237.793C243.341 237.041 242.759 234.613 241.052 232.373Z" fill="#41241C"/>
<path d="M292.808 219.234C294.048 221.115 291.55 224.949 287.229 227.799C282.908 230.649 278.399 231.434 277.159 229.554C275.919 227.673 278.417 223.839 282.738 220.989C287.059 218.139 291.568 217.353 292.808 219.234Z" fill="#D8827C"/>
<path d="M247.397 246.333C247.16 244.093 242.795 242.719 237.647 243.264C236.944 243.338 236.266 243.447 235.615 243.581C237.136 246.12 238.682 248.65 240.332 251.102C244.562 250.279 247.605 248.3 247.397 246.333Z" fill="#D8827C"/>
<path d="M277.194 256.568C273.316 254.387 268.206 254.619 264.541 257.142C264.003 257.512 263.487 257.93 262.883 258.177C262.114 258.491 261.26 258.504 260.449 258.682C259.638 258.861 258.792 259.285 258.504 260.064C258.259 260.725 258.492 261.489 258.928 262.044C259.364 262.598 259.977 262.983 260.585 263.34C260.781 264.694 262.462 265.568 263.809 265.809C265.1 266.04 266.438 265.999 267.712 265.689C270 265.133 272.015 263.731 273.648 262.034C275.281 260.337 275.94 258.561 277.194 256.568Z" fill="#C46966"/>
<path d="M259.165 264.91C265.392 260.054 272.939 256.909 280.772 255.906" stroke="#41241C" stroke-width="1.5" stroke-miterlimit="10" stroke-linecap="round" stroke-linejoin="round"/>
<path d="M235.959 220.242C241.349 221.12 246.299 224.408 249.198 229.036C252.097 233.664 252.896 239.553 251.334 244.786C250.172 239.895 247.885 235.579 244.677 231.709C242.963 229.641 240.885 227.72 238.3 226.992C235.715 226.264 232.553 227.053 231.21 229.379C233.675 226.833 234.916 223.626 235.959 220.242Z" fill="#D39972"/>
<path d="M230.225 230.664C232.775 227.594 234.831 224.114 236.29 220.398" stroke="#41241C" stroke-width="1.5" stroke-miterlimit="10" stroke-linecap="round" stroke-linejoin="round"/>
<path d="M268.181 243.349C267.358 243.085 266.484 243.494 265.728 243.91C263.417 245.183 261.194 246.645 258.733 247.594C256.862 248.315 254.8 248.716 252.831 248.466C252.875 248.557 252.915 248.651 252.97 248.737C253.429 249.459 254.217 249.894 254.987 250.267C257.341 251.409 259.842 252.234 262.404 252.758C263.402 250.192 264.794 247.78 266.557 245.666C267.164 244.939 267.823 244.226 268.181 243.349Z" fill="#D39972"/>
<path d="M244.899 223.762C247.51 226.737 250.192 229.835 251.349 233.62C252.645 237.857 251.874 242.433 252.411 246.83C252.492 247.493 252.611 248.173 252.969 248.737C253.428 249.459 254.216 249.894 254.986 250.267C257.729 251.597 260.667 252.525 263.677 253.012" stroke="#41241C" stroke-width="1.5" stroke-miterlimit="10" stroke-linecap="round" stroke-linejoin="round"/>
<path d="M269.19 206.875C265.376 209.027 262.28 212.428 260.494 216.426C258.709 220.425 257.75 225.322 258.693 229.599C255.261 224.048 252.386 218.153 250.125 212.03C257.59 211.081 262.437 210.194 269.19 206.875Z" fill="#D39972"/>
<path d="M251.024 211.881C259.09 211.103 266.977 208.52 273.94 204.375" stroke="#41241C" stroke-width="1.5" stroke-miterlimit="10" stroke-linecap="round" stroke-linejoin="round"/>
<path d="M298.369 190.794C296.677 191.939 294.734 192.711 292.717 193.039C291.924 193.168 291.119 193.229 290.316 193.214C285.299 193.124 281.044 190.168 279.164 185.516C271.547 187.431 263.475 186.925 256.217 183.924C250.608 191.477 239.971 195.183 230.889 192.728C229.392 196.464 227.574 200.357 224.006 202.22C224.914 205.837 225.404 209.598 224.989 213.303C224.574 217.009 223.208 220.668 220.74 223.463C216.8 219.382 213.98 214.052 212.402 208.603C210.123 200.734 209.22 192.353 210.78 184.311C212.34 176.269 216.509 168.588 223.038 163.64C226.635 160.913 230.834 159.073 235.137 157.71C248.23 153.564 262.659 153.763 275.633 158.267C278.096 159.122 280.533 160.142 282.642 161.675C285.668 163.876 287.866 167.02 289.805 170.221C294.103 177.317 296.148 182.798 298.369 190.794Z" fill="#41241C"/>
<g opacity="0.5">
<path d="M278.701 177.872C274.109 179.9 269.155 181.311 264.137 181.192C259.119 181.073 254.447 179.895 250.947 176.297C250.339 180.091 247.866 183.452 244.651 185.556C241.436 187.66 237.541 188.58 233.699 188.614C231.641 188.632 229.288 188.831 228.073 187.169C227.534 191.302 226.752 195.622 224.131 198.863C222.773 200.543 220.703 202.39 218.68 203.148C221.436 209.365 222.246 216.42 221.023 223.106C223.304 220.359 224.588 216.856 224.986 213.302C225.401 209.596 224.911 205.835 224.003 202.219C227.571 200.356 229.389 196.464 230.886 192.727C239.968 195.182 250.604 191.476 256.213 183.923C263.471 186.924 271.544 187.43 279.16 185.515C281.04 190.167 285.295 193.123 290.312 193.214C291.116 193.228 291.92 193.168 292.713 193.039C294.73 192.712 296.673 191.94 298.365 190.794C298.283 190.499 298.202 190.215 298.12 189.927C295.638 189.925 293.173 189.684 290.775 189.029C285.305 187.533 280.105 183.369 278.701 177.872Z" fill="#41241C"/>
</g>
<path opacity="0.5" d="M291.387 183.423C296.222 170.169 294.585 154.72 287.08 142.773C292.659 148.163 296.556 154.988 297.482 162.69C298.408 170.392 295.529 176.864 291.387 183.423Z" fill="#41241C"/>
<path opacity="0.5" d="M222.261 151.082C216.919 156.958 214.089 164.858 213.564 172.783C213.039 180.707 214.702 188.663 217.482 196.102C214.898 181.243 215.8 164.709 222.261 151.082Z" fill="#41241C"/>
<path opacity="0.5" d="M238.904 138.363C233.812 141.745 230.485 147.233 228.174 152.892C226.157 157.831 224.779 163.102 224.845 168.437C224.9 172.945 226.028 179.48 229.536 182.647C229.816 179.201 228.123 174.992 227.987 171.369C227.839 167.424 228.168 163.462 228.95 159.592C230.511 151.859 233.893 144.473 238.904 138.363Z" fill="#41241C"/>
<path opacity="0.5" d="M265.271 174.804C269 168.9 270.285 161.502 268.766 154.686C270.365 159.255 270.925 164.184 270.391 168.994C272.379 164.476 274.149 159.805 274.805 154.913C275.461 150.021 274.933 144.853 272.543 140.535C275.631 145.445 277.364 151.862 276.739 157.628C276.114 163.394 273.493 168.925 269.425 173.059C267.96 174.549 267.338 174.504 265.271 174.804Z" fill="#41241C"/>
<path opacity="0.15" d="M233.174 159.141C234.457 152.036 238.256 145.411 243.74 140.715C238.739 149.143 235.823 159.223 237.784 168.825C237.595 164.86 238.661 160.845 240.792 157.496C239.56 164.885 238.812 172.942 242.537 179.442C237.822 174.967 235.114 168.452 235.268 161.954C235.202 164.746 234.781 167.337 235.17 170.155C235.282 170.963 236.29 182.433 236.29 182.433C236.29 182.433 232.977 169.245 232.841 167.894C232.549 164.979 232.653 162.024 233.174 159.141Z" fill="#8B3A3A"/>
<path opacity="0.15" d="M277.468 174.152C281.002 169.785 283.139 164.303 283.493 158.696C283.847 153.089 282.416 147.382 279.459 142.605C283.94 145.836 286.019 151.821 286.426 157.33C286.707 161.137 286.235 165.072 284.517 168.481C282.799 171.89 281.175 173.239 277.468 174.152Z" fill="#8B3A3A"/>
<path opacity="0.15" d="M298.823 182.846C302.422 177.844 304.408 171.699 304.417 165.537C304.426 159.374 302.459 153.224 298.874 148.211C302.545 151.225 304.617 156.048 306.062 160.573C306.948 163.349 307.54 166.252 307.414 169.164C307.152 175.21 304.114 179.911 298.823 182.846Z" fill="#8B3A3A"/>
<path opacity="0.15" d="M257.852 173.992C264.205 163.854 265.301 150.61 260.701 139.566C263.868 145.66 266.337 151.154 266.129 158.018C265.921 164.883 263.381 169.917 257.852 173.992Z" fill="#8B3A3A"/>
<path opacity="0.5" d="M248.14 174.784C244.729 164.14 246.543 151.955 252.905 142.766C253.704 153.047 251.833 165.156 248.14 174.784Z" fill="#41241C"/>
<path opacity="0.15" d="M223.34 188.515C218.007 178.7 217.867 166.245 222.979 156.312C219.691 168.014 219.583 176.956 223.34 188.515Z" fill="#8B3A3A"/>
<path opacity="0.15" d="M215.123 200.715C208.369 188.441 207.214 173.223 212.036 160.07C210.03 173.099 211.062 188.174 215.123 200.715Z" fill="#8B3A3A"/>
<path d="M305.351 189.182C307.188 190.271 308.495 192.078 309.459 193.983C312.105 199.213 312.436 205.564 310.349 211.041C310.021 211.9 309.618 212.766 308.925 213.37C307.689 214.447 305.765 214.426 304.3 213.689C302.835 212.952 301.754 211.631 300.849 210.263C298.043 206.021 296.206 200.243 295.994 195.126C295.792 190.258 300.943 186.568 305.351 189.182Z" fill="#E2AC83"/>
<path d="M305.884 209.414C306.525 208.53 306.665 207.385 306.716 206.295C306.863 203.122 306.422 199.922 305.421 196.907C304.931 195.432 304.226 193.903 302.881 193.124C300.748 191.89 297.871 193.171 296.516 195.23C296.349 195.484 296.199 195.747 296.064 196.015C296.437 200.904 298.203 206.264 300.849 210.264C300.902 210.345 300.963 210.422 301.018 210.502C302.7 211.134 304.833 210.863 305.884 209.414Z" fill="#D39972"/>
<path d="M297.452 389.104C299.528 399.059 301.623 409.075 305.421 418.508C307.941 424.767 311.223 430.811 312.423 437.451C313.238 441.96 313.058 446.592 312.599 451.151C312.076 456.337 311.175 461.552 309.035 466.305C306.895 471.058 303.405 475.348 298.727 477.646C294.049 479.944 288.119 479.975 283.827 477.018C278.214 473.15 276.731 465.704 274.528 459.252C271.396 450.081 266.959 441.604 265.629 432.005C263.759 418.518 268.925 371.895 267.981 361.492C267.555 356.799 267.129 352.1 267.074 347.387C267.008 341.741 267.473 336.087 267.118 330.452C266.487 320.443 263.297 310.803 260.476 301.179C259.731 298.637 259.005 296.052 258.963 293.403C258.921 290.754 259.639 287.994 261.453 286.063C262.157 285.314 263.068 284.684 264.094 284.616C265.104 284.549 266.062 285.028 266.961 285.494C272.017 288.116 277.074 290.737 282.13 293.359C284.512 294.594 287.041 295.973 288.26 298.363C289.582 300.955 289.03 304.051 289.152 306.958C289.275 309.862 290.1 312.683 290.693 315.529C291.972 321.662 292.179 328.017 291.302 334.22C290.751 338.115 289.78 342.104 290.728 345.922C294.42 360.797 294.323 374.101 297.452 389.104Z" fill="#E2AC83"/>
<path d="M312.423 437.451C311.223 430.811 307.942 424.766 305.421 418.508C301.622 409.075 299.528 399.059 297.452 389.104C296.117 382.704 295.37 376.613 294.665 370.577C285.523 369.046 276.564 366.414 268.056 362.734C268.539 374.459 264.339 414.206 265.39 429.548C272.869 427.657 280.241 425.338 287.451 422.594C289.405 421.85 291.497 421.063 293.534 421.533C295.416 421.967 296.897 423.407 298.09 424.925C301.587 429.375 303.464 434.97 303.94 440.609C304.416 446.249 303.547 451.941 301.978 457.379C300.366 462.964 297.93 468.461 293.851 472.603C291.48 475.01 288.48 476.891 285.259 477.858C289.375 479.936 294.548 479.698 298.727 477.646C303.405 475.348 306.895 471.058 309.035 466.305C311.175 461.552 312.076 456.337 312.599 451.151C313.059 446.592 313.238 441.96 312.423 437.451Z" fill="#D39972"/>
<path d="M282.307 342.383C280.301 344.589 276.35 344.555 274.381 342.316C274.988 343.602 275.027 344.703 276.049 345.693C277.071 346.683 278.587 347.291 279.941 346.853C281.689 346.289 281.717 344.123 282.307 342.383Z" fill="#D39972"/>
<path d="M261.575 285.737C265.866 281.739 270.454 278.062 275.29 274.744C278.771 272.356 282.757 270.065 286.946 270.586C292.703 271.303 297.791 274.468 303.214 276.53C304.158 276.889 305.311 277.796 304.769 278.648C304.626 278.873 304.388 279.018 304.151 279.138C301.412 280.53 298.095 279.617 295.255 278.445C292.415 277.273 289.472 275.828 286.427 276.237C283.653 276.609 281.329 278.463 279.259 280.346C277.516 281.932 275.839 283.59 274.235 285.316C272.948 286.701 271.686 288.147 270.101 289.176C268.515 290.206 266.518 290.779 264.71 290.226C262.901 289.674 261.153 287.58 261.575 285.737Z" fill="#E2AC83"/>
<path d="M303.213 276.531C297.79 274.469 292.702 271.304 286.945 270.587C283.563 270.166 280.313 271.579 277.355 273.396C274.424 275.919 271.668 278.644 269.138 281.569C266.984 284.06 264.945 286.831 264.043 289.953C264.261 290.066 264.485 290.158 264.709 290.227C266.517 290.78 268.514 290.206 270.1 289.177C271.686 288.147 272.947 286.702 274.234 285.317C275.838 283.591 277.515 281.933 279.258 280.347C281.328 278.464 283.653 276.611 286.426 276.238C289.471 275.829 292.414 277.274 295.254 278.446C298.094 279.618 301.411 280.531 304.15 279.139C304.387 279.018 304.625 278.874 304.768 278.649C305.311 277.797 304.158 276.89 303.213 276.531Z" fill="#D39972"/>
<path d="M281.123 274.641C282.91 273.174 284.872 271.657 287.18 271.515C288.812 271.415 290.404 272.028 291.855 272.781C295.216 274.525 298.146 277.092 300.318 280.193C300.807 280.892 301.278 281.74 301.029 282.556C300.724 283.555 299.459 283.955 298.434 283.752C297.409 283.549 296.524 282.928 295.571 282.5C291.386 280.621 286.453 282.667 282.828 285.478C279.203 288.289 276.125 291.917 271.972 293.865C270.28 294.659 268.284 295.141 266.556 294.43C260.942 292.119 266.389 287.359 268.587 285.391C272.687 281.719 276.867 278.135 281.123 274.641Z" fill="#E2AC83"/>
<path d="M297.777 277.16C295.135 276.033 292.54 274.813 289.772 275.265C287.702 275.603 285.909 276.849 284.233 278.11C281.484 280.178 278.837 282.376 276.19 284.573C274.397 286.062 272.546 287.624 271.576 289.744C270.935 291.146 270.769 292.736 271.019 294.257C271.343 294.138 271.663 294.01 271.971 293.866C276.124 291.918 279.202 288.291 282.827 285.479C286.452 282.668 291.385 280.622 295.57 282.501C296.523 282.929 297.408 283.55 298.433 283.753C299.458 283.956 300.723 283.556 301.028 282.557C301.277 281.741 300.806 280.892 300.317 280.194C299.56 279.111 298.705 278.099 297.777 277.16Z" fill="#D39972"/>
<path d="M286.943 278.255C287.871 277.484 288.864 276.683 290.057 276.504C291.881 276.229 293.554 277.462 294.987 278.624C296.526 279.872 298.064 281.12 299.603 282.369C300.762 283.309 301.967 284.31 302.526 285.694C303.085 287.078 302.729 288.953 301.378 289.586C299.997 290.232 298.438 289.352 296.97 288.939C293.378 287.929 289.596 289.859 286.776 292.302C284.023 294.687 281.591 298.22 278.226 299.788C274.847 301.363 271.277 298.26 271.138 294.671C271.013 291.429 274.163 288.949 276.364 287.051C279.835 284.057 283.417 281.183 286.943 278.255Z" fill="#E2AC83"/>
<path d="M299.954 282.655C298.809 282.036 297.648 281.445 296.472 280.888C295.528 280.441 294.538 280.006 293.494 280.004C291.713 280.001 290.198 281.231 288.85 282.397C286.64 284.307 284.431 286.218 282.222 288.128C280.188 289.886 278.069 291.77 277.213 294.318C276.598 296.151 276.942 298.407 278.139 299.82C278.168 299.807 278.197 299.8 278.226 299.787C281.591 298.219 284.024 294.686 286.776 292.301C289.596 289.858 293.378 287.928 296.97 288.938C298.437 289.351 299.997 290.231 301.378 289.585C302.73 288.952 303.085 287.077 302.526 285.693C302.023 284.448 300.998 283.514 299.954 282.655Z" fill="#D39972"/>
<path d="M289.378 306.171C288.541 303.561 289.108 300.642 290.446 298.249C291.783 295.857 293.827 293.932 296.014 292.279C297.149 293.042 298.434 293.581 299.773 293.856C299.848 296.138 299.933 298.47 300.756 300.6C301.579 302.73 303.292 304.656 305.532 305.099C306.67 299.957 307.655 294.046 304.453 289.865C303.606 288.759 302.518 287.865 301.441 286.982C299.727 285.578 298.014 284.173 296.3 282.769C295.75 282.318 295.157 281.849 294.45 281.773C293.497 281.67 292.637 282.303 291.888 282.902C288.533 285.582 285.179 288.263 281.824 290.943C279.721 292.623 277.417 294.719 277.523 297.408C277.586 299.004 278.54 300.457 279.756 301.493C279.767 301.935 279.958 301.875 280.325 302.122C283.029 303.943 286.51 304.618 289.378 306.171Z" fill="#E2AC83"/>
<path d="M302.421 292.77C300.246 291.697 298.071 290.624 295.896 289.551C294.036 290.767 292.176 291.983 290.317 293.199C289.783 293.548 289.229 293.918 288.912 294.472C288.599 295.02 288.558 295.677 288.535 296.308C288.419 299.55 288.605 302.799 289.055 306.011C289.162 306.066 289.273 306.114 289.378 306.171C288.541 303.561 289.108 300.642 290.446 298.249C291.783 295.857 293.827 293.932 296.014 292.279C297.149 293.042 298.434 293.581 299.773 293.856C299.848 296.138 299.933 298.47 300.756 300.6C301.251 301.88 302.072 303.081 303.132 303.936C302.129 300.314 301.86 296.488 302.421 292.77Z" fill="#D39972"/>
<path d="M304.758 299.444C304.36 299.943 304.184 300.583 304.07 301.211C303.872 302.296 303.839 303.409 303.95 304.506C304.44 304.784 304.969 304.989 305.531 305.1C305.996 303.001 306.429 300.775 306.569 298.59C305.878 298.598 305.191 298.902 304.758 299.444Z" fill="#865D9B"/>
<path d="M301.123 277.399C302.325 277.842 303.607 278.056 304.889 278.054C304.779 277.406 303.938 276.807 303.214 276.532C301.529 275.891 299.877 275.145 298.227 274.398C298.275 274.999 298.542 275.59 298.947 276.046C299.519 276.691 300.313 277.101 301.123 277.399Z" fill="#865D9B"/>
<path d="M269.101 295.53C268.059 293.609 265.772 292.446 263.606 292.736" stroke="#C98F67" stroke-miterlimit="10" stroke-linecap="round" stroke-linejoin="round"/>
<path d="M271.259 296.322C272.979 296.045 274.827 296.97 275.635 298.513" stroke="#C98F67" stroke-miterlimit="10" stroke-linecap="round" stroke-linejoin="round"/>
<path d="M280.258 299.737C282.352 299.046 284.844 299.814 286.186 301.564" stroke="#C98F67" stroke-miterlimit="10" stroke-linecap="round" stroke-linejoin="round"/>
<path d="M172.245 374.599C175.752 373.843 179.373 373.851 182.961 373.862C185.32 373.869 187.73 373.885 189.961 374.652C190.255 374.753 190.568 374.887 190.718 375.159C190.904 375.497 190.773 375.915 190.639 376.277C189.954 378.122 189.269 379.967 188.585 381.812C188.209 382.825 187.756 383.927 186.794 384.419C186.19 384.727 185.483 384.738 184.806 384.72C179.988 384.592 173.917 383.726 169.489 381.727C168.021 381.064 166.821 379.616 167.247 377.92C167.778 375.802 170.384 374.999 172.245 374.599Z" fill="#E598CF"/>
<path opacity="0.5" d="M172.245 374.599C175.752 373.843 179.373 373.851 182.961 373.862C185.32 373.869 187.73 373.885 189.961 374.652C190.255 374.753 190.568 374.887 190.718 375.159C190.904 375.497 190.773 375.915 190.639 376.277C189.954 378.122 189.269 379.967 188.585 381.812C188.209 382.825 187.756 383.927 186.794 384.419C186.19 384.727 185.483 384.738 184.806 384.72C179.988 384.592 173.917 383.726 169.489 381.727C168.021 381.064 166.821 379.616 167.247 377.92C167.778 375.802 170.384 374.999 172.245 374.599Z" fill="#E598CF"/>
<path d="M166.436 381.1C167.789 382.096 169.451 382.562 171.076 382.99C175.596 384.181 180.153 385.23 184.738 386.136C184.84 385.359 185.303 384.863 185.405 384.086C179.158 382.494 172.925 380.652 166.745 378.816C166.586 379.416 166.456 380.481 166.436 381.1Z" fill="#E598CF"/>
<path opacity="0.5" d="M166.436 381.1C167.789 382.096 169.451 382.562 171.076 382.99C175.596 384.181 180.153 385.23 184.738 386.136C184.84 385.359 185.303 384.863 185.405 384.086C179.158 382.494 172.925 380.652 166.745 378.816C166.586 379.416 166.456 380.481 166.436 381.1Z" fill="#8B3A3A"/>
<path d="M267.257 380.723C267.962 382.461 268.658 384.477 267.787 386.138C266.899 387.831 264.784 388.389 262.9 388.716C252.296 390.555 241.367 390.501 230.781 388.557C227.164 387.893 223.58 387.009 219.922 386.627C207.897 385.371 195.438 389.555 183.818 386.215C183.069 384.758 184.275 382.31 185.825 381.78C186.63 381.505 187.506 381.6 188.356 381.635C191.67 381.772 194.936 380.95 198.202 380.373C205.786 379.033 213.532 379 221.233 378.971C227.935 378.946 234.649 378.921 241.325 379.51C246.42 379.959 251.5 380.766 256.614 380.688C259.779 380.64 264.123 380.286 267.257 380.723Z" fill="#E598CF"/>
<path opacity="0.5" d="M267.257 380.723C267.962 382.461 268.658 384.477 267.787 386.138C266.899 387.831 264.784 388.389 262.9 388.716C252.296 390.555 241.367 390.501 230.781 388.557C227.164 387.893 223.58 387.009 219.922 386.627C207.897 385.371 195.438 389.555 183.818 386.215C183.069 384.758 184.275 382.31 185.825 381.78C186.63 381.505 187.506 381.6 188.356 381.635C191.67 381.772 194.936 380.95 198.202 380.373C205.786 379.033 213.532 379 221.233 378.971C227.935 378.946 234.649 378.921 241.325 379.51C246.42 379.959 251.5 380.766 256.614 380.688C259.779 380.64 264.123 380.286 267.257 380.723Z" fill="#E598CF"/>
<path d="M189.215 374.369C198.469 374.897 207.723 375.425 216.977 375.953C220.276 376.141 223.592 376.329 226.879 375.991C230.563 375.611 234.153 374.576 237.831 374.142C243.453 373.478 249.136 374.231 254.744 375.005C258.858 375.573 262.982 377.797 266.573 379.884C268.014 380.721 267.85 383.033 266.665 384.205C265.481 385.377 263.72 385.699 262.069 385.927C251.331 387.408 240.369 387.245 229.68 385.443C226.469 384.902 223.277 384.213 220.033 383.935C208.876 382.98 197.334 386.882 186.61 383.662C185.756 383.406 184.912 383.104 184.126 382.683C184.936 379.563 186.911 376.623 189.215 374.369Z" fill="#8B3A3A"/>
<path opacity="0.5" d="M199.779 382.977C194.714 382.648 190.708 380.844 190.831 378.947C190.954 377.05 195.16 375.778 200.225 376.106C205.29 376.435 209.296 378.239 209.173 380.136C209.05 382.033 204.844 383.305 199.779 382.977Z" fill="#BCB1FC"/>
<path d="M199.869 381.594C196.845 381.398 194.453 380.321 194.527 379.188C194.6 378.055 197.111 377.296 200.135 377.492C203.159 377.688 205.551 378.765 205.477 379.898C205.404 381.031 202.893 381.791 199.869 381.594Z" fill="#8B3A3A"/>
<mask id="mask1_94_1068" style="mask-type:luminance" maskUnits="userSpaceOnUse" x="190" y="376" width="20" height="8">
<path d="M199.779 382.977C194.714 382.648 190.708 380.844 190.831 378.947C190.954 377.05 195.16 375.778 200.225 376.106C205.29 376.435 209.296 378.239 209.173 380.136C209.05 382.033 204.844 383.305 199.779 382.977Z" fill="white"/>
</mask>
<g mask="url(#mask1_94_1068)">
<path d="M200.451 374.715L199.815 384.512" stroke="#E598CF" stroke-miterlimit="10"/>
</g>
<path opacity="0.5" d="M267.569 381.535C267.488 380.855 267.18 380.237 266.574 379.884C262.983 377.798 258.859 375.573 254.745 375.005C254.047 374.909 253.347 374.812 252.647 374.719C245.64 378.176 238.333 380.843 230.592 381.063C225.558 381.206 220.526 380.296 215.5 380.607C210.695 380.904 206.011 382.311 201.206 382.606C197.778 382.817 194.337 382.457 190.949 381.894C183.617 380.675 176.452 378.481 169.683 375.411C168.546 375.933 167.553 376.705 167.247 377.92C167.157 378.278 167.153 378.622 167.195 378.953C167.045 378.908 166.894 378.864 166.745 378.82C166.586 379.419 166.457 380.484 166.437 381.103C167.79 382.099 169.452 382.565 171.077 382.993C175.262 384.096 179.481 385.063 183.723 385.922C183.755 386.021 183.773 386.126 183.82 386.218C195.44 389.558 207.899 385.375 219.924 386.63C223.582 387.012 227.166 387.896 230.783 388.56C241.368 390.504 252.298 390.558 262.902 388.719C264.785 388.392 266.901 387.834 267.789 386.141C268.526 384.732 268.134 383.069 267.569 381.535Z" fill="#E598CF"/>
<path d="M419.954 251.676C416.393 247.415 412.269 243.71 407.845 240.355C404.202 244.643 400.884 249.208 397.967 254.02C389.978 267.199 384.935 282.136 383.191 297.445C385.348 302.076 386.996 307.179 387.885 311.849C390.656 313.912 394.623 314.683 397.606 312.941C398.875 312.2 399.872 311.079 400.815 309.951C407.125 302.404 411.981 293.773 416.8 285.197C418.793 281.649 420.804 278.061 421.922 274.149C422.898 270.734 423.167 267.164 423.431 263.623C423.604 261.299 423.77 258.904 423.047 256.689C422.433 254.811 421.221 253.191 419.954 251.676Z" fill="#865D9B"/>
<path d="M431.644 291.112C435.419 302.656 439.193 314.201 442.968 325.745C449.164 344.696 455.364 363.657 460.592 382.898C461.618 386.675 462.615 390.536 462.418 394.445C462.22 398.354 460.643 402.384 457.441 404.634C455.721 405.843 453.477 406.472 451.474 405.833C449.61 405.238 432.3 408.192 431.054 406.683C412.217 383.869 408.491 360.028 395.466 333.463C392.59 327.597 383.189 295.228 381.339 288.962C378.408 279.036 391.174 287.281 393.709 277.247C395.33 270.829 405.071 247.387 414.945 251.958C419.554 254.092 422.539 265.558 424.279 269.982C427.008 276.926 429.326 284.023 431.644 291.112Z" fill="#E2AC83"/>
<path d="M451.298 381.958C445.394 376.353 429.893 365.174 422.646 361.466C418.452 359.32 413.992 357.291 411.003 353.649C408.284 350.337 407.097 346.064 405.979 341.927C401.772 326.363 397.53 310.52 398.037 294.406C398.528 278.808 404.155 262.661 416.128 252.758C415.744 252.433 415.352 252.148 414.943 251.958C405.069 247.387 395.328 270.829 393.707 277.247C391.173 287.281 378.406 279.037 381.337 288.962C383.187 295.228 392.588 327.597 395.464 333.463C408.489 360.028 412.214 383.869 431.052 406.683C432.298 408.192 449.608 405.238 451.472 405.833C453.475 406.472 455.719 405.843 457.439 404.634C459.768 402.998 461.227 400.417 461.931 397.629C459.877 392.331 456.967 387.34 451.298 381.958Z" fill="#D39972"/>
<path d="M410.375 256.24C412.119 254.782 414.128 253.445 416.397 253.293C418.732 253.136 421.003 254.288 422.704 255.895C422.713 255.903 422.72 255.913 422.729 255.922C422.067 254.368 421.043 252.978 419.954 251.675C412.535 242.8 402.691 236.317 392.726 230.442C388.86 228.163 383.058 225.323 378.688 228.176C375.577 230.207 374.988 235.853 374.307 239.129C373.212 244.394 372.712 249.772 372.659 255.145C372.566 264.712 370.616 265.953 372.888 277.129C373.55 280.383 378.101 288.641 379.91 291.426C381.819 294.365 383.499 297.799 384.863 301.357C388.159 287.567 394.53 274.508 403.452 263.485C405.557 260.885 407.809 258.387 410.375 256.24Z" fill="#8B3A3A"/>
<path d="M416.022 247.409C415.109 247.282 414.185 247.242 413.249 247.324C407.671 247.814 403.339 252.295 399.985 256.779C391.671 267.898 386.025 280.666 381.338 293.796C382.662 296.148 383.85 298.718 384.863 301.358C388.159 287.568 394.53 274.509 403.452 263.486C405.557 260.885 407.809 258.387 410.376 256.24C412.12 254.782 414.129 253.445 416.398 253.293C418.733 253.136 421.004 254.288 422.705 255.895C422.714 255.903 422.721 255.913 422.73 255.922C422.068 254.368 421.044 252.978 419.955 251.675C418.709 250.187 417.392 248.771 416.022 247.409Z" fill="#8B3A3A"/>
<path d="M244.805 413.122C244.5 414.82 244.99 416.781 246.433 417.727C247.274 418.279 248.312 418.42 249.312 418.533C252.671 418.914 256.047 419.142 259.426 419.217C263.608 419.31 268.241 418.987 271.194 416.024C272.152 415.063 272.889 413.795 272.89 412.437C272.89 411.098 272.173 409.842 271.231 408.89C269.325 406.963 266.542 406.109 263.833 406.011C261.124 405.913 258.443 406.495 255.795 407.074C251.246 408.069 245.809 407.599 244.805 413.122Z" fill="#E2AC83"/>
<path d="M272.565 410.867C272.267 410.132 271.79 409.457 271.23 408.89C269.324 406.963 266.541 406.109 263.832 406.011C261.123 405.913 258.442 406.495 255.794 407.074C251.445 408.025 246.293 407.651 244.972 412.444C254.103 414.259 263.694 413.693 272.565 410.867Z" fill="#D39972"/>
<path d="M237.066 405.761C237.069 406.363 237.097 406.991 237.386 407.519C237.882 408.425 238.983 408.779 239.983 409.033C247.449 410.929 255.211 411.657 262.899 411.183C264.204 411.103 265.534 410.981 266.73 410.452C268.703 409.58 270.117 407.572 270.3 405.422C270.484 403.272 269.443 401.066 267.684 399.817C266.156 398.732 264.236 398.382 262.375 398.157C258.402 397.677 254.375 397.643 250.394 398.057C246.926 398.417 243.438 398.692 239.98 399.044C236.557 399.392 237.051 402.661 237.066 405.761Z" fill="#E2AC83"/>
<path d="M266.459 402.514C267.427 402.23 268.389 401.916 269.349 401.599C268.916 400.904 268.353 400.29 267.684 399.816C266.156 398.731 264.235 398.381 262.375 398.156C258.402 397.676 254.374 397.643 250.394 398.056C246.926 398.416 243.438 398.691 239.98 399.043C237.794 399.265 237.207 400.681 237.071 402.481C246.598 405.281 256.93 405.314 266.459 402.514Z" fill="#D39972"/>
<path d="M233.18 399.039C234.065 400.033 235.471 400.343 236.782 400.575C242.496 401.588 248.29 402.154 254.092 402.266C257.193 402.326 260.447 402.217 263.144 400.686C265.841 399.154 267.725 395.756 266.557 392.883C265.252 389.673 261.186 388.782 257.729 388.54C251.125 388.077 244.47 388.348 237.925 389.339C235.945 389.639 233.436 389.673 232.405 391.658C231.456 393.484 231.825 397.518 233.18 399.039Z" fill="#E2AC83"/>
<path d="M245.713 394.704C252.044 393.538 258.303 392.018 264.548 390.451C262.695 389.17 260.073 388.704 257.729 388.54C251.125 388.077 244.47 388.348 237.925 389.339C235.945 389.639 233.436 389.673 232.405 391.658C232.031 392.378 231.864 393.444 231.88 394.562C233.67 395.054 235.485 395.414 237.34 395.51C240.147 395.657 242.949 395.213 245.713 394.704Z" fill="#D39972"/>
<path d="M308.972 392.141C309.951 394.329 310.951 396.74 310.319 399.052C309.912 400.542 308.869 401.775 307.746 402.836C304.279 406.109 299.865 408.176 295.457 409.994C285.751 413.998 275.809 417.235 265.518 419.316C262.378 409.861 259.879 400.344 257.911 390.578C252.82 390.884 247.942 392.842 242.855 393.193C233.707 393.824 225.51 389.256 216.453 387.823C216.564 387.77 216.426 388.008 216.362 387.904C216.298 387.799 216.391 387.672 216.414 387.552C216.736 385.838 218.116 384.37 219.807 383.943C220.615 383.739 221.461 383.758 222.294 383.778C227.246 383.898 232.198 384.019 237.15 384.139C237.719 384.153 237.832 383.896 238.387 384.019C244.798 380.692 251.429 377.788 258.222 375.333C260.354 374.562 262.517 373.832 264.759 373.5C268.225 372.986 271.757 373.436 275.221 373.966C280.493 374.772 285.736 375.76 290.978 376.747C298.825 378.226 305.71 384.851 308.972 392.141Z" fill="#E2AC83"/>
<path d="M237.676 386.209C239.583 385.96 241.388 385.222 243.148 384.447C250.005 381.427 256.532 377.738 262.948 373.855C261.344 374.235 259.774 374.771 258.221 375.332C251.428 377.787 244.797 380.691 238.386 384.018C237.83 383.895 237.718 384.152 237.149 384.138C232.197 384.017 227.245 383.897 222.293 383.777C221.46 383.757 220.614 383.738 219.806 383.942C219.709 383.967 219.617 384.006 219.522 384.037C222.444 384.107 225.359 384.433 228.221 385.022C231.349 385.666 234.51 386.623 237.676 386.209Z" fill="#D39972"/>
<path d="M216.452 387.824C216.466 387.826 216.479 387.829 216.493 387.831C216.492 387.817 216.481 387.81 216.452 387.824Z" fill="#E2AC83"/>
<path d="M221.085 385.967C220.056 385.462 218.928 385.256 217.788 385.086C217.095 385.748 216.59 386.609 216.413 387.551C216.39 387.672 216.298 387.798 216.361 387.903C216.408 387.981 216.495 387.871 216.493 387.83C216.479 387.828 216.466 387.825 216.452 387.823C216.481 387.809 216.492 387.816 216.493 387.83C218.88 388.21 221.207 388.808 223.509 389.47C223.528 388.05 222.429 386.627 221.085 385.967Z" fill="#865D9B"/>
<path d="M216.452 387.824C216.466 387.826 216.479 387.829 216.493 387.831C216.492 387.817 216.481 387.81 216.452 387.824Z" fill="#E2AC83"/>
<path d="M260.471 389.174C258.636 386.753 258.292 383.29 259.614 380.555" stroke="#C98F67" stroke-miterlimit="10" stroke-linecap="round" stroke-linejoin="round"/>
<path d="M263.572 400.066C261.657 398.364 261.019 395.379 262.071 393.043" stroke="#C98F67" stroke-miterlimit="10" stroke-linecap="round" stroke-linejoin="round"/>
<path d="M266.706 408.745C265.35 407.874 264.67 406.073 265.112 404.523" stroke="#C98F67" stroke-miterlimit="10" stroke-linecap="round" stroke-linejoin="round"/>
<path d="M269.339 415.299C267.814 414.311 267.525 412.238 267.385 410.426" stroke="#C98F67" stroke-miterlimit="10" stroke-linecap="round" stroke-linejoin="round"/>
<path d="M238.713 392.13C237.729 390.901 237.183 389.329 237.193 387.754" stroke="#C98F67" stroke-miterlimit="10" stroke-linecap="round" stroke-linejoin="round"/>
<path d="M240.13 391.955C239.225 390.487 238.899 388.672 239.236 386.98" stroke="#C98F67" stroke-miterlimit="10" stroke-linecap="round" stroke-linejoin="round"/>
<path d="M443.713 416.108C444.379 416.055 445.04 415.963 445.706 416.014C448.859 416.256 452.052 415.972 455.112 415.176C456.567 414.797 458.02 414.288 459.212 413.371C461.365 411.715 462.37 408.961 462.838 406.285C464.18 398.6 461.793 390.427 456.821 384.415C451.85 378.403 444.44 374.564 436.702 373.571C431.365 372.886 425.949 373.491 420.63 374.307C404.421 376.795 388.457 381.254 372.074 381.967C362 382.405 351.924 381.417 341.889 380.431C329.862 379.249 306.479 380.488 294.452 379.306C293.545 383.158 303.573 385.061 303.499 389.017C303.425 392.974 295.683 403.481 300.346 404.523C321.557 403.21 360.154 410.531 381.39 413.765C402.294 416.949 421.113 417.917 443.713 416.108Z" fill="#E2AC83"/>
<path d="M424.731 408.856C397.685 407.952 370.711 405.578 343.754 403.205C338.111 402.708 332.437 402.206 326.954 400.781C323.965 400.004 320.984 398.921 318.586 396.975C316.188 395.029 314.436 392.095 314.53 389.008C313.73 394.669 312.344 401.138 307.955 404.393C329.863 404.781 362.494 410.888 381.389 413.767C402.293 416.951 421.112 417.919 443.712 416.11C444.378 416.057 445.039 415.965 445.705 416.016C448.858 416.258 452.051 415.974 455.111 415.177C456.566 414.798 458.019 414.289 459.211 413.373C461.364 411.717 462.369 408.963 462.836 406.287C463.234 404.009 463.296 401.689 463.069 399.394C458.081 402.994 452.617 405.848 446.677 407.384C439.554 409.226 432.085 409.101 424.731 408.856Z" fill="#D39972"/>
<path d="M449.563 346.073C447.393 339.288 445.181 332.516 442.968 325.746C439.193 314.202 435.419 302.657 431.645 291.113C429.327 284.024 427.009 276.927 424.279 269.983C423.784 268.725 423.185 266.891 422.48 264.871C413.032 266.913 404.683 273.666 399.177 281.807C393.493 290.211 390.301 299.966 387.531 309.769C390.614 319.894 393.948 330.368 395.466 333.464C395.498 333.528 395.527 333.592 395.559 333.657C396.47 334.262 397.4 334.858 398.373 335.436C413.632 344.509 431.952 348.156 449.563 346.073Z" fill="#D39972"/>
<path d="M447.101 334.024C447.38 334.566 447.659 335.108 447.938 335.649C452.337 333.574 454.793 328.761 455.934 324.033C457.075 319.305 457.226 314.36 458.647 309.708C459.474 307.001 460.728 304.406 461.155 301.607C461.745 297.743 460.705 293.802 459.205 290.193C457.689 286.546 455.648 283.043 452.717 280.395C449.786 277.748 445.862 276.535 441.928 276.185C433.027 275.395 416.533 270.44 409.882 277.494C408.473 279.013 404.359 282.945 403.077 284.573C401.647 286.391 400.628 288.491 399.621 290.572C398.684 292.509 397.746 294.446 396.808 296.383C396.331 297.369 395.85 298.528 396.323 299.515C397.044 301.019 399.208 300.853 400.827 300.452C403.821 299.71 406.91 298.922 409.351 297.037C411.838 295.117 413.389 292.262 415.373 289.826C418.535 285.945 422.916 283.073 427.735 281.722C434.921 298.924 438.569 317.451 447.101 334.024Z" fill="#E2AC83"/>
<path d="M459.204 290.194C457.688 286.547 455.647 283.044 452.716 280.396C449.785 277.749 445.861 276.536 441.927 276.187C439.244 275.949 435.87 275.333 432.286 274.781C433.432 275.482 434.503 276.299 435.443 277.27C438.705 280.637 440.278 285.774 438.788 290.22C440.913 291.863 443.078 293.549 444.556 295.791C446.034 298.034 446.727 300.975 445.664 303.442C450.52 304.195 453.998 309.781 452.532 314.471C454.424 317.432 455.551 320.864 455.849 324.364C455.877 324.254 455.908 324.144 455.934 324.034C457.075 319.306 457.226 314.361 458.647 309.709C459.474 307.002 460.728 304.407 461.155 301.608C461.744 297.744 460.705 293.803 459.204 290.194Z" fill="#D39972"/>
<path d="M415.397 284.761C412.425 287.774 410.53 291.652 408.335 295.27C407.564 296.54 406.724 297.798 405.798 298.976C407.065 298.481 408.273 297.87 409.351 297.037C411.838 295.117 413.389 292.262 415.373 289.826C418.535 285.945 422.916 283.073 427.735 281.722C423.674 280.537 418.369 281.748 415.397 284.761Z" fill="#D39972"/>
<path d="M398.024 296.781C399.997 295.863 402.351 295.801 404.37 296.613C404.526 296.676 404.69 296.745 404.856 296.717C405.079 296.681 405.236 296.483 405.36 296.294C406.057 295.227 406.414 293.94 406.366 292.667C406.35 292.24 406.284 291.799 406.044 291.445C405.789 291.069 405.369 290.839 404.947 290.672C403.244 290.002 401.227 290.194 399.681 291.173C399.491 291.293 399.317 291.435 399.137 291.57C398.361 293.174 397.584 294.778 396.808 296.382C396.539 296.937 396.276 297.546 396.176 298.149C396.661 297.56 397.324 297.107 398.024 296.781Z" fill="#8B3A3A"/>
<path d="M449.549 326.757C451.207 327.706 451.672 330.03 451.005 331.82C450.338 333.611 448.813 334.941 447.221 335.997C445.854 336.904 444.397 337.668 442.903 338.344C438.185 340.479 433.073 341.742 427.903 342.049C426.478 342.134 425.042 342.146 423.631 341.934C421.943 341.681 420.321 341.113 418.715 340.538C414.087 338.879 409.492 337.128 404.933 335.287C404.576 335.143 404.207 334.99 403.946 334.707C403.557 334.285 403.486 333.654 403.556 333.084C403.733 331.658 404.67 330.403 405.852 329.586C407.034 328.769 408.444 328.344 409.855 328.073C412.992 329.522 416.863 329.533 420.277 328.995C429.89 327.479 441.103 321.922 449.549 326.757Z" fill="#E2AC83"/>
<path d="M425.283 340.494C424.693 339.707 424.277 338.791 424.074 337.828" stroke="#C98F67" stroke-miterlimit="10" stroke-linecap="round" stroke-linejoin="round"/>
<path d="M427.718 340.603C427.194 339.491 426.759 338.337 426.419 337.156" stroke="#C98F67" stroke-miterlimit="10" stroke-linecap="round" stroke-linejoin="round"/>
<path d="M436.503 332.548C440.536 330.675 444.427 328.501 448.145 326.062C439.886 322.519 429.367 327.561 420.277 328.994C416.863 329.532 412.993 329.521 409.855 328.072C408.444 328.343 407.034 328.768 405.852 329.585C405.586 329.769 405.335 329.978 405.099 330.203C410.919 332.563 416.478 335.873 422.708 336.098C427.499 336.271 432.156 334.568 436.503 332.548Z" fill="#D39972"/>
<path d="M407.272 332.985C406.358 332.221 405.219 331.822 404.04 331.582C403.791 332.051 403.62 332.556 403.555 333.085C403.485 333.655 403.555 334.286 403.945 334.708C404.206 334.991 404.575 335.144 404.932 335.288C406.475 335.911 408.028 336.509 409.579 337.111C409.14 335.533 408.507 334.017 407.272 332.985Z" fill="#8B3A3A"/>
<path d="M396.283 314.892C395.753 315.647 396.064 316.685 396.433 317.53C397.775 320.598 399.666 323.403 401.789 325.992C402.338 326.661 402.909 327.324 403.605 327.838C404.596 328.569 405.79 328.964 406.96 329.346C410.384 330.466 413.808 331.586 417.232 332.706C418.514 333.125 419.814 333.548 421.16 333.621C422.336 333.685 423.509 333.48 424.666 333.256C431.259 331.982 437.731 330.082 443.966 327.588C445.592 326.938 447.308 326.157 448.205 324.653C448.816 323.628 448.961 322.398 449.043 321.208C449.156 319.568 449.156 317.831 448.351 316.398C447.774 315.372 446.84 314.603 445.927 313.86C445.161 313.236 444.377 312.602 443.45 312.262C442.606 311.953 441.692 311.907 440.794 311.886C431.192 311.663 421.748 314.017 412.291 315.69C409.398 316.202 406.349 316.636 403.438 316.012C401.775 315.656 397.639 312.96 396.283 314.892Z" fill="#E2AC83"/>
<path d="M419.673 331.122C418.44 329.367 417.633 327.315 417.338 325.191" stroke="#C98F67" stroke-miterlimit="10" stroke-linecap="round" stroke-linejoin="round"/>
<path d="M422.393 329.864C421.359 328.779 420.693 327.349 420.527 325.859" stroke="#C98F67" stroke-miterlimit="10" stroke-linecap="round" stroke-linejoin="round"/>
<path d="M403.835 321.249C407.021 324.036 411.089 325.947 415.322 326.031C418.413 326.093 421.436 325.201 424.387 324.282C432.252 321.831 440.133 319.065 447.281 315.038C446.858 314.619 446.391 314.236 445.93 313.86C445.164 313.236 444.38 312.602 443.453 312.262C442.609 311.953 441.695 311.907 440.797 311.886C431.195 311.663 421.751 314.017 412.294 315.69C409.401 316.202 406.352 316.636 403.441 316.012C402.284 315.764 399.932 314.388 398.15 314.22C399.7 316.831 401.555 319.255 403.835 321.249Z" fill="#D39972"/>
<path d="M399.952 319.705C399.845 318.907 399.486 318.167 399.118 317.451C398.558 316.363 397.962 315.293 397.335 314.242C396.907 314.321 396.543 314.519 396.283 314.89C395.753 315.645 396.064 316.683 396.433 317.528C397.141 319.147 398.009 320.689 398.977 322.168C399.085 322.097 399.194 322.025 399.289 321.935C399.874 321.381 400.058 320.503 399.952 319.705Z" fill="#8B3A3A"/>
<path d="M400.281 316.655C401.89 318.725 404.338 319.937 406.723 321.025C409.823 322.439 413.109 323.788 416.51 323.581C419.507 323.399 422.279 322.028 425.102 321.006C431.007 318.867 437.376 318.2 443.233 315.932C444.117 315.59 445.011 315.196 445.681 314.526C447.337 312.869 447.11 310.11 446.314 307.907C445.197 304.814 443.179 302.051 440.573 300.046C439.231 299.014 437.689 298.163 436.007 297.97C434.09 297.75 432.191 298.395 430.378 299.057C425.028 301.01 419.761 303.185 414.385 305.069C411.708 306.007 409.005 306.874 406.262 307.599C404.504 308.064 400.743 308.091 399.58 309.565C398.03 311.531 398.91 314.891 400.281 316.655Z" fill="#E2AC83"/>
<path d="M414.986 321.421C414.047 319.857 413.537 318.039 413.524 316.215" stroke="#C98F67" stroke-miterlimit="10" stroke-linecap="round" stroke-linejoin="round"/>
<path d="M416.868 320.535C415.955 318.802 415.32 316.924 414.992 314.992" stroke="#C98F67" stroke-miterlimit="10" stroke-linecap="round" stroke-linejoin="round"/>
<path d="M429.139 310.033C432.421 308.24 435.656 306.202 438.05 303.328C438.933 302.268 439.687 301.074 440.254 299.807C438.988 298.884 437.558 298.144 436.007 297.966C434.09 297.746 432.191 298.391 430.378 299.053C425.028 301.006 419.761 303.181 414.385 305.065C411.708 306.003 409.005 306.87 406.262 307.595C404.504 308.06 400.743 308.087 399.58 309.561C399.28 309.942 399.073 310.375 398.941 310.838C402.298 313.958 407.144 315.54 411.804 315.487C417.924 315.419 423.768 312.967 429.139 310.033Z" fill="#D39972"/>
<path d="M426.152 287.909C425.133 290.029 423.298 291.671 421.263 292.85C419.228 294.029 416.982 294.79 414.754 295.543C409.765 297.229 404.775 298.915 399.786 300.602C398.781 300.942 397.711 301.328 397.091 302.189C396.329 303.247 396.478 304.693 396.75 305.968C396.989 307.091 397.309 308.223 397.957 309.172C398.78 310.377 400.066 311.187 401.391 311.797C406.889 313 412.543 313.133 417.168 312.097C418.946 311.699 420.519 310.67 422.154 309.867C426.16 307.898 430.166 305.929 434.173 303.96C435.658 303.23 437.166 302.485 438.374 301.354C439.582 300.224 440.467 298.632 440.355 296.981C440.253 295.474 439.362 294.152 438.501 292.911C436.608 290.184 434.714 287.457 432.821 284.729C432.056 283.627 429.319 278.969 427.766 280.388C426.939 281.144 427.232 282.877 427.158 283.846C427.051 285.246 426.762 286.638 426.152 287.909Z" fill="#E2AC83"/>
<path d="M412.996 309.225C412.006 307.725 411.468 305.93 411.472 304.133" stroke="#C98F67" stroke-miterlimit="10" stroke-linecap="round" stroke-linejoin="round"/>
<path d="M415.278 308.915C414.404 307.182 413.86 305.284 413.682 303.352" stroke="#C98F67" stroke-miterlimit="10" stroke-linecap="round" stroke-linejoin="round"/>
<path d="M423.027 296.419C426.771 294.012 429.041 290.01 430.08 285.896C430.418 284.559 428.592 279.636 427.765 280.391C426.938 281.147 427.231 282.88 427.157 283.849C427.05 285.248 426.761 286.64 426.151 287.911C425.132 290.031 423.297 291.673 421.262 292.852C419.227 294.031 416.981 294.792 414.753 295.545C409.764 297.231 404.774 298.918 399.785 300.604C398.78 300.944 397.71 301.33 397.09 302.191C396.739 302.679 396.587 303.25 396.546 303.847C403.556 303.342 410.362 301.331 416.974 299.073C419.074 298.355 421.188 297.601 423.027 296.419Z" fill="#D39972"/>
<path d="M141.634 169.751C139.412 165.244 137.186 160.713 135.669 155.922C134.151 151.131 133.358 146.034 134.07 141.059C131.454 135.925 129.826 130.199 130.489 124.475C131.153 118.751 133.873 113.206 138.305 109.524C137.087 101.338 144.709 91.8821 148.574 87.9951C152.969 83.5741 158.859 80.8001 164.976 79.6021C171.093 78.4041 177.437 78.7201 183.56 79.8891C189.463 81.0161 195.422 83.0531 199.755 87.2171C206.734 85.4891 214.361 88.5691 219.403 93.6941C224.445 98.8191 227.186 105.844 228.397 112.93C229.093 116.999 229.326 121.147 229.092 125.268C228.737 131.515 227.314 137.657 225.519 143.651C223.827 149.301 221.694 155.029 217.618 159.292C214.723 162.32 211.007 164.433 207.22 166.224C186.962 175.807 162.782 177.163 141.634 169.751Z" fill="#41241C"/>
<path opacity="0.5" d="M144.751 118.114C143.371 111.708 144.456 104.882 147.313 98.9844C146.483 105.659 146.665 112.53 148.568 118.981C150.471 125.432 154.177 131.451 159.541 135.509C152.064 134.739 146.142 124.569 144.751 118.114Z" fill="#41241C"/>
<path opacity="0.5" d="M134.214 123.203C133.913 126.245 137.811 131.554 139.483 133.888C140.451 135.24 147.088 140.88 144.44 142.219C142.348 143.277 137.56 136.254 136.761 134.834C134.785 131.324 133.816 127.225 134.214 123.203Z" fill="#41241C"/>
<path opacity="0.5" d="M183.113 128.706C186.728 118.817 186.454 107.564 182.363 97.8626C180.545 93.5506 177.819 89.3706 173.681 87.1836C175.623 87.5356 177.03 88.1236 178.576 89.3516C183.712 93.4316 187.324 99.3876 188.567 105.829C189.075 100.036 187.617 95.0656 183.95 90.5526C188.049 95.1686 191.047 100.71 191.529 106.865C192.011 113.019 190.432 119.318 187.103 124.516C185.969 126.286 184.435 127.071 183.113 128.706Z" fill="#41241C"/>
<path opacity="0.5" d="M215.335 126.189C216.74 120.754 217.356 115.029 216.314 109.513C215.272 103.997 212.454 98.6937 207.949 95.3438C213.961 97.0848 217.98 101.746 219.383 107.846C220.786 113.945 218.062 120.556 215.335 126.189Z" fill="#41241C"/>
<path opacity="0.15" d="M166.652 129.164C161.414 126.414 157.365 121.485 155.683 115.813C154.001 110.141 154.711 103.802 157.603 98.6406C157.091 100.585 157.702 102.496 157.938 104.493C158.461 108.937 159.021 113.403 160.32 117.685C161.618 121.968 163.45 126.039 166.652 129.164Z" fill="#8B3A3A"/>
<path opacity="0.15" d="M206.326 122.139C208.136 114.054 206.432 105.245 201.738 98.418C205.682 100.754 208.415 104.906 209.099 109.439C209.707 113.46 207.691 118.309 206.326 122.139Z" fill="#8B3A3A"/>
<path opacity="0.15" d="M176.987 124.45C178.778 115.386 176.516 105.598 170.93 98.2383C176.708 99.2073 181.098 104.916 181.577 110.755C182.055 116.594 179.813 119.319 176.987 124.45Z" fill="#8B3A3A"/>
<path opacity="0.5" d="M171.83 126.678C165.715 117.037 163.33 105.094 165.273 93.8438C167.98 103.87 170.92 116.333 171.83 126.678Z" fill="#41241C"/>
<path opacity="0.15" d="M145.932 134.656C140.606 131.569 137.712 124.799 139.16 118.816C140.204 124.657 142.136 130.096 145.932 134.656Z" fill="#8B3A3A"/>
<path opacity="0.15" d="M221.255 124.791C222.879 117.48 223.038 109.846 221.719 102.473C225.664 109.233 224.183 117.532 221.255 124.791Z" fill="#8B3A3A"/>
<g opacity="0.5">
<path d="M222.279 132.854C219.347 130.804 216.375 128.391 213.895 125.812C209.804 129.726 203.819 130.811 198.181 131.317C192.863 131.795 186.829 131.84 182.893 128.233C177.587 131.557 171.815 134.349 165.621 135.269C159.427 136.189 153.169 134.671 148.232 130.819C147.411 135.876 146.583 140.962 144.923 145.809C143.263 150.656 140.714 155.299 136.911 158.731C136.847 158.789 136.78 158.843 136.715 158.901C138.125 162.61 139.877 166.19 141.634 169.753C162.783 177.165 186.962 175.81 207.221 166.228C211.008 164.437 214.724 162.324 217.619 159.296C221.694 155.033 223.828 149.305 225.52 143.655C226.314 141.003 227.027 138.321 227.615 135.615C225.722 134.964 223.921 134.003 222.279 132.854Z" fill="#41241C"/>
</g>
<path d="M225.355 139.605C221.133 137.864 217.475 134.865 214.815 131.062C209.874 133.244 204.82 135.457 199.438 135.924C193.776 136.416 188.2 135.419 183.53 132.18C178.831 135.409 173.48 137.784 167.836 138.59C162.192 139.396 156.363 139.023 151.38 136.254C150.292 144.766 147.418 153.044 143 160.4C141.998 162.068 140.879 163.714 139.498 165.066C143.033 179.322 147.8 193.274 153.771 206.694C155.345 210.232 157.018 213.763 159.349 216.855C162.474 221 166.671 224.211 171.021 227.044C174.37 229.226 177.843 231.217 181.418 233.005C185.131 234.863 189.023 236.52 193.147 237.002C197.271 237.483 201.694 236.665 204.893 234.018C215.397 216.006 222.235 202.023 224.599 184.278C225.715 175.903 225.82 167.431 225.924 158.982C225.991 153.561 226.057 148.131 225.661 142.724C225.584 141.686 225.487 140.643 225.355 139.605Z" fill="#E2AC83"/>
<path d="M215.306 204.57C213.823 206.303 211.996 208.032 209.775 208.552C206.56 205.403 201.565 204.892 197.106 205.507C192.648 206.122 188.334 207.671 183.843 207.968C181.544 208.12 179.113 207.968 177.079 209.05C175.199 210.05 173.766 212.01 172.638 213.816C164.075 210.628 156.338 205.275 150.288 198.431C151.403 201.204 152.555 203.962 153.77 206.692C155.344 210.23 157.017 213.761 159.348 216.853C162.473 220.998 166.67 224.209 171.02 227.042C174.369 229.224 177.842 231.215 181.417 233.003C185.13 234.861 189.022 236.518 193.146 237C197.27 237.481 201.693 236.663 204.892 234.016C213.242 219.696 219.266 207.918 222.577 194.777C220.365 198.192 217.952 201.478 215.306 204.57ZM202.609 224.638C198.675 227.017 193.866 227.913 189.339 227.111C184.722 226.293 172.741 220.35 179.477 214.297C180.718 213.182 182.415 212.758 184.038 212.372C186.482 211.791 188.925 211.209 191.369 210.628C194.508 209.881 197.751 209.13 200.931 209.673C204.112 210.215 207.244 212.394 207.869 215.559C208.592 219.218 205.8 222.708 202.609 224.638Z" fill="#41241C"/>
<path d="M192.421 175.997C192.459 173.799 193.019 171.647 193.576 169.52C194.907 164.43 196.239 159.34 197.571 154.25C201.721 159.217 208.992 160.505 215.352 161.706C212.078 162.562 208.829 163.68 205.999 165.536C203.169 167.392 200.769 170.051 199.728 173.271C198.588 176.795 199.149 180.629 199.942 184.248C200.921 188.713 202.234 193.097 203.547 197.475C200.204 191.377 196.568 185.239 193.225 179.141C192.68 178.149 192.401 177.126 192.421 175.997Z" fill="#D39972"/>
<path d="M197.291 154.027C203.662 158.85 211.569 161.611 219.558 161.803" stroke="#41241C" stroke-width="1.5" stroke-miterlimit="10" stroke-linecap="round" stroke-linejoin="round"/>
<path d="M159.238 179.925C163.931 180.997 168.298 181.69 172.743 179.571C174.187 178.965 175.719 178.14 177.461 177.742C173.252 184.479 164.656 186.379 159.238 179.925Z" fill="#41241C"/>
<path d="M198.301 174.674C201.386 173.987 204.462 174.12 207.405 173.46C210.401 172.899 212.71 171.158 215.603 169.918C212.599 177.001 204.557 178.316 198.301 174.674Z" fill="#41241C"/>
<path d="M180.778 219.25C183.805 218.263 187.05 217.954 190.208 218.353C191.248 218.485 192.284 218.692 193.332 218.689C195.615 218.682 197.759 217.69 199.894 216.881C202.029 216.072 204.394 215.431 206.566 216.133" stroke="#41241C" stroke-width="1.5" stroke-miterlimit="10" stroke-linecap="round" stroke-linejoin="round"/>
<path d="M189.793 215.232C191.539 214.368 193.498 213.937 195.445 213.989" stroke="#C98F67" stroke-miterlimit="10" stroke-linecap="round" stroke-linejoin="round"/>
<path d="M191.299 222.86C193.259 223.563 195.582 223.135 197.163 221.781" stroke="#C98F67" stroke-miterlimit="10" stroke-linecap="round" stroke-linejoin="round"/>
<path d="M169.702 193.89C169.406 195.582 165.499 196.312 160.977 195.521C156.454 194.729 153.028 192.716 153.324 191.024C153.62 189.332 157.527 188.602 162.049 189.393C166.572 190.184 169.998 192.198 169.702 193.89Z" fill="#D8827C"/>
<path d="M221.134 179.941C221.993 181.429 219.466 184.496 215.489 186.792C211.513 189.088 207.593 189.743 206.734 188.255C205.875 186.767 208.402 183.7 212.379 181.404C216.355 179.109 220.275 178.454 221.134 179.941Z" fill="#D8827C"/>
<path d="M202.381 197.291C200.03 199.521 196.955 200.792 193.954 202.016C193.266 202.297 192.555 202.582 191.812 202.582C191.094 202.582 190.407 202.316 189.739 202.054C187.727 201.265 185.716 200.475 183.704 199.686C183.464 200.246 184.004 200.815 184.493 201.179C187.348 203.306 190.442 205.103 193.684 206.574C196.351 203.971 199.013 201.362 201.669 198.748C202.1 198.324 202.554 197.854 202.635 197.256C202.645 197.186 202.634 197.117 202.634 197.047C202.549 197.129 202.465 197.211 202.381 197.291Z" fill="#D39972"/>
<path d="M194.245 167.855C193.66 170.085 193.17 172.339 192.777 174.61C192.592 175.681 192.428 176.774 192.567 177.852C192.786 179.545 193.729 181.045 194.631 182.495C197.302 186.789 199.82 191.178 202.177 195.651C202.44 196.15 202.709 196.693 202.634 197.252C202.553 197.851 202.099 198.321 201.668 198.744C198.964 201.406 196.254 204.062 193.539 206.712" stroke="#41241C" stroke-width="1.5" stroke-miterlimit="10" stroke-linecap="round" stroke-linejoin="round"/>
<path d="M156.418 172.084C161.849 169.192 166.684 165.184 170.532 160.383C175.76 163.649 179.417 169.67 181.539 175.457C183.661 181.244 184.292 187.48 184.315 193.644C183.116 187.89 181.446 182.152 178.338 177.163C177.055 175.104 175.36 173.152 173.073 172.342C171.453 171.768 169.688 171.82 167.971 171.878C164.258 172.004 160.131 171.959 156.418 172.084Z" fill="#D39972"/>
<path d="M152.917 173.596C159.73 171.134 165.789 166.628 170.108 160.812" stroke="#41241C" stroke-width="1.5" stroke-miterlimit="10" stroke-linecap="round" stroke-linejoin="round"/>
<path d="M143.097 166.445C148.758 160.193 152.51 152.236 153.731 143.891C158.599 144.366 163.922 144.822 168.711 143.827C170.985 143.354 173.182 142.557 175.304 141.615C178.266 140.301 181.102 138.699 183.757 136.841C193.049 141.774 204.6 140.919 213.559 135.404C216.759 139.344 221.002 142.353 225.732 144.081C225.705 143.628 225.692 143.175 225.659 142.723C225.583 141.685 225.486 140.642 225.354 139.604C221.132 137.863 217.474 134.865 214.814 131.062C209.873 133.244 204.819 135.457 199.437 135.924C193.775 136.416 188.199 135.419 183.529 132.18C178.83 135.409 173.479 137.784 167.835 138.59C162.191 139.396 156.362 139.022 151.379 136.253C150.291 144.765 147.417 153.044 142.999 160.4C141.997 162.068 140.878 163.713 139.497 165.065C139.814 166.343 140.152 167.615 140.489 168.887C141.436 168.169 142.298 167.327 143.097 166.445Z" fill="#D39972"/>
<path d="M146.365 182.658C146.605 184.215 146.772 185.83 146.346 187.347C145.92 188.863 144.773 190.272 143.226 190.574C141.71 190.87 140.155 190.044 139.136 188.883C138.117 187.722 137.52 186.262 136.889 184.852C133.964 178.319 129.873 172.052 129.231 164.923C129.03 162.692 129.514 159.94 131.613 159.157C132.799 158.714 134.17 159.095 135.191 159.842C136.212 160.589 136.947 161.657 137.625 162.726C138.967 164.84 140.17 167.042 141.225 169.313C143.269 173.715 145.626 177.861 146.365 182.658Z" fill="#E2AC83"/>
<path d="M146.365 182.657C145.627 177.86 143.269 173.715 141.225 169.312C140.799 168.394 140.331 167.496 139.857 166.602C139.237 166.258 138.575 165.996 137.852 165.87C137.342 165.781 136.797 165.765 136.328 165.982C135.197 166.504 135.029 168.032 135.156 169.272C135.401 171.665 136.135 173.98 136.928 176.251C137.684 178.414 138.51 180.581 139.807 182.47C141.104 184.359 142.927 185.969 145.129 186.603C145.555 186.726 145.997 186.793 146.442 186.831C146.709 185.465 146.578 184.04 146.365 182.657Z" fill="#D39972"/>
</g>
</svg>
