<svg width="550" height="450" viewBox="0 0 550 500" fill="none" xmlns="http://www.w3.org/2000/svg">
<g clip-path="url(#clip0_98_1339)">
<path opacity="0.1" d="M459.7 24.3945H269.303C259.014 24.3945 250.643 32.7655 250.643 43.0545V196.795C250.643 207.084 259.014 215.455 269.303 215.455H459.7C469.989 215.455 478.359 207.084 478.359 196.795V43.0545C478.359 32.7655 469.989 24.3945 459.7 24.3945Z" fill="#2D2563"/>
<path d="M454.199 22.3945C462.847 22.3945 469.858 29.4055 469.858 38.0535V191.794C469.858 200.442 462.847 207.453 454.199 207.453H263.803C255.154 207.453 248.144 200.442 248.144 191.794V38.0535C248.144 29.4055 255.155 22.3945 263.803 22.3945H454.199Z" fill="white"/>
<path d="M454.2 210.454H263.803C253.514 210.454 245.143 202.083 245.143 191.795V38.0545C245.143 27.7655 253.514 19.3945 263.803 19.3945H454.2C464.489 19.3945 472.859 27.7655 472.859 38.0545V191.795C472.859 202.083 464.489 210.454 454.2 210.454ZM263.803 25.3945C256.823 25.3945 251.143 31.0735 251.143 38.0545V191.795C251.143 198.775 256.822 204.454 263.803 204.454H454.2C461.18 204.454 466.859 198.775 466.859 191.795V38.0545C466.859 31.0735 461.18 25.3945 454.2 25.3945H263.803Z" fill="#FEA938"/>
<path opacity="0.1" d="M407.36 12.4531H318.001V35.4531H407.36V12.4531Z" fill="#2D2563"/>
<path d="M404.501 12.9531H313.501V32.9531H404.501V12.9531Z" fill="#FEA938"/>
<path opacity="0.7" d="M431.767 60.172C408.799 52.715 401.043 64.05 386.129 55.698C371.768 47.656 360.178 47.911 359.337 47.941C358.496 47.911 346.906 47.656 332.545 55.698C317.63 64.05 309.875 52.715 286.907 60.172C263.939 67.629 305.103 67.928 305.103 67.928C305.103 67.928 321.807 69.1209 326.282 83.1409C330.756 97.1609 327.475 101.933 337.319 117.444C347.163 132.955 331.95 133.85 343.881 154.73C355.813 175.61 339.108 176.505 340.898 185.454H359.284H359.392H377.778C379.568 176.505 362.863 175.61 374.795 154.73C386.727 133.85 371.514 132.955 381.357 117.444C391.201 101.933 387.919 97.1599 392.394 83.1409C396.868 69.1209 413.573 67.928 413.573 67.928C413.573 67.928 454.736 67.629 431.767 60.172Z" fill="#FF6688"/>
<path d="M410.091 61.6621C410.091 61.6621 396.071 60.7671 387.421 63.7501C379.026 66.6451 368.946 68.9711 359.088 69.1061C349.23 68.9711 339.15 66.6451 330.755 63.7501C322.105 60.7671 308.085 61.6621 308.085 61.6621C308.085 61.6621 275.273 58.9771 305.997 63.4521C336.721 67.9261 339.704 75.0851 340.002 84.3321C340.3 93.5791 343.88 104.317 351.934 111.178C359.988 118.039 355.812 135.638 355.812 146.674C355.812 157.71 350.741 146.376 345.67 146.376C340.599 146.376 345.372 152.64 350.144 156.22C354.917 159.799 347.758 159.501 351.635 162.186C355.513 164.871 348.056 167.555 351.337 170.24C354.618 172.925 348.951 176.206 351.337 178.89C353.723 181.575 351.337 184.557 351.337 184.557L358.785 185.385V185.452L359.088 185.418L359.391 185.452V185.385L366.839 184.557C366.839 184.557 364.453 181.574 366.839 178.89C369.225 176.205 363.558 172.924 366.839 170.24C370.12 167.555 362.663 164.871 366.541 162.186C370.419 159.501 363.26 159.8 368.032 156.22C372.805 152.641 377.577 146.376 372.506 146.376C367.435 146.376 362.364 157.711 362.364 146.674C362.364 135.637 358.188 118.038 366.242 111.178C374.296 104.317 377.875 93.5791 378.174 84.3321C378.472 75.0851 381.455 67.9261 412.179 63.4521C442.903 58.9771 410.091 61.6621 410.091 61.6621Z" fill="#FF6688"/>
<path d="M291.679 100.443C291.679 100.443 302.119 93.582 308.383 98.653C314.647 103.724 313.752 104.022 314.945 115.059C316.138 126.096 295.854 135.939 282.133 124.903C268.413 113.866 283.625 100.443 291.679 100.443Z" fill="#B48192"/>
<path d="M312.858 55.6992C312.858 55.6992 307.489 62.5602 309.279 69.7192C309.279 69.7192 288.697 66.1392 277.66 75.6852C266.623 85.2302 268.413 98.9522 285.117 98.0572C301.821 97.1622 286.012 105.514 286.012 105.514C286.012 105.514 273.782 115.059 279.45 124.008C285.117 132.957 272.589 129.079 271.098 118.937C269.607 108.795 260.061 100.145 260.061 88.2132C260.061 76.2812 265.728 57.4892 312.858 55.6992Z" fill="#FF6688"/>
<path d="M427.153 100.443C427.153 100.443 416.713 93.582 410.449 98.653C404.185 103.724 405.08 104.022 403.887 115.059C402.694 126.096 422.977 135.939 436.699 124.903C450.42 113.866 435.207 100.443 427.153 100.443Z" fill="#B48192"/>
<path d="M405.975 55.6992C405.975 55.6992 411.344 62.5602 409.554 69.7192C409.554 69.7192 430.136 66.1392 441.173 75.6852C452.21 85.2302 450.42 98.9522 433.716 98.0572C417.012 97.1622 432.821 105.514 432.821 105.514C432.821 105.514 445.051 115.059 439.383 124.008C433.715 132.957 446.244 129.079 447.735 118.937C449.226 108.795 458.772 100.145 458.772 88.2132C458.772 76.2812 453.104 57.4892 405.975 55.6992Z" fill="#FF6688"/>
<g opacity="0.2">
<path d="M454.027 148.62C454.027 150.093 452.833 151.287 451.36 151.287H394.693C393.22 151.287 392.026 150.093 392.026 148.62C392.026 147.147 393.22 145.953 394.693 145.953H451.36C452.833 145.953 454.027 147.147 454.027 148.62Z" fill="#2D2563"/>
<path d="M413.36 119.953L402.027 147.953" stroke="#2D2563" stroke-miterlimit="10"/>
</g>
<path opacity="0.1" d="M454.027 159.284C454.027 160.757 452.833 161.951 451.36 161.951H394.693C393.22 161.951 392.026 160.757 392.026 159.284C392.026 157.811 393.22 156.617 394.693 156.617H451.36C452.833 156.617 454.027 157.811 454.027 159.284Z" fill="#2D2563"/>
<path opacity="0.1" d="M454.027 167.284C454.027 168.757 452.833 169.951 451.36 169.951H394.693C393.22 169.951 392.026 168.757 392.026 167.284C392.026 165.811 393.22 164.617 394.693 164.617H451.36C452.833 164.617 454.027 165.811 454.027 167.284Z" fill="#2D2563"/>
<g opacity="0.2">
<path d="M329.36 166.62C329.36 168.093 328.166 169.287 326.693 169.287H270.026C268.553 169.287 267.359 168.093 267.359 166.62C267.359 165.147 268.553 163.953 270.026 163.953H326.693C328.166 163.953 329.36 165.147 329.36 166.62Z" fill="#2D2563"/>
<path d="M300.693 119.953L320.693 165.953" stroke="#2D2563" stroke-miterlimit="10"/>
</g>
<path opacity="0.1" d="M329.36 177.284C329.36 178.757 328.166 179.951 326.693 179.951H270.026C268.553 179.951 267.359 178.757 267.359 177.284C267.359 175.811 268.553 174.617 270.026 174.617H326.693C328.166 174.617 329.36 175.811 329.36 177.284Z" fill="#2D2563"/>
<path opacity="0.1" d="M329.36 185.284C329.36 186.757 328.166 187.951 326.693 187.951H270.026C268.553 187.951 267.359 186.757 267.359 185.284C267.359 183.811 268.553 182.617 270.026 182.617H326.693C328.166 182.617 329.36 183.811 329.36 185.284Z" fill="#2D2563"/>
<path opacity="0.1" d="M491.144 454.573C491.2 454.366 491.255 454.16 491.303 453.951C491.772 451.916 491.876 449.763 491.529 447.574L467.513 296.336C467.432 295.826 467.321 295.328 467.197 294.836C467.171 294.734 467.146 294.632 467.119 294.531C466.991 294.063 466.846 293.604 466.68 293.156C466.645 293.061 466.606 292.968 466.569 292.874C466.415 292.479 466.248 292.091 466.066 291.713C466.028 291.634 465.994 291.553 465.955 291.475C465.753 291.071 465.531 290.68 465.299 290.297C465.223 290.171 465.145 290.047 465.066 289.924C464.833 289.563 464.592 289.208 464.334 288.868C464.245 288.751 464.15 288.64 464.058 288.526C463.861 288.281 463.659 288.042 463.45 287.809C463.33 287.675 463.211 287.539 463.086 287.409C462.821 287.132 462.545 286.866 462.262 286.608C462.104 286.464 461.942 286.326 461.779 286.188C461.588 286.027 461.393 285.872 461.195 285.72C460.929 285.515 460.658 285.319 460.381 285.131C460.197 285.006 460.012 284.883 459.824 284.766C459.62 284.639 459.415 284.514 459.205 284.395C458.901 284.223 458.592 284.059 458.277 283.906C455.302 282.462 451.875 281.873 448.361 282.431L402.08 289.78C392.951 291.23 386.727 299.805 388.176 308.933L412.192 460.171C412.675 463.211 413.961 465.918 415.781 468.138C416.227 468.682 416.705 469.194 417.213 469.675C417.228 469.69 417.243 469.705 417.259 469.72C417.508 469.954 417.763 470.18 418.026 470.399C418.06 470.427 418.095 470.454 418.13 470.482C418.594 470.861 419.076 471.214 419.578 471.541C419.672 471.603 419.765 471.666 419.86 471.726C420.103 471.878 420.349 472.024 420.6 472.163C420.755 472.25 420.914 472.33 421.072 472.412C421.426 472.594 421.785 472.765 422.151 472.922C422.379 473.02 422.608 473.116 422.84 473.204C423.041 473.28 423.244 473.352 423.448 473.42C423.764 473.526 424.084 473.621 424.408 473.708C424.591 473.757 424.773 473.804 424.958 473.847C425.326 473.933 425.698 474.005 426.074 474.066C426.229 474.091 426.384 474.114 426.541 474.134C426.986 474.193 427.435 474.239 427.888 474.261C427.934 474.263 427.98 474.266 428.027 474.267C428.495 474.286 428.968 474.279 429.443 474.258C429.573 474.252 429.704 474.245 429.835 474.236C430.335 474.202 430.837 474.154 431.342 474.074C431.342 474.074 431.344 474.074 431.346 474.074L477.627 466.725C478.768 466.544 479.864 466.251 480.905 465.86C481.425 465.664 481.932 465.444 482.424 465.201C483.408 464.715 484.333 464.136 485.189 463.479C486.045 462.821 486.832 462.084 487.542 461.281C488.037 460.72 488.479 460.117 488.895 459.496C489.898 457.998 490.664 456.339 491.144 454.573Z" fill="#2D2563"/>
<path d="M485.531 441.57C486.981 450.699 480.756 459.274 471.627 460.723L425.347 468.072C416.218 469.522 407.643 463.296 406.194 454.168L382.178 302.93C380.728 293.802 386.954 285.226 396.082 283.777L442.362 276.428C451.491 274.978 460.066 281.203 461.515 290.332L485.531 441.57Z" fill="white"/>
<path opacity="0.2" d="M452.278 277.902C454.099 280.122 455.385 282.829 455.868 285.869L479.884 437.107C481.334 446.236 475.109 454.811 465.98 456.26L419.699 463.609C416.185 464.167 412.758 463.579 409.783 462.134C413.429 466.579 419.259 469.038 425.347 468.071L471.627 460.722C480.756 459.272 486.981 450.697 485.531 441.569L461.515 290.331C460.624 284.717 457.032 280.21 452.278 277.902Z" fill="#2D2563"/>
<path opacity="0.2" d="M442.019 447.484C442.126 448.169 442.769 448.637 443.454 448.529C444.139 448.422 444.607 447.779 444.5 447.095L420.51 294.159C420.403 293.474 419.76 293.006 419.075 293.113C418.39 293.22 417.922 293.863 418.029 294.548L442.019 447.484Z" fill="#2D2563"/>
<g opacity="0.1">
<path d="M416.175 330.17C416.788 334.41 413.848 338.344 409.607 338.957C405.367 339.57 401.433 336.629 400.82 332.389L397.143 305.852C396.53 301.612 399.471 297.678 403.711 297.065C407.951 296.452 411.885 299.392 412.498 303.633L416.175 330.17Z" fill="#2D2563"/>
<path d="M398.836 318.655L400.821 332.389C401.434 336.629 405.368 339.569 409.608 338.957C413.848 338.344 416.789 334.41 416.176 330.17L414.212 316.586C409.088 317.295 403.962 317.982 398.836 318.655Z" fill="#2D2563"/>
</g>
<path d="M412.994 328.416C413.607 332.656 410.667 336.59 406.427 337.203C402.187 337.816 398.253 334.875 397.64 330.635L393.963 304.098C393.35 299.858 396.291 295.924 400.531 295.311C404.771 294.698 408.705 297.639 409.318 301.879L412.994 328.416Z" fill="#FEA938"/>
<path d="M395.655 316.901L397.64 330.635C398.253 334.875 402.187 337.815 406.427 337.203C410.667 336.59 413.607 332.656 412.994 328.416L411.031 314.832C405.907 315.541 400.781 316.227 395.655 316.901Z" fill="#FF6688"/>
<g opacity="0.1">
<path d="M452.414 325.33C453.027 329.57 450.086 333.504 445.846 334.117C441.606 334.73 437.672 331.79 437.059 327.549L433.382 301.012C432.769 296.772 435.71 292.838 439.95 292.225C444.19 291.612 448.124 294.553 448.737 298.793L452.414 325.33Z" fill="#2D2563"/>
<path d="M435.074 313.815L437.059 327.549C437.672 331.789 441.606 334.73 445.846 334.117C450.086 333.504 453.026 329.57 452.414 325.33L450.45 311.746C445.326 312.455 440.2 313.142 435.074 313.815Z" fill="#2D2563"/>
</g>
<path d="M449.233 323.579C449.846 327.819 446.905 331.753 442.665 332.366C438.425 332.979 434.491 330.039 433.878 325.799L430.202 299.262C429.589 295.022 432.529 291.088 436.77 290.475C441.01 289.862 444.944 292.802 445.557 297.043L449.233 323.579Z" fill="#FEA938"/>
<path d="M431.893 312.066L433.878 325.8C434.491 330.04 438.425 332.98 442.665 332.367C446.905 331.754 449.846 327.82 449.233 323.58L447.269 309.996C442.145 310.706 437.02 311.392 431.893 312.066Z" fill="#FF6688"/>
<path opacity="0.3" d="M405.629 329.681C405.824 331.287 404.679 332.746 403.074 332.941C401.468 333.135 400.009 331.992 399.814 330.386L396.411 303.172C396.217 301.566 397.36 300.107 398.966 299.912C400.572 299.717 402.031 300.861 402.226 302.467L405.629 329.681Z" fill="white"/>
<path opacity="0.3" d="M441.963 325.041C442.158 326.647 441.014 328.106 439.408 328.301C437.802 328.496 436.343 327.351 436.148 325.746L432.745 298.532C432.551 296.926 433.695 295.467 435.3 295.272C436.906 295.077 438.365 296.221 438.56 297.827L441.963 325.041Z" fill="white"/>
<g opacity="0.1">
<path d="M423.033 383.94C423.646 388.18 420.705 392.114 416.465 392.727C412.225 393.34 408.291 390.4 407.678 386.159L404.001 359.622C403.388 355.382 406.329 351.448 410.569 350.835C414.809 350.222 418.743 353.162 419.356 357.403L423.033 383.94Z" fill="#2D2563"/>
<path d="M405.693 372.424L407.678 386.158C408.291 390.398 412.225 393.339 416.465 392.726C420.705 392.113 423.645 388.179 423.033 383.939L421.069 370.355C415.945 371.064 410.819 371.751 405.693 372.424Z" fill="#2D2563"/>
</g>
<path d="M419.852 382.186C420.465 386.426 417.525 390.36 413.284 390.973C409.044 391.586 405.11 388.645 404.497 384.405L400.82 357.868C400.207 353.628 403.148 349.694 407.388 349.081C411.628 348.468 415.562 351.408 416.175 355.649L419.852 382.186Z" fill="#FEA938"/>
<path d="M402.512 370.671L404.497 384.405C405.11 388.645 409.044 391.585 413.284 390.973C417.524 390.36 420.464 386.426 419.852 382.186L417.888 368.602C412.764 369.311 407.638 369.997 402.512 370.671Z" fill="#FF6688"/>
<g opacity="0.1">
<path d="M459.271 379.104C459.884 383.344 456.944 387.278 452.703 387.891C448.463 388.504 444.529 385.563 443.916 381.323L440.239 354.786C439.626 350.546 442.566 346.612 446.807 345.999C451.047 345.386 454.981 348.327 455.594 352.567L459.271 379.104Z" fill="#2D2563"/>
<path d="M441.931 367.589L443.916 381.323C444.529 385.563 448.463 388.503 452.703 387.891C456.943 387.278 459.883 383.344 459.271 379.104L457.307 365.52C452.184 366.229 447.058 366.916 441.931 367.589Z" fill="#2D2563"/>
</g>
<path d="M456.09 377.35C456.703 381.59 453.762 385.524 449.522 386.137C445.282 386.75 441.348 383.809 440.735 379.569L437.058 353.032C436.445 348.792 439.385 344.858 443.626 344.245C447.866 343.632 451.8 346.573 452.413 350.813L456.09 377.35Z" fill="#FEA938"/>
<path d="M438.75 365.835L440.735 379.569C441.348 383.809 445.282 386.749 449.522 386.137C453.762 385.524 456.703 381.59 456.09 377.35L454.126 363.766C449.003 364.475 443.877 365.161 438.75 365.835Z" fill="#FF6688"/>
<path opacity="0.3" d="M412.486 383.451C412.681 385.057 411.537 386.516 409.931 386.711C408.325 386.905 406.866 385.761 406.671 384.156L403.268 356.942C403.073 355.336 404.217 353.877 405.823 353.682C407.429 353.488 408.888 354.632 409.083 356.237L412.486 383.451Z" fill="white"/>
<path opacity="0.3" d="M448.82 378.81C449.015 380.416 447.871 381.875 446.265 382.07C444.659 382.265 443.2 381.121 443.005 379.515L439.602 352.301C439.408 350.695 440.551 349.236 442.157 349.041C443.763 348.847 445.222 349.991 445.417 351.596L448.82 378.81Z" fill="white"/>
<g opacity="0.1">
<path d="M431.892 440.612C432.505 444.852 429.564 448.786 425.324 449.399C421.084 450.012 417.15 447.071 416.537 442.831L412.861 416.294C412.248 412.054 415.188 408.12 419.429 407.507C423.669 406.894 427.603 409.834 428.216 414.075L431.892 440.612Z" fill="#2D2563"/>
<path d="M414.553 429.096L416.538 442.83C417.151 447.07 421.085 450.011 425.325 449.398C429.565 448.785 432.505 444.851 431.893 440.611L429.929 427.027C424.805 427.736 419.679 428.423 414.553 429.096Z" fill="#2D2563"/>
</g>
<path d="M428.711 438.858C429.324 443.098 426.384 447.032 422.144 447.645C417.904 448.258 413.97 445.317 413.357 441.077L409.68 414.54C409.067 410.3 412.007 406.366 416.248 405.753C420.488 405.14 424.422 408.08 425.035 412.321L428.711 438.858Z" fill="#FEA938"/>
<path d="M411.372 427.342L413.357 441.076C413.97 445.316 417.904 448.256 422.144 447.644C426.384 447.031 429.324 443.097 428.711 438.857L426.747 425.273C421.624 425.982 416.498 426.669 411.372 427.342Z" fill="#FF6688"/>
<g opacity="0.1">
<path d="M468.131 435.776C468.744 440.016 465.803 443.95 461.563 444.563C457.323 445.176 453.389 442.235 452.776 437.995L449.099 411.458C448.486 407.218 451.427 403.284 455.667 402.671C459.907 402.058 463.841 404.999 464.454 409.239L468.131 435.776Z" fill="#2D2563"/>
<path d="M450.791 424.26L452.776 437.994C453.389 442.234 457.323 445.175 461.563 444.562C465.803 443.949 468.744 440.015 468.131 435.775L466.167 422.191C461.043 422.9 455.917 423.587 450.791 424.26Z" fill="#2D2563"/>
</g>
<path d="M464.95 434.022C465.563 438.262 462.623 442.196 458.383 442.809C454.143 443.422 450.209 440.482 449.596 436.241L445.92 409.704C445.307 405.464 448.247 401.53 452.487 400.917C456.727 400.304 460.661 403.245 461.274 407.485L464.95 434.022Z" fill="#FEA938"/>
<path d="M447.61 422.507L449.595 436.24C450.208 440.48 454.142 443.421 458.382 442.809C462.622 442.196 465.562 438.261 464.949 434.021L462.985 420.438C457.862 421.147 452.736 421.834 447.61 422.507Z" fill="#FF6688"/>
<path opacity="0.3" d="M421.346 440.123C421.54 441.729 420.396 443.188 418.791 443.383C417.185 443.577 415.726 442.433 415.531 440.828L412.128 413.614C411.933 412.008 413.077 410.549 414.683 410.354C416.289 410.159 417.748 411.303 417.943 412.909L421.346 440.123Z" fill="white"/>
<path opacity="0.3" d="M457.68 435.482C457.875 437.088 456.731 438.547 455.125 438.742C453.519 438.936 452.06 437.792 451.865 436.187L448.462 408.973C448.268 407.367 449.411 405.908 451.017 405.713C452.623 405.519 454.082 406.663 454.277 408.268L457.68 435.482Z" fill="white"/>
<mask id="mask0_98_1339" style="mask-type:luminance" maskUnits="userSpaceOnUse" x="0" y="-12" width="500" height="534">
<path d="M500 -11.1016H0V521.898H500V-11.1016Z" fill="white"/>
</mask>
<g mask="url(#mask0_98_1339)">
<path opacity="0.1" d="M284.057 508.651C285.321 507.32 287.018 506.618 288.761 506.5C277.715 466.337 244.012 345.517 226.874 303.386C226.874 303.386 232.643 297.086 237.008 287.021C237.418 287.398 237.83 287.775 238.243 288.153C238.263 288.171 238.283 288.19 238.304 288.208C239.191 289.018 240.084 289.828 240.981 290.636C240.99 290.644 240.999 290.652 241.007 290.66C241.912 291.475 242.82 292.287 243.732 293.096C243.74 293.103 243.748 293.11 243.756 293.117C244.668 293.926 245.584 294.731 246.5 295.53C246.503 295.532 246.505 295.534 246.508 295.537C262.044 309.079 277.817 320.748 284.789 319.233C298.393 316.276 343.631 253.757 343.631 253.757L341.716 252.2L344.887 248.472L342.484 246.76L345.167 242.051C352.803 254.2 358.689 251.532 358.689 251.532C392.303 227.069 357.143 246.556 357.143 246.556C395.843 217.659 355.542 243.024 355.542 243.024C394.093 202.841 352.819 238.582 352.819 238.582C380.398 205.502 350.096 234.14 350.096 234.14C350.096 234.14 343.794 224.934 339.462 224.769C337.657 224.7 333.271 230.365 328.771 236.991L326.826 235.606L324.284 238.024L322.299 236.41L283.578 271.845L255.516 243.427L228.131 215.695C223.751 210.662 218.111 208.02 210.934 209.676C199.732 212.261 184.437 215.493 184.437 215.493L184.861 218.301C176.67 220.17 173.493 216.833 171.903 209.904C171.957 209.913 172.01 209.926 172.064 209.935C171.654 208.171 171.329 206.212 171.049 204.092C174.142 202.048 178.849 199.929 185.305 199.628C198.22 199.025 209.503 202.751 219.353 191.029C219.353 191.029 213.5 174.33 216.073 158.868C221.598 125.662 213.843 101.427 213.843 101.427C213.843 101.427 210.288 80.4229 180.56 77.5149C173.091 76.7839 166.117 76.6489 160.004 77.2669C152.547 70.7639 137.642 71.1279 119.708 75.3519C93.902 81.4299 88.726 108.612 88.726 108.612C88.726 108.612 82.535 131.161 88.29 158.625C91.585 174.349 87.446 191.749 87.446 191.749C98.426 202.96 109.666 198.273 122.912 197.881C131.145 197.638 136.828 200.476 139.955 202.66C141.384 213.373 140.928 223.559 133.93 223.25C133.15 223.215 132.3 223.158 131.41 223.089C130.782 222.059 130.149 221.035 129.506 220.019C129.506 220.019 85.559 214.203 74.573 229.713C63.586 245.223 24.81 299.511 29.98 312.436C35.15 325.362 104.302 359.614 104.302 359.614L105.112 358.187L109.796 360.906L110.68 359.138C113.39 360.755 115.952 362.185 118.102 363.219C110.926 395.277 104.79 447.43 112.273 522.26H182.071C182.071 522.26 182.097 521.967 182.144 521.398H194.997L201.891 423.164L210.508 518.813H230.197L230.327 519.675H278.481C279.333 515.586 281.118 511.745 284.057 508.651ZM126.225 334.71C124.488 336.617 122.639 340.144 121.747 346.685L118.19 344.106L119.486 341.515L116.009 338.978L117.87 335.699L76.508 303.385L98.248 275.57C113.015 299.463 130.925 323.46 130.925 323.46C130.925 323.46 128.969 327.138 126.225 334.71Z" fill="#2D2563"/>
<path d="M207.843 95.4182C207.843 95.4182 204.288 74.4142 174.56 71.5062C148.816 68.9882 128.891 73.4822 130.21 91.8542C131.529 110.226 172.486 112.145 169.021 145.115C165.556 178.085 152.845 172.517 160.476 202.099C160.476 202.099 166.39 194.223 179.306 193.62C192.222 193.017 203.504 196.743 213.354 185.021C213.354 185.021 207.501 168.322 210.074 152.86C215.598 119.654 207.843 95.4182 207.843 95.4182Z" fill="#9B5A73"/>
<path d="M128.594 172.648C128.594 172.648 142.563 217.887 127.929 217.241C113.295 216.595 78.0391 208.839 74.7131 234.69C71.3871 260.541 218.397 255.371 221.723 234.044C225.049 212.717 208.813 199.145 189.793 208.193C165.158 219.912 165.846 208.193 163.85 186.22C161.854 164.247 128.594 172.648 128.594 172.648Z" fill="#FFCEBB"/>
<path d="M166.064 203.927C164.968 199.205 164.474 193.092 163.849 186.22C161.853 164.247 128.593 172.648 128.593 172.648C128.593 172.648 130.444 178.653 132.093 186.25C142.721 193.712 152.925 201.829 166.064 203.927Z" fill="#EFAB95"/>
<path d="M208.166 129.352L190.07 130.644" stroke="#BE537B" stroke-width="2" stroke-miterlimit="10"/>
<path d="M127.769 94.596C127.769 94.596 173.797 71.035 191.119 114.766C207.611 156.404 189.287 199.852 152.638 190.196C114.094 180.042 89.899 115.113 127.769 94.596Z" fill="#FFCEBB"/>
<path d="M172.298 129.672C172.562 131.901 172.85 134.079 173.231 136.224C173.42 137.295 173.61 138.36 173.874 139.402C174.116 140.448 174.392 141.478 174.707 142.486C175.02 143.495 175.399 144.472 175.816 145.417C176.027 145.89 176.264 146.344 176.501 146.797C176.754 147.237 177.01 147.679 177.3 148.089C177.571 148.517 177.892 148.898 178.209 149.283L178.707 149.838L179.247 150.346C179.62 150.666 179.993 151.001 180.417 151.256C180.818 151.554 181.263 151.777 181.705 152.023L183.264 152.891L181.916 153.737C180.737 154.477 179.523 155.169 178.308 155.859C177.079 156.529 175.849 157.199 174.56 157.785C175.532 156.755 176.565 155.809 177.598 154.864C178.644 153.938 179.693 153.014 180.775 152.139L180.986 153.852C180.422 153.639 179.842 153.443 179.307 153.146C178.756 152.879 178.254 152.523 177.758 152.167L177.048 151.587L176.39 150.953C175.98 150.508 175.574 150.052 175.228 149.561C174.857 149.084 174.561 148.564 174.254 148.053C173.964 147.534 173.696 147.005 173.466 146.463C173.232 145.924 173.012 145.379 172.834 144.825C172.647 144.272 172.486 143.716 172.34 143.156C172.063 142.034 171.862 140.903 171.725 139.771C171.667 139.203 171.621 138.636 171.588 138.069C171.561 137.502 171.523 136.938 171.532 136.371C171.542 135.239 171.58 134.113 171.711 132.993C171.826 131.875 172.012 130.761 172.298 129.672Z" fill="#E28D76"/>
<path d="M153.233 164.57C153.233 164.57 153.685 164.736 154.475 165.027C155.262 165.308 156.382 165.691 157.725 166.094C158.393 166.306 159.128 166.49 159.894 166.704C160.657 166.927 161.488 167.062 162.32 167.278C163.173 167.41 164.031 167.642 164.925 167.741C165.815 167.87 166.714 168.014 167.623 168.062C168.527 168.181 169.435 168.188 170.33 168.216C171.227 168.28 172.104 168.196 172.961 168.186C173.822 168.197 174.639 168.062 175.43 168.005C176.223 167.951 176.962 167.83 177.65 167.71C178.332 167.577 178.989 167.534 179.545 167.401C180.098 167.261 180.595 167.163 181.004 167.076C181.824 166.905 182.314 166.832 182.314 166.832C182.314 166.832 181.922 167.109 181.197 167.553C180.834 167.773 180.393 168.048 179.871 168.336C179.353 168.634 178.725 168.862 178.045 169.142C177.702 169.28 177.346 169.423 176.976 169.571C176.604 169.715 176.2 169.786 175.793 169.902C174.973 170.097 174.112 170.39 173.188 170.469C172.27 170.578 171.317 170.75 170.341 170.725C169.853 170.73 169.362 170.735 168.869 170.74C168.376 170.738 167.884 170.671 167.39 170.637C166.898 170.582 166.403 170.555 165.917 170.475C165.433 170.385 164.952 170.294 164.474 170.205C163.994 170.127 163.527 170.01 163.071 169.872C162.615 169.741 162.164 169.612 161.72 169.485C160.852 169.174 160.014 168.874 159.25 168.517C158.477 168.184 157.77 167.822 157.137 167.451C156.489 167.115 155.939 166.72 155.444 166.398C154.957 166.058 154.545 165.746 154.218 165.472C153.56 164.934 153.233 164.57 153.233 164.57Z" fill="#E28D76"/>
<path d="M190.07 134.356C190.07 137.836 188.985 140.657 187.647 140.657C186.308 140.657 185.223 137.836 185.223 134.356C185.223 130.876 186.308 128.055 187.647 128.055C188.985 128.055 190.07 130.876 190.07 134.356Z" fill="#3F1E1E"/>
<path d="M157.272 134.356C157.272 137.836 156.187 140.657 154.848 140.657C153.51 140.657 152.425 137.836 152.425 134.356C152.425 130.876 153.51 128.055 154.848 128.055C156.187 128.055 157.272 130.876 157.272 134.356Z" fill="#3F1E1E"/>
<path d="M188.778 151.645C197.523 151.645 204.612 142.82 204.612 131.934C204.612 121.048 197.523 112.223 188.778 112.223C180.033 112.223 172.944 121.048 172.944 131.934C172.944 142.82 180.033 151.645 188.778 151.645Z" stroke="#BE537B" stroke-width="2" stroke-miterlimit="10"/>
<path d="M147.255 151.645C156.625 151.645 164.22 142.82 164.22 131.934C164.22 121.048 156.625 112.223 147.255 112.223C137.886 112.223 130.29 121.048 130.29 131.934C130.29 142.82 137.886 151.645 147.255 151.645Z" stroke="#BE537B" stroke-width="2" stroke-miterlimit="10"/>
<path d="M130.29 131.934L104.439 133.873" stroke="#BE537B" stroke-width="2" stroke-miterlimit="10"/>
<path d="M164.219 133.551C164.219 133.551 169.389 125.473 173.267 133.228" stroke="#BE537B" stroke-width="2" stroke-miterlimit="10"/>
<path d="M82.7251 102.603C82.7251 102.603 87.9011 75.4215 113.707 69.3435C139.513 63.2655 159.062 65.1645 159.148 84.0425C159.233 102.92 117.526 108.076 123.638 141.5C129.751 174.924 142.306 168.243 136.815 199.069C136.815 199.069 130.157 191.481 116.911 191.872C103.665 192.263 92.4251 196.951 81.4451 185.74C81.4451 185.74 85.5841 168.34 82.2891 152.616C76.5351 125.152 82.7251 102.603 82.7251 102.603Z" fill="#B48192"/>
<path d="M117.688 154.152C117.688 154.152 113.328 143.421 111.987 132.019C111.987 132.019 105.615 124.976 100.25 135.373C94.8841 145.768 109.975 162.201 117.688 154.152Z" fill="#FFCEBB"/>
<path d="M101.208 137.749C101.613 136.825 102.143 135.951 102.798 135.149C103.458 134.353 104.231 133.586 105.364 133.127C105.924 132.899 106.619 132.793 107.305 132.95C107.993 133.096 108.594 133.479 109.048 133.908C109.51 134.338 109.864 134.826 110.14 135.317C110.218 135.46 110.267 135.519 110.368 135.731L110.528 136.066L110.839 136.74C111.041 137.196 111.264 137.624 111.445 138.103L111.96 139.596C112.137 140.099 112.28 140.598 112.393 141.094L112.749 142.591L113.003 144.106C113.093 144.61 113.132 145.122 113.186 145.63C113.242 146.138 113.264 146.651 113.289 147.163C113.314 147.681 113.306 148.179 113.295 148.733L113.281 149.42L112.736 149.691C112.442 149.837 112.093 150.026 111.787 150.215C111.476 150.408 111.178 150.614 110.915 150.832C110.656 151.05 110.426 151.282 110.284 151.474C110.231 151.563 110.175 151.648 110.167 151.688C110.156 151.734 110.127 151.771 110.17 151.851C110.233 152.01 110.498 152.236 110.798 152.413C111.102 152.596 111.463 152.74 111.828 152.872C112.561 153.152 113.345 153.353 114.134 153.581C113.32 153.684 112.5 153.722 111.658 153.672C111.238 153.633 110.814 153.584 110.374 153.458C110.155 153.398 109.93 153.322 109.702 153.204C109.478 153.085 109.241 152.933 109.035 152.68C108.821 152.448 108.669 152.08 108.641 151.729C108.605 151.362 108.696 151.059 108.79 150.778C109.001 150.245 109.302 149.857 109.612 149.509C109.923 149.163 110.25 148.86 110.586 148.576C110.931 148.292 111.253 148.035 111.654 147.776L111.095 148.733C111.057 148.3 111.015 147.809 110.946 147.343C110.888 146.87 110.833 146.398 110.746 145.928C110.663 145.458 110.616 144.983 110.507 144.518L110.234 143.115L109.894 141.73C109.796 141.26 109.672 140.808 109.525 140.376L109.137 139.046C108.984 138.596 108.794 138.124 108.626 137.664L108.366 136.969L108.241 136.62C108.242 136.606 108.167 136.452 108.134 136.373C107.965 135.983 107.759 135.643 107.543 135.356C107.094 134.773 106.607 134.571 105.829 134.678C105.063 134.811 104.228 135.293 103.455 135.84C102.682 136.406 101.931 137.051 101.208 137.749Z" fill="#E28D76"/>
<path d="M143.908 302.137C143.908 302.137 81.0041 405.541 116.334 512.392H186.993L193.887 414.158L202.504 509.807H271.44C271.44 509.807 234.387 336.605 207.674 290.935C180.961 245.265 143.908 302.137 143.908 302.137Z" fill="#FEA938"/>
<path d="M218.237 311.869C215.307 304.756 212.435 298.656 209.674 293.935C182.961 248.265 145.908 305.137 145.908 305.137C145.908 305.137 144.299 307.785 141.747 312.653C167.234 312.592 192.74 312.388 218.237 311.869Z" fill="#E29437"/>
<path d="M240.042 377.797C231.523 387.421 221.232 395.896 212.378 404.398C207.007 409.555 201.594 414.664 196.116 419.696L204.505 512.808H273.441C273.441 512.808 258.098 441.1 240.042 377.797Z" fill="#E29437"/>
<path d="M127.928 217.242C127.928 217.242 142.461 237.061 163.142 231.891C183.823 226.721 180.376 210.349 180.376 210.349L200.411 208.195L213.121 297.381L145.908 308.583L107.347 216.92L127.928 217.242Z" fill="#FF6688"/>
<path d="M309.951 251.417C309.951 251.417 329.132 218.596 333.464 218.761C337.796 218.926 344.098 228.132 344.098 228.132C344.098 228.132 374.4 199.494 346.821 232.574C346.821 232.574 388.095 196.833 349.544 237.016C349.544 237.016 389.845 211.651 351.145 240.548C351.145 240.548 386.305 221.061 352.691 245.524C352.691 245.524 346.805 248.192 339.169 236.043L323.363 263.786L309.951 251.417Z" fill="#FFCEBB"/>
<path d="M331.329 251.35L338.89 242.463L320.828 229.598L309.996 239.901L331.329 251.35Z" fill="#FF6688"/>
<path d="M201.273 210.348C201.273 210.348 191.127 242.136 204.602 255.541C218.077 268.946 265.188 316.183 278.792 313.226C292.396 310.269 337.634 247.75 337.634 247.75L316.302 230.403L277.581 265.838L220.231 207.762L201.273 210.348Z" fill="white"/>
<path opacity="0.1" d="M247.515 262.151C248.877 253.966 249.405 245.7 249.517 237.42L220.23 207.762L201.273 210.347C201.273 210.347 191.127 242.135 204.602 255.54C211.171 262.075 225.734 276.649 240.511 289.529C243.377 280.54 245.968 271.447 247.515 262.151Z" fill="#2D2563"/>
<path d="M178.438 209.486L224.323 513.666H286.365C286.365 513.666 241.557 348.22 220.876 297.379C220.876 297.379 232.724 284.453 235.31 266.035C237.23 252.353 232.012 197.421 204.935 203.669C193.733 206.254 178.438 209.486 178.438 209.486Z" fill="white"/>
<g opacity="0.2">
<path d="M189.014 208.403C193.133 219.232 197.253 230.06 201.372 240.888C202.435 243.682 203.498 246.476 204.561 249.27C204.867 250.076 205.467 252.665 206.091 252.305C201.455 254.98 196.819 257.654 192.183 260.329C192.103 260.375 191.695 260.632 191.917 260.768C193.498 261.73 204.384 267.461 204.185 268.357C203.143 273.046 202.101 277.735 201.059 282.424C198.535 293.783 196.011 305.142 193.486 316.501C193.384 316.958 194.933 316.703 195.031 316.26C198.614 300.136 202.197 284.013 205.78 267.89C205.803 267.826 205.788 267.772 205.737 267.729C203.677 266.475 201.617 265.221 199.556 263.967C198.166 263.121 193.959 260.153 193.363 260.497C197.936 257.859 202.509 255.22 207.083 252.582C207.177 252.527 207.459 252.376 207.398 252.216C201.789 237.473 196.181 222.729 190.572 207.986C190.401 207.537 188.866 208.014 189.014 208.403Z" fill="#2D2563"/>
</g>
<path d="M123.504 214.009C123.504 214.009 79.557 209.485 73.525 224.996C67.493 240.507 124.926 317.454 124.926 317.454C124.926 317.454 92.482 378.378 106.27 516.25H176.068C176.068 516.25 193.302 324.306 123.504 214.009Z" fill="white"/>
<g opacity="0.2">
<path d="M111.787 213.934C113.937 231.67 116.087 249.405 118.236 267.141C118.259 267.331 118.578 267.347 118.707 267.355C126.201 267.855 133.696 268.354 141.191 268.854C141.608 268.882 142.025 268.91 142.441 268.937C143.205 268.988 142.507 268.5 142.306 268.765C141.24 270.168 140.174 271.57 139.108 272.973C136.827 275.974 134.547 278.975 132.266 281.975C132.187 282.08 132.188 282.177 132.263 282.28C142.654 296.254 153.044 310.227 163.435 324.201C163.736 324.606 165.241 324.083 164.884 323.603C157.305 313.41 149.726 303.218 142.147 293.025C139.341 289.251 136.534 285.476 133.727 281.702C133.524 281.429 142.668 270.199 143.921 268.55C144.153 268.245 143.724 268.136 143.507 268.122C136.413 267.649 129.319 267.176 122.225 266.703C121.275 266.64 120.324 266.576 119.374 266.513C120.026 266.556 119.757 266.425 119.657 265.6C119.313 262.76 118.969 259.92 118.624 257.08C116.864 242.559 115.104 228.037 113.344 213.516C113.284 213.025 111.718 213.372 111.787 213.934Z" fill="#2D2563"/>
</g>
<path d="M82.7891 338.74C82.7891 338.74 113.81 360.713 117.688 358.775C121.566 356.836 123.504 345.85 123.504 345.85C123.504 345.85 162.927 359.422 124.15 340.68C124.15 340.68 176.498 356.191 124.796 335.51C124.796 335.51 171.974 341.972 124.796 331.632C124.796 331.632 164.865 334.863 124.15 326.462C124.15 326.462 117.687 326.462 115.748 340.68L89.8971 321.938L82.7891 338.74Z" fill="#FFCEBB"/>
<path d="M93.7751 349.081L103.793 354.898L113.487 335.509L101.531 326.785L93.7751 349.081Z" fill="#FF6688"/>
<path d="M104.864 253.426C100.667 240.467 101.557 226.466 102.562 212.969C89.629 213.231 74.423 215.441 68.571 223.703C57.584 239.214 18.808 293.501 23.978 306.426C29.148 319.352 98.3 353.604 98.3 353.604L111.872 329.692L70.51 297.379L104.864 253.426Z" fill="white"/>
</g>
<path opacity="0.1" d="M368.227 290.347C368.141 287.862 367.319 285.487 365.921 283.503C364.29 281.188 361.875 279.404 358.93 278.599L354.664 277.432C347.933 275.59 340.983 279.554 339.141 286.286L288.845 455.741L274.768 515.336C275.991 515.718 277.126 516.395 278.02 517.361C280.849 520.419 280.533 525.109 277.607 527.96C277.496 528.068 277.41 528.149 277.335 528.218C277.306 528.268 277.268 528.329 277.219 528.403C277.039 528.679 276.279 530.255 276.434 529.77C276.17 530.453 275.923 531.144 275.761 531.859C275.738 531.965 275.717 532.057 275.699 532.139C275.643 532.618 275.602 533.099 275.583 533.581C275.358 537.338 272.462 540.413 268.764 540.751L263.993 560.95C262.151 567.681 266.115 574.631 272.847 576.473L272.883 576.483L273.849 576.747L277.114 577.64L277.149 577.65C283.88 579.492 290.83 575.528 292.672 568.796L324.117 469.789L324.081 469.779L325.749 464.526L346.766 379.322L367.783 294.119C368.013 293.278 368.153 292.433 368.207 291.595C368.235 291.178 368.241 290.761 368.227 290.347Z" fill="#2D2563"/>
<path d="M353.171 272.364C359.902 274.206 363.866 281.156 362.024 287.887L319.989 458.294L286.876 562.554C285.034 569.285 278.084 573.249 271.353 571.408L267.087 570.241C260.356 568.399 256.392 561.449 258.233 554.718L283.086 449.508L333.382 280.051C335.224 273.32 342.174 269.356 348.905 271.197L353.171 272.364Z" fill="white"/>
<path d="M282.146 453.648L258.27 554.726C256.428 561.457 260.392 568.407 267.123 570.249L271.389 571.416C278.12 573.258 285.07 569.294 286.912 562.562L318.357 463.555L282.146 453.648Z" fill="#FF6688"/>
<path d="M300.567 450.968C307.427 452.845 314.51 448.805 316.387 441.945L325.053 410.27C326.93 403.41 322.89 396.327 316.03 394.45L315.409 394.28C308.549 392.403 301.466 396.443 299.589 403.303L290.923 434.978C289.046 441.838 293.086 448.921 299.946 450.798L300.567 450.968Z" fill="#F2F2F2"/>
<path d="M305.41 402.487L295.048 440.355L309.739 444.375L320.1 406.507L305.41 402.487Z" fill="#E5E1DA"/>
<path d="M298.49 427.928L297.328 432.172L312.02 436.191L313.181 431.947L298.49 427.928Z" fill="#FF6688"/>
<path d="M300.988 418.783L299.827 423.027L314.519 427.047L315.68 422.803L300.988 418.783Z" fill="#FF6688"/>
<path d="M347.775 277.2C352.283 278.433 354.937 283.087 353.704 287.595L349.595 302.613C348.362 307.12 343.708 309.775 339.2 308.542C334.692 307.309 332.038 302.655 333.271 298.147L337.38 283.13C338.613 278.621 343.267 275.967 347.775 277.2Z" fill="#F2F2F2"/>
<path opacity="0.2" d="M358.759 286.992L316.724 457.399L283.611 561.659C281.769 568.39 274.819 572.354 268.088 570.513L271.353 571.406C278.084 573.248 285.034 569.284 286.876 562.552L319.989 458.292L362.024 287.885C363.866 281.154 359.902 274.204 353.171 272.362L349.906 271.469C356.637 273.311 360.601 280.261 358.759 286.992Z" fill="#2D2563"/>
<path opacity="0.1" d="M49.834 366.789H20.932C18.207 366.789 15.998 368.998 15.998 371.723C15.998 374.448 18.207 376.658 20.932 376.658H22.934V385.822V507.959C22.934 514.835 28.508 520.408 35.383 520.408C42.258 520.408 47.832 514.834 47.832 507.959V385.822V376.658H49.833C52.558 376.658 54.767 374.449 54.767 371.723C54.768 368.998 52.559 366.789 49.834 366.789Z" fill="#2D2563"/>
<path opacity="0.1" d="M97.0631 366.789H68.1621C65.4371 366.789 63.2271 368.998 63.2271 371.723C63.2271 374.448 65.4361 376.658 68.1621 376.658H70.1631V385.822V507.959C70.1631 514.835 75.737 520.408 82.612 520.408C89.488 520.408 95.061 514.834 95.061 507.959V385.822V376.658H97.062C99.787 376.658 101.996 374.449 101.996 371.723C101.998 368.998 99.7881 366.789 97.0631 366.789Z" fill="#2D2563"/>
<path d="M41.835 501.957C41.835 508.833 36.261 514.406 29.386 514.406C22.511 514.406 16.937 508.832 16.937 501.957V365.9C16.937 359.024 22.511 367.409 29.386 367.409C36.262 367.409 41.835 359.024 41.835 365.9V501.957Z" fill="white"/>
<path opacity="0.1" d="M41.835 379.82V365.9C41.835 359.024 36.261 367.409 29.386 367.409C22.51 367.409 16.937 359.024 16.937 365.9V379.82H41.835Z" fill="#2D2563"/>
<path d="M48.771 365.72C48.771 368.445 46.562 370.654 43.837 370.654H14.934C12.209 370.654 10 368.445 10 365.72C10 362.995 12.209 360.785 14.934 360.785H43.836C46.561 360.785 48.771 362.995 48.771 365.72Z" fill="white"/>
<path d="M21.1631 421.211V493.35C21.1631 497.891 24.8441 501.572 29.3851 501.572C33.9261 501.572 37.6071 497.891 37.6071 493.35V421.211H21.1631Z" fill="#FEA938"/>
<path opacity="0.3" d="M30.5991 488.531C30.6151 490.289 29.2021 491.727 27.4431 491.743C25.6851 491.759 24.2471 490.346 24.2311 488.587L23.8531 433.31C23.8381 431.552 25.2501 430.114 27.0091 430.098C28.7671 430.082 30.2051 431.495 30.2211 433.254L30.5991 488.531Z" fill="white"/>
<path d="M89.064 501.957C89.064 508.833 83.49 514.406 76.615 514.406C69.739 514.406 64.166 508.832 64.166 501.957V365.9C64.166 359.024 69.74 367.409 76.615 367.409C83.49 367.409 89.064 359.024 89.064 365.9V501.957Z" fill="white"/>
<path opacity="0.1" d="M89.064 379.82V365.9C89.064 359.024 83.49 367.409 76.615 367.409C69.739 367.409 64.166 359.024 64.166 365.9V379.82H89.064Z" fill="#2D2563"/>
<path d="M96 365.72C96 368.445 93.791 370.654 91.066 370.654H62.164C59.439 370.654 57.23 368.445 57.23 365.72C57.23 362.995 59.439 360.785 62.164 360.785H91.066C93.791 360.785 96 362.995 96 365.72Z" fill="white"/>
<path opacity="0.7" d="M68.3931 393.211V493.718C68.3931 498.259 72.0741 501.94 76.6151 501.94C81.1561 501.94 84.8371 498.259 84.8371 493.718V393.211H68.3931Z" fill="#FF6688"/>
<path opacity="0.3" d="M77.8282 488.899C77.8432 490.657 76.4311 492.095 74.6721 492.111C72.9141 492.127 71.4761 490.714 71.4601 488.956L71.0821 405.31C71.0671 403.552 72.4791 402.114 74.2381 402.098C75.9961 402.082 77.4341 403.495 77.4501 405.254L77.8282 488.899Z" fill="white"/>
</g>
<defs>
<clipPath id="clip0_98_1339">
<rect width="500" height="514" fill="white"/>
</clipPath>
</defs>
</svg>
