<svg width="463" height="444" viewBox="0 0 463 444" fill="none" xmlns="http://www.w3.org/2000/svg">
<path opacity="0.4" d="M326.467 249.289H182.186V392.947H326.467V249.289Z" stroke="#9FB0BE" stroke-miterlimit="10"/>
<path opacity="0.4" d="M227.484 255.824H188.389V294.919H227.484V255.824Z" stroke="#9FB0BE" stroke-miterlimit="10"/>
<path opacity="0.4" d="M201.193 290.645H188.389V294.921H201.193V290.645Z" stroke="#9FB0BE" stroke-miterlimit="10"/>
<path opacity="0.4" d="M214.339 290.645H201.535V294.921H214.339V290.645Z" stroke="#9FB0BE" stroke-miterlimit="10"/>
<path opacity="0.4" d="M227.484 290.645H214.681V294.921H227.484V290.645Z" stroke="#9FB0BE" stroke-miterlimit="10"/>
<path opacity="0.4" d="M201.193 285.695H188.389V289.971H201.193V285.695Z" stroke="#9FB0BE" stroke-miterlimit="10"/>
<path opacity="0.4" d="M214.339 285.695H201.535V289.971H214.339V285.695Z" stroke="#9FB0BE" stroke-miterlimit="10"/>
<path opacity="0.4" d="M227.484 285.695H214.681V289.971H227.484V285.695Z" stroke="#9FB0BE" stroke-miterlimit="10"/>
<path opacity="0.4" d="M201.193 280.746H188.389V285.022H201.193V280.746Z" stroke="#9FB0BE" stroke-miterlimit="10"/>
<path opacity="0.4" d="M214.339 280.746H201.535V285.022H214.339V280.746Z" stroke="#9FB0BE" stroke-miterlimit="10"/>
<path opacity="0.4" d="M227.484 280.746H214.681V285.022H227.484V280.746Z" stroke="#9FB0BE" stroke-miterlimit="10"/>
<path opacity="0.4" d="M201.193 275.797H188.389V280.073H201.193V275.797Z" stroke="#9FB0BE" stroke-miterlimit="10"/>
<path opacity="0.4" d="M214.339 275.797H201.535V280.073H214.339V275.797Z" stroke="#9FB0BE" stroke-miterlimit="10"/>
<path opacity="0.4" d="M227.484 275.797H214.681V280.073H227.484V275.797Z" stroke="#9FB0BE" stroke-miterlimit="10"/>
<path opacity="0.4" d="M201.193 270.848H188.389V275.124H201.193V270.848Z" stroke="#9FB0BE" stroke-miterlimit="10"/>
<path opacity="0.4" d="M214.339 270.848H201.535V275.124H214.339V270.848Z" stroke="#9FB0BE" stroke-miterlimit="10"/>
<path opacity="0.4" d="M227.484 270.848H214.681V275.124H227.484V270.848Z" stroke="#9FB0BE" stroke-miterlimit="10"/>
<path opacity="0.4" d="M227.484 301.855H188.389V340.95H227.484V301.855Z" stroke="#9FB0BE" stroke-miterlimit="10"/>
<path opacity="0.4" d="M201.193 336.676H188.389V340.952H201.193V336.676Z" stroke="#9FB0BE" stroke-miterlimit="10"/>
<path opacity="0.4" d="M214.339 336.676H201.535V340.952H214.339V336.676Z" stroke="#9FB0BE" stroke-miterlimit="10"/>
<path opacity="0.4" d="M227.484 336.676H214.681V340.952H227.484V336.676Z" stroke="#9FB0BE" stroke-miterlimit="10"/>
<path opacity="0.4" d="M201.193 331.727H188.389V336.003H201.193V331.727Z" stroke="#9FB0BE" stroke-miterlimit="10"/>
<path opacity="0.4" d="M214.339 331.727H201.535V336.003H214.339V331.727Z" stroke="#9FB0BE" stroke-miterlimit="10"/>
<path opacity="0.4" d="M227.484 331.727H214.681V336.003H227.484V331.727Z" stroke="#9FB0BE" stroke-miterlimit="10"/>
<path opacity="0.4" d="M201.193 326.777H188.389V331.053H201.193V326.777Z" stroke="#9FB0BE" stroke-miterlimit="10"/>
<path opacity="0.4" d="M214.339 326.777H201.535V331.053H214.339V326.777Z" stroke="#9FB0BE" stroke-miterlimit="10"/>
<path opacity="0.4" d="M227.484 326.777H214.681V331.053H227.484V326.777Z" stroke="#9FB0BE" stroke-miterlimit="10"/>
<path opacity="0.4" d="M201.193 321.828H188.389V326.104H201.193V321.828Z" stroke="#9FB0BE" stroke-miterlimit="10"/>
<path opacity="0.4" d="M227.484 321.828H214.681V326.104H227.484V321.828Z" stroke="#9FB0BE" stroke-miterlimit="10"/>
<path opacity="0.4" d="M201.193 316.879H188.389V321.155H201.193V316.879Z" stroke="#9FB0BE" stroke-miterlimit="10"/>
<path opacity="0.4" d="M227.484 347.887H188.389V386.982H227.484V347.887Z" stroke="#9FB0BE" stroke-miterlimit="10"/>
<path opacity="0.4" d="M201.193 382.707H188.389V386.983H201.193V382.707Z" stroke="#9FB0BE" stroke-miterlimit="10"/>
<path opacity="0.4" d="M214.339 382.707H201.535V386.983H214.339V382.707Z" stroke="#9FB0BE" stroke-miterlimit="10"/>
<path opacity="0.4" d="M227.484 382.707H214.681V386.983H227.484V382.707Z" stroke="#9FB0BE" stroke-miterlimit="10"/>
<path opacity="0.4" d="M201.193 377.758H188.389V382.034H201.193V377.758Z" stroke="#9FB0BE" stroke-miterlimit="10"/>
<path opacity="0.4" d="M214.339 377.758H201.535V382.034H214.339V377.758Z" stroke="#9FB0BE" stroke-miterlimit="10"/>
<path opacity="0.4" d="M227.484 377.758H214.681V382.034H227.484V377.758Z" stroke="#9FB0BE" stroke-miterlimit="10"/>
<path opacity="0.4" d="M201.193 372.809H188.389V377.085H201.193V372.809Z" stroke="#9FB0BE" stroke-miterlimit="10"/>
<path opacity="0.4" d="M214.339 372.809H201.535V377.085H214.339V372.809Z" stroke="#9FB0BE" stroke-miterlimit="10"/>
<path opacity="0.4" d="M227.484 372.809H214.681V377.085H227.484V372.809Z" stroke="#9FB0BE" stroke-miterlimit="10"/>
<path opacity="0.4" d="M214.339 367.859H201.535V372.135H214.339V367.859Z" stroke="#9FB0BE" stroke-miterlimit="10"/>
<path opacity="0.4" d="M227.484 367.859H214.681V372.135H227.484V367.859Z" stroke="#9FB0BE" stroke-miterlimit="10"/>
<path opacity="0.4" d="M214.339 362.91H201.535V367.186H214.339V362.91Z" stroke="#9FB0BE" stroke-miterlimit="10"/>
<path opacity="0.4" d="M227.484 362.91H214.681V367.186H227.484V362.91Z" stroke="#9FB0BE" stroke-miterlimit="10"/>
<path opacity="0.4" d="M273.842 255.824H234.747V294.919H273.842V255.824Z" stroke="#9FB0BE" stroke-miterlimit="10"/>
<path opacity="0.4" d="M247.551 290.645H234.747V294.921H247.551V290.645Z" stroke="#9FB0BE" stroke-miterlimit="10"/>
<path opacity="0.4" d="M260.697 290.645H247.893V294.921H260.697V290.645Z" stroke="#9FB0BE" stroke-miterlimit="10"/>
<path opacity="0.4" d="M273.843 290.645H261.039V294.921H273.843V290.645Z" stroke="#9FB0BE" stroke-miterlimit="10"/>
<path opacity="0.4" d="M247.551 285.695H234.747V289.971H247.551V285.695Z" stroke="#9FB0BE" stroke-miterlimit="10"/>
<path opacity="0.4" d="M260.697 285.695H247.893V289.971H260.697V285.695Z" stroke="#9FB0BE" stroke-miterlimit="10"/>
<path opacity="0.4" d="M273.843 285.695H261.039V289.971H273.843V285.695Z" stroke="#9FB0BE" stroke-miterlimit="10"/>
<path opacity="0.4" d="M247.551 280.746H234.747V285.022H247.551V280.746Z" stroke="#9FB0BE" stroke-miterlimit="10"/>
<path opacity="0.4" d="M260.697 280.746H247.893V285.022H260.697V280.746Z" stroke="#9FB0BE" stroke-miterlimit="10"/>
<path opacity="0.4" d="M273.843 280.746H261.039V285.022H273.843V280.746Z" stroke="#9FB0BE" stroke-miterlimit="10"/>
<path opacity="0.4" d="M247.551 275.797H234.747V280.073H247.551V275.797Z" stroke="#9FB0BE" stroke-miterlimit="10"/>
<path opacity="0.4" d="M260.697 275.797H247.893V280.073H260.697V275.797Z" stroke="#9FB0BE" stroke-miterlimit="10"/>
<path opacity="0.4" d="M273.843 275.797H261.039V280.073H273.843V275.797Z" stroke="#9FB0BE" stroke-miterlimit="10"/>
<path opacity="0.4" d="M247.551 270.848H234.747V275.124H247.551V270.848Z" stroke="#9FB0BE" stroke-miterlimit="10"/>
<path opacity="0.4" d="M260.697 270.848H247.893V275.124H260.697V270.848Z" stroke="#9FB0BE" stroke-miterlimit="10"/>
<path opacity="0.4" d="M273.843 270.848H261.039V275.124H273.843V270.848Z" stroke="#9FB0BE" stroke-miterlimit="10"/>
<path opacity="0.4" d="M273.842 301.855H234.747V340.95H273.842V301.855Z" stroke="#9FB0BE" stroke-miterlimit="10"/>
<path opacity="0.4" d="M247.551 336.676H234.747V340.952H247.551V336.676Z" stroke="#9FB0BE" stroke-miterlimit="10"/>
<path opacity="0.4" d="M260.697 336.676H247.893V340.952H260.697V336.676Z" stroke="#9FB0BE" stroke-miterlimit="10"/>
<path opacity="0.4" d="M273.843 336.676H261.039V340.952H273.843V336.676Z" stroke="#9FB0BE" stroke-miterlimit="10"/>
<path opacity="0.4" d="M247.551 331.727H234.747V336.003H247.551V331.727Z" stroke="#9FB0BE" stroke-miterlimit="10"/>
<path opacity="0.4" d="M260.697 331.727H247.893V336.003H260.697V331.727Z" stroke="#9FB0BE" stroke-miterlimit="10"/>
<path opacity="0.4" d="M273.843 331.727H261.039V336.003H273.843V331.727Z" stroke="#9FB0BE" stroke-miterlimit="10"/>
<path opacity="0.4" d="M247.551 326.777H234.747V331.053H247.551V326.777Z" stroke="#9FB0BE" stroke-miterlimit="10"/>
<path opacity="0.4" d="M260.697 326.777H247.893V331.053H260.697V326.777Z" stroke="#9FB0BE" stroke-miterlimit="10"/>
<path opacity="0.4" d="M273.843 326.777H261.039V331.053H273.843V326.777Z" stroke="#9FB0BE" stroke-miterlimit="10"/>
<path opacity="0.4" d="M273.843 321.828H261.039V326.104H273.843V321.828Z" stroke="#9FB0BE" stroke-miterlimit="10"/>
<path opacity="0.4" d="M273.842 347.887H234.747V386.982H273.842V347.887Z" stroke="#9FB0BE" stroke-miterlimit="10"/>
<path opacity="0.4" d="M247.551 382.707H234.747V386.983H247.551V382.707Z" stroke="#9FB0BE" stroke-miterlimit="10"/>
<path opacity="0.4" d="M260.697 382.707H247.893V386.983H260.697V382.707Z" stroke="#9FB0BE" stroke-miterlimit="10"/>
<path opacity="0.4" d="M273.843 382.707H261.039V386.983H273.843V382.707Z" stroke="#9FB0BE" stroke-miterlimit="10"/>
<path opacity="0.4" d="M247.551 377.758H234.747V382.034H247.551V377.758Z" stroke="#9FB0BE" stroke-miterlimit="10"/>
<path opacity="0.4" d="M260.697 377.758H247.893V382.034H260.697V377.758Z" stroke="#9FB0BE" stroke-miterlimit="10"/>
<path opacity="0.4" d="M273.843 377.758H261.039V382.034H273.843V377.758Z" stroke="#9FB0BE" stroke-miterlimit="10"/>
<path opacity="0.4" d="M247.551 372.809H234.747V377.085H247.551V372.809Z" stroke="#9FB0BE" stroke-miterlimit="10"/>
<path opacity="0.4" d="M260.697 372.809H247.893V377.085H260.697V372.809Z" stroke="#9FB0BE" stroke-miterlimit="10"/>
<path opacity="0.4" d="M273.843 372.809H261.039V377.085H273.843V372.809Z" stroke="#9FB0BE" stroke-miterlimit="10"/>
<path opacity="0.4" d="M260.697 367.859H247.893V372.135H260.697V367.859Z" stroke="#9FB0BE" stroke-miterlimit="10"/>
<path opacity="0.4" d="M273.843 367.859H261.039V372.135H273.843V367.859Z" stroke="#9FB0BE" stroke-miterlimit="10"/>
<path opacity="0.4" d="M273.843 362.91H261.039V367.186H273.843V362.91Z" stroke="#9FB0BE" stroke-miterlimit="10"/>
<path opacity="0.4" d="M320.2 255.824H281.105V294.919H320.2V255.824Z" stroke="#9FB0BE" stroke-miterlimit="10"/>
<path opacity="0.4" d="M293.909 290.645H281.105V294.921H293.909V290.645Z" stroke="#9FB0BE" stroke-miterlimit="10"/>
<path opacity="0.4" d="M307.055 290.645H294.251V294.921H307.055V290.645Z" stroke="#9FB0BE" stroke-miterlimit="10"/>
<path opacity="0.4" d="M320.2 290.645H307.396V294.921H320.2V290.645Z" stroke="#9FB0BE" stroke-miterlimit="10"/>
<path opacity="0.4" d="M293.909 285.695H281.105V289.971H293.909V285.695Z" stroke="#9FB0BE" stroke-miterlimit="10"/>
<path opacity="0.4" d="M307.055 285.695H294.251V289.971H307.055V285.695Z" stroke="#9FB0BE" stroke-miterlimit="10"/>
<path opacity="0.4" d="M320.2 285.695H307.396V289.971H320.2V285.695Z" stroke="#9FB0BE" stroke-miterlimit="10"/>
<path opacity="0.4" d="M293.909 280.746H281.105V285.022H293.909V280.746Z" stroke="#9FB0BE" stroke-miterlimit="10"/>
<path opacity="0.4" d="M307.055 280.746H294.251V285.022H307.055V280.746Z" stroke="#9FB0BE" stroke-miterlimit="10"/>
<path opacity="0.4" d="M320.2 280.746H307.396V285.022H320.2V280.746Z" stroke="#9FB0BE" stroke-miterlimit="10"/>
<path opacity="0.4" d="M293.909 275.797H281.105V280.073H293.909V275.797Z" stroke="#9FB0BE" stroke-miterlimit="10"/>
<path opacity="0.4" d="M307.055 275.797H294.251V280.073H307.055V275.797Z" stroke="#9FB0BE" stroke-miterlimit="10"/>
<path opacity="0.4" d="M320.2 275.797H307.396V280.073H320.2V275.797Z" stroke="#9FB0BE" stroke-miterlimit="10"/>
<path opacity="0.4" d="M293.909 270.848H281.105V275.124H293.909V270.848Z" stroke="#9FB0BE" stroke-miterlimit="10"/>
<path opacity="0.4" d="M307.055 270.848H294.251V275.124H307.055V270.848Z" stroke="#9FB0BE" stroke-miterlimit="10"/>
<path opacity="0.4" d="M320.2 270.848H307.396V275.124H320.2V270.848Z" stroke="#9FB0BE" stroke-miterlimit="10"/>
<path opacity="0.4" d="M320.2 301.855H281.105V340.95H320.2V301.855Z" stroke="#9FB0BE" stroke-miterlimit="10"/>
<path opacity="0.4" d="M293.909 336.676H281.105V340.952H293.909V336.676Z" stroke="#9FB0BE" stroke-miterlimit="10"/>
<path opacity="0.4" d="M307.055 336.676H294.251V340.952H307.055V336.676Z" stroke="#9FB0BE" stroke-miterlimit="10"/>
<path opacity="0.4" d="M320.2 340.95H307.396L306.264 337.531H319.067L320.2 340.95Z" stroke="#9FB0BE" stroke-miterlimit="10"/>
<path opacity="0.4" d="M293.909 331.727H281.105V336.003H293.909V331.727Z" stroke="#9FB0BE" stroke-miterlimit="10"/>
<path opacity="0.4" d="M307.055 331.727H294.251V336.003H307.055V331.727Z" stroke="#9FB0BE" stroke-miterlimit="10"/>
<path opacity="0.4" d="M320.2 331.727H307.396V336.003H320.2V331.727Z" stroke="#9FB0BE" stroke-miterlimit="10"/>
<path opacity="0.4" d="M293.909 326.777H281.105V331.053H293.909V326.777Z" stroke="#9FB0BE" stroke-miterlimit="10"/>
<path opacity="0.4" d="M307.055 326.777H294.251V331.053H307.055V326.777Z" stroke="#9FB0BE" stroke-miterlimit="10"/>
<path opacity="0.4" d="M320.2 326.777H307.396V331.053H320.2V326.777Z" stroke="#9FB0BE" stroke-miterlimit="10"/>
<path opacity="0.4" d="M293.909 321.828H281.105V326.104H293.909V321.828Z" stroke="#9FB0BE" stroke-miterlimit="10"/>
<path opacity="0.4" d="M320.2 321.828H307.396V326.104H320.2V321.828Z" stroke="#9FB0BE" stroke-miterlimit="10"/>
<path opacity="0.4" d="M320.2 347.887H281.105V386.982H320.2V347.887Z" stroke="#9FB0BE" stroke-miterlimit="10"/>
<path opacity="0.4" d="M293.909 382.707H281.105V386.983H293.909V382.707Z" stroke="#9FB0BE" stroke-miterlimit="10"/>
<path opacity="0.4" d="M307.055 382.707H294.251V386.983H307.055V382.707Z" stroke="#9FB0BE" stroke-miterlimit="10"/>
<path opacity="0.4" d="M320.2 382.707H307.396V386.983H320.2V382.707Z" stroke="#9FB0BE" stroke-miterlimit="10"/>
<path opacity="0.4" d="M293.909 377.758H281.105V382.034H293.909V377.758Z" stroke="#9FB0BE" stroke-miterlimit="10"/>
<path opacity="0.4" d="M307.055 377.758H294.251V382.034H307.055V377.758Z" stroke="#9FB0BE" stroke-miterlimit="10"/>
<path opacity="0.4" d="M320.2 377.758H307.396V382.034H320.2V377.758Z" stroke="#9FB0BE" stroke-miterlimit="10"/>
<path opacity="0.4" d="M293.909 372.809H281.105V377.085H293.909V372.809Z" stroke="#9FB0BE" stroke-miterlimit="10"/>
<path opacity="0.4" d="M307.055 372.809H294.251V377.085H307.055V372.809Z" stroke="#9FB0BE" stroke-miterlimit="10"/>
<path opacity="0.4" d="M320.2 372.809H307.396V377.085H320.2V372.809Z" stroke="#9FB0BE" stroke-miterlimit="10"/>
<path opacity="0.4" d="M307.055 367.859H294.251V372.135H307.055V367.859Z" stroke="#9FB0BE" stroke-miterlimit="10"/>
<path opacity="0.4" d="M307.055 362.91H294.251V367.186H307.055V362.91Z" stroke="#9FB0BE" stroke-miterlimit="10"/>
<path opacity="0.4" d="M462.436 249.816H333.628V392.944H462.436V249.816Z" stroke="#9FB0BE" stroke-miterlimit="10"/>
<path opacity="0.4" d="M457.906 345.297H338.158V384.843H457.906V345.297Z" stroke="#9FB0BE" stroke-miterlimit="10"/>
<path opacity="0.4" d="M431.241 352.344H364.822V356.62H431.241V352.344Z" stroke="#9FB0BE" stroke-miterlimit="10"/>
<path opacity="0.4" d="M457.906 301.344H338.158V340.89H457.906V301.344Z" stroke="#9FB0BE" stroke-miterlimit="10"/>
<path opacity="0.4" d="M431.241 308.391H364.822V312.667H431.241V308.391Z" stroke="#9FB0BE" stroke-miterlimit="10"/>
<path opacity="0.4" d="M457.906 257.391H338.158V296.937H457.906V257.391Z" stroke="#9FB0BE" stroke-miterlimit="10"/>
<path opacity="0.4" d="M431.241 264.438H364.822V268.714H431.241V264.438Z" stroke="#9FB0BE" stroke-miterlimit="10"/>
<path opacity="0.4" d="M181.808 249.816H1V392.944H181.808V249.816Z" stroke="#9FB0BE" stroke-miterlimit="10"/>
<path opacity="0.4" d="M177.278 345.297H5.53003V384.843H177.278V345.297Z" stroke="#9FB0BE" stroke-miterlimit="10"/>
<path opacity="0.4" d="M150.614 352.344H32.1951V356.62H150.614V352.344Z" stroke="#9FB0BE" stroke-miterlimit="10"/>
<path opacity="0.4" d="M177.278 301.344H5.53003V340.89H177.278V301.344Z" stroke="#9FB0BE" stroke-miterlimit="10"/>
<path opacity="0.4" d="M150.614 308.391H32.1951V312.667H150.614V308.391Z" stroke="#9FB0BE" stroke-miterlimit="10"/>
<path opacity="0.4" d="M177.278 257.391H5.53003V296.937H177.278V257.391Z" stroke="#9FB0BE" stroke-miterlimit="10"/>
<path opacity="0.4" d="M150.614 264.438H32.1951V268.714H150.614V264.438Z" stroke="#9FB0BE" stroke-miterlimit="10"/>
<path opacity="0.4" d="M437.262 58.189C442.481 36.4872 429.118 14.6641 407.417 9.44566C385.715 4.22724 363.892 17.5896 358.673 39.2914C353.455 60.9932 366.817 82.8163 388.519 88.0347C410.221 93.2532 432.044 79.8908 437.262 58.189Z" stroke="#9FB0BE" stroke-width="0.9728" stroke-miterlimit="10"/>
<path d="M430.864 56.6547C435.221 38.4764 424.017 20.2074 405.839 15.8497C387.661 11.4921 369.392 22.696 365.034 40.8743C360.676 59.0526 371.88 77.3216 390.059 81.6793C408.237 86.0369 426.506 74.833 430.864 56.6547Z" stroke="white" stroke-width="0.9728" stroke-miterlimit="10"/>
<path d="M323.778 56.6602H201.825V179.64H323.778V56.6602Z" fill="white"/>
<path opacity="0.3" d="M323.778 56.6602H201.825V74.0842H323.778V56.6602Z" fill="#7B8FC6"/>
<path d="M242.126 117.897C241.539 117.897 241.078 117.621 240.797 117.394C238.381 114.42 234.07 114.678 234.07 114.678L233.674 114.708C227.295 115.665 228.013 124.196 234.073 124.436C237.409 124.568 239.498 123.551 240.551 122.072C240.597 122.063 240.641 122.056 240.691 122.044C243.88 121.247 244.359 118.376 244.837 116.144C245.315 113.912 246.471 113.951 246.471 113.951L246.072 112.316C243.442 113.233 243.328 117.897 242.126 117.897Z" fill="#EDCECF"/>
<path opacity="0.37" d="M242.126 117.897C241.539 117.897 241.078 117.621 240.797 117.394C238.381 114.42 234.07 114.678 234.07 114.678L233.674 114.708C227.295 115.665 228.013 124.196 234.073 124.436C237.409 124.568 239.498 123.551 240.551 122.072C240.597 122.063 240.641 122.056 240.691 122.044C243.88 121.247 244.359 118.376 244.837 116.144C245.315 113.912 246.471 113.951 246.471 113.951L246.072 112.316C243.442 113.233 243.328 117.897 242.126 117.897Z" fill="#FB6058"/>
<path opacity="0.23" d="M233.589 116.695C233.589 116.695 235.821 116.56 237.328 117.955C237.789 118.381 238.063 118.969 238.06 119.597C238.053 121.261 236.714 122.783 233.59 122.66C229.885 122.514 229.447 117.298 233.346 116.713L233.589 116.695Z" fill="#EFDADD"/>
<path d="M291.929 114.708L291.533 114.678C291.533 114.678 287.222 114.42 284.806 117.394C284.525 117.621 284.064 117.897 283.477 117.897C282.275 117.897 282.161 113.233 279.53 112.316L279.131 113.951C279.131 113.951 280.287 113.911 280.766 116.144C281.244 118.377 281.723 121.247 284.912 122.044C284.961 122.056 285.005 122.062 285.052 122.072C286.105 123.551 288.194 124.568 291.53 124.436C297.59 124.196 298.307 115.665 291.929 114.708Z" fill="#EDCECF"/>
<g opacity="0.37">
<path d="M291.929 114.708L291.533 114.678C291.533 114.678 287.222 114.42 284.806 117.394C284.525 117.621 284.064 117.897 283.477 117.897C282.275 117.897 282.161 113.233 279.53 112.316L279.131 113.951C279.131 113.951 280.287 113.911 280.766 116.144C281.244 118.377 281.723 121.247 284.912 122.044C284.961 122.056 285.005 122.062 285.052 122.072C286.105 123.551 288.194 124.568 291.53 124.436C297.59 124.196 298.307 115.665 291.929 114.708Z" fill="#FB6058"/>
</g>
<path opacity="0.23" d="M292.015 116.695C292.015 116.695 289.783 116.56 288.276 117.955C287.815 118.381 287.541 118.969 287.544 119.597C287.551 121.261 288.89 122.783 292.014 122.66C295.719 122.514 296.157 117.298 292.258 116.713L292.015 116.695Z" fill="#EFDADD"/>
<path d="M307.424 100.915C305.191 99.5327 302.534 98.8417 294.879 98.8947C287.225 98.9477 281.962 99.0007 278.135 96.7687C274.319 94.5427 269.656 90.7847 262.831 90.7627C262.831 90.7627 262.831 90.7617 262.83 90.7617C262.82 90.7617 262.811 90.7617 262.801 90.7617C262.791 90.7617 262.782 90.7617 262.772 90.7617C255.947 90.7827 251.284 94.5417 247.468 96.7687C243.641 99.0017 238.378 98.9477 230.724 98.8947C223.07 98.8417 220.412 99.5327 218.179 100.915C215.946 102.297 213.023 105.779 214.777 111.227C216.583 116.836 220.996 119.094 223.123 120.104C225.249 121.114 226.259 121.805 229.236 123.772C231.14 125.03 233.153 124.961 234.357 124.749C234.751 124.679 234.9 124.199 234.612 123.921C234.495 123.808 234.369 123.671 234.233 123.507C233.489 122.603 231.416 121.115 231.416 121.115C234.712 120.796 235.137 119.414 235.137 119.414C234.074 118.457 231.363 118.085 231.363 118.085C231.363 118.085 232.213 117.66 232.745 117.128C233.108 116.765 233.867 115.758 234.312 115.156C234.458 114.958 234.317 114.679 234.071 114.68C233.158 114.683 231.365 114.721 230.034 114.949C228.173 115.268 226.632 116.491 226.632 116.491C225.622 116.65 222.858 116.438 220.891 114.471C218.127 111.92 216.213 104.052 225.356 102.032C234.499 100.012 241.409 103.733 243.961 106.072C246.512 108.411 245.875 112.663 246.3 115.321C246.725 117.979 248.958 120.637 251.722 124.039C254.486 127.441 253.423 130.737 253.423 133.607C253.423 136.477 254.061 140.092 255.656 145.514C257.251 150.936 256.294 152.318 256.081 156.145C255.868 159.972 256.294 163.799 256.294 163.799C258.275 165.221 262.437 165.042 262.803 165.023C263.17 165.042 267.332 165.221 269.312 163.799C269.312 163.799 269.737 159.972 269.525 156.145C269.312 152.318 268.356 150.936 269.95 145.514C271.545 140.092 272.183 136.478 272.183 133.607C272.183 130.737 271.12 127.441 273.884 124.039C276.648 120.637 278.881 117.979 279.306 115.321C279.731 112.663 279.093 108.411 281.645 106.072C284.197 103.733 291.107 100.012 300.25 102.032C309.393 104.052 307.479 111.919 304.715 114.471C302.748 116.438 299.984 116.65 298.974 116.491C298.974 116.491 297.432 115.268 295.572 114.949C294.241 114.721 292.448 114.683 291.534 114.68C291.288 114.679 291.147 114.958 291.293 115.156C291.738 115.759 292.497 116.765 292.86 117.128C293.392 117.66 294.242 118.085 294.242 118.085C294.242 118.085 291.531 118.457 290.468 119.414C290.468 119.414 290.893 120.796 294.189 121.115C294.189 121.115 292.116 122.603 291.372 123.507C291.236 123.672 291.109 123.808 290.993 123.921C290.706 124.199 290.855 124.679 291.248 124.749C292.451 124.962 294.464 125.031 296.369 123.772C299.346 121.805 300.356 121.114 302.482 120.104C304.608 119.094 309.021 116.836 310.827 111.227C312.58 105.779 309.656 102.297 307.424 100.915Z" fill="#EDCECF"/>
<path opacity="0.37" d="M270.906 100.969C268.212 100.865 265.216 100.963 262.802 100.969C260.388 100.964 257.392 100.866 254.698 100.969C248.532 102.032 252.147 105.966 256.293 110.643C260.439 115.321 260.333 118.298 260.227 120.317C260.121 122.337 258.526 126.802 260.014 132.755C261.502 138.709 261.502 139.878 260.439 141.685C259.376 143.492 257.462 141.472 257.143 142.961C256.824 144.449 259.588 149.659 258.95 154.23C258.312 158.801 257.355 164.33 257.355 164.33C259.859 165.432 262.503 165.071 262.801 165.026C263.1 165.072 265.744 165.432 268.247 164.33C268.247 164.33 267.29 158.802 266.652 154.23C266.014 149.659 268.778 144.449 268.459 142.961C268.14 141.473 266.226 143.493 265.163 141.685C264.1 139.878 264.1 138.708 265.588 132.755C267.076 126.802 265.482 122.336 265.375 120.317C265.268 118.298 265.162 115.32 269.309 110.643C273.457 105.966 277.072 102.032 270.906 100.969Z" fill="#FB6058"/>
<path d="M190.635 11.9648H90.9531V112.486H190.635V11.9648Z" fill="white"/>
<path opacity="0.3" d="M190.635 11.9648H90.9531V26.2068H190.635V11.9648Z" fill="#7B8FC6"/>
<path d="M160.037 50.4768L164.545 46.6798C158.769 39.7768 150.093 35.3828 140.388 35.3828V41.2778C148.284 41.2778 155.342 44.8558 160.037 50.4768Z" fill="#FB6058"/>
<path d="M114.797 66.8688C114.797 52.7348 126.255 41.2778 140.388 41.2778V35.3828C122.998 35.3828 108.901 49.4798 108.901 66.8688C108.901 74.7158 111.778 81.8868 116.527 87.4008L121.009 83.5728C117.141 79.0898 114.797 73.2548 114.797 66.8688Z" fill="#A7DFD2"/>
<path d="M140.388 92.4614C132.64 92.4614 125.702 89.0134 121.009 83.5744L116.527 87.4024C122.301 94.1064 130.845 98.3574 140.387 98.3574C150.366 98.3574 159.254 93.7094 165.023 86.4674L160.396 82.8164C155.709 88.6914 148.491 92.4614 140.388 92.4614Z" fill="#49ACC3"/>
<path d="M164.545 46.6797L160.037 50.4767C163.746 54.9167 165.98 60.6317 165.98 66.8687C165.98 72.8997 163.889 78.4397 160.398 82.8137L165.025 86.4647C169.309 81.0857 171.875 74.2787 171.875 66.8687C171.875 59.1847 169.118 52.1457 164.545 46.6797Z" fill="#B69CC7"/>
<path opacity="0.36" d="M121.009 83.5734C125.702 89.0124 132.64 92.4604 140.388 92.4604C148.491 92.4604 155.709 88.6904 160.398 82.8144L140.388 67.0234L121.009 83.5734Z" fill="#49ACC3"/>
<path opacity="0.36" d="M140.388 41.2773C126.254 41.2773 114.797 52.7353 114.797 66.8683C114.797 73.2543 117.141 79.0893 121.009 83.5723L140.388 67.0223V41.2773Z" fill="#A7DFD2"/>
<path opacity="0.36" d="M140.388 41.2773V67.0223L160.037 50.4763C155.342 44.8553 148.284 41.2773 140.388 41.2773Z" fill="#FB6058"/>
<path opacity="0.36" d="M160.398 82.8136C163.888 78.4396 165.98 72.8996 165.98 66.8686C165.98 60.6306 163.746 54.9166 160.037 50.4766L140.388 67.0226L160.398 82.8136Z" fill="#B69CC7"/>
<path d="M256.351 241.965C268.82 241.965 278.929 231.856 278.929 219.387C278.929 206.917 268.82 196.809 256.351 196.809C243.881 196.809 233.773 206.917 233.773 219.387C233.773 231.856 243.881 241.965 256.351 241.965Z" fill="#A0A2A7"/>
<path d="M258.041 239.816H253.74V409.383H258.041V239.816Z" fill="#A0A2A7"/>
<path d="M256.351 237.741C266.488 237.741 274.706 229.523 274.706 219.386C274.706 209.249 266.488 201.031 256.351 201.031C246.214 201.031 237.996 209.249 237.996 219.386C237.996 229.523 246.214 237.741 256.351 237.741Z" fill="white"/>
<path opacity="0.1" d="M261.914 201.895C253.487 208.795 245.45 216.135 238.789 224.733C239.786 228.012 241.676 230.901 244.175 233.119C252.459 224.32 259.848 214.398 268.326 205.489C266.473 203.892 264.301 202.653 261.914 201.895Z" fill="#A0A2A7"/>
<path opacity="0.1" d="M272.627 210.914C264.862 219.316 256.94 227.56 249.719 236.506C251.775 237.304 254.012 237.742 256.35 237.742C256.74 237.742 257.126 237.726 257.51 237.702C262.652 230.29 268.53 223.43 274.49 216.631C274.182 214.596 273.546 212.671 272.627 210.914Z" fill="#A0A2A7"/>
<path d="M256.197 418.595C266.716 418.595 275.243 415.432 275.243 411.53C275.243 407.628 266.716 404.465 256.197 404.465C245.678 404.465 237.151 407.628 237.151 411.53C237.151 415.432 245.678 418.595 256.197 418.595Z" fill="#A0A2A7"/>
<path opacity="0.18" d="M92.0061 427.504C125.598 427.504 152.829 423.172 152.829 417.828C152.829 412.484 125.598 408.152 92.0061 408.152C58.4145 408.152 31.1831 412.484 31.1831 417.828C31.1831 423.172 58.4145 427.504 92.0061 427.504Z" fill="#7B8FC6"/>
<path opacity="0.18" d="M332.653 443.296C385.652 443.296 428.616 436.46 428.616 428.029C428.616 419.597 385.652 412.762 332.653 412.762C279.654 412.762 236.69 419.597 236.69 428.029C236.69 436.46 279.654 443.296 332.653 443.296Z" fill="#7B8FC6"/>
<path d="M183.309 172.441C183.309 172.441 186.881 161.216 190.739 159.358C194.597 157.5 191.496 170.435 191.496 170.435L183.309 172.441Z" fill="#E79B6B"/>
<path d="M190.609 166.533C190.609 166.533 196.906 155.164 199.958 154.287C203.01 153.41 197.184 166.786 197.184 166.786L190.609 166.533Z" fill="#E79B6B"/>
<path d="M167.344 180.736C167.344 180.736 168.885 175.489 173.011 172.243C177.137 168.997 186.892 166.835 192.704 166.614C192.704 166.614 202.007 154.867 205.404 154.072C208.801 153.277 200.631 167.079 200.631 167.079C200.631 167.079 206.346 157.047 208.923 157.971C209.679 158.242 204.194 168.036 199.276 172.771C194.358 177.506 184.569 181.263 182.398 182.423L180.329 189.586C180.329 189.586 173.81 188.18 167.344 180.736Z" fill="#E79B6B"/>
<path d="M170.384 174.937C171.109 173.989 171.979 173.052 173.01 172.24C177.136 168.994 186.891 166.832 192.703 166.611C192.703 166.611 199.107 158.525 203.228 155.316" stroke="#B87455" stroke-width="0.4628" stroke-miterlimit="10" stroke-linecap="round"/>
<path d="M112.591 400.184L111.203 271.979L137.379 264.91C137.379 264.91 134.66 364.724 128.917 396.722C128.917 396.722 153.771 406.561 153.526 411.285C153.282 416.009 124.49 411.564 124.49 411.564C124.49 411.564 106.691 415.439 112.591 400.184Z" fill="#E79B6B"/>
<path d="M70.5401 402.267C70.5401 402.267 69.5311 330.9 70.1681 267.149C70.2631 257.65 105.154 267.236 105.154 267.236C105.154 267.236 92.6091 366.806 86.8671 398.804C86.8671 398.804 110.899 408.413 110.655 413.137C110.411 417.861 82.4401 413.646 82.4401 413.646C82.4401 413.646 64.6401 417.522 70.5401 402.267Z" fill="#E79B6B"/>
<path d="M139.693 249.483C137.259 238.621 134.352 230.199 134.352 230.199L85.468 229.145C82.138 232.728 77.075 240.481 73.678 250.135C95.452 252.37 117.998 252.838 139.693 249.483Z" fill="#223045"/>
<path d="M73.678 250.133C71.837 255.365 70.478 261.148 70.168 267.146C67.433 320.124 66.855 394.95 66.855 394.95C72.652 399.114 92.078 396.889 92.078 396.889L109.585 273.368L108.365 394.819C122.816 397.712 132.165 394.279 132.165 394.279C132.165 394.279 142.134 286.791 142.771 279.137C143.532 269.978 141.788 258.826 139.693 249.48C117.998 252.836 95.452 252.368 73.678 250.133Z" fill="#7B8FC6"/>
<path d="M122.472 272.07C122.472 272.07 105.461 275.056 93.438 275.08" stroke="#1C1D27" stroke-width="0.5092" stroke-miterlimit="10" stroke-linecap="round" stroke-linejoin="round"/>
<path d="M87.6121 407.725C87.6121 407.725 89.6971 402.313 91.7861 400.854C93.8751 399.396 112.125 409.959 111.237 413.867C109.686 420.688 68.8251 415.222 68.0631 413.652C65.0941 407.531 70.3051 400.566 70.3051 400.566C70.3051 400.566 78.3041 401.65 87.6121 407.725Z" fill="#1C1D27"/>
<path d="M130.209 406.12C130.209 406.12 132.294 400.707 134.383 399.249C136.472 397.791 154.722 408.354 153.834 412.263C152.283 419.084 111.422 413.618 110.66 412.047C107.691 405.926 112.902 398.961 112.902 398.961C112.902 398.961 120.901 400.046 130.209 406.12Z" fill="#1C1D27"/>
<path d="M22.6741 178.433C22.7101 178.43 22.7451 178.42 22.7771 178.403C22.8931 178.34 22.9311 178.202 22.8641 178.095C19.5671 172.816 21.1981 166.041 23.1461 161.287C23.7891 159.716 24.5271 158.137 25.2401 156.61C27.0181 152.807 30.0951 159.475 30.6551 155.296C31.4451 149.394 29.6391 143.521 27.8931 137.841C26.2241 132.416 24.4981 126.805 25.0531 121.198C25.6001 115.685 28.4261 110.385 32.8071 106.657C33.6611 105.93 34.5931 105.243 35.4951 104.579C37.3111 103.24 39.1891 101.856 40.5521 100.06C43.7561 95.839 43.5271 90.424 43.3051 85.187C43.2601 84.156 43.2181 83.13 43.2001 82.121C43.0481 72.925 45.7941 64.866 50.9361 59.428C57.0841 52.927 66.9461 50.525 74.3841 53.715C74.5061 53.766 74.6481 53.718 74.7051 53.604C74.7601 53.491 74.7081 53.357 74.5871 53.305C66.9551 50.032 56.8591 52.482 50.5731 59.13C45.3531 64.652 42.5621 72.819 42.7171 82.128C42.7341 83.14 42.7781 84.169 42.8211 85.204C43.0401 90.365 43.2661 95.702 40.1581 99.798C38.8341 101.542 36.9841 102.905 35.1951 104.224C34.2871 104.893 33.3491 105.585 32.4811 106.322C28.0121 110.125 25.1291 115.531 24.5721 121.154C24.0081 126.846 25.7461 132.498 27.4271 137.964C29.1611 143.6 30.9531 149.428 30.1751 155.239C29.6231 159.354 26.5611 152.655 24.7971 156.428C24.0821 157.96 23.3401 159.544 22.6931 161.124C20.7081 165.971 19.0531 172.888 22.4461 178.32C22.4951 178.398 22.5861 178.44 22.6741 178.433Z" fill="#C4805C"/>
<path d="M140.813 148.732C137.914 140.767 131.71 145.469 128.853 138.406C124.149 127.834 132.817 115.601 127.317 105.977C124.546 100.715 117.754 99.2939 112.639 97.7769C97.2081 91.4269 82.4441 81.4259 65.0091 86.0279C52.5621 89.4439 41.4221 102.721 46.3811 118.697C53.2731 139.983 47.5421 149.507 40.0971 169.8C38.0701 174.776 38.7661 180.823 41.0811 186.63C43.7021 187.006 46.5741 187.115 49.6621 186.784L55.8771 186.476C55.8771 186.476 64.7501 191.23 95.4371 182.655C126.124 174.08 131.704 179.212 133.903 173.511L143.095 173.694C144.589 165.212 144.1 156.677 140.813 148.732Z" fill="#B87455"/>
<path d="M117.907 139.939L116.751 129.363C108.872 134.307 97.4681 135.04 88.9001 135.385L90.1541 142.637C99.3051 144.045 108.953 142.972 117.907 139.939Z" fill="#DC8457"/>
<path d="M90.1541 142.639L91.4601 150.193C92.7971 170.028 102.393 171.784 106.294 171.905C111.935 172.079 131.203 166.311 118.826 148.349L117.907 139.941C108.953 142.973 99.3051 144.046 90.1541 142.639Z" fill="#E79B6B"/>
<path d="M149.669 138.748C143.174 131.215 142.661 117.306 142.661 117.306C143.856 107.589 147.163 97.2851 130.11 70.6751C121.521 57.2731 120.426 52.2461 120.426 52.2461L49.6899 61.1881L39.2879 76.2111C36.4789 104.475 21.3819 99.1341 27.7059 129.063C30.5489 142.518 28.1779 138.094 25.1329 146.108C22.0869 154.122 18.7129 162.425 24.6689 179.708C24.6689 179.708 26.0409 180.898 28.5289 182.315C29.3529 182.784 30.9029 173.974 31.9629 174.459C33.0679 174.964 35.0339 185.205 35.0339 185.205C36.8519 185.806 38.8769 186.314 41.0829 186.631C38.7679 180.824 38.0729 174.777 40.0989 169.801C47.5439 149.508 57.0169 126.768 50.1249 105.481C45.1659 89.5051 52.5639 89.4441 65.0109 86.0281C82.4459 81.4261 97.2099 91.4271 112.641 97.7771C117.756 99.2931 124.548 100.714 127.319 105.977C132.818 115.601 124.151 127.834 128.855 138.406C131.711 145.47 137.916 140.768 140.815 148.732C144.101 156.676 144.591 165.212 143.098 173.694L143.383 174.242C143.383 174.242 151.448 175.991 157.562 168.777C158.961 167.125 156.873 147.103 149.669 138.748Z" fill="#C4805C"/>
<path d="M122.238 119.514C123.409 123.576 127.306 126.393 131.684 126.048C136.688 125.653 140.424 121.277 140.03 116.274C139.748 112.696 137.429 109.766 134.301 108.531" stroke="#E4BB5B" stroke-width="0.9968" stroke-miterlimit="10" stroke-linecap="round"/>
<path d="M67.8031 120.157L62.5751 105.125C62.5751 105.125 48.2821 100.823 48.3661 115.233C48.4501 129.643 63.5871 129.518 67.8031 120.157Z" fill="#E79B6B"/>
<path d="M58.106 122.512C55.478 125.823 55.446 130.632 58.269 133.997C61.495 137.842 67.227 138.345 71.072 135.119C73.822 132.812 74.862 129.223 74.052 125.96" stroke="#E4BB5B" stroke-width="0.9968" stroke-miterlimit="10" stroke-linecap="round"/>
<path d="M132.487 67.1351C132.487 67.1351 134.227 84.0591 135.376 104.159C136.307 120.431 124.202 137.094 104.406 139.506C85.8012 141.773 65.9752 135.35 58.6762 109.487C51.3772 83.6241 54.2782 61.9511 77.7162 54.7891C101.154 47.6281 124.931 47.2981 132.487 67.1351Z" fill="#E79B6B"/>
<path d="M104.621 63.1407C104.511 63.0047 104.439 62.9297 104.439 62.9297C104.439 62.9297 104.505 63.0077 104.621 63.1407Z" fill="#C4805C"/>
<path d="M75.2202 94.8038C75.2202 94.8038 71.8322 91.3458 78.3052 86.4188C84.7782 81.4918 87.1992 82.3588 88.4192 84.5698C89.5322 86.5878 88.1662 89.7848 84.4852 92.4558C80.0662 95.6618 77.0662 96.7968 75.2202 94.8038Z" fill="#C4805C"/>
<path d="M130.324 87.3453C130.324 87.3453 132.503 83.0223 124.841 80.2913C117.178 77.5603 115.134 79.1213 114.643 81.5993C114.195 83.8593 116.466 86.4913 120.784 87.9193C125.967 89.6343 129.17 89.8043 130.324 87.3453Z" fill="#C4805C"/>
<path d="M89.6911 105.466C89.9701 107.408 88.9051 109.168 87.3111 109.397C85.7181 109.626 84.1991 108.238 83.9201 106.296C83.6411 104.354 84.7061 102.594 86.3001 102.365C87.8931 102.135 89.4111 103.524 89.6911 105.466Z" fill="black"/>
<path d="M124.293 100.876C124.572 102.818 123.507 104.578 121.914 104.807C120.321 105.036 118.802 103.648 118.523 101.706C118.244 99.7639 119.309 98.0039 120.903 97.7749C122.496 97.5449 124.014 98.9339 124.293 100.876Z" fill="black"/>
<path d="M62.906 120.85C62.866 120.852 62.825 120.846 62.785 120.831C62.637 120.773 62.563 120.606 62.621 120.458C62.649 120.386 65.33 113.305 60.329 110.364C58.572 109.331 56.88 109.03 55.295 109.468C52.561 110.226 51.045 112.963 51.029 112.99C50.952 113.13 50.778 113.181 50.638 113.106C50.498 113.03 50.446 112.855 50.522 112.715C50.588 112.594 52.165 109.739 55.136 108.913C56.877 108.431 58.722 108.75 60.621 109.866C66.046 113.057 63.187 120.59 63.157 120.666C63.116 120.775 63.015 120.844 62.906 120.85Z" fill="#683935"/>
<path d="M55.495 115.619C55.407 115.624 55.318 115.589 55.258 115.516C55.156 115.394 55.172 115.212 55.294 115.109C55.34 115.07 59.972 111.271 63.76 114.659C63.879 114.765 63.8891 114.948 63.7831 115.066C63.6771 115.185 63.495 115.195 63.376 115.089C59.958 112.032 55.707 115.517 55.664 115.552C55.614 115.593 55.555 115.615 55.495 115.619Z" fill="#683935"/>
<path d="M105.482 108.831C105.373 108.837 105.265 108.781 105.21 108.677C105.136 108.535 105.19 108.362 105.331 108.287C105.354 108.275 107.598 107.077 108.502 104.959C109.212 103.295 108.826 100.878 107.691 99.8859C107.009 99.2909 106.132 99.2869 105.147 99.8759C105.116 99.8949 105.066 99.9269 105.001 99.9699C101.573 102.228 99.9222 101.394 99.1402 100.296C97.7062 98.2799 97.9132 81.7129 97.9412 79.8309C97.9442 79.6719 98.0782 79.5469 98.2342 79.5469C98.3932 79.5489 98.5202 79.6799 98.5182 79.8399C98.4422 84.9029 98.4892 98.3859 99.6102 99.9609C100.532 101.258 102.239 101.1 104.684 99.4879C104.759 99.4389 104.815 99.4009 104.852 99.3799C106.053 98.6649 107.197 98.6879 108.071 99.4509C109.393 100.607 109.843 103.286 109.033 105.184C108.047 107.496 105.699 108.745 105.599 108.797C105.561 108.818 105.521 108.828 105.482 108.831Z" fill="#683935"/>
<path d="M92.319 117.492C91.931 120.259 87.417 121.913 82.235 121.187C77.054 120.461 73.168 117.629 73.556 114.862C73.944 112.095 78.458 110.441 83.64 111.167C88.82 111.893 92.706 114.725 92.319 117.492Z" fill="#DC8457"/>
<path d="M115.814 115.641C116.631 118.313 121.349 119.239 126.352 117.71C131.355 116.181 134.749 112.775 133.933 110.103C133.116 107.431 128.398 106.505 123.395 108.035C118.391 109.564 114.997 112.97 115.814 115.641Z" fill="#DC8457"/>
<path d="M102.441 115.615C101.025 114.429 100.434 113.07 100.423 113.044L100.929 112.832C101.009 113.02 102.939 117.423 108.499 116.739L108.566 117.283C105.713 117.633 103.734 116.696 102.441 115.615Z" fill="#683935"/>
<path d="M69.714 51.4543C69.714 51.4543 47.61 47.0773 40.195 73.1963C35.568 89.4933 50.123 105.482 50.123 105.482C50.123 105.482 69.638 109.931 75.196 65.9953C75.196 65.9953 132.302 99.5123 136.833 96.7513C141.364 93.9903 143.559 55.4883 123.513 47.0773C104.621 39.1493 94.67 39.3303 69.714 51.4543Z" fill="#C4805C"/>
<path d="M68.2921 52.5585C68.2921 52.5585 58.1401 45.3315 61.5261 43.3665C64.9121 41.4015 69.5161 49.2435 69.5161 49.2435C69.5161 49.2435 64.3701 34.5005 69.7431 35.6805C75.1171 36.8615 76.0421 48.2775 72.6011 51.2525" fill="#C4805C"/>
<path d="M147.781 219.106C147.246 216.15 146.581 212.933 145.842 209.633C144.841 205.16 143.724 200.582 142.664 196.428C142.077 194.116 141.504 191.932 140.992 189.977C139.562 184.622 138.526 180.961 138.526 180.961C138.526 180.961 138.377 180.65 138.127 180.115C137.508 178.77 136.214 175.904 134.705 172.343C132.943 168.208 130.892 163.151 129.282 158.466C128.503 156.186 127.824 153.988 127.339 152.043C127.286 151.832 127.163 151.63 127.011 151.43C121.734 155.488 113.499 169.522 107.45 170.31C99.2521 171.452 90.6921 157.322 84.3111 150.719L80.7211 151.654C80.7211 151.654 81.1101 153.556 81.3661 156.854C81.4961 158.392 81.5931 160.246 81.6101 162.342C81.6351 166.184 81.3801 170.863 80.5511 176.043C80.1561 178.442 79.6281 180.946 78.9641 183.516C78.0101 187.21 76.7191 191.055 75.0171 194.955C74.2041 196.836 73.3021 198.726 72.2811 200.615C72.2811 200.615 71.6941 201.9 70.7971 203.972C69.5191 206.917 67.5971 211.478 65.7881 216.249C65.0401 218.254 64.3081 220.283 63.6351 222.254C62.6271 225.289 61.7851 228.163 61.3201 230.517C60.6941 233.721 60.7771 235.955 62.0621 236.28C67.4161 237.665 85.5801 243.667 104.842 244.174C124.092 244.696 146.374 238.497 148.705 231.679C148.986 230.856 149.038 229.443 148.936 227.668C148.795 225.376 148.379 222.434 147.781 219.106Z" fill="#7B8FC6"/>
<path d="M134.654 154.262C134.654 154.262 149.399 164.092 152.266 181.294C155.133 198.496 156.362 198.087 156.362 198.087L167.011 177.198C167.011 177.198 177.251 187.847 183.394 188.257C183.394 188.257 174.895 223.993 163.017 228.908C151.139 233.823 140.49 228.908 140.49 228.908L134.654 154.262Z" fill="white"/>
<path d="M118.301 146.117C118.301 146.117 123.308 286.07 127.569 301.159C127.569 301.159 130.73 311.226 158.494 293.067C158.494 293.067 152.26 228.145 151.032 210.741C149.804 193.337 145.448 173.039 145.448 173.039C145.448 173.039 147.745 154.291 118.301 146.117Z" fill="white"/>
<path d="M119.212 146.82C119.212 146.82 130.82 152.636 128.1 156.737C125.379 160.839 121.088 163.122 121.088 163.122C121.088 163.122 133.852 170.79 131.135 178.474C128.418 186.158 120.164 204.039 120.164 204.039" stroke="#C5D4D2" stroke-width="1.0857" stroke-miterlimit="10"/>
<path d="M89.9991 148.191C89.9991 148.191 100.142 175.079 101.55 303.776C101.55 303.776 86.1451 310.188 52.8691 294.037C52.8691 294.037 58.3161 218.769 58.9981 201.33C60.3201 167.532 77.4351 150.374 77.4351 150.374C77.4351 150.374 84.3291 148.191 89.9991 148.191Z" fill="white"/>
<path d="M89.999 148.191C89.999 148.191 77.3519 160.029 81.1799 163.57C85.0069 167.111 90.09 168.423 90.09 168.423C90.09 168.423 78.268 179.281 82.908 186.48C87.548 193.68 100.142 213.98 100.142 213.98" stroke="#C5D4D2" stroke-width="1.1589" stroke-miterlimit="10"/>
<path d="M90.942 258.711L69.676 257.348C69.676 257.348 68.881 273.039 76.061 276.921C83.242 280.804 90.477 275.522 90.942 258.711Z" stroke="#C5D4D2" stroke-width="1.1589" stroke-miterlimit="10"/>
<path d="M150.584 252.031L129.775 256.624C129.775 256.624 133.366 271.919 141.343 273.656C149.319 275.393 154.804 268.311 150.584 252.031Z" stroke="#C5D4D2" stroke-width="1.1589" stroke-miterlimit="10"/>
<path d="M128.159 181.76C126.396 180.885 93.6501 180.621 81.2551 181.83C78.7071 182.078 77.0181 182.389 76.6351 182.77C74.3901 185.002 77.8691 243.523 80.2541 249.296C80.8561 250.753 128.918 252.967 130.813 249.22C131.646 247.573 130.284 182.814 128.159 181.76Z" fill="#8C9096"/>
<path d="M128.065 181.736C129.015 182.206 129.803 195.701 130.299 210.344C114.799 200.664 98.801 191.869 83.343 181.727C96.165 180.655 126.393 180.909 128.065 181.736Z" fill="#A0A2A7"/>
<path d="M77.7452 182.742C78.1192 182.371 79.7692 182.068 82.2572 181.824C82.6022 181.79 82.9672 181.758 83.3432 181.727C98.8012 191.869 114.8 200.664 130.299 210.344C130.479 215.641 130.62 221.086 130.717 226.123C112.574 214.063 94.9172 200.659 77.0862 187.736C77.1782 184.92 77.3872 183.097 77.7452 182.742Z" fill="#ABADB2"/>
<path d="M117.954 249.431C103.44 249.845 81.648 248.55 81.249 247.585C80.148 244.923 78.815 230.757 77.948 216.336C91.828 226.583 105.601 237.106 117.954 249.431Z" fill="#A0A2A7"/>
<path d="M130.843 243.727C130.807 245.905 130.736 247.272 130.626 247.49C130.032 248.661 124.802 249.237 117.953 249.432C105.6 237.107 91.827 226.584 77.946 216.337C77.644 211.317 77.398 206.267 77.238 201.66C95.618 214.815 112.597 230.309 130.843 243.727Z" fill="#ABADB2"/>
<path d="M77.2391 201.659C77.0461 196.093 76.9771 191.167 77.0871 187.734C94.9181 200.657 112.575 214.061 130.718 226.121C130.859 233.434 130.907 239.868 130.844 243.726C112.597 230.308 95.6181 214.814 77.2391 201.659Z" fill="#A0A2A7"/>
<path d="M89.872 178.093C90.41 177.962 92.164 177.822 94.475 177.694C93.881 175.821 94.179 174.079 94.406 174.024C95.687 173.713 108.159 173.313 108.575 173.614C108.646 173.666 108.67 173.891 108.659 174.23C108.627 175.207 109.178 176.171 109.227 177.251C111.33 177.249 112.787 177.299 112.96 177.425C113.076 177.509 115.653 183.748 112.43 187.338C112.001 187.816 92.482 188.287 92.105 187.864C88.572 183.908 89.345 178.221 89.872 178.093Z" fill="#1C1D27"/>
<path d="M105.858 179.256C107.088 177.886 106.079 176.883 106.112 175.856C106.119 175.645 106.104 175.505 106.06 175.473C105.801 175.286 98.0461 175.534 97.2491 175.728C97.0481 175.777 96.7531 177.947 98.1011 179.457C98.2461 179.618 105.694 179.439 105.858 179.256Z" fill="white"/>
<path d="M95.486 207.426L99.006 207.327L98.915 203.797C98.875 202.269 100.078 200.996 101.602 200.953L108.344 200.763C109.868 200.72 111.134 201.924 111.174 203.452L111.265 206.982L114.785 206.883C116.308 206.84 117.575 208.044 117.615 209.571L117.79 216.333C117.83 217.861 116.627 219.135 115.103 219.178L111.583 219.277L111.674 222.807C111.714 224.335 110.511 225.608 108.987 225.651L102.245 225.841C100.722 225.884 99.455 224.68 99.415 223.152L99.324 219.622L95.804 219.721C94.28 219.764 93.013 218.56 92.974 217.032L92.799 210.27C92.76 208.743 93.963 207.469 95.486 207.426Z" fill="#DF615F"/>
<path d="M136.756 218.545C135.347 204.424 129.878 208.031 129.878 208.031C129.878 208.031 131.852 200.33 128.467 201.328C125.082 202.326 118.091 210.738 118.091 210.738L83.1492 211.745C85.1852 219.029 87.2622 226.37 89.4442 233.719C109.529 230.781 128.318 226.724 128.318 226.724C133.41 223.816 137.02 221.193 136.756 218.545Z" fill="#E79B6B"/>
<path d="M77.4341 150.375C77.4341 150.375 57.0301 156.348 52.2321 182.864C48.3871 204.114 50.1261 211.579 50.6671 218.055C51.2081 224.531 56.2781 236.568 65.2001 236.005C74.1221 235.442 96.8001 234.493 98.4231 232.241C100.045 229.988 97.2071 214.489 95.2371 211.535C94.6001 210.579 74.8491 210.898 74.8491 210.898L77.4341 150.375Z" fill="white"/>
<path d="M87.952 117.584C78.121 119.908 69.0229 111.973 69.9879 101.917C70.5729 95.8246 75.099 90.6346 81.055 89.2276C90.885 86.9046 99.982 94.8386 99.018 104.894C98.434 110.986 93.907 116.176 87.952 117.584ZM85.912 89.6626C76.392 88.7496 68.88 97.3626 71.079 106.671C72.412 112.31 77.326 116.596 83.094 117.15C92.615 118.064 100.128 109.449 97.928 100.141C96.594 94.5016 91.68 90.2156 85.912 89.6626Z" fill="#161A2F"/>
<path d="M127.731 114.869C117.901 117.192 108.803 109.258 109.768 99.2017C110.353 93.1097 114.879 87.9197 120.835 86.5127C130.666 84.1897 139.763 92.1247 138.798 102.18C138.213 108.272 133.687 113.462 127.731 114.869ZM125.693 86.9467C116.172 86.0327 108.66 94.6467 110.859 103.955C112.192 109.594 117.106 113.88 122.874 114.434C132.395 115.348 139.907 106.734 137.707 97.4257C136.375 91.7867 131.461 87.5007 125.693 86.9467Z" fill="#161A2F"/>
<path d="M110.006 100.016C109.94 100.021 109.871 100.008 109.808 99.9761C104.049 97.1111 98.655 100.704 98.601 100.741C98.424 100.861 98.183 100.815 98.063 100.639C97.943 100.462 97.988 100.221 98.165 100.1C98.222 100.062 103.994 96.2181 110.153 99.2821C110.344 99.3781 110.423 99.6101 110.328 99.8021C110.264 99.9301 110.139 100.007 110.006 100.016Z" fill="#161A2F"/>
<path d="M48.732 109.465C48.727 109.465 48.723 109.466 48.718 109.466C48.504 109.473 48.325 109.305 48.318 109.091C48.202 105.632 51.763 103.933 51.914 103.863C51.957 103.843 52.004 103.831 52.051 103.828L70.313 103.987C70.527 103.973 70.711 104.134 70.726 104.347C70.74 104.561 70.579 104.745 70.365 104.76L52.181 104.596C51.736 104.825 49.002 106.348 49.093 109.066C49.1 109.274 48.939 109.451 48.732 109.465Z" fill="#161A2F"/>
<path d="M146.941 187.129L154.314 246.723" stroke="#C5D4D2" stroke-width="1.1589" stroke-miterlimit="10"/>
<path d="M277.155 320.756L239.149 271.405C238.296 270.298 238.503 268.71 239.61 267.857C240.717 267.005 242.305 267.211 243.158 268.318L281.164 317.669C282.017 318.776 281.81 320.365 280.703 321.217C279.596 322.069 278.008 321.863 277.155 320.756Z" fill="#1C1D27"/>
<path d="M256.451 272.105C259.011 271.832 261.477 272.091 263.754 272.784C266.086 273.494 268.035 270.767 266.614 268.787C262.509 263.067 255.629 259.475 247.941 259.986C237.466 260.682 228.937 269.211 228.241 279.687C227.771 286.767 230.78 293.161 235.726 297.334C237.975 299.231 241.399 297.21 240.73 294.345C240.275 292.396 240.133 290.327 240.361 288.193C241.257 279.795 248.053 273.001 256.451 272.105Z" fill="white"/>
<path d="M234.95 288.811C234.95 288.811 235.257 265.772 259.525 267.308" stroke="#1C1D27" stroke-width="0.9728" stroke-miterlimit="10" stroke-linecap="round"/>
<path d="M442.301 194.208C442.301 194.208 415.233 185.215 391.102 187.786C366.971 190.357 332.784 293.934 332.784 293.934L389.939 329.053L442.301 194.208Z" fill="#7B8FC6"/>
<path d="M431.959 194.124L439.174 194.79L445.191 150.424C445.191 150.424 413.223 146.856 407.942 146.985C405.573 146.674 388.293 147.496 386.427 161.725L384.936 171.563C383.071 185.793 399.556 191.04 401.925 191.35L431.959 194.124Z" fill="#7B8FC6"/>
<path d="M442.301 194.208C441.273 193.764 438.113 192.883 433.988 192.475C424.827 191.569 410.902 192.994 404.976 206.702L367.062 294.415C366.381 295.99 365.891 297.531 365.567 299.035C361.8 316.503 380.487 328.846 383.535 330.164C386.845 331.595 390.689 330.071 392.12 326.761L411.33 282.32L426.496 247.235L445.706 202.794C447.135 199.482 445.611 195.639 442.301 194.208Z" fill="#7B8FC6"/>
<path d="M394.461 187.605L430.041 192.258C421.206 192.177 410.1 194.846 404.976 206.7L377.784 269.608" stroke="#1C1D27" stroke-width="0.9728" stroke-miterlimit="10"/>
<path d="M310.249 379.747L296.712 373.217L281.423 315.883H360.417L310.249 379.747Z" fill="#F0F5FF"/>
<path d="M361.691 379.589H310.09L294.801 322.254H373.795L361.691 379.589Z" fill="white"/>
<path d="M361.691 378.312H310.09L274.628 435.647H404.054L361.691 378.312Z" fill="white"/>
<path d="M296.712 373.219L255.092 426.306L274.628 435.65L310.09 378.315L296.712 373.219Z" fill="#F0F5FF"/>
<path d="M360.629 299.32H305.418C283.759 299.32 279.14 325.018 279.14 328.624C279.14 332.23 282.063 335.154 285.67 335.154H334.085H372.308H380.377C383.983 335.154 386.907 332.23 386.907 328.624C386.907 325.018 382.288 299.32 360.629 299.32Z" fill="#7B8FC6"/>
<path d="M360.629 299.32H305.418C283.759 299.32 279.14 325.018 279.14 328.624C279.14 332.23 282.063 335.154 285.67 335.154H334.085H372.308H380.377C383.983 335.154 386.907 332.23 386.907 328.624C386.907 325.018 382.288 299.32 360.629 299.32Z" stroke="#1C1D27" stroke-width="0.9728" stroke-miterlimit="10"/>
<path d="M351.021 273.517H264.383C260.777 273.517 257.853 270.594 257.853 266.987C257.853 263.381 260.776 260.457 264.383 260.457H351.021C354.627 260.457 357.551 263.381 357.551 266.987C357.551 270.594 354.627 273.517 351.021 273.517Z" fill="#CCD7F2"/>
<path d="M264.321 262.982C264.321 262.982 260.35 265.778 260.001 266.829C259.652 267.88 258.386 272.179 257.861 273.325C257.335 274.471 255.377 275.643 255.142 271.157C254.907 266.671 254.978 267.017 260.944 261.137" fill="#ECBD8F"/>
<path d="M277.613 263.641C269.181 266.994 258.296 261.347 258.296 261.347C258.296 261.347 250.394 272.676 248.756 270.311C247.118 267.946 255.439 256.622 258.45 254.409C264.426 250.018 276.087 250.781 276.087 250.781C276.087 250.781 292.804 251.13 297.104 248.059C300.257 250.247 300.585 263.009 300.585 263.009L278.058 263.623" fill="#ECBD8F"/>
<path d="M258.834 259.902C255.62 263.298 253.211 267.452 251.86 271.929C251.734 272.348 251.636 272.861 251.94 273.176C252.418 273.673 253.229 273.147 253.688 272.633C257.158 268.746 260.205 264.481 262.757 259.938" fill="#ECBD8F"/>
<path d="M255.142 271.155C255.142 271.155 256.26 262.58 262.07 259.617" stroke="#D9A278" stroke-width="0.4185" stroke-miterlimit="10" stroke-linecap="round" stroke-linejoin="round"/>
<path d="M253.773 267.138C253.773 267.138 255.471 262.363 256.886 260.312C258.302 258.26 260.919 256.859 260.919 256.859" stroke="#D9A278" stroke-width="0.4185" stroke-miterlimit="10" stroke-linecap="round" stroke-linejoin="round"/>
<path d="M264.44 261.984C264.44 261.984 261.163 271.199 263.416 272.224C265.669 273.248 270.379 262.189 270.379 262.189L264.44 261.984Z" fill="#ECBD8F"/>
<path d="M269.384 198.332C273.689 190.795 276.628 181.774 276.578 176.403C276.486 166.454 266.303 154.492 279.113 135.663C288.352 122.081 286.198 118.282 286.198 118.282L380.461 108.512C380.461 108.512 383.748 123.107 389.774 130.546C395.8 137.985 405.425 143.351 400.981 159.903C397.335 173.485 406.831 186.237 412.011 193.48C417.113 200.615 415.213 208.331 409.832 226.256C409.832 226.256 405.778 228.933 402.489 230.819L400.961 223.272C399.705 223.849 398.856 232.608 397.351 233.109C395.861 233.604 394.254 234.042 392.537 234.383C394.684 228.339 395.068 222.161 392.58 217.253C383.317 197.182 376.777 177.085 382.927 155.039C387.312 138.506 374.487 125.798 360.848 123.175C341.755 119.687 326.427 130.824 310.158 138.304C304.729 140.187 297.486 142.086 294.814 147.609C289.462 157.737 299.555 169.555 295.119 180.59C292.464 187.944 285.263 194.425 282.616 202.695C279.55 210.971 279.538 219.658 281.663 228.156L281.388 228.731C281.388 228.731 272.79 231.049 265.755 224.149C264.145 222.568 261.839 211.543 269.384 198.332Z" fill="#503A33"/>
<path d="M282.616 202.695C285.262 194.424 292.464 187.944 295.119 180.59C299.555 169.554 289.461 157.737 294.814 147.609C297.486 142.087 304.729 140.187 310.158 138.304C326.427 130.824 341.754 119.687 360.848 123.175C374.487 125.797 387.312 138.506 382.927 155.039C376.777 177.085 383.318 197.182 392.58 217.253C395.068 222.161 394.684 228.339 392.537 234.383C389.731 234.941 386.639 235.246 383.286 235.118L380.545 218.734L376.56 235.225C376.56 235.225 367.272 240.644 333.637 234.023C300.002 227.402 294.291 232.983 291.572 227.351C288.854 221.719 294.671 200.902 294.671 200.902L290.59 228.162L281.663 228.157C279.539 219.659 279.551 210.972 282.616 202.695Z" fill="#3A2924"/>
<path d="M317.053 172.576C317.053 172.576 335.057 170.972 346.272 172.525L341.281 195.148L317.297 192.905L317.053 172.576Z" fill="#639C90"/>
<path d="M341.614 164.814L339.981 157.691L318.842 159.303L319.789 168.285C327.452 168.388 334.674 167.071 341.614 164.814Z" fill="#D8A178"/>
<path d="M319.79 168.285L322.621 195.133C330.641 196.747 342.752 194.424 348.198 193.526L341.615 164.812C334.674 167.07 327.452 168.388 319.79 168.285Z" fill="#EBBC8E"/>
<path d="M297.917 99.1929C297.917 99.1929 292.94 112.593 293.121 132.091C293.262 147.304 305.546 162.082 324.131 163.116C341.598 164.088 359.67 156.892 364.885 132.356C370.1 107.821 362.21 88.3949 339.942 83.1589C317.673 77.9239 302.311 83.9609 297.917 99.1929Z" fill="#EBBC8E"/>
<path d="M333.65 144.294C334.336 146.81 338.712 147.807 343.423 146.523C348.134 145.238 351.397 142.157 350.711 139.641C350.025 137.125 345.649 136.128 340.938 137.413C336.227 138.698 332.964 141.779 333.65 144.294Z" fill="#D8A178"/>
<path d="M295.734 142.797C295.358 145.377 298.971 148.04 303.803 148.744C308.636 149.448 312.858 147.927 313.234 145.346C313.61 142.765 309.997 140.103 305.165 139.399C300.332 138.695 296.11 140.216 295.734 142.797Z" fill="#D8A178"/>
<path d="M324.344 147.894C322.376 148.522 320.845 147.46 319.777 146.179C322.369 144.447 325.527 143.445 328.384 142.797C327.9 144.654 326.808 147.108 324.344 147.894Z" fill="#9B4964"/>
<path d="M328.764 140.559C328.764 140.559 328.712 141.543 328.384 142.799C325.527 143.447 322.369 144.449 319.777 146.181C318.603 144.774 317.988 143.102 317.988 143.102C321.674 140.487 328.764 140.559 328.764 140.559Z" fill="black"/>
<path d="M319.287 137.656C319.373 137.655 319.455 137.605 319.493 137.521C319.544 137.406 319.492 137.272 319.377 137.221C319.359 137.213 317.529 136.385 316.706 134.763C316.06 133.489 316.24 131.564 317.082 130.724C317.589 130.22 318.28 130.171 319.086 130.584C319.111 130.597 319.152 130.62 319.206 130.65C322.024 132.252 323.281 131.509 323.841 130.603C324.867 128.94 323.845 115.898 323.726 114.416C323.716 114.291 323.603 114.2 323.48 114.207C323.355 114.217 323.261 114.327 323.272 114.453C323.594 118.438 324.255 129.064 323.454 130.363C322.794 131.432 321.441 131.397 319.432 130.253C319.37 130.218 319.324 130.191 319.294 130.176C318.311 129.674 317.411 129.753 316.761 130.399C315.779 131.378 315.563 133.512 316.3 134.966C317.197 136.736 319.112 137.599 319.193 137.635C319.224 137.65 319.256 137.656 319.287 137.656Z" fill="#683935"/>
<path d="M374.761 137.641C372.653 124.357 360.142 130.486 360.142 130.486L357.606 145.123C362.908 153.106 376.869 150.926 374.761 137.641ZM372.377 136.416C372.26 136.507 372.091 136.486 372 136.369C371.982 136.346 370.17 134.055 367.537 133.772C366.011 133.609 364.498 134.143 363.037 135.361C361.684 136.488 361.154 137.895 361.045 139.284C364.031 136.452 368.35 138.94 368.395 138.967C368.523 139.043 368.566 139.208 368.49 139.336C368.445 139.412 368.368 139.458 368.287 139.467C368.231 139.473 368.173 139.462 368.121 139.431C368.077 139.405 363.718 136.896 361.026 140.091C361.108 142.665 362.435 144.967 362.457 145.005C362.533 145.133 362.49 145.298 362.362 145.374C362.328 145.394 362.291 145.406 362.254 145.41C362.153 145.421 362.049 145.373 361.994 145.28C361.97 145.24 360.569 142.81 360.49 140.068C360.483 140.04 360.483 140.017 360.486 139.988C360.452 138.251 360.956 136.397 362.693 134.949C364.272 133.633 365.923 133.059 367.6 133.239C370.462 133.549 372.347 135.939 372.426 136.041C372.516 136.156 372.495 136.326 372.377 136.416Z" fill="#EBBC8E"/>
<path d="M367.6 133.235C365.923 133.055 364.272 133.629 362.693 134.945C360.956 136.393 360.452 138.247 360.486 139.984C360.49 139.932 360.495 139.877 360.53 139.833C360.696 139.627 360.869 139.448 361.046 139.281C361.155 137.893 361.685 136.486 363.038 135.358C364.499 134.14 366.012 133.606 367.538 133.769C370.17 134.052 371.982 136.343 372.001 136.366C372.093 136.483 372.261 136.504 372.378 136.413C372.496 136.322 372.517 136.153 372.426 136.036C372.346 135.935 370.461 133.545 367.6 133.235Z" fill="#683935"/>
<path d="M360.57 140.214C360.523 140.176 360.503 140.121 360.49 140.066C360.569 142.808 361.971 145.238 361.994 145.278C362.049 145.372 362.153 145.419 362.254 145.408C362.291 145.404 362.328 145.392 362.362 145.372C362.49 145.297 362.532 145.131 362.457 145.003C362.435 144.965 361.109 142.663 361.026 140.089C361.001 140.119 360.973 140.141 360.948 140.172C360.855 140.289 360.685 140.307 360.57 140.214Z" fill="#683935"/>
<path d="M360.489 140.064C360.488 140.037 360.485 140.011 360.485 139.984C360.483 140.013 360.482 140.036 360.489 140.064Z" fill="#683935"/>
<path d="M368.121 139.43C368.173 139.46 368.231 139.472 368.287 139.466C368.369 139.457 368.445 139.412 368.49 139.335C368.565 139.207 368.523 139.042 368.395 138.966C368.35 138.939 364.031 136.45 361.045 139.283C361.024 139.554 361.018 139.823 361.026 140.09C363.718 136.895 368.077 139.404 368.121 139.43Z" fill="#683935"/>
<path d="M360.485 139.987C360.485 140.014 360.488 140.04 360.489 140.067C360.503 140.122 360.522 140.177 360.569 140.215C360.685 140.308 360.854 140.29 360.948 140.175C360.973 140.144 361.001 140.122 361.026 140.092C361.017 139.825 361.023 139.556 361.045 139.285C360.869 139.452 360.695 139.631 360.529 139.837C360.494 139.88 360.489 139.935 360.485 139.987Z" fill="#683935"/>
<path d="M344.607 121.429C344.607 121.429 347.11 118.865 341.252 116.297C335.394 113.728 333.455 114.522 332.644 116.07C331.904 117.483 333.341 119.422 336.66 120.798C340.646 122.45 343.254 122.896 344.607 121.429Z" fill="#503A33"/>
<path d="M297.813 122.922C297.813 122.922 295.592 120.332 301.729 117.83C307.865 115.327 309.716 116.141 310.356 117.698C310.94 119.118 309.292 121.04 305.823 122.379C301.66 123.986 299.005 124.403 297.813 122.922Z" fill="#503A33"/>
<path d="M336.885 131.892C337.014 133.719 338.334 135.113 339.833 135.007C341.332 134.901 342.442 133.334 342.313 131.508C342.184 129.681 340.864 128.286 339.365 128.392C337.866 128.498 336.756 130.065 336.885 131.892Z" fill="black"/>
<path d="M304.602 131.4C304.731 133.227 306.051 134.621 307.55 134.516C309.049 134.41 310.159 132.843 310.03 131.016C309.901 129.189 308.581 127.794 307.082 127.9C305.583 128.006 304.473 129.573 304.602 131.4Z" fill="black"/>
<path d="M368.616 129.898C368.616 129.898 334.578 120.077 326.72 92.4098C326.72 92.4098 297.504 128.943 286.198 118.281C286.198 118.281 281.147 89.6848 303.6 79.1838C315.917 73.4228 325.77 75.6088 325.77 75.6088C342.542 72.4168 352.705 69.8918 371.233 84.7438C390.309 100.036 387.68 137.519 368.616 129.898Z" fill="#503A33"/>
<path d="M380.859 105.91C380.311 113.15 382.833 120.572 387.678 125.98C392.496 131.358 399.564 134.963 402.485 141.566C406.437 150.5 401.163 160.912 402.674 170.563C403.914 178.49 409.543 184.951 412.587 192.374C416.871 202.819 415.648 215.349 409.426 224.769" stroke="#503A33" stroke-width="0.5771" stroke-miterlimit="10"/>
<path d="M322.701 86.1602C326.202 100.029 334.982 112.497 346.86 120.467C358.738 128.438 373.603 131.836 387.764 129.82" stroke="#503A33" stroke-width="0.5771" stroke-miterlimit="10"/>
<path d="M289.047 121.998C310.153 116.133 327.593 98.566 333.305 77.418" stroke="#503A33" stroke-width="0.5771" stroke-miterlimit="10"/>
<path d="M274.618 366.056C274.287 363.849 267.232 357.167 267.89 355.226C267.888 355.225 267.886 355.225 267.883 355.225C268.352 353.818 277.733 301.181 276.02 288.4L264.608 274.371C238.709 284.173 246.152 329.014 249.576 359.653C249.427 361.334 252.04 367.097 237.278 385.834C237.278 385.834 234.602 388.158 232.358 388.622C230.115 389.086 230.871 394.095 236.108 393.591C241.345 393.088 239.796 390.355 244.552 389.827C249.308 389.299 251.471 385.695 255.209 381.495C258.947 377.296 264.629 377.555 267.981 376.911C271.504 376.232 275.732 373.496 274.618 366.056Z" fill="#EBBC8E"/>
<path d="M294.234 377.497C293.903 375.29 286.848 368.609 287.506 366.668C287.504 366.667 287.501 366.667 287.499 366.667C287.968 365.26 297.349 312.623 295.636 299.842L284.224 285.812C258.325 295.615 265.768 340.456 269.192 371.095C269.043 372.776 271.656 378.539 256.894 397.277C256.894 397.277 254.218 399.601 251.974 400.064C249.731 400.528 250.487 405.537 255.724 405.033C260.961 404.53 259.413 401.797 264.168 401.269C268.923 400.741 271.087 397.136 274.824 392.938C278.562 388.739 284.244 388.998 287.596 388.354C291.12 387.674 295.348 384.936 294.234 377.497Z" fill="#EBBC8E"/>
<path d="M268.258 304.777C262.739 323.256 266.882 350.412 269.193 371.096C269.044 372.777 271.657 378.54 256.895 397.278" stroke="#D9A278" stroke-width="0.4185" stroke-miterlimit="10" stroke-linecap="round" stroke-linejoin="round"/>
<path d="M288.892 203.214L288.193 260.253L285.703 261.605L303.624 256.911L308.583 202.938L288.892 203.214Z" fill="#EBBC8E"/>
<path d="M295.31 257.668C295.31 257.668 248.885 261.591 247.578 286.765C247.578 286.765 252.155 296.246 268.175 302.785C278.713 307.086 287.736 310.294 292.677 311.985C294.86 312.732 297.254 312.268 299.038 310.804C301.485 308.796 306.093 306.368 313.912 306.645C358.824 308.238 368.667 297.036 368.87 271.726C369.197 230.859 295.31 257.668 295.31 257.668Z" fill="#A7DFD2"/>
<path d="M376.063 189.337C368.603 172.891 346.273 172.523 346.273 172.523L345.019 173.989C342.898 176.179 332.336 194.264 328.341 193.248C321.991 191.633 318.039 172.485 317.47 172.542C311.275 173.167 300.981 171.849 293.348 183.779C293.348 183.779 287.899 195.549 286.591 206.447C286.591 209.668 296.591 210.158 296.591 210.158C296.907 206.763 290.515 269.979 299.232 277.609C304.167 281.929 360.841 280.024 366.581 279.571C372.32 279.118 365.756 214.5 365.756 214.5C374.326 215.239 380.721 209.871 380.721 209.871C379.536 194.057 376.063 189.337 376.063 189.337Z" fill="#A7DFD2"/>
<path d="M314.882 173.062C314.882 173.062 319.368 194.113 328.168 196.529C336.968 198.945 349.219 173.581 349.219 173.581" stroke="#639C90" stroke-width="0.5464" stroke-miterlimit="10" stroke-linecap="round" stroke-linejoin="round"/>
<path d="M295.901 213.093C295.901 213.093 297.454 203.085 300.215 193.25" stroke="#639C90" stroke-width="0.5464" stroke-miterlimit="10" stroke-linecap="round" stroke-linejoin="round"/>
<path d="M324.626 244.593C334.022 240.392 342.928 235.098 351.108 228.852" stroke="#639C90" stroke-width="0.5464" stroke-miterlimit="10" stroke-linecap="round" stroke-linejoin="round"/>
<path d="M338.859 249.156C348.313 243.802 356.244 235.79 361.5 226.281" stroke="#639C90" stroke-width="0.5464" stroke-miterlimit="10" stroke-linecap="round" stroke-linejoin="round"/>
<path d="M353.504 215.166C353.504 215.166 366.254 215.166 376.389 211.57C376.389 211.57 374.754 264.533 366.581 270.418C353.068 282.406 302.502 272.543 302.502 272.543L313.945 257.341C313.945 257.341 344.522 258.543 349.254 251.783C348.927 252.11 353.504 215.166 353.504 215.166Z" fill="#EBBC8E"/>
<path d="M314.046 338.276V275.987C314.046 274.59 315.179 273.457 316.576 273.457C317.973 273.457 319.106 274.59 319.106 275.987V338.276C319.106 339.673 317.973 340.806 316.576 340.806C315.179 340.806 314.046 339.673 314.046 338.276Z" fill="white"/>
<path d="M373.948 338.276V275.987C373.948 274.59 375.081 273.457 376.478 273.457C377.875 273.457 379.008 274.59 379.008 275.987V338.276C379.008 339.673 377.875 340.806 376.478 340.806C375.08 340.806 373.948 339.673 373.948 338.276Z" fill="white"/>
<path d="M393.065 284.986H306.427C302.821 284.986 299.897 282.063 299.897 278.456C299.897 274.85 302.82 271.926 306.427 271.926H393.065C396.671 271.926 399.595 274.849 399.595 278.456C399.595 282.063 396.671 284.986 393.065 284.986Z" fill="#CCD7F2"/>
<path d="M304.255 269.431C304.255 269.431 300.284 272.227 299.935 273.278C299.586 274.329 298.32 278.628 297.795 279.774C297.269 280.92 295.311 282.092 295.076 277.606C294.841 273.12 294.912 273.466 300.878 267.586" fill="#ECBD8F"/>
<path d="M307.733 267.418C307.733 267.418 304.138 270.683 303.922 271.769C303.706 272.855 302.981 277.278 302.6 278.48C302.22 279.682 300.421 281.087 299.634 276.664C298.847 272.241 298.96 272.576 304.154 266.004" fill="#ECBD8F"/>
<path d="M316.021 257.23C316.021 257.23 304.36 256.467 298.385 260.858C295.374 263.071 287.053 274.395 288.691 276.76C290.329 279.125 298.231 267.796 298.231 267.796C298.231 267.796 309.116 273.444 317.547 270.09" fill="#ECBD8F"/>
<path d="M298.768 266.352C295.554 269.748 293.145 273.902 291.794 278.379C291.667 278.798 291.57 279.311 291.874 279.626C292.352 280.123 293.163 279.597 293.622 279.083C297.092 275.196 300.139 270.931 302.691 266.388" fill="#ECBD8F"/>
<path d="M295.076 277.604C295.076 277.604 296.194 269.029 302.004 266.066" stroke="#D9A278" stroke-width="0.4185" stroke-miterlimit="10" stroke-linecap="round" stroke-linejoin="round"/>
<path d="M293.707 273.585C293.707 273.585 295.405 268.81 296.821 266.758C298.237 264.706 300.854 263.305 300.854 263.305" stroke="#D9A278" stroke-width="0.4185" stroke-miterlimit="10" stroke-linecap="round" stroke-linejoin="round"/>
<path d="M304.392 335.808L266.386 286.457C265.533 285.35 265.74 283.762 266.847 282.909C267.954 282.056 269.542 282.263 270.395 283.37L308.401 332.721C309.254 333.828 309.047 335.416 307.94 336.269C306.833 337.121 305.245 336.915 304.392 335.808Z" fill="#1C1D27"/>
<path d="M383.235 341.505H296.597C292.991 341.505 290.067 338.582 290.067 334.975C290.067 331.369 292.99 328.445 296.597 328.445H383.235C386.841 328.445 389.765 331.368 389.765 334.975C389.765 338.582 386.842 341.505 383.235 341.505Z" fill="#CCD7F2"/>
<path d="M435.258 193.569C437.107 194.327 438.582 194.713 439.174 194.791C441.543 195.102 443.716 193.433 444.026 191.064L444.749 187.085L448.918 155.278C449.229 152.909 447.56 150.736 445.191 150.426C442.822 150.115 425.542 150.937 423.676 165.166L422.185 175.004C420.787 185.675 429.709 191.295 435.258 193.569Z" fill="#7B8FC6"/>
<path d="M445.191 150.426C442.822 150.115 425.542 150.937 423.676 165.166L422.185 175.004C420.862 185.1 428.776 190.674 434.332 193.172" stroke="#1C1D27" stroke-width="0.9728" stroke-miterlimit="10"/>
<path d="M354.037 379.051L359.872 379.126" stroke="#1C1D27" stroke-width="0.9728" stroke-miterlimit="10" stroke-linecap="round"/>
<path d="M311.644 378.512L350.969 379.013" stroke="#1C1D27" stroke-width="0.9728" stroke-miterlimit="10" stroke-linecap="round"/>
<path d="M300.381 342.875L310.09 378.311L277.854 431.345" stroke="#1C1D27" stroke-width="0.9728" stroke-miterlimit="10" stroke-linecap="round"/>
<path d="M310.09 378.311L297.718 374.004" stroke="#1C1D27" stroke-width="0.9728" stroke-miterlimit="10" stroke-linecap="round"/>
<path d="M283.688 287.155C286.248 286.882 288.714 287.141 290.991 287.834C293.322 288.544 295.272 285.817 293.851 283.837C289.746 278.117 282.866 274.526 275.178 275.037C264.703 275.733 256.173 284.261 255.478 294.737C255.008 301.817 258.017 308.212 262.963 312.384C265.212 314.281 268.636 312.26 267.967 309.395C267.512 307.446 267.37 305.378 267.598 303.244C268.495 294.846 275.29 288.051 283.688 287.155Z" fill="white"/>
<path d="M262.187 303.862C262.187 303.862 262.494 280.823 286.762 282.359" stroke="#1C1D27" stroke-width="0.9728" stroke-miterlimit="10" stroke-linecap="round"/>
<path d="M172.496 239.458C172.134 240.093 171.929 240.818 171.924 241.55C171.919 242.314 172.179 243.153 172.842 243.531C173.692 244.014 174.884 243.429 175.193 242.501C175.502 241.573 175.045 240.507 174.269 239.911C173.177 239.072 171.495 239.121 170.454 240.022C169.413 240.924 169.123 242.581 169.797 243.782" stroke="#1C1D27" stroke-width="0.7178" stroke-miterlimit="10" stroke-linecap="round"/>
<path d="M169.914 244.051C169.637 244.728 169.527 245.473 169.616 246.199C169.709 246.957 170.074 247.756 170.781 248.045C171.686 248.415 172.793 247.681 172.98 246.722C173.167 245.762 172.577 244.764 171.732 244.272C170.541 243.58 168.879 243.845 167.962 244.872C167.045 245.9 166.971 247.581 167.794 248.686" stroke="#1C1D27" stroke-width="0.7178" stroke-miterlimit="10" stroke-linecap="round"/>
<path d="M167.956 249.044C168.059 249.768 168.341 250.467 168.784 251.048C169.247 251.655 169.967 252.16 170.723 252.052C171.691 251.914 172.275 250.721 171.951 249.799C171.627 248.876 170.613 248.313 169.636 248.316C168.259 248.321 166.958 249.389 166.687 250.739C166.415 252.089 167.201 253.577 168.469 254.114" stroke="#1C1D27" stroke-width="0.7178" stroke-miterlimit="10" stroke-linecap="round"/>
<path d="M168.369 254.413C168.644 255.09 169.088 255.7 169.659 256.156C170.256 256.632 171.076 256.948 171.784 256.659C172.69 256.29 172.967 254.991 172.428 254.175C171.89 253.359 170.77 253.058 169.822 253.299C168.487 253.638 167.485 254.99 167.549 256.366C167.613 257.742 168.737 258.994 170.098 259.207" stroke="#1C1D27" stroke-width="0.7178" stroke-miterlimit="10" stroke-linecap="round"/>
<path d="M170.466 259.351C171.046 259.796 171.736 260.098 172.46 260.203C173.216 260.312 174.083 260.17 174.548 259.563C175.143 258.787 174.726 257.526 173.849 257.094C172.972 256.662 171.854 256.969 171.157 257.655C170.176 258.622 169.995 260.295 170.746 261.45C171.497 262.605 173.1 263.118 174.382 262.614" stroke="#1C1D27" stroke-width="0.7178" stroke-miterlimit="10" stroke-linecap="round"/>
<path d="M174.778 262.621C175.335 263.094 175.776 263.706 176.03 264.391C176.296 265.107 176.339 265.985 175.844 266.567C175.21 267.312 173.89 267.169 173.283 266.403C172.676 265.637 172.741 264.478 173.265 263.653C174.004 262.491 175.602 261.962 176.889 262.453C178.176 262.944 179.014 264.403 178.791 265.762" stroke="#1C1D27" stroke-width="0.7178" stroke-miterlimit="10" stroke-linecap="round"/>
<path d="M178.775 266.052C179.267 266.593 179.625 267.257 179.789 267.97C179.961 268.714 179.891 269.59 179.325 270.104C178.601 270.761 177.31 270.45 176.806 269.612C176.302 268.774 176.515 267.634 177.142 266.883C178.025 265.826 179.677 265.506 180.89 266.159C182.103 266.811 182.747 268.366 182.351 269.685" stroke="#1C1D27" stroke-width="0.7178" stroke-miterlimit="10" stroke-linecap="round"/>
<path d="M182.321 270.078C182.472 270.793 182.446 271.546 182.228 272.245C182 272.974 181.497 273.694 180.749 273.852C179.792 274.053 178.836 273.132 178.824 272.154C178.813 271.176 179.573 270.3 180.493 269.969C181.789 269.503 183.376 270.062 184.093 271.238C184.81 272.414 184.58 274.081 183.572 275.019" stroke="#1C1D27" stroke-width="0.7178" stroke-miterlimit="10" stroke-linecap="round"/>
<path d="M183.769 275.263C183.742 275.994 183.534 276.718 183.152 277.342C182.754 277.994 182.091 278.57 181.328 278.541C180.351 278.504 179.647 277.378 179.873 276.427C180.099 275.476 181.05 274.81 182.023 274.713C183.393 274.575 184.797 275.503 185.207 276.818C185.617 278.133 184.989 279.694 183.783 280.36" stroke="#1C1D27" stroke-width="0.7178" stroke-miterlimit="10" stroke-linecap="round"/>
<path d="M183.486 280.621C183.093 281.238 182.548 281.757 181.903 282.103C181.23 282.464 180.366 282.627 179.722 282.216C178.898 281.69 178.859 280.363 179.535 279.657C180.211 278.951 181.368 278.857 182.256 279.264C183.508 279.838 184.25 281.348 183.939 282.69C183.628 284.032 182.297 285.062 180.92 285.026" stroke="#1C1D27" stroke-width="0.7178" stroke-miterlimit="10" stroke-linecap="round"/>
<path d="M180.943 284.766C180.581 285.401 180.376 286.126 180.371 286.858C180.366 287.622 180.626 288.462 181.29 288.839C182.14 289.322 183.332 288.737 183.64 287.809C183.949 286.881 183.492 285.815 182.717 285.219C181.625 284.38 179.943 284.429 178.901 285.33C177.86 286.232 177.57 287.889 178.245 289.09" stroke="#1C1D27" stroke-width="0.7178" stroke-miterlimit="10" stroke-linecap="round"/>
<path d="M178.361 289.359C178.084 290.035 177.974 290.781 178.063 291.507C178.156 292.265 178.521 293.064 179.228 293.353C180.133 293.723 181.24 292.99 181.427 292.03C181.614 291.07 181.024 290.072 180.178 289.58C178.987 288.888 177.325 289.153 176.408 290.18C175.491 291.208 175.417 292.889 176.24 293.993" stroke="#1C1D27" stroke-width="0.7178" stroke-miterlimit="10" stroke-linecap="round"/>
<path d="M176.404 294.357C176.507 295.081 176.789 295.78 177.232 296.361C177.695 296.968 178.415 297.473 179.171 297.365C180.139 297.227 180.723 296.035 180.399 295.112C180.075 294.189 179.061 293.626 178.084 293.629C176.707 293.634 175.406 294.702 175.135 296.052C174.863 297.402 175.649 298.89 176.918 299.427" stroke="#1C1D27" stroke-width="0.7178" stroke-miterlimit="10" stroke-linecap="round"/>
<path d="M176.817 299.722C177.092 300.399 177.536 301.009 178.107 301.465C178.704 301.941 179.524 302.257 180.232 301.968C181.138 301.599 181.415 300.3 180.876 299.484C180.338 298.668 179.218 298.367 178.27 298.608C176.935 298.947 175.933 300.299 175.998 301.675C176.062 303.051 177.186 304.303 178.547 304.516" stroke="#1C1D27" stroke-width="0.7178" stroke-miterlimit="10" stroke-linecap="round"/>
<path d="M178.913 304.659C179.493 305.104 180.183 305.406 180.907 305.511C181.663 305.62 182.53 305.478 182.995 304.872C183.59 304.096 183.173 302.835 182.296 302.403C181.419 301.971 180.3 302.278 179.604 302.964C178.623 303.931 178.442 305.604 179.193 306.759C179.944 307.914 181.547 308.427 182.828 307.923" stroke="#1C1D27" stroke-width="0.7178" stroke-miterlimit="10" stroke-linecap="round"/>
<path d="M183.226 307.93C183.783 308.403 184.223 309.015 184.478 309.7C184.744 310.416 184.787 311.294 184.292 311.875C183.658 312.62 182.338 312.477 181.731 311.711C181.124 310.945 181.189 309.787 181.713 308.961C182.452 307.799 184.05 307.27 185.337 307.761C186.624 308.252 187.462 309.711 187.239 311.07" stroke="#1C1D27" stroke-width="0.7178" stroke-miterlimit="10" stroke-linecap="round"/>
<path d="M187.223 311.365C187.715 311.906 188.073 312.569 188.237 313.282C188.409 314.026 188.339 314.902 187.773 315.416C187.049 316.073 185.758 315.762 185.254 314.924C184.75 314.086 184.963 312.946 185.59 312.195C186.473 311.138 188.125 310.818 189.338 311.471C190.551 312.123 191.195 313.678 190.8 314.997" stroke="#1C1D27" stroke-width="0.7178" stroke-miterlimit="10" stroke-linecap="round"/>
<path d="M190.769 315.387C190.92 316.102 190.894 316.855 190.676 317.554C190.448 318.283 189.945 319.003 189.197 319.161C188.24 319.362 187.284 318.441 187.272 317.463C187.261 316.485 188.021 315.609 188.941 315.278C190.237 314.811 191.824 315.371 192.541 316.547C193.258 317.723 193.028 319.39 192.02 320.328" stroke="#1C1D27" stroke-width="0.7178" stroke-miterlimit="10" stroke-linecap="round"/>
<path d="M192.216 320.575C192.189 321.306 191.98 322.03 191.599 322.654C191.201 323.306 190.538 323.882 189.775 323.853C188.798 323.816 188.094 322.69 188.32 321.739C188.547 320.788 189.497 320.122 190.47 320.025C191.841 319.887 193.244 320.815 193.654 322.13C194.064 323.445 193.436 325.006 192.23 325.672" stroke="#1C1D27" stroke-width="0.7178" stroke-miterlimit="10" stroke-linecap="round"/>
<path d="M191.934 325.931C191.541 326.548 190.996 327.067 190.351 327.413C189.678 327.774 188.814 327.936 188.171 327.526C187.347 327 187.308 325.673 187.984 324.966C188.66 324.26 189.817 324.166 190.705 324.573C191.957 325.147 192.699 326.657 192.388 327.999C192.077 329.341 190.746 330.371 189.369 330.335" stroke="#1C1D27" stroke-width="0.7178" stroke-miterlimit="10" stroke-linecap="round"/>
<path d="M221.49 247.887L189.395 235.564C184.003 233.494 181.311 227.445 183.381 222.054L183.665 221.313C185.735 215.922 191.784 213.229 197.175 215.299L229.27 227.622C234.661 229.692 237.354 235.741 235.284 241.133L234.999 241.874C232.931 247.264 226.882 249.957 221.49 247.887Z" fill="white"/>
<path d="M231.097 246.949L226.326 244.92C223.385 243.791 221.916 240.491 223.045 237.55L223.2 237.146C224.329 234.205 227.629 232.736 230.57 233.865L235.341 235.894C238.282 237.023 239.751 240.323 238.622 243.264L238.467 243.668C237.338 246.609 234.038 248.078 231.097 246.949Z" fill="#1C1D27"/>
<path d="M197.046 248.281H192.745V430.442H197.046V248.281Z" fill="#A0A2A7"/>
<path d="M208.384 255.669L176.289 243.347C170.897 241.277 168.205 235.227 170.275 229.835L170.559 229.094C172.629 223.702 178.678 221.01 184.069 223.08L216.164 235.403C221.556 237.473 224.248 243.522 222.178 248.913L221.893 249.654C219.824 255.047 213.775 257.739 208.384 255.669Z" fill="white"/>
<path d="M184.07 223.082L216.165 235.405C218.861 236.44 220.882 238.47 221.97 240.915" stroke="#1C1D27" stroke-width="0.9728" stroke-miterlimit="10" stroke-linecap="round"/>
<path d="M217.991 254.73L213.22 252.701C210.279 251.572 208.81 248.272 209.939 245.331L210.094 244.927C211.223 241.986 214.523 240.517 217.464 241.646L222.235 243.675C225.176 244.804 226.645 248.104 225.516 251.045L225.361 251.449C224.232 254.39 220.932 255.859 217.991 254.73Z" fill="#1C1D27"/>
<path d="M211.176 255.392C208.107 254.094 205.954 251.054 205.954 247.513C205.954 244.124 207.926 241.196 210.784 239.812" stroke="#1C1D27" stroke-width="0.9728" stroke-miterlimit="10" stroke-linecap="round"/>
<path d="M220.314 254.359C218.702 253.364 217.755 251.469 218.062 249.479C218.356 247.574 219.718 246.1 221.444 245.57" stroke="white" stroke-width="0.4864" stroke-miterlimit="10" stroke-linecap="round"/>
<path d="M233.727 246.062C232.115 245.067 231.168 243.172 231.475 241.182C231.769 239.277 233.131 237.803 234.857 237.273" stroke="white" stroke-width="0.4864" stroke-miterlimit="10" stroke-linecap="round"/>
<path d="M208.719 341.663L185.703 343.666V300.869L208.719 298.867V341.663Z" fill="white"/>
<path d="M185.703 300.87L180.299 299.789V342.369L185.811 343.558C185.811 343.558 185.703 300.438 185.703 300.87Z" fill="#A0A2A7"/>
<path d="M185.703 300.872L180.299 299.791L202.995 297.738L208.719 298.87L185.703 300.872Z" fill="#F0F5FF"/>
<path d="M202.741 313.144C202.741 316.028 200.403 318.366 197.519 318.366C194.635 318.366 192.297 316.028 192.297 313.144C192.297 310.26 194.635 307.922 197.519 307.922C200.403 307.922 202.741 310.26 202.741 313.144Z" fill="#F0F5FF"/>
<path d="M193.804 336.47L187.984 336.754V323.238L193.804 322.953V336.47Z" fill="#F0F5FF"/>
<path d="M201.953 335.996L196.133 336.281V322.764L201.953 322.48V335.996Z" fill="#F0F5FF"/>
<path d="M200.794 430.968C200.794 434.107 198.25 436.651 195.111 436.651C191.972 436.651 189.428 434.107 189.428 430.968C189.428 427.829 191.972 425.285 195.111 425.285C198.25 425.285 200.794 427.829 200.794 430.968Z" fill="#1C1D27"/>
<path d="M181.635 423.996L196.995 418.466V413.551L180.1 421.231L181.635 423.996Z" fill="#A0A2A7"/>
<path d="M196.38 414.473L211.74 420.002V424.917L194.844 417.238L196.38 414.473Z" fill="#A0A2A7"/>
<path d="M184.656 425.07C184.656 428.209 182.112 430.753 178.973 430.753C175.834 430.753 173.29 428.209 173.29 425.07C173.29 421.931 175.834 419.387 178.973 419.387C182.112 419.387 184.656 421.931 184.656 425.07Z" fill="#1C1D27"/>
<path d="M216.911 425.07C216.911 428.209 214.367 430.753 211.228 430.753C208.089 430.753 205.545 428.209 205.545 425.07C205.545 421.931 208.089 419.387 211.228 419.387C214.366 419.387 216.911 421.931 216.911 425.07Z" fill="#1C1D27"/>
<path d="M185.782 303.066V339.928" stroke="#1C1D27" stroke-width="0.9728" stroke-miterlimit="10" stroke-linecap="round"/>
</svg>
