<svg width="93" height="65" viewBox="0 0 93 65" fill="none" xmlns="http://www.w3.org/2000/svg">
<path d="M92.2312 19.3059L46.4692 0.0439455C46.3403 -0.0146485 46.2075 -0.0146485 46.0786 0.0439455L0.30859 19.3059C0.1289 19.3763 0 19.5677 0 19.7669C0 19.9661 0.12891 20.1458 0.30859 20.2278L8.48049 23.6614V37.3024C6.69529 37.9274 5.40629 39.611 5.40629 41.6032C5.40629 43.5134 6.58599 45.1501 8.25399 45.8337L5.30089 62.4277C5.22276 62.8652 5.34386 63.3144 5.62901 63.6543C5.91416 63.9942 6.33604 64.1895 6.77741 64.1895H13.1836C13.6289 64.1895 14.0469 63.9942 14.332 63.6543C14.6171 63.3145 14.7383 62.8653 14.6601 62.4277L11.7109 45.8337C13.3789 45.1501 14.5586 43.5134 14.5586 41.6032C14.5586 39.6071 13.2695 37.9274 11.4844 37.3024L11.4805 24.9234L16.461 27.0172C18.2305 19.1578 35.668 17.9469 46.27 17.9469C56.891 17.9469 74.372 19.1578 76.09 27.0172L92.231 20.2281C92.4107 20.15 92.5396 19.9664 92.5396 19.7672C92.5396 19.5641 92.4109 19.3763 92.2312 19.3059Z" fill="white"/>
<path d="M46.2703 20.9478C36.282 20.9478 19.3483 22.4986 19.3093 28.3189V47.7599C19.3093 47.7794 19.3093 47.8107 19.321 47.838C19.321 47.8693 19.3328 47.8966 19.3328 47.9161C19.321 47.9669 19.3328 48.006 19.3445 48.0568C19.9109 53.6271 36.4305 55.1271 46.2705 55.1271C56.2825 55.1271 73.2315 53.5763 73.2315 47.756V28.295C73.1924 22.4981 56.2703 20.9478 46.2703 20.9478ZM46.2703 52.1278C31.2903 52.1278 22.7113 49.2684 22.3213 47.7762C22.7119 46.2371 31.2901 43.3778 46.2703 43.3778C61.1923 43.3778 69.7583 46.2176 70.2193 47.7567C69.7584 49.2958 61.192 52.1278 46.2703 52.1278Z" fill="white"/>
</svg>
