<svg width="88" height="88" viewBox="0 0 88 88" fill="none" xmlns="http://www.w3.org/2000/svg">
<path fill-rule="evenodd" clip-rule="evenodd" d="M24.587 62.5081H17.1964C17.1964 53.0198 9.5011 45.3131 0.00139999 45.3131V17.1961C9.5014 17.1961 17.1964 9.4891 17.1964 0.00110006H70.3214C70.3214 9.4894 78.0167 17.1961 87.5164 17.1961V45.3131C78.0164 45.3131 70.3214 53.0201 70.3214 62.5081H63.3526C63.3838 62.2112 63.3995 61.9144 63.3995 61.6175C63.3995 58.887 62.1534 56.4417 60.3136 54.848C60.4972 52.4261 59.6378 49.8168 57.7159 47.8792C55.7745 45.9417 53.1573 45.1019 50.7432 45.2776C49.1573 43.4378 46.712 42.1917 43.9776 42.1917C41.2432 42.1917 38.7979 43.4378 37.1964 45.2776C34.7823 45.1018 32.1652 45.9416 30.2433 47.8792C28.3019 49.8167 27.4581 52.4261 27.6261 54.848C25.7863 56.4418 24.5402 58.8871 24.5402 61.6175C24.5402 61.9144 24.5557 62.2112 24.587 62.5081ZM42.189 40.6251H76.564C77.4429 40.6251 78.1343 39.9337 78.1343 39.0665C78.1343 38.1993 77.4429 37.5001 76.564 37.5001H42.189C41.3296 37.5001 40.6382 38.1993 40.6382 39.0665C40.6382 39.9337 41.3296 40.6251 42.189 40.6251ZM42.189 28.1291H76.564C77.4429 28.1291 78.1343 27.4299 78.1343 26.5627C78.1343 25.7072 77.4429 25.008 76.564 25.008H42.189C41.3296 25.008 40.6382 25.7072 40.6382 26.5627C40.6382 27.4299 41.3296 28.1291 42.189 28.1291ZM42.189 21.883H76.564C77.4429 21.883 78.1343 21.1838 78.1343 20.3166C78.1343 19.4494 77.4429 18.7502 76.564 18.7502H42.189C41.3296 18.7502 40.6382 19.4494 40.6382 20.3166C40.6382 21.1838 41.3296 21.883 42.189 21.883ZM31.138 25.6252C31.8607 24.176 32.2825 22.5158 32.2825 20.7463C32.2825 14.8674 27.7122 10.1873 22.2085 10.1873C16.7085 10.1873 12.1535 14.867 12.1535 20.7463C12.1535 22.551 12.5754 24.2463 13.3332 25.719C9.1652 27.4182 6.1613 31.301 5.6887 35.946C5.57151 36.4694 5.52073 37.0007 5.46995 37.5007C5.23167 40.2898 6.88795 42.903 9.50115 43.8913C9.52068 43.8913 9.53631 43.903 9.57146 43.9147C17.8215 46.8209 27.1375 46.7624 35.0365 43.903C35.0521 43.8913 35.0677 43.8913 35.0872 43.8796L36.013 43.4265L36.8411 42.8327L37.5677 42.1335L38.1575 41.3249L38.595 40.446L38.8997 39.4968L39.0521 38.4851V37.4539C39.0169 37.0008 38.9661 36.5047 38.9154 36.0047C38.4427 31.2664 35.3723 27.3245 31.138 25.6252ZM30.3255 26.9924C34.1575 28.426 36.9427 31.9299 37.3646 36.1604C37.4154 36.6682 37.4662 37.1565 37.4818 37.6174L37.4974 37.6565C37.6654 39.7229 36.4701 41.6682 34.5286 42.4182C34.513 42.4182 34.513 42.4299 34.4935 42.4299C26.9349 45.1721 17.9895 45.219 10.0755 42.4299H10.0598C8.08713 41.6799 6.85283 39.7346 7.04033 37.6291C7.07158 37.1799 7.12236 36.6799 7.22392 36.1955C7.63017 32.0158 10.3801 28.5236 14.1419 27.0744C16.0013 29.6525 18.9349 31.3127 22.2083 31.3127C25.5169 31.3127 28.4856 29.6135 30.3255 26.9924ZM22.2083 11.7544C26.8685 11.7544 30.7161 15.7583 30.7161 20.7466C30.7161 25.7427 26.8684 29.7466 22.2083 29.7466C17.5521 29.7466 13.7044 25.7427 13.7044 20.7466C13.7044 15.7583 17.5521 11.7544 22.2083 11.7544ZM42.1883 34.3794H76.5633C77.4422 34.3794 78.1336 33.6763 78.1336 32.8208C78.1336 31.9536 77.4422 31.2544 76.5633 31.2544H42.1883C41.3289 31.2544 40.6375 31.9536 40.6375 32.8208C40.6375 33.6763 41.3289 34.3794 42.1883 34.3794ZM0.000299931 14.0704V1.5664C0.000299931 0.69921 0.71124 0 1.5706 0H14.0746C14.0746 7.7656 7.7618 14.0704 0.000299931 14.0704ZM73.4413 0.000400066H85.9453C86.8047 0.000400066 87.5156 0.69962 87.5156 1.5668V14.0708C79.7539 14.0708 73.4413 7.7657 73.4413 0.000400066ZM87.5153 48.4384V60.9424C87.5153 61.8096 86.8044 62.5088 85.945 62.5088H73.441C73.441 54.7432 79.7538 48.4384 87.5153 48.4384ZM14.0743 62.5084H1.5703C0.71092 62.5084 0 61.8092 0 60.942V48.438C7.7617 48.438 14.0743 54.7431 14.0743 62.5084ZM57.8983 75.1564L61.6288 81.6759C61.9647 82.2462 61.8827 82.9689 61.4608 83.4689C61.0194 83.9689 60.328 84.1447 59.703 83.9064L55.6053 82.3283L54.7421 86.2697C54.6092 86.9103 54.1014 87.3869 53.4608 87.4806C52.8202 87.59 52.1796 87.2814 51.8592 86.7228L48.0623 80.0587C49.1053 79.5274 50.0194 78.8126 50.7421 77.9689C53.1562 78.1369 55.7732 77.2931 57.7147 75.3595C57.7812 75.2853 57.8475 75.2267 57.8983 75.1564ZM39.5543 79.883L35.6559 86.7228C35.3356 87.2814 34.695 87.59 34.0543 87.4806C33.4137 87.3869 32.9059 86.9103 32.7731 86.2697L31.9098 82.3283L27.8121 83.9064C27.1871 84.1447 26.4957 83.9689 26.0543 83.4689C25.6324 82.9689 25.5504 82.2462 25.8863 81.6759L29.7691 74.8712C29.9215 75.0353 30.0699 75.2032 30.2418 75.3595C32.1637 77.2931 34.7809 78.1368 37.1949 77.9689C37.8512 78.7189 38.6441 79.3712 39.5543 79.883ZM37.8863 46.93C39.1324 45.0784 41.4136 43.7581 43.9761 43.7581C46.5425 43.7581 48.8042 45.0784 50.0503 46.93C52.2456 46.5003 54.7925 47.18 56.6011 48.9847C58.4214 50.8011 59.0972 53.3402 58.6597 55.5394C60.5152 56.7855 61.8316 59.055 61.8316 61.6175C61.8316 64.1839 60.5152 66.4534 58.6597 67.6995C59.0972 69.9065 58.4214 72.4378 56.6011 74.2542C54.7925 76.0706 52.2456 76.7347 50.0503 76.3089C48.8042 78.1722 46.5425 79.4886 43.9761 79.4886C41.4136 79.4886 39.1323 78.1722 37.8863 76.3089C35.691 76.7347 33.1441 76.0706 31.3355 74.2542C29.5308 72.4378 28.855 69.9065 29.2769 67.7112C27.4214 66.4534 26.105 64.1839 26.105 61.6174C26.105 59.0549 27.4214 56.7854 29.2769 55.5393C28.855 53.3401 29.5308 50.801 31.3355 48.9846C33.1441 47.1799 35.691 46.5003 37.8863 46.93ZM43.8238 51.18C38.0386 51.18 33.3278 55.8831 33.3278 61.664C33.3278 67.4609 38.0387 72.164 43.8238 72.164C49.6285 72.164 54.3198 67.4609 54.3198 61.664C54.3198 55.8828 49.6284 51.18 43.8238 51.18ZM37.6168 63.864C37.0074 63.2585 37.0074 62.2585 37.6168 61.6531C38.2223 61.0359 39.2184 61.0359 39.8238 61.6531L42.1207 63.9461L47.8238 58.2469C48.4332 57.6414 49.4293 57.6414 50.0347 58.2469C50.6441 58.8641 50.6441 59.8485 50.0347 60.4539L43.2339 67.2586C42.6284 67.8758 41.6323 67.8758 41.023 67.2586L37.6168 63.864Z" fill="white"/>
</svg>
