<svg width="648" height="463" viewBox="0 0 648 463" fill="none" xmlns="http://www.w3.org/2000/svg">
<path d="M135.017 462.629C135.017 462.629 144.986 389.214 109.214 372.758C61.6864 350.895 72.5704 279.148 54.2254 249.917C35.8804 220.686 -13.2716 249.917 3.39537 298.438C10.4244 318.903 44.1664 333.761 36.6024 363.263C29.0374 392.765 15.5384 425.998 56.0364 462.629H135.017Z" fill="#788796"/>
<path d="M95.7763 453.024C80.8133 447.611 79.2063 435.086 76.2913 412.35C74.5843 399.041 72.4603 382.479 67.1763 361.142C52.8343 303.229 20.8523 271.746 20.5303 271.436L21.9223 269.998C22.2473 270.313 54.6393 302.197 69.1173 360.661C74.4293 382.11 76.5613 398.736 78.2743 412.095C81.1823 434.766 82.6413 446.145 96.4573 451.143L95.7763 453.024Z" fill="#FEFEFF"/>
<path d="M169.495 49.4389C169.495 49.4389 196.02 3.61786 266.095 12.3919C336.17 21.1659 328.46 61.1379 376.975 59.1879C425.49 57.2379 478.311 28.9649 521.406 84.4919C571.399 148.907 485.97 203.696 519.899 243.06C580.69 313.589 519.899 396.722 384.135 380.943C271.543 367.857 270.534 349.497 205.179 371.734C139.824 393.971 80.3995 311.851 104.14 247.556C127.881 183.261 188.224 207.776 159.951 155.274C131.678 102.772 169.495 49.4389 169.495 49.4389Z" fill="#E5B3BE"/>
<path d="M512.405 462.629C512.405 462.629 502.436 389.214 538.208 372.758C585.736 350.895 574.852 279.148 593.197 249.917C611.542 220.686 660.694 249.917 644.028 298.438C636.999 318.903 603.257 333.761 610.821 363.263C618.385 392.765 631.884 425.998 591.386 462.629H512.405Z" fill="#352B4C"/>
<path d="M551.646 453.024L550.966 451.143C564.781 446.145 566.24 434.766 569.148 412.095C570.862 398.737 572.994 382.111 578.305 360.661C585.868 330.119 598.283 307.112 607.365 293.189C617.22 278.082 625.42 270.077 625.502 269.998L626.894 271.435C626.572 271.748 594.58 303.267 580.248 361.142C574.964 382.479 572.84 399.041 571.134 412.35C568.216 435.086 566.61 447.611 551.646 453.024Z" fill="#FEFEFF"/>
<path d="M293.285 462.628C293.285 462.628 277.703 395.812 305.79 382.891C343.108 365.724 342.078 327.31 356.482 304.359C370.886 281.408 409.719 295.611 396.633 333.709C391.114 349.778 364.621 361.444 370.559 384.608C376.498 407.773 404.532 433.866 372.734 462.628H293.285Z" fill="#352B4C"/>
<path d="M324.17 455.29L323.489 453.409C334.214 449.529 335.353 440.638 337.626 422.925C338.972 412.43 340.647 399.368 344.82 382.515C350.766 358.505 360.525 340.417 367.666 329.472C375.418 317.588 381.674 311.48 381.937 311.225L383.329 312.662C383.077 312.907 357.999 337.621 346.763 382.996C342.617 399.738 340.95 412.736 339.611 423.18C337.31 441.115 336.042 450.995 324.17 455.29Z" fill="#FEFEFF"/>
<path d="M488.351 462.627C488.351 462.627 458.899 413.576 485.818 384.838C521.583 346.657 463.05 328.141 490.391 250.328C501.831 217.769 552.898 224.86 555.772 276.082C556.984 297.686 531.343 324.177 549.48 348.645C567.617 373.113 600.414 413.296 576.731 462.501L488.351 462.627Z" fill="#788796"/>
<path d="M528.549 454.102L527.209 452.618C542.161 439.128 532.366 406.034 522.894 374.03C521.393 368.958 519.84 363.714 518.414 358.635C502.085 300.512 527.682 257.058 527.942 256.625L529.655 257.657C529.399 258.083 504.253 300.836 520.34 358.094C521.763 363.159 523.313 368.397 524.812 373.461C534.46 406.06 544.437 439.769 528.549 454.102Z" fill="#FEFEFF"/>
<path d="M479.419 62.5156H227.043V239.722H479.419V62.5156Z" fill="#F0D5D5"/>
<path d="M489.265 56.6992H217.196V68.3522H489.265V56.6992Z" fill="#352B4C"/>
<path d="M354.154 2.9749L251.77 66.7793L252.828 68.4767L355.211 4.6723L354.154 2.9749Z" fill="#352B4C"/>
<path d="M352.313 2.99616L351.255 4.69336L453.626 68.5093L454.684 66.8121L352.313 2.99616Z" fill="#352B4C"/>
<path d="M351.783 13.032C355.382 13.032 358.299 10.1147 358.299 6.516C358.299 2.91731 355.382 0 351.783 0C348.185 0 345.267 2.91731 345.267 6.516C345.267 10.1147 348.185 13.032 351.783 13.032Z" fill="#352B4C"/>
<path d="M388.521 116.175C388.521 116.175 390.769 125.167 396.614 126.966C402.459 128.764 403.69 124.407 410.552 126.966C417.414 129.525 419.095 148.548 404.707 150.346C390.319 152.144 392.034 141.542 392.35 135.05C392.666 128.559 388.569 125.758 386.304 119.843C384.04 113.927 388.521 116.175 388.521 116.175Z" fill="#E0A3A5"/>
<path d="M384.04 113.927C384.04 113.927 393.917 99.9892 403.808 94.1442C413.7 88.2992 424.49 90.5472 429.436 96.8422C434.382 103.137 435.281 107.633 442.924 113.927C450.568 120.222 442.924 138.206 429.436 143.152C415.947 148.098 410.102 152.594 404.707 150.346C399.312 148.098 415.4 146.299 414.999 140.454C414.598 134.609 406.056 126.066 410.552 126.965C415.048 127.864 416.397 134.159 419.994 134.159C423.591 134.159 441.878 130.588 437.079 120.848C422.916 92.0992 402.009 97.2912 397.962 106.733C393.915 116.175 388.1 119.227 384.039 120.848C379.978 122.469 384.04 113.927 384.04 113.927Z" fill="#D26E7E"/>
<path d="M317.94 116.175C317.94 116.175 315.692 125.167 309.847 126.966C304.002 128.764 302.771 124.407 295.909 126.966C289.047 129.525 287.366 148.548 301.754 150.346C316.142 152.144 314.427 141.542 314.111 135.05C313.795 128.559 317.892 125.758 320.157 119.843C322.421 113.927 317.94 116.175 317.94 116.175Z" fill="#E0A3A5"/>
<path d="M322.421 113.927C322.421 113.927 312.544 99.9892 302.653 94.1442C292.761 88.2992 281.971 90.5472 277.025 96.8422C272.079 103.137 271.18 107.633 263.536 113.927C255.892 120.221 263.536 138.206 277.025 143.152C290.514 148.098 296.359 152.594 301.754 150.346C307.149 148.098 291.061 146.299 291.462 140.454C291.863 134.609 300.405 126.066 295.909 126.965C291.413 127.864 290.064 134.159 286.467 134.159C282.87 134.159 266.684 131.366 269.382 120.848C272.08 110.33 288.83 87.9072 308.499 106.733C315.92 113.836 318.361 119.227 322.422 120.848C326.483 122.469 322.421 113.927 322.421 113.927Z" fill="#D26E7E"/>
<path d="M352.516 212.841C352.516 212.841 345.239 218.542 342.541 216.744C339.843 214.946 340.862 209.244 338.164 204.299C335.466 199.353 327.346 195.679 329.144 186.687C330.942 177.695 336.813 178.221 327.597 167.431C318.381 156.64 316.55 144.106 322.92 132.379C327.669 123.638 312.622 119.739 320.715 111.646C328.808 103.553 339.513 98.1895 357.498 98.1895C375.483 98.1895 388.522 112.127 388.522 115.724C388.522 119.321 381.786 125.604 382.236 129.65C382.686 133.697 389.422 145.792 383.577 157.061C377.732 168.33 370.988 169.678 372.337 177.322C373.686 184.965 378.067 187.809 372.271 197.157C367.72 204.497 364.067 205.927 362.895 212.392C362.067 216.947 358.846 219.136 352.516 212.841Z" fill="#D26E7E"/>
<path d="M323.096 116.761C323.096 116.761 329.144 106.291 353.387 104.246C366.003 103.182 383.575 114.138 384.025 118.634C384.475 123.13 374.583 122.231 374.583 126.727C374.583 131.223 374.583 136.025 371.885 144.865C369.187 153.705 359.296 157.301 360.195 163.147C361.094 168.992 354.457 185.731 355.806 187.529C357.155 189.327 362.834 188.748 363.976 194.17C365.03 199.177 362.472 199.922 361.734 202.144C359.203 209.767 359.872 216.444 357.673 216.482C355.32 216.522 351.72 215.578 351.72 215.578C349.039 216.432 348.604 216.273 346.707 216.652C342.211 217.551 346.257 204.751 341.761 200.704C337.265 196.657 341.048 190.481 348.373 189.163C353.261 188.284 343.588 170.623 344.037 163.879C344.487 157.135 332.259 150.482 331.36 143.289C330.461 136.096 332.319 129.877 330.521 126.729C328.723 123.581 319.388 118.276 323.096 116.761Z" fill="#D6818C"/>
<path d="M338.203 121.798C339.755 121.798 341.013 120.54 341.013 118.988C341.013 117.436 339.755 116.178 338.203 116.178C336.651 116.178 335.393 117.436 335.393 118.988C335.393 120.54 336.651 121.798 338.203 121.798Z" fill="#352B4C"/>
<path d="M365.131 121.788C366.683 121.788 367.941 120.53 367.941 118.978C367.941 117.426 366.683 116.168 365.131 116.168C363.579 116.168 362.321 117.426 362.321 118.978C362.321 120.53 363.579 121.788 365.131 121.788Z" fill="#352B4C"/>
<path d="M346.425 119.483C346.425 119.483 357.541 118.361 357.793 119.49C358.046 120.619 356.656 125.888 352.993 126.601C349.33 127.314 344.263 119.676 346.425 119.483Z" fill="#FEFEFF"/>
<path d="M331.334 130.897C334.007 130.897 336.173 128.73 336.173 126.058C336.173 123.385 334.007 121.219 331.334 121.219C328.662 121.219 326.495 123.385 326.495 126.058C326.495 128.73 328.662 130.897 331.334 130.897Z" fill="#CB4D6F"/>
<path d="M374.622 130.897C377.295 130.897 379.461 128.73 379.461 126.058C379.461 123.385 377.295 121.219 374.622 121.219C371.95 121.219 369.783 123.385 369.783 126.058C369.783 128.73 371.95 130.897 374.622 130.897Z" fill="#CB4D6F"/>
<path d="M98.0325 269.591C98.0325 269.591 87.2985 245.865 104.598 220.365C124.977 190.328 141.552 212.145 144.6 182.502C147.647 152.859 150.155 111.984 181.635 109.17C213.115 106.356 246.527 159.2 222.589 220.365C198.651 281.53 107.854 297.918 98.0325 269.591Z" fill="#352B4C"/>
<path d="M121.163 276.861C121.163 276.861 107.489 248.791 127.363 225.147C147.237 201.503 162.255 216.511 165.132 185.37C168.009 154.228 170.377 111.287 200.101 108.331C229.825 105.375 277.646 206.741 237.736 233.019C180.844 270.477 130.436 306.62 121.163 276.861Z" fill="#352B4C"/>
<path d="M286.069 232.438C286.069 232.438 304.968 284.338 309.327 297.386C312.26 306.166 399.029 208.054 403.818 209.612C408.607 211.17 395.812 226.861 395.812 226.861C395.812 226.861 405.309 231.689 407.283 242.527C409.257 253.365 331.872 335.264 305.572 342.901C279.272 350.538 263.86 283.71 256.951 271.973C250.043 260.237 286.069 232.438 286.069 232.438Z" fill="#DA8E8D"/>
<path d="M370.093 241.584C370.093 241.584 395.043 259.425 393.254 271.009C391.465 282.593 344.77 348.41 321.437 348.799C298.104 349.188 253.247 304.996 250.13 286.673C247.013 268.35 250.229 205.776 257.467 204.656C290.091 199.609 313.503 279.335 323.979 284.097C332.57 288.002 361.358 233.609 370.093 241.584Z" fill="#F7ECE9"/>
<path d="M142.994 215.374C142.994 215.374 102.647 233.018 84.3795 310.37C75.5905 347.587 89.8615 356.062 100.632 362.199C111.403 368.336 132.682 346.868 149.53 325.112C166.378 303.356 164.341 207.888 142.994 215.374Z" fill="#F7ECE9"/>
<path d="M303.394 462.628C303.394 462.628 296.17 359.54 277.519 351.859C258.868 344.178 154.085 332.609 150.164 346.928C146.243 361.246 143.465 456.778 146.288 462.629H230.425C230.425 462.629 229.23 416.86 232.439 418.86C235.648 420.86 237.263 460.775 239.599 462.629H303.394V462.628Z" fill="#352B4C"/>
<path d="M209.03 194.127C209.03 194.127 217.848 199.997 235.067 194.127C252.286 188.257 241.335 165.306 242.214 152.814C243.549 133.86 228.813 97.0737 192.61 104.901C156.407 112.728 151.32 148.5 156.016 160.584C160.712 172.668 138.797 186.035 156.407 196.735C174.018 207.436 195.907 207.824 209.03 194.127Z" fill="#352B4C"/>
<path d="M216.932 174.859C216.932 174.859 218.588 196.859 223.117 202.859C227.646 208.859 250.092 208.804 251.592 211.804C253.092 214.804 238.574 253.012 223.565 254.595C192.611 257.859 160.074 223.225 161.954 219.78C163.834 216.335 189.349 212.359 192.748 207.859C196.147 203.359 189.902 172.859 189.902 172.859L216.932 174.859Z" fill="#DA8E8D"/>
<path d="M173.034 126.216C173.034 126.216 192.451 112.309 213.767 125.642C235.083 138.975 231.937 184.343 206.011 187.083C183.541 189.457 161.366 151.55 173.034 126.216Z" fill="#DA8E8D"/>
<path d="M229.495 136.443C229.495 136.443 219.295 143.474 206.788 142.41C194.281 141.346 183.991 120.211 183.193 121.808C182.395 123.405 183.745 151.833 174.404 158.151C163.703 165.389 165.897 173.964 166.429 165.715C166.961 157.466 162.97 128.461 173.88 118.349C184.79 108.237 203.151 106.374 211.932 113.293C220.714 120.211 233.221 132.186 229.495 136.443Z" fill="#352B4C"/>
<path d="M189.69 160.519C190.997 160.519 192.058 159.459 192.058 158.151C192.058 156.843 190.997 155.783 189.69 155.783C188.382 155.783 187.322 156.843 187.322 158.151C187.322 159.459 188.382 160.519 189.69 160.519Z" fill="#352B4C"/>
<path d="M212.587 154.847C213.895 154.847 214.955 153.787 214.955 152.479C214.955 151.172 213.895 150.111 212.587 150.111C211.28 150.111 210.219 151.172 210.219 152.479C210.219 153.787 211.28 154.847 212.587 154.847Z" fill="#352B4C"/>
<path d="M181.209 165.851C181.209 165.851 173.235 150.112 168.147 162.82C165.307 169.915 170.474 174.141 174.989 176.517C183.169 180.821 186.451 169.794 181.209 165.851Z" fill="#DA8E8D"/>
<path d="M223.417 151.564C223.417 151.564 220.59 139.539 229.123 143.862C233.887 146.275 233.005 150.918 231.636 154.281C229.156 160.373 222.366 156.092 223.417 151.564Z" fill="#DA8E8D"/>
<path d="M177.719 170.554C177.136 168.518 176.254 167.226 175.097 166.715C173.799 166.139 172.515 166.74 172.503 166.747L171.617 164.954C171.702 164.912 173.742 163.929 175.906 164.886C177.63 165.649 178.887 167.37 179.641 170.004L177.719 170.554Z" fill="#D26E7E"/>
<path d="M204.628 189.238C200.754 189.238 197.851 188.144 197.792 188.121L198.515 186.256C198.955 186.425 209.356 190.307 216.292 181.867L217.837 183.137C213.812 188.035 208.688 189.238 204.628 189.238Z" fill="#D26E7E"/>
<path d="M183.849 210.091C183.849 210.091 199.646 240.482 224.782 229.488C238.715 223.394 224.628 205.277 231.638 205.462C238.648 205.647 255.971 201.591 265.971 210.091C275.971 218.591 287.006 342.341 288.006 357.341C289.006 372.341 163.45 373.303 154.988 375.803C146.526 378.303 149.146 225.86 150.646 218.36C152.146 210.86 177.123 211.037 183.849 210.091Z" fill="#C7CDE0"/>
<path d="M181.209 210.358C181.209 210.358 173.838 279.008 180.291 331.724C186.744 384.44 187.191 433.992 180.145 440.859C173.098 447.726 124.629 456.859 106.264 449.142C82.8574 439.306 127.183 309.445 117.965 283.946C108.747 258.447 132.78 195.996 181.209 210.358Z" fill="#F7ECE9"/>
<path d="M248.253 204.598C248.253 204.598 253.98 254.594 254.621 302.176C255.046 333.674 248.008 422.92 262.997 435.786C277.986 448.652 333.286 450.858 327.343 421.256C326.801 418.558 298.312 293.82 288.558 275.465C278.804 257.11 291.763 200.248 248.253 204.598Z" fill="#F7ECE9"/>
<path d="M191.82 183.508C191.82 183.508 207.609 233.86 175.54 235.849C159.615 236.837 152.633 214.61 142.993 215.374C133.353 216.138 191.82 183.508 191.82 183.508Z" fill="#352B4C"/>
<path d="M225.031 141.828L221.222 147.35L222.869 148.485L226.677 142.963L225.031 141.828Z" fill="#FEFEFF"/>
<path d="M174.556 157.162L174.265 159.141L181.382 160.186L181.673 158.207L174.556 157.162Z" fill="#FEFEFF"/>
<path d="M209.774 136.992C208.687 124.284 190.17 116.73 189.982 116.656L190.354 115.727C191.14 116.042 209.63 123.591 210.77 136.907L209.774 136.992Z" fill="#FEFEFF"/>
<path d="M222.468 132.574C222.464 132.477 221.977 122.828 215.675 117.82C212.192 115.051 207.563 114.181 201.92 115.236L201.736 114.253C207.68 113.145 212.581 114.082 216.302 117.042C222.962 122.34 223.449 132.119 223.467 132.533L222.468 132.574Z" fill="#FEFEFF"/>
<path d="M165.648 150.133C165.611 149.28 164.855 129.172 175.086 122.047L175.657 122.867C165.878 129.678 166.637 149.886 166.646 150.09L165.648 150.133Z" fill="#FEFEFF"/>
<path d="M189.689 175.017C192.973 175.017 195.634 172.355 195.634 169.072C195.634 165.789 192.973 163.127 189.689 163.127C186.406 163.127 183.744 165.789 183.744 169.072C183.744 172.355 186.406 175.017 189.689 175.017Z" fill="#D26E7E"/>
<path d="M218.532 169.074C221.816 169.074 224.477 166.412 224.477 163.129C224.477 159.845 221.816 157.184 218.532 157.184C215.249 157.184 212.587 159.845 212.587 163.129C212.587 166.412 215.249 169.074 218.532 169.074Z" fill="#D26E7E"/>
<path d="M213.768 161.329C208.276 161.329 203.808 156.861 203.808 151.369C203.808 145.877 208.276 141.41 213.768 141.41C219.26 141.41 223.727 145.878 223.727 151.369C223.727 156.86 219.259 161.329 213.768 161.329ZM213.768 143.409C209.379 143.409 205.808 146.98 205.808 151.368C205.808 155.757 209.379 159.328 213.768 159.328C218.157 159.328 221.727 155.757 221.727 151.368C221.727 146.98 218.156 143.409 213.768 143.409Z" fill="#FEFEFF"/>
<path d="M190.169 166.851C184.677 166.851 180.21 162.383 180.21 156.891C180.21 151.399 184.678 146.932 190.169 146.932C195.66 146.932 200.129 151.4 200.129 156.891C200.129 162.382 195.661 166.851 190.169 166.851ZM190.169 148.932C185.78 148.932 182.21 152.503 182.21 156.891C182.21 161.28 185.781 164.851 190.169 164.851C194.558 164.851 198.129 161.28 198.129 156.891C198.129 152.502 194.558 148.932 190.169 148.932Z" fill="#FEFEFF"/>
<path d="M395.792 253.258C394.959 253.258 394.252 253.069 393.74 252.686C393.423 252.449 393.236 252.091 393.216 251.678C393.186 251.076 393.709 250.117 394.567 248.969C393.657 249.313 392.764 249.516 391.924 249.516C391.916 249.516 391.908 249.516 391.9 249.516C389.903 249.506 389.187 248.664 388.937 247.959C388.715 247.333 388.837 246.556 389.211 245.681C388.827 245.824 388.491 245.901 388.206 245.876C386.77 245.794 386.196 244.976 385.982 244.494C384.406 240.958 392.006 231.035 394.375 228.078L395.936 229.328C391.45 234.933 387.067 242.015 387.809 243.681C387.83 243.728 387.887 243.855 388.32 243.88C388.322 243.88 388.324 243.88 388.326 243.88C388.911 243.88 390.306 242.946 392.097 241.486C394.926 238.24 398.915 234.826 401.224 232.938L402.577 234.407C400.977 236.064 397.102 239.989 393.651 242.786C391.707 244.965 390.596 246.65 390.824 247.292C390.837 247.327 391.077 247.512 391.911 247.516C391.916 247.516 391.922 247.516 391.928 247.516C394.11 247.516 397.157 245.454 399.696 243.315C401.133 241.89 402.584 240.524 403.79 239.414L405.207 240.823C404.846 241.219 403.212 242.978 401.051 244.812C398.317 247.542 396.001 250.096 395.374 251.249C396.772 251.486 400.333 250.374 403.398 246.877L404.902 248.195C401.978 251.529 398.309 253.258 395.792 253.258Z" fill="#D26E7E"/>
<path d="M379.262 233.908C379.262 233.908 397.031 235.572 396.91 238.916C396.789 242.259 386.027 241.079 386.967 241.992C387.907 242.905 392.822 247.993 388.376 254.027" fill="#DA8E8D"/>
<path d="M389.18 254.62L387.571 253.434C391.34 248.319 387.528 243.931 386.269 242.708C385.934 242.383 385.822 241.924 385.976 241.511C386.282 240.691 387.093 240.644 389.263 240.52C390.896 240.427 395.864 240.143 395.91 238.879C395.585 237.573 387.761 235.709 379.167 234.904L379.354 232.912C386.342 233.567 398.044 235.222 397.909 238.951C397.797 242.035 392.93 242.313 389.378 242.516C389.197 242.527 389.006 242.537 388.816 242.549C391.293 245.684 392.462 250.166 389.18 254.62Z" fill="#D26E7E"/>
<path d="M262.182 394.137L260.597 392.916C260.821 392.625 283.003 363.665 283.624 349.482C284.235 335.524 258.335 317.194 258.073 317.01L257.277 316.451L257.813 315.639C258.013 315.336 277.799 285.258 276.527 275.079C275.233 264.728 252.457 224.423 252.227 224.017L253.967 223.031C254.914 224.703 277.168 264.091 278.511 274.831C279.767 284.879 263.267 310.911 260.008 315.936C264.539 319.241 286.225 335.802 285.622 349.568C284.973 364.382 263.112 392.929 262.182 394.137Z" fill="#DFDDD7"/>
<path d="M198.646 168.117C198.646 168.117 206.819 167.229 209.159 166.676C211.499 166.124 209.552 173.928 205.867 174.777C202.233 175.614 196.37 168.657 198.646 168.117Z" fill="#FEFEFF"/>
<path d="M177.251 402.083C176.33 401.153 154.679 379.21 153.652 369.97C152.627 360.742 160.748 346.996 161.094 346.416L162.812 347.439C162.731 347.576 154.688 361.189 155.639 369.749C156.59 378.302 178.451 400.452 178.671 400.675L177.251 402.083Z" fill="#DFDDD7"/>
<path d="M177.116 259.057C169.551 240.235 171.587 227.735 174.626 220.563C177.961 212.696 183.097 209.383 183.314 209.246L184.384 210.935C183.59 211.442 165.082 223.755 178.97 258.31L177.116 259.057Z" fill="#352B4C"/>
<path d="M248.53 254.836C247.293 206.178 227.794 200.627 227.597 200.576L228.077 198.635C228.941 198.846 249.247 204.388 250.528 254.785L248.53 254.836Z" fill="#352B4C"/>
<path d="M248.253 255.865C251.539 255.865 254.202 253.201 254.202 249.916C254.202 246.63 251.539 243.967 248.253 243.967C244.968 243.967 242.304 246.63 242.304 249.916C242.304 253.201 244.968 255.865 248.253 255.865Z" fill="#352B4C"/>
<path d="M188.507 319.759C188.425 319.646 180.259 308.305 174.81 295.185C167.46 277.488 168.373 264.588 177.451 257.88C180.629 255.53 184.074 254.887 187.689 255.963C204.086 260.847 218.85 300.158 219.471 301.83L217.596 302.525C217.448 302.126 202.564 262.478 187.118 257.879C184.096 256.98 181.323 257.506 178.639 259.488C158.476 274.386 189.808 318.144 190.127 318.584L188.507 319.759Z" fill="#352B4C"/>
<path d="M124.833 304.055C124.833 304.055 171.242 282.349 182.274 278.427C193.307 274.505 202.394 273.425 202.079 275.713C201.764 278.001 187.523 282.647 187.523 282.647C187.523 282.647 204.382 279.139 209.896 284.561C213.173 287.784 194.034 288.984 192.246 290.681C190.458 292.378 204.877 289.626 208.317 292.505C211.757 295.384 191.038 299.453 191.038 299.453C191.038 299.453 205.531 301.448 202.717 304.947C199.904 308.446 190.04 306.699 180.309 309.634C170.578 312.569 144.097 329.908 137.889 329.831C131.683 329.754 122.256 305.256 124.833 304.055Z" fill="#DA8E8D"/>
<path d="M168.617 284.098C168.617 284.098 178.27 304.104 178.682 315.945C179.094 327.786 128.648 361.372 105.723 362.331C82.7985 363.29 71.5375 344.057 85.2315 321.658C92.5725 309.65 139.903 288.557 168.617 284.098Z" fill="#F7ECE9"/>
<path d="M114.51 361.845L113.844 359.96C114.331 359.787 162.726 342.493 171.988 325.371L173.747 326.322C169.684 333.835 158.455 342.103 140.376 350.897C127.002 357.403 114.634 361.802 114.51 361.845Z" fill="#DFDDD7"/>
<path d="M219.619 310.109C217.439 310.76 215.123 309.508 214.472 307.328L213.406 303.757C212.755 301.577 214.007 299.261 216.187 298.61C218.367 297.959 220.683 299.211 221.334 301.391L222.4 304.962C223.051 307.142 221.799 309.458 219.619 310.109Z" fill="#352B4C"/>
<path d="M191.923 324.576C189.874 325.564 187.389 324.696 186.401 322.647L184.781 319.291C183.793 317.242 184.661 314.756 186.71 313.768C188.759 312.78 191.246 313.648 192.234 315.697L193.852 319.053C194.84 321.103 193.972 323.588 191.923 324.576Z" fill="#352B4C"/>
<path d="M102.418 313.551L101.335 311.869C135.17 290.077 161.487 284.427 161.75 284.373L162.158 286.33C161.899 286.385 135.916 291.977 102.418 313.551Z" fill="#DFDDD7"/>
<path d="M139.065 293.464H137.065C137.065 276.87 147.698 254.536 148.15 253.594L149.953 254.459C149.845 254.686 139.065 277.329 139.065 293.464Z" fill="#DFDDD7"/>
<path d="M172.126 224.023L171.999 223.031C172.176 223.008 189.712 220.362 186.825 190.377L187.82 190.281C190.804 221.278 172.313 223.998 172.126 224.023Z" fill="#FEFEFF"/>
<path d="M154.091 212.517C151.876 212.517 150.472 212.305 150.431 212.298L150.588 211.311C150.707 211.33 162.644 213.118 172.03 205.882C178.402 200.97 182.176 193.087 183.246 182.453L184.241 182.554C183.141 193.477 179.236 201.595 172.632 206.681C166.149 211.674 158.508 212.517 154.091 212.517Z" fill="#FEFEFF"/>
<path d="M231.227 201.056L230.24 200.899C231.366 193.819 225.455 180.693 225.395 180.562L226.305 180.148C226.555 180.697 232.4 193.679 231.227 201.056Z" fill="#FEFEFF"/>
<path d="M239.144 202.877L238.228 202.477C245.474 185.903 230.679 170.783 230.529 170.632L231.237 169.926C231.392 170.081 246.659 185.685 239.144 202.877Z" fill="#FEFEFF"/>
<path d="M110.274 235.942L109.282 235.819C109.309 235.603 112.341 214.151 144.735 204.819C167.966 198.127 161.454 163.572 161.385 163.224L162.366 163.031C162.436 163.388 169.113 198.836 145.011 205.78C128.384 210.57 119.818 218.544 115.56 224.39C110.972 230.689 110.281 235.89 110.274 235.942Z" fill="#FEFEFF"/>
<path d="M307.738 343.728C307.63 343.248 296.821 295.509 291.372 283.459L293.194 282.635C298.727 294.869 309.244 341.317 309.689 343.288L307.738 343.728Z" fill="#DFDDD7"/>
<path d="M197.751 283.047C197.751 283.047 198.564 284.715 199.178 286.752Z" fill="#DA8E8D"/>
<path d="M198.221 287.04C197.637 285.102 196.861 283.501 196.853 283.484L198.651 282.609C198.686 282.679 199.506 284.373 200.136 286.463L198.221 287.04Z" fill="#D26E7E"/>
<path d="M190.618 276.611C190.618 276.611 191.882 277.639 193.02 279.083Z" fill="#DA8E8D"/>
<path d="M192.235 279.704C191.177 278.363 189.999 277.398 189.987 277.389L191.25 275.838C191.305 275.883 192.612 276.953 193.806 278.466L192.235 279.704Z" fill="#D26E7E"/>
<path d="M199.177 292.281C199.177 292.281 200.425 294.064 199.177 295.848Z" fill="#DA8E8D"/>
<path d="M199.998 296.42L198.359 295.274C199.165 294.123 198.44 292.974 198.354 292.847L199.998 291.707C200.065 291.803 201.629 294.09 199.998 296.42Z" fill="#D26E7E"/>
<path d="M194.698 305.122C194.698 305.122 195.923 303.878 196.146 302.178Z" fill="#DA8E8D"/>
<path d="M195.41 305.824L193.985 304.42L194.697 305.122L193.982 304.424C193.992 304.413 194.979 303.379 195.155 302.047L197.137 302.309C196.873 304.318 195.469 305.763 195.41 305.824Z" fill="#D26E7E"/>
<path d="M227.538 154.085C225.312 150.793 227.401 146.918 227.491 146.754L229.244 147.716C229.228 147.746 227.661 150.695 229.195 152.965L227.538 154.085Z" fill="#D26E7E"/>
<path d="M202.263 165.295V163.295C204.047 163.294 205.901 163.061 206.607 162.77C206.166 161.566 203.735 158.192 201.493 155.485L203.033 154.209C209.708 162.266 208.811 163.378 208.38 163.913C207.411 165.115 204.131 165.295 202.263 165.295Z" fill="#352B4C"/>
<path d="M199.739 156.611L198.399 155.126C200.192 153.51 203.852 151.46 206.197 154.046L204.716 155.39C203.132 153.643 199.772 156.581 199.739 156.611Z" fill="#FEFEFF"/>
<path d="M474.453 250.294C499.659 250.294 520.092 229.86 520.092 204.655C520.092 179.449 499.659 159.016 474.453 159.016C449.248 159.016 428.814 179.449 428.814 204.655C428.814 229.86 449.248 250.294 474.453 250.294Z" fill="#352B4C"/>
<path d="M474.453 237.962C492.855 237.962 507.771 223.045 507.771 204.644C507.771 186.243 492.855 171.326 474.453 171.326C456.052 171.326 441.135 186.243 441.135 204.644C441.135 223.045 456.052 237.962 474.453 237.962Z" fill="#FEFEFF"/>
<path d="M474.456 211.647L455.151 191.831L458.395 188.672L474.45 205.154L490.46 188.674L493.707 191.829L474.456 211.647Z" fill="#D26E7E"/>
</svg>
