<svg width="472" height="456" viewBox="0 0 472 456" fill="none" xmlns="http://www.w3.org/2000/svg">
<path d="M312.143 14.7179C312.143 14.7179 233.386 -15.9631 157.889 27.7859C82.3929 71.5339 45.9599 161.259 14.5439 233.076C-16.8711 304.892 4.05186 379.283 63.3659 414.467C122.68 449.65 161.231 400.983 243.22 400.646C325.21 400.309 347.574 412.999 414.481 366.796C481.389 320.593 490.918 207.709 435.155 122.59C379.393 37.4699 312.143 14.7179 312.143 14.7179Z" fill="#8B3A3A"/>
<path opacity="0.7" d="M312.143 14.7179C312.143 14.7179 233.386 -15.9631 157.889 27.7859C82.3929 71.5339 45.9599 161.259 14.5439 233.076C-16.8711 304.892 4.05186 379.283 63.3659 414.467C122.68 449.65 161.231 400.983 243.22 400.646C325.21 400.309 347.574 412.999 414.481 366.796C481.389 320.593 490.918 207.709 435.155 122.59C379.393 37.4699 312.143 14.7179 312.143 14.7179Z" fill="white"/>
<path d="M236.958 455.607C291.949 455.607 336.528 449.978 336.528 443.034C336.528 436.09 291.949 430.461 236.958 430.461C181.967 430.461 137.388 436.09 137.388 443.034C137.388 449.978 181.967 455.607 236.958 455.607Z" fill="#263238"/>
<path d="M125.389 37.6282C113.373 39.1902 112.107 40.4552 110.546 52.4712C108.985 40.4552 107.719 39.1892 95.7029 37.6282C107.719 36.0662 108.985 34.8012 110.546 22.7852C112.107 34.8012 113.373 36.0672 125.389 37.6282Z" stroke="#263238" stroke-miterlimit="10" stroke-linecap="round" stroke-linejoin="round"/>
<path d="M325.489 409.173C313.473 410.734 312.207 412 310.646 424.016C309.085 412 307.819 410.734 295.803 409.173C307.819 407.612 309.085 406.346 310.646 394.33C312.207 406.345 313.472 407.611 325.489 409.173Z" stroke="#263238" stroke-miterlimit="10" stroke-linecap="round" stroke-linejoin="round"/>
<path d="M137.731 205.445C128.422 206.655 127.441 207.635 126.231 216.944C125.021 207.635 124.041 206.654 114.732 205.445C124.041 204.235 125.022 203.255 126.231 193.945C127.441 203.254 128.422 204.235 137.731 205.445Z" stroke="#263238" stroke-miterlimit="10" stroke-linecap="round" stroke-linejoin="round"/>
<path d="M389.823 81.125C380.514 82.335 379.533 83.315 378.324 92.624C377.114 83.315 376.134 82.334 366.824 81.125C376.133 79.915 377.114 78.935 378.324 69.625C379.533 78.935 380.513 79.916 389.823 81.125Z" stroke="#263238" stroke-miterlimit="10" stroke-linecap="round" stroke-linejoin="round"/>
<path d="M446.287 326.161C439.432 327.052 438.71 327.774 437.819 334.629C436.928 327.774 436.206 327.051 429.351 326.161C436.206 325.27 436.929 324.548 437.819 317.693C438.71 324.548 439.432 325.27 446.287 326.161Z" stroke="#263238" stroke-miterlimit="10" stroke-linecap="round" stroke-linejoin="round"/>
<path d="M364.363 395.118C357.508 396.009 356.786 396.731 355.895 403.586C355.004 396.731 354.282 396.009 347.427 395.118C354.282 394.227 355.004 393.505 355.895 386.65C356.786 393.505 357.508 394.227 364.363 395.118Z" stroke="#263238" stroke-miterlimit="10" stroke-linecap="round" stroke-linejoin="round"/>
<path d="M44.2539 357.06C37.3989 357.951 36.6769 358.673 35.7859 365.528C34.8949 358.673 34.1729 357.95 27.3179 357.06C34.1729 356.169 34.8949 355.447 35.7859 348.592C36.6759 355.447 37.3979 356.169 44.2539 357.06Z" stroke="#263238" stroke-miterlimit="10" stroke-linecap="round" stroke-linejoin="round"/>
<path d="M170.666 414.148C163.811 415.039 163.089 415.761 162.198 422.616C161.307 415.761 160.585 415.039 153.73 414.148C160.585 413.257 161.307 412.535 162.198 405.68C163.089 412.535 163.811 413.257 170.666 414.148Z" stroke="#263238" stroke-miterlimit="10" stroke-linecap="round" stroke-linejoin="round"/>
<path d="M351.45 95.3977C344.595 96.2887 343.873 97.0107 342.982 103.866C342.091 97.0107 341.369 96.2887 334.514 95.3977C341.369 94.5067 342.092 93.7847 342.982 86.9297C343.873 93.7847 344.595 94.5067 351.45 95.3977Z" stroke="#263238" stroke-miterlimit="10" stroke-linecap="round" stroke-linejoin="round"/>
<path d="M136.684 53.261C129.829 54.152 129.107 54.874 128.216 61.729C127.325 54.874 126.603 54.152 119.748 53.261C126.603 52.37 127.325 51.648 128.216 44.793C129.107 51.648 129.829 52.37 136.684 53.261Z" stroke="#263238" stroke-miterlimit="10" stroke-linecap="round" stroke-linejoin="round"/>
<path d="M93.5 363.854C84.191 365.064 83.21 366.044 82.001 375.353C80.791 366.044 79.811 365.063 70.501 363.854C79.81 362.644 80.791 361.664 82.001 352.355C83.21 361.664 84.191 362.644 93.5 363.854Z" stroke="#263238" stroke-miterlimit="10" stroke-linecap="round" stroke-linejoin="round"/>
<g opacity="0.2">
<path d="M133.598 342.734C134.296 343.636 134.969 344.553 135.619 345.481C135.942 345.953 136.262 346.419 136.578 346.881C136.901 347.334 137.22 347.783 137.536 348.226C138.799 350.007 139.957 351.865 141.072 353.621C142.202 355.34 143.251 357.051 144.219 358.708C144.46 359.127 144.697 359.537 144.929 359.94C145.167 360.333 145.4 360.719 145.627 361.096C146.081 361.872 146.515 362.614 146.928 363.321C147.751 364.762 148.486 366.111 149.125 367.323C149.768 368.523 150.332 369.529 150.777 370.396C151.675 372.116 152.138 373.141 152.138 373.141C152.138 373.141 151.721 372.885 150.98 372.43C150.245 371.96 149.173 371.342 147.916 370.476C146.663 369.594 145.199 368.55 143.623 367.403C143.23 367.113 142.825 366.831 142.425 366.516C142.029 366.193 141.626 365.864 141.218 365.531C140.411 364.862 139.583 364.175 138.744 363.479C137.062 362.127 135.449 360.529 133.887 359.01C133.112 358.236 132.337 357.507 131.626 356.715C130.917 355.92 130.236 355.138 129.593 354.377C126.986 351.399 125.166 348.449 124.42 346.516C123.664 344.593 122.998 342.157 122.353 339.796C122.038 338.601 121.727 337.424 121.463 336.243C121.21 335.044 120.979 333.881 120.774 332.788C120.371 330.59 120.032 328.73 119.864 327.322C119.699 325.931 119.599 325.09 119.599 325.09C119.599 325.09 120.327 325.535 121.556 326.286C122.819 326.983 124.554 328.008 126.53 329.216C127.547 329.775 128.619 330.387 129.715 331.044C130.261 331.375 130.816 331.712 131.378 332.052C131.949 332.375 132.526 332.702 133.107 333.031C134.265 333.69 135.388 334.44 136.526 335.125C137.671 335.796 138.78 336.5 139.822 337.234C140.85 337.998 141.809 338.811 142.642 339.808C143.478 340.797 144.211 341.923 144.862 343.131C146.213 345.429 147.241 348.073 148.046 350.589C148.87 353.048 149.478 355.338 149.869 357.051C150.262 358.757 150.44 359.853 150.44 359.853C150.624 361.874 150.839 363.896 151.098 365.873C146.616 359.833 142.115 354.226 138.924 349.854C138.117 348.778 137.375 347.811 136.715 346.965C136.078 346.085 135.52 345.315 135.059 344.678C134.139 343.424 133.598 342.734 133.598 342.734Z" fill="black"/>
<path d="M114.916 379.601C116.258 379.926 117.576 380.207 118.865 380.446C119.51 380.566 120.148 380.675 120.779 380.774C121.416 380.86 122.054 380.917 122.679 380.975C125.19 381.188 127.552 381.305 129.798 381.225C132.06 381.109 134.168 380.89 136.105 380.606C136.588 380.53 137.062 380.455 137.526 380.381C137.994 380.28 138.452 380.181 138.901 380.084C139.796 379.879 140.647 379.665 141.452 379.445C143.062 379.006 144.488 378.547 145.723 378.106C146.961 377.653 148.026 377.162 148.877 376.77C150.583 375.969 151.488 375.427 151.488 375.427C151.488 375.427 151.007 375.366 150.151 375.258C149.297 375.138 148.048 375.03 146.546 374.795C145.037 374.55 143.257 374.262 141.314 373.947C140.825 373.866 140.32 373.8 139.814 373.704C139.31 373.602 138.797 373.497 138.278 373.392C137.23 373.185 136.154 372.972 135.064 372.756C132.853 372.375 130.639 371.795 128.416 371.31C127.311 371.053 126.192 370.846 125.125 370.576C124.05 370.312 123.001 370.055 121.992 369.807C117.886 368.922 114.423 368.028 112.239 368.07C110.049 368.125 107.585 368.046 104.982 368.046C103.69 368.032 102.363 368.039 101.078 368.004C99.7928 367.948 98.5388 367.893 97.3558 367.841C94.9758 367.717 92.7978 367.64 91.2848 367.493C89.7548 367.355 88.8308 367.271 88.8308 367.271C88.8308 367.271 89.6188 368.228 91.0118 369.78C92.4428 371.276 94.4698 373.391 96.9158 375.734C101.878 380.292 108.631 385.68 115.138 388.979C116.731 389.869 118.426 390.381 120.089 390.741C121.756 391.093 123.412 391.247 125.017 391.247C128.276 391.128 131.314 390.405 133.883 389.483C136.474 388.505 138.613 387.292 140.09 386.364C141.569 385.429 142.403 384.75 142.403 384.75C143.823 383.405 145.219 382.037 146.605 380.604L145.2 380.9L143.8 381.115C142.863 381.25 141.921 381.37 140.977 381.475C139.094 381.671 137.181 381.876 135.36 381.865C133.527 381.89 131.726 381.868 129.998 381.812C128.263 381.773 126.66 381.555 125.135 381.405C123.618 381.236 122.212 381.052 120.958 380.873C119.724 380.649 118.643 380.427 117.747 380.238C115.955 379.861 114.916 379.601 114.916 379.601Z" fill="black"/>
<path d="M105.595 320.733C107.242 324.849 108.68 328.842 109.844 332.687C111.082 336.431 112.006 340.085 112.844 343.099C113.643 346.165 114.205 348.8 114.621 350.569C115.019 352.37 115.19 353.422 115.19 353.422C115.19 353.422 114.877 353.073 114.32 352.451C113.776 351.813 112.949 350.968 112.042 349.803C111.139 348.652 110.075 347.294 108.913 345.812C108.33 345.085 107.768 344.272 107.195 343.437C106.627 342.605 106.044 341.751 105.453 340.885C100.783 333.896 96.7858 325.562 96.4498 321.555C96.3468 320.561 96.2428 319.505 96.1798 318.387C96.1318 317.254 96.0998 316.084 96.0828 314.916C96.0578 312.569 96.0468 310.272 96.1958 308.144C96.3158 306.04 96.4608 304.22 96.5768 302.928C96.6808 301.645 96.8028 300.844 96.8028 300.844C96.8028 300.844 96.9428 300.996 97.2018 301.278C97.4708 301.55 97.8618 301.946 98.3538 302.444C98.8348 302.947 99.4138 303.552 100.068 304.236C100.711 304.927 101.413 305.708 102.222 306.494C103.013 307.295 103.844 308.159 104.686 309.072C104.896 309.301 105.107 309.531 105.32 309.764C105.542 309.987 105.767 310.211 105.992 310.437C106.435 310.895 106.883 311.359 107.333 311.825C109.069 313.756 110.924 315.624 112.474 317.561C112.668 317.803 112.852 318.053 113.027 318.31C113.212 318.554 113.388 318.806 113.554 319.065C113.887 319.583 114.184 320.128 114.449 320.696C114.981 321.831 115.38 323.066 115.698 324.337C116.389 326.803 116.705 329.483 116.845 331.979C117.008 334.439 117.023 336.667 116.971 338.321C116.924 339.967 116.826 341.002 116.826 341.002C116.522 342.858 116.22 344.76 115.986 346.606C111.004 334.204 105.595 320.733 105.595 320.733Z" fill="black"/>
<path d="M84.127 289.135C85.194 298.017 85.45 306.407 85.396 312.837C85.412 316.004 85.28 318.708 85.198 320.564C85.13 322.409 85.031 323.467 85.031 323.467C85.031 323.467 84.817 323.037 84.435 322.272C84.041 321.52 83.535 320.389 82.945 319.003C82.353 317.619 81.646 316.006 80.932 314.222C80.262 312.402 79.556 310.434 78.859 308.422C78.188 306.391 77.614 304.251 77.045 302.199C76.752 301.178 76.521 300.138 76.316 299.118C76.105 298.102 75.911 297.111 75.738 296.158C75.571 295.201 75.398 294.297 75.299 293.413C75.204 292.527 75.131 291.69 75.085 290.915C74.993 289.364 75.005 288.057 75.148 287.079C75.445 285.116 75.974 282.828 76.509 280.594C77.023 278.367 77.733 276.105 78.37 274.138C79.024 272.163 79.565 270.495 80.066 269.272C80.549 268.069 80.841 267.342 80.841 267.342C80.841 267.342 81.223 268.097 81.868 269.372C82.564 270.623 83.515 272.387 84.538 274.447C86.766 278.492 89.414 283.639 91.565 288.206C93.593 292.812 93.024 298.524 92.088 303.385C91.578 305.829 91.033 307.965 90.576 309.525C90.119 311.084 89.766 312.044 89.766 312.044C89.004 313.73 88.257 315.439 87.526 317.171C87.184 313.507 86.637 310.032 86.28 306.683C86.068 305.055 85.863 303.471 85.666 301.959C85.502 300.443 85.334 299.027 85.17 297.733C84.803 295.169 84.629 292.969 84.434 291.479C84.252 289.98 84.127 289.135 84.127 289.135Z" fill="black"/>
<path d="M80.9639 349.513C82.0859 350.175 83.1969 350.79 84.2929 351.361C85.3939 351.926 86.5259 352.392 87.6119 352.848C89.8099 353.728 91.8659 354.524 93.9389 355.019C95.9859 355.549 97.9189 355.945 99.7179 356.235C101.537 356.497 103.253 356.606 104.791 356.675C106.336 356.734 107.712 356.739 108.931 356.678C110.164 356.595 111.219 356.48 112.077 356.365C113.793 356.134 114.731 355.907 114.731 355.907C114.731 355.907 113.053 355.14 110.437 353.943C107.888 352.616 104.288 350.948 100.606 348.871C99.6669 348.37 98.7159 347.863 97.7639 347.355C96.8269 346.813 95.8889 346.27 94.9619 345.733C93.0929 344.663 91.2099 343.655 89.5239 342.629C87.8139 341.631 86.1869 340.748 84.7529 340.032C83.3559 339.276 82.1279 338.712 81.1579 338.421C79.2189 337.842 76.9079 337.227 74.6249 336.483C72.3289 335.756 69.9069 335.047 67.7959 334.312C63.5859 332.834 60.2419 331.6 60.2419 331.6C60.2419 331.6 60.7859 332.633 61.7039 334.377C62.6509 336.102 63.9369 338.589 65.6929 341.261C66.5529 342.614 67.4869 344.05 68.4769 345.528C69.5039 346.969 70.6089 348.429 71.7399 349.895C72.3129 350.621 72.8889 351.351 73.4649 352.08C74.0609 352.788 74.6819 353.47 75.2959 354.15C76.5289 355.505 77.7749 356.811 79.0079 358.025C80.2739 359.2 81.6489 360.148 83.0489 360.927C84.4619 361.691 85.8689 362.331 87.3509 362.707C90.2879 363.499 93.1479 363.723 95.6789 363.579C100.795 363.225 104.401 361.717 104.401 361.717C105.979 360.92 107.579 360.038 109.144 359.163C107.362 359.03 105.63 358.713 103.891 358.368C102.162 358.01 100.409 357.643 98.7579 357.16C97.1139 356.666 95.5099 356.14 93.9799 355.605C93.2169 355.334 92.4629 355.075 91.7489 354.792C91.0439 354.491 90.3609 354.199 89.7029 353.919C87.0849 352.754 84.8229 351.736 83.3409 350.867C81.8309 350.032 80.9639 349.513 80.9639 349.513Z" fill="black"/>
<path d="M52.4468 307.675C54.2858 309.64 56.1298 311.414 57.9418 313.004C59.8108 314.555 61.6768 315.903 63.4538 317.097C63.9018 317.389 64.3428 317.676 64.7768 317.959C65.2308 318.219 65.6768 318.475 66.1168 318.727C66.9988 319.219 67.8598 319.674 68.6938 320.092C70.3758 320.918 71.8948 321.649 73.3958 322.169C76.3518 323.246 78.7628 323.863 80.4388 324.217C82.1588 324.529 83.1248 324.604 83.1248 324.604C83.1248 324.604 82.7708 324.291 82.1398 323.735C81.4898 323.195 80.6428 322.337 79.5588 321.325C78.4938 320.297 77.1758 319.125 75.8108 317.764C74.4378 316.389 72.9498 314.899 71.4218 313.368C69.9138 311.777 68.3648 310.144 66.8508 308.547C65.3188 306.94 63.8978 305.294 62.4758 303.819C61.0388 302.353 59.7948 300.936 58.6238 299.781C57.4598 298.622 56.4128 297.697 55.5468 297.115C52.2048 294.738 47.5328 291.639 43.8918 288.837C42.0428 287.459 40.3688 286.216 39.2438 285.279C38.0888 284.345 37.3918 283.781 37.3918 283.781C37.3918 283.781 37.6178 284.957 37.9988 286.942C38.4318 288.91 39.1408 291.652 40.0078 294.833C40.4468 296.421 41.0268 298.068 41.6018 299.797C42.2028 301.512 42.7808 303.32 43.5378 305.056C44.2658 306.808 45.0308 308.567 45.8228 310.282C46.6078 312.001 47.5308 313.608 48.4038 315.161C50.1348 318.281 52.6068 320.595 55.1468 322.337C55.7828 322.773 56.4258 323.172 57.0708 323.536C57.7298 323.889 58.3998 324.201 59.0578 324.485C60.3778 325.052 61.6748 325.492 62.9028 325.832C64.1318 326.171 65.2878 326.414 66.3398 326.577C67.4118 326.724 68.3688 326.802 69.1678 326.841C70.7658 326.918 71.7368 326.844 71.7368 326.844C73.4798 326.565 75.2088 326.263 76.9208 325.938C75.3058 325.191 73.6888 324.369 72.0948 323.498C70.4748 322.649 69.0148 321.64 67.5308 320.671C66.0798 319.677 64.6088 318.715 63.3348 317.675C62.0408 316.65 60.8168 315.641 59.6888 314.683C59.1258 314.198 58.5858 313.732 58.0708 313.287C57.5798 312.818 57.1138 312.372 56.6738 311.952C55.7978 311.103 55.0358 310.344 54.4098 309.709C53.1548 308.441 52.4468 307.675 52.4468 307.675Z" fill="black"/>
<path d="M71.947 253.414C70.744 262.242 68.898 270.368 67.23 276.535C66.456 279.582 65.684 282.129 65.116 283.902C64.596 285.653 64.24 286.64 64.24 286.64C64.24 286.64 64.139 286.162 63.96 285.312C63.763 284.472 63.588 283.217 63.347 281.713C63.126 280.201 62.818 278.448 62.606 276.504C62.412 274.552 62.218 272.449 62.046 270.306C61.938 268.14 61.892 265.92 61.862 263.776C61.844 261.627 62.002 259.505 62.126 257.577C62.236 255.65 62.527 253.861 62.824 252.347C63.124 250.832 63.463 249.583 63.846 248.69C65.505 245.078 67.931 240.655 70.226 237.291C71.354 235.603 72.294 234.177 73.092 233.162C73.862 232.161 74.327 231.557 74.327 231.557C74.327 231.557 74.517 232.4 74.792 233.816C75.141 235.227 75.609 237.205 76.068 239.489C77.167 244.042 78.422 249.766 79.331 254.79C79.682 257.329 79.46 259.862 78.765 262.375C78.593 263.002 78.395 263.626 78.177 264.244C77.981 264.855 77.769 265.458 77.539 266.053C77.08 267.243 76.561 268.397 76.026 269.487C75.493 270.575 74.934 271.601 74.418 272.521C73.921 273.433 73.447 274.246 73.034 274.924C72.209 276.282 71.632 277.096 71.632 277.096C70.482 278.484 69.34 279.899 68.209 281.341C68.77 277.725 69.135 274.211 69.619 270.893C69.851 269.238 69.978 267.682 70.216 266.172C70.435 264.669 70.626 263.261 70.789 261.971C70.867 261.33 70.943 260.713 71.014 260.126C71.104 259.538 71.189 258.98 71.269 258.453C71.417 257.414 71.548 256.504 71.655 255.752C71.857 254.26 71.947 253.414 71.947 253.414Z" fill="black"/>
<path d="M36.861 261.482C38.121 263.945 39.468 266.217 40.811 268.304C42.192 270.381 43.678 272.241 45.085 273.936C46.472 275.639 47.981 277.106 49.371 278.423C50.782 279.732 52.078 280.892 53.369 281.858C55.95 283.792 58.121 285.115 59.646 285.963C60.405 286.388 61.05 286.673 61.469 286.869C61.898 287.056 62.123 287.154 62.123 287.154C62.123 287.154 61.859 286.746 61.389 286.021C60.919 285.295 60.306 284.218 59.513 282.916C59.118 282.262 58.687 281.55 58.227 280.79C57.76 280.031 57.266 279.22 56.799 278.35C55.82 276.61 54.758 274.724 53.668 272.787C52.641 270.808 51.563 268.764 50.475 266.754C49.433 264.731 48.453 262.719 47.46 260.863C46.439 259.013 45.63 257.26 44.78 255.791C43.952 254.317 43.175 253.106 42.49 252.278C41.19 250.61 39.625 248.68 38.008 246.68L36.789 245.172C36.401 244.662 36.015 244.154 35.633 243.652C34.862 242.631 34.111 241.636 33.401 240.696C31.971 238.795 30.685 237.076 29.845 235.824C28.975 234.566 28.449 233.805 28.449 233.805C28.449 233.805 28.366 235.007 28.227 237.035C28.136 239.065 28.129 241.924 28.155 245.257C28.158 246.925 28.314 248.69 28.427 250.533C28.498 251.454 28.571 252.391 28.644 253.34C28.717 254.29 28.811 255.248 28.955 256.202C29.217 258.115 29.513 260.046 29.844 261.944C29.93 262.418 30.015 262.89 30.1 263.36C30.207 263.824 30.313 264.286 30.419 264.745C30.636 265.662 30.863 266.563 31.097 267.444C31.58 269.2 32.18 270.857 33.01 272.349C33.836 273.842 34.78 275.205 35.788 276.434C37.763 278.91 40.193 280.769 42.375 282.178C43.474 282.88 44.531 283.464 45.498 283.945C46.467 284.424 47.389 284.782 48.143 285.065C49.663 285.625 50.617 285.849 50.617 285.849C52.365 286.11 54.104 286.345 55.834 286.552C54.462 285.344 53.108 284.063 51.788 282.741C50.465 281.421 49.293 280.012 48.108 278.626C45.713 275.862 43.767 272.993 42.058 270.461C41.189 269.199 40.481 267.99 39.851 266.903C39.22 265.817 38.676 264.851 38.232 264.048C37.793 263.238 37.446 262.599 37.209 262.162C36.969 261.724 36.861 261.482 36.861 261.482Z" fill="black"/>
<path d="M69.362 215.455C65.919 223.536 62.107 230.74 58.923 236.137C57.407 238.818 56.025 241.021 55.024 242.547C54.073 244.068 53.488 244.904 53.488 244.904C53.488 244.904 53.512 244.414 53.553 243.543C53.576 242.676 53.739 241.415 53.883 239.899C54.056 238.38 54.197 236.603 54.495 234.672C54.806 232.74 55.156 230.662 55.537 228.554C55.982 226.443 56.512 224.301 57.032 222.236C57.276 221.203 57.602 220.191 57.92 219.21C58.237 218.229 58.555 217.28 58.872 216.376C59.195 215.472 59.494 214.61 59.833 213.807C60.186 213.005 60.534 212.259 60.875 211.579C61.556 210.22 62.206 209.13 62.804 208.393C63.387 207.655 64.085 206.884 64.827 206.104C65.563 205.323 66.335 204.532 67.116 203.755C67.897 202.977 68.687 202.214 69.461 201.484C70.275 200.762 71.076 200.074 71.83 199.438C73.34 198.165 74.672 197.101 75.626 196.355C76.094 195.98 76.518 195.696 76.787 195.496C77.063 195.299 77.215 195.191 77.215 195.191C77.215 195.191 77.204 195.408 77.182 195.807C77.149 196.203 77.138 196.789 77.124 197.522C77.1 198.989 76.985 201.031 76.876 203.38C76.857 204.56 76.821 205.814 76.76 207.109C76.724 207.755 76.686 208.412 76.649 209.077C76.632 209.743 76.614 210.416 76.597 211.093C76.552 212.444 76.475 213.804 76.359 215.143C76.287 216.485 76.224 217.808 76.084 219.08C75.76 221.621 74.922 223.974 73.602 226.162C73.277 226.708 72.925 227.244 72.56 227.768C72.219 228.291 71.86 228.802 71.488 229.3C70.745 230.296 69.953 231.239 69.161 232.115C68.371 232.991 67.577 233.8 66.841 234.521C66.134 235.24 65.472 235.871 64.904 236.393C63.768 237.438 63.008 238.039 63.008 238.039C61.552 239.013 60.098 240.015 58.646 241.048C59.371 239.402 60.056 237.764 60.699 236.161L61.173 234.966C61.344 234.57 61.514 234.176 61.683 233.782C62.01 233.004 62.335 232.232 62.655 231.471C63.298 229.958 63.819 228.507 64.429 227.135C65.025 225.763 65.568 224.475 66.056 223.29C66.983 220.92 67.926 218.97 68.479 217.604C69.058 216.238 69.362 215.455 69.362 215.455Z" fill="black"/>
<path d="M33.6359 212.215C34.2289 214.975 34.9199 217.576 35.6729 220C36.4839 222.426 37.4179 224.679 38.3379 226.746C39.2299 228.815 40.3119 230.695 41.3069 232.394C42.3269 234.091 43.2779 235.609 44.2649 236.939C46.2539 239.599 48.0029 241.544 49.2529 242.831C49.8669 243.476 50.4129 243.949 50.7669 244.267C51.1319 244.58 51.3229 244.743 51.3229 244.743C51.3229 244.743 51.1719 244.27 50.9029 243.429C50.6629 242.578 50.3169 241.355 49.8959 239.865C49.6819 239.114 49.4489 238.297 49.1999 237.425C49.0739 236.987 48.9439 236.536 48.8099 236.072C48.6929 235.606 48.5739 235.127 48.4519 234.638C47.9549 232.663 47.4159 230.522 46.8619 228.322C46.3839 226.102 45.8739 223.804 45.3459 221.535C44.8459 219.267 44.4419 217.032 43.9629 214.939C43.4639 212.845 43.1039 210.908 42.6869 209.235C42.2749 207.563 41.8459 206.158 41.4019 205.15C40.5369 203.109 39.5419 200.761 38.5349 198.384C38.0289 197.176 37.4779 195.941 37.0029 194.736C36.5309 193.52 36.0699 192.334 35.6349 191.214C34.7609 188.915 33.9899 186.889 33.4379 185.437C32.9279 183.964 32.6199 183.074 32.6199 183.074C32.6199 183.074 32.5209 183.354 32.3369 183.869C32.1579 184.386 31.8799 185.136 31.6059 186.1C31.0349 188.022 30.2439 190.742 29.4199 193.938C27.9579 200.359 26.4799 208.764 26.5789 216.135C26.5769 217.054 26.6249 217.958 26.7169 218.844C26.8009 219.73 26.9449 220.597 27.1619 221.445C27.5709 223.139 28.1269 224.744 28.7799 226.241C30.0369 229.238 31.9039 231.786 33.6359 233.821C35.3799 235.858 37.0929 237.384 38.4349 238.394C39.7529 239.406 40.6109 239.917 40.6109 239.917C42.2229 240.712 43.8339 241.477 45.4419 242.213C44.4309 240.627 43.4549 238.975 42.5219 237.295C41.5929 235.614 40.8239 233.896 40.0409 232.194C38.4449 228.791 37.3109 225.428 36.3229 222.461C36.0819 221.719 35.8419 221.002 35.6389 220.316C35.4539 219.627 35.2779 218.972 35.1119 218.355C34.7869 217.115 34.5139 216.018 34.2959 215.108C33.8599 213.286 33.6359 212.215 33.6359 212.215Z" fill="black"/>
<path d="M76.5639 178.166C71.2449 184.869 65.6559 190.595 61.3019 194.804C59.1609 196.905 57.2019 198.575 55.9209 199.739C54.6229 200.901 53.8389 201.519 53.8389 201.519C53.8389 201.519 53.9889 201.057 54.2569 200.235C54.3919 199.826 54.5569 199.328 54.7479 198.753C54.9559 198.183 55.2119 197.541 55.4839 196.838C56.0389 195.446 56.6929 193.804 57.4069 192.012C58.1649 190.246 59.0719 188.371 59.9759 186.465C60.9079 184.567 61.9829 182.68 62.9999 180.856C64.0539 179.044 65.1969 177.343 66.2419 175.794C67.3019 174.25 68.4239 172.919 69.3889 171.812C69.8789 171.262 70.3439 170.772 70.7829 170.357C71.2419 169.95 71.6689 169.614 72.0599 169.358C73.6389 168.341 75.4249 167.223 77.3499 166.235C79.2829 165.249 81.1999 164.312 82.9609 163.561C84.7459 162.821 86.3059 162.226 87.4189 161.816C88.5219 161.4 89.2189 161.189 89.2189 161.189C89.2189 161.189 89.1539 161.393 89.0329 161.768C88.9209 162.148 88.7579 162.701 88.5529 163.396C88.1399 164.781 87.4899 166.681 86.8489 168.927C86.5259 170.048 86.0999 171.199 85.7599 172.443C85.4029 173.678 85.0119 174.944 84.5889 176.209C84.1909 177.485 83.8159 178.786 83.3769 180.04C82.9229 181.287 82.5279 182.541 82.0879 183.727C80.2809 188.413 76.0609 191.702 72.1169 194.12C71.1159 194.712 70.1829 195.252 69.3189 195.722C68.4509 196.191 67.6499 196.591 66.9689 196.915C65.6049 197.563 64.7179 197.903 64.7179 197.903C63.0659 198.383 61.4089 198.89 59.7469 199.427C64.2039 194.001 68.2029 188.575 71.3929 184.668C71.7749 184.176 72.1419 183.703 72.4919 183.253C72.8539 182.812 73.1979 182.392 73.5209 181.997C74.1499 181.21 74.6999 180.521 75.1549 179.951C76.0319 178.807 76.5639 178.166 76.5639 178.166Z" fill="black"/>
<path d="M43.102 164.004C42.984 165.399 42.971 166.792 42.977 168.145C42.982 169.499 43.017 170.818 43.078 172.1C43.211 174.668 43.559 177.123 43.911 179.389C44.082 180.521 44.307 181.621 44.56 182.682C44.805 183.741 45.062 184.755 45.325 185.724C45.589 186.693 45.859 187.617 46.133 188.495C46.422 189.377 46.738 190.218 47.037 191.008C48.256 194.175 49.397 196.578 50.294 198.207C51.218 199.84 51.805 200.691 51.805 200.691C51.805 200.691 51.783 200.191 51.745 199.3C51.684 198.404 51.678 197.129 51.669 195.564C51.649 193.987 51.624 192.127 51.598 190.096C51.631 188.049 51.668 185.83 51.705 183.551C51.789 181.245 51.875 178.879 51.959 176.565C52.086 174.245 52.22 171.958 52.289 169.801C52.55 165.538 52.609 161.802 52.346 159.625C51.692 155.232 50.853 149.344 50.32 144.426C50.081 141.951 49.871 139.769 49.72 138.206C49.642 137.409 49.596 136.776 49.57 136.343C49.54 135.907 49.524 135.668 49.524 135.668C49.524 135.668 48.829 136.6 47.789 138.272C46.754 139.946 45.212 142.269 43.706 145.145C40.528 150.797 37.169 158.511 35.311 165.569C34.859 167.336 34.578 169.098 34.527 170.842C34.491 172.591 34.618 174.302 34.865 175.938C34.989 176.756 35.141 177.556 35.32 178.334C35.52 179.118 35.743 179.879 35.984 180.615C36.466 182.087 37.019 183.457 37.595 184.702C38.718 187.186 40.081 189.207 41.065 190.582C42.064 191.96 42.754 192.717 42.754 192.717C44.092 193.98 45.436 195.215 46.784 196.421C44.486 189.078 43.329 180.928 43.061 174.655C42.948 173.075 42.957 171.638 42.946 170.343C42.941 169.05 42.952 167.911 42.968 166.968C42.979 166.023 43.007 165.279 43.047 164.777C43.084 164.275 43.102 164.004 43.102 164.004Z" fill="black"/>
<path d="M92.9409 144.688C86.1159 149.45 79.2969 153.176 74.0519 155.859C72.7479 156.527 71.499 157.097 70.437 157.62C69.375 158.142 68.4339 158.58 67.6529 158.93C66.0909 159.631 65.1689 159.975 65.1689 159.975C65.1689 159.975 66.2499 158.418 67.9339 155.991C68.8099 154.809 69.8829 153.449 71.0379 151.978C71.6059 151.236 72.2369 150.493 72.8999 149.745C73.5569 149 74.2309 148.234 74.9139 147.459C75.5849 146.682 76.3159 145.937 77.0509 145.202C77.7849 144.474 78.5189 143.745 79.2449 143.025C80.7069 141.608 82.2499 140.343 83.6469 139.183C85.0589 138.033 86.4759 137.107 87.6839 136.346C88.2969 135.973 88.8609 135.643 89.3989 135.39C89.9429 135.142 90.4379 134.953 90.8779 134.829C94.3729 133.793 99.0779 133.01 102.831 132.664C104.731 132.503 106.378 132.41 107.55 132.358C108.131 132.326 108.614 132.327 108.944 132.325C109.273 132.324 109.453 132.324 109.453 132.324C109.453 132.324 108.977 133.013 108.237 134.231C107.5 135.451 106.366 137.057 105.181 139.023C104.581 139.998 103.893 140.99 103.23 142.063C102.572 143.14 101.873 144.236 101.144 145.321C100.426 146.415 99.7399 147.551 98.9959 148.617C98.2409 149.674 97.5429 150.752 96.8149 151.75C95.3219 153.714 93.434 155.17 91.257 156.226C89.114 157.3 86.8139 158.062 84.5979 158.575C82.4339 159.117 80.4329 159.456 78.9469 159.644C77.4659 159.836 76.5239 159.882 76.5239 159.882C74.8009 159.818 73.1319 159.818 71.4139 159.823C77.0109 155.973 82.2649 152.05 86.3209 149.304C86.8119 148.952 87.2839 148.613 87.7339 148.291C88.1929 147.981 88.6299 147.686 89.0409 147.408C89.8459 146.851 90.5509 146.363 91.1339 145.96C91.7029 145.555 92.1529 145.235 92.4599 145.016C92.7729 144.802 92.9409 144.688 92.9409 144.688Z" fill="black"/>
<path d="M64.4769 120.631C64.0079 121.932 63.6389 123.265 63.2959 124.564C62.9529 125.864 62.6479 127.14 62.3769 128.388C61.8599 130.904 61.5479 133.359 61.3049 135.643C60.9199 140.283 60.9669 144.355 61.3359 147.779C61.5029 149.482 61.7079 150.998 61.9249 152.318C62.1739 153.656 62.4259 154.793 62.6509 155.715C63.1009 157.558 63.4379 158.551 63.4379 158.551C63.4379 158.551 63.8899 156.607 64.5949 153.578C64.9889 152.065 65.4539 150.28 65.9609 148.331C66.4729 146.37 67.1229 144.284 67.7309 142.08C68.3639 139.893 69.1029 137.684 69.7599 135.454C70.4629 133.258 71.1889 131.116 71.8059 129.067C73.1409 125.055 74.1639 121.5 74.4639 119.327C74.9609 114.912 75.6499 108.999 76.3969 104.13C76.7919 101.68 77.1399 99.5202 77.3889 97.9722C77.6779 96.4262 77.8529 95.4922 77.8529 95.4922C77.8529 95.4922 77.6329 95.6682 77.2269 95.9922C76.8189 96.3152 76.2309 96.7942 75.5229 97.4352C74.8119 98.0772 73.9559 98.8492 72.9879 99.7222C72.5079 100.167 71.9999 100.637 71.4689 101.13C70.9479 101.636 70.4199 102.182 69.8679 102.744C65.3849 107.162 60.2019 113.508 56.6059 119.693C55.7219 121.249 54.9889 122.842 54.5059 124.511C54.0199 126.178 53.6999 127.859 53.5149 129.506C53.3129 131.142 53.3169 132.794 53.3959 134.355C53.4769 135.918 53.6529 137.405 53.8839 138.779C54.3539 141.534 55.1219 143.887 55.7099 145.51C56.3089 147.14 56.7729 148.079 56.7729 148.079C57.7159 149.697 58.7179 151.315 59.7289 152.906C59.3689 145.132 60.3519 136.934 61.7139 130.84C62.0149 129.291 62.3749 127.903 62.7049 126.663C63.0329 125.422 63.3359 124.333 63.5929 123.434C63.8479 122.532 64.0629 121.825 64.2289 121.357C64.3899 120.885 64.4769 120.631 64.4769 120.631Z" fill="black"/>
<path d="M117.25 117.59C109.478 120.087 101.973 121.548 96.246 122.485C94.82 122.718 93.498 122.9 92.322 123.046C91.171 123.218 90.158 123.346 89.321 123.439C87.645 123.627 86.675 123.671 86.675 123.671C86.675 123.671 88.102 122.478 90.342 120.707C91.495 119.874 92.855 118.891 94.34 117.817C95.835 116.777 97.519 115.746 99.21 114.68C100.931 113.65 102.747 112.689 104.494 111.759C106.288 110.889 108.057 110.104 109.696 109.423C111.375 108.797 112.938 108.294 114.296 107.939C115.647 107.572 116.86 107.457 117.758 107.47C119.57 107.52 121.637 107.66 123.754 107.974C125.857 108.263 127.931 108.594 129.809 109.035C131.677 109.453 133.274 109.837 134.426 110.161C135.577 110.506 136.273 110.715 136.273 110.715C136.273 110.715 135.655 111.254 134.613 112.165C134.099 112.626 133.48 113.181 132.78 113.809C132.079 114.43 131.278 115.083 130.462 115.856C127.089 118.774 122.997 122.635 119.172 125.563C118.226 126.312 117.167 126.839 116.08 127.264C115.004 127.704 113.862 127.993 112.687 128.172C111.5 128.337 110.324 128.445 109.152 128.479C107.978 128.509 106.808 128.463 105.686 128.375C103.442 128.197 101.459 127.928 99.98 127.642C98.511 127.368 97.597 127.122 97.597 127.122C95.96 126.526 94.3401 125.986 92.7001 125.467C99.0521 123.51 105.126 121.402 109.7 119.981C114.175 118.563 117.25 117.59 117.25 117.59Z" fill="black"/>
<path d="M95.971 85.7223C89.876 94.7783 87.188 104.08 86.102 110.774C85.832 112.462 85.646 113.984 85.519 115.318C85.396 116.657 85.365 117.845 85.342 118.795C85.306 120.706 85.376 121.765 85.376 121.765C85.376 121.765 86.307 120.043 87.759 117.36C88.519 116.027 89.415 114.455 90.394 112.739C91.421 111.035 92.535 109.188 93.678 107.29C94.875 105.401 96.104 103.462 97.305 101.567C98.555 99.7053 99.757 97.8253 100.88 96.0723C102.029 94.3563 103.069 92.7233 103.918 91.2563C104.778 89.8063 105.478 88.5693 105.875 87.5433C106.273 86.5093 106.7 85.3963 107.144 84.2413C107.606 83.0863 108.085 81.8893 108.567 80.6843C109.059 79.4563 109.554 78.2223 110.037 77.0173C110.53 75.8093 111.041 74.6613 111.517 73.5483C112.481 71.3453 113.334 69.3173 113.997 67.9423C114.656 66.5413 115.054 65.6953 115.054 65.6953C115.054 65.6953 114.034 66.0953 112.327 66.8323C110.654 67.6353 108.268 68.7323 105.587 70.2043C100.209 73.1063 93.647 77.5663 88.647 82.3773C87.406 83.5903 86.335 84.9313 85.422 86.3383C84.54 87.7883 83.816 89.3053 83.227 90.8303C82.933 91.5933 82.672 92.3583 82.443 93.1193C82.22 93.8883 82.042 94.6693 81.883 95.4303C81.569 96.9563 81.365 98.4393 81.241 99.8313C80.974 102.594 81.131 105.109 81.28 106.845C81.443 108.597 81.651 109.643 81.651 109.643C82.153 111.498 82.676 113.336 83.25 115.186C84.88 107.609 87.932 100.098 90.744 94.6423C92.146 91.9153 93.473 89.7023 94.406 88.1203C95.368 86.5783 95.971 85.7223 95.971 85.7223Z" fill="black"/>
<path d="M116.562 92.3945C93.3949 108.222 74.3439 131.951 62.9199 159.21C51.4519 186.626 47.3969 218.027 51.4999 247.63C52.6259 255.717 54.1099 262.937 56.0369 269.703C56.1219 270.007 56.2039 270.32 56.2859 270.632C56.4439 271.234 56.6019 271.835 56.7889 272.426L57.6229 275.076C57.8019 275.628 57.9699 276.171 58.1379 276.714C58.5169 277.937 58.9089 279.202 59.3839 280.433L61.2669 285.623L63.3939 290.787C66.5819 298.149 69.8569 304.603 73.4149 310.537C77.2529 316.896 81.4339 322.939 85.8449 328.503C90.3779 334.097 95.2889 339.427 100.45 344.353C105.498 349.072 111.039 353.585 116.928 357.775C122.431 361.62 128.321 365.13 134.942 368.513C140.867 371.452 147.14 374.024 154.131 376.379L154.774 374.047C147.873 371.722 141.685 369.186 135.856 366.295C129.334 362.963 123.527 359.502 118.113 355.72C112.312 351.592 106.848 347.142 101.882 342.5C96.8009 337.65 91.9579 332.395 87.4949 326.887C83.1559 321.413 79.0339 315.455 75.2509 309.188C71.7519 303.352 68.5269 296.994 65.3919 289.756L63.2939 284.665L61.4219 279.502C60.9699 278.329 60.5909 277.107 60.2249 275.925C60.0529 275.37 59.8809 274.816 59.7019 274.265L58.8709 271.624C58.6959 271.072 58.5499 270.513 58.4029 269.954C58.3179 269.628 58.2319 269.303 58.1419 268.979C56.2469 262.325 54.7879 255.223 53.6789 247.261C49.6409 218.127 53.6329 187.22 64.9199 160.234C76.1639 133.404 94.9149 110.048 117.719 94.4685L116.562 92.3945Z" fill="black"/>
<path d="M148.775 75.9979C137.156 80.3159 125.972 86.1039 115.711 93.4939C116.235 92.0179 116.993 89.8769 118.122 87.6169C119.233 85.3289 120.616 82.7349 122.321 80.3409C125.648 75.4229 130.217 71.1129 134.773 69.8349C136.382 69.4329 138.346 68.9949 140.541 68.5589C141.649 68.3889 142.816 68.2089 144.029 68.0229C145.24 67.8509 146.483 67.6489 147.781 67.5469C149.067 67.4319 150.384 67.3129 151.718 67.1939C153.043 67.0689 154.407 67.0599 155.752 66.9969C158.439 66.8529 161.153 66.9319 163.727 66.9729C165.011 66.9779 166.285 67.1079 167.502 67.1709C168.723 67.2579 169.894 67.3139 171.016 67.4269C173.264 67.6849 175.276 67.8979 176.966 68.1369C180.325 68.6999 182.436 69.0539 182.436 69.0539C182.436 69.0539 180.37 70.0369 177.122 71.5099C175.523 72.2979 173.621 73.2339 171.513 74.2729C170.482 74.8189 169.4 75.3919 168.28 75.9859C167.724 76.2749 167.159 76.5699 166.586 76.8679C166.016 77.1719 165.444 77.5099 164.865 77.8309C163.713 78.4679 162.535 79.1189 161.342 79.7789C160.171 80.4649 158.985 81.1589 157.796 81.8549C156.605 82.5099 155.438 83.2459 154.276 83.9409C153.119 84.6529 151.948 85.2629 150.835 85.9779C149.713 86.6659 148.608 87.3189 147.526 87.9259C146.443 88.5309 145.413 89.1829 144.395 89.7279C142.353 90.8039 140.488 91.8219 138.769 92.4909C137.729 92.8789 136.688 93.2499 135.636 93.5689C134.581 93.8809 133.51 94.1289 132.436 94.3239C130.322 94.7859 128.193 95.0369 126.181 95.1789C124.193 95.3659 122.302 95.4029 120.646 95.3459C119.014 95.3299 117.623 95.2259 116.606 95.0469C126.447 87.2229 137.326 80.8999 148.775 75.9979Z" fill="black"/>
</g>
<g opacity="0.2">
<path d="M328.078 343.225C326.471 344.737 324.976 346.398 323.519 347.964C322.055 349.507 320.674 351.095 319.369 352.675C316.715 355.653 314.399 358.732 312.406 361.218C311.418 362.493 310.528 363.693 309.75 364.774C308.967 365.849 308.295 366.771 307.747 367.523C306.651 369.061 306.07 369.988 306.07 369.988C306.07 369.988 306.509 369.803 307.29 369.475C308.066 369.128 309.193 368.704 310.527 368.039C311.849 367.37 313.408 366.58 315.11 365.719C316.795 364.848 318.566 363.73 320.374 362.654C320.823 362.379 321.275 362.102 321.729 361.824L323.063 360.909C323.941 360.289 324.819 359.668 325.688 359.054C327.422 357.859 329.017 356.463 330.475 355.206C331.201 354.567 331.891 353.953 332.524 353.341C333.147 352.7 333.721 352.083 334.236 351.494C335.266 350.317 336.061 349.258 336.548 348.364C338.469 344.677 340.553 339.699 341.901 335.535C342.237 334.512 342.553 333.549 342.838 332.68C343.09 331.787 343.314 330.991 343.502 330.327C343.853 329.004 344.065 328.205 344.065 328.205C344.065 328.205 343.281 328.504 341.988 329.049C340.701 329.606 338.822 330.235 336.743 331.126C332.492 332.721 327.217 334.835 322.701 336.863C322.142 337.134 321.612 337.462 321.101 337.821C320.582 338.154 320.087 338.53 319.613 338.945C318.666 339.774 317.802 340.752 317.008 341.825C315.402 343.897 314.046 346.276 312.939 348.611C311.826 350.911 310.932 353.025 310.333 354.641C309.73 356.243 309.417 357.283 309.417 357.283C308.978 359.217 308.513 361.172 308.008 363.06C313.149 357.847 318.27 353.107 321.947 349.327C322.872 348.396 323.736 347.614 324.473 346.84C325.211 346.086 325.857 345.426 326.391 344.88C327.459 343.809 328.078 343.225 328.078 343.225Z" fill="black"/>
<path d="M341.541 382.132C338.834 382.313 336.266 382.408 333.8 382.245C331.327 382.06 328.998 381.759 326.83 381.371C322.444 380.411 318.734 379.234 315.692 377.804C314.178 377.122 312.844 376.45 311.696 375.825C310.548 375.206 309.571 374.549 308.791 374.037C307.228 372.99 306.414 372.32 306.414 372.32C306.414 372.32 306.891 372.336 307.74 372.363C308.587 372.376 309.822 372.476 311.314 372.466C312.818 372.465 314.591 372.464 316.528 372.463C318.479 372.47 320.578 372.324 322.777 372.278C323.327 372.262 323.881 372.247 324.437 372.231C324.989 372.193 325.544 372.155 326.099 372.117C327.218 372.048 328.338 371.978 329.446 371.909C331.688 371.828 333.847 371.571 335.902 371.452C336.935 371.397 337.926 371.343 338.864 371.293C339.796 371.219 340.683 371.167 341.51 371.139C343.164 371.084 344.579 371.129 345.636 371.313C349.81 371.956 355.481 372.951 360.161 373.453C361.345 373.594 362.458 373.727 363.463 373.847C364.467 373.932 365.362 374.008 366.109 374.071C367.621 374.191 368.535 374.264 368.535 374.264C368.535 374.264 367.634 375.052 366.079 376.345C364.53 377.65 362.235 379.288 359.562 381.204C354.143 384.85 346.889 389.073 340.116 391.221C339.277 391.507 338.438 391.741 337.598 391.907C336.751 392.046 335.907 392.132 335.072 392.17C333.402 392.246 331.767 392.129 330.203 391.872C327.054 391.285 324.175 390.063 321.791 388.766C319.397 387.435 317.46 385.893 316.14 384.762C314.817 383.617 314.09 382.824 314.09 382.824C312.875 381.281 311.69 379.745 310.521 378.13C317.544 380.75 325.368 382.074 331.352 382.268C332.85 382.334 334.257 382.422 335.486 382.393C336.717 382.37 337.802 382.332 338.7 382.293C340.495 382.216 341.541 382.132 341.541 382.132Z" fill="black"/>
<path d="M358.335 326.213C357.221 328.035 356.22 329.92 355.276 331.775C354.298 333.574 353.406 335.386 352.586 337.173C351.76 338.947 350.954 340.6 350.25 342.248C349.543 343.917 348.889 345.459 348.294 346.861C347.096 349.69 346.211 352.186 345.586 353.87C344.96 355.555 344.654 356.549 344.654 356.549C344.654 356.549 345.006 356.261 345.633 355.749C345.944 355.491 346.322 355.176 346.759 354.813C347.182 354.426 347.662 353.987 348.189 353.504C349.237 352.536 350.466 351.401 351.778 350.141C353.057 348.815 354.425 347.375 355.8 345.889C357.166 344.387 358.478 342.726 359.757 341.15C360.072 340.75 360.384 340.353 360.694 339.959C360.988 339.545 361.279 339.135 361.567 338.729C362.137 337.916 362.683 337.118 363.197 336.344C363.707 335.565 364.199 334.832 364.623 334.09C365.042 333.341 365.423 332.626 365.756 331.953C366.424 330.608 366.906 329.432 367.147 328.491C368.057 324.628 368.866 319.575 369.176 315.425C369.35 313.361 369.493 311.606 369.513 310.28C369.544 308.98 369.562 308.195 369.562 308.195C369.562 308.195 368.917 308.685 367.864 309.538C366.773 310.35 365.24 311.483 363.537 312.859C360.007 315.468 355.673 318.865 352.021 321.981C350.261 323.642 348.914 325.673 347.967 328.073C347.498 329.281 347.066 330.466 346.714 331.691C346.36 332.913 346.073 334.15 345.837 335.349C345.379 337.774 345.06 339.923 344.89 341.537C344.716 343.143 344.675 344.164 344.675 344.164C344.728 346.023 344.759 347.895 344.768 349.779C346.438 346.644 348.232 343.79 349.805 340.95C350.605 339.589 351.384 338.264 352.127 337C352.843 335.716 353.524 334.524 354.158 333.439C355.448 331.306 356.439 329.424 357.174 328.174C357.904 326.913 358.335 326.213 358.335 326.213Z" fill="black"/>
<path d="M383.518 298.856C381.237 307.316 379.905 315.501 379.093 321.784C378.666 324.885 378.376 327.476 378.229 329.326C378.162 330.258 378.111 330.979 378.076 331.468C378.044 331.957 378.028 332.213 378.028 332.213C378.028 332.213 378.312 331.848 378.76 331.135C379.209 330.43 379.856 329.417 380.643 328.183C381.029 327.566 381.45 326.894 381.898 326.178C382.339 325.457 382.767 324.652 383.229 323.834C383.681 323.012 384.152 322.155 384.636 321.274C384.874 320.834 385.115 320.389 385.358 319.939C385.583 319.474 385.811 319.005 386.04 318.533C386.934 316.629 387.876 314.729 388.662 312.779C389.439 310.82 390.162 308.909 390.776 307.123C391.873 303.438 392.645 300.357 392.551 298.34C392.495 296.35 392.377 294.093 392.143 291.813C391.874 289.506 391.544 287.216 391.217 285.206C390.885 283.191 390.465 281.398 390.197 280.153C389.909 278.908 389.735 278.156 389.735 278.156C389.735 278.156 389.229 278.815 388.416 279.943C388.014 280.507 387.53 281.187 386.982 281.955C386.407 282.704 385.777 283.543 385.117 284.45C383.844 286.299 382.243 288.275 380.784 290.413C380.041 291.473 379.235 292.499 378.515 293.573C377.799 294.651 377.092 295.715 376.411 296.74C375.738 297.773 375.24 298.908 374.875 300.114C374.509 301.319 374.205 302.529 374.04 303.813C373.865 305.088 373.789 306.399 373.778 307.703C373.739 308.978 373.761 310.24 373.827 311.456C373.954 313.88 374.258 316.121 374.495 317.717C374.722 319.303 374.933 320.291 374.933 320.291C375.442 322.052 375.934 323.832 376.408 325.631C378.231 318.781 379.992 312.002 381.367 307.103C381.988 304.584 382.533 302.536 382.931 301.118C383.14 300.417 383.261 299.831 383.364 299.448C383.465 299.063 383.518 298.856 383.518 298.856Z" fill="black"/>
<path d="M378.529 358.246C377.343 358.699 376.173 359.108 375.024 359.477C373.876 359.847 372.753 360.185 371.616 360.42C369.359 360.922 367.209 361.291 365.171 361.523C361.021 361.854 357.428 361.824 354.37 361.379C351.336 360.985 348.973 360.461 347.311 359.921C345.664 359.414 344.777 359.039 344.777 359.039C344.777 359.039 345.21 358.92 345.98 358.708C346.744 358.482 347.882 358.237 349.212 357.79C350.564 357.372 352.159 356.88 353.901 356.342C355.652 355.797 357.509 355.096 359.474 354.446C361.453 353.822 363.399 352.992 365.385 352.29C367.378 351.599 369.279 350.814 371.088 350.135C374.743 348.836 377.811 347.619 379.806 347.408C381.805 347.205 384.051 346.866 386.418 346.573C387.608 346.419 388.805 346.265 389.974 346.114C391.138 345.924 392.275 345.74 393.347 345.565C395.507 345.205 397.456 344.877 398.849 344.62C400.227 344.334 401.06 344.162 401.06 344.162C401.06 344.162 400.9 344.398 400.605 344.833C400.305 345.263 399.885 345.911 399.299 346.662C398.138 348.174 396.511 350.333 394.5 352.711C393.474 353.874 392.363 355.107 391.193 356.369C390.604 356.995 390.016 357.65 389.386 358.268C388.749 358.876 388.104 359.491 387.455 360.11C386.142 361.327 384.82 362.57 383.444 363.693C382.057 364.799 380.664 365.855 379.295 366.824C377.94 367.815 376.47 368.503 374.995 369.019C373.52 369.537 372.034 369.874 370.577 370.066C367.624 370.382 364.776 370.075 362.344 369.558C359.902 369.027 357.81 368.166 356.369 367.515C354.921 366.85 354.086 366.338 354.086 366.338C352.637 365.276 351.231 364.246 349.809 363.121C356.709 363.501 364.02 362.547 369.428 361.108C370.789 360.768 372.054 360.442 373.167 360.115C374.264 359.762 375.226 359.435 376.021 359.158C377.612 358.603 378.529 358.246 378.529 358.246Z" fill="black"/>
<path d="M411.858 322.163C409.884 323.842 407.782 325.203 405.789 326.438C404.781 327.045 403.817 327.637 402.817 328.136C401.818 328.636 400.838 329.097 399.881 329.521C396.096 331.262 392.483 332.198 389.527 332.835C386.538 333.438 384.049 333.579 382.371 333.651C381.526 333.68 380.87 333.676 380.424 333.667C379.981 333.66 379.738 333.635 379.738 333.635C379.738 333.635 380.12 333.383 380.792 332.923C381.471 332.465 382.447 331.806 383.636 331.003C384.237 330.601 384.891 330.162 385.589 329.695C386.27 329.201 386.994 328.677 387.749 328.129C389.257 327.023 390.966 325.88 392.613 324.566C393.457 323.924 394.312 323.273 395.168 322.622C396.036 321.976 396.904 321.323 397.729 320.638C399.396 319.286 401.091 317.998 402.65 316.775C405.71 314.282 408.503 312.277 410.272 311.37C412.066 310.487 414.258 309.54 416.411 308.476C418.601 307.385 420.816 306.282 422.797 305.296C424.772 304.257 426.505 303.285 427.772 302.59C429.04 301.886 429.806 301.461 429.806 301.461C429.806 301.461 429.411 302.558 428.744 304.409C428.394 305.331 427.974 306.441 427.498 307.696C426.982 308.929 426.375 310.288 425.717 311.749C425.382 312.477 425.036 313.23 424.682 314.003C424.329 314.779 423.947 315.562 423.526 316.337C422.702 317.9 421.827 319.511 420.915 321.122C420.468 321.935 419.987 322.727 419.481 323.499C418.982 324.277 418.477 325.05 417.966 325.811C416.937 327.325 415.932 328.832 414.821 330.152C412.642 332.833 410.047 334.791 407.276 336.005C405.908 336.63 404.532 337.108 403.194 337.465C401.855 337.822 400.501 338.003 399.259 338.13C396.759 338.37 394.586 338.266 393.04 338.101C391.473 337.912 390.529 337.672 390.529 337.672C388.861 337.106 387.21 336.52 385.578 335.915C392.391 334.212 398.982 330.806 403.901 327.821C406.302 326.276 408.314 324.873 409.721 323.861C411.09 322.813 411.858 322.163 411.858 322.163Z" fill="black"/>
<path d="M400.292 266.042C400.275 267.142 400.326 268.256 400.321 269.328C400.318 270.4 400.337 271.466 400.376 272.521C400.414 273.577 400.472 274.622 400.544 275.656C400.586 276.674 400.632 277.673 400.699 278.66C400.812 280.623 401.046 282.564 401.183 284.34C401.334 286.124 401.519 287.817 401.716 289.386C401.919 290.968 402.101 292.391 402.261 293.637C402.429 294.896 402.596 295.996 402.745 296.903C403.042 298.717 403.27 299.749 403.27 299.749C403.27 299.749 403.869 297.928 404.802 295.089C405.282 293.691 405.722 291.971 406.211 290.121C406.449 289.197 406.697 288.235 406.951 287.246C407.202 286.261 407.386 285.212 407.603 284.174C408.489 280.029 409.068 275.593 409.319 271.776C409.406 269.848 409.432 268.081 409.377 266.564C409.327 265.049 409.096 263.746 408.843 262.809C408.576 261.866 408.268 260.86 407.934 259.829C407.763 259.316 407.59 258.794 407.414 258.266C407.226 257.738 407.014 257.202 406.81 256.671C405.981 254.543 405.098 252.451 404.287 250.628C402.523 246.938 401.081 244.324 401.081 244.324C401.081 244.324 400.757 245.109 400.254 246.436C400.011 247.099 399.717 247.898 399.386 248.801C399.053 249.701 398.627 250.687 398.223 251.757C396.662 256.066 394.409 261.357 392.958 266.159C392.56 267.346 392.357 268.579 392.299 269.841C392.265 270.469 392.289 271.116 392.305 271.747C392.318 272.377 392.363 273.011 392.433 273.646C392.706 276.18 393.447 278.778 394.125 281.046C394.841 283.333 395.661 285.379 396.3 286.855C396.632 287.594 396.896 288.182 397.077 288.587C397.27 288.991 397.374 289.211 397.374 289.211C398.292 290.748 399.198 292.31 400.091 293.896C400.155 287.083 400.221 279.999 400.271 274.598C400.245 271.995 400.296 269.883 400.304 268.394C400.282 266.892 400.292 266.042 400.292 266.042Z" fill="black"/>
<path d="M433.34 279.837C432.572 280.935 431.804 281.99 431.019 282.991C430.2 283.976 429.379 284.914 428.562 285.807C427.745 286.7 426.93 287.547 426.124 288.349C425.322 289.154 424.457 289.875 423.644 290.576C421.992 291.962 420.428 293.197 418.882 294.238C417.316 295.267 415.838 296.144 414.478 296.888C413.125 297.636 411.877 298.243 410.726 298.708C409.591 299.183 408.605 299.549 407.795 299.828C406.175 300.385 405.252 300.598 405.252 300.598C405.252 300.598 406.474 299.156 408.379 296.909C408.621 296.627 408.873 296.333 409.135 296.027C409.385 295.712 409.644 295.384 409.911 295.047C410.45 294.37 411.023 293.65 411.62 292.899C412.226 292.145 412.858 291.359 413.507 290.552C414.13 289.72 414.769 288.865 415.417 288C420.683 281.114 426.165 272.781 429.129 269.931C432.249 267.187 436.295 263.449 439.654 260.239C442.889 257.012 445.437 254.389 445.437 254.389C445.437 254.389 445.329 255.566 445.146 257.552C444.944 259.539 444.673 262.352 444.078 265.554C443.099 272.018 440.922 280.076 438.19 286.64C437.465 288.26 436.586 289.736 435.609 291.065C435.12 291.729 434.606 292.357 434.075 292.949C433.531 293.534 432.947 294.071 432.365 294.58C431.194 295.595 429.981 296.469 428.774 297.216C428.171 297.59 427.569 297.931 426.975 298.243C426.366 298.546 425.759 298.816 425.17 299.062C422.811 300.043 420.684 300.594 419.15 300.899C418.382 301.052 417.762 301.143 417.334 301.198C416.903 301.25 416.657 301.262 416.657 301.262C414.907 301.215 413.169 301.144 411.444 301.049C414.543 299.221 417.362 296.927 420.09 294.651C421.406 293.485 422.639 292.286 423.822 291.124C425 289.959 426.125 288.826 427.075 287.709C429.004 285.491 430.652 283.555 431.699 282.124C432.752 280.693 433.34 279.837 433.34 279.837Z" fill="black"/>
<path d="M408.148 229.462C408.413 230.524 408.73 231.577 409.013 232.609C409.279 233.638 409.564 234.654 409.866 235.655C410.167 236.656 410.485 237.641 410.813 238.61C411.127 239.581 411.432 240.527 411.729 241.445C412.338 243.295 413.012 245.077 413.635 246.748C414.223 248.411 414.821 249.978 415.399 251.422C416.598 254.321 417.529 256.672 418.278 258.324C419.012 259.974 419.486 260.895 419.486 260.895C419.486 260.895 419.614 258.965 419.813 255.956C419.915 254.463 419.883 252.67 419.908 250.75C419.907 249.791 419.906 248.791 419.905 247.765C419.852 246.737 419.798 245.682 419.744 244.613C419.625 242.484 419.503 240.323 419.198 238.206C419.065 237.151 418.925 236.114 418.778 235.107C418.702 234.605 418.627 234.109 418.553 233.621C418.468 233.133 418.359 232.652 418.262 232.183C417.86 230.305 417.439 228.6 417.004 227.161C416.576 225.722 416.022 224.54 415.542 223.718C415.046 222.894 414.497 222.023 413.914 221.134C413.329 220.245 412.733 219.34 412.046 218.444C410.709 216.652 409.328 214.909 408.085 213.403C406.825 211.895 405.615 210.624 404.788 209.729C403.946 208.845 403.437 208.311 403.437 208.311C403.437 208.311 403.325 209.168 403.178 210.603C403.11 211.318 403.028 212.179 402.935 213.152C402.808 214.124 402.677 215.206 402.555 216.362C402.138 221.003 401.314 226.783 401.14 231.841C401.055 233.102 401.168 234.346 401.429 235.574C401.559 236.188 401.727 236.797 401.925 237.401C402.106 238.002 402.299 238.594 402.528 239.181C402.981 240.355 403.535 241.502 404.142 242.607C404.757 243.713 405.411 244.773 406.023 245.755C408.537 249.695 411.207 252.591 411.207 252.591C412.471 253.783 413.73 255.004 414.981 256.252C414.769 255.4 414.556 254.545 414.343 253.689C414.119 252.839 413.894 251.989 413.67 251.142C413.234 249.461 412.834 247.821 412.47 246.247C412.052 244.661 411.651 243.136 411.299 241.703C410.942 240.269 410.646 238.928 410.286 237.68C409.604 235.19 409.139 233.151 408.753 231.717C408.353 230.281 408.148 229.462 408.148 229.462Z" fill="black"/>
<path d="M443.366 232.507C442.907 233.799 442.429 235.048 441.937 236.252C441.406 237.452 440.846 238.606 440.286 239.716C439.154 241.934 438.042 243.981 436.77 245.817C435.536 247.66 434.309 249.322 433.124 250.808C431.879 252.28 430.669 253.575 429.546 254.707C428.409 255.836 427.402 256.814 426.415 257.614C425.438 258.418 424.579 259.071 423.867 259.586C422.443 260.616 421.607 261.102 421.607 261.102C421.607 261.102 422.429 259.344 423.709 256.605C424.334 255.222 425.013 253.565 425.806 251.753C426.189 250.844 426.634 249.903 427.018 248.915C427.409 247.924 427.81 246.907 428.216 245.876C431.532 237.637 434.7 227.941 436.822 224.294C437.394 223.386 438.009 222.409 438.648 221.395C438.976 220.882 439.309 220.36 439.647 219.832C439.968 219.299 440.292 218.761 440.617 218.222C441.947 216.008 443.292 213.768 444.495 211.765C446.804 207.681 448.581 204.391 448.581 204.391C448.581 204.391 448.774 205.551 449.1 207.51C449.248 208.496 449.425 209.682 449.626 211.024C449.793 212.37 449.926 213.879 450.074 215.503C450.759 221.989 450.708 230.393 449.75 237.543C449.46 239.324 448.986 241.013 448.379 242.592C447.769 244.17 447.055 245.642 446.158 246.975C444.397 249.647 442.396 251.839 440.379 253.509C436.322 256.849 432.741 258.245 432.741 258.245C431.08 258.748 429.362 259.205 427.684 259.643C428.298 258.961 428.925 258.267 429.51 257.551C430.081 256.83 430.645 256.097 431.198 255.354C432.3 253.868 433.389 252.353 434.38 250.831C435.332 249.3 436.235 247.773 437.078 246.29C437.495 245.542 437.902 244.812 438.296 244.104C438.666 243.387 439.004 242.683 439.334 242.002C439.99 240.64 440.581 239.365 441.097 238.22C441.619 237.075 442.057 236.059 442.367 235.209C443.017 233.511 443.366 232.507 443.366 232.507Z" fill="black"/>
<path d="M406.524 191.841C407.54 193.725 408.691 195.52 409.72 197.27C410.77 199.015 411.941 200.673 412.957 202.272C414.002 203.866 415.091 205.374 416.107 206.792C417.092 208.212 418.063 209.536 418.984 210.747C419.918 211.966 420.759 213.062 421.494 214.021C422.241 214.986 422.912 215.819 423.474 216.498C424.599 217.857 425.288 218.596 425.288 218.596C425.288 218.596 424.919 216.702 424.345 213.751C424.08 212.285 423.615 210.571 423.144 208.718C422.901 207.796 422.647 206.836 422.387 205.849C422.081 204.877 421.768 203.879 421.45 202.867C421.123 201.868 420.793 200.857 420.461 199.844C420.09 198.843 419.703 197.85 419.32 196.875C418.935 195.9 418.548 194.945 418.162 194.02C417.75 193.101 417.319 192.216 416.905 191.372C415.292 187.985 413.518 185.353 412.202 184.064C409.478 181.491 405.654 178.544 402.425 176.466C401.627 175.939 400.881 175.456 400.201 175.031C399.501 174.623 398.876 174.259 398.355 173.955C397.315 173.372 396.687 173.02 396.687 173.02C396.687 173.02 397.195 176.369 397.895 180.98C398.538 185.579 399.357 191.33 400.368 196.267C400.657 197.495 401.02 198.669 401.583 199.769C402.121 200.873 402.847 201.908 403.55 202.905C404.277 203.898 405.094 204.834 405.952 205.712C406.817 206.589 407.709 207.41 408.547 208.168C410.252 209.681 411.931 210.929 413.181 211.801C414.443 212.672 415.228 213.16 415.228 213.16C416.745 213.918 418.263 214.705 419.782 215.52C416.546 209.72 413.181 203.689 410.616 199.091C410.008 198.003 409.448 197 408.949 196.108C408.476 195.219 407.991 194.461 407.639 193.828C406.915 192.567 406.524 191.841 406.524 191.841Z" fill="black"/>
<path d="M441.139 184.013C440.66 189.546 439.522 194.534 438.118 198.818C437.389 200.964 436.623 202.935 435.852 204.724C435.026 206.517 434.193 208.13 433.399 209.561C431.851 212.422 430.242 214.562 429.158 215.989C428.053 217.415 427.375 218.14 427.375 218.14C427.375 218.14 427.716 216.2 428.249 213.175C428.549 211.653 428.746 209.855 429.061 207.872C429.2 206.881 429.386 205.842 429.51 204.776C429.64 203.704 429.772 202.604 429.907 201.489C430.039 200.37 430.205 199.227 430.326 198.084C430.442 196.936 430.557 195.788 430.671 194.652C430.795 193.505 430.918 192.371 431.037 191.264C431.14 190.151 431.239 189.064 431.336 188.019C431.443 186.968 431.556 185.952 431.677 184.986C431.793 184.021 431.873 183.117 431.989 182.271C432.21 180.583 432.476 179.154 432.801 178.111C433.435 176.001 434.166 173.572 434.905 171.113C435.297 169.857 435.655 168.594 435.988 167.354C436.331 166.099 436.665 164.874 436.981 163.717C437.637 161.373 438.119 159.296 438.476 157.79C438.833 156.275 439.049 155.359 439.049 155.359C439.049 155.359 439.536 156.414 440.359 158.194C441.205 159.971 442.18 162.566 443.324 165.59C445.484 171.67 447.769 179.713 448.493 186.911C448.733 188.698 448.644 190.474 448.458 192.174C448.249 193.878 447.934 195.511 447.425 197.06C446.397 200.16 445.013 202.877 443.496 205.095C441.97 207.315 440.434 209.034 439.281 210.197C438.129 211.359 437.35 211.974 437.35 211.974C435.846 212.967 434.34 213.932 432.834 214.868C433.255 214.025 433.665 213.167 434.064 212.299C434.462 211.431 434.795 210.555 435.146 209.673C435.829 207.909 436.49 206.124 437.062 204.36C438.118 200.839 439.067 197.384 439.615 194.369C439.914 192.859 440.171 191.453 440.387 190.194C440.58 188.939 440.708 187.836 440.822 186.918C441.043 185.087 441.139 184.013 441.139 184.013Z" fill="black"/>
<path d="M395.505 156.268C401.415 162.169 407.502 167.023 412.262 170.56C414.574 172.341 416.591 173.747 418.03 174.7C419.439 175.664 420.26 176.171 420.26 176.171C420.26 176.171 420.065 175.738 419.719 174.967C419.378 174.197 418.804 173.118 418.141 171.806C417.464 170.498 416.702 168.953 415.731 167.339C414.769 165.722 413.806 163.954 412.631 162.244C411.477 160.525 410.349 158.761 409.072 157.148C407.819 155.524 406.628 153.951 405.363 152.61C404.116 151.259 402.988 150.036 401.878 149.102C400.776 148.164 399.797 147.455 398.991 147.044C397.405 146.205 395.423 145.41 393.471 144.656C391.535 143.888 389.485 143.259 387.683 142.735C386.786 142.484 385.942 142.248 385.181 142.035C384.414 141.839 383.712 141.688 383.139 141.559C381.99 141.315 381.296 141.168 381.296 141.168C381.296 141.168 382.634 144.239 384.476 148.466C386.269 152.694 388.467 158.005 390.727 162.411C391.779 164.653 393.568 166.339 395.437 167.808C396.393 168.531 397.422 169.173 398.475 169.746C399.514 170.325 400.537 170.853 401.559 171.31C403.58 172.232 405.559 172.892 406.932 173.36C408.325 173.821 409.224 174.04 409.224 174.04C410.882 174.298 412.549 174.583 414.224 174.895C409.654 170.328 404.902 165.578 401.28 161.958C397.857 158.585 395.505 156.268 395.505 156.268Z" fill="black"/>
<path d="M426.767 138.073C426.995 139.44 427.187 140.782 427.345 142.094C427.512 143.402 427.568 144.723 427.638 145.987C427.698 147.257 427.73 148.493 427.736 149.694C427.745 150.893 427.667 152.086 427.602 153.223C427.363 157.767 426.584 161.766 425.808 164.993C424.97 168.245 424.035 170.771 423.359 172.472C423.025 173.322 422.712 173.98 422.498 174.422C422.278 174.862 422.163 175.092 422.163 175.092C422.163 175.092 422.132 174.599 422.078 173.722C421.998 172.848 421.882 171.591 421.742 170.059C421.674 169.286 421.601 168.444 421.523 167.547C421.44 166.648 421.309 165.707 421.199 164.71C420.963 162.722 420.749 160.533 420.404 158.316C420.091 156.085 419.798 153.761 419.411 151.514C419.238 150.375 419.067 149.25 418.9 148.15C418.747 147.039 418.533 145.983 418.375 144.939C417.752 140.755 417.175 137.187 417.275 134.982C417.433 130.621 417.687 124.733 417.681 119.884C417.687 118.671 417.704 117.508 417.693 116.472C417.673 115.435 417.654 114.511 417.639 113.739C417.603 112.178 417.582 111.234 417.582 111.234C417.582 111.234 418.314 112.095 419.549 113.547C419.853 113.916 420.188 114.323 420.551 114.763C420.897 115.218 421.27 115.708 421.665 116.227C422.452 117.271 423.324 118.446 424.246 119.723C427.854 124.881 432.019 131.913 434.579 138.575C437.116 145.278 436.161 152.427 434.351 157.603C433.457 160.206 432.445 162.32 431.616 163.799C430.774 165.282 430.174 166.115 430.174 166.115C428.99 167.528 427.797 168.915 426.596 170.273C428.172 162.748 428.278 154.672 427.933 148.481C427.721 145.408 427.498 142.761 427.208 140.955C426.949 139.132 426.767 138.073 426.767 138.073Z" fill="black"/>
<path d="M375.948 125.372C383.114 129.276 390.186 132.092 395.646 134.038C398.315 135.042 400.619 135.765 402.234 136.244C403.817 136.747 404.743 136.974 404.743 136.974C404.743 136.974 404.446 136.619 403.917 135.986C403.403 135.345 402.586 134.482 401.612 133.429C399.686 131.307 396.942 128.57 393.918 125.924C390.888 123.278 387.562 120.74 384.522 118.867C382.986 117.944 381.595 117.109 380.295 116.545C379.002 115.974 377.884 115.586 377.005 115.434C375.269 115.104 373.164 114.935 371.097 114.793C369.042 114.634 366.91 114.643 365.045 114.676C364.118 114.702 363.247 114.727 362.46 114.749C361.67 114.792 360.959 114.854 360.373 114.901C359.206 115.009 358.5 115.074 358.5 115.074C358.5 115.074 360.551 117.637 363.374 121.164C366.155 124.705 369.602 129.17 372.884 132.741C374.466 134.581 376.604 135.675 378.777 136.52C379.88 136.926 381.033 137.231 382.19 137.463C383.325 137.713 384.452 137.902 385.549 138.031C387.733 138.296 389.789 138.336 391.227 138.365C392.684 138.38 393.603 138.314 393.603 138.314C395.263 138.053 396.938 137.814 398.628 137.599C392.793 134.488 387.105 131.389 382.929 129.106C378.792 126.893 375.948 125.372 375.948 125.372Z" fill="black"/>
<path d="M401.498 98.4015C406.005 108.337 407.207 117.849 407.27 124.535C407.266 127.925 407.02 130.624 406.796 132.468C406.546 134.329 406.299 135.358 406.299 135.358C406.299 135.358 406.144 134.895 405.869 134.07C405.597 133.242 405.147 132.09 404.633 130.651C404.111 129.217 403.516 127.5 402.77 125.679C402.038 123.848 401.293 121.804 400.407 119.781C399.546 117.737 398.689 115.59 397.757 113.55C396.854 111.484 395.988 109.423 395.129 107.548C393.493 103.718 392.06 100.463 391.612 98.3135C390.689 94.0745 389.489 88.3405 388.299 83.6795C388.008 82.5115 387.742 81.3875 387.476 80.3975C387.204 79.4065 386.96 78.5235 386.758 77.7855C386.343 76.2945 386.093 75.3945 386.093 75.3945C386.093 75.3945 387.006 76.0015 388.547 77.0275C388.93 77.2905 389.352 77.5805 389.808 77.8935C390.252 78.2265 390.729 78.5845 391.236 78.9655C392.247 79.7315 393.372 80.5985 394.57 81.5475C399.299 85.4115 405.024 90.8995 409.126 96.5065C410.149 97.9065 410.955 99.4325 411.617 100.976C411.946 101.749 412.234 102.532 412.485 103.317C412.719 104.117 412.914 104.922 413.077 105.722C413.403 107.322 413.595 108.905 413.687 110.426C413.783 111.944 413.719 113.452 413.625 114.827C413.414 117.598 412.984 119.927 412.542 121.613C412.106 123.293 411.74 124.276 411.74 124.276C410.958 125.995 410.162 127.691 409.351 129.363C408.975 121.655 407.055 113.879 405.194 108.038C404.227 105.154 403.358 102.682 402.634 101.035C401.935 99.3615 401.498 98.4015 401.498 98.4015Z" fill="black"/>
<path d="M303.711 372.839L303.385 370.463C309.983 369.358 316.528 367.808 322.838 365.857C329.196 363.78 335.483 361.246 341.508 358.328C347.343 355.438 353.249 351.965 359.053 348.011L363.244 345.022C364.111 344.37 364.986 343.68 365.862 342.989C366.341 342.61 366.82 342.233 367.302 341.858C368.387 341.041 369.439 340.132 370.455 339.253L371.939 337.976C373.001 337.065 374.097 336.124 375.107 335.135C379.943 330.732 384.622 325.749 389.441 319.872C391.321 317.642 393.095 315.239 394.81 312.916L395.881 311.467L399.604 305.967L401.691 302.578C409.054 290.603 414.872 277.341 418.981 263.162C426.99 235.486 427.513 204.7 420.455 176.474C416.854 162.098 411.499 148.603 404.541 136.363C397.457 123.841 388.879 112.551 379.044 102.805L380.496 101.016C390.483 110.912 399.192 122.376 406.383 135.087C413.453 147.522 418.892 161.232 422.55 175.833C429.72 204.505 429.188 235.779 421.051 263.895C416.878 278.294 410.969 291.763 403.488 303.929L401.372 307.364L397.592 312.949L396.494 314.435C394.757 316.789 392.961 319.223 391.042 321.499C386.161 327.451 381.407 332.513 376.519 336.963C375.486 337.976 374.361 338.941 373.272 339.875L371.794 341.147C370.749 342.05 369.669 342.983 368.54 343.834C368.075 344.196 367.599 344.571 367.124 344.945C366.235 345.647 365.347 346.347 364.444 347.026L360.212 350.044C354.309 354.066 348.318 357.588 342.388 360.525C336.271 363.486 329.898 366.056 323.438 368.166C317.029 370.149 310.397 371.72 303.711 372.839Z" fill="black"/>
<path d="M351.775 78.9783C357.078 82.1843 362.207 85.7293 367.13 89.5953C372.044 93.4763 376.705 97.7353 381.145 102.248C381.011 101.473 380.848 100.525 380.607 99.4923C380.362 98.4643 380.063 97.3203 379.708 96.0953C379.347 94.8783 378.95 93.5513 378.454 92.2363C377.954 90.9273 377.391 89.5783 376.769 88.2313C376.457 87.5583 376.133 86.8823 375.789 86.2193C375.434 85.5723 375.064 84.9313 374.681 84.3013C373.914 83.0413 373.09 81.8273 372.218 80.7023C371.323 79.6153 370.374 78.6253 369.392 77.7663C368.409 76.9083 367.397 76.1733 366.323 75.6853C364.823 74.9933 363.018 74.1373 360.931 73.3453C359.887 72.9623 358.786 72.5593 357.642 72.1393C357.07 71.9373 356.493 71.7213 355.898 71.5263C355.299 71.3433 354.69 71.1563 354.074 70.9683C352.848 70.6033 351.592 70.2303 350.32 69.8513C349.036 69.5163 347.732 69.2063 346.435 68.8913C343.858 68.2193 341.201 67.8033 338.708 67.3203C336.181 66.9323 333.769 66.5943 331.565 66.3533C329.345 66.1653 327.363 65.9683 325.683 65.8793C322.337 65.7663 320.233 65.6953 320.233 65.6953C320.233 65.6953 322.078 67.0543 324.992 69.1193C326.417 70.1953 328.113 71.4753 329.992 72.8943C330.905 73.6253 331.863 74.3913 332.856 75.1853C333.842 75.9753 334.868 76.7523 335.879 77.6343C339.996 80.9773 344.241 84.8303 348.217 88.2473C350.162 90.0473 352.114 91.6083 353.877 93.1373C354.771 93.8803 355.645 94.5623 356.495 95.1753C357.324 95.8253 358.128 96.4063 358.906 96.9033C362.658 99.2643 366.847 100.865 370.713 101.913C372.65 102.425 374.437 102.878 376.054 103.133C377.673 103.386 379.031 103.559 380.038 103.587C375.833 98.9023 371.385 94.4423 366.656 90.3353C361.919 86.2453 356.949 82.4513 351.775 78.9783Z" fill="black"/>
</g>
<path d="M206.871 409.523C206.871 409.523 214.494 410.248 218.484 407.987C222.474 405.726 231.717 402.934 231.717 402.934C231.717 402.934 259.386 410.152 263.236 409.43V362.512H211.266L206.871 409.523Z" fill="#263238" stroke="#263238" stroke-miterlimit="10" stroke-linecap="round" stroke-linejoin="round"/>
<path d="M219.687 377.429C219.687 377.429 222.574 401.489 222.574 408.707C222.574 415.925 221.852 417.609 219.687 422.902C217.522 428.195 213.191 432.526 211.988 438.782C210.785 445.038 213.913 447.444 217.522 447.444C221.131 447.444 227.387 448.647 231.477 440.226C235.567 431.805 236.53 427.715 237.733 425.068C238.936 422.421 240.139 416.888 239.417 412.797C238.695 408.707 237.252 403.413 237.252 403.413L240.861 369.248L218.966 373.819L219.687 377.429Z" fill="white" stroke="#263238" stroke-miterlimit="10" stroke-linecap="round" stroke-linejoin="round"/>
<path d="M231.717 409.189C234.281 408.924 236.419 407.909 238.102 406.735C237.633 404.819 237.25 403.415 237.25 403.415L240.859 369.25L218.964 373.821L219.686 377.43C219.686 377.43 221.965 396.431 222.472 405.725C224.482 407.546 227.697 409.605 231.717 409.189Z" fill="#263238" stroke="#263238" stroke-miterlimit="10" stroke-linecap="round" stroke-linejoin="round"/>
<path d="M235.567 425.069C232.439 432.046 229.552 434.453 223.777 434.212C219.377 434.029 217.077 430.778 216.229 429.238C214.451 432.147 212.688 435.138 211.987 438.784C210.784 445.04 213.912 447.446 217.521 447.446C221.13 447.446 227.386 448.649 231.476 440.228C235.566 431.807 236.529 427.717 237.732 425.07C238.543 423.286 239.351 420.191 239.573 417.109C238.479 419.047 237.052 421.755 235.567 425.069Z" fill="#8B3A3A" stroke="#263238" stroke-miterlimit="10" stroke-linecap="round" stroke-linejoin="round"/>
<path d="M237.011 370.213C237.011 370.213 238.455 410.634 237.011 417.852C235.567 425.07 228.59 442.153 228.109 447.687C227.628 453.221 240.139 453.462 246.635 445.762C253.131 438.063 253.613 422.664 253.372 418.093C253.131 413.521 252.891 404.86 252.891 404.138C252.891 403.416 256.981 372.379 256.981 372.379L237.011 370.213Z" fill="white" stroke="#263238" stroke-miterlimit="10" stroke-linecap="round" stroke-linejoin="round"/>
<path d="M256.981 372.38L237.011 370.215C237.011 370.215 237.843 393.513 237.612 407.892C241.733 409.017 248.087 410.224 253.014 408.789C252.939 406.371 252.891 404.462 252.891 404.14C252.89 403.417 256.981 372.38 256.981 372.38Z" fill="#263238" stroke="#263238" stroke-miterlimit="10" stroke-linecap="round" stroke-linejoin="round"/>
<path d="M246.635 445.762C250.872 440.741 252.549 432.446 253.137 426.014C252.331 428.432 250.712 433.289 250.003 435.416C249.041 438.303 245.672 439.506 240.138 439.987C235.46 440.394 232.168 437.199 231.258 436.198C229.657 441.006 228.31 445.364 228.108 447.686C227.627 453.221 240.138 453.462 246.635 445.762Z" fill="#8B3A3A" stroke="#263238" stroke-miterlimit="10" stroke-linecap="round" stroke-linejoin="round"/>
<path d="M314.425 308.869C314.425 308.869 314.831 311.913 308.54 315.566C302.249 319.219 304.075 319.828 304.075 319.828V333.221C304.075 333.221 300.828 335.25 294.334 330.38C287.84 325.51 288.246 320.436 287.231 318.001C286.216 315.566 283.781 312.522 283.375 311.507C282.969 310.492 282.766 305.419 282.766 305.419V286.343C282.766 286.343 288.651 268.688 290.68 261.991C292.709 255.294 296.971 232.16 296.971 232.16L302.653 233.986L304.885 287.966C304.885 287.966 309.552 296.286 311.379 299.33C313.207 302.375 314.425 308.869 314.425 308.869Z" fill="#263238" stroke="#263238" stroke-miterlimit="10" stroke-linecap="round" stroke-linejoin="round"/>
<path d="M303.264 291.822C303.264 291.822 302.249 294.46 305.09 296.489C307.931 298.518 314.425 308.868 314.425 308.868V271.326C314.425 271.326 303.872 286.343 303.264 291.822Z" fill="#8B3A3A" stroke="#263238" stroke-miterlimit="10" stroke-linecap="round" stroke-linejoin="round"/>
<path d="M318.889 265.847C318.889 265.847 318.889 270.109 316.251 273.761C313.613 277.413 303.263 291.822 303.263 291.822L300.625 236.625C300.625 236.625 317.063 251.236 318.889 265.847Z" fill="#263238" stroke="#263238" stroke-miterlimit="10" stroke-linecap="round" stroke-linejoin="round"/>
<path d="M304.075 319.827V300.346" stroke="#878787" stroke-miterlimit="10" stroke-linecap="round" stroke-linejoin="round"/>
<path d="M303.31 289.962V245.41" stroke="#878787" stroke-miterlimit="10" stroke-linecap="round" stroke-linejoin="round"/>
<path d="M213.568 100.863C213.568 100.863 191.854 108.168 180.896 123.185C169.938 138.202 171.155 154.031 171.155 154.031C171.155 154.031 163.444 164.381 164.864 176.353C166.285 188.326 171.561 223.839 175.214 232.768C178.867 241.697 180.896 253.67 180.896 253.67C180.896 253.67 179.475 265.643 182.114 274.978C184.752 284.313 186.173 295.068 186.173 295.068C186.173 295.068 183.941 311.505 187.188 316.173C190.435 320.84 189.42 323.681 191.044 325.914C192.668 328.146 195.306 330.379 195.306 330.379C195.306 330.379 200.988 371.574 202.814 382.735C204.64 393.896 206.873 409.522 206.873 409.522C206.873 409.522 214.584 410.334 216.817 402.825C219.049 395.317 218.643 381.923 218.643 381.923C218.643 381.923 227.978 379.488 231.631 378.473C235.284 377.458 236.501 376.647 236.501 376.647C236.501 376.647 234.472 381.517 236.298 384.561C238.124 387.605 238.124 392.881 249.083 400.593C260.041 408.304 272.217 417.639 274.246 416.016C276.275 414.392 279.725 409.522 281.957 397.955C284.189 386.388 285.61 351.281 285.61 340.931C285.61 330.581 284.392 314.55 284.392 314.55L285.204 288.981C285.204 288.981 298.394 264.832 298.394 257.73C298.394 250.628 297.582 237.234 297.582 237.234C297.582 237.234 307.323 245.554 311.381 251.439C315.44 257.324 318.889 265.847 318.889 265.847C318.889 265.847 315.642 230.943 315.439 221.811C315.236 212.679 309.757 141.856 305.901 134.754C302.045 127.651 296.363 118.317 296.16 117.708C295.957 117.099 295.754 111.62 289.869 109.388C283.984 107.156 280.534 107.156 269.17 110.809C257.806 114.462 238.527 124.202 238.527 124.202L213.568 100.863Z" fill="#8B3A3A" stroke="#263238" stroke-miterlimit="10" stroke-linecap="round" stroke-linejoin="round"/>
<path d="M255.778 380.076C255.778 380.076 242.304 386.572 239.417 386.091L237.454 387.333C237.454 387.333 235.921 386.055 235.921 382.478C235.921 378.901 236.5 376.647 236.5 376.647L241.287 373.279C241.287 373.279 251.687 381.038 255.778 380.076Z" fill="#263238" stroke="#263238" stroke-miterlimit="10" stroke-linecap="round" stroke-linejoin="round"/>
<path d="M235.71 263.181L234.364 243.174" stroke="#263238" stroke-miterlimit="10" stroke-linecap="round" stroke-linejoin="round"/>
<path d="M237.973 375.503L243.026 371.894L236.019 267.775" stroke="#263238" stroke-miterlimit="10" stroke-linecap="round" stroke-linejoin="round"/>
<path d="M218.641 381.923C218.641 381.923 213.912 382.963 213.912 381.52C213.912 380.076 222.574 234.512 222.574 234.512" stroke="#263238" stroke-miterlimit="10" stroke-linecap="round" stroke-linejoin="round"/>
<path d="M252.125 264.914L251.206 251.354" stroke="#263238" stroke-miterlimit="10" stroke-linecap="round" stroke-linejoin="round"/>
<path d="M242.304 374.302C242.304 374.302 245.913 376.949 251.928 378.874C257.943 380.799 259.868 379.115 259.868 379.115L252.389 268.799" stroke="#263238" stroke-miterlimit="10" stroke-linecap="round" stroke-linejoin="round"/>
<path d="M252.558 221.549C252.789 223.829 252.985 225.936 253.131 227.776" stroke="#263238" stroke-miterlimit="10" stroke-linecap="round" stroke-linejoin="round"/>
<path d="M247.356 179.414C247.356 179.414 250.312 200.883 252.095 217.175" stroke="#263238" stroke-miterlimit="10" stroke-linecap="round" stroke-linejoin="round"/>
<path d="M231.739 344.621L232.68 354.332" stroke="#263238" stroke-miterlimit="10" stroke-linecap="round" stroke-linejoin="round"/>
<path d="M221.371 176.045L226.665 292.256L230.851 335.458" stroke="#263238" stroke-miterlimit="10" stroke-linecap="round" stroke-linejoin="round"/>
<path d="M210.449 250.387C210.261 254.885 210.125 258.679 210.063 261.459" stroke="#263238" stroke-miterlimit="10" stroke-linecap="round" stroke-linejoin="round"/>
<path d="M215.356 158.48C215.356 158.48 212.214 211.735 210.754 243.479" stroke="#263238" stroke-miterlimit="10" stroke-linecap="round" stroke-linejoin="round"/>
<path d="M210.785 267.232C210.785 267.232 211.026 325.458 212.229 339.413" stroke="#263238" stroke-miterlimit="10" stroke-linecap="round" stroke-linejoin="round"/>
<path d="M195.146 327.624C195.146 327.624 192.499 296.827 193.702 255.924C194.905 215.022 204.77 166.42 204.77 166.42" stroke="#263238" stroke-miterlimit="10" stroke-linecap="round" stroke-linejoin="round"/>
<path d="M184.354 241.66C184.354 241.66 181.672 274.452 185.762 283.835C189.852 293.219 193.942 301.64 193.942 301.64" stroke="#263238" stroke-miterlimit="10" stroke-linecap="round" stroke-linejoin="round"/>
<path d="M251.797 1C251.797 1 236.039 10.155 222.533 16.157C209.026 22.16 200.322 26.062 200.322 26.062L223.433 49.023L258.55 53.375L286.764 39.718C286.764 39.718 259.751 11.656 251.797 1Z" fill="#8B3A3A" stroke="#263238" stroke-miterlimit="10" stroke-linecap="round" stroke-linejoin="round"/>
<path d="M270.856 22.4621L271.006 33.5671C271.006 33.5671 269.205 34.6181 269.355 35.9681C269.505 37.3191 269.505 37.3191 269.505 37.3191C269.505 37.3191 267.254 40.9211 267.704 44.0721C268.154 47.2231 267.104 65.9831 266.954 69.8851C266.804 73.7871 266.054 75.1381 267.104 74.9881C268.154 74.8381 268.755 73.0371 268.755 73.0371C268.755 73.0371 268.305 76.7891 269.505 76.4891C270.706 76.1891 271.456 73.9381 271.456 73.9381C271.456 73.9381 272.657 76.7891 272.957 75.5891C273.257 74.3881 272.657 71.3871 272.657 71.3871C272.657 71.3871 274.158 73.9381 274.158 72.4371C274.158 70.9361 273.858 66.4341 273.408 57.7301C272.958 49.0261 273.708 41.8221 272.808 39.4211C271.908 37.0201 271.908 37.0201 271.908 37.0201C271.908 37.0201 272.508 36.2701 272.208 34.4691C271.908 32.6681 271.758 23.5141 271.758 23.5141C271.758 23.5141 271.606 21.4111 270.856 22.4621Z" fill="#263238" stroke="#263238" stroke-miterlimit="10" stroke-linecap="round" stroke-linejoin="round"/>
<path d="M221.975 75.0158V97.1628H258.421V63.6328H220.869L221.975 75.0158Z" fill="#263238" stroke="#263238" stroke-miterlimit="10" stroke-linecap="round" stroke-linejoin="round"/>
<path d="M268.327 99.3984C268.327 99.3984 283.376 104.11 287.232 105.531C291.088 106.952 292.508 110.807 292.508 110.807C292.508 110.807 286.217 106.545 274.853 112.836C263.489 119.127 240.761 129.273 238.934 129.679C237.108 130.085 224.729 122.982 224.729 122.982" fill="#8B3A3A"/>
<path d="M268.327 99.3984C268.327 99.3984 283.376 104.11 287.232 105.531C291.088 106.952 292.508 110.807 292.508 110.807C292.508 110.807 286.217 106.545 274.853 112.836C263.489 119.127 240.761 129.273 238.934 129.679C237.108 130.085 224.729 122.982 224.729 122.982" stroke="#263238" stroke-miterlimit="10" stroke-linecap="round" stroke-linejoin="round"/>
<path d="M211.206 103.668C211.206 103.668 206.573 212.537 205.801 229.137C205.029 245.738 204.643 265.041 204.643 265.041L213.908 276.623L222.015 265.041L226.262 99.0352L211.206 103.668Z" fill="white" stroke="#263238" stroke-miterlimit="10" stroke-linecap="round" stroke-linejoin="round"/>
<path d="M249.812 104.828C249.812 104.828 245.179 213.697 244.407 230.297C243.635 246.898 243.249 266.201 243.249 266.201L252.515 277.783L260.622 266.201L264.869 100.195L249.812 104.828Z" fill="white" stroke="#263238" stroke-miterlimit="10" stroke-linecap="round" stroke-linejoin="round"/>
<path d="M220.181 107.823L237.72 127.081C237.72 127.081 239.44 124.502 248.553 116.592C257.666 108.682 268.327 99.3969 268.327 99.3969L250.1 95.2699L229.122 94.7539L220.181 97.1609L215.538 99.0519L220.181 107.823Z" fill="#B8B8B8" stroke="#263238" stroke-miterlimit="10" stroke-linecap="round" stroke-linejoin="round"/>
<path d="M228.607 86.3311C228.607 86.3311 229.123 88.7381 229.123 91.8331C229.123 94.9281 229.123 96.4761 229.123 96.4761C229.123 96.4761 228.435 96.8201 231.358 99.0551C234.281 101.29 238.58 106.793 238.58 106.793C238.58 106.793 241.331 103.182 242.879 101.119C244.426 99.0561 250.273 96.6481 250.273 96.6481C250.273 96.6481 251.133 88.7381 251.477 84.7831C251.821 80.8281 251.821 80.8281 251.821 80.8281C251.821 80.8281 245.803 85.9871 237.205 86.1581C228.608 86.3301 227.576 84.0951 227.576 84.0951L228.607 86.3311Z" fill="white" stroke="#263238" stroke-miterlimit="10" stroke-linecap="round" stroke-linejoin="round"/>
<path d="M215.367 76.5316C215.367 76.5316 216.571 81.0026 213.819 88.2236C211.068 95.4456 208.661 104.387 212.443 109.03C216.226 113.673 217.429 118.487 214.85 120.551C212.271 122.614 211.927 125.365 214.162 127.945C216.397 130.524 220.18 131.384 220.18 131.384C220.18 131.384 215.881 128.461 219.32 125.194C222.759 121.927 228.605 119.52 229.981 114.361C231.357 109.203 227.574 103.7 227.574 103.7C227.574 103.7 231.185 106.451 231.185 107.483C231.185 108.515 231.873 104.044 230.325 101.121C228.777 98.1976 224.823 94.5866 225.511 91.4916C226.199 88.3966 226.543 83.7536 225.167 79.6276C223.791 75.5006 221.728 65.1836 221.728 65.1836C221.728 65.1836 215.711 71.5446 215.367 76.5316Z" fill="#263238" stroke="#263238" stroke-miterlimit="10" stroke-linecap="round" stroke-linejoin="round"/>
<path d="M220.869 63.4633C220.869 63.4633 221.525 75.7393 222.245 78.4233C224.136 85.4733 232.046 92.3513 234.109 93.7263C236.172 95.1023 239.359 95.0233 241.159 94.5863C244.751 93.7123 254 87.1633 254.915 78.7673C255.837 70.3063 255.947 63.6353 255.947 63.6353C255.947 63.6353 248.553 46.4403 246.318 44.2053C244.083 41.9703 240.472 40.9383 235.829 42.6573C231.186 44.3773 221.385 55.3813 220.869 63.4633Z" fill="white" stroke="#263238" stroke-miterlimit="10" stroke-linecap="round" stroke-linejoin="round"/>
<path d="M246.318 65.6997C246.318 66.7917 245.779 67.6767 245.114 67.6767C244.449 67.6767 243.91 66.7917 243.91 65.6997C243.91 64.6077 244.449 63.7227 245.114 63.7227C245.779 63.7227 246.318 64.6077 246.318 65.6997Z" fill="#263238"/>
<path d="M230.498 67.6767C231.163 67.6767 231.702 66.7915 231.702 65.6997C231.702 64.6078 231.163 63.7227 230.498 63.7227C229.833 63.7227 229.294 64.6078 229.294 65.6997C229.294 66.7915 229.833 67.6767 230.498 67.6767Z" fill="#263238"/>
<path d="M232.734 75.1562C232.734 75.1562 235.006 77.3363 236.897 77.1643C238.788 76.9923 240.643 75.5003 240.643 75.5003" stroke="#263238" stroke-miterlimit="10" stroke-linecap="round" stroke-linejoin="round"/>
<path d="M230.326 79.9688C230.326 79.9688 235.312 81.6878 238.58 81.1728C241.847 80.6568 244.426 79.9688 244.426 79.9688C244.426 79.9688 239.268 84.4398 237.032 84.7828C234.797 85.1268 230.326 79.9688 230.326 79.9688Z" fill="white" stroke="#263238" stroke-miterlimit="10" stroke-linecap="round" stroke-linejoin="round"/>
<path d="M242.254 59.5983C242.254 59.5983 246.97 58.3103 250.737 61.3583" stroke="#263238" stroke-width="2" stroke-miterlimit="10" stroke-linecap="round" stroke-linejoin="round"/>
<path d="M233.217 59.7676C232.876 59.2846 228.563 58.5376 225.522 61.1056" stroke="#263238" stroke-width="2" stroke-miterlimit="10" stroke-linecap="round" stroke-linejoin="round"/>
<path d="M240.815 45.5796C240.815 45.5796 237.578 50.5146 231.702 56.4126C224.369 63.7726 220.866 67.1706 218.806 69.9966C216.165 73.6196 215.539 77.9066 215.539 77.9066C215.539 77.9066 213.304 70.1686 215.711 58.3046C218.118 46.4406 220.869 44.0326 223.964 41.7976C227.059 39.5626 235.312 38.3586 237.892 38.7026C240.471 39.0456 243.395 38.1856 240.815 45.5796Z" fill="#263238" stroke="#263238" stroke-miterlimit="10" stroke-linecap="round" stroke-linejoin="round"/>
<path d="M244.082 41.9666C244.082 41.9666 245.802 50.7356 249.412 56.2386C253.023 61.7406 256.118 66.3836 256.118 70.3386C256.118 74.2936 257.322 80.1396 254.57 86.8456C251.819 93.5516 247.864 95.0995 250.787 102.493C253.71 109.887 255.43 107.995 252.678 112.81C249.927 117.624 252.85 128.457 258.008 130.005C263.166 131.553 266.949 132.412 265.746 134.819C264.542 137.226 262.995 138.086 264.027 139.462C265.059 140.838 267.81 139.634 267.81 139.634C267.81 139.634 265.747 136.883 268.67 134.991C271.593 133.1 274.344 128.629 273.656 124.674C272.968 120.719 267.294 117.796 267.466 115.217C267.638 112.638 272.109 111.262 272.452 107.135C272.795 103.008 269.529 102.836 269.529 99.3966C269.529 95.9576 272.28 99.0526 271.936 91.8306C271.592 84.6086 266.262 79.6226 264.886 71.5406C263.51 63.4586 264.026 56.0656 259.04 49.7036C254.055 43.3426 248.037 39.3876 244.082 41.9666Z" fill="#263238" stroke="#263238" stroke-miterlimit="10" stroke-linecap="round" stroke-linejoin="round"/>
<path d="M239.543 109.184C239.543 109.184 240.148 115.638 238.934 121.36" stroke="#263238" stroke-miterlimit="10" stroke-linecap="round" stroke-linejoin="round"/>
<path d="M219.531 46.3248C219.531 46.3248 222.983 44.6738 229.286 44.6738C235.589 44.6738 240.992 47.9758 240.992 47.9758C240.992 47.9758 245.044 46.0248 249.996 47.0748C254.948 48.1258 261.852 54.5788 261.852 54.5788L261.552 38.3708C261.552 38.3708 260.952 28.4658 251.347 24.7138C241.742 20.9618 227.935 24.8638 225.984 27.8658C224.033 30.8668 219.531 46.3248 219.531 46.3248Z" fill="#8B3A3A" stroke="#263238" stroke-miterlimit="10" stroke-linecap="round" stroke-linejoin="round"/>
<path d="M196.743 98.3797C196.743 98.3797 196.622 103.1 197.106 103.584C197.59 104.068 201.342 105.52 201.342 105.52C201.342 105.52 201.1 102.132 201.826 98.6217C202.552 95.1117 202.915 91.9657 204.246 93.6597C205.577 95.3537 205.577 99.7107 205.214 103.341C204.851 106.972 204.73 111.328 204.609 113.627C204.488 115.926 202.31 119.315 202.068 119.92C201.826 120.525 201.584 122.219 201.584 122.219C201.584 122.219 198.195 122.945 194.928 123.066C191.661 123.187 188.514 120.888 188.514 120.888C188.514 120.888 189.119 114.716 188.998 113.99C188.877 113.264 186.215 107.455 186.336 105.882C186.457 104.309 189.482 98.8627 189.482 98.8627C189.482 98.8627 194.202 95.8377 195.17 95.4747C196.138 95.1127 196.743 98.3797 196.743 98.3797Z" fill="white" stroke="#263238" stroke-miterlimit="10" stroke-linecap="round" stroke-linejoin="round"/>
<path d="M195.667 108.586C195.667 108.586 199.774 111.05 198.138 116.274" stroke="#263238" stroke-miterlimit="10" stroke-linecap="round" stroke-linejoin="round"/>
<path d="M194.444 97.7752L221.068 162.035L230.749 156.468L204.246 93.6602L194.444 97.7752Z" fill="white" stroke="#263238" stroke-miterlimit="10" stroke-linecap="round" stroke-linejoin="round"/>
<path d="M216.454 134.336C216.572 133.307 217.009 132.283 216.772 130.987C216.605 130.325 216.142 129.882 215.692 129.544C215.626 129.498 215.554 129.467 215.486 129.425C217.483 128.658 219.132 128.269 219.132 128.269L218.285 126.212C216.756 126.3 215.38 126.62 214.168 127.049C214.764 125.892 215.393 124.37 214.908 123.832C214.335 123.195 213.808 125.715 213.542 127.291C213.371 127.36 213.2 127.429 213.036 127.502L212.541 126.018C212.541 126.018 210.447 119.553 210.082 122.558C209.83 124.639 211.498 126.675 212.548 127.731C209.786 129.076 208.24 130.812 208.24 130.812L209.329 133.353C210.168 132.234 211.523 131.304 212.96 130.555C212.852 130.965 212.767 131.378 212.721 131.795C212.646 132.459 212.643 133.127 212.737 133.82C212.792 134.149 212.9 134.557 213.068 134.877L213.526 135.714C213.828 136.245 213.99 136.801 214.088 137.491C214.409 136.897 214.466 136.107 214.254 135.433C214.172 135.092 214.038 134.788 213.927 134.481C213.818 134.21 213.766 133.98 213.723 133.666C213.623 133.071 213.581 132.432 213.497 131.795C213.444 131.332 213.374 130.863 213.284 130.39C213.879 130.093 214.48 129.826 215.062 129.592C215.551 130.069 215.937 130.594 216.008 131.142C216.047 131.556 215.936 132.075 215.815 132.578C215.696 133.091 215.565 133.622 215.466 134.179C215.386 134.737 215.333 135.328 215.436 135.941C215.544 136.559 215.847 137.141 216.252 137.574C216.645 138.012 217.068 138.297 217.224 138.711C217.386 139.136 217.3 139.691 217.184 140.223C217.494 139.776 217.76 139.248 217.702 138.598C217.593 137.933 217.126 137.49 216.863 137.088C216.285 136.285 216.271 135.363 216.454 134.336Z" fill="#263238"/>
<path d="M183.283 171.678C183.283 171.678 183.818 244.604 184.353 241.66C184.888 238.716 197.199 175.692 197.199 175.692L183.283 171.678Z" fill="#263238" stroke="#263238" stroke-miterlimit="10" stroke-linecap="round" stroke-linejoin="round"/>
<path d="M187.546 119.074C187.546 119.074 193.476 121.615 196.501 121.494C199.526 121.373 203.036 120.647 203.036 120.647C203.036 120.647 201.584 133.233 201.947 143.64C202.31 154.047 201.705 164.576 200.011 170.748C198.317 176.92 193.839 180.308 189.725 179.824C185.61 179.34 183.432 174.62 181.859 164.697C180.285 154.774 187.546 119.074 187.546 119.074Z" fill="#B8B8B8" stroke="#263238" stroke-miterlimit="10" stroke-linecap="round" stroke-linejoin="round"/>
<path d="M238.695 133.699L242.544 152.947" stroke="#263238" stroke-miterlimit="10" stroke-linecap="round" stroke-linejoin="round"/>
<path d="M235.086 139.234L232.68 152.467" stroke="#263238" stroke-miterlimit="10" stroke-linecap="round" stroke-linejoin="round"/>
<path d="M172.77 153.91L180.95 148.617" stroke="#263238" stroke-miterlimit="10" stroke-linecap="round" stroke-linejoin="round"/>
<path d="M193.355 93.2958C193.355 93.2958 195.654 90.7548 197.228 90.6338C198.801 90.5128 202.553 90.7548 202.674 91.8438C202.795 92.9328 201.948 93.4168 201.948 93.4168L193.355 93.2958Z" fill="white" stroke="#263238" stroke-miterlimit="10" stroke-linecap="round" stroke-linejoin="round"/>
<path d="M192.266 107.337L191.782 103.948L194.686 100.318C194.686 100.318 198.075 99.8335 199.043 98.9865C200.011 98.1395 198.922 96.6875 198.922 96.6875C198.922 96.6875 191.661 97.2925 190.33 97.8975C188.999 98.5025 186.337 105.885 186.337 105.885C186.337 105.885 187.35 109.36 187.592 110.086" fill="white"/>
<path d="M192.266 107.337L191.782 103.948L194.686 100.318C194.686 100.318 198.075 99.8335 199.043 98.9865C200.011 98.1395 198.922 96.6875 198.922 96.6875C198.922 96.6875 191.661 97.2925 190.33 97.8975C188.999 98.5025 186.337 105.885 186.337 105.885C186.337 105.885 187.35 109.36 187.592 110.086" stroke="#263238" stroke-miterlimit="10" stroke-linecap="round" stroke-linejoin="round"/>
<path d="M190.329 97.8967C190.329 97.8967 191.418 94.0237 192.144 93.6607C192.87 93.2977 197.59 93.1767 199.042 92.9347C200.494 92.6927 203.157 93.2977 202.067 94.7497C200.978 96.2017 198.921 96.6857 198.921 96.6857L190.329 97.8967Z" fill="white" stroke="#263238" stroke-miterlimit="10" stroke-linecap="round" stroke-linejoin="round"/>
<path d="M245.888 159.904L240.063 157.813L234.089 153.93C234.089 153.93 223.485 153.93 222.14 154.826C220.796 155.722 217.51 158.411 217.51 159.904C217.51 161.398 218.705 162.443 218.705 162.443C218.705 162.443 218.406 163.937 219.452 165.131C220.498 166.326 220.498 166.326 220.498 166.326C220.498 166.326 220.797 168.118 221.394 169.313C221.991 170.508 222.738 170.807 222.738 170.807C222.738 170.807 223.485 173.944 224.381 174.392C225.277 174.84 230.803 173.197 231.251 173.197C231.699 173.197 234.238 174.989 236.777 175.437C239.316 175.885 242.303 174.242 242.303 174.242L245.141 174.391C245.141 174.391 245.888 169.462 246.187 166.475C246.485 163.488 245.888 159.904 245.888 159.904Z" fill="white" stroke="#263238" stroke-miterlimit="10" stroke-linecap="round" stroke-linejoin="round"/>
<path d="M218.704 162.444C218.704 162.444 220.944 160.054 221.841 159.606C222.737 159.158 228.562 158.262 228.562 158.262" stroke="#263238" stroke-miterlimit="10" stroke-linecap="round" stroke-linejoin="round"/>
<path d="M220.497 166.326C220.497 166.326 223.185 164.534 223.932 164.384C224.679 164.235 229.309 163.488 229.309 163.488" stroke="#263238" stroke-miterlimit="10" stroke-linecap="round" stroke-linejoin="round"/>
<path d="M222.737 170.806C222.737 170.806 224.977 169.462 225.425 169.462C225.873 169.462 230.354 168.715 230.354 168.715" stroke="#263238" stroke-miterlimit="10" stroke-linecap="round" stroke-linejoin="round"/>
<path d="M269.577 162.555L244.413 158.902C244.413 158.902 245.834 162.961 245.225 167.628C244.616 172.295 244.007 176.557 244.007 176.557C244.007 176.557 266.329 182.848 278.505 184.877C278.505 184.877 279.926 177.166 277.693 171.686C275.462 166.208 269.577 162.555 269.577 162.555Z" fill="#B8B8B8" stroke="#263238" stroke-miterlimit="10" stroke-linecap="round" stroke-linejoin="round"/>
<path d="M289.87 121.766C289.87 121.766 289.464 129.072 286.014 135.971C282.564 142.871 276.679 153.626 276.679 154.844C276.679 156.062 278.505 158.497 278.505 158.497C278.505 158.497 276.881 158.7 275.055 159.918C273.229 161.136 269.576 162.556 269.576 162.556C269.576 162.556 273.229 168.238 276.476 183.052C279.723 197.866 278.505 209.636 288.043 223.435C297.581 237.234 304.683 244.337 310.568 250.019C316.453 255.701 318.888 265.848 318.888 265.848L313.612 200.707" fill="#8B3A3A"/>
<path d="M289.87 121.766C289.87 121.766 289.464 129.072 286.014 135.971C282.564 142.871 276.679 153.626 276.679 154.844C276.679 156.062 278.505 158.497 278.505 158.497C278.505 158.497 276.881 158.7 275.055 159.918C273.229 161.136 269.576 162.556 269.576 162.556C269.576 162.556 273.229 168.238 276.476 183.052C279.723 197.866 278.505 209.636 288.043 223.435C297.581 237.234 304.683 244.337 310.568 250.019C316.453 255.701 318.888 265.848 318.888 265.848L313.612 200.707" stroke="#263238" stroke-miterlimit="10" stroke-linecap="round" stroke-linejoin="round"/>
<path d="M280.332 160.119C280.332 160.119 290.681 164.787 289.667 167.627C288.652 170.468 284.188 165.395 284.188 165.395" stroke="#263238" stroke-miterlimit="10" stroke-linecap="round" stroke-linejoin="round"/>
</svg>
