<svg width="265" height="474" viewBox="0 0 265 474" fill="none" xmlns="http://www.w3.org/2000/svg">
<path d="M190.685 37.6445C190.685 37.6445 192.25 53.4725 201.586 67.2845C216.314 89.0735 215.403 120.431 172.214 131.705C186.632 125.449 197.702 118.511 201.772 104.559C205.842 90.6055 200.541 80.2575 194.729 69.7325C188.917 59.2075 182.872 49.0255 190.685 37.6445Z" fill="#210900"/>
<path d="M90.6889 145.802C78.2849 142.089 66.6349 128.452 71.1359 101.314C75.6849 73.8875 92.6009 57.0605 92.7719 56.8945L93.1919 57.3225C93.0229 57.4885 76.2429 74.1875 71.7279 101.412C66.1429 135.082 84.9609 143.461 90.8609 145.227L90.6889 145.802Z" fill="#360D00"/>
<path d="M212.263 91.8982C211.128 84.0182 206.568 76.1782 201.74 67.8782C198.227 61.8382 194.601 55.5932 191.953 48.8242C191.874 49.2092 191.812 49.6002 191.786 49.9992C194.409 56.4402 197.864 62.4062 201.222 68.1792C206.019 76.4282 210.551 84.2192 211.67 91.9842C212.765 99.5852 210.892 106.818 206.394 112.35C200.968 119.024 185.083 129.12 173.207 129.861L173.244 130.459C185.292 129.707 201.325 119.534 206.86 112.728C211.464 107.065 213.383 99.6672 212.263 91.8982Z" fill="#360D00"/>
<path d="M199.946 86.5573C202.163 105.209 196.809 115.482 190.816 120.861C167.925 141.404 97.4249 156.209 79.1639 132.991C69.3499 120.513 71.3379 100.121 71.3379 100.121C85.4249 76.2513 109.386 36.5973 109.386 36.5973C109.386 36.5973 181.394 29.5933 183.885 31.4613C186.376 33.3293 197.483 65.8433 199.946 86.5573Z" fill="#040100"/>
<path d="M165.998 137.443V131.666C163.653 130.385 161.495 128.381 160.124 125.253C155.565 114.847 157.06 99.3577 157.06 99.3577L120.299 84.3477C120.299 84.3477 123.66 107.969 120.775 118.734C117.89 129.498 110.764 133.385 110.764 133.385C110.764 133.385 106.07 186.288 147.638 187.809C183.606 189.125 174.257 146.452 176.944 137.443H165.998Z" fill="#D3826F"/>
<path d="M157.281 113.71C156.409 106.12 157.06 99.3577 157.06 99.3577L120.299 84.3477C120.299 84.3477 123.66 107.969 120.775 118.734C117.89 129.498 110.764 133.385 110.764 133.385C110.764 133.385 113.085 141.613 119.067 149.831C120.352 140.44 123.212 131.209 127.194 122.981C132.12 112.512 146.044 108.645 157.281 113.71Z" fill="#D07A6A"/>
<path d="M181.426 59.5181C181.426 59.5181 185.784 53.4481 190.142 59.5181C194.5 65.5881 188.364 75.4311 182.931 76.3281C177.497 77.2241 177.73 75.0441 178.08 72.9431C178.43 70.8411 181.426 59.5181 181.426 59.5181Z" fill="#C66E5D"/>
<path d="M109.418 62.7466C109.418 62.7466 104.536 56.6766 99.6549 62.7466C94.7729 68.8166 101.647 78.6596 107.733 79.5556C113.82 80.4516 113.559 78.2716 113.167 76.1706C112.774 74.0696 109.418 62.7466 109.418 62.7466Z" fill="#DB907B"/>
<path d="M105.186 76.1228C105.186 76.1228 104.795 75.2518 103.229 73.9718C101.664 72.6918 101.161 68.6458 101.105 66.3418C101.049 64.0378 102.558 61.7328 103.453 61.1188C104.348 60.5048 108.037 64.3448 108.317 65.5228C108.596 66.7008 109.659 68.6468 108.317 70.4388C106.975 72.2308 107.534 72.8458 108.596 73.5118C109.658 74.1778 108.876 75.3038 108.317 75.8678C107.758 76.4308 106.96 75.4068 106.017 74.2288C105.074 73.0508 106.778 70.1728 107.184 69.7178C107.59 69.2618 104.403 68.1868 103.285 71.9758C103.173 69.9788 105.242 66.5538 107.869 68.6508C107.03 65.0118 105.558 63.3908 104.477 62.6398C103.396 61.8888 102.651 64.3128 102.241 66.7028C101.831 69.0928 102.092 72.1648 103.135 72.9498C104.18 73.7328 104.888 75.1668 105.186 76.1228Z" fill="#C46A5C"/>
<path d="M169.411 21.9672C169.411 21.9672 182.174 32.8622 183.575 54.1072C184.976 75.3522 181.863 93.7962 169.411 103.368C156.96 112.94 144.969 112.046 129.644 103.601C118.204 97.2982 110.033 79.2562 109.566 66.0982C109.099 52.9402 108.632 33.9512 120.539 21.9672C132.446 9.98322 159.45 14.5742 169.411 21.9672Z" fill="#DB907B"/>
<path d="M143.068 62.3014C143.068 62.3014 148.205 55.1584 141.668 47.1034C134.664 46.0524 129.95 44.9664 127.076 47.1034C124.202 49.2404 123.798 55.5174 125.437 59.0924C128.416 56.2774 130.345 54.2624 137.037 56.1304C139.294 57.0654 142.64 59.4454 143.068 62.3014Z" fill="#D3826F"/>
<path d="M162.337 62.4788C162.337 62.4788 160.229 55.4708 164.587 47.9798C168.089 46.2468 173.381 46.1328 173.381 46.1328L179.969 59.2698L162.337 62.4788Z" fill="#D3826F"/>
<path d="M169.411 21.9672C159.45 14.5742 132.446 9.98322 120.539 21.9672C108.632 33.9522 109.099 52.9402 109.566 66.0982C110.033 79.2562 118.204 97.2982 129.644 103.602C140.382 109.519 149.483 111.722 158.252 109.222C152.074 110.095 145.597 110.684 132.99 101.968C120.383 93.2522 109.814 57.8622 132.127 30.0612C132.127 30.0612 143.475 25.5142 156.38 29.2962C179.076 35.9482 177.234 55.1932 177.924 57.6202C179.833 64.3382 182.764 69.3962 183.398 73.1932C184.007 67.2372 183.43 60.8252 183.574 54.1082C184.163 26.5572 169.411 21.9672 169.411 21.9672Z" fill="#D3826F"/>
<path d="M161.663 77.9167C161.663 77.9167 161.272 80.9497 157.856 81.8057C152.614 83.1197 148.554 78.7967 148.652 77.4277C151.423 78.1897 157.003 81.2667 161.663 77.9167Z" fill="#D3826F"/>
<path d="M149.333 99.5764C149.134 99.3374 155.17 101.911 159.372 99.5764C157.816 102.067 153.146 104.168 149.333 99.5764Z" fill="#D3826F"/>
<path d="M113.886 56.9199C113.886 56.9199 109.91 63.2959 111.665 77.9039C110.384 76.1699 109.022 63.0329 109.411 60.6129C109.8 58.1929 113.886 56.9199 113.886 56.9199Z" fill="black"/>
<path d="M162.337 62.4782C162.337 62.4782 163.382 57.7122 169.125 56.1462C174.868 54.5802 179.13 58.5072 179.13 58.5072C177.155 58.8812 176.329 61.4822 170.733 63.4312C165.136 65.3822 162.337 62.4782 162.337 62.4782Z" fill="white"/>
<mask id="mask0_80_1303" style="mask-type:luminance" maskUnits="userSpaceOnUse" x="162" y="55" width="18" height="10">
<path d="M162.337 62.4782C162.337 62.4782 163.382 57.7122 169.125 56.1462C174.868 54.5802 179.13 58.5072 179.13 58.5072C177.155 58.8812 176.329 61.4822 170.733 63.4312C165.136 65.3822 162.337 62.4782 162.337 62.4782Z" fill="white"/>
</mask>
<g mask="url(#mask0_80_1303)">
<path d="M172.15 57.7056C173.152 59.4136 172.579 61.6116 170.871 62.6136C169.163 63.6156 166.966 63.0426 165.963 61.3346C164.961 59.6266 165.534 57.4286 167.242 56.4276C168.951 55.4246 171.148 55.9976 172.15 57.7056Z" fill="#1E0B00"/>
<path d="M170.543 58.6487C171.024 59.4697 170.749 60.5247 169.929 61.0057C169.108 61.4867 168.053 61.2117 167.572 60.3907C167.091 59.5697 167.366 58.5147 168.187 58.0337C169.006 57.5527 170.062 57.8277 170.543 58.6487Z" fill="#040100"/>
<path d="M170.641 57.7148C170.852 58.0748 170.731 58.5368 170.372 58.7478C170.012 58.9588 169.55 58.8378 169.339 58.4788C169.128 58.1188 169.249 57.6568 169.608 57.4458C169.968 57.2348 170.43 57.3548 170.641 57.7148Z" fill="white"/>
</g>
<path d="M162.337 62.4785C162.735 60.7095 163.722 59.0355 165.126 57.7895C166.505 56.5005 168.321 55.7255 170.161 55.3825C172.003 55.0515 173.959 55.1865 175.718 55.8525C177.469 56.5225 179.013 57.7215 179.969 59.2695C178.686 57.9935 177.093 57.1415 175.449 56.6525C173.788 56.2035 172.042 56.1265 170.347 56.4475C168.661 56.7465 167.032 57.3845 165.664 58.4365C164.291 59.4745 163.129 60.8565 162.337 62.4785Z" fill="#210900"/>
<path d="M162 60.6131C162.219 58.8051 163.174 57.1081 164.517 55.8421C165.879 54.5681 167.649 53.8191 169.448 53.4511C171.256 53.0911 173.165 53.1491 174.923 53.7331C176.647 54.3481 178.296 55.3651 179.304 56.8911C178.733 56.1901 178.003 55.6441 177.235 55.1931C176.471 54.7321 175.65 54.3761 174.799 54.1301C173.942 53.9061 173.069 53.7631 172.186 53.7251C171.304 53.7301 170.416 53.7761 169.553 53.9811C168.679 54.1261 167.837 54.4111 167.023 54.7491C166.229 55.1281 165.465 55.5771 164.792 56.1511C163.459 57.2971 162.438 58.8571 162 60.6131Z" fill="#89493F"/>
<path d="M143.068 62.3005C143.068 62.3005 142.023 57.5345 136.28 55.9685C130.537 54.4025 126.275 58.3295 126.275 58.3295C128.25 58.7035 129.076 61.3045 134.672 63.2535C140.268 65.2045 143.068 62.3005 143.068 62.3005Z" fill="white"/>
<mask id="mask1_80_1303" style="mask-type:luminance" maskUnits="userSpaceOnUse" x="126" y="55" width="18" height="9">
<path d="M143.068 62.3005C143.068 62.3005 142.023 57.5345 136.28 55.9685C130.537 54.4025 126.275 58.3295 126.275 58.3295C128.25 58.7035 129.076 61.3045 134.672 63.2535C140.268 65.2045 143.068 62.3005 143.068 62.3005Z" fill="white"/>
</mask>
<g mask="url(#mask1_80_1303)">
<path d="M131.159 57.3726C130.157 59.0806 130.73 61.2776 132.438 62.2796C134.147 63.2816 136.344 62.7086 137.346 61.0006C138.348 59.2926 137.775 57.0956 136.067 56.0936C134.358 55.0906 132.161 55.6636 131.159 57.3726Z" fill="#1E0B00"/>
<path d="M132.767 58.3144C132.286 59.1354 132.561 60.1904 133.381 60.6714C134.202 61.1524 135.257 60.8774 135.738 60.0564C136.219 59.2354 135.944 58.1804 135.123 57.6994C134.303 57.2184 133.248 57.4944 132.767 58.3144Z" fill="#040100"/>
<path d="M132.669 57.3832C132.458 57.7432 132.579 58.2052 132.938 58.4162C133.298 58.6272 133.76 58.5062 133.971 58.1472C134.182 57.7882 134.061 57.3252 133.702 57.1142C133.342 56.9022 132.879 57.0232 132.669 57.3832Z" fill="white"/>
</g>
<path d="M143.068 62.3008C142.671 60.5318 141.683 58.8578 140.279 57.6118C138.9 56.3228 137.084 55.5478 135.244 55.2048C133.402 54.8738 131.446 55.0088 129.688 55.6748C127.937 56.3448 126.393 57.5438 125.437 59.0918C126.72 57.8158 128.313 56.9638 129.957 56.4748C131.617 56.0258 133.364 55.9488 135.059 56.2698C136.745 56.5688 138.374 57.2068 139.742 58.2588C141.114 59.2968 142.276 60.6788 143.068 62.3008Z" fill="#210900"/>
<path d="M126.357 58.6602C126.357 58.6602 126.379 61.6172 129.336 65.0412C132.293 68.4652 140.347 69.2042 143.149 63.0562C140.036 66.0912 136.987 67.1052 132.208 65.2362C127.43 63.3682 126.357 58.6602 126.357 58.6602Z" fill="#D3826F"/>
<path d="M162.337 62.8898C162.337 62.8898 163.391 68.4158 170.652 68.0078C177.913 67.5988 179.665 59.2188 179.665 59.2188C179.665 59.2188 176.932 65.9067 170.652 66.3737C164.372 66.8397 162.337 62.8898 162.337 62.8898Z" fill="#D3826F"/>
<path d="M143.405 60.4354C143.186 58.6284 142.231 56.9304 140.888 55.6644C139.526 54.3904 137.756 53.6414 135.956 53.2734C134.149 52.9134 132.239 52.9714 130.482 53.5554C128.758 54.1704 127.109 55.1874 126.101 56.7134C126.672 56.0124 127.402 55.4664 128.17 55.0154C128.934 54.5544 129.755 54.1984 130.606 53.9524C131.463 53.7284 132.336 53.5854 133.219 53.5474C134.101 53.5524 134.988 53.5984 135.852 53.8034C136.726 53.9484 137.568 54.2334 138.382 54.5714C139.176 54.9504 139.941 55.3994 140.613 55.9734C141.946 57.1194 142.967 58.6804 143.405 60.4354Z" fill="#89493F"/>
<path d="M141.2 48.9703C141.2 48.9703 136.648 47.3363 131.045 47.3363C125.442 47.3363 120.85 51.5383 120.85 51.5383C125.986 45.3123 129.488 44.6903 133.768 44.4563C138.048 44.2233 141.628 45.1563 142.717 45.9353C143.807 46.7133 143.807 48.8153 141.2 48.9703Z" fill="#210900"/>
<path d="M162.978 48.9703C162.978 48.9703 167.53 47.3363 173.133 47.3363C178.736 47.3363 183.328 51.5383 183.328 51.5383C178.192 45.3123 174.69 44.6903 170.41 44.4563C166.13 44.2233 162.55 45.1563 161.461 45.9353C160.37 46.7133 160.371 48.8153 162.978 48.9703Z" fill="#210900"/>
<path d="M154.79 58.4648C155.865 58.6658 157.788 65.7118 158.056 69.1648C158.405 73.6738 158.886 76.0568 158.886 76.0568C159.549 75.6338 159.801 73.3298 159.556 70.7958C159.311 68.2618 158.746 59.2038 154.79 58.4648Z" fill="#DBA194"/>
<path d="M168.101 84.5566C168.101 84.5566 156.658 86.9656 139.091 84.5566C144.311 94.4946 149.53 95.9996 154.549 96.8026C159.568 97.6056 168.402 93.5906 168.101 84.5566Z" fill="#4B2E26"/>
<path d="M167.224 84.7148C166.748 86.2988 164.96 89.3139 158.23 89.6089C149.372 89.9969 143.149 90.4279 140.383 84.7249C154.428 86.4949 164.33 85.1948 167.224 84.7148Z" fill="white"/>
<path d="M166.715 85.8519C166.96 85.4369 167.125 85.0438 167.224 84.7148C164.33 85.1948 154.428 86.4939 140.384 84.7249C140.583 85.1359 140.802 85.5109 141.039 85.8569C154.023 87.4179 163.355 86.3679 166.715 85.8519Z" fill="#F2F2F2"/>
<path d="M139.091 84.5559C139.091 84.5559 150.511 83.8039 152.285 83.7189C154.059 83.6339 156.594 84.1839 157.143 84.9439C159.002 83.2959 164.991 83.1109 168.1 84.5559C163.48 85.9999 148.793 86.9559 139.091 84.5559Z" fill="#AD5147"/>
<path d="M139.091 84.5566C139.091 84.5566 139.663 90.7706 146.054 95.6746C152.445 100.58 160.734 98.9276 164.832 94.8296C168.93 90.7316 168.101 84.5566 168.101 84.5566C168.101 84.5566 164.763 96.2096 154.92 96.0406C145.077 95.8716 139.091 84.5566 139.091 84.5566Z" fill="#AD5147"/>
<path opacity="0.29" d="M119.926 53.3933C119.926 53.3933 135.688 52.7053 148.268 55.0053C149.827 56.2713 148.748 68.5033 141.672 70.9013C134.597 73.2993 126.262 71.9183 122.604 69.5823C118.947 67.2473 119.926 53.3933 119.926 53.3933Z" fill="white"/>
<path opacity="0.29" d="M148.337 62.0237C149.153 58.6947 149.011 55.6067 148.269 55.0037C141.089 53.6907 132.878 53.3517 127.147 53.3027C127.458 56.5057 128.174 59.5747 129.727 60.5667C133.305 62.8527 141.362 64.2147 148.337 62.0237Z" fill="white"/>
<path d="M133.643 72.6256C129.074 72.6256 124.801 71.5546 122.346 69.9876C118.557 67.5676 119.344 54.8066 119.447 53.3596L119.477 52.9326L119.904 52.9136C120.063 52.9056 135.864 52.2496 148.353 54.5336L148.474 54.5556L148.569 54.6326C149.542 55.4226 149.512 58.4186 149.072 60.8676C148.712 62.8736 147.126 69.5586 141.825 71.3556C139.21 72.2426 136.374 72.6256 133.643 72.6256ZM120.376 53.8566C120.136 57.9206 120.161 67.4526 122.863 69.1786C126.598 71.5646 134.794 72.7266 141.518 70.4476C146.322 68.8186 147.793 62.5736 148.13 60.6986C148.66 57.7416 148.343 55.8946 148.03 55.4496C136.823 53.4266 122.976 53.7716 120.376 53.8566Z" fill="black"/>
<path opacity="0.29" d="M189.409 53.3933C189.409 53.3933 173.647 52.7053 161.067 55.0053C159.508 56.2713 160.587 68.5033 167.663 70.9013C174.738 73.2993 183.073 71.9183 186.731 69.5823C190.388 67.2473 189.409 53.3933 189.409 53.3933Z" fill="white"/>
<path opacity="0.29" d="M189.381 61.5009C189.693 57.4219 189.409 53.3929 189.409 53.3929C189.409 53.3929 178.303 52.9089 167.296 54.1139C168.36 57.2709 170.324 60.3279 173.499 61.4039C178.954 63.2519 185.15 62.8499 189.381 61.5009Z" fill="white"/>
<path d="M175.692 72.6256C172.961 72.6256 170.126 72.2436 167.509 71.3556C162.207 69.5586 160.621 62.8736 160.262 60.8676C159.822 58.4186 159.793 55.4226 160.766 54.6326L160.861 54.5556L160.982 54.5336C173.47 52.2496 189.273 52.9056 189.431 52.9136L189.858 52.9326L189.888 53.3596C189.991 54.8066 190.778 67.5676 186.989 69.9876C184.533 71.5546 180.26 72.6256 175.692 72.6256ZM161.305 55.4496C160.992 55.8946 160.675 57.7416 161.205 60.6986C161.542 62.5736 163.013 68.8186 167.817 70.4476C174.541 72.7266 182.737 71.5646 186.472 69.1786C189.175 67.4526 189.199 57.9206 188.958 53.8566C186.359 53.7696 172.511 53.4256 161.305 55.4496Z" fill="black"/>
<path d="M158.685 59.9465C159.393 61.1795 159.873 62.5235 160.235 63.8785C160.967 66.5945 161.341 69.5835 161.568 72.3545C161.677 73.7415 161.729 74.9235 161.789 76.3105C161.801 76.6675 161.84 76.9675 161.806 77.4295C161.701 78.8665 160.542 79.7525 159.225 80.0595C157.692 80.3905 156.247 80.2045 154.847 79.9705C153.443 79.7245 150.377 78.4635 150.472 78.2085C150.561 77.9705 155.988 79.7105 158.915 78.7165C160.227 78.4715 160.459 77.1025 160.438 76.3505C160.423 74.9745 160.381 73.6005 160.318 72.2285C160.168 69.4895 159.941 66.7495 159.397 64.0825C159.122 62.7495 158.716 61.4515 158.147 60.2305C157.577 59.0095 157.988 58.7105 158.685 59.9465Z" fill="#C46A5C"/>
<path d="M127.603 77.9778C127.603 78.5138 127.169 78.9478 126.633 78.9478C126.097 78.9478 125.663 78.5138 125.663 77.9778C125.663 77.4418 126.097 77.0078 126.633 77.0078C127.169 77.0078 127.603 77.4418 127.603 77.9778Z" fill="#4B2E26"/>
<path d="M148.275 55.4868C148.214 55.4868 148.158 55.4758 148.095 55.4518L148.441 54.5568L148.268 55.0038L148.226 54.5298C148.269 54.5218 148.341 54.4988 148.444 54.4678C151.909 53.4348 156.191 53.4558 161.168 54.5348L160.965 55.4718C156.15 54.4288 152.029 54.3988 148.719 55.3868C148.514 55.4488 148.388 55.4868 148.275 55.4868Z" fill="black"/>
<path d="M159.481 123.635C159.481 123.635 169.294 147.078 146.99 149.426C131.925 150.991 116.936 139.114 118.166 125.252C112.441 129.724 109.912 134.782 106.33 142.791C102.747 150.799 109.175 180.831 117.711 201.063C126.246 221.295 143.473 269.896 155.25 273.889C167.027 277.881 170.49 240.895 177.926 217.185C185.362 193.476 179.123 134.656 179.123 134.656C179.123 134.656 165.365 132.542 159.481 123.635Z" fill="#8B3A3A"/>
<path d="M113.721 130.398C113.721 130.398 93.0678 145.529 69.0418 151.851C45.0168 158.174 41.6448 162.388 41.6448 162.388C41.6448 162.388 58.0838 213.811 62.2978 246.266C66.5128 278.721 81.6868 301.904 72.8348 341.103C63.9838 380.302 53.2348 433.411 51.9708 453.643C50.7058 473.875 90.5378 472.61 121.518 473.243C152.498 473.875 164.511 458.701 171.465 442.895C178.42 427.089 163.878 318.975 164.51 305.065C165.142 291.155 156.189 246.266 137.905 216.55C119.622 186.835 111.614 146.036 113.721 130.398Z" fill="white"/>
<path d="M101.271 346.795C110.123 307.596 70.5158 258.589 67.5428 225.996C62.6428 172.262 41.6448 162.389 41.6448 162.389C41.6448 162.389 58.0828 213.812 62.2988 246.267C66.5138 278.722 81.6878 301.905 72.8358 341.104C63.9848 380.303 53.2358 433.412 51.9718 453.644C51.1928 466.113 66.0258 470.416 84.7738 472.031C86.0388 451.8 92.4198 385.994 101.271 346.795Z" fill="#F0F6F7"/>
<path d="M63.0208 386.1L60.7278 398.434C60.7278 398.434 66.9188 395.584 72.1878 400.22C77.4568 404.857 92.4198 404.646 98.8998 402.591C105.381 400.536 130.038 380.146 130.038 380.146C130.038 380.146 122.767 385.362 111.545 383.939C100.323 382.516 77.7198 367.975 77.7198 367.975L63.0208 386.1Z" fill="#F0F6F7"/>
<path d="M72.1877 400.22C72.1877 400.22 127.668 381.569 130.039 380.146C123.4 391.368 80.2487 406.068 72.1877 400.22Z" fill="#DFEEEF"/>
<path d="M167.041 130.398C167.041 130.398 175.893 171.939 167.041 209.103C158.189 246.267 149.338 305.066 150.603 341.104C151.867 377.142 153.132 440.367 155.029 449.218C156.926 458.07 184.745 473.876 213.196 468.186C241.647 462.496 242.279 450.483 242.279 450.483C242.279 450.483 228.369 381.568 211.299 330.356C194.228 279.144 212.564 260.809 218.886 222.874C225.208 184.939 219.518 151.43 219.518 151.43C219.518 151.43 176.946 132.97 167.041 130.398Z" fill="#F0F6F7"/>
<path d="M167.041 130.398C167.041 130.398 175.893 171.939 167.041 209.103C158.189 246.267 151.912 303.38 153.176 339.418C154.44 375.456 159.649 437.627 161.546 446.479C163.443 455.331 184.744 473.876 213.195 468.186C241.646 462.496 242.278 450.483 242.278 450.483C242.278 450.483 228.368 381.568 211.298 330.356C194.227 279.144 212.563 260.809 218.885 222.874C225.207 184.939 219.517 151.43 219.517 151.43C219.517 151.43 176.946 132.97 167.041 130.398Z" fill="white"/>
<path d="M167.027 280.495C167.027 282.981 165.012 284.996 162.526 284.996C160.04 284.996 158.025 282.981 158.025 280.495C158.025 278.009 160.04 275.994 162.526 275.994C165.012 275.994 167.027 278.009 167.027 280.495Z" fill="#DFEEEF"/>
<path d="M159.826 359.92C162.312 359.92 164.327 357.905 164.327 355.419C164.327 352.933 162.312 350.918 159.826 350.918C157.34 350.918 155.325 352.933 155.325 355.419C155.325 357.905 157.34 359.92 159.826 359.92Z" fill="#DFEEEF"/>
<path d="M168.829 429.692C168.829 432.178 166.814 434.193 164.328 434.193C161.842 434.193 159.827 432.178 159.827 429.692C159.827 427.206 161.842 425.191 164.328 425.191C166.813 425.191 168.829 427.206 168.829 429.692Z" fill="#DFEEEF"/>
<path d="M211.298 330.357C194.227 279.145 212.562 260.81 218.885 222.875C212.563 260.81 171.904 287.09 196.38 335.204C221.102 383.802 229.471 446.752 231.228 462.281C241.952 456.681 242.279 450.484 242.279 450.484C242.279 450.484 228.369 381.569 211.298 330.357Z" fill="#F0F6F7"/>
<path d="M177.909 377.459C177.909 377.459 191.075 392.979 230.578 398.813C200.218 387.575 177.909 377.459 177.909 377.459Z" fill="#DFEEEF"/>
<path d="M119.33 122.9C119.33 122.9 111.703 147.004 124.981 184.623C138.258 222.242 161.661 253.972 154.994 281.74C151.964 263.418 138.545 243.231 118.313 228.689C98.0808 214.147 89.6158 191.355 89.6158 191.355L113.6 175.455L87.4668 171.767C87.4668 171.767 100.171 143.583 103.168 137.836C108.554 127.51 119.33 122.9 119.33 122.9Z" fill="#DFEEEF"/>
<path d="M119.33 122.9C119.33 122.9 111.703 147.004 124.981 184.623C138.258 222.242 160.93 242.888 156.165 273.216C150.482 257.057 138.259 239.628 118.027 225.086C97.7948 210.544 90.9458 180.302 90.9458 180.302L113.602 175.455L88.2068 166.154C88.2068 166.154 100.173 143.583 103.17 137.836C108.554 127.51 119.33 122.9 119.33 122.9Z" fill="#F0F6F7"/>
<path d="M159.481 123.635C159.481 123.635 170.898 146.759 169.713 174.35C168.528 201.941 165.761 212.285 162.126 225.246C158.491 238.207 155.731 256.411 153.177 290.848C159.755 250.062 184.07 235.464 193.33 210.856C201.233 189.853 202.643 182.301 202.643 182.301L183.886 172.505L197.796 167.869L182.833 138.153C182.831 138.153 169.554 125.251 159.481 123.635Z" fill="#DFEEEF"/>
<path d="M159.481 123.635C159.481 123.635 170.898 146.759 169.713 174.35C168.528 201.941 165.761 212.285 162.126 225.246C158.491 238.207 155.731 256.411 153.177 290.848C159.755 250.062 182.424 233.712 191.684 209.104C199.587 188.101 201.168 171.663 201.168 171.663L183.886 172.506L198.007 161.758L182.833 138.154C182.831 138.153 169.554 125.251 159.481 123.635Z" fill="#F0F6F7"/>
<path d="M221.714 160.914C221.714 160.914 211.407 177.858 212.963 200.437C214.518 223.016 213.495 259.861 204.96 282.938C221.082 250.377 221.399 233.307 219.186 218.449C216.973 203.591 212.863 182.094 221.714 160.914Z" fill="#F0F6F7"/>
<path d="M219.638 151.432C219.638 151.432 230.386 156.49 232.915 172.928C235.444 189.366 237.385 195.373 244.791 208.65C252.198 221.927 253.853 235.731 259.965 265.655C244.58 285.465 219.637 275.985 219.637 275.985C219.637 275.985 219.426 245.005 215.106 226.037C210.786 207.069 213.315 157.122 219.638 151.432Z" fill="white"/>
<path d="M216.819 157.58C216.819 157.58 211.143 201.876 216.819 233.115C216.75 249.146 214.296 256.285 214.296 256.285C214.296 256.285 203.032 192.07 216.819 157.58Z" fill="#F0F6F7"/>
<path d="M222.279 301.899C222.279 301.899 218.169 321.657 218.033 327.821C217.897 333.985 225.143 337.647 232.067 336.91C238.991 336.173 243.345 327.873 244.767 319.233C246.19 310.593 244.001 287.516 237.113 285.145C230.225 282.774 227.365 293.374 227.135 294.871C226.907 296.367 222.279 301.899 222.279 301.899Z" fill="#C6E2E5"/>
<path d="M217.605 324.035C217.605 324.035 227.737 330.037 242.279 311.702C256.821 293.367 232.674 287.154 232.674 287.154L222.487 298.877L217.605 324.035Z" fill="#CB7663"/>
<path d="M229.934 297.375C229.934 297.375 235.897 316.708 225.283 324.519C224.022 324.781 221.94 324.951 221.94 324.951C221.94 324.951 224.756 326.459 230.566 325.932C236.376 325.405 238.469 319.504 239.839 314.762C241.209 310.02 238.258 296.848 229.934 297.375Z" fill="#8B3A3A"/>
<path d="M228.594 296.368C228.594 296.368 236.653 304.686 235.919 322.589C235.798 325.534 230.881 337.885 227.72 336.831C235.698 339.36 242.082 335.145 246.718 327.769C251.354 320.393 253.513 316.389 259.152 309.012C264.791 301.636 264.791 297.632 264.791 287.094C264.791 276.557 260.385 271.977 259.964 265.654C259.542 259.332 227.195 267.667 226.482 275.244C225.77 282.823 222.061 291.732 228.594 296.368Z" fill="white"/>
<path d="M224.79 284.801C226.456 285.679 245.735 282.548 249.131 300.495C253.01 302.54 254.064 294.953 251.324 289.052C248.584 283.151 234.843 280.833 234.843 280.833C250.06 278.726 256.172 279.569 259.965 285.68C255.75 273.246 239.281 272.192 232.989 275.986C240.787 260.601 253.432 261.866 253.432 261.866C248.163 257.651 231.694 263.268 226.019 271.629C220.345 279.989 224.79 284.801 224.79 284.801Z" fill="#F0F6F7"/>
<path d="M212.525 344.899L189.879 386.627L222.167 228.566L243.663 197.586L212.525 344.899Z" fill="#E59E00"/>
<path d="M181.387 384.098L215.107 226.037L237.868 195.689L243.663 197.586L222.167 228.566L189.879 386.627L181.387 384.098Z" fill="#8B3A3A"/>
<path d="M229.648 312.444C229.648 312.444 231.909 304.699 229.38 294.794C226.851 284.889 229.332 285.468 226.697 279.778C224.063 274.088 227.645 268.503 226.17 266.395C224.695 264.287 218.794 266.711 217.846 273.244C216.898 279.777 219.743 279.567 218.9 284.414C218.057 289.261 217.214 292.106 215.739 293.371C214.264 294.635 201.234 291.887 201.234 291.887L202 287.476C202 287.476 198.142 286.416 195.402 290.315C192.662 294.214 194.032 299.483 194.032 299.483C189.923 300.853 190.133 307.07 191.819 308.861C188.342 313.603 190.685 318.766 190.685 318.766C188.974 321.716 190.238 326.564 192.135 328.355C194.032 330.146 207.098 332.781 211.313 331.938C215.528 331.095 216.055 328.355 217.846 325.089C219.637 321.822 221.323 321.612 224.063 318.345C226.803 315.078 228.383 316.969 229.648 312.444Z" fill="#D3826F"/>
<path d="M229.648 312.444C229.648 312.444 231.909 304.699 229.38 294.794C226.851 284.889 229.332 285.468 226.697 279.778C224.063 274.088 227.645 268.503 226.17 266.395C224.695 264.287 218.794 266.711 217.846 273.244C216.898 279.777 222.557 280.383 221.714 285.23C220.871 290.077 220.265 292.501 218.79 293.765C217.315 295.03 201.234 291.886 201.234 291.886L202 287.475C202 287.475 198.142 286.415 195.402 290.314C192.662 294.213 194.032 299.482 194.032 299.482C189.923 300.852 190.133 307.069 191.819 308.86C188.342 313.602 190.685 318.765 190.685 318.765C188.974 321.715 190.238 326.563 192.135 328.354C194.032 330.145 207.098 332.78 211.313 331.937C215.528 331.094 216.055 328.354 217.846 325.088C219.637 321.821 221.323 321.611 224.063 318.344C226.803 315.078 228.383 316.969 229.648 312.444Z" fill="#DB907B"/>
<path d="M194.032 299.484C194.032 299.484 196.346 303.646 202.352 305.306C208.358 306.966 211.713 306.017 212.525 307.282C213.337 308.546 212.152 308.151 208.121 307.835C204.09 307.518 195.432 305.674 194.032 299.484Z" fill="#D3826F"/>
<path d="M191.819 308.861C191.819 308.861 194.291 311.943 199.981 313.84C205.671 315.737 209.623 314.156 210.255 315.737C210.887 317.318 205.197 316.843 200.534 315.342C195.871 313.84 191.56 310.126 191.819 308.861Z" fill="#D3826F"/>
<path d="M190.685 318.766C190.685 318.766 193.105 321.111 198.163 322.296C203.221 323.481 206.461 321.98 207.172 323.007C207.883 324.034 206.303 324.983 201.166 324.271C196.029 323.561 191.357 321.34 190.685 318.766Z" fill="#D3826F"/>
<path d="M83.8847 353.752C83.8847 353.752 89.5747 365.132 100.64 369.874C111.704 374.616 118.659 383.151 124.349 392.951C130.039 402.751 85.7817 406.544 85.7817 406.544L66.8147 378.725L83.8847 353.752Z" fill="#DB907B"/>
<path d="M94.068 365.928C87.33 360.637 83.884 353.75 83.884 353.75L66.813 378.724L85.78 406.543C85.78 406.543 85.819 406.54 85.885 406.534C85.062 404.993 84.286 403.419 83.567 401.801C77.493 389.65 81.931 372.834 94.068 365.928Z" fill="#D3826F"/>
<path d="M88.2049 356.174L94.3169 363.761C94.3169 363.761 85.8829 365.905 79.3539 376.722C72.8249 387.539 74.6839 390.266 74.6839 390.266L65.9709 383.044C65.9709 383.044 63.4949 362.76 88.2049 356.174Z" fill="#8B3A3A"/>
<path d="M41.6448 162.391C41.6448 162.391 2.0078 258.546 0.111796 298.878C-1.7852 339.21 20.9758 355.648 29.1948 365.132C37.4138 374.616 64.6008 391.054 64.6008 391.054C70.0798 363.657 91.7878 356.913 91.7878 356.913C91.7878 356.913 64.6008 324.325 53.8528 310.903C43.1048 297.481 57.4098 277.651 63.5338 254.057C69.6588 230.463 54.0948 161.338 41.6448 162.391Z" fill="white"/>
<path d="M22.4507 302.962C21.9037 303.279 41.4177 298.825 53.8527 310.904C49.9887 300.232 36.9927 294.532 22.4507 302.962Z" fill="#F0F6F7"/>
<path d="M44.0288 355.722C35.8098 346.238 13.0488 329.8 14.9458 289.468C16.3458 259.695 38.3098 199.508 49.7158 170.032C47.0428 165.085 44.2748 162.169 41.6458 162.391C41.6458 162.391 2.00877 258.546 0.112772 298.878C-1.78423 339.21 20.9768 355.648 29.1958 365.132C37.4148 374.616 64.6018 391.054 64.6018 391.054C65.8098 385.016 67.8068 379.983 70.1848 375.802C61.5058 370.151 49.1238 361.601 44.0288 355.722Z" fill="#F0F6F7"/>
<path d="M72.1877 400.222C72.1877 400.222 108.831 398.977 130.039 380.148C135.729 392.951 136.045 396.428 136.045 396.428C136.045 396.428 102.22 417.292 75.9817 415.395C74.4007 409.389 72.1877 400.222 72.1877 400.222Z" fill="white"/>
<path d="M191.385 44.516C191.032 38.192 190.022 31.975 187.129 25.663C182.602 15.785 174.303 9.139 164.597 4.646C154.701 0.0649958 128.508 -4.35701 121.73 8.27299C103.511 4.76999 95.3219 21.173 91.0019 35.99C88.2859 45.304 86.7229 54.944 83.6499 64.15C80.5059 73.567 76.0669 82.503 73.1719 92.009C72.9229 92.827 70.0529 105.73 71.0749 105.603C71.5739 105.541 113.727 113.82 116.857 61.387C117.474 51.054 118.92 38.495 128.331 31.917C135.466 26.931 145.919 29.703 153.64 33.212C161.005 29.39 170.516 27.153 176.853 33.973C186.191 44.022 182.252 60.633 184.686 73.013C185.948 79.43 189.573 84.163 194.783 87.808C192.871 79.81 191.951 71.589 191.672 63.378C191.451 56.867 191.727 50.642 191.385 44.516Z" fill="#210900"/>
<path d="M195.65 88.3906C195.768 88.5036 195.893 88.5956 196.033 88.6446C195.903 88.5616 195.778 88.4746 195.65 88.3906Z" fill="#210900"/>
<path d="M195.506 88.2383L195.497 88.2893C195.548 88.3233 195.599 88.3573 195.65 88.3903C195.601 88.3433 195.551 88.2963 195.506 88.2383Z" fill="#210900"/>
<path d="M135.641 11.2969C135.641 11.2969 118.293 11.9489 116.989 67.5139C115.913 113.368 70.5538 109.514 71.0758 105.601C71.0758 105.601 102.377 106.858 107.598 72.9919C109.488 60.7309 105.902 11.2969 135.641 11.2969Z" fill="#360D00"/>
<path d="M187.13 25.661C182.603 15.783 174.304 9.13704 164.598 4.64404C154.702 0.0630426 128.509 -4.35896 121.732 8.27104C164.989 -5.92096 190.023 31.974 187.13 25.661Z" fill="#360D00"/>
<path d="M112.163 17.166C108.991 20.189 106.502 23.883 104.748 27.881C102.981 31.882 101.903 36.152 101.216 40.46C99.8468 49.104 99.9837 57.88 99.6997 66.624C99.5417 70.991 99.4188 75.398 98.5408 79.729C97.6908 84.048 95.9317 88.262 93.1417 91.725C90.3937 95.211 86.8818 98.019 83.1228 100.311C79.3538 102.61 75.3287 104.427 71.2597 106.066C71.0037 106.169 70.7118 106.045 70.6088 105.789C70.5058 105.533 70.6298 105.241 70.8858 105.138L70.8908 105.136C74.9478 103.547 78.9427 101.787 82.6697 99.562C86.3877 97.343 89.8438 94.63 92.5548 91.258C95.2998 87.915 97.0478 83.846 97.9278 79.603C98.8328 75.352 99.0007 70.969 99.1997 66.606C99.5667 57.882 99.5127 49.08 100.969 40.421C101.7 36.105 102.823 31.828 104.634 27.831C106.432 23.836 108.963 20.158 112.163 17.166Z" fill="#360D00"/>
<path d="M98.2458 150.04C93.7068 167.471 99.4458 183.422 105.659 196.727C119.522 226.415 117.113 238.295 115.518 246.157C115.411 246.686 115.308 247.196 115.213 247.69C115.108 248.241 115.469 248.771 116.02 248.876C116.084 248.888 116.148 248.894 116.211 248.894C116.688 248.894 117.113 248.555 117.206 248.07C117.299 247.583 117.401 247.081 117.506 246.56C119.154 238.437 121.643 226.164 107.497 195.87C101.437 182.892 95.8318 167.359 100.209 150.551C104.66 133.46 114.687 124.879 119.904 121.434L120.821 118.473C116.327 120.945 103.578 129.564 98.2458 150.04Z" fill="#07003D"/>
<path d="M119.035 323.615C118.486 323.615 118.035 323.177 118.022 322.626C118.009 322.066 118.451 321.601 119.011 321.587C122.4 321.505 125.293 320.757 125.519 320.169C125.827 318.255 127.54 276.719 127.194 267.383C126.926 260.148 125.042 251.125 117.587 249.219C114.879 248.528 112.198 248.947 109.834 250.433C106.364 252.613 103.847 256.831 102.746 262.307C100.502 273.463 97.8448 315.959 98.8558 318.668C99.5758 319.801 103.266 320.678 105.644 320.916C106.201 320.971 106.607 321.468 106.552 322.026C106.496 322.583 106.006 322.983 105.442 322.934C104.321 322.822 98.6518 322.138 97.1018 319.677C95.3448 316.885 98.9218 271.038 100.757 261.908C101.969 255.881 104.809 251.196 108.754 248.717C111.601 246.928 114.83 246.423 118.088 247.256C124.949 249.009 128.799 255.944 129.22 267.309C129.568 276.699 127.831 318.559 127.518 320.501C127.091 323.142 121.459 323.558 119.058 323.616C119.051 323.615 119.043 323.615 119.035 323.615Z" fill="#07003D"/>
<path d="M102.648 320.952C102.648 320.952 102.838 320.033 103.599 320.128C104.359 320.223 106.514 320.413 106.989 320.952C107.464 321.491 106.989 323.449 106.609 323.721C106.229 323.993 103.789 323.36 103.06 323.265C102.331 323.17 102.427 321.744 102.648 320.952Z" fill="#66657A"/>
<path d="M122.125 321.59C122.125 321.59 122.009 320.832 121.248 320.928C120.488 321.023 118.259 321.052 117.784 321.59C117.309 322.129 117.79 323.983 118.171 324.255C118.551 324.527 120.984 323.998 121.713 323.903C122.442 323.808 122.347 322.383 122.125 321.59Z" fill="#66657A"/>
<path d="M118.214 246.763C114.817 245.894 111.453 246.421 108.485 248.286C104.421 250.84 101.5 255.642 100.261 261.807C100.133 262.442 99.9897 263.347 99.8357 264.433L102.858 264.63C102.987 263.791 103.116 263.036 103.243 262.407C104.316 257.068 106.752 252.968 110.103 250.862C112.346 249.451 114.891 249.052 117.46 249.71C124.206 251.435 126.2 259.361 126.625 266.181L129.674 266.38C129.072 255.313 125.126 248.529 118.214 246.763Z" fill="#66657A"/>
<path d="M191.942 171.914C180.591 127.081 163.677 121.201 158.49 120.479L159.175 122.694C164.63 124.008 179.59 131.391 189.976 172.412C202.927 223.568 190.158 254.273 190.027 254.578L191.89 255.379C192.024 255.069 205.076 223.793 191.942 171.914Z" fill="#07003D"/>
<path d="M190.939 263.637C194.998 263.637 198.289 260.347 198.289 256.288C198.289 252.228 194.998 248.938 190.939 248.938C186.88 248.938 183.589 252.228 183.589 256.288C183.589 260.347 186.88 263.637 190.939 263.637Z" fill="#66657A"/>
<path d="M195.247 256.286C195.247 258.666 193.318 260.595 190.938 260.595C188.558 260.595 186.629 258.666 186.629 256.286C186.629 253.906 188.558 251.977 190.938 251.977C193.318 251.977 195.247 253.906 195.247 256.286Z" fill="#8C8C9B"/>
</svg>
