<svg width="587" height="448" viewBox="0 0 587 448" fill="none" xmlns="http://www.w3.org/2000/svg">
<path d="M282.66 112.777H226.489V191.863H282.66V112.777Z" fill="#572127"/>
<path d="M271.562 155.549L261.741 151.175L266.594 138.965C266.972 138.013 266.18 136.883 265.27 136.633C265.175 136.607 265.083 136.597 264.991 136.585C258.954 133.667 252.918 130.75 246.881 127.832C245.96 127.387 244.832 127.58 244.287 128.512C243.801 129.343 244.041 130.658 244.967 131.106C250.753 133.903 256.54 136.699 262.326 139.496C258.75 148.494 255.174 157.493 251.598 166.491C251.22 167.443 252.012 168.573 252.922 168.823C254 169.119 254.874 168.454 255.254 167.499L260.348 154.68C263.448 156.061 266.548 157.441 269.648 158.822C270.552 159.224 271.728 159.115 272.242 158.142C272.679 157.318 272.529 155.98 271.562 155.549Z" fill="#1D1D23"/>
<path d="M250.132 181.257C257.14 181.257 262.821 175.576 262.821 168.568C262.821 161.56 257.14 155.879 250.132 155.879C243.124 155.879 237.443 161.56 237.443 168.568C237.443 175.576 243.124 181.257 250.132 181.257Z" fill="white"/>
<path d="M266.383 145.499C270.141 145.499 273.188 142.452 273.188 138.694C273.188 134.935 270.141 131.889 266.383 131.889C262.625 131.889 259.578 134.935 259.578 138.694C259.578 142.452 262.625 145.499 266.383 145.499Z" fill="white"/>
<path d="M241.308 139.619C247.032 139.619 251.673 134.978 251.673 129.254C251.673 123.529 247.032 118.889 241.308 118.889C235.583 118.889 230.943 123.529 230.943 129.254C230.943 134.978 235.583 139.619 241.308 139.619Z" fill="#1D1D23"/>
<path d="M271.101 162.581C273.707 162.581 275.819 160.468 275.819 157.863C275.819 155.257 273.707 153.145 271.101 153.145C268.495 153.145 266.383 155.257 266.383 157.863C266.383 160.468 268.495 162.581 271.101 162.581Z" fill="#1D1D23"/>
<path d="M160.79 29.7285H50.7429V129.441H160.79V29.7285Z" fill="#572127"/>
<path d="M138.755 69.4159C139.253 71.3749 140.706 73.1189 142.624 73.7499C143.106 73.9079 143.62 73.9909 144.127 74.0409C142.682 74.4309 141.13 73.8419 139.735 73.2269C136.563 71.8399 133.45 70.2709 130.095 69.4329C127.612 68.8099 124.955 68.1459 122.481 68.4619C122.979 67.8059 123.452 67.1339 123.876 66.4689C124.573 66.3279 125.296 66.2779 126.01 66.3279C128.991 66.5189 131.656 68.3369 134.62 68.7689C135.6 68.9099 136.712 68.8599 137.435 68.1789C138.033 67.6229 138.232 66.7759 138.465 65.9949C138.731 65.1399 139.071 64.3009 139.495 63.5039L139.57 63.5459C138.638 65.3389 138.256 67.4569 138.755 69.4159Z" fill="#1D1D23"/>
<path d="M144.127 74.0402C143.621 73.9902 143.106 73.9072 142.624 73.7492C140.706 73.1182 139.253 71.3742 138.755 69.4152C138.257 67.4562 138.639 65.3382 139.569 63.5452C140.399 61.9512 141.645 60.5893 143.056 59.4603C147.141 60.1413 151.176 58.1562 151.176 58.1562C151.259 60.4392 153.517 62.7972 154.896 64.0342C154.979 66.6582 153.925 69.2903 152.073 71.1413C150.089 73.1423 147.224 74.2132 144.409 74.0552C144.318 74.0482 144.218 74.0482 144.127 74.0402Z" fill="#1D1D23"/>
<path d="M85.5249 66.3276C86.2389 66.2776 86.9609 66.3276 87.6589 66.4686C88.0819 67.1326 88.5559 67.8056 89.0539 68.4616C86.5879 68.1456 83.9229 68.8106 81.4399 69.4326C78.0859 70.2716 74.9639 71.8406 71.7999 73.2266C70.4049 73.8406 68.8519 74.4306 67.3989 74.0406C67.9139 73.9906 68.4199 73.9076 68.9099 73.7496C70.8279 73.1186 72.2729 71.3746 72.7709 69.4156C73.2359 67.6306 72.9449 65.7046 72.1899 64.0186L72.2729 63.9766C72.5889 64.6246 72.8539 65.3046 73.0619 65.9946C73.3029 66.7746 73.5019 67.6216 74.0919 68.1786C74.8229 68.8596 75.9269 68.9096 76.9149 68.7686C79.8789 68.3376 82.5359 66.5186 85.5249 66.3276Z" fill="#1D1D23"/>
<path d="M67.3989 74.0402C67.3079 74.0482 67.2159 74.0482 67.1249 74.0572C64.3099 74.2152 61.4459 73.1442 59.4529 71.1432C57.6099 69.2912 56.5549 66.6592 56.6379 64.0362C58.0159 62.7992 60.2749 60.4412 60.3579 58.1582C60.3579 58.1582 64.3849 60.1422 68.4779 59.4622C69.8889 60.6002 71.1269 61.9532 71.9569 63.5472C72.0399 63.7052 72.1149 63.8632 72.1889 64.0202C72.9449 65.7052 73.2349 67.6322 72.7699 69.4172C72.2719 71.3762 70.8269 73.1202 68.9089 73.7512C68.4209 73.9072 67.9139 73.9902 67.3989 74.0402Z" fill="#1D1D23"/>
<path d="M89.0529 68.4611C88.5549 67.8051 88.0819 67.1331 87.6579 66.4681C84.6269 61.8931 82.9749 57.4591 82.9749 57.4591C71.0599 56.7701 72.7619 47.5291 66.5929 46.0921C60.4239 44.6641 61.6529 50.7671 61.4529 53.3901C61.2869 55.5401 66.2519 58.2221 68.0369 59.1191C68.1859 59.2271 68.3359 59.3431 68.4769 59.4591C64.3839 60.1401 60.3569 58.1551 60.3569 58.1551C60.2739 60.4381 58.0159 62.7961 56.6369 64.0331C56.0309 64.5811 55.5909 64.9051 55.5909 64.9051C57.0189 61.7331 56.1469 57.2331 56.1469 57.2331C55.0509 52.8411 54.8769 45.3431 62.3739 42.4541C69.8799 39.5731 71.8969 48.2251 76.2229 51.3461C80.5489 54.4601 85.8049 53.9451 92.9619 48.8051C100.111 43.6651 105.765 44.0721 105.765 44.0721C105.765 44.0721 111.411 43.6651 118.568 48.8051C125.725 53.9451 130.973 54.4591 135.307 51.3461C139.633 48.2241 141.65 39.5721 149.148 42.4541C156.654 45.3431 156.479 52.8411 155.383 57.2331C155.383 57.2331 154.503 61.7331 155.939 64.9051C155.939 64.9051 155.499 64.5811 154.893 64.0331C153.515 62.7961 151.256 60.4381 151.173 58.1551C151.173 58.1551 147.138 60.1391 143.053 59.4591C143.186 59.3431 143.327 59.2351 143.468 59.1351C145.228 58.2551 150.243 55.5561 150.077 53.3891C149.869 50.7651 151.107 44.6631 144.937 46.0911C138.768 47.5271 140.47 56.7691 128.547 57.4581C128.547 57.4581 126.903 61.8921 123.872 66.4671C123.449 67.1311 122.975 67.8041 122.477 68.4601C121.771 69.4071 121.007 70.3281 120.185 71.1921C114.846 76.7961 114.091 81.3551 115.743 86.0871C117.387 90.8111 116.548 101.489 112.33 109.111C108.12 116.725 110.894 123.475 110.312 124.978C109.739 126.473 107.63 126.506 107.946 120.187C108.27 113.868 109.881 107.782 111.815 103.565C113.75 99.3551 114.812 93.7011 113.833 87.1831C113.833 87.1831 112.994 91.8241 109.333 90.9861C107.199 90.5041 106.46 88.2461 106.46 85.3071C106.46 83.1901 106.842 80.7151 107.373 78.2911C108.643 72.4961 116.722 56.3631 124.51 55.8481C124.51 55.8481 121.513 52.9001 115.161 55.0431C108.818 57.1771 105.762 56.4791 105.762 56.4791C105.762 56.4791 102.707 57.1761 96.3629 55.0431C90.0109 52.9011 87.0139 55.8481 87.0139 55.8481C94.8019 56.3631 102.881 72.4951 104.151 78.2911C104.682 80.7151 105.064 83.1901 105.064 85.3071C105.064 88.2461 104.325 90.5051 102.191 90.9861C98.5209 91.8251 97.6909 87.1831 97.6909 87.1831C96.7029 93.7011 97.7739 99.3551 99.7089 103.565C101.644 107.783 103.254 113.869 103.57 120.187C103.894 126.506 101.785 126.472 101.204 124.978C100.631 123.475 103.404 116.725 99.1859 109.111C94.9759 101.489 94.1379 90.8111 95.7819 86.0871C97.4259 81.3541 96.6789 76.7961 91.3399 71.1921C90.5229 70.3291 89.7589 69.4081 89.0529 68.4611Z" fill="white"/>
<path d="M478.713 88.4548C496.245 88.4548 510.457 74.2425 510.457 56.7108C510.457 39.1791 496.245 24.9668 478.713 24.9668C461.181 24.9668 446.969 39.1791 446.969 56.7108C446.969 74.2425 461.181 88.4548 478.713 88.4548Z" fill="white"/>
<path d="M478.713 90.2437C460.223 90.2437 445.18 75.2007 445.18 56.7107C445.18 38.2207 460.223 23.1777 478.713 23.1777C497.204 23.1777 512.247 38.2207 512.247 56.7107C512.247 75.2007 497.203 90.2437 478.713 90.2437ZM478.713 26.7557C462.196 26.7557 448.758 40.1937 448.758 56.7107C448.758 73.2277 462.196 86.6657 478.713 86.6657C495.23 86.6657 508.669 73.2277 508.669 56.7107C508.669 40.1937 495.23 26.7557 478.713 26.7557Z" fill="#572127"/>
<path d="M478.336 60.7548C480.28 60.7548 481.856 59.1789 481.856 57.2348C481.856 55.2908 480.28 53.7148 478.336 53.7148C476.392 53.7148 474.816 55.2908 474.816 57.2348C474.816 59.1789 476.392 60.7548 478.336 60.7548Z" fill="#323249"/>
<path d="M478.463 57.6945H478.21C477.522 57.6945 476.959 57.1315 476.959 56.4435V29.5635C476.959 28.8755 477.522 28.3125 478.21 28.3125H478.463C479.151 28.3125 479.714 28.8755 479.714 29.5635V56.4435C479.714 57.1315 479.151 57.6945 478.463 57.6945Z" fill="#323249"/>
<path d="M477.73 56.7532L477.909 56.5742C478.396 56.0872 479.192 56.0872 479.678 56.5742L492.794 69.6902C493.281 70.1772 493.281 70.9732 492.794 71.4592L492.615 71.6382C492.128 72.1252 491.332 72.1252 490.846 71.6382L477.73 58.5222C477.244 58.0352 477.244 57.2392 477.73 56.7532Z" fill="#323249"/>
<path d="M293.048 447.882C454.894 447.882 586.096 442.088 586.096 434.941C586.096 427.794 454.894 422 293.048 422C131.202 422 0 427.794 0 434.941C0 442.088 131.202 447.882 293.048 447.882Z" fill="#572127"/>
<path d="M170.012 287.994C158.127 296.073 153.145 311.066 143.31 321.555C135.405 329.994 124.251 335.282 112.737 336.122C112.726 336.187 112.726 336.242 112.715 336.307L111.559 336.198C111.515 336.362 111.494 336.525 111.461 336.689L110.512 336.602C110.534 336.471 110.545 336.329 110.556 336.199C111.799 323.289 113.369 310.391 113.522 297.416C113.62 289.347 113.031 281.29 111.767 273.374L112.334 273.287C112.443 273.189 112.541 273.091 112.65 272.993L112.694 273.037C112.716 273.124 112.749 273.222 112.759 273.31L112.966 273.255C113.01 273.026 113.042 272.808 113.086 272.579L113.871 272.459C115.212 280.713 115.779 289.065 115.681 297.428C118.222 294.419 120.609 291.333 122.855 288.106C126.966 282.196 130.596 275.971 133.693 269.494C134.511 261.829 136.702 254.327 140.126 247.426C141.38 244.896 142.797 242.454 144.367 240.11C150.669 230.744 159.457 223.057 169.597 218.074C164.636 225.303 162.662 234.08 160.111 242.465C157.571 250.85 154.049 259.463 147.092 264.784C144.835 266.518 142.284 267.837 139.743 269.156C138.206 269.952 136.657 270.748 135.109 271.544C129.952 282.066 123.421 291.901 115.712 300.765C115.679 300.809 115.647 300.82 115.614 300.841C115.331 310.371 114.371 319.878 113.412 329.364C117.054 319.082 124.195 310.054 132.929 303.425C143.692 295.255 156.743 290.501 170.012 287.994Z" fill="#572127"/>
<path d="M115.408 395.139C115.811 396.491 113.707 397.058 113.304 395.717C109.989 384.617 108.91 372.984 109.008 361.437C109.008 360.914 109.019 360.401 109.03 359.878C108.834 359.758 108.659 359.584 108.561 359.3C106.762 354.099 104.974 348.887 103.175 343.686C100.1 334.745 97.276 325.663 93.765 316.896C92.718 314.29 91.552 311.717 90.21 309.242C88.378 307.999 86.263 307.127 84.126 306.494C80.724 305.48 77.17 304.957 73.801 303.812C69.014 302.187 64.675 299.287 61.349 295.493C56.955 290.477 54.447 284.153 51.634 278.124C48.832 272.084 45.463 265.989 40 262.183C53.422 261.692 66.975 266.708 76.853 275.834C86.47 284.72 92.488 297.401 93.306 310.485C96.413 316.82 98.572 323.645 100.873 330.296C103.642 338.354 106.423 346.4 109.192 354.458C109.443 348.483 109.955 342.541 110.511 336.598L111.46 336.685C111.493 336.521 111.515 336.358 111.558 336.194L112.714 336.303C110.829 355.92 109.706 376.036 115.408 395.139Z" fill="#572127"/>
<path d="M148.369 207.787C144.618 212.77 142.656 218.865 141.216 224.949C139.777 231.022 138.784 237.226 136.658 243.092C136.244 244.237 135.786 245.36 135.284 246.461C133.125 251.258 130.203 255.696 126.638 259.567C125.068 261.268 123.378 262.871 121.688 264.452C119.278 266.72 116.88 268.988 114.47 271.267C114.241 271.474 114.012 271.692 113.783 271.91C113.816 272.095 113.848 272.27 113.87 272.455L113.085 272.575C113.041 272.804 113.009 273.022 112.965 273.251L112.758 273.306C112.747 273.219 112.714 273.121 112.693 273.033L112.649 272.989C112.54 273.087 112.442 273.185 112.333 273.283L111.766 273.37C111.559 272.051 111.33 270.731 111.079 269.412C110.654 268.671 110.174 267.962 109.694 267.264C100.721 254.333 87.5171 244.694 79.0451 231.436C71.9471 220.358 68.5011 206.991 69.3411 193.863C76.5481 202.161 88.2471 204.941 96.8181 211.821C105.53 218.81 110.436 229.681 112.355 240.671C113.914 249.677 113.685 258.858 113.064 267.995C113.119 268.202 113.151 268.42 113.195 268.627C113.304 269.161 113.402 269.706 113.5 270.241C114.492 264.909 115.713 259.621 117.153 254.398C119.617 245.468 122.779 236.626 127.936 228.939C133.421 220.773 140.933 214.21 148.369 207.787Z" fill="#572127"/>
<path d="M142.676 367.852L134.082 432H91.104L82.51 367.852H142.676Z" fill="#323249"/>
<path d="M146.767 360.967H78.467V367.853H146.767V360.967Z" fill="#1D1D23"/>
<path d="M400.281 161.437L393.321 206.957C396.891 219.307 405.381 252.467 398.111 262.777C388.521 276.397 372.401 276.117 372.401 276.117H318.941L285.891 245.997L283.861 244.157C283.861 244.157 307.191 229.657 323.331 223.717C314.771 206.727 331.011 177.127 334.011 172.077C333.961 172.047 333.921 172.007 333.881 171.967L333.831 171.917C334.051 171.717 334.261 171.527 334.481 171.337C332.971 167.957 329.801 158.887 334.591 150.327C340.641 139.557 363.371 120.657 363.371 120.657C363.371 120.657 356.351 130.317 356.351 134.487C356.351 138.657 380.181 118.017 380.181 118.017C380.181 118.017 388.071 111.307 394.361 113.077C394.361 113.077 403.951 113.917 404.651 126.287C405.341 138.657 402.981 161.587 402.981 161.587L400.281 161.437Z" fill="#8B3A3A"/>
<path d="M394.36 113.075C388.07 111.305 380.18 118.015 380.18 118.015C380.18 118.015 356.35 138.655 356.35 134.485C356.35 130.315 363.37 120.655 363.37 120.655L364.3 108.575C369.52 104.725 371.17 96.8952 371.55 94.6552C369.73 96.0652 367.48 97.4352 365.08 98.5852C359.96 101.045 354.19 102.435 350.59 100.825C346.12 98.8152 345.1 93.6952 345.31 84.8252C345.39 81.0552 345.7 76.6052 346.06 71.4252C346.15 70.1452 346.27 68.9552 346.41 67.8252C346.97 63.3652 347.9 60.0452 348.92 57.5852C350.46 53.8352 352.2 52.0752 353.11 51.3652C353.17 52.9352 354.22 54.4452 355.52 55.3952C357.08 56.5352 358.98 57.0552 360.81 57.6652C363.48 58.5452 366.13 59.6652 368.29 61.4652C370.2 63.0552 371.7 65.2452 372.13 67.6752C372.6 66.1652 373.87 64.9552 375.2 64.0252C377.09 62.7052 379.41 61.6752 381.66 62.1852C384.64 62.8652 386.48 66.1852 386.31 69.2352C386.13 72.2952 384.38 75.0452 382.31 77.3052C381 78.7352 379.44 80.0752 377.62 80.6752C376.39 83.1852 376.19 86.2652 377.81 88.5052C379.38 90.6952 382.24 91.5752 384.05 93.5652C385.42 95.0652 386.09 97.0652 386.51 99.0552C386.9 100.925 387.07 102.935 386.49 104.725C387.83 104.115 389.25 103.695 390.71 103.465L394.36 113.075Z" fill="#FFC7B3"/>
<path d="M339.501 80.6262C339.501 80.6262 346.301 68.2262 346.401 67.8262H346.411C346.271 68.9562 346.151 70.1462 346.061 71.4262C345.701 76.6062 345.391 81.0562 345.311 84.8262C341.941 84.2762 339.501 80.6262 339.501 80.6262Z" fill="#DD9585"/>
<path d="M365.891 76.3262C368.721 76.3262 371.021 78.6162 371.021 81.4562C371.021 84.2862 368.721 86.5762 365.891 86.5762C363.061 86.5762 360.761 84.2862 360.761 81.4562C360.761 78.6162 363.061 76.3262 365.891 76.3262Z" fill="#FFA18F"/>
<path d="M285.891 245.996C285.891 245.996 270.281 255.876 269.271 260.966C268.861 263.026 272.281 283.286 276.511 306.726C276.511 306.726 265.791 264.096 267.041 259.166C268.291 254.226 283.861 244.156 283.861 244.156L285.891 245.996Z" fill="#FFC7B3"/>
<path d="M319.581 374.296C319.581 374.296 329.451 382.866 322.641 390.096C317.291 395.776 315.631 395.106 312.731 397.786C311.201 390.496 306.701 379.206 306.701 379.206C306.701 379.206 308.391 359.576 308.431 337.836L319.581 374.296Z" fill="#FFC7B3"/>
<path d="M312.731 397.786C313.131 399.666 313.321 401.286 313.191 402.376C312.541 407.656 298.181 413.306 291.691 420.906C285.201 428.506 268.891 428.226 276.121 422.386C283.351 416.556 290.761 382.916 290.761 382.916C290.761 382.916 282.751 341.356 276.511 306.726C272.281 283.286 268.861 263.026 269.271 260.966C270.281 255.876 285.891 245.996 285.891 245.996L318.941 276.116L295.771 280.796C306.151 283.016 308.471 311.926 308.431 337.836C308.391 359.576 306.701 379.206 306.701 379.206C306.701 379.206 311.201 390.496 312.731 397.786Z" fill="#FFC7B3"/>
<path d="M342.011 177.026C342.661 177.526 343.281 178.116 343.571 178.886C343.631 179.056 343.681 179.256 343.621 179.426C343.551 179.646 343.331 179.786 343.121 179.886C342.241 180.316 341.221 180.476 340.241 180.336C341.611 181.286 342.951 182.256 344.261 183.266C345.421 184.146 346.571 185.066 347.381 186.276C347.761 186.856 348.021 187.726 347.491 188.176C347.301 188.336 347.051 188.396 346.801 188.436C344.681 188.826 342.521 188.086 340.551 187.206C342.061 188.766 343.291 190.616 344.161 192.606C344.431 193.256 344.601 194.146 344.011 194.526C343.761 194.686 343.441 194.696 343.141 194.676C341.651 194.576 340.191 194.126 338.911 193.356C339.411 194.176 339.861 195.026 340.261 195.906C340.421 196.246 340.561 196.656 340.401 196.996C340.251 197.306 339.891 197.446 339.571 197.536C337.871 197.996 335.991 197.766 334.451 196.896L334.421 196.866C333.691 197.626 332.411 197.726 331.411 197.316C330.351 196.886 329.551 196.006 328.831 195.116C328.261 194.406 327.721 193.676 327.201 192.926C326.411 191.736 325.701 190.486 325.111 189.186C324.741 188.356 324.411 187.496 324.251 186.606C323.821 184.186 324.661 181.686 326.031 179.646C327.391 177.616 329.251 175.966 331.091 174.346C332.001 173.526 332.921 172.716 333.831 171.916L333.881 171.966C336.261 174.106 339.471 175.086 342.011 177.026Z" fill="#FFC7B3"/>
<path d="M374.651 160.025L400.281 161.435C400.281 161.435 398.901 199.165 395.471 204.815C395.151 205.345 394.401 206.075 393.321 206.955C383.051 215.315 342.271 237.565 340.871 238.335C340.841 238.345 340.831 238.355 340.831 238.355C340.831 238.355 336.291 243.385 334.561 243.385C332.821 243.385 327.091 243.285 324.141 240.395C321.181 237.515 318.231 233.275 319.101 231.915C319.961 230.565 320.561 228.725 320.561 228.725C320.561 228.725 320.191 226.935 320.751 225.495C321.111 224.565 321.851 223.785 323.331 223.715C327.121 223.545 334.181 227.405 334.181 227.405L371.011 192.795L374.651 160.025Z" fill="#FFC7B3"/>
<path d="M393.321 206.955C393.321 206.955 394.171 209.445 395.321 213.405C387.431 219.485 342.421 237.715 340.871 238.335C342.271 237.565 383.051 215.315 393.321 206.955Z" fill="#1D1D23"/>
<path d="M430.461 91.5717C428.738 89.4317 426.408 87.9097 424.489 85.9647C423.532 84.9947 422.681 83.9137 422.123 82.6627C421.61 81.5117 421.356 80.2457 421.23 78.9967C420.757 74.3267 421.812 69.0457 418.419 65.2137C415.401 61.8057 410.838 61.0477 406.687 59.6637C406.495 59.4707 406.309 59.2717 406.13 59.0657C403.46 55.9557 402.83 51.6457 401.32 47.8357C397.19 37.3757 385.25 30.6357 374.15 32.4957C364.62 34.0957 356.43 41.1557 346.78 41.5757C346.23 41.6057 345.65 41.6257 345.22 41.9657C344.86 42.2557 344.7 42.7357 344.59 43.1857C343.26 48.2857 345 54.0557 348.92 57.5857C350.46 53.8357 352.2 52.0757 353.11 51.3657C353.17 52.9357 354.22 54.4457 355.52 55.3957C357.08 56.5357 358.98 57.0557 360.81 57.6657C363.48 58.5457 366.13 59.6657 368.29 61.4657C370.2 63.0557 371.7 65.2457 372.13 67.6757C372.6 66.1657 373.87 64.9557 375.2 64.0257C377.09 62.7057 379.41 61.6757 381.66 62.1857C384.64 62.8657 386.48 66.1857 386.31 69.2357C386.13 72.2957 384.38 75.0457 382.31 77.3057C381.004 78.7317 379.449 80.0667 377.636 80.6697C377.437 80.5997 377.207 80.6387 377.075 80.8807C375.468 83.8457 375.498 87.6067 377.267 90.5017C379.139 93.5647 382.48 95.1337 385.147 97.3707C385.581 97.7347 385.997 98.1207 386.389 98.5277C386.43 98.7037 386.472 98.8797 386.509 99.0557C386.899 100.926 387.069 102.936 386.489 104.726C387.829 104.116 389.249 103.696 390.709 103.466C393.099 103.066 395.579 103.196 397.919 103.856C400.599 104.606 403.039 106.026 405.599 107.106C408.169 108.196 411.019 108.956 413.729 108.316C416.519 107.656 418.749 105.626 421.159 104.066C423.068 102.834 425.427 101.877 427.593 102.186C427.673 102.283 427.795 102.348 427.962 102.343C428.032 102.341 428.098 102.323 428.168 102.317C428.302 102.351 428.438 102.37 428.569 102.415C428.593 102.364 428.608 102.311 428.63 102.259C430.528 101.899 432.044 100.294 432.489 98.4097C433.071 95.9537 431.98 93.4587 430.461 91.5717ZM377.026 87.0357C377.019 86.9927 377.016 86.9497 377.009 86.9077C377.198 87.4697 377.453 88.0107 377.811 88.5057C379.381 90.6957 382.241 91.5757 384.051 93.5657C384.871 94.4637 385.436 95.5417 385.851 96.6877C382.409 93.8267 377.875 91.8387 377.026 87.0357ZM431.049 99.3417C430.58 100.155 429.863 100.816 429.001 101.135C429.786 97.7487 427.935 93.9677 425.63 91.1747C422.99 87.9447 419.63 85.0647 418.4 81.0847C417.07 76.7647 418.47 71.7647 416.26 67.8247C414.587 64.8427 411.301 63.3007 408.529 61.2327C410.689 61.8847 412.852 62.5367 414.826 63.6517C416.938 64.8457 418.641 66.5677 419.389 68.9157C420.12 71.2077 420.046 73.6577 420.085 76.0347C420.123 78.3407 420.233 80.7137 421.132 82.8697C422.103 85.2017 423.962 86.9437 425.846 88.5537C428.086 90.4697 430.604 92.4627 431.421 95.4337C431.78 96.7397 431.736 98.1517 431.049 99.3417Z" fill="#1D1D23"/>
<path d="M371.551 94.6562C371.171 96.8963 369.521 104.726 364.301 108.576L365.081 98.5863C367.481 97.4363 369.731 96.0662 371.551 94.6562Z" fill="#1D1D23"/>
<path d="M284.224 245.333C277.489 248.4 269.349 252.477 268.126 260.658C267.477 264.995 268.802 269.395 269.738 273.594C270.737 278.075 271.736 282.556 272.735 287.037C273.869 292.124 275.003 297.21 276.137 302.297C276.277 302.925 277.241 302.659 277.101 302.031C275.166 293.351 273.231 284.672 271.296 275.992C270.813 273.827 270.323 271.663 269.849 269.496C269.389 267.395 268.97 265.267 268.953 263.108C268.923 259.201 270.599 255.778 273.349 253.062C276.538 249.911 280.703 248.03 284.729 246.197C285.314 245.93 284.806 245.068 284.224 245.333Z" fill="#323249"/>
<path d="M309.431 387.359C308.814 385.74 308.226 384.104 307.823 382.416C307.376 380.545 307.19 378.63 307.148 376.709C307.064 372.919 307.44 369.117 307.688 365.339L308.465 353.447C308.757 348.988 309.048 344.528 309.34 340.069C309.382 339.426 308.382 339.429 308.34 340.069L306.785 363.853C306.536 367.655 306.179 371.47 306.141 375.281C306.104 378.977 306.628 382.509 307.864 385.995C309.168 389.671 310.923 393.264 311.332 397.19C311.398 397.824 312.399 397.831 312.332 397.19C311.972 393.746 310.652 390.565 309.431 387.359Z" fill="#323249"/>
<path d="M372.114 138.029C372.087 137.388 371.087 137.384 371.114 138.029C371.423 145.355 372.126 152.658 373.208 159.91C373.303 160.544 374.266 160.275 374.172 159.644C373.104 152.481 372.42 145.265 372.114 138.029Z" fill="#323249"/>
<path d="M369.063 189.396C368.15 187.49 367.236 185.584 366.323 183.678C366.206 183.434 365.858 183.37 365.639 183.499C365.39 183.645 365.342 183.939 365.46 184.183C366.373 186.089 367.287 187.995 368.2 189.901C368.317 190.144 368.665 190.209 368.884 190.08C369.132 189.934 369.18 189.64 369.063 189.396Z" fill="#323249"/>
<path d="M366.674 189.926C365.513 188.91 364.351 187.894 363.19 186.878C362.987 186.7 362.683 186.678 362.483 186.878C362.302 187.059 362.279 187.407 362.483 187.585C363.644 188.601 364.806 189.617 365.967 190.633C366.17 190.811 366.474 190.833 366.674 190.633C366.855 190.452 366.878 190.105 366.674 189.926Z" fill="#323249"/>
<path d="M357.903 173.558C350.465 171.668 342.767 170.889 335.101 171.26C334.46 171.291 334.457 172.291 335.101 172.26C342.683 171.893 350.281 172.653 357.637 174.523C358.261 174.68 358.527 173.716 357.903 173.558Z" fill="#323249"/>
<path d="M309.172 237.822C304.877 239.936 300.583 242.05 296.288 244.164C295.711 244.448 296.217 245.311 296.793 245.027C301.088 242.913 305.382 240.799 309.677 238.685C310.254 238.401 309.748 237.539 309.172 237.822Z" fill="#323249"/>
<path d="M306.182 242.411C304.465 243.38 302.749 244.349 301.033 245.318C300.472 245.634 300.976 246.499 301.538 246.181L306.688 243.274C307.247 242.959 306.743 242.094 306.182 242.411Z" fill="#323249"/>
<path d="M414.664 57.6203C411.977 58.4013 409.131 58.3383 406.478 57.4503C405.866 57.2453 405.604 58.2113 406.212 58.4143C409.024 59.3553 412.083 59.4112 414.929 58.5842C415.546 58.4052 415.284 57.4393 414.664 57.6203Z" fill="#1D1D23"/>
<path d="M411.411 55.2722C410.011 55.6982 408.552 55.8102 407.101 55.6192C406.833 55.5842 406.601 55.8742 406.601 56.1192C406.601 56.4192 406.832 56.5842 407.101 56.6192C408.632 56.8212 410.2 56.6852 411.677 56.2362C412.291 56.0492 412.029 55.0842 411.411 55.2722Z" fill="#1D1D23"/>
<path d="M358.349 63.1305C356.674 62.1575 355 61.1855 353.325 60.2125C352.646 59.8185 351.652 60.0335 351.273 60.7505C350.894 61.4675 351.086 62.3815 351.811 62.8025C353.486 63.7755 355.16 64.7475 356.835 65.7205C357.514 66.1145 358.508 65.8995 358.887 65.1825C359.266 64.4655 359.073 63.5515 358.349 63.1305Z" fill="#1D1D23"/>
<path d="M352.23 73.2121C353.941 73.2121 355.328 71.5784 355.328 69.5631C355.328 67.5478 353.941 65.9141 352.23 65.9141C350.519 65.9141 349.132 67.5478 349.132 69.5631C349.132 71.5784 350.519 73.2121 352.23 73.2121Z" fill="#1D1D23"/>
<path d="M351.91 91.6328C353.992 90.8355 355.171 88.8599 354.544 87.2203C353.916 85.5806 351.719 84.8977 349.637 85.695C347.554 86.4923 346.375 88.4679 347.003 90.1075C347.631 91.7472 349.828 92.4301 351.91 91.6328Z" fill="#FFA18F"/>
<path d="M355.21 85.9629C352.876 87.9909 350.004 89.3089 346.955 89.8029C346.321 89.9059 346.59 90.8689 347.221 90.7669C350.442 90.2449 353.456 88.8069 355.917 86.6699C356.404 86.2479 355.694 85.5429 355.21 85.9629Z" fill="#1D1D23"/>
<path d="M470.167 281.918C470.167 288.518 464.767 293.918 458.167 293.918H314.816C308.216 293.918 302.816 288.518 302.816 281.918H470.167Z" fill="#572127"/>
<path d="M302.816 281.918V269.191C302.816 262.591 308.216 257.191 314.816 257.191H458.167C464.767 257.191 470.167 262.591 470.167 269.191V281.919H302.816V281.918Z" fill="#572127"/>
<path d="M489.904 293.918H317.549V318.703H489.904V293.918Z" fill="#E2E2E2"/>
<path d="M470.26 337.253H336.823L327.928 318.703H478.414L470.26 337.253Z" fill="#E2E2E2"/>
<path opacity="0.2" d="M478.414 318.703L332.375 327.978L327.928 318.703H478.414Z" fill="#1D1D23"/>
<path d="M400.206 337.254L409.472 412.126H456.175V337.254H400.206Z" fill="#323249"/>
<path d="M506.214 412.125H357.951V430.658H506.214V412.125Z" fill="#E2E2E2"/>
<path d="M324.777 293.918L305.318 226.056L309.209 223.832L329.225 293.918H324.777Z" fill="#E2E2E2"/>
<path d="M288.811 215.869C279.261 220.219 277.712 233.226 286.076 239.563C286.187 239.647 286.3 239.732 286.414 239.816C297.812 248.225 307.75 218.063 320.19 220.496C332.63 222.929 326.167 229.392 337.148 229.392C348.129 229.392 338.677 201.106 328.53 202.149C319.668 203.059 313.775 204.499 288.811 215.869Z" fill="#572127"/>
<path d="M405.765 293.918L410.028 273.129H422.816L418.924 293.918H405.765Z" fill="#E2E2E2"/>
<path d="M422.816 273.129L412.335 251.15L405.765 253.438L414.291 273.129H422.816Z" fill="#323249"/>
<path d="M391.91 230.779L403.727 254.411L414.291 250.797C416.422 246.812 409.658 242.55 409.658 242.55C409.658 242.55 412.531 237.361 406.693 235.971L401.993 225.927C400.852 223.488 397.953 222.431 395.509 223.563L394.228 224.157C391.726 225.316 390.677 228.313 391.91 230.779Z" fill="#8B3A3A"/>
<path d="M466.275 293.919L564.128 135.709H574.136L478.414 293.919H466.275Z" fill="#E2E2E2"/>
<path d="M557.623 122.998C563.242 126.46 565.006 133.891 561.544 139.509L530.908 189.426C527.446 195.045 520.015 196.809 514.397 193.347L557.623 122.998Z" fill="#572127"/>
<path d="M514.397 193.348L503.562 186.671C497.943 183.209 496.179 175.778 499.641 170.16L530.277 120.243C533.739 114.624 541.17 112.86 546.788 116.322L557.623 122.999L514.397 193.348Z" fill="#572127"/>
<path d="M551.6 132.789L452.468 293.919H466.275L561.544 139.511L551.6 132.789Z" fill="#572127"/>
<path d="M505.237 187.703L453.951 269.554L463.877 275.374L514.397 193.348L505.237 187.703Z" fill="#572127"/>
<path d="M345.348 337.254H336.823V370.891H345.348V337.254Z" fill="#323249"/>
<path d="M316.711 207.733C311.634 209.618 306.557 211.503 301.479 213.389C296.945 215.073 292.185 216.612 288.256 219.521C286.302 220.968 284.59 222.716 283.358 224.823C283.032 225.38 283.896 225.883 284.221 225.328C286.494 221.442 290.395 218.975 294.419 217.193C296.661 216.2 298.978 215.381 301.275 214.528C303.735 213.614 306.196 212.701 308.656 211.787C311.429 210.757 314.202 209.728 316.975 208.698C317.574 208.475 317.316 207.508 316.711 207.733Z" fill="#323249"/>
<path d="M324.248 205.071C322.532 205.575 320.816 206.079 319.1 206.583C318.484 206.764 318.746 207.729 319.366 207.547C321.082 207.043 322.798 206.539 324.514 206.035C325.13 205.855 324.868 204.89 324.248 205.071Z" fill="#323249"/>
<path d="M405.413 250.613C401.967 243.641 398.521 236.669 395.076 229.696C394.791 229.119 393.928 229.625 394.212 230.201C397.658 237.173 401.104 244.145 404.549 251.118C404.835 251.694 405.698 251.188 405.413 250.613Z" fill="#323249"/>
<path d="M511.989 188.861C508.747 187.318 505.376 185.666 503.025 182.862C500.899 180.326 499.801 176.502 501.418 173.435C501.718 172.866 500.855 172.36 500.555 172.93C498.834 176.195 499.75 180.179 501.888 183.024C504.283 186.211 507.97 188.05 511.486 189.724C512.063 190 512.571 189.138 511.989 188.861Z" fill="#323249"/>
<path d="M552.267 126.261C545.998 135.682 539.729 145.103 533.46 154.524C531.692 157.181 529.924 159.838 528.155 162.496C527.798 163.033 528.663 163.535 529.019 163.001C535.288 153.58 541.557 144.159 547.826 134.738C549.594 132.081 551.362 129.424 553.131 126.766C553.488 126.228 552.622 125.727 552.267 126.261Z" fill="#323249"/>
<path d="M537.296 143.427C533.529 148.917 529.763 154.406 525.996 159.896C525.631 160.428 526.497 160.929 526.859 160.401C530.626 154.911 534.392 149.422 538.159 143.932C538.525 143.4 537.659 142.899 537.296 143.427Z" fill="#323249"/>
<path d="M217.933 57.1691C217.333 63.6591 215.893 70.2291 212.433 75.7591C211.583 77.1191 210.613 78.4191 209.393 79.4591C207.343 81.2191 204.693 82.1691 202.033 82.6591C201.463 82.7591 200.893 82.8491 200.323 82.8991C196.533 83.3191 192.633 82.8391 189.173 81.2691C186.133 79.8891 183.453 77.6191 181.703 74.7891L181.673 74.8091C182.673 77.7491 184.603 80.2691 186.763 82.4891C191.193 87.0691 196.733 90.5691 202.763 92.6291C202.863 93.0191 202.953 93.4191 203.053 93.8091C203.423 96.8091 203.173 99.9191 202.743 102.919C202.433 105.049 201.913 107.189 200.793 109.029C199.683 110.879 197.893 112.399 195.783 112.809C194.823 112.989 193.833 112.949 192.873 112.819C189.883 112.409 187.013 111.159 184.673 109.239C183.973 108.659 183.313 108.019 182.673 107.369C179.693 104.279 177.213 100.709 175.343 96.8491L172.153 87.8491V87.8391C172.433 86.3791 172.723 84.9091 173.003 83.4491C174.113 77.7891 175.213 72.1291 176.323 66.4691C176.803 63.9891 177.283 61.5091 177.773 59.0291C175.443 58.4791 173.493 56.6591 172.523 54.4591C171.553 52.2491 171.523 49.6991 172.183 47.3791C172.493 46.2991 172.953 45.2391 173.743 44.4391C174.523 43.6391 175.663 43.1291 176.773 43.3091C178.403 43.5791 179.443 45.1491 180.263 46.5891C184.663 46.7091 189.093 45.7391 193.033 43.7891C194.533 43.0491 195.963 42.1691 197.373 41.2691C202.353 38.0891 207.213 34.5891 210.973 30.0391C214.253 33.4791 216.323 37.9691 217.343 42.6291C217.743 44.4591 217.993 46.3191 218.123 48.1891C218.313 51.1791 218.213 54.1891 217.933 57.1691Z" fill="#ED8F66"/>
<path d="M212.283 146.899C212.203 146.929 210.693 205.849 210.603 205.879C204.663 206.549 197.933 205.939 194.363 205.499L198.543 179.119V179.109L175.343 96.8486C177.213 100.709 179.693 104.279 182.673 107.369C183.313 108.019 183.973 108.659 184.673 109.239C187.013 111.159 189.883 112.409 192.873 112.819C193.833 112.949 194.823 112.989 195.783 112.809C197.893 112.399 199.683 110.879 200.793 109.029C201.913 107.189 202.433 105.049 202.743 102.919C203.173 99.9186 203.423 96.8086 203.053 93.8086L212.283 146.899Z" fill="#8B3A3A"/>
<path d="M198.553 154.229L203.023 170.869L201.413 171.559L201.403 171.569L199.803 172.829L198.543 179.119L194.363 205.499L177.543 311.529L154.693 306.829L134.343 302.639C134.343 302.639 138.163 261.869 142.333 238.699C146.503 215.529 161.233 200.519 161.233 200.519L160.273 185.509C152.083 187.299 144.873 187.859 141.033 185.789C128.383 178.979 136.963 112.819 140.203 104.709C143.443 96.5992 162.163 92.0392 162.163 92.0392L162.073 90.8892L173.003 83.4492C172.723 84.9092 172.433 86.3792 172.153 87.8392V87.8492C172.853 90.9592 173.933 93.9892 175.343 96.8492L195.913 153.289L198.213 152.979L198.543 154.229C198.543 154.229 198.543 154.229 198.553 154.229Z" fill="white"/>
<path d="M225.133 181.508L241.673 295.968L234.343 299.668L222.583 305.598L213.403 229.198V229.188L210.603 205.878L207.383 179.148L203.053 93.8077C202.953 93.4177 202.863 93.0177 202.763 92.6277C202.363 91.0377 201.963 89.4377 201.563 87.8477L210.813 94.6077L211.683 97.4977C214.813 98.4877 227.833 102.808 230.923 107.118C233.153 110.228 242.873 144.668 247.313 162.408L247.193 162.328C248.013 166.638 248.503 170.258 248.523 172.718C248.603 183.908 230.703 182.278 225.133 181.508Z" fill="white"/>
<path d="M206.083 50.7285L210.723 62.7885C210.723 62.7885 207.193 65.4185 204.883 65.9285L206.083 50.7285Z" fill="#DD734E"/>
<path d="M187.473 68.0391C190.373 68.0391 192.723 65.6886 192.723 62.7891C192.723 59.8896 190.373 57.5391 187.473 57.5391C184.574 57.5391 182.223 59.8896 182.223 62.7891C182.223 65.6886 184.574 68.0391 187.473 68.0391Z" fill="#DD6B5F"/>
<path d="M201.563 134.729L212.023 146.999C210.973 147.409 209.893 147.889 208.833 148.389L198.113 137.139L201.563 134.729Z" fill="#1D1D23"/>
<path d="M266.383 145.498L247.313 162.408L228.373 179.198H222.333L207.383 179.148L198.543 179.108L191.813 179.088L201.403 171.568L201.423 171.558L219.283 157.558L224.773 153.258L229.063 149.898L244.023 148.138L266.383 145.498Z" fill="#323249"/>
<path d="M234.343 299.669C234.413 300.219 236.853 320.599 236.853 323.459C236.853 326.359 211.843 409.569 211.843 409.569L210.333 409.289L192.383 405.969L194.643 354.619L201.563 325.799L197.983 278.759L213.403 229.199L222.583 305.599L234.343 299.669Z" fill="#323249"/>
<path d="M192.383 405.968L192.123 411.798L169.893 416.928L166.443 417.728L154.693 306.828L177.543 311.528L194.363 205.498C197.933 205.938 204.663 206.548 210.603 205.878L213.403 229.188L199.973 233.508L197.983 278.758L194.643 354.618L192.383 405.968Z" fill="#323249"/>
<path d="M228.513 432.178H220.743C220.743 432.178 224.063 430.138 219.803 424.398C218.403 422.508 216.893 420.228 215.513 418.018C227.393 424.148 228.513 432.178 228.513 432.178Z" fill="#1D1D23"/>
<path d="M210.333 409.289C210.333 409.289 212.673 413.509 215.513 418.019C210.173 415.259 202.673 412.889 192.123 411.799L192.383 405.969L210.333 409.289Z" fill="#1D1D23"/>
<path d="M219.803 424.399C224.063 430.139 220.743 432.179 220.743 432.179H211.283H169.893V416.929L192.123 411.799C202.673 412.889 210.173 415.259 215.513 418.019C216.893 420.229 218.403 422.509 219.803 424.399Z" fill="#1D1D23"/>
<path d="M213.403 229.188V229.197L197.983 278.757L199.973 233.507L213.403 229.188Z" fill="#1D1D23"/>
<path d="M181.703 74.7891C183.453 77.6191 186.133 79.8891 189.173 81.2691C192.633 82.8391 196.533 83.3191 200.323 82.8991C200.733 84.5491 201.143 86.1991 201.563 87.8491C201.963 89.4391 202.363 91.0391 202.763 92.6291C196.733 90.5691 191.193 87.0691 186.763 82.4891C184.603 80.2691 182.673 77.7491 181.673 74.8091L181.703 74.7891Z" fill="#1D1D23"/>
<path d="M225.973 34.1975C225.653 32.4575 223.633 31.7275 221.973 31.1275C219.373 30.1775 216.943 28.7875 214.623 27.2775C211.333 25.1275 208.183 22.7075 204.613 21.0475C200.913 19.3375 196.823 18.5875 192.753 18.7375C185.903 18.9775 179.113 21.7175 174.253 26.5875C166.513 34.3375 164.123 46.8675 168.253 57.0175C168.763 58.2475 169.353 59.4475 170.073 60.5775C170.413 61.1375 170.783 61.6675 171.193 62.1875C172.593 63.9475 174.353 65.4075 176.323 66.4675C176.803 63.9875 177.283 61.5075 177.773 59.0275C175.443 58.4775 173.493 56.6575 172.523 54.4575C171.553 52.2475 171.523 49.6975 172.183 47.3775C172.493 46.2975 172.953 45.2375 173.743 44.4375C174.523 43.6375 175.663 43.1275 176.773 43.3075C178.075 43.5235 178.998 44.5705 179.736 45.7175C179.736 45.8765 179.814 46.0215 179.978 46.1015C180.076 46.2635 180.171 46.4265 180.263 46.5885C180.938 46.6065 181.614 46.5905 182.288 46.5585C187.238 47.3255 192.379 47.0845 197.116 45.3915C201.867 43.6935 206.05 40.4995 208.734 36.2025C209.881 34.3655 210.695 32.3575 211.163 30.2565C214.329 33.6685 216.343 38.0645 217.343 42.6295C217.743 44.4595 217.993 46.3195 218.123 48.1895C221.513 44.8995 224.103 40.8095 225.643 36.3495C225.883 35.6475 226.103 34.9175 225.973 34.1975ZM203.783 40.4225C199.831 43.8245 194.72 45.5715 189.559 45.9125C188.653 45.9725 187.746 45.9785 186.841 45.9585C188.984 45.4875 191.069 44.7595 193.033 43.7875C194.533 43.0475 195.963 42.1675 197.373 41.2675C201.88 38.3895 206.279 35.2415 209.863 31.2985C208.784 34.8395 206.59 38.0055 203.783 40.4225Z" fill="#1D1D23"/>
<path d="M192.753 18.7384C190.913 14.6284 187.233 11.3984 182.933 10.0984C182.108 9.84744 181.258 9.69144 180.403 9.58344C179.306 9.24044 178.178 8.98744 177.018 8.84944C172.061 8.25744 166.575 10.0344 163.473 14.0744C161.626 16.4794 161.154 19.5764 159.447 22.0554C157.778 24.4794 155.225 26.1234 152.804 27.7074C148.318 30.6424 143.179 34.5004 144.018 40.5584C144.506 44.0774 146.656 47.0504 148.578 49.9284C149.903 51.9124 151.277 54.1234 151.846 56.4864C151.964 57.2624 151.964 58.0464 151.783 58.8174C151.523 59.9274 150.923 60.9074 150.303 61.8574C148.903 64.0474 147.373 66.2074 146.503 68.6674C145.623 71.1174 145.493 73.9774 146.823 76.2274C147.923 78.0874 149.913 79.2974 152.003 79.8674C153.684 80.3284 155.43 80.3875 157.139 80.1255C159.786 80.9935 162.844 80.5874 165.21 79.0534C168.833 76.7034 170.677 72.4134 170.858 68.2064C170.936 66.3924 170.734 64.5834 170.349 62.8114C170.306 62.0614 170.218 61.3144 170.073 60.5774C169.353 59.4474 168.763 58.2474 168.253 57.0174C164.123 46.8674 166.513 34.3374 174.253 26.5874C179.113 21.7184 185.903 18.9784 192.753 18.7384ZM169.86 67.9784C169.81 69.6344 169.519 71.2764 168.899 72.8554C167.521 76.3664 164.492 79.3024 160.595 79.5664C160.221 79.5914 159.848 79.5854 159.476 79.5624C161.759 78.8024 163.883 77.4824 165.573 75.7684C167.677 73.6254 169.137 70.8924 169.86 67.9784ZM165.803 16.0884C164.893 17.8384 164.593 19.8684 163.603 21.5784C162.293 23.8484 159.953 25.2784 157.813 26.7684C154.373 29.1484 151.143 31.9984 149.073 35.6384C147.299 38.7734 146.476 42.5744 147.251 46.0614C146.845 45.3864 146.466 44.7064 146.139 44.0144C144.847 41.2874 144.412 38.2344 145.863 35.4774C147.156 33.0194 149.403 31.1924 151.663 29.6594C153.875 28.1594 156.206 26.8014 158.183 24.9844C159.166 24.0804 160.052 23.0544 160.734 21.9024C161.506 20.5984 161.995 19.1554 162.571 17.7594C163.606 15.2494 165.197 13.2024 167.541 11.7934C169.696 10.4984 172.207 9.81645 174.714 9.74645C174.927 9.74045 175.137 9.75045 175.348 9.75345C173.346 10.1404 171.412 10.8814 169.705 11.9994C168.103 13.0384 166.683 14.3984 165.803 16.0884Z" fill="#1D1D23"/>
<path d="M231.103 165.488L224.303 179.598C223.633 179.498 222.983 179.368 222.333 179.188C215.163 177.348 209.133 171.588 206.153 167.848C204.863 166.258 204.143 165.038 204.113 164.638C204.013 163.178 205.993 163.798 205.993 163.798C205.993 163.798 205.263 160.538 205.993 160.048C206.723 159.558 207.663 160.048 207.663 160.048C207.663 160.048 207.413 158.098 208.013 157.408C208.603 156.708 211.483 157.618 211.483 157.618C211.483 157.618 210.793 154.838 212.803 154.648C213.673 154.568 216.423 155.958 219.283 157.558C223.073 159.688 227.053 162.208 227.053 162.208C227.053 162.208 229.413 154.138 230.873 154.648C232.333 155.158 231.103 165.488 231.103 165.488Z" fill="#ED8F66"/>
<path d="M202.893 170.399L198.553 154.229C198.813 154.049 203.633 150.859 208.833 148.389C209.893 147.889 210.973 147.409 212.023 146.999L212.383 147.429L212.283 146.899C214.093 146.209 215.833 145.709 217.323 145.569C217.843 145.499 218.333 145.489 218.783 145.529C225.143 146.079 225.033 147.889 225.033 148.999C225.033 150.109 223.853 152.269 223.853 152.269C223.853 152.269 224.403 152.609 224.773 153.259L219.283 157.559C216.423 155.959 213.673 154.569 212.803 154.649C210.793 154.839 211.483 157.619 211.483 157.619C211.483 157.619 208.603 156.709 208.013 157.409C207.413 158.099 207.663 160.049 207.663 160.049C207.663 160.049 206.723 159.559 205.993 160.049C205.263 160.539 205.993 163.799 205.993 163.799C205.993 163.799 204.013 163.179 204.113 164.639C204.143 165.039 204.863 166.259 206.153 167.849L202.893 170.399Z" fill="#ED8F66"/>
<path d="M189.072 178.154C179.736 180.809 170.292 183.077 160.769 184.953C160.138 185.077 160.405 186.041 161.035 185.917C170.559 184.041 180.002 181.773 189.338 179.118C189.956 178.943 189.693 177.978 189.072 178.154Z" fill="#323249"/>
<path d="M194.181 152.711C185.648 153.454 177.114 154.196 168.581 154.939C166.328 155.135 164.076 155.331 161.823 155.527C162.22 145.53 163.086 135.553 164.444 125.64C164.53 125.011 163.567 124.738 163.48 125.374C162.08 135.591 161.179 145.871 160.791 156.176C160.773 156.652 161.313 156.773 161.607 156.546C170.033 155.813 178.459 155.079 186.885 154.346C189.317 154.134 191.749 153.923 194.182 153.711C194.818 153.655 194.824 152.655 194.181 152.711Z" fill="#323249"/>
<path d="M186.543 152.32C182.509 148.321 178.475 144.322 174.441 140.323C175.832 136.82 177.223 133.318 178.614 129.815C178.671 129.731 178.7 129.637 178.698 129.536C178.721 129.367 178.653 129.23 178.53 129.148C178.422 129.046 178.273 128.989 178.085 129.042C175.755 129.702 173.426 130.362 171.096 131.021C168.68 121.279 166.55 111.467 164.721 101.597C164.19 98.7344 163.685 95.8664 163.204 92.9944C163.098 92.3614 162.134 92.6294 162.24 93.2604C163.928 103.333 165.919 113.354 168.216 123.305C168.871 126.142 169.552 128.974 170.255 131.8C170.337 132.128 170.64 132.206 170.889 132.12C173.044 131.509 175.2 130.899 177.355 130.289C176.069 133.526 174.784 136.764 173.498 140.001C173.284 140.17 173.184 140.486 173.433 140.734C177.567 144.832 181.7 148.93 185.834 153.028C186.293 153.481 187.001 152.774 186.543 152.32Z" fill="#323249"/>
<path d="M231.251 136.424C230.912 133.839 229.915 131.406 228.808 129.065C227.622 126.555 226.34 124.088 225 121.658C223.481 118.901 221.87 116.197 220.177 113.543C219.832 113.002 218.966 113.503 219.313 114.048C222.192 118.558 224.827 123.222 227.194 128.021C228.338 130.34 229.463 132.704 230.031 135.241C230.593 137.749 230.405 140.278 229.669 142.729C228.831 145.521 227.421 148.096 226.018 150.636C225.707 151.2 226.57 151.705 226.882 151.141C229.37 146.636 231.949 141.744 231.251 136.424Z" fill="#323249"/>
<path d="M225.133 181.508L223.873 180.342L232.629 161.855L245.305 164.188L227.626 181.799L225.133 181.508Z" fill="white"/>
<path d="M220.772 164.571L211.699 157.532C211.197 157.142 210.484 157.845 210.992 158.239C214.016 160.585 217.041 162.932 220.065 165.278C220.567 165.667 221.28 164.965 220.772 164.571Z" fill="#323249"/>
<path d="M216.579 167.275C213.394 165.137 210.492 162.607 207.93 159.752C207.499 159.272 206.794 159.981 207.223 160.459C209.841 163.376 212.819 165.953 216.074 168.138C216.61 168.498 217.111 167.632 216.579 167.275Z" fill="#323249"/>
<path d="M214.25 169.49L206.292 163.822C205.767 163.448 205.267 164.315 205.787 164.685L213.745 170.353C214.27 170.727 214.77 169.86 214.25 169.49Z" fill="#323249"/>
<path d="M215.087 146.081C215.019 145.835 214.727 145.64 214.472 145.732C213.341 146.138 212.209 146.545 211.078 146.951C210.824 147.042 210.653 147.292 210.729 147.566C210.797 147.812 211.089 148.007 211.344 147.915C212.475 147.509 213.607 147.102 214.738 146.696C214.992 146.605 215.162 146.356 215.087 146.081Z" fill="#323249"/>
<path d="M216.577 120.731C215.111 113.227 213.645 105.722 212.179 98.2178C212.056 97.5868 211.092 97.8538 211.215 98.4838C212.656 105.859 214.097 113.235 215.538 120.61C213.301 122.104 211.065 123.599 208.828 125.093L208.825 125.096C208.465 125.174 208.256 125.751 208.662 126.034C210.851 127.558 213.041 129.083 215.23 130.607L210.849 144.917C210.66 145.534 211.625 145.797 211.813 145.183C213.293 140.348 214.773 135.512 216.254 130.677C216.282 130.585 216.279 130.504 216.262 130.43C216.278 130.261 216.224 130.085 216.049 129.963C213.974 128.518 211.899 127.073 209.824 125.629L216.24 121.342C216.262 121.327 216.272 121.307 216.291 121.291C216.483 121.193 216.63 120.998 216.577 120.731Z" fill="#323249"/>
<path d="M193.719 180.273C190.631 196.644 187.543 213.015 184.454 229.387L175.236 278.254C173.498 287.468 171.76 296.682 170.022 305.896C169.903 306.525 170.867 306.794 170.986 306.162C174.074 289.791 177.162 273.42 180.251 257.048L189.469 208.181C191.207 198.967 192.945 189.753 194.683 180.539C194.802 179.91 193.839 179.641 193.719 180.273Z" fill="#323249"/>
<path d="M194.255 355.509C193.722 368.057 193.19 380.604 192.657 393.152C192.505 396.725 192.354 400.298 192.202 403.871C192.175 404.514 193.175 404.513 193.202 403.871C193.735 391.323 194.267 378.776 194.8 366.228C194.952 362.655 195.103 359.082 195.255 355.509C195.283 354.866 194.282 354.867 194.255 355.509Z" fill="#1D1D23"/>
<path d="M168.564 372.8C166.993 359.531 165.421 346.262 163.85 332.993C162.964 325.511 162.078 318.029 161.192 310.547C161.117 309.916 160.116 309.908 160.192 310.547C161.768 323.857 163.344 337.168 164.921 350.479C166.492 363.748 168.064 377.017 169.635 390.286C170.521 397.768 171.407 405.25 172.293 412.732C172.368 413.363 173.369 413.371 173.293 412.732C171.716 399.421 170.14 386.111 168.564 372.8Z" fill="#1D1D23"/>
<path d="M196.132 55.8019C197.843 55.8019 199.23 54.1682 199.23 52.1529C199.23 50.1376 197.843 48.5039 196.132 48.5039C194.421 48.5039 193.034 50.1376 193.034 52.1529C193.034 54.1682 194.421 55.8019 196.132 55.8019Z" fill="#1D1D23"/>
<path d="M214.03 55.8019C215.741 55.8019 217.128 54.1682 217.128 52.1529C217.128 50.1376 215.741 48.5039 214.03 48.5039C212.319 48.5039 210.932 50.1376 210.932 52.1529C210.932 54.1682 212.319 55.8019 214.03 55.8019Z" fill="#1D1D23"/>
<path d="M199.175 44.7591C198.902 43.9141 198.163 43.5801 197.33 43.7111C195.091 44.0631 192.945 44.7451 190.878 45.6701C190.159 45.9921 189.934 47.0921 190.34 47.7221C190.819 48.4651 191.623 48.6041 192.392 48.2601C192.526 48.2001 192.66 48.1361 192.797 48.0821C192.829 48.0701 192.858 48.0581 192.871 48.0531C193.117 47.9531 193.365 47.8581 193.615 47.7671C194.096 47.5911 194.583 47.4311 195.074 47.2861C196.076 46.9911 197.096 46.7661 198.127 46.6031C198.474 46.5481 198.854 46.2041 199.023 45.9141C199.212 45.5941 199.292 45.1201 199.175 44.7591Z" fill="#1D1D23"/>
<path d="M218.738 45.3045C218.627 44.9605 218.398 44.5565 218.049 44.4085C216.189 43.6175 214.253 43.1575 212.224 43.1155C211.439 43.0995 210.688 43.8175 210.724 44.6155C210.761 45.4425 211.383 46.0975 212.224 46.1155C212.678 46.1245 213.13 46.1665 213.581 46.2195C214.689 46.3895 215.771 46.6815 216.807 47.1135C216.719 47.0765 216.631 47.0395 216.543 47.0025C216.927 47.1645 217.269 47.2665 217.69 47.1505C218.038 47.0545 218.415 46.7855 218.586 46.4615C218.771 46.1125 218.863 45.6905 218.738 45.3045Z" fill="#1D1D23"/>
<path d="M199.662 75.1058C202.017 75.1058 203.925 73.7032 203.925 71.9728C203.925 70.2425 202.017 68.8398 199.662 68.8398C197.308 68.8398 195.399 70.2425 195.399 71.9728C195.399 73.7032 197.308 75.1058 199.662 75.1058Z" fill="#C15133"/>
<path d="M205.084 74.5377C201.586 73.7957 198.473 71.6547 196.558 68.6297C196.215 68.0877 195.349 68.5887 195.695 69.1347C197.743 72.3687 201.07 74.7067 204.819 75.5017C205.446 75.6357 205.714 74.6717 205.084 74.5377Z" fill="#1D1D23"/>
<path d="M329.513 40.14C329.513 62.31 308.023 80.29 281.513 80.29C271.923 80.29 262.993 77.94 255.503 73.89C246.323 76.65 237.223 74.99 237.223 74.99C241.453 72.46 243.973 69.12 245.393 66.57C237.993 59.51 233.513 50.26 233.513 40.14C233.513 17.97 255.003 0 281.513 0C308.023 0 329.513 17.97 329.513 40.14Z" fill="white"/>
<path d="M285.869 75.8946L285.795 74.8976C286.397 74.8516 300.551 73.6036 301.085 58.2186C301.627 42.5816 287.105 27.6026 286.958 27.4526L286.541 27.0286L287.03 26.6906C287.085 26.6526 292.449 22.8876 292.19 17.8176C291.925 12.6756 283.321 5.22463 283.234 5.14963L283.886 4.39062C284.253 4.70663 292.902 12.1976 293.188 17.7656C293.431 22.5186 289.454 26.0736 288.062 27.1666C290.419 29.7256 302.589 43.6696 302.084 58.2516C301.518 74.5456 286.025 75.8836 285.869 75.8946Z" fill="#1D1D23"/>
<path d="M274.86 31.7773C274.86 31.7773 262.274 32.9753 262.574 48.5433C262.874 64.1123 274.061 76.5573 289.744 70.9813C305.425 65.4053 298.184 27.6093 274.86 31.7773Z" fill="#8B3A3A"/>
<path d="M283.679 48.8088C284.823 48.6458 285.735 47.8468 286.51 47.0448C287.446 46.0758 288.372 44.9928 289.816 44.9038C291.147 44.8208 292.322 45.5448 292.941 46.7048C293.244 47.2728 294.108 46.7678 293.805 46.1998C292.657 44.0478 289.896 43.2328 287.795 44.5348C286.728 45.1958 286.013 46.2458 285.064 47.0448C284.263 47.7198 282.724 48.3598 281.972 47.2438C281.875 47.0998 281.74 47.0358 281.602 47.0238C281.501 46.8148 281.412 46.6008 281.288 46.4018C281.241 46.3258 281.186 46.2538 281.135 46.1798C282.721 45.1698 283.746 43.2748 283.563 41.3838C283.442 40.1248 282.855 38.9768 281.972 38.1228C282.68 37.5268 283.024 36.6448 282.892 35.7168C282.757 34.7628 282.099 33.9488 281.275 33.4788C279.501 32.4668 277.145 33.0598 276.008 34.7338C275.551 35.4058 275.33 36.2078 275.328 37.0118C273.706 36.5018 271.918 36.5458 270.293 37.1718C267.706 38.1668 265.781 40.2898 264.737 42.8258C262.584 48.0588 264.059 54.6098 268.486 58.2068C270.765 60.0588 273.639 61.1018 276.577 61.0498C276.89 63.9188 279.025 66.2498 281.761 67.0998C284.794 68.0428 288.477 67.3318 290.849 65.1888C292.98 63.2638 293.807 60.1138 293.115 57.3558C292.416 54.5718 290.226 52.3098 287.58 51.2818C285.997 50.6668 284.242 50.5638 282.637 50.9588C282.526 50.1818 282.403 49.3968 282.205 48.6348C282.659 48.8218 283.167 48.8818 283.679 48.8088ZM286.307 51.9248C288.739 52.5378 290.875 54.3098 291.832 56.6428C292.777 58.9468 292.434 61.7408 290.879 63.7028C289.132 65.9058 285.969 66.8128 283.252 66.4148C280.336 65.9868 277.697 63.7678 277.531 60.6938C277.526 60.5958 277.492 60.5168 277.449 60.4488C277.42 60.2288 277.269 60.0338 276.98 60.0488C271.917 60.3118 267.245 57.0608 265.539 52.3188C263.865 47.6658 264.86 41.4508 269.368 38.7298C271.228 37.6078 273.54 37.3378 275.511 38.1278C275.594 38.2388 275.719 38.2888 275.849 38.2918C276.337 38.5238 276.807 38.8038 277.232 39.1778C277.713 39.6018 278.423 38.8968 277.939 38.4708C277.459 38.0478 276.926 37.7058 276.365 37.4298C276.113 35.6228 277.526 33.9668 279.379 33.9778C280.235 33.9828 281.131 34.3688 281.611 35.1018C282.048 35.7698 282.075 36.8128 281.387 37.3428C281.32 37.3938 281.269 37.4578 281.226 37.5248C280.856 37.2778 280.459 37.0678 280.031 36.9188C279.422 36.7068 279.16 37.6728 279.765 37.8828C281.284 38.4108 282.466 39.8858 282.576 41.5038C282.683 43.0868 281.832 44.5928 280.494 45.4018C279.785 44.6908 278.888 44.1918 277.857 44.0808C276.465 43.9318 275.342 44.5818 274.484 45.5778C274.452 45.5698 274.423 45.5578 274.389 45.5538C274.366 45.5518 274.343 45.5488 274.32 45.5468C274.318 45.5468 274.319 45.5468 274.319 45.5468C274.284 45.5408 274.248 45.5358 274.213 45.5298C274.116 45.5118 274.021 45.4908 273.926 45.4648C273.837 45.4408 273.749 45.4128 273.662 45.3818C273.62 45.3668 273.578 45.3498 273.537 45.3348C273.517 45.3258 273.497 45.3168 273.477 45.3078C273.31 45.2298 273.148 45.1388 272.995 45.0368C272.957 45.0108 272.919 44.9848 272.881 44.9578C272.879 44.9558 272.87 44.9498 272.864 44.9458C272.854 44.9378 272.836 44.9238 272.831 44.9198C272.755 44.8578 272.682 44.7918 272.611 44.7238C272.422 44.5428 272.089 44.5218 271.904 44.7238C271.724 44.9198 271.702 45.2378 271.904 45.4308C272.449 45.9538 273.12 46.2948 273.845 46.4578C273.117 47.6348 272.665 49.0438 272.491 50.2078C272.233 51.9408 272.407 53.7138 273.045 55.3488C273.276 55.9418 274.243 55.6838 274.009 55.0828C273.397 53.5128 273.206 51.7988 273.511 50.1358C273.8 48.5578 274.494 46.8298 275.735 45.7558C277.119 44.5588 278.99 45.0748 280.075 46.4068C281.18 47.7638 281.443 49.5788 281.681 51.2608C280.721 51.6418 279.841 52.2128 279.139 53.0098C279.018 52.1538 278.898 51.2988 278.777 50.4428C278.688 49.8078 277.724 50.0778 277.813 50.7088C277.988 51.9508 278.163 53.1918 278.338 54.4338C278.4 54.8758 279.056 54.8948 279.252 54.5528C280.666 52.0898 283.649 51.2558 286.307 51.9248Z" fill="#1D1D23"/>
</svg>
