<svg width="487" height="478" viewBox="0 0 487 478" fill="none" xmlns="http://www.w3.org/2000/svg">
<path d="M112.581 458.53C109.413 457.274 106.292 455.949 103.23 454.543C62.4768 435.81 32.0608 400.45 16.0708 364.57C9.05775 348.853 4.47275 332.424 1.91575 315.798C-14.8052 206.744 82.8138 155.106 105.204 116.87C127.594 78.6354 166.52 19.4514 261.743 15.7104C334.143 12.8554 406.851 41.3404 445.468 103.871C449.732 110.757 453.581 118.063 456.96 125.785C463.247 140.149 467.952 155.953 470.764 173.233C478.845 222.864 469.766 264.908 439.942 308.37C433.009 318.473 425.053 328.64 425.403 340.708C425.657 349.48 430.106 357.327 438.588 347.182C448.557 335.259 471.882 345.131 459.656 373.939C439.235 422.054 386.36 446.807 331.459 461.815C264.071 480.236 178.191 484.531 112.581 458.53Z" fill="#8B3A3A"/>
<path opacity="0.7" d="M112.581 458.53C109.413 457.274 106.292 455.949 103.23 454.543C62.4768 435.81 32.0608 400.45 16.0708 364.57C9.05775 348.853 4.47275 332.424 1.91575 315.798C-14.8052 206.744 82.8138 155.106 105.204 116.87C127.594 78.6354 166.52 19.4514 261.743 15.7104C334.143 12.8554 406.851 41.3404 445.468 103.871C449.732 110.757 453.581 118.063 456.96 125.785C463.247 140.149 467.952 155.953 470.764 173.233C478.845 222.864 469.766 264.908 439.942 308.37C433.009 318.473 425.053 328.64 425.403 340.708C425.657 349.48 430.106 357.327 438.588 347.182C448.557 335.259 471.882 345.131 459.656 373.939C439.235 422.054 386.36 446.807 331.459 461.815C264.071 480.236 178.191 484.531 112.581 458.53Z" fill="white"/>
<path d="M162.695 349.12C162.695 349.12 151.338 388.612 149.789 406.681C149.789 406.681 167.599 412.102 196.251 408.488C224.903 404.874 262.33 390.161 263.879 389.387C265.428 388.613 253.038 333.633 250.973 332.858C248.908 332.084 213.287 344.99 198.833 347.829C184.377 350.669 162.695 349.12 162.695 349.12Z" fill="#263238" stroke="#263238" stroke-miterlimit="10"/>
<path d="M198.011 261.366C198.011 261.366 170.495 271.053 157.87 286.202C145.245 301.352 151.81 353.871 163.677 358.669C175.544 363.466 201.299 364.729 215.439 361.194C229.579 357.659 232.609 355.639 239.174 350.589C245.739 345.539 249.779 340.742 249.779 340.742C249.779 340.742 251.547 343.519 251.799 336.955C252.051 330.39 255.082 292.516 255.082 279.386C255.082 266.256 239.175 257.924 225.54 257.419C211.904 256.913 198.011 261.366 198.011 261.366Z" fill="#8B3A3A" stroke="#263238" stroke-miterlimit="10"/>
<path d="M198.011 261.365C198.011 261.365 182.018 267.388 179.941 277.358C177.864 287.328 197.804 301.659 206.319 302.698C214.835 303.736 216.912 296.467 217.327 293.767C217.742 291.067 204.449 257.419 202.788 258.457C201.126 259.495 198.011 261.365 198.011 261.365Z" fill="#263238" stroke="#263238" stroke-miterlimit="10"/>
<path d="M200.503 268.635C200.503 268.635 195.518 275.489 197.387 284.213C199.256 292.937 208.811 296.052 208.811 296.052L200.503 268.635Z" fill="#D4D4D4" stroke="#263238" stroke-miterlimit="10"/>
<path d="M240.274 323.957C240.264 332.567 240.179 342.808 239.84 344.73C239.236 348.153 237.222 350.569 237.222 350.569" stroke="#263238" stroke-miterlimit="10"/>
<path d="M240.243 311.506C240.243 311.506 240.265 314.801 240.273 319.326" stroke="#263238" stroke-miterlimit="10"/>
<path d="M185.099 351.322C188.899 354.795 193.228 358.621 195.343 360.03C199.571 362.849 202.39 361.842 202.39 361.842" stroke="#263238" stroke-miterlimit="10"/>
<path d="M178.027 344.729C178.027 344.729 180.093 346.699 182.847 349.251" stroke="#263238" stroke-miterlimit="10"/>
<path d="M172.59 285.332C172.59 285.332 180.443 305.668 183.261 318.152" stroke="#263238" stroke-miterlimit="10"/>
<path d="M251.741 268.656C251.741 268.656 263.991 271.397 268.632 279.255C273.273 287.113 276.613 307.945 278.098 323.112C279.583 338.279 275.499 361.487 275.499 361.487C275.499 361.487 277.17 365.324 275.685 368.065C274.2 370.806 272.344 372.634 272.344 373.913C272.344 375.192 273.458 376.289 272.158 378.664C270.859 381.04 254.525 382.319 243.759 380.126C232.993 377.933 239.861 362.583 243.017 356.918C246.172 351.253 249.718 344.681 250.173 341.206C250.628 337.731 252.053 322.342 252.981 311.377C253.909 300.413 252.484 285.102 253.597 281.813C254.71 278.524 251.741 268.656 251.741 268.656Z" fill="#8B3A3A" stroke="#263238" stroke-miterlimit="10"/>
<path d="M260.285 310.168C259.458 312.009 258.585 313.691 257.68 315.073" stroke="#263238" stroke-miterlimit="10"/>
<path d="M267.332 288.027C267.332 288.027 265.094 297.895 261.815 306.462" stroke="#263238" stroke-miterlimit="10"/>
<path d="M265.506 321.953C260.785 328.845 254.785 337.192 249.884 342.666" stroke="#263238" stroke-miterlimit="10"/>
<path d="M273.457 309.955C273.457 309.955 271.717 312.695 269.042 316.714" stroke="#263238" stroke-miterlimit="10"/>
<path d="M254.896 347.6C254.896 347.6 269.188 347.235 274.757 342.301" stroke="#263238" stroke-miterlimit="10"/>
<path d="M249.884 355.092C250.812 355.092 259.721 354.361 269.93 345.955" stroke="#263238" stroke-miterlimit="10"/>
<path d="M249.142 372.087C249.142 372.087 247.843 366.422 256.566 361.123C265.29 355.824 271.044 353.996 271.044 353.996" stroke="#263238" stroke-miterlimit="10"/>
<path d="M277.064 380.279C277.064 380.279 274.388 377.239 272.535 377.037C270.682 376.834 268.007 376.834 267.389 376.834C266.771 376.834 263.478 372.781 261.42 372.781C259.362 372.781 252.776 377.047 249.07 378.455C245.364 379.863 242.483 382.913 242.689 384.534C242.895 386.155 231.162 396.491 232.191 398.72C233.22 400.949 240.425 399.328 241.865 398.72C243.306 398.113 277.064 380.279 277.064 380.279Z" fill="white" stroke="#263238" stroke-miterlimit="10"/>
<path d="M259.773 374.402C259.773 374.402 257.715 380.482 256.479 382.103C255.244 383.724 252.362 388.385 253.186 389.804C254.009 391.222 257.097 390.817 258.332 390.007C259.567 389.196 266.977 381.901 267.389 376.835" stroke="#263238" stroke-miterlimit="10"/>
<path d="M168.932 266.35C168.932 266.35 170.758 265.347 177.794 262.014C184.83 258.681 189.897 259.05 198.011 261.366C206.125 263.682 195.57 266.088 195.57 266.088C195.57 266.088 193.904 264.422 189.83 265.348C185.756 266.274 179.831 269.422 176.128 269.422C172.424 269.422 168.932 266.35 168.932 266.35Z" fill="#8B3A3A" stroke="#263238" stroke-miterlimit="10"/>
<path d="M197.18 265.311C197.18 265.311 195.518 267.803 188.041 270.088C180.564 272.373 172.463 271.127 171.009 269.465C169.555 267.803 168.932 266.349 168.932 266.349C168.932 266.349 173.294 267.595 176.409 266.764C179.525 265.933 188.041 262.818 190.118 262.818C192.195 262.819 197.18 265.311 197.18 265.311Z" fill="#8B3A3A" stroke="#263238" stroke-miterlimit="10"/>
<path d="M201.058 256.55C201.058 256.55 198.236 253.551 195.943 257.961C193.65 262.371 196.972 270.504 198.011 272.374C199.049 274.243 200.088 274.866 200.088 274.866C200.088 274.866 201.334 290.444 204.034 295.429C206.734 300.414 215.458 310.592 221.481 311.215C227.504 311.838 231.451 311.63 238.928 302.907C246.405 294.183 250.144 288.368 253.26 274.244C256.376 260.12 211.304 246.411 207.773 248.489C204.242 250.565 201.058 256.55 201.058 256.55Z" fill="#D4D4D4" stroke="#263238" stroke-miterlimit="10"/>
<path d="M241.253 300.125C243.216 297.714 244.888 295.438 246.345 293.033L246.198 292.935C246.198 292.935 238.305 295.843 235.605 295.843C232.905 295.843 213.588 290.235 212.342 289.404C211.096 288.573 210.057 286.081 210.057 286.081L205.903 265.518C205.903 265.518 204.241 264.272 204.034 265.726C204.034 265.726 209.019 284.627 207.98 287.743C206.942 290.859 205.488 293.351 204.864 292.728C204.241 292.105 200.087 274.865 200.087 274.865C200.087 274.865 201.333 290.443 204.033 295.428C206.733 300.413 215.457 310.591 221.48 311.214C227.503 311.837 231.45 311.629 238.927 302.906C239.059 302.383 240.011 301.327 241.253 300.125Z" fill="white" stroke="#263238" stroke-miterlimit="10"/>
<path d="M253.271 226.915C253.271 226.915 244.98 221.447 233.515 220.036C222.049 218.625 206.879 224.975 202.293 229.561C197.707 234.147 197.883 248.788 198.941 253.022C199.999 257.255 205.115 272.955 211.289 277.541C217.463 282.127 225.753 280.01 225.753 280.01C225.753 280.01 227.87 281.245 235.455 283.714C243.04 286.183 248.332 284.067 248.332 284.067C248.332 284.067 251.507 286.537 255.564 286.36C259.621 286.184 264.56 283.538 268.088 275.953C271.616 268.368 270.734 248.788 265.971 240.498C261.209 232.207 253.271 226.915 253.271 226.915Z" fill="#8B3A3A" stroke="#263238" stroke-miterlimit="10"/>
<path d="M248.332 284.067C248.332 284.067 258.563 280.186 256.799 277.893" stroke="#263238" stroke-miterlimit="10"/>
<path d="M225.754 280.01C225.754 280.01 218.698 279.481 215.347 271.367" stroke="#263238" stroke-miterlimit="10"/>
<path d="M230.869 261.842C230.869 261.842 237.043 272.602 238.101 275.777C239.159 278.952 237.748 281.598 237.748 281.598" stroke="#263238" stroke-miterlimit="10"/>
<path d="M239.865 283.009C239.865 283.009 246.568 283.362 249.567 273.66" stroke="#263238" stroke-miterlimit="10"/>
<path d="M221.066 286.498C221.066 286.498 222.52 291.483 229.166 289.198" stroke="#263238" stroke-miterlimit="10"/>
<path d="M232.282 287.742C232.282 287.742 225.012 282.134 217.95 282.549" stroke="#263238" stroke-miterlimit="10"/>
<path d="M237.267 295.222L238.721 288.575C238.721 288.575 243.291 288.367 246.822 287.121" stroke="#263238" stroke-miterlimit="10"/>
<path d="M240.383 290.027C240.383 290.027 243.083 292.312 247.237 289.404" stroke="#263238" stroke-miterlimit="10"/>
<path d="M168.979 295.04C168.979 295.04 176.049 312.21 175.544 331.399C175.039 350.589 169.737 363.466 169.737 363.466L172.514 365.486L173.524 367.758C173.524 367.758 191.956 371.041 193.724 372.556C195.492 374.071 196.249 388.968 193.724 395.281C191.199 401.593 158.375 396.796 146.255 394.523C134.135 392.251 127.823 384.171 128.075 373.566C128.328 362.961 136.912 327.107 136.912 327.107C136.912 327.107 144.739 294.787 151.304 290.495C157.869 286.203 160.646 284.688 163.424 286.96" fill="#8B3A3A"/>
<path d="M168.979 295.04C168.979 295.04 176.049 312.21 175.544 331.399C175.039 350.589 169.737 363.466 169.737 363.466L172.514 365.486L173.524 367.758C173.524 367.758 191.956 371.041 193.724 372.556C195.492 374.071 196.249 388.968 193.724 395.281C191.199 401.593 158.375 396.796 146.255 394.523C134.135 392.251 127.823 384.171 128.075 373.566C128.328 362.961 136.912 327.107 136.912 327.107C136.912 327.107 144.739 294.787 151.304 290.495C157.869 286.203 160.646 284.688 163.424 286.96" stroke="#263238" stroke-miterlimit="10"/>
<path d="M168.853 342.855C170.447 346.485 171.567 349.325 171.757 350.588" stroke="#263238" stroke-miterlimit="10"/>
<path d="M157.87 310.694C157.87 310.694 152.82 305.139 154.083 310.189C154.946 313.64 162.53 328.883 167.488 339.801" stroke="#263238" stroke-miterlimit="10"/>
<path d="M159.295 363.187C155.716 361.447 151.563 358.899 148.275 355.385C140.953 347.558 137.67 337.71 137.165 342.255C136.66 346.8 139.942 349.072 139.942 349.072" stroke="#263238" stroke-miterlimit="10"/>
<path d="M167.212 366.242C167.212 366.242 165.669 365.839 163.353 364.949" stroke="#263238" stroke-miterlimit="10"/>
<path d="M138.932 380.381C138.932 380.381 139.942 371.796 145.244 369.019C150.546 366.242 159.636 366.494 159.636 366.494" stroke="#263238" stroke-miterlimit="10"/>
<path d="M224.135 353.588L233.598 369.092L236.417 368.287L227.357 351.776L224.538 350.568L224.135 353.588Z" fill="#8B3A3A" stroke="#263238" stroke-miterlimit="10"/>
<path d="M196.502 371.293C196.502 371.293 188.927 373.061 187.665 379.373C186.403 385.685 191.2 392.25 194.735 393.008C198.27 393.766 203.572 391.998 203.572 391.998L210.389 391.24C210.389 391.24 212.157 391.998 217.459 391.745C222.761 391.492 222.761 391.492 222.761 391.492C222.761 391.492 236.082 398.397 238.19 398.116C240.297 397.835 240.578 396.008 240.578 396.008C240.578 396.008 244.512 396.149 245.214 394.182C245.916 392.215 243.528 389.686 243.528 389.686C243.528 389.686 245.776 388.281 245.916 386.876C246.057 385.471 245.775 383.504 245.495 382.661C245.214 381.818 245.073 377.884 244.511 376.058C243.949 374.231 241.561 369.033 239.032 367.488C236.503 365.942 226.949 362.289 224.139 362.289C221.329 362.289 208.684 370.859 207.42 371.14C206.156 371.421 205.734 370.297 203.205 370.578C200.676 370.859 198.709 371.421 198.709 371.421L196.502 371.293Z" fill="white" stroke="#263238" stroke-miterlimit="10"/>
<path d="M226.81 377.885C226.81 377.885 231.727 380.133 233.975 382.381C236.223 384.629 243.529 389.687 243.529 389.687" stroke="#263238" stroke-miterlimit="10"/>
<path d="M223.438 385.613C223.438 385.613 230.322 389.406 231.868 390.53C233.413 391.654 240.579 396.009 240.579 396.009" stroke="#263238" stroke-miterlimit="10"/>
<path d="M228.074 368.611L231.446 370.718C231.446 370.718 237.487 375.073 239.173 376.057C240.859 377.04 245.074 379.148 245.074 379.148" stroke="#263238" stroke-miterlimit="10"/>
<path d="M204.025 372.883C204.025 372.883 197.566 379.342 198.05 383.864C198.534 388.386 203.379 391.131 204.671 390.808" stroke="#263238" stroke-miterlimit="10"/>
<path d="M198.857 373.529C198.857 373.529 193.851 375.305 193.528 379.019C193.205 382.733 199.341 394.037 196.919 388.062" stroke="#263238" stroke-miterlimit="10"/>
<path d="M299.254 274.467C299.254 274.467 294.296 279.65 292.043 292.043C289.79 304.436 285.959 343.871 291.592 354.236C297.225 364.602 297.451 366.404 297.451 366.404L299.254 370.911L314.126 366.179C314.126 366.179 315.027 346.575 311.647 327.646C308.267 308.718 299.704 291.141 299.704 287.987C299.704 284.833 299.254 274.467 299.254 274.467Z" fill="#8B3A3A" stroke="#263238" stroke-miterlimit="10"/>
<path d="M295.909 328.103C295.909 328.103 300.982 332.224 302.567 331.273C304.152 330.322 300.982 307.178 300.982 303.374C300.982 299.57 308.908 319.226 310.493 330.322C312.078 341.418 309.169 345.674 309.169 345.674C309.169 345.674 300.348 340.784 295.909 328.103Z" fill="#263238" stroke="#263238" stroke-miterlimit="10"/>
<path d="M316.154 358.294C316.154 358.294 310.746 352.435 304.887 355.139C299.028 357.843 296.55 362.35 297 364.378C297.451 366.406 297.676 370.688 297.676 370.688C297.676 370.688 303.985 367.083 308.492 366.857C312.999 366.632 314.125 366.181 314.125 366.181L316.154 358.294Z" fill="white" stroke="#263238" stroke-miterlimit="10"/>
<path d="M294.61 310.061C294.732 306.536 294.973 303.932 294.973 303.311" stroke="#263238" stroke-miterlimit="10"/>
<path d="M309.169 345.674C309.169 345.674 302.409 342.069 297.677 332.83C295.374 328.333 294.672 321.647 294.558 315.76" stroke="#263238" stroke-miterlimit="10"/>
<path d="M295.198 355.363C295.198 355.363 296.55 348.378 302.859 347.026C309.168 345.674 311.872 349.73 311.872 349.73" stroke="#263238" stroke-miterlimit="10"/>
<path d="M333.505 249.004C333.505 249.004 335.533 252.384 343.645 254.637C351.757 256.89 363.7 253.736 378.798 262.298C393.896 270.861 394.797 364.601 394.121 369.333C393.445 374.065 394.121 396.599 394.121 396.599H306.69C306.69 396.599 310.521 338.687 306.69 322.688C302.859 306.689 292.268 287.31 299.254 274.466C306.24 261.623 322.013 254.637 333.505 249.004Z" fill="#8B3A3A" stroke="#263238" stroke-miterlimit="10"/>
<path d="M354.251 284.936C349.616 289.176 343.778 293.742 338.074 296.082C325.71 301.155 319.369 292.278 319.369 292.278" stroke="#263238" stroke-miterlimit="10"/>
<path d="M363.437 275.475C363.437 275.475 361.371 277.945 358.102 281.236" stroke="#263238" stroke-miterlimit="10"/>
<path d="M376.118 324.931C376.118 324.931 381.19 349.977 381.508 355.049C381.825 360.122 378.338 366.145 378.338 366.145C378.338 366.145 372.314 343.953 371.363 351.878C370.412 359.804 357.414 381.045 357.414 381.045C357.414 381.045 386.264 381.996 389.751 379.777C393.238 377.558 392.604 352.512 389.117 338.88C385.629 325.248 375.801 319.541 376.118 324.931Z" fill="#263238" stroke="#263238" stroke-miterlimit="10"/>
<path d="M315.479 285.735C315.479 285.735 325.844 294.523 341.618 287.538C353.151 282.431 364.796 266.613 370.228 258.471C359.134 254.778 350.155 256.447 343.646 254.639C335.534 252.386 333.506 249.006 333.506 249.006C323.918 253.706 311.368 259.361 303.409 268.56L315.479 285.735Z" fill="#D4D4D4" stroke="#263238" stroke-miterlimit="10"/>
<path d="M370.228 258.471C365.419 256.87 361.01 256.278 357.025 255.973C355.238 258.335 352.669 262.654 349.73 270.413C346.872 277.959 345.233 283.007 344.311 286.153C354.926 280.008 365.218 265.979 370.228 258.471Z" fill="#263238" stroke="#263238" stroke-miterlimit="10"/>
<path d="M315.479 285.735C315.479 285.735 319.334 288.994 325.91 289.963C325.298 289.156 324.604 288.207 323.816 287.087C319.535 281.003 315.028 271.764 315.028 271.764L306.133 272.435L315.479 285.735Z" fill="#263238" stroke="#263238" stroke-miterlimit="10"/>
<path d="M281.952 265.351C281.952 265.351 285.524 271.602 287.757 272.048C289.99 272.495 294.231 272.495 295.348 273.388C296.464 274.281 298.92 282.095 300.259 282.318C301.598 282.541 306.287 288.792 315.44 288.792C324.593 288.792 325.486 287.006 327.719 283.881C329.952 280.756 333.524 275.398 334.64 268.923C335.756 262.449 330.845 253.072 330.845 253.072L329.059 253.295L281.952 265.351Z" fill="#D4D4D4" stroke="#263238" stroke-miterlimit="10"/>
<path d="M333.509 266.368C333.092 269.149 330.311 275.407 330.311 275.407L322.801 269.983C322.801 269.983 323.636 260.249 323.218 257.467C323.079 256.54 322.987 255.647 322.925 254.864L321.862 255.136C322.072 257.797 322.35 262.479 321.966 264.976C321.41 268.592 320.853 270.26 320.853 270.26C320.853 270.26 315.012 276.24 309.728 277.908C305.663 279.192 301.034 280.472 299.109 280.996C299.535 281.748 299.93 282.261 300.258 282.316C301.597 282.539 306.286 288.79 315.439 288.79C324.592 288.79 325.485 287.004 327.718 283.879C329.951 280.754 333.523 275.396 334.639 268.921C335.755 262.447 330.844 253.07 330.844 253.07C330.844 253.07 333.927 263.587 333.509 266.368Z" fill="white" stroke="#263238" stroke-miterlimit="10"/>
<path d="M287.757 272.049C287.757 272.049 281.221 270.401 282.195 271.236C283.168 272.07 287.062 273.878 292.208 275.13C297.353 276.382 295.348 273.389 295.348 273.389C295.348 273.389 298.188 275.547 301.386 275.825C304.584 276.103 309.591 276.799 310.425 274.713C311.259 272.627 307.505 271.097 307.505 271.097C307.505 271.097 306.393 271.236 301.386 271.792C296.379 272.348 291.65 271.749 287.757 272.049Z" fill="white" stroke="#263238" stroke-miterlimit="10"/>
<path d="M307.504 271.096L312.233 258.858L314.458 258.441L310.703 267.62L309.729 272.209L307.504 271.096Z" fill="#263238" stroke="#263238" stroke-miterlimit="10"/>
<path d="M297.492 270.263C297.492 270.263 300.69 267.621 303.611 265.396C306.531 263.171 307.922 264.005 307.922 264.005" stroke="#263238" stroke-miterlimit="10"/>
<path d="M302.915 270.54C302.915 270.54 306.113 271.235 307.365 267.898" stroke="#263238" stroke-miterlimit="10"/>
<path d="M275.702 218.692C275.702 218.692 266.772 231.194 264.986 240.57C263.2 249.947 265.209 255.305 264.986 257.76C264.763 260.216 264.316 262.002 266.549 263.565C268.781 265.128 275.479 266.021 279.497 265.574C279.497 265.574 279.72 266.913 281.06 266.913C282.399 266.913 283.941 266.802 297.903 262.974C311.507 259.244 342.992 250.148 346.249 247.044C349.14 244.289 352.946 236.775 350.714 228.514C348.481 220.254 321.692 210.431 318.12 210.207C314.548 209.984 291.33 206.412 283.293 210.43C275.255 214.45 275.702 218.692 275.702 218.692Z" fill="#8B3A3A" stroke="#263238" stroke-miterlimit="10"/>
<path d="M281.283 262.894C281.283 262.894 274.362 255.527 273.023 248.383C271.683 241.239 273.023 238.337 273.47 239.676" stroke="#263238" stroke-miterlimit="10"/>
<path d="M276.842 241.012C275.988 236.369 275.723 231.641 276.818 227.845C280.167 216.236 280.836 226.282 280.836 226.282" stroke="#263238" stroke-miterlimit="10"/>
<path d="M282.845 259.77C282.845 259.77 279.69 252.935 277.694 244.928" stroke="#263238" stroke-miterlimit="10"/>
<path d="M293.46 252.311C296.616 248.794 300.588 243.708 303.831 237.445C310.305 224.943 307.18 225.613 303.831 229.185" stroke="#263238" stroke-miterlimit="10"/>
<path d="M287.98 257.762C287.98 257.762 289.16 256.779 290.972 254.951" stroke="#263238" stroke-miterlimit="10"/>
<path d="M323.877 240.678C325.196 237.607 325.471 235.046 325.263 234.32" stroke="#263238" stroke-miterlimit="10"/>
<path d="M292.445 258.429C292.445 258.429 304.724 256.643 314.324 251.285C317.31 249.618 319.54 247.498 321.182 245.32" stroke="#263238" stroke-miterlimit="10"/>
<path d="M322.361 250.17C322.361 250.17 329.282 247.268 335.086 246.375C340.891 245.482 345.802 247.045 348.034 243.25" stroke="#263238" stroke-miterlimit="10"/>
<path d="M378.573 279.2C378.573 279.2 369.785 302.86 374.517 320.662C379.249 338.464 388.488 359.42 388.488 359.42C388.488 359.42 375.644 363.701 371.588 366.18C367.532 368.659 365.279 368.884 365.053 371.588C364.828 374.292 360.997 374.067 361.673 376.996C362.349 379.925 374.742 391.868 380.151 392.319C385.559 392.77 410.346 386.686 415.754 384.658C421.162 382.63 432.204 384.433 429.95 372.715C427.697 360.998 415.078 306.691 406.74 288.439C398.403 270.187 382.178 264.328 379.7 264.553" fill="#8B3A3A"/>
<path d="M378.573 279.2C378.573 279.2 369.785 302.86 374.517 320.662C379.249 338.464 388.488 359.42 388.488 359.42C388.488 359.42 375.644 363.701 371.588 366.18C367.532 368.659 365.279 368.884 365.053 371.588C364.828 374.292 360.997 374.067 361.673 376.996C362.349 379.925 374.742 391.868 380.151 392.319C385.559 392.77 410.346 386.686 415.754 384.658C421.162 382.63 432.204 384.433 429.95 372.715C427.697 360.998 415.078 306.691 406.74 288.439C398.403 270.187 382.178 264.328 379.7 264.553" stroke="#263238" stroke-miterlimit="10"/>
<path d="M361.673 376.998C361.673 376.998 344.129 389.303 343.69 390.402C343.25 391.501 380.151 392.321 380.151 392.321C380.151 392.321 365.583 376.347 361.673 376.998Z" fill="white" stroke="#263238" stroke-miterlimit="10"/>
<path d="M405.546 329.214C405.867 327.436 406.064 326.193 406.064 325.846" stroke="#263238" stroke-miterlimit="10"/>
<path d="M391.417 358.97C391.417 358.97 399.304 356.942 400.656 352.21C401.461 349.392 403.225 341.143 404.52 334.596" stroke="#263238" stroke-miterlimit="10"/>
<path d="M421.948 376.743C413.62 374.472 397.762 369.709 391.418 364.828" stroke="#263238" stroke-miterlimit="10"/>
<path d="M427.246 378.123C427.246 378.123 426.363 377.91 424.865 377.52" stroke="#263238" stroke-miterlimit="10"/>
<path d="M410.515 318.746C411.399 320.963 412.249 323.187 413.05 325.394" stroke="#263238" stroke-miterlimit="10"/>
<path d="M390.966 277.623C390.966 277.623 400.358 294.559 408.324 313.414" stroke="#263238" stroke-miterlimit="10"/>
<path d="M367.531 371.59C367.531 371.59 377.22 377.449 383.755 387.814" stroke="#263238" stroke-miterlimit="10"/>
<path d="M358.581 349.279C357.907 352.349 357.207 355.044 356.49 357.165" stroke="#263238" stroke-miterlimit="10"/>
<path d="M365.954 296.551C365.954 296.551 363.247 325.187 359.532 344.623" stroke="#263238" stroke-miterlimit="10"/>
<path d="M317.486 369.276C317.486 369.276 315.616 365.42 314.448 364.252C313.279 363.084 306.97 362.967 303.465 363.785C299.96 364.603 296.104 367.991 293.767 371.263C291.43 374.535 292.949 380.844 294.001 381.195C295.053 381.545 306.503 377.339 306.971 376.171C307.437 375.002 317.486 369.276 317.486 369.276Z" fill="white" stroke="#263238" stroke-miterlimit="10"/>
<path d="M312.461 372.082C312.461 372.082 308.488 368.81 307.554 369.511C306.619 370.212 305.334 373.951 305.334 376.288L305.568 377.573" stroke="#263238" stroke-miterlimit="10"/>
<path d="M302.763 368.809C302.763 368.809 301.244 369.276 301.361 373.366C301.478 377.455 302.179 378.507 302.179 378.507" fill="white"/>
<path d="M302.763 368.809C302.763 368.809 301.244 369.276 301.361 373.366C301.478 377.455 302.179 378.507 302.179 378.507" stroke="#263238" stroke-miterlimit="10"/>
<path d="M298.907 368.809C298.907 368.809 295.869 372.314 295.986 375.119C296.103 377.923 298.673 379.793 298.673 379.793" fill="white"/>
<path d="M298.907 368.809C298.907 368.809 295.869 372.314 295.986 375.119C296.103 377.923 298.673 379.793 298.673 379.793" stroke="#263238" stroke-miterlimit="10"/>
<path d="M323.506 351.68C322.627 356.735 321.939 360.777 321.655 362.621" stroke="#263238" stroke-miterlimit="10"/>
<path d="M330.741 310.814C330.741 310.814 327.243 330.353 324.554 345.68" stroke="#263238" stroke-miterlimit="10"/>
<path d="M331.1 323.98C331.1 323.98 330.741 358.366 329.968 364.359" stroke="#263238" stroke-miterlimit="10"/>
<path d="M128.045 463.971C191.28 483.769 269.245 478.824 331.459 461.817C379.538 448.674 426.063 428.055 450.597 390.818C445.984 390.172 440.99 389.444 435.598 388.622C396.087 382.595 378.341 383.934 372.314 382.595C366.287 381.256 341.174 375.563 339.835 375.563C338.496 375.563 317.401 371.88 309.365 374.224C301.329 376.568 276.645 382.654 276.645 382.654C276.645 382.654 224.986 400.342 213.937 403.355C202.887 406.368 184.471 408.043 177.105 408.043C169.739 408.043 146.3 405.029 141.612 406.034C136.924 407.038 125.875 413.735 127.549 422.776C128.539 428.122 128.358 448.34 128.045 463.971Z" fill="#8B3A3A" stroke="#263238" stroke-miterlimit="10"/>
<path d="M313.314 466.321C310.155 464.721 306.489 463.53 302.967 464.938C300.358 465.982 298.148 467.779 296.331 469.775C302.073 468.725 307.741 467.574 313.314 466.321Z" fill="#263238" stroke="#263238" stroke-miterlimit="10"/>
<path d="M329.669 462.29C327.412 456.755 322.684 450.424 319.284 444.756C316.196 439.61 320.232 455.562 321.543 464.377C324.278 463.704 326.989 463.009 329.669 462.29Z" fill="#263238" stroke="#263238" stroke-miterlimit="10"/>
<path d="M279.348 472.54C281.906 472.176 284.451 471.787 286.987 471.38C285.944 468.638 284.575 465.12 282.784 460.644C276.772 445.615 266.467 435.309 266.467 435.309C266.467 435.309 268.614 440.032 272.908 450.338C275.608 456.819 277.968 466.353 279.348 472.54Z" fill="#263238" stroke="#263238" stroke-miterlimit="10"/>
<path d="M227.024 476.762C223.093 474.57 219.435 471.377 215.964 468.722C209.743 463.965 204.315 457.868 196.726 455.332C192.846 454.036 188.568 452.311 184.399 452.554C180.386 452.788 178.249 456.697 177.088 460.073C175.638 464.291 174.498 468.918 171.998 472.668C169.422 476.533 163.839 454.633 161.692 451.198C159.545 447.763 159.116 459.357 156.11 458.068C153.104 456.78 140.222 447.333 137.646 446.045C136.27 445.357 136.163 456.18 136.363 466.416C164.843 474.223 195.935 477.31 227.024 476.762Z" fill="#263238" stroke="#263238" stroke-miterlimit="10"/>
<path d="M232.942 476.609C240.13 476.377 247.306 475.955 254.443 475.355C251.799 473.397 249.347 471.137 247.544 469.435L246.715 451.197C246.715 451.197 242.85 457.638 244.997 467.085C243.389 465.799 237.448 473.42 232.942 476.609Z" fill="#263238" stroke="#263238" stroke-miterlimit="10"/>
<path d="M302.668 369.201C302.668 369.201 250.099 392.64 256.126 398.332C262.153 404.024 272.198 403.689 286.261 395.988C300.324 388.287 323.636 373.365 323.636 373.365C323.636 373.365 313.048 366.857 310.704 366.857C308.36 366.857 302.668 369.201 302.668 369.201Z" fill="white" stroke="#263238" stroke-miterlimit="10"/>
<path d="M344.922 407.032C353.434 407.01 361.555 407.337 367.03 408.342C377.246 410.218 390.95 416.678 408.136 426.103" stroke="#263238" stroke-miterlimit="10"/>
<path d="M306.99 408.692C306.99 408.692 323.14 407.379 339.576 407.088" stroke="#263238" stroke-miterlimit="10"/>
<path d="M260.144 395.484C259.209 395.618 255.871 398.155 254.402 399.624L243.319 422.992C243.319 422.992 236.776 424.594 235.173 427.666C233.571 430.737 235.44 433.809 237.176 433.141C238.912 432.473 244.12 424.328 244.654 423.66C245.188 422.992 242.25 432.073 243.052 433.141C243.853 434.209 246.791 432.74 249.061 430.871C251.331 429.002 252.399 424.995 251.465 423.527C250.53 422.058 246.925 420.99 246.925 420.99C246.925 420.99 254.78 398.911 256.127 398.333C257.473 397.754 261.078 395.351 260.144 395.484ZM236.642 431.138C235.841 431.138 235.574 429.669 236.909 427.8C238.244 425.931 242.517 424.061 242.384 425.129C242.384 425.129 237.443 431.138 236.642 431.138ZM249.327 426.598C248.392 429.402 246.523 431.272 245.187 431.005C243.852 430.738 246.789 423.527 246.789 423.527C247.591 422.458 250.262 423.793 249.327 426.598Z" fill="#263238" stroke="#263238" stroke-miterlimit="10"/>
<path d="M259.451 394.964C258.516 395.098 255.178 397.635 253.709 399.104L242.626 422.472C242.626 422.472 236.083 424.074 234.48 427.146C232.878 430.217 234.747 433.289 236.483 432.621C238.219 431.953 243.427 423.808 243.961 423.14C244.495 422.472 241.557 431.553 242.359 432.621C243.16 433.689 246.098 432.22 248.368 430.351C250.638 428.482 251.706 424.475 250.772 423.007C249.837 421.538 246.232 420.47 246.232 420.47C246.232 420.47 254.087 398.391 255.434 397.813C256.781 397.234 260.386 394.83 259.451 394.964ZM235.949 430.618C235.148 430.618 234.881 429.149 236.216 427.28C237.551 425.411 241.824 423.541 241.691 424.609C241.691 424.609 236.751 430.618 235.949 430.618ZM248.635 426.077C247.7 428.881 245.831 430.751 244.495 430.484C243.16 430.217 246.097 423.006 246.097 423.006C246.899 421.938 249.57 423.273 248.635 426.077Z" fill="white" stroke="#263238" stroke-miterlimit="10"/>
<path d="M225.063 442.109C224.87 440.886 224.621 439.363 224.314 438.239C223.765 436.224 222.299 434.942 220.101 434.942C217.903 434.942 210.21 434.026 210.21 434.026C209.294 433.843 192.423 430.897 190.958 430.531C189.493 430.165 159.656 407.1 159.656 407.1L153.062 431.278C153.062 431.278 150.864 438.788 152.879 439.154C154.894 439.52 175.405 447.287 179.069 449.852C182.732 452.416 186.365 460.132 192.775 463.063C199.186 465.994 213.508 467.179 216.622 465.531C219.736 463.883 225.414 450.878 225.963 450.511C226.512 450.145 228.527 447.764 228.894 446.298C229.087 445.521 227.119 443.717 225.063 442.109Z" fill="white" stroke="#263238" stroke-miterlimit="10"/>
<path d="M218.636 448.129C218.636 448.129 223.215 450.693 225.963 450.51" stroke="#263238" stroke-miterlimit="10"/>
<path d="M206.913 438.238C206.913 438.238 214.789 439.154 217.354 439.887C219.918 440.62 225.063 442.109 225.063 442.109" stroke="#263238" stroke-miterlimit="10"/>
<path d="M216.071 455.273C216.071 455.273 220.284 457.471 223.031 457.105" stroke="#263238" stroke-miterlimit="10"/>
<path d="M209.66 461.867C209.66 461.867 212.408 464.981 218.635 464.248" stroke="#263238" stroke-miterlimit="10"/>
<path d="M180.993 221.555C180.993 221.555 175.786 227.024 173.879 227.596C171.972 228.168 171.018 227.977 170.256 228.931C169.493 229.885 166.823 235.224 166.442 237.322C166.061 239.42 165.679 241.708 160.339 244.95C154.999 248.192 150.041 252.388 139.743 252.197C129.445 252.006 126.775 246.285 124.677 245.332C122.579 244.379 116.095 248.002 116.095 248.002C116.095 248.002 107.323 249.909 106.369 251.053C105.415 252.197 80.8137 220.54 80.8137 220.54L66.5107 220.158C66.5107 220.158 78.1437 216.153 88.4417 214.055C98.7397 211.957 107.131 203.948 108.276 199.371C109.42 194.794 113.234 184.305 132.114 183.924C150.994 183.542 181.698 207.762 186.847 212.53C191.996 217.299 180.993 221.555 180.993 221.555Z" fill="#D4D4D4" stroke="#263238" stroke-miterlimit="10"/>
<path d="M73.3848 219.083C73.3848 219.083 90.0588 215.535 101.412 225.824C112.765 236.112 109.927 252.432 109.927 252.432C109.927 252.432 90.0588 221.921 73.3848 219.083Z" fill="#263238" stroke="#263238" stroke-miterlimit="10"/>
<path d="M121.243 232.453C122.007 237.327 123.27 243.924 124.677 245.331" stroke="#263238" stroke-miterlimit="10"/>
<path d="M120.481 227.025C120.481 227.025 120.618 228.179 120.864 229.912" stroke="#263238" stroke-miterlimit="10"/>
<path d="M128.682 195.177C130.069 192.055 128.365 187.611 125.539 184.545C112.3 186.916 109.273 195.385 108.276 199.372C107.744 201.501 105.63 204.37 102.499 207.044C103.614 209.595 106.848 211.558 114.378 210.052C125.821 207.763 128.682 195.177 128.682 195.177Z" fill="#263238" stroke="#263238" stroke-miterlimit="10"/>
<path d="M149.502 196.615C149.502 196.615 144.632 211.994 146.426 212.507C148.22 213.02 149.246 214.301 150.271 213.02C151.296 211.739 156.166 206.099 156.935 204.818C157.704 203.536 149.502 196.615 149.502 196.615Z" fill="#263238" stroke="#263238" stroke-miterlimit="10"/>
<path d="M167.716 228.979C166.311 230.953 164.303 231.934 163.23 231.17C162.157 230.407 162.427 228.188 163.831 226.214C165.236 224.24 167.244 223.259 168.316 224.023C169.39 224.787 169.121 227.006 167.716 228.979Z" fill="#263238"/>
<path d="M153.855 223.211C153.283 221.685 148.134 192.889 147.371 189.837C147.077 188.662 146.953 187.801 146.791 187.128C145.673 186.693 144.567 186.309 143.469 185.951C144.3 186.651 144.856 187.64 145.082 188.692C145.654 191.362 151.375 223.782 151.375 223.782C151.375 223.782 150.231 228.55 148.514 230.647C146.798 232.745 143.746 235.415 139.36 233.698C134.974 231.982 132.304 228.93 132.304 228.93C132.304 228.93 134.974 195.938 135.737 190.407C136.5 184.876 137.835 185.639 137.835 185.639C138.647 185.252 139.401 185.045 140.097 184.972C139.134 184.732 138.181 184.517 137.25 184.357C134.534 185.855 134.021 189.262 134.021 189.262L129.635 227.976L126.393 228.739C126.393 228.739 124.813 240.372 124.022 245.191C124.266 245.21 124.493 245.247 124.677 245.331C126.775 246.285 129.445 252.006 139.743 252.196C150.041 252.387 154.999 248.191 160.339 244.949C165.679 241.707 166.06 239.418 166.442 237.321C166.609 236.403 167.214 234.865 167.905 233.345C166.059 232.161 154.382 224.616 153.855 223.211Z" fill="white" stroke="#263238" stroke-miterlimit="10"/>
<path d="M174.07 225.88C174.07 225.88 174.07 222.447 171.972 219.968C169.874 217.489 165.869 219.205 165.869 219.205" stroke="#263238" stroke-miterlimit="10"/>
<path d="M133.181 244.965C132.98 246.762 132.997 248.377 133.449 249.339" stroke="#263238" stroke-miterlimit="10"/>
<path d="M135.356 235.416C135.356 235.416 134.288 238.738 133.609 242.238" stroke="#263238" stroke-miterlimit="10"/>
<path d="M144.892 237.514C144.892 237.514 143.557 241.328 145.083 246.286" stroke="#263238" stroke-miterlimit="10"/>
<path d="M19.0708 370.947C35.7088 404.588 64.8928 436.924 103.23 454.546C106.292 455.952 109.412 457.278 112.581 458.533C120.133 461.526 127.963 464.099 135.993 466.314L132.072 394.495C132.072 394.495 130.534 375.784 131.303 374.502C132.072 373.221 117.462 278.126 115.411 268.386C113.36 258.646 110.541 254.801 110.541 254.801C110.541 254.801 108.491 236.346 93.6238 225.837C78.7568 215.328 63.6348 218.147 55.9448 223.017C48.2548 227.887 34.6708 246.598 27.2368 274.025C19.8038 301.451 21.0848 350.408 21.0848 350.408L19.0708 370.947Z" fill="#8B3A3A" stroke="#263238" stroke-miterlimit="10"/>
<path d="M89.3877 434.333C91.4287 427.393 94.2867 420.044 101.636 434.333C104.946 440.77 112.437 451.42 119.672 461.185C125.125 463.127 130.706 464.867 136.389 466.424L135.114 426.576L67.7497 335.533C67.7497 335.533 60.8087 366.561 64.8917 389.016C68.9747 411.47 87.3467 441.273 89.3877 434.333Z" fill="#263238" stroke="#263238" stroke-miterlimit="10"/>
<path d="M61.7908 271.149C61.7908 271.149 66.9268 336.447 66.9268 341.582C66.9268 346.718 65.8258 361.025 74.2638 379.733C82.7008 398.442 101.043 413.482 101.043 413.482C101.043 413.482 119.752 434.392 125.621 437.694C131.49 440.995 147.631 441.729 155.702 438.061C163.772 434.393 167.808 420.82 167.074 413.116C166.34 405.412 156.069 398.442 152.4 395.875C148.732 393.307 142.862 381.935 139.927 374.965C136.992 367.995 135.525 367.995 135.525 363.96C135.525 359.925 135.892 354.055 135.892 341.95C135.892 329.844 114.248 275.185 112.781 270.783C111.314 266.381 110.54 254.801 110.54 254.801" fill="#8B3A3A"/>
<path d="M61.7908 271.149C61.7908 271.149 66.9268 336.447 66.9268 341.582C66.9268 346.718 65.8258 361.025 74.2638 379.733C82.7008 398.442 101.043 413.482 101.043 413.482C101.043 413.482 119.752 434.392 125.621 437.694C131.49 440.995 147.631 441.729 155.702 438.061C163.772 434.393 167.808 420.82 167.074 413.116C166.34 405.412 156.069 398.442 152.4 395.875C148.732 393.307 142.862 381.935 139.927 374.965C136.992 367.995 135.525 367.995 135.525 363.96C135.525 359.925 135.892 354.055 135.892 341.95C135.892 329.844 114.248 275.185 112.781 270.783C111.314 266.381 110.54 254.801 110.54 254.801" stroke="#263238" stroke-miterlimit="10"/>
<path d="M122.541 343.689C125.038 349.949 127.923 355.988 130.887 359.751" stroke="#263238" stroke-miterlimit="10"/>
<path d="M114.613 319.715C114.613 319.715 116.616 327.225 119.692 336.035" stroke="#263238" stroke-miterlimit="10"/>
<path d="M137.235 392.685C129.275 390.382 117.29 385.274 106.475 374.072" stroke="#263238" stroke-miterlimit="10"/>
<path d="M146.255 394.524C146.255 394.524 144.315 394.382 141.106 393.674" stroke="#263238" stroke-miterlimit="10"/>
<path d="M146.907 200.919C146.907 200.919 173.573 217.614 181.92 219.701L180.993 221.556C180.993 221.556 189.572 221.788 196.297 219.005C203.021 216.222 206.963 211.585 202.094 202.31C197.225 193.035 190.5 188.165 190.5 188.165C190.5 188.165 183.776 166.601 164.298 159.876C144.82 153.151 120.473 153.615 106.793 167.76C93.1118 181.904 96.8218 191.643 100.764 195.353C104.706 199.063 110.735 198.831 110.735 198.831C110.735 198.831 119.778 200.686 125.111 198.831C130.444 196.976 132.995 191.643 132.995 191.643L146.907 200.919Z" fill="#8B3A3A" stroke="#263238" stroke-miterlimit="10"/>
<path d="M146.907 200.919C146.907 200.919 145.748 193.731 141.574 192.34C137.4 190.949 133.226 199.064 133.922 203.702C134.618 208.34 134.618 211.122 137.864 211.818C141.11 212.514 142.734 210.659 142.734 210.659" fill="#D4D4D4"/>
<path d="M146.907 200.919C146.907 200.919 145.748 193.731 141.574 192.34C137.4 190.949 133.226 199.064 133.922 203.702C134.618 208.34 134.618 211.122 137.864 211.818C141.11 212.514 142.734 210.659 142.734 210.659" stroke="#263238" stroke-miterlimit="10"/>
<path d="M132.995 191.642C132.995 191.642 136.089 189.129 142.511 188.773Z" fill="white"/>
<path d="M132.995 191.642C132.995 191.642 136.089 189.129 142.511 188.773" stroke="#263238" stroke-miterlimit="10"/>
<path d="M190.47 190.6C190.47 190.6 194.475 200.898 195.238 206.81" stroke="#263238" stroke-miterlimit="10"/>
<path d="M173.179 210.691C175.563 212.49 177.687 214.118 179.028 215.201C183.986 219.206 186.656 217.871 188.563 216.345" stroke="#263238" stroke-miterlimit="10"/>
<path d="M158.432 199.754C158.432 199.754 163.913 203.765 169.415 207.868" stroke="#263238" stroke-miterlimit="10"/>
<path d="M40.2517 345.732L40.8827 352.152" stroke="#263238" stroke-miterlimit="10"/>
<path d="M33.4177 276.188L39.6107 339.208" stroke="#263238" stroke-miterlimit="10"/>
<path d="M40.4436 361.373C40.4436 361.373 42.3066 380.685 44.7686 402.94" stroke="#263238" stroke-miterlimit="10"/>
<path d="M62.8377 353.031C62.8377 353.031 46.5907 352.592 45.2737 353.031C43.9567 353.47 27.7097 357.422 27.7097 357.422" stroke="#263238" stroke-miterlimit="10"/>
<path d="M58.4277 290.848C60.1267 295.036 61.7067 298.435 61.7067 298.435" stroke="#263238" stroke-miterlimit="10"/>
<path d="M57.6858 262.055C57.6858 262.055 53.4738 272.203 54.4308 278.521C54.7668 280.738 55.7628 283.851 56.9138 286.958" stroke="#263238" stroke-miterlimit="10"/>
<path d="M65.9197 218.781C65.9197 218.781 55.5807 215.143 54.6227 216.675C53.6657 218.207 41.4117 232.567 40.6457 234.865C39.8797 237.163 45.8157 240.609 47.5387 240.801C49.2617 240.992 60.7507 235.248 61.3247 232.376C61.8987 229.504 59.2187 220.888 59.2187 220.888L65.9197 218.781ZM56.9207 231.801C54.4317 235.247 47.3467 237.737 45.4327 237.545C43.5177 237.354 45.2417 236.205 47.1557 232.184C49.0707 228.163 54.4317 216.675 55.1977 218.973C55.1977 218.973 59.4097 228.354 56.9207 231.801Z" fill="#8B3A3A" stroke="#263238" stroke-miterlimit="10"/>
<path d="M19.6136 372.027C20.2526 361.918 20.8266 353.143 20.8266 353.143L17.5066 367.702C18.1836 369.146 18.8896 370.587 19.6136 372.027Z" fill="#263238" stroke="#263238" stroke-miterlimit="10"/>
<path d="M16.0716 364.574C16.6746 365.926 17.3046 367.277 17.9476 368.627L20.8256 353.143H17.9006C17.9006 353.143 16.9736 357.511 15.7126 363.737C15.8346 364.016 15.9476 364.297 16.0716 364.574Z" fill="#8B3A3A" stroke="#263238" stroke-miterlimit="10"/>
<path d="M10.8797 354.312C4.44368 359.285 0.348679 373.912 5.02868 377.422C9.70968 380.932 12.6347 380.64 14.6817 373.912C16.7297 367.184 18.4847 355.19 20.8247 353.142C20.8247 353.142 17.3157 349.339 10.8797 354.312ZM11.1727 375.374C9.41768 377.714 4.44468 374.204 4.44468 371.864C4.44468 369.524 10.0357 357.632 15.5607 354.02C15.5607 354.02 12.9277 373.034 11.1727 375.374Z" fill="#8B3A3A" stroke="#263238" stroke-miterlimit="10"/>
<path d="M85.7676 399.947C85.7676 399.947 87.6326 424.363 89.9426 444.408" stroke="#263238" stroke-miterlimit="10"/>
<path d="M65.2908 257.194C65.2908 257.194 85.4758 239.35 90.7408 240.227C96.0058 241.105 102.15 249.003 102.735 250.173" stroke="#263238" stroke-miterlimit="10"/>
<path d="M394.529 220.922C408.964 220.922 420.667 208.555 420.667 193.299C420.667 178.043 408.964 165.676 394.529 165.676C380.093 165.676 368.391 178.043 368.391 193.299C368.391 208.555 380.093 220.922 394.529 220.922Z" fill="#263238" stroke="#263238" stroke-miterlimit="10"/>
<path d="M393.163 217.212C406.051 217.212 416.499 206.251 416.499 192.729C416.499 179.208 406.051 168.246 393.163 168.246C380.275 168.246 369.827 179.208 369.827 192.729C369.827 206.251 380.275 217.212 393.163 217.212Z" fill="white" stroke="#263238" stroke-miterlimit="10"/>
<path d="M376.667 195.479L392.747 192.11L382.088 191.652" fill="white"/>
<path d="M376.667 195.479L392.747 192.11L382.088 191.652" stroke="#263238" stroke-miterlimit="10"/>
<path d="M366.429 46.6249C333.444 39.2389 302.978 49.891 298.382 70.416L295.701 82.3909L298.409 81.1969C302.09 98.3319 322.523 114.849 349.786 120.953C375.658 126.746 399.975 121.439 411.479 108.978L414.448 111.776L417.135 99.594C417.404 98.798 417.647 97.991 417.832 97.162C422.429 76.637 399.415 54.0099 366.429 46.6249Z" fill="#263238" stroke="#263238" stroke-miterlimit="10"/>
<path d="M415.146 109.15C419.658 89.0005 396.577 66.6791 363.593 59.2934C330.609 51.9076 300.213 62.2544 295.701 82.4035C291.189 102.553 314.27 124.874 347.254 132.26C380.238 139.646 410.635 129.299 415.146 109.15Z" fill="#D1D1D1" stroke="#263238" stroke-miterlimit="10"/>
<path d="M343.008 105.453C343.008 105.453 332.935 116.688 333.581 120.175C334.227 123.662 344.042 128.828 353.598 129.215C363.155 129.602 365.737 127.794 366.125 124.049C366.513 120.304 361.605 108.939 361.605 108.939L343.008 105.453Z" fill="white"/>
<path d="M353.856 84.7913C353.856 84.7913 356.826 79.8833 354.889 72.0063C352.952 64.1283 344.428 62.0623 337.196 62.7083C329.964 63.3543 319.374 67.6163 320.278 72.7813C321.182 77.9473 343.007 85.9543 346.753 86.8583C350.499 87.7623 352.694 86.8573 353.856 84.7913Z" fill="white"/>
<path d="M372.84 69.295C372.84 69.295 362.896 81.305 362.25 85.309C361.604 89.312 360.959 90.475 368.32 91.766C375.681 93.057 395.957 91.508 398.669 88.925C401.381 86.342 400.994 82.08 394.149 76.269C387.305 70.458 378.652 65.163 372.84 69.295Z" fill="white"/>
<path d="M340.813 89.5681C340.813 89.5681 314.468 83.6271 309.818 84.5311C305.168 85.4351 303.877 96.1541 306.46 101.32C309.043 106.486 311.497 108.81 317.437 108.035C323.378 107.26 340.812 100.286 342.878 95.8951C344.945 91.5051 342.491 89.9551 340.813 89.5681Z" fill="white"/>
<path d="M382.268 96.9299C382.268 96.9299 374.132 94.8639 370.903 96.1549C367.674 97.4459 365.221 100.546 368.837 106.228C372.453 111.91 379.169 118.755 386.53 121.209C393.891 123.663 398.024 120.951 401.64 116.301C405.256 111.651 406.289 107.261 400.478 103.387C394.666 99.5129 382.268 96.9299 382.268 96.9299Z" fill="white"/>
<path d="M363.026 96.3014C362.368 98.6004 358.928 99.6314 355.343 98.6044C351.758 97.5774 349.386 94.8824 350.044 92.5834C350.702 90.2844 354.142 89.2534 357.727 90.2804C361.312 91.3074 363.684 94.0034 363.026 96.3014Z" fill="white" stroke="#263238" stroke-miterlimit="10"/>
<path d="M366.682 108.067C365.378 112.621 358.563 114.663 351.461 112.629C344.359 110.595 339.659 105.255 340.963 100.701C342.267 96.147 349.082 94.105 356.184 96.139C363.286 98.173 367.986 103.513 366.682 108.067Z" fill="#263238" stroke="#263238" stroke-miterlimit="10"/>
<path d="M354.628 101.573C352.205 100.879 349.881 101.576 349.436 103.129L347.609 116.378L354.826 118.445L358.209 105.641C358.654 104.088 357.051 102.266 354.628 101.573Z" fill="white" stroke="#263238" stroke-miterlimit="10"/>
<path d="M354.826 118.447C354.46 119.725 352.548 120.298 350.555 119.727C348.562 119.156 347.243 117.658 347.609 116.38C347.975 115.102 349.887 114.529 351.88 115.1C353.873 115.671 355.192 117.169 354.826 118.447Z" fill="white" stroke="#263238" stroke-miterlimit="10"/>
<path d="M229.068 84.621C262.053 77.235 292.519 87.887 297.115 108.412L299.796 120.387L297.088 119.193C293.407 136.328 272.974 152.845 245.711 158.949C219.839 164.742 195.522 159.435 184.018 146.974L181.049 149.772L178.362 137.59C178.093 136.794 177.85 135.987 177.665 135.158C173.068 114.633 196.083 92.006 229.068 84.621Z" fill="#263238" stroke="#263238" stroke-miterlimit="10"/>
<path d="M248.231 170.238C281.215 162.852 304.296 140.531 299.784 120.382C295.273 100.232 264.876 89.8857 231.892 97.2715C198.908 104.657 175.827 126.979 180.339 147.128C184.85 167.277 215.247 177.624 248.231 170.238Z" fill="#D1D1D1" stroke="#263238" stroke-miterlimit="10"/>
<path d="M252.489 143.449C252.489 143.449 262.562 154.685 261.916 158.171C261.27 161.658 251.455 166.824 241.899 167.211C232.342 167.598 229.759 165.79 229.372 162.045C228.985 158.3 233.892 146.935 233.892 146.935L252.489 143.449Z" fill="white"/>
<path d="M241.641 122.787C241.641 122.787 238.671 117.879 240.608 110.002C242.545 102.124 251.069 100.058 258.301 100.704C265.533 101.35 276.123 105.612 275.219 110.777C274.315 115.943 252.49 123.95 248.744 124.854C244.999 125.757 242.803 124.853 241.641 122.787Z" fill="white"/>
<path d="M222.657 107.291C222.657 107.291 232.601 119.301 233.247 123.305C233.893 127.308 234.539 128.471 227.177 129.762C219.816 131.054 199.54 129.504 196.828 126.921C194.116 124.338 194.503 120.076 201.348 114.265C208.193 108.453 216.845 103.159 222.657 107.291Z" fill="white"/>
<path d="M254.685 127.564C254.685 127.564 281.03 121.623 285.68 122.527C290.329 123.431 291.621 134.15 289.038 139.316C286.455 144.482 284.001 146.806 278.061 146.031C272.12 145.256 254.686 138.282 252.62 133.892C250.552 129.501 253.006 127.951 254.685 127.564Z" fill="white"/>
<path d="M213.229 134.926C213.229 134.926 221.365 132.86 224.594 134.151C227.823 135.443 230.276 138.542 226.66 144.224C223.044 149.906 216.328 156.751 208.967 159.205C201.606 161.659 197.473 158.947 193.857 154.297C190.241 149.648 189.208 145.257 195.019 141.383C200.831 137.509 213.229 134.926 213.229 134.926Z" fill="white"/>
<path d="M232.471 134.298C233.129 136.596 236.569 137.627 240.154 136.601C243.739 135.574 246.111 132.879 245.453 130.58C244.795 128.281 241.355 127.25 237.77 128.277C234.186 129.304 231.813 131.999 232.471 134.298Z" fill="white" stroke="#263238" stroke-miterlimit="10"/>
<path d="M244.043 150.641C251.146 148.608 255.846 143.267 254.542 138.713C253.238 134.159 246.423 132.116 239.321 134.15C232.219 136.183 227.518 141.524 228.822 146.078C230.127 150.632 236.941 152.675 244.043 150.641Z" fill="#263238" stroke="#263238" stroke-miterlimit="10"/>
<path d="M240.869 139.569C243.292 138.875 245.616 139.572 246.061 141.125L247.888 154.374L240.671 156.441L237.288 143.637C236.843 142.085 238.446 140.263 240.869 139.569Z" fill="white" stroke="#263238" stroke-miterlimit="10"/>
<path d="M240.671 156.443C241.037 157.721 242.949 158.294 244.942 157.723C246.935 157.152 248.254 155.654 247.888 154.376C247.522 153.098 245.61 152.525 243.617 153.096C241.624 153.667 240.305 155.165 240.671 156.443Z" fill="white" stroke="#263238" stroke-miterlimit="10"/>
<path d="M190.46 11.1618C228.85 -1.70718 266.419 3.06782 274.372 21.8248L279.012 32.7688L275.643 32.1088C273.33 49.0968 250.991 68.4538 219.261 79.0898C189.15 89.1838 159.55 88.4188 144.343 78.5708L141.145 81.7628L136.473 70.6228C136.057 69.9108 135.67 69.1848 135.349 68.4268C127.396 49.6688 152.07 24.0308 190.46 11.1618Z" fill="#263238" stroke="#263238" stroke-miterlimit="10"/>
<path d="M220.104 90.54C258.837 78.6164 285.485 53.5155 279.624 34.4755C273.763 15.4355 237.612 9.66652 198.878 21.5901C160.145 33.5137 133.497 58.6147 139.358 77.6547C145.219 96.6947 181.37 102.464 220.104 90.54Z" fill="#D1D1D1" stroke="#263238" stroke-miterlimit="10"/>
<path d="M225.461 63.1172C225.461 63.1172 238.815 72.0502 238.467 75.4892C238.119 78.9282 227.055 85.5872 215.72 87.6442C204.386 89.7022 201.091 88.4342 200.177 84.9322C199.263 81.4302 203.734 69.7272 203.734 69.7272L225.461 63.1172Z" fill="white"/>
<path d="M210.045 45.3289C210.045 45.3289 205.915 41.1749 207.27 33.3209C208.625 25.4679 218.526 21.9919 227.217 21.3299C235.908 20.6679 249.034 22.8609 248.582 27.9459C248.13 33.0309 223.105 44.5209 218.754 46.0439C214.403 47.5679 211.679 47.0939 210.045 45.3289Z" fill="white"/>
<path d="M185.564 33.9084C185.564 33.9084 198.858 43.6034 200.11 47.3064C201.363 51.0094 202.272 52.0035 193.662 54.5355C185.052 57.0675 160.718 59.1715 157.176 57.1875C153.634 55.2035 153.581 51.0724 161.03 44.3214C168.479 37.5714 178.144 30.9944 185.564 33.9084Z" fill="white"/>
<path d="M226.156 47.5818C226.156 47.5818 256.813 37.2638 262.459 37.3048C268.105 37.3458 270.938 47.3378 268.486 52.7188C266.034 58.1008 263.393 60.7498 256.224 61.0608C249.055 61.3718 227.45 57.8018 224.459 53.9808C221.469 50.1588 224.204 48.2478 226.156 47.5818Z" fill="white"/>
<path d="M177.676 61.9248C177.676 61.9248 187.116 58.5178 191.117 59.1788C195.118 59.8398 198.415 62.3618 194.795 68.4178C191.175 74.4748 184.005 82.1868 175.535 85.8268C167.065 89.4668 161.816 87.6108 156.948 83.8168C152.08 80.0228 150.319 76.0188 156.772 71.2978C163.224 66.5778 177.676 61.9248 177.676 61.9248Z" fill="white"/>
<path d="M200.516 57.9236C201.578 59.9986 205.799 60.3746 209.944 58.7626C214.089 57.1506 216.589 54.1616 215.527 52.0856C214.465 50.0106 210.244 49.6346 206.099 51.2466C201.954 52.8596 199.454 55.8486 200.516 57.9236Z" fill="white" stroke="#263238" stroke-miterlimit="10"/>
<path d="M197.583 69.7879C199.686 73.8989 208.049 74.6429 216.261 71.4489C224.473 68.2549 229.425 62.3329 227.322 58.2219C225.219 54.1109 216.856 53.3669 208.644 56.5609C200.432 59.7549 195.48 65.6769 197.583 69.7879Z" fill="#263238" stroke="#263238" stroke-miterlimit="10"/>
<path d="M211.154 61.4657C213.955 60.3757 216.808 60.6297 217.525 62.0327L221.302 74.3427L212.957 77.5887L207.381 65.9787C206.663 64.5757 208.352 62.5557 211.154 61.4657Z" fill="white" stroke="#263238" stroke-miterlimit="10"/>
<path d="M212.957 77.5888C213.547 78.7428 215.894 78.9508 218.198 78.0548C220.502 77.1588 221.892 75.4968 221.302 74.3428C220.712 73.1888 218.365 72.9807 216.061 73.8767C213.756 74.7727 212.367 76.4348 212.957 77.5888Z" fill="white" stroke="#263238" stroke-miterlimit="10"/>
<path d="M322.964 126.052L326.349 159.721L322.98 160.946L297.863 146.856C297.863 146.856 306.746 134.298 309.196 117.145" stroke="#263238" stroke-miterlimit="10"/>
<path d="M241.948 175.701C230.746 176.736 222.82 175.648 222.82 175.648" stroke="#263238" stroke-miterlimit="10"/>
<path d="M304.277 161.519L292.35 155.434C292.35 155.434 275.197 168.605 256.819 173.199C253.868 173.937 250.988 174.501 248.233 174.928" stroke="#263238" stroke-miterlimit="10"/>
<path d="M334.619 130.316L336.457 157.27C336.457 157.27 344.421 159.414 344.727 168.603C345.033 177.792 333.088 181.774 327.881 178.711C322.674 175.648 322.368 170.747 322.368 170.747L308.827 163.838" stroke="#263238" stroke-miterlimit="10"/>
<path d="M306.882 115.016C306.882 115.016 305.34 135.377 295.159 145.404" stroke="#263238" stroke-miterlimit="10"/>
<path d="M328.323 161.135C328.323 161.135 330.945 159.593 331.717 163.603C332.488 167.614 332.951 174.555 335.265 176.56C337.579 178.565 339.893 176.714 339.893 176.714" stroke="#263238" stroke-miterlimit="10"/>
<path d="M324.93 172.551C324.93 172.551 326.01 177.95 333.722 178.567" stroke="#263238" stroke-miterlimit="10"/>
<path d="M390.352 29.6294C379.67 26.0794 370.318 25.0664 361.22 25.0664C348.392 25.0664 333.803 28.8394 328.017 31.3544" stroke="#263238" stroke-miterlimit="10"/>
<path d="M474.381 49.5562L435.423 59.7782C435.423 59.7782 421.086 43.6802 404.233 35.3792C401.355 33.9622 398.58 32.7283 395.893 31.6562" stroke="#263238" stroke-miterlimit="10"/>
<path d="M486.233 46.4453L480.848 47.8583" stroke="#263238" stroke-miterlimit="10"/>
<path d="M332.042 35.3774C332.042 35.3774 355.397 24.8514 389.102 35.9184C422.808 46.9864 428.975 63.8914 431.49 69.4254C434.005 74.9594 438.944 91.2184 432.908 102.286C426.871 113.354 414.294 121.654 414.294 121.654" stroke="#263238" stroke-miterlimit="10"/>
<path d="M459.253 67.3685L476.078 63.1875" stroke="#263238" stroke-miterlimit="10"/>
<path d="M406.748 127.693C424.607 120.398 434.92 109.582 438.442 99.2688C441.964 88.9558 440.203 72.1028 440.203 72.1028L454.168 68.6328" stroke="#263238" stroke-miterlimit="10"/>
<path d="M311.927 38.3209C312.84 39.7979 316.167 39.3969 319.357 37.4249C322.548 35.4529 324.394 32.6569 323.481 31.1799C322.568 29.7029 319.241 30.1039 316.051 32.0759C312.861 34.0479 311.014 36.8439 311.927 38.3209Z" stroke="#263238" stroke-miterlimit="10"/>
<path d="M311.927 38.3203L319.716 46.1943C319.716 46.1943 325.25 48.2063 328.268 42.4213" stroke="#263238" stroke-miterlimit="10"/>
<path d="M323.993 39.1537L329.778 36.3867" stroke="#263238" stroke-miterlimit="10"/>
<path d="M289.532 4.94141C289.532 4.94141 298.084 19.2794 282.741 37.1384" stroke="#263238" stroke-miterlimit="10"/>
<path d="M293.305 5.69531C293.305 5.69531 299.593 22.2963 292.047 33.6163C284.501 44.9353 282.237 46.4443 282.237 46.4443C282.237 46.4443 282.74 47.7023 281.482 50.2173C280.224 52.7323 277.961 53.2353 277.961 53.2353" stroke="#263238" stroke-miterlimit="10"/>
<path d="M121.758 49.2139C120.936 45.6969 119.282 43.0769 118.065 43.3609L111.466 45.3609L111.423 46.0669L114.444 58.0979L121.043 56.0979C122.26 55.8129 122.58 52.7309 121.758 49.2139Z" stroke="#263238" stroke-miterlimit="10"/>
<path d="M115.158 51.2141C115.98 54.7311 115.66 57.813 114.443 58.098C113.226 58.383 111.572 55.762 110.75 52.245C109.928 48.728 110.248 45.6461 111.465 45.3611C112.682 45.0761 114.336 47.6971 115.158 51.2141Z" stroke="#263238" stroke-miterlimit="10"/>
<path d="M164.937 12.2962C168.276 10.4692 171.83 8.81216 175.591 7.41016" stroke="#263238" stroke-miterlimit="10"/>
<path d="M128.676 46.1662C128.676 46.1662 139.879 27.8342 160.345 14.9922" stroke="#263238" stroke-miterlimit="10"/>
<path d="M123.236 41.5779C123.236 41.5779 129.355 29.1689 140.064 19.1399C150.773 9.11087 159.612 3.67188 159.612 3.67188" stroke="#263238" stroke-miterlimit="10"/>
<path d="M131.736 42.2559L137.006 42.0859C137.006 42.0859 138.706 42.9359 138.706 45.6559" stroke="#263238" stroke-miterlimit="10"/>
<path d="M121.367 58.915L133.265 56.875" stroke="#263238" stroke-miterlimit="10"/>
<path d="M112.305 85.9648L111.14 94.2798" stroke="#263238" stroke-miterlimit="10"/>
<path d="M116.011 59.5156L113.145 79.9706" stroke="#263238" stroke-miterlimit="10"/>
<path d="M126.639 65.0508L120.439 94.9418" stroke="#263238" stroke-miterlimit="10"/>
</svg>
